<svg xmlns="http://www.w3.org/2000/svg" xmlns:xlink="http://www.w3.org/1999/xlink" width="668.356" height="217.512" viewBox="0 0 501.267 163.134"><clipPath id="a"><path transform="matrix(1 0 0 -1 -48.446 727.735)" d="M0 0h612v792H0z"/></clipPath><g clip-path="url(#a)"><path stroke-width=".996" stroke-miterlimit="10" fill="none" stroke="#000" d="M6.994-6.669h486"/><clipPath id="b"><path transform="matrix(.56186 0 0 -.56186 6.994 178.095)" d="M0 0h865v312H0z"/></clipPath><g clip-path="url(#b)"><clipPath id="c"><path transform="matrix(.56186 0 0 -.56186 6.994 178.095)" d="M0 0h864.96v312H0z"/></clipPath><g clip-path="url(#c)"><path d="M6.994 2.795H492.98v175.3H6.994z" fill="#fff"/></g><path d="M6.994 2.795h485.798v175.16H6.994z" fill="#fff"/><path d="M13.92 12.34h106.89v98.847H13.92z" fill="#f0cbf2" fill-opacity=".098"/><path stroke-width=".762" stroke-dasharray="3.048,2.286" stroke-miterlimit="8" fill="none" stroke="#000" d="M13.92 12.34h106.89v98.847H13.92z"/><path d="M130.641 12.34h286.37v142.867h-286.37z" fill="#e2f0d9" fill-opacity=".298"/><path stroke-width=".762" stroke-dasharray="3.048,2.286" stroke-miterlimit="8" fill="none" stroke="#000" d="M130.641 12.34h286.37v142.867h-286.37z"/><path d="M20.904 77.22a9.16 9.16 0 0 1 9.16-9.16h74.603a9.16 9.16 0 0 1 9.159 9.16v16.72a9.16 9.16 0 0 1-9.16 9.16H30.064a9.16 9.16 0 0 1-9.16-9.16z" fill="#fff2cc" fill-rule="evenodd"/><path stroke-width=".508" stroke-miterlimit="8" fill="none" stroke="#000" d="M20.904 77.22a9.16 9.16 0 0 1 9.16-9.16h74.603a9.16 9.16 0 0 1 9.159 9.16v16.72a9.16 9.16 0 0 1-9.16 9.16H30.064a9.16 9.16 0 0 1-9.16-9.16z"/><symbol id="d"><path d="M.687.016c0-.003 0-.005-.002-.007A.014.014 0 0 0 .678.004.08.08 0 0 0 .666 0a.114.114 0 0 0-.052.002.014.014 0 0 0-.007.006.012.012 0 0 0-.002.007v.55L.378.013A.015.015 0 0 0 .375.007.021.021 0 0 0 .367.003.12.12 0 0 0 .321 0a.08.08 0 0 0-.012.002A.029.029 0 0 0 .3.008a.014.014 0 0 0-.004.005L.082.566v-.55L.08.009A.014.014 0 0 0 .073.004.112.112 0 0 0 .04 0a.109.109 0 0 0-.032.004A.014.014 0 0 0 0 .009.015.015 0 0 0 0 .016v.58C0 .61.004.62.01.627a.037.037 0 0 0 .025.009h.05c.01 0 .02-.001.028-.003A.054.054 0 0 0 .148.607a.116.116 0 0 0 .01-.024L.341.126h.003l.19.456.012.025A.062.062 0 0 0 .56.623C.565.627.57.63.577.632a.071.071 0 0 0 .021.003h.053c.005 0 .01-.001.014-.003A.023.023 0 0 0 .676.625.03.03 0 0 0 .684.614.044.044 0 0 0 .687.597V.016z"/></symbol><symbol id="e"><path d="M.379.021c0-.002 0-.004-.002-.006A.013.013 0 0 0 .371.01.044.044 0 0 0 .36.007a.145.145 0 0 0-.036 0 .043.043 0 0 0-.01.003.013.013 0 0 0-.006.005.015.015 0 0 0-.001.006V.08A.274.274 0 0 0 .23.019.17.17 0 0 0 .083.015a.131.131 0 0 0-.048.04.167.167 0 0 0-.027.058A.366.366 0 0 0 0 .194v.267l.001.006a.014.014 0 0 0 .007.005.033.033 0 0 0 .013.003.162.162 0 0 0 .051-.003A.014.014 0 0 0 .08.467.01.01 0 0 0 .081.461V.205C.081.18.083.16.086.143a.125.125 0 0 1 .018-.04.085.085 0 0 1 .029-.025.09.09 0 0 1 .04-.009c.021 0 .041.007.06.022.021.014.042.035.065.063V.46l.001.006a.014.014 0 0 0 .007.005.032.032 0 0 0 .012.003A.167.167 0 0 0 .37.472.014.014 0 0 0 .376.467.009.009 0 0 0 .38.461V.02z"/></symbol><symbol id="f"><path d="M.08.015.08.008A.017.017 0 0 0 .072.004.045.045 0 0 0 .06 0a.167.167 0 0 0-.052.003A.017.017 0 0 0 0 .008.015.015 0 0 0 0 .015v.652l.001.007A.014.014 0 0 0 .008.68.052.052 0 0 0 .02.682.162.162 0 0 0 .072.68.014.014 0 0 0 .08.674.012.012 0 0 0 .08.667V.015z"/></symbol><symbol id="g"><path d="M.287.053c0-.01 0-.017-.002-.023A.025.025 0 0 0 .28.018.038.038 0 0 0 .268.011a.186.186 0 0 0-.12-.002.098.098 0 0 0-.064.074.285.285 0 0 0-.006.066v.257H.016C.011.406.007.408.004.414A.055.055 0 0 0 0 .439l.001.016a.047.047 0 0 0 .003.01L.01.47a.015.015 0 0 0 .008.002h.06v.104L.08.583a.014.014 0 0 0 .006.005.04.04 0 0 0 .013.004A.162.162 0 0 0 .15.588.014.014 0 0 0 .156.583.011.011 0 0 0 .158.577V.473h.113L.278.47.283.465a.027.027 0 0 0 .003-.01L.287.439A.055.055 0 0 0 .283.414C.28.408.276.406.27.406H.158V.16c0-.03.005-.054.013-.07C.181.077.197.07.22.07a.093.093 0 0 1 .035.007.34.34 0 0 1 .02.007C.279.083.28.082.28.08.282.081.283.08.284.077a.042.042 0 0 0 .002-.01L.287.053z"/></symbol><symbol id="h"><path d="M.09.015C.09.013.09.01.088.008A.017.017 0 0 0 .082.004.045.045 0 0 0 .07 0a.167.167 0 0 0-.052.003.017.017 0 0 0-.007.004.015.015 0 0 0-.001.007v.44L.01.46a.014.014 0 0 0 .007.005.052.052 0 0 0 .012.003.162.162 0 0 0 .052-.003A.014.014 0 0 0 .088.46.011.011 0 0 0 .09.455v-.44M.1.603C.1.584.096.571.089.564.082.558.069.554.049.554.03.554.017.557.01.564.003.571 0 .584 0 .602c0 .019.004.032.01.039.008.006.021.01.04.01C.07.65.082.647.09.64.096.634.099.62.099.603z"/></symbol><symbol id="i"><path d="M.652.015C.652.013.652.01.65.008A.017.017 0 0 0 .644.004.045.045 0 0 0 .63 0 .162.162 0 0 0 .58.004a.017.017 0 0 0-.006.004.012.012 0 0 0-.002.007v.267a.244.244 0 0 1-.005.051.117.117 0 0 1-.016.04.073.073 0 0 1-.027.025.082.082 0 0 1-.04.009.093.093 0 0 1-.055-.022.393.393 0 0 1-.062-.063V.015c0-.002 0-.005-.002-.007A.017.017 0 0 0 .357.004.045.045 0 0 0 .345 0a.162.162 0 0 0-.052.003.017.017 0 0 0-.006.004.015.015 0 0 0-.001.007v.267A.223.223 0 0 1 .28.333a.124.124 0 0 1-.016.04.073.073 0 0 1-.066.034.093.093 0 0 1-.056-.022.367.367 0 0 1-.061-.063V.015L.079.008A.017.017 0 0 0 .072.004.045.045 0 0 0 .06 0a.167.167 0 0 0-.052.003A.017.017 0 0 0 0 .008.015.015 0 0 0 0 .015v.44L.001.46c.001.002.003.004.006.005A.027.027 0 0 0 .02.469.133.133 0 0 0 .065.466.011.011 0 0 0 .071.46.01.01 0 0 0 .073.455V.396a.283.283 0 0 0 .072.061c.023.013.047.02.07.02A.172.172 0 0 0 .265.47.128.128 0 0 0 .35.39a.475.475 0 0 0 .08.067.153.153 0 0 0 .141.004.125.125 0 0 0 .047-.04.154.154 0 0 0 .025-.058.306.306 0 0 0 .008-.07V.015z"/></symbol><symbol id="j"><path d="M.44.246A.332.332 0 0 0 .424.147.216.216 0 0 0 .383.069a.191.191 0 0 0-.07-.05A.245.245 0 0 0 .214 0 .255.255 0 0 0 .12.016a.173.173 0 0 0-.067.047.199.199 0 0 0-.04.075.347.347 0 0 0-.013.1c0 .035.005.068.014.098a.192.192 0 0 0 .112.129c.028.012.06.018.098.018A.252.252 0 0 0 .318.467.172.172 0 0 0 .386.42a.199.199 0 0 0 .04-.075.333.333 0 0 0 .013-.099M.354.241a.32.32 0 0 1-.006.067.163.163 0 0 1-.022.056.106.106 0 0 1-.04.037.133.133 0 0 1-.065.015.138.138 0 0 1-.062-.013.112.112 0 0 1-.042-.036.162.162 0 0 1-.025-.055.346.346 0 0 1-.001-.137.17.17 0 0 1 .022-.056.116.116 0 0 1 .106-.051c.023 0 .044.004.06.013.018.008.032.02.043.035.011.016.02.034.025.055a.292.292 0 0 1 .007.07z"/></symbol><symbol id="k"><path d="M.404.021c0-.002 0-.004-.002-.006C.402.013.4.01.396.01a.12.12 0 0 0-.056 0 .014.014 0 0 0-.006.005.012.012 0 0 0-.001.006V.08A.295.295 0 0 0 .26.02.163.163 0 0 0 .18 0a.17.17 0 0 0-.083.019.16.16 0 0 0-.055.05.23.23 0 0 0-.031.076.415.415 0 0 0 .002.193c.008.03.02.057.036.078a.16.16 0 0 0 .06.05.183.183 0 0 0 .081.017C.215.483.24.477.26.466a.243.243 0 0 0 .064-.05v.256c0 .002 0 .004.002.006a.011.011 0 0 0 .007.005.109.109 0 0 0 .032.004.112.112 0 0 0 .032-.004.01.01 0 0 0 .006-.005.01.01 0 0 0 .002-.006v-.65M.324.33A.308.308 0 0 1 .26.392a.108.108 0 0 1-.064.022.09.09 0 0 1-.052-.015A.115.115 0 0 1 .109.36a.194.194 0 0 1-.02-.054A.427.427 0 0 1 .088.18.196.196 0 0 1 .106.123.11.11 0 0 1 .14.083a.106.106 0 0 1 .114.004l.033.027a.43.43 0 0 1 .036.04v.177z"/></symbol><symbol id="l"><path d="M.36.021C.36.017.36.014.358.012a.027.027 0 0 0-.01-.004.102.102 0 0 0-.02-.002c-.01 0-.016 0-.021.002a.024.024 0 0 0-.011.004C.293.014.292.017.292.021v.044A.216.216 0 0 0 .227.017.169.169 0 0 0 .152 0 .202.202 0 0 0 .09.01.121.121 0 0 0 .01.077.142.142 0 0 0 0 .133C0 .159.005.18.015.198.025.216.04.232.06.244A.21.21 0 0 0 .128.27.42.42 0 0 0 .22.28h.06v.034a.17.17 0 0 1-.005.045.074.074 0 0 1-.048.052.183.183 0 0 1-.1 0A.264.264 0 0 1 .054.378.04.04 0 0 0 .038.372c-.003 0-.005 0-.007.002A.019.019 0 0 0 .025.38a.035.035 0 0 0-.003.01.096.096 0 0 0 0 .033.03.03 0 0 0 .01.013c.004.004.011.01.022.015a.295.295 0 0 0 .133.032.264.264 0 0 0 .081-.01A.12.12 0 0 0 .351.39a.25.25 0 0 0 .01-.073V.021m-.08.2H.21A.25.25 0 0 1 .155.217a.113.113 0 0 1-.04-.017A.068.068 0 0 1 .09.173.08.08 0 0 1 .083.138C.083.115.09.097.104.083a.087.087 0 0 1 .061-.02c.021 0 .04.005.059.016A.25.25 0 0 1 .28.13v.093z"/></symbol><symbol id="m"><path d="M0 0z"/></symbol><symbol id="n"><path d="M.388.024A.025.025 0 0 0 .392.013C.392.01.39.007.387.005A.032.032 0 0 0 .373.001.222.222 0 0 0 .31.002a.029.029 0 0 0-.008.005A.044.044 0 0 0 .3.014L.193.188.088.014A.03.03 0 0 0 .083.007.021.021 0 0 0 .076.003.196.196 0 0 0 .017.002a.03.03 0 0 0-.013.003A.009.009 0 0 0 0 .013C0 .016.002.02.005.024L.142.24l-.13.206a.031.031 0 0 0-.004.012c0 .003.001.005.004.007A.03.03 0 0 0 .026.47.265.265 0 0 0 .088.467.017.017 0 0 0 .095.463.028.028 0 0 0 .1.457L.2.293.3.457a.035.035 0 0 0 .005.005.018.018 0 0 0 .006.004.178.178 0 0 0 .07-.001.007.007 0 0 0 .003-.007A.031.031 0 0 0 .38.445L.252.241.388.024z"/></symbol><symbol id="o"><path d="M.257.426a.279.279 0 0 0-.003-.03A.018.018 0 0 0 .25.39C.25.388.247.388.245.388c-.003 0-.006 0-.01.002a.082.082 0 0 1-.013.004.132.132 0 0 1-.015.004.088.088 0 0 1-.02.002.062.062 0 0 1-.023-.004.097.097 0 0 1-.025-.017A.66.66 0 0 1 .08.304V.015L.079.008A.017.017 0 0 0 .072.004.045.045 0 0 0 .06 0a.167.167 0 0 0-.052.003A.017.017 0 0 0 0 .008.015.015 0 0 0 0 .015v.44L.001.46c.001.002.003.004.006.005A.027.027 0 0 0 .02.469.133.133 0 0 0 .065.466.011.011 0 0 0 .071.46.01.01 0 0 0 .073.455V.39a.361.361 0 0 0 .033.043c.011.01.021.02.03.025.01.007.02.011.029.014a.106.106 0 0 0 .042.003A.108.108 0 0 0 .24.469.033.033 0 0 0 .25.464.013.013 0 0 0 .254.459L.255.454A.243.243 0 0 0 .256.426z"/></symbol><symbol id="p"><path d="M.404.26C.404.248.401.238.394.233A.032.032 0 0 0 .374.225H.085C.085.201.087.18.092.16A.127.127 0 0 1 .117.11.11.11 0 0 1 .16.077.176.176 0 0 1 .228.065a.286.286 0 0 1 .127.028A.048.048 0 0 0 .373.1.01.01 0 0 0 .378.097.01.01 0 0 0 .383.092.091.091 0 0 0 .384.048.015.015 0 0 0 .38.042.023.023 0 0 0 .377.036a.078.078 0 0 0-.016-.01A.437.437 0 0 0 .22 0a.274.274 0 0 0-.094.016.176.176 0 0 0-.11.12A.348.348 0 0 0 0 .239c0 .038.005.072.015.102.01.03.023.056.042.076.018.022.04.038.067.049A.216.216 0 0 0 .21.483.21.21 0 0 0 .299.466a.165.165 0 0 0 .094-.11.28.28 0 0 0 .011-.081V.26m-.08.024a.147.147 0 0 1-.03.1C.276.408.247.42.209.42a.113.113 0 0 1-.09-.041.136.136 0 0 1-.024-.044.179.179 0 0 1-.009-.05h.238z"/></symbol><symbol id="q"><path d="M.297.635V.62A.042.042 0 0 0 .293.611.009.009 0 0 0 .29.606a.01.01 0 0 0-.005 0L.277.606a.095.095 0 0 1-.012.005.096.096 0 0 1-.017.005.095.095 0 0 1-.054-.003.047.047 0 0 1-.02-.019.087.087 0 0 1-.012-.032A.283.283 0 0 1 .16.515V.467h.098A.01.01 0 0 0 .263.465C.265.465.267.462.268.46A.027.027 0 0 0 .271.45.07.07 0 0 0 .273.434.055.055 0 0 0 .269.408C.266.403.262.4.257.4H.159V.015L.157.008A.017.017 0 0 0 .15.004.045.045 0 0 0 .138 0a.162.162 0 0 0-.052.003.017.017 0 0 0-.006.004.012.012 0 0 0-.002.007V.4H.016C.01.4.006.403.004.408A.105.105 0 0 0 0 .45c0 .004.002.008.003.01.001.003.003.005.005.006a.012.012 0 0 0 .007.002h.062v.046c0 .03.002.056.008.078S.1.631.112.646a.103.103 0 0 0 .044.03.176.176 0 0 0 .096.007.114.114 0 0 0 .025-.007A.036.036 0 0 0 .29.67.023.023 0 0 0 .294.662.105.105 0 0 0 .297.635z"/></symbol><use xlink:href="#d" transform="matrix(7.86604 0 0 -7.86604 31.616 83.456)"/><use xlink:href="#e" transform="matrix(7.86604 0 0 -7.86604 38.265 83.506)"/><use xlink:href="#f" transform="matrix(7.86604 0 0 -7.86604 42.43 83.456)"/><use xlink:href="#g" transform="matrix(7.86604 0 0 -7.86604 43.796 83.498)"/><use xlink:href="#h" transform="matrix(7.86604 0 0 -7.86604 46.847 83.456)"/><use xlink:href="#i" transform="matrix(7.86604 0 0 -7.86604 48.75 83.456)"/><use xlink:href="#j" transform="matrix(7.86604 0 0 -7.86604 54.754 83.506)"/><use xlink:href="#k" transform="matrix(7.86604 0 0 -7.86604 58.923 83.506)"/><use xlink:href="#l" transform="matrix(7.86604 0 0 -7.86604 63.054 83.506)"/><use xlink:href="#f" transform="matrix(7.86604 0 0 -7.86604 67.08 83.456)"/><use xlink:href="#m" transform="matrix(7.86604 0 0 -7.86604 68.319 83.433)"/><use xlink:href="#d" transform="matrix(7.86604 0 0 -7.86604 70.734 83.456)"/><use xlink:href="#h" transform="matrix(7.86604 0 0 -7.86604 77.326 83.456)"/><use xlink:href="#n" transform="matrix(7.86604 0 0 -7.86604 78.799 83.456)"/><use xlink:href="#g" transform="matrix(7.86604 0 0 -7.86604 82.23 83.498)"/><use xlink:href="#e" transform="matrix(7.86604 0 0 -7.86604 85.339 83.506)"/><use xlink:href="#o" transform="matrix(7.86604 0 0 -7.86604 89.504 83.456)"/><use xlink:href="#p" transform="matrix(7.86604 0 0 -7.86604 91.91 83.506)"/><use xlink:href="#m" transform="matrix(7.86604 0 0 -7.86604 95.486 83.433)"/><use xlink:href="#j" transform="matrix(7.86604 0 0 -7.86604 97.587 83.506)"/><use xlink:href="#q" transform="matrix(7.86604 0 0 -7.86604 101.53 83.456)"/><use xlink:href="#m" transform="matrix(7.86604 0 0 -7.86604 103.772 83.433)"/><symbol id="r"><path d="M.352.035.35.019a.032.032 0 0 0-.004-.01.016.016 0 0 0-.006-.007A.012.012 0 0 0 .334 0H.031A.036.036 0 0 0 .01.007C.003.013 0 .021 0 .034v.564C0 .61.003.619.01.624A.035.035 0 0 0 .03.632h.3c.003 0 .005 0 .007-.002A.013.013 0 0 0 .343.624.073.073 0 0 0 .347.597.075.075 0 0 0 .344.57.013.013 0 0 0 .338.564.012.012 0 0 0 .33.562H.084V.364h.212A.01.01 0 0 0 .303.36.013.013 0 0 0 .308.355a.028.028 0 0 0 .004-.01.116.116 0 0 0 0-.032.027.027 0 0 0-.004-.01.013.013 0 0 0-.005-.006.015.015 0 0 0-.007-.001H.084V.07h.25C.337.07.34.07.341.068A.016.016 0 0 0 .347.062.028.028 0 0 0 .351.05a.11.11 0 0 0 0-.016z"/></symbol><symbol id="s"><path d="M.378.015c0-.002 0-.005-.002-.007A.017.017 0 0 0 .37.004.045.045 0 0 0 .358 0a.162.162 0 0 0-.052.003A.017.017 0 0 0 .3.008a.012.012 0 0 0-.002.007v.257a.253.253 0 0 1-.006.061.125.125 0 0 1-.017.04.074.074 0 0 1-.03.025.09.09 0 0 1-.04.009.104.104 0 0 1-.061-.022.328.328 0 0 1-.063-.063V.015L.079.008A.017.017 0 0 0 .072.004.045.045 0 0 0 .06 0a.167.167 0 0 0-.052.003A.017.017 0 0 0 0 .008.015.015 0 0 0 0 .015v.44L.001.46c.001.002.003.004.006.005A.027.027 0 0 0 .02.469.133.133 0 0 0 .065.466.011.011 0 0 0 .071.46.01.01 0 0 0 .073.455V.396c.024.028.05.048.073.061.025.013.05.02.075.02.03 0 .054-.005.074-.016a.13.13 0 0 0 .049-.04A.156.156 0 0 0 .37.364a.334.334 0 0 0 .008-.08V.015z"/></symbol><symbol id="t"><path d="M.347.088A.193.193 0 0 0 .344.063.029.029 0 0 0 .341.056a.045.045 0 0 0-.008-.01.128.128 0 0 0-.02-.014A.225.225 0 0 0 .196 0a.212.212 0 0 0-.084.016A.162.162 0 0 0 .05.06a.216.216 0 0 0-.037.074.365.365 0 0 0-.013.1C0 .28.005.317.016.348c.01.031.025.057.043.077.019.02.04.034.065.044A.221.221 0 0 0 .312.454.114.114 0 0 0 .33.439.05.05 0 0 0 .338.43.028.028 0 0 0 .342.422.059.059 0 0 0 .34.37C.337.365.334.363.33.363.325.363.319.365.312.37a.216.216 0 0 1-.06.035.13.13 0 0 1-.048.009.102.102 0 0 1-.09-.045.227.227 0 0 1-.03-.13.32.32 0 0 1 .008-.074.157.157 0 0 1 .024-.054A.1.1 0 0 1 .154.08.127.127 0 0 1 .206.07c.019 0 .035.003.049.009a.207.207 0 0 1 .062.038C.324.123.33.125.333.125A.01.01 0 0 0 .34.124.014.014 0 0 0 .343.117.12.12 0 0 0 .346.089z"/></symbol><use xlink:href="#r" transform="matrix(7.86604 0 0 -7.86604 40.358 93.007)"/><use xlink:href="#s" transform="matrix(7.86604 0 0 -7.86604 44.148 93.03)"/><use xlink:href="#t" transform="matrix(7.86604 0 0 -7.86604 48.052 93.08)"/><use xlink:href="#j" transform="matrix(7.86604 0 0 -7.86604 51.286 93.08)"/><use xlink:href="#k" transform="matrix(7.86604 0 0 -7.86604 55.455 93.08)"/><use xlink:href="#p" transform="matrix(7.86604 0 0 -7.86604 59.59 93.08)"/><use xlink:href="#o" transform="matrix(7.86604 0 0 -7.86604 63.754 93.03)"/><symbol id="u"><path d="M.239.034A.056.056 0 0 0 .234.007.014.014 0 0 0 .222 0H.018a.014.014 0 0 0-.014.007A.057.057 0 0 0 0 .034c0 .012.001.02.004.026a.014.014 0 0 0 .014.007h.204c.002 0 .005 0 .007-.002A.01.01 0 0 0 .234.06.027.027 0 0 0 .237.05.07.07 0 0 0 .24.033z"/></symbol><use xlink:href="#u" transform="matrix(7.86604 0 0 -7.86604 65.934 91.332)"/><symbol id="v"><path d="M.486.325A.445.445 0 0 0 .465.182.261.261 0 0 0 .403.08.252.252 0 0 0 .305.02.433.433 0 0 0 .165 0H.031A.036.036 0 0 0 .01.007C.003.013 0 .021 0 .034v.564C0 .61.003.619.01.624A.035.035 0 0 0 .03.632h.143C.23.632.275.625.313.61A.247.247 0 0 0 .466.453a.382.382 0 0 0 .02-.128M.397.322a.342.342 0 0 1-.012.095.203.203 0 0 1-.04.077.182.182 0 0 1-.069.05.27.27 0 0 1-.107.018H.084V.07H.17a.3.3 0 0 1 .102.015c.028.01.051.026.07.047A.2.2 0 0 1 .383.21c.01.032.014.069.014.112z"/></symbol><use xlink:href="#v" transform="matrix(7.86604 0 0 -7.86604 68.718 93.007)"/><use xlink:href="#p" transform="matrix(7.86604 0 0 -7.86604 73.26 93.08)"/><use xlink:href="#t" transform="matrix(7.86604 0 0 -7.86604 77.183 93.08)"/><use xlink:href="#j" transform="matrix(7.86604 0 0 -7.86604 80.417 93.08)"/><use xlink:href="#k" transform="matrix(7.86604 0 0 -7.86604 84.586 93.08)"/><use xlink:href="#p" transform="matrix(7.86604 0 0 -7.86604 88.72 93.08)"/><use xlink:href="#o" transform="matrix(7.86604 0 0 -7.86604 92.885 93.03)"/><path d="M20.904 19.268h92.921v25.96H20.904z" fill="#c3e4f0" fill-opacity=".522"/><path stroke-width=".508" stroke-miterlimit="8" fill="none" stroke="#000" d="M20.904 19.268h92.922v25.96H20.904z"/><symbol id="w"><path d="M.313.667a.52.52 0 0 0 .12-.012.237.237 0 0 0 .085-.04.178.178 0 0 0 .06-.078.299.299 0 0 0 .02-.115A.514.514 0 0 0 .54.185.372.372 0 0 0 .395.04.322.322 0 0 0 .312.01.518.518 0 0 0 .205 0H0l.005.024a.07.07 0 0 1 .028.01C.04.037.045.043.05.051A.17.17 0 0 1 .06.08a.95.95 0 0 1 .016.066L.16.52c.007.033.01.06.01.08C.17.614.167.625.16.63.15.639.139.642.123.644l.005.024h.185M.142.045A.641.641 0 0 1 .196.043.3.3 0 0 1 .33.071a.255.255 0 0 1 .095.086.442.442 0 0 1 .078.262c0 .068-.016.12-.047.153C.424.607.377.624.314.624L.268.623.142.045z"/></symbol><use xlink:href="#w" transform="matrix(7.86604 0 0 -7.86604 23.803 34.888)"/><symbol id="x"><path d="M0 .203v.065h.602V.203H0M0 0v.065h.602V0H0m.622.134z"/></symbol><use xlink:href="#x" transform="matrix(7.86604 0 0 -7.86604 32.05 33.694)"/><path d="M68.77 28.925h.1c.6.01 1.05.148 1.35.413.297.265.447.663.447 1.196 0 .213-.03.455-.09.726-.06.271-.09.453-.09.545 0 .177.06.321.182.433.121.11.305.17.55.178v.315c-.245.008-.429.067-.55.179a.56.56 0 0 0-.183.432c0 .092.03.274.09.545.06.272.09.514.09.726 0 .55-.149.958-.447 1.223-.298.265-.748.403-1.35.413h-.1v-.292h.058c.371 0 .662-.096.872-.29.21-.193.315-.521.315-.985 0-.18-.026-.4-.077-.664a3.414 3.414 0 0 1-.077-.565c0-.218.064-.396.192-.536s.28-.242.457-.309v-.069a1.173 1.173 0 0 1-.457-.31.762.762 0 0 1-.192-.535c0-.113.026-.3.077-.565.051-.263.077-.485.077-.664 0-.446-.105-.765-.315-.958-.21-.194-.5-.29-.872-.29h-.058zm-26.49 0h.099v.292h-.058c-.37 0-.662.096-.871.29-.21.193-.315.511-.315.954 0 .18.025.4.076.665.052.263.077.452.077.564a.762.762 0 0 1-.192.536c-.128.14-.28.243-.457.31v.068c.177.067.33.17.457.31.128.14.192.318.192.535 0 .113-.025.301-.077.565a3.594 3.594 0 0 0-.076.664c0 .466.105.796.315.99.21.193.5.29.871.29h.058v.291h-.1c-.602-.01-1.052-.148-1.35-.413-.298-.265-.447-.674-.447-1.227 0-.212.03-.454.09-.726.06-.271.09-.453.09-.545a.56.56 0 0 0-.182-.432c-.122-.112-.306-.171-.551-.179v-.315c.245-.007.43-.067.55-.178a.559.559 0 0 0 .183-.432c0-.093-.03-.274-.09-.546a3.396 3.396 0 0 1-.09-.726c0-.53.149-.927.447-1.192.298-.265.748-.403 1.35-.413zM65.524 28.943a2.779 2.779 0 0 1 1.723 1.277c.4.654.6 1.444.6 2.368 0 .927-.199 1.716-.598 2.368a2.776 2.776 0 0 1-1.725 1.273l-.092-.296c.591-.197 1.031-.586 1.32-1.167.287-.582.431-1.32.431-2.217 0-.865-.143-1.584-.43-2.156a2.207 2.207 0 0 0-1.333-1.154zm-19.9 0 .104.296c-.6.197-1.043.582-1.331 1.154-.288.572-.432 1.291-.432 2.156 0 .897.144 1.635.432 2.217.288.58.728.97 1.32 1.167l-.093.296a2.776 2.776 0 0 1-1.725-1.273c-.399-.652-.599-1.441-.599-2.368 0-.924.2-1.714.601-2.368.401-.654.975-1.08 1.723-1.277z" fill-rule="evenodd"/><symbol id="y"><path d="M.163.142a.478.478 0 0 1-.01-.076C.153.05.156.04.163.035A.07.07 0 0 1 .202.024L.195 0H0l.005.024a.07.07 0 0 1 .028.01C.04.037.045.043.05.051A.17.17 0 0 1 .06.08a.95.95 0 0 1 .016.066L.16.52c.007.033.01.06.01.08C.17.614.167.625.16.63.15.639.139.642.123.644l.005.024h.195L.318.643A.095.095 0 0 1 .29.633.047.047 0 0 1 .277.62.138.138 0 0 1 .264.59.735.735 0 0 1 .247.52L.163.142z"/></symbol><use xlink:href="#y" transform="matrix(7.86604 0 0 -7.86604 46.092 34.888)"/><symbol id="z"><path d="M.49.1c.053.073.093.137.12.192a.318.318 0 0 1 .042.131c0 .015-.003.025-.01.03C.635.46.622.464.605.466l.006.031h.138L.766.468A1.418 1.418 0 0 0 .585.137 2.787 2.787 0 0 0 .48 0H.418l-.04.339A1.476 1.476 0 0 0 .297.18 2.867 2.867 0 0 0 .182 0H.11L.064.369.058.416a.073.073 0 0 1-.01.027.033.033 0 0 1-.017.015A.133.133 0 0 1 0 .465l.007.031h.141L.187.1a4.29 4.29 0 0 1 .097.159 1.103 1.103 0 0 1 .053.114.454.454 0 0 1 .026.1l.006.023h.078L.489.1z"/></symbol><use xlink:href="#z" transform="matrix(5.6186 0 0 -5.6186 48.527 36.415)"/><symbol id="A"><path d="M.14.248A.343.343 0 0 0 .145.181a.162.162 0 0 0-.05-.119A.49.49 0 0 0 .027 0L0 .03c.017.015.029.03.036.042a.133.133 0 0 1 .016.043.308.308 0 0 1 .005.06C.057.2.056.224.054.248h.085z"/></symbol><use xlink:href="#A" transform="matrix(7.86604 0 0 -7.86604 53.632 35.948)"/><symbol id="B"><path d="M.257 0H.05l.006.024a.096.096 0 0 1 .028.008.044.044 0 0 1 .017.015c.004.007.01.017.014.032.005.015.01.037.017.067l.104.478H.175a.112.112 0 0 1-.048-.01.106.106 0 0 1-.036-.032.468.468 0 0 1-.044-.08H0l.037.165h.51L.507.495H.461c0 .031 0 .055-.002.07a.096.096 0 0 1-.01.037.036.036 0 0 1-.016.017.087.087 0 0 1-.036.005H.325L.22.142A.598.598 0 0 1 .21.088.278.278 0 0 1 .209.066.05.05 0 0 1 .214.042.029.029 0 0 1 .229.03.13.13 0 0 1 .262.024L.257 0z"/></symbol><use xlink:href="#B" transform="matrix(7.86604 0 0 -7.86604 56.736 34.888)" fill="#c00000"/><use xlink:href="#z" transform="matrix(5.6186 0 0 -5.6186 60.261 36.415)" fill="#c00000"/><symbol id="C"><path d="M.335.281V0H.266v.281H0v.065h.266v.281h.07v-.28h.266V.28H.335z"/></symbol><use xlink:href="#C" transform="matrix(7.86604 0 0 -7.86604 73.904 35.107)"/><path d="M108.167 28.925h.1c.601.01 1.051.148 1.35.413.298.265.447.663.447 1.196 0 .213-.03.455-.09.726-.06.271-.09.453-.09.545 0 .177.06.321.182.433.122.11.306.17.551.178v.315c-.245.008-.43.067-.55.179a.56.56 0 0 0-.183.432c0 .092.03.274.09.545.06.272.09.514.09.726 0 .55-.149.958-.447 1.223-.299.265-.749.403-1.35.413h-.1v-.292h.057c.372 0 .662-.096.872-.29.21-.193.315-.521.315-.985 0-.18-.025-.4-.077-.664a3.416 3.416 0 0 1-.076-.565c0-.218.064-.396.192-.536s.28-.242.457-.309v-.069a1.174 1.174 0 0 1-.457-.31.762.762 0 0 1-.192-.535c0-.113.025-.3.076-.565.052-.263.077-.485.077-.664 0-.446-.105-.765-.315-.958-.21-.194-.5-.29-.872-.29h-.057zm-24.473 0h.1v.292h-.058c-.371 0-.662.096-.872.29-.21.193-.315.511-.315.954 0 .18.026.4.077.665.051.263.077.452.077.564a.761.761 0 0 1-.192.536c-.128.14-.28.243-.457.31v.068c.176.067.329.17.457.31.128.14.192.318.192.535 0 .113-.026.301-.077.565a3.596 3.596 0 0 0-.077.664c0 .466.105.796.315.99.21.193.5.29.872.29h.058v.291h-.1c-.602-.01-1.052-.148-1.35-.413-.299-.265-.448-.674-.448-1.227 0-.212.03-.454.09-.726.06-.271.09-.453.09-.545a.56.56 0 0 0-.182-.432c-.121-.112-.305-.171-.55-.179v-.315c.245-.007.429-.067.55-.178a.56.56 0 0 0 .183-.432c0-.093-.03-.274-.09-.546a3.395 3.395 0 0 1-.09-.726c0-.53.148-.927.447-1.192.298-.265.748-.403 1.35-.413zM104.922 28.943a2.779 2.779 0 0 1 1.722 1.277c.401.654.601 1.444.601 2.368 0 .927-.2 1.716-.599 2.368a2.776 2.776 0 0 1-1.724 1.273l-.092-.296c.591-.197 1.03-.586 1.319-1.167.288-.582.432-1.32.432-2.217 0-.865-.144-1.584-.43-2.156a2.207 2.207 0 0 0-1.333-1.154zm-17.883 0 .103.296c-.599.197-1.042.582-1.33 1.154-.289.572-.433 1.291-.433 2.156 0 .897.144 1.635.433 2.217.288.58.727.97 1.319 1.167l-.092.296a2.776 2.776 0 0 1-1.725-1.273c-.4-.652-.599-1.441-.599-2.368 0-.924.2-1.714.601-2.368.4-.654.975-1.08 1.723-1.277z" fill-rule="evenodd"/><use xlink:href="#y" transform="matrix(7.86604 0 0 -7.86604 87.507 34.888)"/><symbol id="D"><path d="M.413.178A3.807 3.807 0 0 0 .4.113V.1C.399.088.4.079.406.074.41.068.418.065.428.065.434.065.44.067.445.07a.08.08 0 0 1 .019.01.766.766 0 0 1 .05.046.764.764 0 0 1 .032-.031A.873.873 0 0 0 .501.05a.298.298 0 0 0-.04-.029A.143.143 0 0 0 .388 0a.079.079 0 0 0-.058.025.095.095 0 0 0-.017.029.108.108 0 0 0-.006.036c0 .013.001.028.004.045a1.03 1.03 0 0 0 .024.11A2.822 2.822 0 0 1 .36.342a.155.155 0 0 1 .002.058.052.052 0 0 1-.007.021.036.036 0 0 1-.015.015.047.047 0 0 1-.024.005.094.094 0 0 1-.05-.018.257.257 0 0 1-.053-.047.387.387 0 0 1-.044-.065.264.264 0 0 1-.026-.07A7.377 7.377 0 0 1 .094.008H0l.116.524a.75.75 0 0 1 .01.068.04.04 0 0 1-.002.016.022.022 0 0 1-.01.01.05.05 0 0 1-.02.007.237.237 0 0 1-.03.002L.071.67l.135.006H.24L.174.4.18.397a.495.495 0 0 0 .09.084.146.146 0 0 0 .085.026C.39.507.415.498.433.48A.11.11 0 0 0 .459.401.483.483 0 0 0 .446.313L.413.178z"/></symbol><use xlink:href="#D" transform="matrix(5.6186 0 0 -5.6186 90.095 36.42)"/><use xlink:href="#A" transform="matrix(7.86604 0 0 -7.86604 93.923 35.948)"/><use xlink:href="#B" transform="matrix(7.86604 0 0 -7.86604 97.027 34.888)" fill="#008f00"/><use xlink:href="#D" transform="matrix(5.6186 0 0 -5.6186 100.936 36.42)" fill="#008f00"/><path d="M62.587 59.228h2.389V49.145h4.778v10.083h2.389l-4.778 4.778z" fill="#fff2cc" fill-rule="evenodd"/><path stroke-width=".508" stroke-miterlimit="8" fill="none" stroke="#000" d="M62.587 59.228h2.389V49.145h4.778v10.083h2.389l-4.778 4.778z"/><symbol id="E"><path d="M.388.45A.223.223 0 0 0 .373.364.179.179 0 0 0 .328.3.197.197 0 0 0 .256.258a.307.307 0 0 0-.1-.015H.084V.016A.01.01 0 0 0 .082.009.014.014 0 0 0 .075.004.112.112 0 0 0 .042 0a.12.12 0 0 0-.033.004.014.014 0 0 0-.007.005A.012.012 0 0 0 0 .016v.583C0 .612.003.62.01.626a.036.036 0 0 0 .023.009h.135a.373.373 0 0 0 .084-.01.17.17 0 0 0 .052-.02.16.16 0 0 0 .074-.09.196.196 0 0 0 .01-.065M.3.443a.13.13 0 0 1-.015.064.098.098 0 0 1-.035.039.118.118 0 0 1-.044.016.292.292 0 0 1-.044.003H.084V.312H.16c.025 0 .046.003.063.01a.12.12 0 0 1 .042.027C.277.36.285.374.291.39A.155.155 0 0 1 .3.443z"/></symbol><use xlink:href="#E" transform="matrix(7.86604 0 0 -7.86604 33.922 58.51)"/><use xlink:href="#o" transform="matrix(7.86604 0 0 -7.86604 37.923 58.51)"/><use xlink:href="#p" transform="matrix(7.86604 0 0 -7.86604 40.327 58.56)"/><use xlink:href="#u" transform="matrix(7.86604 0 0 -7.86604 44.168 56.812)"/><use xlink:href="#g" transform="matrix(7.86604 0 0 -7.86604 46.418 58.552)"/><use xlink:href="#o" transform="matrix(7.86604 0 0 -7.86604 49.548 58.51)"/><use xlink:href="#l" transform="matrix(7.86604 0 0 -7.86604 51.896 58.56)"/><use xlink:href="#h" transform="matrix(7.86604 0 0 -7.86604 55.847 58.51)"/><use xlink:href="#s" transform="matrix(7.86604 0 0 -7.86604 57.751 58.51)"/><path d="M166.16 25.003a9.16 9.16 0 0 1 9.159-9.159h52.815a9.16 9.16 0 0 1 9.16 9.16v16.72a9.16 9.16 0 0 1-9.16 9.16H175.32a9.16 9.16 0 0 1-9.16-9.16z" fill="#fff2cc" fill-rule="evenodd"/><path stroke-width=".508" stroke-miterlimit="8" fill="none" stroke="#000" d="M166.16 25.003a9.16 9.16 0 0 1 9.159-9.159h52.815a9.16 9.16 0 0 1 9.16 9.16v16.72a9.16 9.16 0 0 1-9.16 9.16H175.32a9.16 9.16 0 0 1-9.16-9.16z"/><symbol id="F"><path d="M.332.599V.583A.033.033 0 0 0 .327.57.017.017 0 0 0 .322.565.011.011 0 0 0 .315.563H.084V.35h.219L.309.347A.013.013 0 0 0 .315.34a.028.028 0 0 0 .003-.01.113.113 0 0 0 0-.033.032.032 0 0 0-.003-.01A.022.022 0 0 0 .309.28.011.011 0 0 0 .303.279H.084V.016c0-.003 0-.005-.002-.007A.014.014 0 0 0 .075.004.115.115 0 0 0 .042 0a.117.117 0 0 0-.033.004.014.014 0 0 0-.007.005A.014.014 0 0 0 0 .016V.6c0 .012.003.021.01.026A.035.035 0 0 0 .03.635h.284c.003 0 .005 0 .007-.002A.016.016 0 0 0 .328.626.033.033 0 0 0 .33.615L.332.599z"/></symbol><use xlink:href="#F" transform="matrix(7.86604 0 0 -7.86604 194.143 26.55)"/><use xlink:href="#h" transform="matrix(7.86604 0 0 -7.86604 197.576 26.55)"/><use xlink:href="#f" transform="matrix(7.86604 0 0 -7.86604 199.48 26.55)"/><use xlink:href="#g" transform="matrix(7.86604 0 0 -7.86604 200.848 26.593)"/><use xlink:href="#p" transform="matrix(7.86604 0 0 -7.86604 203.661 26.6)"/><use xlink:href="#o" transform="matrix(7.86604 0 0 -7.86604 207.828 26.55)"/><use xlink:href="#m" transform="matrix(7.86604 0 0 -7.86604 209.98 26.528)"/><symbol id="G"><path d="M.177.841A.954.954 0 0 1 .176.022a.027.027 0 0 0 .002-.01c0-.003 0-.005-.003-.007a.02.02 0 0 0-.01-.004.201.201 0 0 0-.045.001.03.03 0 0 0-.008.004.97.97 0 0 0-.105.315.873.873 0 0 0 .103.534.04.04 0 0 0 .017.005.129.129 0 0 0 .036 0 .034.034 0 0 0 .01-.004A.009.009 0 0 0 .179.85L.177.84z"/></symbol><symbol id="H"><path d="M.084.016c0-.003 0-.005-.002-.007A.014.014 0 0 0 .075.004.112.112 0 0 0 .042 0a.117.117 0 0 0-.033.004.014.014 0 0 0-.007.005A.012.012 0 0 0 0 .016v.606C0 .625 0 .627.002.63a.015.015 0 0 0 .007.004.114.114 0 0 0 .053.003c.006 0 .01-.001.013-.003A.012.012 0 0 0 .082.63.012.012 0 0 0 .084.622V.016z"/></symbol><symbol id="I"><path d="M.416.61A.049.049 0 0 0 .411.585C.408.58.404.578.4.578H.336A.099.099 0 0 0 .36.538.174.174 0 0 0 .355.428.136.136 0 0 0 .32.377a.156.156 0 0 0-.054-.03.212.212 0 0 0-.12-.004.11.11 0 0 0-.038.018.06.06 0 0 1-.02-.046c0-.011.006-.02.016-.028A.078.078 0 0 1 .146.274L.261.27a.23.23 0 0 0 .06-.01A.143.143 0 0 0 .37.237.103.103 0 0 0 .41.15.13.13 0 0 0 .36.045.186.186 0 0 0 .293.012.384.384 0 0 0 .106.01a.193.193 0 0 0-.06.025A.095.095 0 0 0 0 .118a.125.125 0 0 0 .016.06.15.15 0 0 0 .02.026.264.264 0 0 0 .027.025.076.076 0 0 0-.047.07c0 .02.005.038.013.054s.018.03.03.042a.145.145 0 0 0-.024.04.154.154 0 0 0-.009.056.17.17 0 0 0 .013.067.143.143 0 0 0 .089.082.205.205 0 0 0 .069.01.263.263 0 0 0 .07-.007h.132C.405.643.41.64.412.634A.052.052 0 0 0 .416.61M.29.494c0 .03-.008.053-.025.07C.25.581.225.589.195.589a.1.1 0 0 1-.04-.007.083.083 0 0 1-.047-.054.126.126 0 0 1-.005-.037C.103.462.111.44.127.423a.094.094 0 0 1 .07-.025c.016 0 .03.002.041.007a.08.08 0 0 1 .046.053.115.115 0 0 1 .006.036M.33.146a.049.049 0 0 1-.023.043.115.115 0 0 1-.062.017L.13.21A.21.21 0 0 1 .089.166a.08.08 0 0 1-.008-.02.102.102 0 0 1-.002-.02C.08.105.09.089.111.078a.2.2 0 0 1 .09-.016c.025 0 .045.002.061.007.017.004.03.01.04.018.01.008.017.017.022.027.004.01.007.02.007.032z"/></symbol><use xlink:href="#G" transform="matrix(7.86604 0 0 -7.86604 174.556 37.427)"/><use xlink:href="#H" transform="matrix(7.86604 0 0 -7.86604 177.094 36.125)"/><use xlink:href="#i" transform="matrix(7.86604 0 0 -7.86604 178.984 36.125)"/><use xlink:href="#l" transform="matrix(7.86604 0 0 -7.86604 185 36.175)"/><use xlink:href="#I" transform="matrix(7.86604 0 0 -7.86604 188.646 37.504)"/><use xlink:href="#p" transform="matrix(7.86604 0 0 -7.86604 192.455 36.175)"/><use xlink:href="#u" transform="matrix(7.86604 0 0 -7.86604 196.298 34.427)"/><use xlink:href="#I" transform="matrix(7.86604 0 0 -7.86604 198.625 37.504)"/><use xlink:href="#o" transform="matrix(7.86604 0 0 -7.86604 202.731 36.125)"/><use xlink:href="#j" transform="matrix(7.86604 0 0 -7.86604 205.102 36.175)"/><use xlink:href="#e" transform="matrix(7.86604 0 0 -7.86604 209.472 36.175)"/><use xlink:href="#s" transform="matrix(7.86604 0 0 -7.86604 213.638 36.125)"/><use xlink:href="#k" transform="matrix(7.86604 0 0 -7.86604 217.566 36.175)"/><use xlink:href="#p" transform="matrix(7.86604 0 0 -7.86604 221.702 36.175)"/><use xlink:href="#k" transform="matrix(7.86604 0 0 -7.86604 225.648 36.175)"/><use xlink:href="#m" transform="matrix(7.86604 0 0 -7.86604 229.426 36.102)"/><symbol id="J"><path d="M.473.599.472.583A.033.033 0 0 0 .468.57.013.013 0 0 0 .463.565.012.012 0 0 0 .456.563H.278V.016c0-.003 0-.005-.002-.007A.014.014 0 0 0 .27.004.112.112 0 0 0 .237 0a.117.117 0 0 0-.034.004.014.014 0 0 0-.007.005.012.012 0 0 0-.002.007v.547H.017L.009.565a.015.015 0 0 0-.005.006A.058.058 0 0 0 0 .6l.001.016a.057.057 0 0 0 .003.011.014.014 0 0 0 .005.007.015.015 0 0 0 .008.002h.44c.002 0 .004 0 .006-.002A.013.013 0 0 0 .468.626.033.033 0 0 0 .472.615V.599z"/></symbol><symbol id="K"><path d="M.178.43A.873.873 0 0 0 .067.007.045.045 0 0 0 .048 0a.201.201 0 0 0-.035 0 .02.02 0 0 0-.01.004A.008.008 0 0 0 0 .012a1.021 1.021 0 0 1 .094.42.952.952 0 0 1-.092.41A.016.016 0 0 0 0 .85c0 .002.002.004.005.006a.034.034 0 0 0 .01.004.124.124 0 0 0 .046-.001.023.023 0 0 0 .007-.004.814.814 0 0 0 .11-.425z"/></symbol><use xlink:href="#J" transform="matrix(7.86604 0 0 -7.86604 180.055 45.699)"/><use xlink:href="#p" transform="matrix(7.86604 0 0 -7.86604 183.518 45.749)"/><use xlink:href="#n" transform="matrix(7.86604 0 0 -7.86604 187.134 45.699)"/><use xlink:href="#g" transform="matrix(7.86604 0 0 -7.86604 190.565 45.741)"/><use xlink:href="#m" transform="matrix(7.86604 0 0 -7.86604 193.106 45.676)"/><use xlink:href="#r" transform="matrix(7.86604 0 0 -7.86604 195.521 45.676)"/><use xlink:href="#s" transform="matrix(7.86604 0 0 -7.86604 199.311 45.699)"/><use xlink:href="#t" transform="matrix(7.86604 0 0 -7.86604 203.216 45.749)"/><use xlink:href="#j" transform="matrix(7.86604 0 0 -7.86604 206.45 45.749)"/><use xlink:href="#k" transform="matrix(7.86604 0 0 -7.86604 210.619 45.749)"/><use xlink:href="#p" transform="matrix(7.86604 0 0 -7.86604 214.753 45.749)"/><use xlink:href="#o" transform="matrix(7.86604 0 0 -7.86604 218.917 45.699)"/><use xlink:href="#K" transform="matrix(7.86604 0 0 -7.86604 221.537 47)"/><path d="M166.336 123.749a9.16 9.16 0 0 1 9.16-9.16h52.815a9.16 9.16 0 0 1 9.16 9.16v16.72a9.16 9.16 0 0 1-9.16 9.16h-52.815a9.16 9.16 0 0 1-9.16-9.16z" fill="#fff2cc" fill-rule="evenodd"/><path stroke-width=".508" stroke-miterlimit="8" fill="none" stroke="#000" d="M166.337 123.749a9.16 9.16 0 0 1 9.159-9.16h52.815a9.16 9.16 0 0 1 9.16 9.16v16.72a9.16 9.16 0 0 1-9.16 9.16h-52.815a9.16 9.16 0 0 1-9.16-9.16z"/><symbol id="L"><path d="M.458.097V.083a.044.044 0 0 0-.002-.01.028.028 0 0 0-.003-.008.043.043 0 0 0-.007-.008.272.272 0 0 0-.113-.05A.293.293 0 0 0 .268 0a.29.29 0 0 0-.111.02.227.227 0 0 0-.085.061A.282.282 0 0 0 .02.18.453.453 0 0 0 0 .315c0 .053.007.1.02.14A.305.305 0 0 0 .077.56c.025.028.054.05.088.065A.28.28 0 0 0 .33.642a.32.32 0 0 0 .087-.03A.114.114 0 0 0 .45.583.028.028 0 0 0 .453.576.101.101 0 0 0 .456.55a.12.12 0 0 0 0-.016.051.051 0 0 0-.004-.012.018.018 0 0 0-.005-.007.01.01 0 0 0-.006-.002C.436.513.43.516.42.523a.255.255 0 0 1-.078.041.197.197 0 0 1-.142-.007.16.16 0 0 1-.059-.05.247.247 0 0 1-.038-.08A.398.398 0 0 1 .091.32C.09.28.095.245.104.214A.23.23 0 0 1 .14.137.16.16 0 0 1 .2.09.194.194 0 0 1 .28.074c.025 0 .047.003.065.01a.257.257 0 0 1 .08.041c.01.006.016.01.02.01L.453.132.456.127a.145.145 0 0 0 .003-.03z"/></symbol><symbol id="M"><path d="M.404.417A.389.389 0 0 0 .392.313.223.223 0 0 0 .355.235.165.165 0 0 0 .214.168a.143.143 0 0 0-.069.016.505.505 0 0 0-.064.05V.017L.079.009A.014.014 0 0 0 .072.004.045.045 0 0 0 .06 0a.167.167 0 0 0-.052.003A.014.014 0 0 0 0 .009.015.015 0 0 0 0 .016v.613l.001.007C.002.638.004.64.007.641a.12.12 0 0 0 .044.002.034.034 0 0 0 .012-.002C.066.64.068.638.069.636A.01.01 0 0 0 .07.63V.57a.467.467 0 0 0 .075.06.166.166 0 0 0 .081.021C.26.651.287.645.31.633A.152.152 0 0 0 .363.582.223.223 0 0 0 .395.507a.402.402 0 0 0 .01-.09M.318.407a.383.383 0 0 1-.005.065.18.18 0 0 1-.018.056.09.09 0 0 1-.085.054.115.115 0 0 1-.062-.02A.383.383 0 0 1 .08.496V.321A.348.348 0 0 1 .145.26.105.105 0 0 1 .206.238a.09.09 0 0 1 .052.014c.014.01.026.023.035.04.01.016.016.034.02.054.004.02.006.04.006.061z"/></symbol><use xlink:href="#L" transform="matrix(7.86604 0 0 -7.86604 186.492 125.297)"/><use xlink:href="#l" transform="matrix(7.86604 0 0 -7.86604 190.687 125.308)"/><use xlink:href="#M" transform="matrix(7.86604 0 0 -7.86604 194.71 126.633)"/><use xlink:href="#g" transform="matrix(7.86604 0 0 -7.86604 198.36 125.3)"/><use xlink:href="#h" transform="matrix(7.86604 0 0 -7.86604 201.417 125.258)"/><use xlink:href="#j" transform="matrix(7.86604 0 0 -7.86604 203.074 125.308)"/><use xlink:href="#s" transform="matrix(7.86604 0 0 -7.86604 207.46 125.258)"/><use xlink:href="#p" transform="matrix(7.86604 0 0 -7.86604 211.372 125.308)"/><use xlink:href="#o" transform="matrix(7.86604 0 0 -7.86604 215.533 125.258)"/><use xlink:href="#m" transform="matrix(7.86604 0 0 -7.86604 217.68 125.235)"/><use xlink:href="#G" transform="matrix(7.86604 0 0 -7.86604 174.733 136.134)"/><use xlink:href="#H" transform="matrix(7.86604 0 0 -7.86604 177.27 134.832)"/><use xlink:href="#i" transform="matrix(7.86604 0 0 -7.86604 179.161 134.832)"/><use xlink:href="#l" transform="matrix(7.86604 0 0 -7.86604 185.177 134.882)"/><use xlink:href="#I" transform="matrix(7.86604 0 0 -7.86604 188.823 136.211)"/><use xlink:href="#p" transform="matrix(7.86604 0 0 -7.86604 192.632 134.882)"/><use xlink:href="#u" transform="matrix(7.86604 0 0 -7.86604 196.475 133.135)"/><use xlink:href="#I" transform="matrix(7.86604 0 0 -7.86604 198.802 136.211)"/><use xlink:href="#o" transform="matrix(7.86604 0 0 -7.86604 202.908 134.832)"/><use xlink:href="#j" transform="matrix(7.86604 0 0 -7.86604 205.28 134.882)"/><use xlink:href="#e" transform="matrix(7.86604 0 0 -7.86604 209.649 134.882)"/><use xlink:href="#s" transform="matrix(7.86604 0 0 -7.86604 213.815 134.832)"/><use xlink:href="#k" transform="matrix(7.86604 0 0 -7.86604 217.743 134.882)"/><use xlink:href="#p" transform="matrix(7.86604 0 0 -7.86604 221.879 134.882)"/><use xlink:href="#k" transform="matrix(7.86604 0 0 -7.86604 225.825 134.882)"/><use xlink:href="#m" transform="matrix(7.86604 0 0 -7.86604 229.603 134.81)"/><use xlink:href="#J" transform="matrix(7.86604 0 0 -7.86604 179.848 144.406)"/><use xlink:href="#p" transform="matrix(7.86604 0 0 -7.86604 183.31 144.456)"/><use xlink:href="#n" transform="matrix(7.86604 0 0 -7.86604 186.926 144.406)"/><use xlink:href="#g" transform="matrix(7.86604 0 0 -7.86604 190.357 144.449)"/><use xlink:href="#m" transform="matrix(7.86604 0 0 -7.86604 192.898 144.383)"/><use xlink:href="#v" transform="matrix(7.86604 0 0 -7.86604 195.313 144.383)"/><use xlink:href="#p" transform="matrix(7.86604 0 0 -7.86604 199.856 144.456)"/><use xlink:href="#t" transform="matrix(7.86604 0 0 -7.86604 203.779 144.456)"/><use xlink:href="#j" transform="matrix(7.86604 0 0 -7.86604 207.012 144.456)"/><use xlink:href="#k" transform="matrix(7.86604 0 0 -7.86604 211.182 144.456)"/><use xlink:href="#p" transform="matrix(7.86604 0 0 -7.86604 215.316 144.456)"/><use xlink:href="#o" transform="matrix(7.86604 0 0 -7.86604 219.48 144.406)"/><use xlink:href="#K" transform="matrix(7.86604 0 0 -7.86604 222.1 145.708)"/><path d="m114.024 85.779 50.345-50.232-.397-.398-50.345 50.232zm50.94-48.84 1.195-3.575-3.577 1.188z"/><path d="m114.012 85.37 50.408 44.666-.372.42-50.409-44.666zm50.92 43.242 1.404 3.497-3.64-.974z"/><symbol id="N"><path d="M.053.175a.173.173 0 0 0 .03.098.22.22 0 0 0 .04.044.471.471 0 0 0 .062.043 1.08 1.08 0 0 0-.057.088.153.153 0 0 0-.017.07c0 .02.004.038.01.057a.126.126 0 0 0 .033.049.16.16 0 0 0 .059.033.259.259 0 0 0 .086.013.262.262 0 0 0 .075-.01.143.143 0 0 0 .052-.026.106.106 0 0 0 .031-.041.145.145 0 0 0 .001-.106.15.15 0 0 0-.03-.047.315.315 0 0 0-.052-.045.814.814 0 0 0-.077-.046 1.62 1.62 0 0 1 .164-.17.175.175 0 0 1 .017.03.31.31 0 0 1 .023.074.266.266 0 0 1 .003.04V.34l.001.008a.013.013 0 0 0 .006.006.029.029 0 0 0 .011.003.167.167 0 0 0 .038 0c.006 0 .01 0 .013-.002A.01.01 0 0 0 .582.35.017.017 0 0 0 .584.34V.328A.353.353 0 0 0 .52.132 1.07 1.07 0 0 1 .587.083a.129.129 0 0 1 .02-.01.038.038 0 0 1 .021-.002C.63.07.633.07.634.069.636.068.638.065.64.062A.308.308 0 0 0 .638.013.012.012 0 0 0 .634.007.029.029 0 0 0 .623.002a.087.087 0 0 0-.042.002.15.15 0 0 0-.027.012.46.46 0 0 0-.085.06.417.417 0 0 0-.092-.055.31.31 0 0 0-.224 0A.18.18 0 0 0 .08.08a.171.171 0 0 0-.027.094m.144.348A.11.11 0 0 1 .2.497a.18.18 0 0 1 .011-.03.52.52 0 0 1 .045-.07.753.753 0 0 1 .06.038c.016.011.03.022.039.032.01.01.017.021.021.032.005.01.007.021.007.033a.068.068 0 0 1-.022.05.08.08 0 0 1-.028.016.127.127 0 0 1-.041.006.125.125 0 0 1-.044-.007.082.082 0 0 1-.03-.018.066.066 0 0 1-.016-.025.087.087 0 0 1-.005-.03M.14.183C.14.167.143.15.148.137a.106.106 0 0 1 .067-.06A.194.194 0 0 1 .381.1l.03.021a2.125 2.125 0 0 0-.145.14 1.125 1.125 0 0 0-.04.047.28.28 0 0 1-.04-.031.172.172 0 0 1-.027-.03A.113.113 0 0 1 .14.183M0 .64z"/></symbol><use xlink:href="#H" transform="matrix(7.86604 0 0 -7.86604 140.404 66.06)"/><use xlink:href="#J" transform="matrix(7.86604 0 0 -7.86604 141.767 66.06)"/><use xlink:href="#L" transform="matrix(7.86604 0 0 -7.86604 145.787 66.1)"/><use xlink:href="#N" transform="matrix(7.86604 0 0 -7.86604 149.63 66.107)"/><use xlink:href="#H" transform="matrix(7.86604 0 0 -7.86604 155.632 66.06)"/><use xlink:href="#J" transform="matrix(7.86604 0 0 -7.86604 156.996 66.06)"/><use xlink:href="#d" transform="matrix(7.86604 0 0 -7.86604 161.461 66.06)"/><use xlink:href="#m" transform="matrix(7.86604 0 0 -7.86604 167.542 66.038)"/><use xlink:href="#q" transform="matrix(7.86604 0 0 -7.86604 169.438 66.06)"/><use xlink:href="#h" transform="matrix(7.86604 0 0 -7.86604 172.198 66.06)"/><use xlink:href="#s" transform="matrix(7.86604 0 0 -7.86604 174.1 66.06)"/><use xlink:href="#p" transform="matrix(7.86604 0 0 -7.86604 178.015 66.11)"/><use xlink:href="#g" transform="matrix(7.86604 0 0 -7.86604 181.678 66.103)"/><use xlink:href="#e" transform="matrix(7.86604 0 0 -7.86604 184.786 66.11)"/><use xlink:href="#s" transform="matrix(7.86604 0 0 -7.86604 188.95 66.06)"/><use xlink:href="#p" transform="matrix(7.86604 0 0 -7.86604 192.866 66.11)"/><symbol id="O"><path d="M.328.037A.12.12 0 0 0 .327.02.038.038 0 0 0 .323.009.016.016 0 0 0 .318.002.013.013 0 0 0 .31 0H.03A.036.036 0 0 0 .01.007C.003.013 0 .021 0 .034V.62c0 .003 0 .005.002.007A.012.012 0 0 0 .009.63a.117.117 0 0 0 .053.003C.068.633.072.632.075.63A.012.012 0 0 0 .082.626.012.012 0 0 0 .084.619V.073h.227C.313.073.316.072.318.07A.013.013 0 0 0 .323.064a.028.028 0 0 0 .004-.01.12.12 0 0 0 0-.017z"/></symbol><use xlink:href="#O" transform="matrix(7.86604 0 0 -7.86604 156.141 105.682)"/><use xlink:href="#d" transform="matrix(7.86604 0 0 -7.86604 159.442 105.706)"/><use xlink:href="#m" transform="matrix(7.86604 0 0 -7.86604 165.527 105.682)"/><use xlink:href="#q" transform="matrix(7.86604 0 0 -7.86604 167.428 105.706)"/><use xlink:href="#h" transform="matrix(7.86604 0 0 -7.86604 170.185 105.706)"/><use xlink:href="#s" transform="matrix(7.86604 0 0 -7.86604 172.092 105.706)"/><use xlink:href="#p" transform="matrix(7.86604 0 0 -7.86604 176.003 105.755)"/><use xlink:href="#g" transform="matrix(7.86604 0 0 -7.86604 179.663 105.748)"/><use xlink:href="#e" transform="matrix(7.86604 0 0 -7.86604 182.776 105.755)"/><use xlink:href="#s" transform="matrix(7.86604 0 0 -7.86604 186.938 105.706)"/><use xlink:href="#p" transform="matrix(7.86604 0 0 -7.86604 190.85 105.755)"/><path d="M182.614 72.241h38.224v19.112h-38.224z" fill="#c3e4f0" fill-opacity=".522"/><path stroke-width=".508" stroke-miterlimit="8" fill="none" stroke="#000" d="M182.614 72.241h38.224v19.112h-38.224z"/><path d="M213.831 78.473h.1c.602.01 1.052.148 1.35.413.298.265.447.664.447 1.197 0 .212-.03.454-.09.726-.06.271-.09.453-.09.545 0 .177.06.32.182.432.122.112.306.171.552.179v.315c-.246.007-.43.067-.552.178a.559.559 0 0 0-.182.432c0 .093.03.274.09.546.06.271.09.513.09.726 0 .55-.149.958-.447 1.223-.298.265-.748.403-1.35.413h-.1v-.292h.058c.37 0 .662-.097.872-.29.21-.193.314-.522.314-.985 0-.18-.025-.4-.076-.665a3.42 3.42 0 0 1-.077-.564c0-.218.064-.396.192-.536s.28-.243.457-.31v-.068a1.174 1.174 0 0 1-.457-.31.762.762 0 0 1-.192-.535c0-.113.025-.301.077-.565.05-.264.076-.485.076-.664 0-.446-.104-.765-.314-.959-.21-.193-.501-.29-.872-.29h-.058zm-24.473 0h.1v.292h-.058c-.371 0-.662.097-.872.29-.21.194-.315.512-.315.955 0 .18.026.4.077.664.052.264.077.452.077.565a.762.762 0 0 1-.192.536c-.128.14-.28.242-.457.309v.069c.177.067.329.17.457.31.128.139.192.317.192.535 0 .113-.025.3-.077.565a3.592 3.592 0 0 0-.077.664c0 .466.105.796.315.99.21.192.501.29.872.29h.058v.29h-.1c-.602-.01-1.052-.147-1.35-.412-.298-.265-.447-.674-.447-1.227 0-.213.03-.455.09-.726.06-.271.09-.453.09-.545a.56.56 0 0 0-.182-.433c-.122-.11-.306-.17-.552-.178v-.315c.246-.008.43-.067.552-.179a.56.56 0 0 0 .182-.432c0-.092-.03-.274-.09-.545a3.395 3.395 0 0 1-.09-.726c0-.53.149-.928.447-1.193.298-.265.748-.402 1.35-.413zM210.586 78.492a2.779 2.779 0 0 1 1.722 1.277c.401.654.602 1.443.602 2.368 0 .927-.2 1.716-.6 2.367a2.776 2.776 0 0 1-1.724 1.274l-.092-.296c.591-.197 1.031-.586 1.319-1.168.288-.58.432-1.32.432-2.216 0-.865-.143-1.584-.43-2.156a2.207 2.207 0 0 0-1.333-1.155zm-17.883 0 .104.295c-.6.198-1.043.582-1.331 1.155-.288.572-.432 1.29-.432 2.156 0 .896.144 1.635.432 2.216.288.582.728.97 1.32 1.168l-.093.296a2.776 2.776 0 0 1-1.725-1.274c-.4-.651-.599-1.44-.599-2.367 0-.925.2-1.714.601-2.368.401-.654.975-1.08 1.723-1.277z" fill-rule="evenodd"/><use xlink:href="#y" transform="matrix(7.86604 0 0 -7.86604 193.171 84.377)"/><use xlink:href="#D" transform="matrix(5.6186 0 0 -5.6186 195.76 86.044)"/><use xlink:href="#A" transform="matrix(7.86604 0 0 -7.86604 199.587 85.437)"/><use xlink:href="#B" transform="matrix(7.86604 0 0 -7.86604 202.691 84.377)" fill="#008f00"/><use xlink:href="#D" transform="matrix(5.6186 0 0 -5.6186 206.6 86.044)" fill="#008f00"/><path d="M196.948 106.409h2.389V96.326h4.778v10.083h2.389l-4.778 4.778z" fill="#fff2cc" fill-rule="evenodd"/><path stroke-width=".508" stroke-miterlimit="8" fill="none" stroke="#000" d="M196.948 106.409h2.389V96.326h4.778v10.083h2.389l-4.778 4.778z"/><path d="M196.948 58.752h2.389v10.083h4.778V58.752h2.389l-4.778-4.778z" fill="#fff2cc" fill-rule="evenodd"/><path stroke-width=".508" stroke-miterlimit="8" fill="none" stroke="#000" d="M196.948 58.752h2.389v10.083h4.778V58.752h2.389l-4.778-4.778z"/><path d="M283.414 120.627h38.224v19.112h-38.224z" fill="#c3e4f0" fill-opacity=".522"/><path stroke-width=".508" stroke-miterlimit="8" fill="none" stroke="#000" d="M283.414 120.627h38.224v19.112h-38.224z"/><path d="M314.678 126.86h.1c.601.01 1.051.147 1.35.412.298.265.447.664.447 1.197 0 .212-.03.454-.09.726-.06.271-.09.453-.09.545 0 .177.06.32.182.432.122.112.305.171.551.179v.315c-.246.008-.43.067-.551.178a.559.559 0 0 0-.183.433c0 .092.03.274.09.545s.091.513.091.726c0 .55-.15.958-.447 1.223-.299.265-.749.403-1.35.413h-.1v-.292h.057c.372 0 .662-.097.872-.29.21-.193.315-.522.315-.985 0-.18-.026-.4-.077-.664a3.42 3.42 0 0 1-.077-.565c0-.218.064-.396.192-.536s.28-.242.457-.31v-.068a1.174 1.174 0 0 1-.457-.31.762.762 0 0 1-.192-.535c0-.113.026-.301.077-.565.051-.264.077-.485.077-.664 0-.446-.105-.765-.315-.959-.21-.193-.5-.29-.872-.29h-.057zm-24.566 0h.1v.291h-.058c-.371 0-.662.097-.872.29-.21.194-.315.512-.315.955 0 .18.026.4.077.664.051.264.077.452.077.565a.762.762 0 0 1-.192.536c-.128.14-.28.242-.457.309v.07c.177.066.329.169.457.308.128.14.192.318.192.536 0 .113-.026.3-.077.565a3.591 3.591 0 0 0-.077.664c0 .466.105.796.315.99.21.192.5.29.872.29h.058v.291h-.1c-.602-.01-1.052-.148-1.35-.413-.299-.265-.448-.674-.448-1.227 0-.213.03-.454.09-.726.06-.271.09-.453.09-.545 0-.177-.06-.321-.182-.432-.121-.112-.305-.171-.55-.179v-.315c.245-.008.429-.067.55-.179a.559.559 0 0 0 .183-.432c0-.092-.03-.274-.09-.545a3.395 3.395 0 0 1-.09-.726c0-.53.148-.928.447-1.193.298-.265.748-.402 1.35-.412zM311.432 126.878a2.779 2.779 0 0 1 1.723 1.277c.4.654.601 1.443.601 2.368 0 .927-.2 1.716-.6 2.368a2.776 2.776 0 0 1-1.724 1.273l-.092-.296c.592-.197 1.031-.586 1.32-1.168.288-.58.432-1.32.432-2.216 0-.865-.144-1.584-.43-2.156a2.207 2.207 0 0 0-1.333-1.155zm-17.975 0 .103.295c-.599.198-1.042.582-1.33 1.155-.288.572-.432 1.29-.432 2.156 0 .896.144 1.635.432 2.216.288.582.727.97 1.319 1.168l-.092.296a2.776 2.776 0 0 1-1.725-1.273c-.4-.652-.599-1.441-.599-2.368 0-.925.2-1.714.601-2.368.4-.654.975-1.08 1.723-1.277z" fill-rule="evenodd"/><use xlink:href="#y" transform="matrix(7.86604 0 0 -7.86604 293.925 132.787)"/><use xlink:href="#z" transform="matrix(5.6186 0 0 -5.6186 296.36 134.449)"/><use xlink:href="#A" transform="matrix(7.86604 0 0 -7.86604 301.465 133.847)"/><use xlink:href="#B" transform="matrix(7.86604 0 0 -7.86604 304.569 132.787)" fill="#c00000"/><symbol id="P"><path d="M.364.374C.36.404.35.425.334.439.32.453.294.46.261.46A.123.123 0 0 1 .224.455a.09.09 0 0 1-.03-.016.066.066 0 0 1-.018-.022.062.062 0 0 1-.007-.029C.169.378.17.37.172.362A.061.061 0 0 1 .186.34.159.159 0 0 1 .214.316.583.583 0 0 1 .262.288.414.414 0 0 0 .314.255.164.164 0 0 0 .347.224.099.099 0 0 0 .364.189.155.155 0 0 0 .355.086.135.135 0 0 0 .315.04a.188.188 0 0 0-.06-.03A.26.26 0 0 0 .18 0 .66.66 0 0 0 0 .026l.025.111h.043C.069.107.078.084.096.07.114.054.141.046.177.046c.033 0 .058.007.077.021a.069.069 0 0 1 .028.059.11.11 0 0 1-.003.03.058.058 0 0 1-.014.023.502.502 0 0 1-.072.05.46.46 0 0 0-.05.033.217.217 0 0 0-.034.031.11.11 0 0 0-.026.071.127.127 0 0 0 .05.103.179.179 0 0 0 .057.03c.023.007.048.01.076.01A.595.595 0 0 0 .431.484L.407.374H.364z"/></symbol><use xlink:href="#P" transform="matrix(5.6186 0 0 -5.6186 308.064 134.454)" fill="#c00000"/><path d="M276.77 125.53v2.389h-36.632v4.778h36.631v2.389l4.778-4.778z" fill="#c3e4f0" fill-opacity=".522" fill-rule="evenodd"/><path stroke-width=".508" stroke-miterlimit="8" fill="none" stroke="#000" d="M276.77 125.53v2.389h-36.632v4.778h36.631v2.389l4.778-4.778z"/><path d="M244.166 91.205h29.918v19.112h-29.918z" fill="#c3e4f0" fill-opacity=".522"/><path stroke-width=".508" stroke-miterlimit="8" fill="none" stroke="#000" d="M244.166 91.205h29.918v19.112h-29.918z"/><symbol id="Q"><path d="M0 .488c.031 0 .055.008.07.022a.071.071 0 0 1 .023.055.396.396 0 0 1-.011.07.44.44 0 0 0-.012.092c0 .067.02.118.057.151.038.034.095.052.172.053h.013V.894H.304a.157.157 0 0 1-.11-.037C.166.833.153.792.153.736c0-.023.003-.051.01-.085A.434.434 0 0 0 .172.58.098.098 0 0 0 .148.51.15.15 0 0 0 .09.472V.463a.148.148 0 0 0 .058-.04.096.096 0 0 0 .025-.067.434.434 0 0 0-.01-.072A.457.457 0 0 1 .153.2c0-.06.014-.101.04-.126A.157.157 0 0 1 .304.037h.008V0H.299C.222.001.165.019.127.053.089.086.07.138.07.208a.44.44 0 0 0 .012.093.396.396 0 0 1 .011.07.07.07 0 0 1-.023.054C.055.439.03.447 0 .448v.04z"/></symbol><use xlink:href="#Q" transform="matrix(7.86604 0 0 -7.86604 252.555 105.15)"/><use xlink:href="#y" transform="matrix(7.86604 0 0 -7.86604 255.429 103.39)"/><use xlink:href="#z" transform="matrix(5.6186 0 0 -5.6186 257.864 105.052)"/><symbol id="R"><path d="M.312.447C.28.447.257.44.242.424A.07.07 0 0 1 .217.37C.218.358.222.335.23.3A.423.423 0 0 0 .241.208C.241.138.222.086.184.053.146.019.09 0 .013 0H0v.037h.007c.048 0 .084.012.111.037C.145.1.158.14.158.2c0 .023-.003.051-.01.085a.434.434 0 0 0-.01.071c0 .028.009.05.025.068a.148.148 0 0 0 .058.04v.009A.15.15 0 0 0 .163.51.098.098 0 0 0 .14.579c0 .014.003.038.01.072.006.033.01.062.01.084 0 .057-.014.098-.04.122a.157.157 0 0 1-.112.037H0v.037h.013C.089.93.146.912.184.878.222.845.241.794.241.727A.423.423 0 0 0 .23.634a.412.412 0 0 1-.01-.07C.218.543.225.525.24.51.257.496.281.488.311.487v-.04z"/></symbol><use xlink:href="#R" transform="matrix(7.86604 0 0 -7.86604 263.107 105.15)"/><path d="M254.306 121.286h2.389v-7.964h4.778v7.964h2.389l-4.778 4.778z" fill="#c3e4f0" fill-opacity=".522" fill-rule="evenodd"/><path stroke-width=".508" stroke-miterlimit="8" fill="none" stroke="#000" d="M254.306 121.286h2.389v-7.964h4.778v7.964h2.389l-4.778 4.778z"/><use xlink:href="#L" transform="matrix(7.86604 0 0 -7.86604 242.74 143.366)"/><use xlink:href="#l" transform="matrix(7.86604 0 0 -7.86604 246.935 143.378)"/><use xlink:href="#M" transform="matrix(7.86604 0 0 -7.86604 250.958 144.703)"/><use xlink:href="#g" transform="matrix(7.86604 0 0 -7.86604 254.609 143.37)"/><use xlink:href="#h" transform="matrix(7.86604 0 0 -7.86604 257.665 143.328)"/><use xlink:href="#j" transform="matrix(7.86604 0 0 -7.86604 259.322 143.378)"/><use xlink:href="#s" transform="matrix(7.86604 0 0 -7.86604 263.707 143.328)"/><use xlink:href="#h" transform="matrix(7.86604 0 0 -7.86604 267.774 143.328)"/><use xlink:href="#s" transform="matrix(7.86604 0 0 -7.86604 269.673 143.328)"/><use xlink:href="#I" transform="matrix(7.86604 0 0 -7.86604 273.432 144.707)"/><path d="M310.05 26.893v2.389h-68.486v4.778h68.485v2.389l4.778-4.778z" fill="#c3e4f0" fill-opacity=".522" fill-rule="evenodd"/><path stroke-width=".508" stroke-miterlimit="8" fill="none" stroke="#000" d="M310.05 26.893v2.389h-68.486v4.778h68.485v2.389l4.778-4.778z"/><path d="M239.972 51.289h38.224v19.112h-38.224z" fill="#c3e4f0" fill-opacity=".522"/><path stroke-width=".508" stroke-miterlimit="8" fill="none" stroke="#000" d="M239.972 51.289h38.224V70.4h-38.224z"/><path d="M272.198 57.521h.1c.601.01 1.051.148 1.35.413.298.265.447.664.447 1.197 0 .212-.03.454-.09.726-.06.271-.09.453-.09.545 0 .177.06.32.182.432.122.112.305.171.551.179v.315c-.246.007-.43.067-.551.178a.559.559 0 0 0-.183.432c0 .093.03.274.09.546.06.271.091.513.091.726 0 .55-.15.958-.447 1.223-.299.265-.749.403-1.35.413h-.1v-.292h.057c.372 0 .662-.097.872-.29.21-.193.315-.522.315-.985 0-.18-.026-.4-.077-.665a3.42 3.42 0 0 1-.077-.564c0-.218.064-.396.192-.536s.28-.243.458-.31v-.068a1.174 1.174 0 0 1-.458-.31.762.762 0 0 1-.192-.535c0-.113.026-.301.077-.565.051-.264.077-.485.077-.664 0-.446-.105-.765-.315-.959-.21-.193-.5-.29-.872-.29h-.057zm-26.49 0h.1v.292h-.058c-.372 0-.662.097-.872.29-.21.194-.315.512-.315.955 0 .179.026.4.077.664.051.264.077.452.077.565a.762.762 0 0 1-.192.536c-.129.14-.28.242-.458.309v.069c.177.067.33.17.458.31.128.139.192.317.192.535 0 .113-.026.3-.077.565a3.591 3.591 0 0 0-.077.664c0 .466.105.796.315.989.21.193.5.29.872.29h.057v.292h-.1c-.601-.01-1.051-.148-1.35-.413-.298-.265-.447-.674-.447-1.227 0-.213.03-.455.09-.726.06-.271.09-.453.09-.545 0-.177-.06-.321-.182-.432-.122-.112-.305-.171-.551-.18v-.314c.246-.008.43-.067.551-.179a.56.56 0 0 0 .182-.432c0-.092-.03-.274-.09-.545a3.395 3.395 0 0 1-.09-.726c0-.53.15-.928.447-1.193.299-.265.749-.402 1.35-.413zM268.952 57.54a2.779 2.779 0 0 1 1.723 1.277c.4.654.601 1.443.601 2.368 0 .927-.2 1.716-.6 2.367a2.776 2.776 0 0 1-1.724 1.274l-.092-.296c.592-.197 1.031-.586 1.32-1.168.288-.58.432-1.32.432-2.216 0-.865-.144-1.584-.43-2.156a2.207 2.207 0 0 0-1.333-1.155zm-19.9 0 .104.295c-.6.198-1.043.582-1.33 1.155-.289.572-.433 1.29-.433 2.156 0 .896.144 1.635.432 2.216.288.582.728.97 1.32 1.168l-.093.296a2.776 2.776 0 0 1-1.724-1.274c-.4-.651-.6-1.44-.6-2.367 0-.925.201-1.714.602-2.368.4-.655.975-1.08 1.722-1.277z" fill-rule="evenodd"/><use xlink:href="#y" transform="matrix(7.86604 0 0 -7.86604 249.52 63.476)"/><use xlink:href="#z" transform="matrix(5.6186 0 0 -5.6186 251.955 65.138)"/><use xlink:href="#A" transform="matrix(7.86604 0 0 -7.86604 257.06 64.536)"/><use xlink:href="#B" transform="matrix(7.86604 0 0 -7.86604 260.164 63.476)" fill="#c00000"/><use xlink:href="#z" transform="matrix(5.6186 0 0 -5.6186 263.69 65.138)" fill="#c00000"/><path d="M264.284 40.426h-2.389v7.963h-4.778v-7.963h-2.389l4.778-4.778z" fill="#c3e4f0" fill-opacity=".522" fill-rule="evenodd"/><path stroke-width=".508" stroke-miterlimit="8" fill="none" stroke="#000" d="M264.284 40.426h-2.389v7.963h-4.778v-7.963h-2.389l4.778-4.778z"/><path d="M305.64 40.474h-2.39v78.04h-4.777v-78.04h-2.39l4.779-4.778z" fill="#c3e4f0" fill-opacity=".522" fill-rule="evenodd"/><path stroke-width=".508" stroke-miterlimit="8" fill="none" stroke="#000" d="M305.64 40.473h-2.39v78.042h-4.777V40.473h-2.39l4.779-4.777z"/><path d="M318.893 19.407h92.922v25.96h-92.922z" fill="#c3e4f0" fill-opacity=".522"/><path stroke-width=".508" stroke-miterlimit="8" fill="none" stroke="#000" d="M318.893 19.407h92.922v25.96h-92.922z"/><path d="M357.926 29.063h.1c.602.01 1.052.148 1.35.413.299.265.448.664.448 1.197 0 .212-.03.454-.09.725-.06.272-.09.454-.09.546 0 .177.06.32.182.432.121.111.305.17.55.179v.315c-.245.007-.429.067-.55.178a.559.559 0 0 0-.183.432c0 .092.03.274.09.546.06.271.09.513.09.726 0 .55-.148.958-.447 1.223-.298.265-.748.403-1.35.413h-.1v-.292h.058c.371 0 .662-.097.872-.29.21-.193.315-.522.315-.985 0-.18-.026-.401-.077-.665a3.42 3.42 0 0 1-.077-.564c0-.218.064-.397.192-.536.128-.14.28-.243.457-.31v-.068a1.174 1.174 0 0 1-.457-.31.762.762 0 0 1-.192-.535c0-.113.026-.301.077-.565.051-.264.077-.485.077-.665 0-.445-.105-.765-.315-.958-.21-.193-.5-.29-.872-.29h-.058zm-26.49 0h.1v.292h-.058c-.37 0-.661.097-.871.29-.21.193-.315.512-.315.955 0 .179.025.4.076.664.052.264.077.452.077.565a.762.762 0 0 1-.192.535c-.128.14-.28.243-.457.31v.069c.177.066.33.17.457.309.128.14.192.318.192.536 0 .112-.025.3-.077.564a3.591 3.591 0 0 0-.076.665c0 .466.105.796.315.989.21.193.5.29.871.29h.058v.292h-.1c-.602-.01-1.052-.148-1.35-.413-.298-.265-.447-.674-.447-1.227 0-.213.03-.455.09-.726.06-.272.09-.453.09-.546a.56.56 0 0 0-.182-.432c-.122-.111-.306-.17-.551-.178v-.315c.245-.008.43-.067.55-.179a.56.56 0 0 0 .183-.432c0-.092-.03-.274-.09-.545a3.395 3.395 0 0 1-.09-.726c0-.53.149-.928.447-1.193.298-.265.748-.402 1.35-.413zM354.681 29.081a2.779 2.779 0 0 1 1.723 1.278c.4.654.6 1.443.6 2.367 0 .927-.199 1.717-.598 2.368a2.776 2.776 0 0 1-1.725 1.274l-.092-.296c.591-.197 1.031-.587 1.32-1.168.287-.581.431-1.32.431-2.216 0-.865-.143-1.584-.43-2.157a2.207 2.207 0 0 0-1.333-1.154zm-19.9 0 .104.296c-.6.197-1.043.582-1.331 1.154-.288.573-.432 1.292-.432 2.157 0 .896.144 1.635.432 2.216.288.581.728.97 1.32 1.168l-.093.296a2.776 2.776 0 0 1-1.724-1.274c-.4-.651-.6-1.44-.6-2.368 0-.924.2-1.713.601-2.367.401-.655.975-1.08 1.723-1.278z" fill-rule="evenodd"/><use xlink:href="#y" transform="matrix(7.86604 0 0 -7.86604 335.25 35.023)"/><use xlink:href="#z" transform="matrix(5.6186 0 0 -5.6186 337.684 36.685)"/><use xlink:href="#A" transform="matrix(7.86604 0 0 -7.86604 342.79 36.083)"/><use xlink:href="#B" transform="matrix(7.86604 0 0 -7.86604 345.893 35.023)" fill="#008f00"/><use xlink:href="#z" transform="matrix(5.6186 0 0 -5.6186 349.419 36.685)" fill="#008f00"/><use xlink:href="#C" transform="matrix(7.86604 0 0 -7.86604 363.06 35.242)"/><path d="M397.417 29.063h.1c.601.01 1.051.148 1.35.413.298.265.447.664.447 1.197 0 .212-.03.454-.09.725-.06.272-.09.454-.09.546 0 .177.06.32.182.432.122.111.305.17.551.179v.315c-.246.007-.43.067-.551.178a.559.559 0 0 0-.182.432c0 .092.03.274.09.546.06.271.09.513.09.726 0 .55-.15.958-.447 1.223-.299.265-.749.403-1.35.413h-.1v-.292h.057c.372 0 .662-.097.872-.29.21-.193.315-.522.315-.985 0-.18-.026-.401-.077-.665a3.42 3.42 0 0 1-.077-.564c0-.218.064-.397.192-.536.129-.14.28-.243.458-.31v-.068a1.174 1.174 0 0 1-.458-.31.762.762 0 0 1-.192-.535c0-.113.026-.301.077-.565.051-.264.077-.485.077-.665 0-.445-.105-.765-.315-.958-.21-.193-.5-.29-.872-.29h-.057zm-24.566 0h.1v.292h-.058c-.371 0-.662.097-.872.29-.21.193-.315.512-.315.955 0 .179.026.4.077.664.051.264.077.452.077.565a.762.762 0 0 1-.192.535c-.128.14-.28.243-.457.31v.069c.177.066.329.17.457.309.128.14.192.318.192.536 0 .112-.026.3-.077.564a3.591 3.591 0 0 0-.077.665c0 .466.105.796.315.989.21.193.5.29.872.29h.058v.292h-.1c-.602-.01-1.052-.148-1.35-.413-.298-.265-.448-.674-.448-1.227 0-.213.03-.455.09-.726.06-.272.09-.453.09-.546a.56.56 0 0 0-.182-.432c-.121-.111-.305-.17-.55-.178v-.315c.245-.008.429-.067.55-.179a.56.56 0 0 0 .183-.432c0-.092-.03-.274-.09-.545a3.395 3.395 0 0 1-.09-.726c0-.53.149-.928.447-1.193.298-.265.748-.402 1.35-.413zM394.171 29.081a2.779 2.779 0 0 1 1.723 1.278c.4.654.601 1.443.601 2.367 0 .927-.2 1.717-.599 2.368a2.776 2.776 0 0 1-1.725 1.274l-.092-.296c.592-.197 1.032-.587 1.32-1.168.288-.581.432-1.32.432-2.216 0-.865-.144-1.584-.43-2.157a2.207 2.207 0 0 0-1.333-1.154zm-17.975 0 .103.296c-.599.197-1.042.582-1.33 1.154-.288.573-.432 1.292-.432 2.157 0 .896.144 1.635.432 2.216.288.581.727.97 1.319 1.168l-.092.296a2.776 2.776 0 0 1-1.725-1.274c-.4-.651-.599-1.44-.599-2.368 0-.924.2-1.713.601-2.367.4-.655.975-1.08 1.723-1.278z" fill-rule="evenodd"/><use xlink:href="#y" transform="matrix(7.86604 0 0 -7.86604 376.664 35.023)"/><use xlink:href="#z" transform="matrix(5.6186 0 0 -5.6186 379.099 36.685)"/><use xlink:href="#A" transform="matrix(7.86604 0 0 -7.86604 384.204 36.083)"/><use xlink:href="#B" transform="matrix(7.86604 0 0 -7.86604 387.308 35.023)" fill="#008f00"/><use xlink:href="#P" transform="matrix(5.6186 0 0 -5.6186 390.803 36.69)" fill="#008f00"/><use xlink:href="#F" transform="matrix(7.86604 0 0 -7.86604 263.79 24.932)"/><use xlink:href="#h" transform="matrix(7.86604 0 0 -7.86604 267.223 24.932)"/><use xlink:href="#f" transform="matrix(7.86604 0 0 -7.86604 269.128 24.932)"/><use xlink:href="#g" transform="matrix(7.86604 0 0 -7.86604 270.495 24.975)"/><use xlink:href="#p" transform="matrix(7.86604 0 0 -7.86604 273.308 24.982)"/><use xlink:href="#o" transform="matrix(7.86604 0 0 -7.86604 277.475 24.932)"/><use xlink:href="#h" transform="matrix(7.86604 0 0 -7.86604 280.139 24.932)"/><use xlink:href="#s" transform="matrix(7.86604 0 0 -7.86604 282.044 24.932)"/><use xlink:href="#I" transform="matrix(7.86604 0 0 -7.86604 285.8 26.311)"/><symbol id="S"><path d="M.311.141a.137.137 0 0 0-.013-.06.12.12 0 0 0-.035-.044.16.16 0 0 0-.055-.028.248.248 0 0 0-.114-.005.274.274 0 0 0-.067.02.09.09 0 0 0-.017.012.028.028 0 0 0-.008.013A.093.093 0 0 0 0 .073.105.105 0 0 0 .003.1a.01.01 0 0 0 .004.005.011.011 0 0 0 .007.002C.017.106.022.104.029.1A.525.525 0 0 1 .092.07.167.167 0 0 1 .177.07c.011.003.02.007.03.013a.057.057 0 0 1 .018.022C.229.112.23.123.23.134a.05.05 0 0 1-.01.032.088.088 0 0 1-.024.022.196.196 0 0 1-.035.018A10.87 10.87 0 0 1 .08.24a.163.163 0 0 0-.036.026.12.12 0 0 0-.025.036.124.124 0 0 0-.01.05c0 .018.004.034.01.05.007.016.017.03.03.041.014.012.03.022.05.03A.21.21 0 0 0 .207.48.241.241 0 0 0 .262.463.081.081 0 0 0 .277.454.022.022 0 0 0 .284.447.049.049 0 0 0 .288.431V.405a.027.027 0 0 0-.003-.01.013.013 0 0 0-.004-.006.01.01 0 0 0-.005-.001C.273.387.269.389.263.392A.211.211 0 0 1 .21.415a.139.139 0 0 1-.076 0A.067.067 0 0 1 .108.403a.057.057 0 0 1-.015-.02.065.065 0 0 1-.005-.025c0-.013.003-.024.01-.032A.095.095 0 0 1 .123.302.214.214 0 0 1 .159.285 3.48 3.48 0 0 0 .24.25.151.151 0 0 0 .276.225.11.11 0 0 0 .311.141z"/></symbol><symbol id="T"><path d="M.417.181a.187.187 0 0 0-.03-.1.184.184 0 0 0-.077-.06A.252.252 0 0 0 .197 0H.031A.036.036 0 0 0 .01.007C.003.013 0 .021 0 .034v.564C0 .61.003.619.01.624A.035.035 0 0 0 .03.632h.144a.333.333 0 0 0 .093-.01.162.162 0 0 0 .06-.032.128.128 0 0 0 .036-.05A.176.176 0 0 0 .355.39.135.135 0 0 0 .292.338.15.15 0 0 0 .407.24a.172.172 0 0 0 .01-.059M.29.464C.29.479.288.493.284.505a.075.075 0 0 1-.02.032.088.088 0 0 1-.036.02.201.201 0 0 1-.058.006H.083V.36h.096A.14.14 0 0 1 .23.367a.089.089 0 0 1 .052.057.129.129 0 0 1 .007.04M.328.176a.125.125 0 0 1-.01.05.091.091 0 0 1-.026.036.112.112 0 0 1-.043.022.23.23 0 0 1-.065.008H.083V.069h.122c.02 0 .036.003.05.007a.113.113 0 0 1 .038.02c.011.01.02.02.026.034a.11.11 0 0 1 .01.046z"/></symbol><use xlink:href="#v" transform="matrix(7.86604 0 0 -7.86604 243.028 8.863)"/><use xlink:href="#l" transform="matrix(7.86604 0 0 -7.86604 247.567 8.936)"/><use xlink:href="#g" transform="matrix(7.86604 0 0 -7.86604 251.062 8.928)"/><use xlink:href="#l" transform="matrix(7.86604 0 0 -7.86604 253.862 8.936)"/><use xlink:href="#S" transform="matrix(7.86604 0 0 -7.86604 257.611 8.936)"/><use xlink:href="#p" transform="matrix(7.86604 0 0 -7.86604 260.75 8.936)"/><use xlink:href="#g" transform="matrix(7.86604 0 0 -7.86604 264.406 8.928)"/><use xlink:href="#m" transform="matrix(7.86604 0 0 -7.86604 266.947 8.863)"/><use xlink:href="#T" transform="matrix(7.86604 0 0 -7.86604 269.362 8.863)"/><use xlink:href="#j" transform="matrix(7.86604 0 0 -7.86604 273.327 8.936)"/><use xlink:href="#j" transform="matrix(7.86604 0 0 -7.86604 277.473 8.936)"/><use xlink:href="#g" transform="matrix(7.86604 0 0 -7.86604 281.4 8.928)"/><use xlink:href="#S" transform="matrix(7.86604 0 0 -7.86604 284.252 8.936)"/><use xlink:href="#g" transform="matrix(7.86604 0 0 -7.86604 287.073 8.928)"/><use xlink:href="#o" transform="matrix(7.86604 0 0 -7.86604 290.202 8.886)"/><use xlink:href="#l" transform="matrix(7.86604 0 0 -7.86604 292.548 8.936)"/><use xlink:href="#M" transform="matrix(7.86604 0 0 -7.86604 296.575 10.26)"/><use xlink:href="#M" transform="matrix(7.86604 0 0 -7.86604 300.721 10.26)"/><use xlink:href="#h" transform="matrix(7.86604 0 0 -7.86604 304.79 8.886)"/><use xlink:href="#s" transform="matrix(7.86604 0 0 -7.86604 306.693 8.886)"/><use xlink:href="#I" transform="matrix(7.86604 0 0 -7.86604 310.455 10.265)"/><use xlink:href="#d" transform="matrix(7.86604 0 0 -7.86604 38.78 8.886)"/><use xlink:href="#j" transform="matrix(7.86604 0 0 -7.86604 45.207 8.936)"/><use xlink:href="#k" transform="matrix(7.86604 0 0 -7.86604 49.376 8.936)"/><use xlink:href="#p" transform="matrix(7.86604 0 0 -7.86604 53.511 8.936)"/><use xlink:href="#f" transform="matrix(7.86604 0 0 -7.86604 57.675 8.886)"/><use xlink:href="#m" transform="matrix(7.86604 0 0 -7.86604 58.913 8.863)"/><use xlink:href="#E" transform="matrix(7.86604 0 0 -7.86604 61.329 8.886)"/><use xlink:href="#o" transform="matrix(7.86604 0 0 -7.86604 65.331 8.886)"/><use xlink:href="#p" transform="matrix(7.86604 0 0 -7.86604 67.737 8.936)"/><use xlink:href="#g" transform="matrix(7.86604 0 0 -7.86604 71.393 8.928)"/><use xlink:href="#o" transform="matrix(7.86604 0 0 -7.86604 74.521 8.886)"/><use xlink:href="#l" transform="matrix(7.86604 0 0 -7.86604 76.868 8.936)"/><use xlink:href="#h" transform="matrix(7.86604 0 0 -7.86604 80.817 8.886)"/><use xlink:href="#s" transform="matrix(7.86604 0 0 -7.86604 82.72 8.886)"/><use xlink:href="#h" transform="matrix(7.86604 0 0 -7.86604 86.79 8.886)"/><use xlink:href="#s" transform="matrix(7.86604 0 0 -7.86604 88.692 8.886)"/><use xlink:href="#I" transform="matrix(7.86604 0 0 -7.86604 92.454 10.265)"/><path d="M318.893 64.006h92.922v25.96h-92.922z" fill="#c3e4f0" fill-opacity=".522"/><path stroke-width=".508" stroke-miterlimit="8" fill="none" stroke="#000" d="M318.893 64.006h92.922v25.96h-92.922z"/><use xlink:href="#w" transform="matrix(7.86604 0 0 -7.86604 321.746 74.803)"/><use xlink:href="#x" transform="matrix(7.86604 0 0 -7.86604 329.994 73.608)"/><path d="M366.712 68.943h.1c.602.01 1.052.148 1.35.413.299.265.448.663.448 1.196 0 .213-.03.454-.09.726-.06.271-.09.453-.09.545 0 .177.06.321.182.432.121.112.305.171.55.179v.315c-.245.008-.429.067-.55.179a.559.559 0 0 0-.183.432c0 .092.03.274.09.545s.09.513.09.726c0 .55-.148.958-.447 1.223-.298.265-.748.403-1.35.413h-.1v-.292h.058c.371 0 .662-.096.872-.29.21-.193.315-.521.315-.985 0-.18-.026-.4-.077-.664a3.415 3.415 0 0 1-.077-.565c0-.218.064-.396.192-.536s.28-.242.457-.309v-.07a1.174 1.174 0 0 1-.457-.308.762.762 0 0 1-.192-.536c0-.113.026-.3.077-.565.051-.263.077-.485.077-.664 0-.446-.105-.765-.315-.958-.21-.194-.5-.29-.872-.29h-.058zm-26.49 0h.1v.292h-.058c-.37 0-.661.096-.871.29-.21.193-.315.511-.315.954 0 .18.025.4.076.665.052.263.077.451.077.564a.762.762 0 0 1-.192.536c-.128.14-.28.243-.457.31v.068c.177.067.33.17.457.31.128.139.192.318.192.535 0 .113-.025.301-.077.565a3.596 3.596 0 0 0-.076.664c0 .466.105.796.315.99.21.193.5.29.871.29h.058v.291h-.1c-.602-.01-1.052-.148-1.35-.413-.298-.265-.447-.674-.447-1.227 0-.212.03-.454.09-.726.06-.271.09-.453.09-.545a.56.56 0 0 0-.182-.432c-.122-.112-.306-.171-.551-.179v-.315c.245-.008.43-.067.55-.178a.56.56 0 0 0 .183-.433c0-.092-.03-.273-.09-.545a3.395 3.395 0 0 1-.09-.726c0-.53.149-.927.447-1.192.298-.265.748-.403 1.35-.413zM363.467 68.96a2.779 2.779 0 0 1 1.723 1.278c.4.654.6 1.443.6 2.368 0 .927-.199 1.716-.598 2.368a2.776 2.776 0 0 1-1.725 1.273l-.092-.296c.591-.197 1.031-.586 1.32-1.167.287-.582.431-1.32.431-2.217 0-.865-.143-1.584-.43-2.156a2.207 2.207 0 0 0-1.333-1.154zm-19.9 0 .104.297c-.6.197-1.043.581-1.331 1.154-.288.572-.432 1.29-.432 2.156 0 .897.144 1.635.432 2.217.288.58.728.97 1.32 1.167l-.093.296a2.776 2.776 0 0 1-1.724-1.273c-.4-.652-.6-1.441-.6-2.368 0-.925.2-1.714.601-2.368.401-.654.975-1.08 1.723-1.277z" fill-rule="evenodd"/><use xlink:href="#y" transform="matrix(7.86604 0 0 -7.86604 344.035 74.803)"/><use xlink:href="#z" transform="matrix(5.6186 0 0 -5.6186 346.47 76.465)"/><use xlink:href="#A" transform="matrix(7.86604 0 0 -7.86604 351.575 75.863)"/><use xlink:href="#B" transform="matrix(7.86604 0 0 -7.86604 354.68 74.803)" fill="#008f00"/><use xlink:href="#z" transform="matrix(5.6186 0 0 -5.6186 358.205 76.465)" fill="#008f00"/><use xlink:href="#C" transform="matrix(7.86604 0 0 -7.86604 371.847 75.022)"/><path d="M406.203 68.943h.1c.601.01 1.051.148 1.35.413.298.265.447.663.447 1.196 0 .213-.03.454-.09.726-.06.271-.09.453-.09.545 0 .177.06.321.182.432.122.112.305.171.551.179v.315c-.246.008-.43.067-.551.179a.559.559 0 0 0-.183.432c0 .092.03.274.09.545s.091.513.091.726c0 .55-.15.958-.447 1.223-.299.265-.749.403-1.35.413h-.1v-.292h.057c.372 0 .662-.096.872-.29.21-.193.315-.521.315-.985 0-.18-.026-.4-.077-.664a3.415 3.415 0 0 1-.077-.565c0-.218.064-.396.192-.536s.28-.242.458-.309v-.07a1.174 1.174 0 0 1-.458-.308.762.762 0 0 1-.192-.536c0-.113.026-.3.077-.565.051-.263.077-.485.077-.664 0-.446-.105-.765-.315-.958-.21-.194-.5-.29-.872-.29h-.057zm-24.566 0h.1v.292h-.058c-.371 0-.662.096-.872.29-.21.193-.315.511-.315.954 0 .18.026.4.077.665.051.263.077.451.077.564a.762.762 0 0 1-.192.536c-.128.14-.28.243-.457.31v.068c.177.067.329.17.457.31.128.139.192.318.192.535 0 .113-.026.301-.077.565a3.596 3.596 0 0 0-.077.664c0 .466.105.796.315.99.21.193.5.29.872.29h.058v.291h-.1c-.602-.01-1.052-.148-1.35-.413-.298-.265-.448-.674-.448-1.227 0-.212.03-.454.09-.726.06-.271.09-.453.09-.545a.56.56 0 0 0-.182-.432c-.121-.112-.305-.171-.55-.179v-.315c.245-.008.429-.067.55-.178a.56.56 0 0 0 .183-.433c0-.092-.03-.273-.09-.545a3.395 3.395 0 0 1-.09-.726c0-.53.149-.927.447-1.192.298-.265.748-.403 1.35-.413zM402.957 68.96a2.779 2.779 0 0 1 1.723 1.278c.4.654.601 1.443.601 2.368 0 .927-.2 1.716-.599 2.368a2.776 2.776 0 0 1-1.725 1.273l-.092-.296c.592-.197 1.032-.586 1.32-1.167.288-.582.432-1.32.432-2.217 0-.865-.144-1.584-.43-2.156a2.207 2.207 0 0 0-1.333-1.154zm-17.975 0 .103.297c-.599.197-1.042.581-1.33 1.154-.288.572-.432 1.29-.432 2.156 0 .897.144 1.635.432 2.217.288.58.727.97 1.319 1.167l-.092.296a2.776 2.776 0 0 1-1.725-1.273c-.4-.652-.599-1.441-.599-2.368 0-.925.2-1.714.601-2.368.4-.654.975-1.08 1.723-1.277z" fill-rule="evenodd"/><use xlink:href="#y" transform="matrix(7.86604 0 0 -7.86604 385.45 74.803)"/><use xlink:href="#z" transform="matrix(5.6186 0 0 -5.6186 387.885 76.465)"/><use xlink:href="#A" transform="matrix(7.86604 0 0 -7.86604 392.99 75.863)"/><use xlink:href="#B" transform="matrix(7.86604 0 0 -7.86604 396.094 74.803)" fill="#008f00"/><use xlink:href="#P" transform="matrix(5.6186 0 0 -5.6186 399.59 76.47)" fill="#008f00"/><use xlink:href="#C" transform="matrix(7.86604 0 0 -7.86604 347.895 84.596)"/><path d="M380.41 78.494h.1c.602.01 1.052.148 1.35.413.299.265.448.664.448 1.197 0 .212-.03.454-.09.726-.06.271-.09.453-.09.545 0 .177.06.32.182.432.121.111.305.171.55.179v.315c-.245.007-.429.067-.55.178a.559.559 0 0 0-.183.432c0 .092.03.274.09.546.06.271.09.513.09.726 0 .55-.148.958-.447 1.223-.298.265-.748.403-1.35.413h-.1v-.292h.058c.371 0 .662-.097.872-.29.21-.193.315-.522.315-.985 0-.18-.026-.401-.077-.665a3.415 3.415 0 0 1-.077-.564c0-.218.064-.397.192-.536.128-.14.28-.243.457-.31v-.068a1.174 1.174 0 0 1-.457-.31.762.762 0 0 1-.192-.535c0-.113.026-.301.077-.565.051-.264.077-.485.077-.665 0-.445-.105-.764-.315-.958-.21-.193-.5-.29-.872-.29h-.058zm-24.473 0h.1v.292h-.057c-.372 0-.662.097-.872.29-.21.194-.315.512-.315.955 0 .179.025.4.077.664.05.264.076.452.076.565a.762.762 0 0 1-.192.536c-.128.139-.28.242-.457.309v.069c.177.066.33.17.457.309.128.14.192.318.192.536 0 .112-.025.3-.076.564a3.596 3.596 0 0 0-.077.665c0 .466.105.796.315.989.21.193.5.29.872.29h.057v.292h-.1c-.601-.01-1.051-.148-1.35-.413-.298-.265-.447-.674-.447-1.227 0-.213.03-.455.09-.726.06-.272.09-.453.09-.546a.56.56 0 0 0-.182-.432c-.122-.111-.305-.17-.551-.178v-.315c.246-.008.43-.067.551-.179a.56.56 0 0 0 .182-.432c0-.092-.03-.274-.09-.545a3.395 3.395 0 0 1-.09-.726c0-.53.149-.928.447-1.193.299-.265.749-.402 1.35-.413zM377.165 78.512a2.779 2.779 0 0 1 1.723 1.278c.4.654.601 1.443.601 2.367 0 .927-.2 1.717-.6 2.368a2.776 2.776 0 0 1-1.724 1.274l-.092-.296c.592-.197 1.031-.587 1.32-1.168.287-.581.431-1.32.431-2.216 0-.865-.143-1.584-.43-2.157a2.207 2.207 0 0 0-1.332-1.154zm-17.883 0 .104.296c-.6.197-1.043.582-1.33 1.154-.289.573-.433 1.292-.433 2.157 0 .896.144 1.635.432 2.216.288.581.728.97 1.32 1.168l-.093.296a2.776 2.776 0 0 1-1.724-1.274c-.4-.651-.6-1.44-.6-2.368 0-.924.201-1.713.602-2.367.4-.655.975-1.08 1.722-1.278z" fill-rule="evenodd"/><use xlink:href="#y" transform="matrix(7.86604 0 0 -7.86604 359.75 84.377)"/><use xlink:href="#D" transform="matrix(5.6186 0 0 -5.6186 362.339 86.044)"/><use xlink:href="#A" transform="matrix(7.86604 0 0 -7.86604 366.167 85.437)"/><use xlink:href="#B" transform="matrix(7.86604 0 0 -7.86604 369.27 84.377)" fill="#008f00"/><use xlink:href="#D" transform="matrix(5.6186 0 0 -5.6186 373.18 86.044)" fill="#008f00"/><path d="M365.214 89.966v70.148l.14-.14H9.082l.141.14V32.248l-.14.14h9.012v-.28H8.942v128.147h356.553V89.966zM17.533 33.934l3.37-1.686-3.37-1.685z"/><path d="M361.924 57.876h2.389V47.793h4.778v10.083h2.389l-4.778 4.778z" fill="#c3e4f0" fill-rule="evenodd"/><path stroke-width=".508" stroke-miterlimit="8" fill="none" stroke="#000" d="M361.924 57.876h2.389V47.793h4.778v10.083h2.389l-4.778 4.778z"/><path d="M13.92 118.515h106.89v36.674H13.92z" fill="#afabab" fill-opacity=".098"/><path stroke-width=".762" stroke-dasharray="3.048,2.286" stroke-miterlimit="8" fill="none" stroke="#000" d="M13.92 118.515h106.89v36.674H13.92z"/><symbol id="U"><path d="M.664.456.663.447A.106.106 0 0 0 .659.435L.53.018a.02.02 0 0 0-.004-.01.02.02 0 0 0-.009-.005.253.253 0 0 0-.082 0A.02.02 0 0 0 .427.01.023.023 0 0 0 .42.018L.33.336v.005L.326.336.242.018A.02.02 0 0 0 .228.003a.253.253 0 0 0-.082 0A.02.02 0 0 0 .137.01a.023.023 0 0 0-.004.009L.004.435A.106.106 0 0 0 0 .455c0 .003 0 .006.002.007a.012.012 0 0 0 .006.005.313.313 0 0 0 .066 0A.01.01 0 0 0 .082.46.03.03 0 0 0 .084.454L.19.092.191.087l.001.005.098.362.002.007A.013.013 0 0 0 .3.466a.167.167 0 0 0 .063 0A.012.012 0 0 0 .37.462.022.022 0 0 0 .372.455L.477.092V.087l.001.005.105.362.002.007a.013.013 0 0 0 .007.005.185.185 0 0 0 .063 0A.013.013 0 0 0 .663.463.01.01 0 0 0 .664.456z"/></symbol><symbol id="V"><path d="M.36.016.36.009A.014.014 0 0 0 .352.004.046.046 0 0 0 .34 0a.185.185 0 0 0-.043 0 .078.078 0 0 0-.014.002.034.034 0 0 0-.01.005.051.051 0 0 0-.006.008L.081.259V.015L.079.008A.017.017 0 0 0 .072.004.045.045 0 0 0 .06 0a.167.167 0 0 0-.052.003A.017.017 0 0 0 0 .008.015.015 0 0 0 0 .015v.652l.001.007A.014.014 0 0 0 .008.68.052.052 0 0 0 .02.682.162.162 0 0 0 .072.68.014.014 0 0 0 .08.674.012.012 0 0 0 .08.667V.27l.166.183A.037.037 0 0 0 .255.46.049.049 0 0 0 .28.468.175.175 0 0 0 .333.467C.337.466.34.464.341.462A.01.01 0 0 0 .343.455.023.023 0 0 0 .34.443.062.062 0 0 0 .33.43L.17.27.35.04A.076.076 0 0 0 .357.025.018.018 0 0 0 .36.015z"/></symbol><use xlink:href="#v" transform="matrix(7.86604 0 0 -7.86604 38.28 139.394)"/><use xlink:href="#j" transform="matrix(7.86604 0 0 -7.86604 42.812 139.467)"/><use xlink:href="#U" transform="matrix(7.86604 0 0 -7.86604 46.785 139.417)"/><use xlink:href="#s" transform="matrix(7.86604 0 0 -7.86604 52.786 139.417)"/><use xlink:href="#S" transform="matrix(7.86604 0 0 -7.86604 56.655 139.467)"/><use xlink:href="#g" transform="matrix(7.86604 0 0 -7.86604 59.477 139.46)"/><use xlink:href="#o" transform="matrix(7.86604 0 0 -7.86604 62.605 139.417)"/><use xlink:href="#p" transform="matrix(7.86604 0 0 -7.86604 65.01 139.467)"/><use xlink:href="#l" transform="matrix(7.86604 0 0 -7.86604 68.94 139.467)"/><use xlink:href="#i" transform="matrix(7.86604 0 0 -7.86604 72.967 139.417)"/><use xlink:href="#m" transform="matrix(7.86604 0 0 -7.86604 78.626 139.394)"/><use xlink:href="#J" transform="matrix(7.86604 0 0 -7.86604 80.438 139.417)"/><use xlink:href="#l" transform="matrix(7.86604 0 0 -7.86604 83.983 139.467)"/><use xlink:href="#S" transform="matrix(7.86604 0 0 -7.86604 87.733 139.467)"/><use xlink:href="#V" transform="matrix(7.86604 0 0 -7.86604 91.102 139.417)"/><use xlink:href="#S" transform="matrix(7.86604 0 0 -7.86604 94.335 139.467)"/><path d="M67.646 103.1v12.606h-.562v-12.607zm1.404 12.044-1.685 3.37-1.686-3.37z"/><path d="M428.838 12.34v2.389h-6.918v4.778h6.918v2.389l4.778-4.778z" fill="#fff2cc" fill-rule="evenodd"/><path stroke-width=".508" stroke-miterlimit="8" fill="none" stroke="#000" d="M428.838 12.34v2.389h-6.918v4.778h6.918v2.389l4.778-4.778z"/><use xlink:href="#J" transform="matrix(7.86604 0 0 -7.86604 436.228 19.673)"/><use xlink:href="#j" transform="matrix(7.86604 0 0 -7.86604 439.68 19.723)"/><use xlink:href="#m" transform="matrix(7.86604 0 0 -7.86604 443.48 19.65)"/><use xlink:href="#i" transform="matrix(7.86604 0 0 -7.86604 445.822 19.673)"/><use xlink:href="#j" transform="matrix(7.86604 0 0 -7.86604 451.835 19.723)"/><use xlink:href="#k" transform="matrix(7.86604 0 0 -7.86604 456.004 19.723)"/><use xlink:href="#p" transform="matrix(7.86604 0 0 -7.86604 460.139 19.723)"/><use xlink:href="#f" transform="matrix(7.86604 0 0 -7.86604 464.303 19.673)"/><path d="M428.725 27.47v2.39h-6.918v4.778h6.918v2.389l4.778-4.778z" fill="#c3e4f0" fill-opacity=".522" fill-rule="evenodd"/><path stroke-width=".508" stroke-miterlimit="8" fill="none" stroke="#000" d="M428.725 27.47v2.39h-6.918v4.778h6.918v2.389l4.778-4.778z"/><use xlink:href="#J" transform="matrix(7.86604 0 0 -7.86604 436.229 34.237)"/><use xlink:href="#j" transform="matrix(7.86604 0 0 -7.86604 439.68 34.287)"/><use xlink:href="#m" transform="matrix(7.86604 0 0 -7.86604 443.48 34.214)"/><use xlink:href="#k" transform="matrix(7.86604 0 0 -7.86604 445.604 34.287)"/><use xlink:href="#l" transform="matrix(7.86604 0 0 -7.86604 449.735 34.287)"/><use xlink:href="#g" transform="matrix(7.86604 0 0 -7.86604 453.23 34.28)"/><use xlink:href="#l" transform="matrix(7.86604 0 0 -7.86604 456.029 34.287)"/><use xlink:href="#y" transform="matrix(7.86604 0 0 -7.86604 422.036 54.576)"/><use xlink:href="#z" transform="matrix(5.6186 0 0 -5.6186 424.471 56.238)"/><symbol id="W"><path d="M.103.395C.103.385.102.375.1.369A.034.034 0 0 0 .092.35a.034.034 0 0 0-.016-.01A.105.105 0 0 0 .051.34C.041.34.032.34.026.342a.034.034 0 0 0-.016.01.04.04 0 0 0-.008.017.157.157 0 0 0 0 .054A.037.037 0 0 0 .01.44a.03.03 0 0 0 .016.01.09.09 0 0 0 .025.002c.01 0 .019 0 .025-.003A.03.03 0 0 0 .092.44.032.032 0 0 0 .1.423.127.127 0 0 0 .103.395m0-.339C.103.046.102.036.1.03A.034.034 0 0 0 .092.012a.03.03 0 0 0-.016-.01A.088.088 0 0 0 .051 0a.09.09 0 0 0-.025.003.03.03 0 0 0-.016.009.04.04 0 0 0-.008.017A.154.154 0 0 0 0 .056c0 .01 0 .02.002.027A.037.037 0 0 0 .01.101C.014.105.02.108.026.11A.09.09 0 0 0 .05.113C.061.113.07.112.076.11A.032.032 0 0 0 .1.083.124.124 0 0 0 .103.056z"/></symbol><symbol id="X"><path d="M.404.247A.387.387 0 0 0 .392.144.223.223 0 0 0 .355.066a.16.16 0 0 0-.06-.049.182.182 0 0 0-.153 0 .424.424 0 0 0-.07.058V.021L.068.015A.014.014 0 0 0 .063.01.113.113 0 0 0 .019.008.066.066 0 0 0 .007.01C.004.01.002.013.001.015A.015.015 0 0 0 0 .02v.653L.001.68a.014.014 0 0 0 .007.005.052.052 0 0 0 .013.002.162.162 0 0 0 .051-.002A.014.014 0 0 0 .08.68.012.012 0 0 0 .08.674V.41a.34.34 0 0 0 .037.033A.22.22 0 0 0 .19.48a.17.17 0 0 0 .038.004c.031 0 .059-.006.081-.02a.155.155 0 0 0 .055-.05.218.218 0 0 0 .032-.075.409.409 0 0 0 .01-.09M.318.237a.392.392 0 0 1-.005.065.18.18 0 0 1-.018.056.107.107 0 0 1-.033.04.087.087 0 0 1-.053.015.11.11 0 0 1-.061-.02.242.242 0 0 1-.033-.026.398.398 0 0 1-.035-.04V.152A.34.34 0 0 1 .144.09.109.109 0 0 1 .207.07a.09.09 0 0 1 .052.014.11.11 0 0 1 .034.039c.01.016.016.034.02.054.004.02.006.04.006.06z"/></symbol><use xlink:href="#W" transform="matrix(7.86604 0 0 -7.86604 430.202 54.61)"/><use xlink:href="#m" transform="matrix(7.86604 0 0 -7.86604 431.591 54.576)"/><use xlink:href="#U" transform="matrix(7.86604 0 0 -7.86604 433.548 54.599)"/><use xlink:href="#p" transform="matrix(7.86604 0 0 -7.86604 439.247 54.649)"/><use xlink:href="#X" transform="matrix(7.86604 0 0 -7.86604 443.41 54.649)"/><use xlink:href="#m" transform="matrix(7.86604 0 0 -7.86604 446.966 54.576)"/><use xlink:href="#h" transform="matrix(7.86604 0 0 -7.86604 449.23 54.599)"/><use xlink:href="#i" transform="matrix(7.86604 0 0 -7.86604 451.131 54.599)"/><use xlink:href="#l" transform="matrix(7.86604 0 0 -7.86604 457.15 54.649)"/><use xlink:href="#I" transform="matrix(7.86604 0 0 -7.86604 460.79 55.978)"/><use xlink:href="#p" transform="matrix(7.86604 0 0 -7.86604 464.601 54.649)"/><use xlink:href="#S" transform="matrix(7.86604 0 0 -7.86604 468.487 54.649)"/><use xlink:href="#y" transform="matrix(7.86604 0 0 -7.86604 422.036 64.15)"/><use xlink:href="#D" transform="matrix(5.6186 0 0 -5.6186 424.625 65.817)"/><symbol id="Y"><path d="M.378.015c0-.002 0-.005-.002-.007A.017.017 0 0 0 .37.004.045.045 0 0 0 .358 0a.162.162 0 0 0-.052.003A.017.017 0 0 0 .3.008a.012.012 0 0 0-.002.007v.257a.253.253 0 0 1-.006.061.125.125 0 0 1-.017.04.074.074 0 0 1-.03.025.09.09 0 0 1-.04.009.104.104 0 0 1-.061-.022.328.328 0 0 1-.063-.063V.015L.079.008A.017.017 0 0 0 .072.004.045.045 0 0 0 .06 0a.167.167 0 0 0-.052.003A.017.017 0 0 0 0 .008.015.015 0 0 0 0 .015v.652l.001.007A.014.014 0 0 0 .008.68.052.052 0 0 0 .02.682.162.162 0 0 0 .072.68.014.014 0 0 0 .08.674.012.012 0 0 0 .08.667V.404a.256.256 0 0 0 .07.054.162.162 0 0 0 .145.003.13.13 0 0 0 .048-.04A.156.156 0 0 0 .37.364a.337.337 0 0 0 .008-.08V.015z"/></symbol><use xlink:href="#W" transform="matrix(7.86604 0 0 -7.86604 429.078 64.184)"/><use xlink:href="#m" transform="matrix(7.86604 0 0 -7.86604 430.468 64.15)"/><use xlink:href="#Y" transform="matrix(7.86604 0 0 -7.86604 432.809 64.173)"/><use xlink:href="#e" transform="matrix(7.86604 0 0 -7.86604 436.934 64.223)"/><use xlink:href="#i" transform="matrix(7.86604 0 0 -7.86604 441.098 64.173)"/><use xlink:href="#l" transform="matrix(7.86604 0 0 -7.86604 447.116 64.223)"/><use xlink:href="#s" transform="matrix(7.86604 0 0 -7.86604 451.141 64.173)"/><use xlink:href="#u" transform="matrix(7.86604 0 0 -7.86604 454.962 62.475)"/><use xlink:href="#l" transform="matrix(7.86604 0 0 -7.86604 457.439 64.223)"/><use xlink:href="#s" transform="matrix(7.86604 0 0 -7.86604 461.465 64.173)"/><use xlink:href="#s" transform="matrix(7.86604 0 0 -7.86604 465.611 64.173)"/><use xlink:href="#j" transform="matrix(7.86604 0 0 -7.86604 469.516 64.223)"/><use xlink:href="#g" transform="matrix(7.86604 0 0 -7.86604 473.443 64.215)"/><use xlink:href="#l" transform="matrix(7.86604 0 0 -7.86604 476.242 64.223)"/><use xlink:href="#g" transform="matrix(7.86604 0 0 -7.86604 479.737 64.215)"/><use xlink:href="#p" transform="matrix(7.86604 0 0 -7.86604 482.549 64.223)"/><use xlink:href="#k" transform="matrix(7.86604 0 0 -7.86604 486.494 64.223)"/><use xlink:href="#h" transform="matrix(7.86604 0 0 -7.86604 432.863 73.747)"/><use xlink:href="#i" transform="matrix(7.86604 0 0 -7.86604 434.766 73.747)"/><use xlink:href="#l" transform="matrix(7.86604 0 0 -7.86604 440.778 73.797)"/><use xlink:href="#I" transform="matrix(7.86604 0 0 -7.86604 444.42 75.126)"/><use xlink:href="#p" transform="matrix(7.86604 0 0 -7.86604 448.232 73.797)"/><use xlink:href="#S" transform="matrix(7.86604 0 0 -7.86604 452.12 73.797)"/><use xlink:href="#B" transform="matrix(7.86604 0 0 -7.86604 422.086 92.198)" fill="#c00000"/><use xlink:href="#z" transform="matrix(5.6186 0 0 -5.6186 425.612 93.86)" fill="#c00000"/><use xlink:href="#W" transform="matrix(7.86604 0 0 -7.86604 431.343 92.232)"/><use xlink:href="#m" transform="matrix(7.86604 0 0 -7.86604 432.732 92.198)"/><use xlink:href="#U" transform="matrix(7.86604 0 0 -7.86604 434.689 92.22)"/><use xlink:href="#p" transform="matrix(7.86604 0 0 -7.86604 440.387 92.27)"/><use xlink:href="#X" transform="matrix(7.86604 0 0 -7.86604 444.55 92.27)"/><use xlink:href="#m" transform="matrix(7.86604 0 0 -7.86604 448.107 92.198)"/><use xlink:href="#g" transform="matrix(7.86604 0 0 -7.86604 449.987 92.263)"/><use xlink:href="#p" transform="matrix(7.86604 0 0 -7.86604 452.804 92.27)"/><use xlink:href="#n" transform="matrix(7.86604 0 0 -7.86604 456.419 92.22)"/><use xlink:href="#g" transform="matrix(7.86604 0 0 -7.86604 459.856 92.263)"/><use xlink:href="#S" transform="matrix(7.86604 0 0 -7.86604 462.707 92.27)"/><use xlink:href="#B" transform="matrix(7.86604 0 0 -7.86604 422.086 101.772)" fill="#008f00"/><use xlink:href="#z" transform="matrix(5.6186 0 0 -5.6186 425.612 103.434)" fill="#008f00"/><use xlink:href="#W" transform="matrix(7.86604 0 0 -7.86604 431.343 101.806)"/><use xlink:href="#m" transform="matrix(7.86604 0 0 -7.86604 432.732 101.772)"/><use xlink:href="#q" transform="matrix(7.86604 0 0 -7.86604 434.627 101.795)"/><use xlink:href="#h" transform="matrix(7.86604 0 0 -7.86604 437.386 101.795)"/><use xlink:href="#f" transform="matrix(7.86604 0 0 -7.86604 439.287 101.795)"/><use xlink:href="#g" transform="matrix(7.86604 0 0 -7.86604 440.65 101.837)"/><use xlink:href="#p" transform="matrix(7.86604 0 0 -7.86604 443.468 101.845)"/><use xlink:href="#o" transform="matrix(7.86604 0 0 -7.86604 447.63 101.795)"/><use xlink:href="#p" transform="matrix(7.86604 0 0 -7.86604 450.035 101.845)"/><use xlink:href="#k" transform="matrix(7.86604 0 0 -7.86604 453.979 101.845)"/><use xlink:href="#m" transform="matrix(7.86604 0 0 -7.86604 457.754 101.772)"/><use xlink:href="#U" transform="matrix(7.86604 0 0 -7.86604 459.711 101.795)"/><use xlink:href="#p" transform="matrix(7.86604 0 0 -7.86604 465.41 101.845)"/><use xlink:href="#X" transform="matrix(7.86604 0 0 -7.86604 469.572 101.845)"/><use xlink:href="#m" transform="matrix(7.86604 0 0 -7.86604 473.13 101.772)"/><use xlink:href="#g" transform="matrix(7.86604 0 0 -7.86604 475.01 101.837)"/><use xlink:href="#p" transform="matrix(7.86604 0 0 -7.86604 477.827 101.845)"/><use xlink:href="#n" transform="matrix(7.86604 0 0 -7.86604 481.442 101.795)"/><use xlink:href="#g" transform="matrix(7.86604 0 0 -7.86604 484.879 101.837)"/><use xlink:href="#S" transform="matrix(7.86604 0 0 -7.86604 487.73 101.845)"/><use xlink:href="#B" transform="matrix(7.86604 0 0 -7.86604 422.086 111.346)" fill="#c00000"/><use xlink:href="#P" transform="matrix(5.6186 0 0 -5.6186 425.581 113.014)" fill="#c00000"/><symbol id="Z"><path d="M.258.178.2.016C.198.011.193.007.185.004A.11.11 0 0 0 .148 0l-.02.001a.028.028 0 0 0-.012.004.01.01 0 0 0-.005.008c0 .003 0 .007.003.012l.06.153a.025.025 0 0 0-.008.006.025.025 0 0 0-.005.01l-.157.42A.049.049 0 0 0 0 .628c0 .004.001.007.004.01a.023.023 0 0 0 .013.004.208.208 0 0 0 .06-.002.012.012 0 0 0 .006-.006.045.045 0 0 0 .005-.01L.213.273h.002l.12.354C.339.634.34.637.344.64a.03.03 0 0 0 .012.004.147.147 0 0 0 .047 0C.408.643.412.641.415.64a.011.011 0 0 0 .004-.01.048.048 0 0 0-.003-.014L.258.178z"/></symbol><use xlink:href="#W" transform="matrix(7.86604 0 0 -7.86604 429.418 111.38)"/><use xlink:href="#m" transform="matrix(7.86604 0 0 -7.86604 430.807 111.346)"/><use xlink:href="#S" transform="matrix(7.86604 0 0 -7.86604 432.872 111.419)"/><use xlink:href="#Z" transform="matrix(7.86604 0 0 -7.86604 435.64 112.744)"/><use xlink:href="#s" transform="matrix(7.86604 0 0 -7.86604 439.684 111.37)"/><use xlink:href="#g" transform="matrix(7.86604 0 0 -7.86604 443.296 111.411)"/><use xlink:href="#Y" transform="matrix(7.86604 0 0 -7.86604 446.423 111.37)"/><use xlink:href="#p" transform="matrix(7.86604 0 0 -7.86604 450.337 111.419)"/><use xlink:href="#g" transform="matrix(7.86604 0 0 -7.86604 454 111.411)"/><use xlink:href="#h" transform="matrix(7.86604 0 0 -7.86604 457.05 111.37)"/><use xlink:href="#t" transform="matrix(7.86604 0 0 -7.86604 458.709 111.419)"/><use xlink:href="#m" transform="matrix(7.86604 0 0 -7.86604 461.666 111.346)"/><use xlink:href="#g" transform="matrix(7.86604 0 0 -7.86604 463.546 111.411)"/><use xlink:href="#p" transform="matrix(7.86604 0 0 -7.86604 466.364 111.419)"/><use xlink:href="#n" transform="matrix(7.86604 0 0 -7.86604 469.978 111.37)"/><use xlink:href="#g" transform="matrix(7.86604 0 0 -7.86604 473.416 111.411)"/><use xlink:href="#S" transform="matrix(7.86604 0 0 -7.86604 476.266 111.419)"/><use xlink:href="#B" transform="matrix(7.86604 0 0 -7.86604 422.086 120.92)" fill="#008f00"/><use xlink:href="#P" transform="matrix(5.6186 0 0 -5.6186 425.581 122.453)" fill="#008f00"/><use xlink:href="#W" transform="matrix(7.86604 0 0 -7.86604 429.418 120.955)"/><use xlink:href="#m" transform="matrix(7.86604 0 0 -7.86604 430.807 120.92)"/><use xlink:href="#q" transform="matrix(7.86604 0 0 -7.86604 432.703 120.943)"/><use xlink:href="#h" transform="matrix(7.86604 0 0 -7.86604 435.462 120.943)"/><use xlink:href="#f" transform="matrix(7.86604 0 0 -7.86604 437.363 120.943)"/><use xlink:href="#g" transform="matrix(7.86604 0 0 -7.86604 438.726 120.985)"/><use xlink:href="#p" transform="matrix(7.86604 0 0 -7.86604 441.544 120.993)"/><use xlink:href="#o" transform="matrix(7.86604 0 0 -7.86604 445.707 120.943)"/><use xlink:href="#p" transform="matrix(7.86604 0 0 -7.86604 448.11 120.993)"/><use xlink:href="#k" transform="matrix(7.86604 0 0 -7.86604 452.054 120.993)"/><use xlink:href="#m" transform="matrix(7.86604 0 0 -7.86604 455.83 120.92)"/><use xlink:href="#S" transform="matrix(7.86604 0 0 -7.86604 457.895 120.993)"/><use xlink:href="#Z" transform="matrix(7.86604 0 0 -7.86604 460.663 122.318)"/><use xlink:href="#s" transform="matrix(7.86604 0 0 -7.86604 464.706 120.943)"/><use xlink:href="#g" transform="matrix(7.86604 0 0 -7.86604 468.32 120.985)"/><use xlink:href="#Y" transform="matrix(7.86604 0 0 -7.86604 471.446 120.943)"/><use xlink:href="#p" transform="matrix(7.86604 0 0 -7.86604 475.36 120.993)"/><use xlink:href="#g" transform="matrix(7.86604 0 0 -7.86604 479.022 120.985)"/><use xlink:href="#h" transform="matrix(7.86604 0 0 -7.86604 482.072 120.943)"/><use xlink:href="#t" transform="matrix(7.86604 0 0 -7.86604 483.731 120.993)"/><use xlink:href="#g" transform="matrix(7.86604 0 0 -7.86604 432.479 130.425)"/><use xlink:href="#p" transform="matrix(7.86604 0 0 -7.86604 435.294 130.432)"/><use xlink:href="#n" transform="matrix(7.86604 0 0 -7.86604 438.906 130.382)"/><use xlink:href="#g" transform="matrix(7.86604 0 0 -7.86604 442.341 130.425)"/><use xlink:href="#S" transform="matrix(7.86604 0 0 -7.86604 445.197 130.432)"/><use xlink:href="#B" transform="matrix(7.86604 0 0 -7.86604 422.086 139.394)" fill="#008f00"/><use xlink:href="#D" transform="matrix(5.6186 0 0 -5.6186 425.996 141.062)" fill="#008f00"/><use xlink:href="#W" transform="matrix(7.86604 0 0 -7.86604 430.45 139.429)"/><use xlink:href="#m" transform="matrix(7.86604 0 0 -7.86604 431.838 139.394)"/><use xlink:href="#Y" transform="matrix(7.86604 0 0 -7.86604 434.18 139.417)"/><use xlink:href="#e" transform="matrix(7.86604 0 0 -7.86604 438.305 139.467)"/><use xlink:href="#i" transform="matrix(7.86604 0 0 -7.86604 442.469 139.417)"/><use xlink:href="#l" transform="matrix(7.86604 0 0 -7.86604 448.487 139.467)"/><use xlink:href="#s" transform="matrix(7.86604 0 0 -7.86604 452.512 139.417)"/><use xlink:href="#u" transform="matrix(7.86604 0 0 -7.86604 456.333 137.72)"/><use xlink:href="#l" transform="matrix(7.86604 0 0 -7.86604 458.81 139.467)"/><use xlink:href="#s" transform="matrix(7.86604 0 0 -7.86604 462.836 139.417)"/><use xlink:href="#s" transform="matrix(7.86604 0 0 -7.86604 466.982 139.417)"/><use xlink:href="#j" transform="matrix(7.86604 0 0 -7.86604 470.887 139.467)"/><use xlink:href="#g" transform="matrix(7.86604 0 0 -7.86604 474.814 139.46)"/><use xlink:href="#l" transform="matrix(7.86604 0 0 -7.86604 477.613 139.467)"/><use xlink:href="#g" transform="matrix(7.86604 0 0 -7.86604 481.108 139.46)"/><use xlink:href="#p" transform="matrix(7.86604 0 0 -7.86604 483.92 139.467)"/><use xlink:href="#k" transform="matrix(7.86604 0 0 -7.86604 487.865 139.467)"/><use xlink:href="#g" transform="matrix(7.86604 0 0 -7.86604 434.235 149.033)"/><use xlink:href="#p" transform="matrix(7.86604 0 0 -7.86604 437.05 149.041)"/><use xlink:href="#n" transform="matrix(7.86604 0 0 -7.86604 440.662 148.991)"/><use xlink:href="#g" transform="matrix(7.86604 0 0 -7.86604 444.097 149.033)"/><use xlink:href="#S" transform="matrix(7.86604 0 0 -7.86604 446.953 149.041)"/></g></g></svg>