<svg viewBox="0 0 1016.3333740234375 400" xmlns="http://www.w3.org/2000/svg"><g><g><g><g><g><line x1="31.59375" y1="377" x2="26.59375" y2="377" style="visibility: inherit;" fill="rgb(0, 0, 0)" stroke="rgb(204, 204, 204)" stroke-width="1px"></line><line x1="31.59375" y1="329.875" x2="26.59375" y2="329.875" style="visibility: inherit;" fill="rgb(0, 0, 0)" stroke="rgb(204, 204, 204)" stroke-width="1px"></line><line x1="31.59375" y1="282.75" x2="26.59375" y2="282.75" style="visibility: inherit;" fill="rgb(0, 0, 0)" stroke="rgb(204, 204, 204)" stroke-width="1px"></line><line x1="31.59375" y1="235.625" x2="26.59375" y2="235.625" style="visibility: inherit;" fill="rgb(0, 0, 0)" stroke="rgb(204, 204, 204)" stroke-width="1px"></line><line x1="31.59375" y1="188.5" x2="26.59375" y2="188.5" style="visibility: inherit;" fill="rgb(0, 0, 0)" stroke="rgb(204, 204, 204)" stroke-width="1px"></line><line x1="31.59375" y1="141.375" x2="26.59375" y2="141.375" style="visibility: inherit;" fill="rgb(0, 0, 0)" stroke="rgb(204, 204, 204)" stroke-width="1px"></line><line x1="31.59375" y1="94.25" x2="26.59375" y2="94.25" style="visibility: inherit;" fill="rgb(0, 0, 0)" stroke="rgb(204, 204, 204)" stroke-width="1px"></line><line x1="31.59375" y1="47.125" x2="26.59375" y2="47.125" style="visibility: inherit;" fill="rgb(0, 0, 0)" stroke="rgb(204, 204, 204)" stroke-width="1px"></line><line x1="31.59375" y1="0" x2="26.59375" y2="0" style="visibility: inherit;" fill="rgb(0, 0, 0)" stroke="rgb(204, 204, 204)" stroke-width="1px"></line></g><g transform="translate(21.59375, 0)"><text x="0" y="377" dx="0em" dy="0.3em" style="text-anchor: end; visibility: hidden; font-family: &quot;Helvetica Neue&quot;, sans-serif; font-size: 12px; font-weight: 200;" fill="rgb(50, 49, 63)" stroke="none" stroke-width="1px">-1</text><text x="0" y="329.875" dx="0em" dy="0.3em" style="text-anchor: end; visibility: inherit; font-family: &quot;Helvetica Neue&quot;, sans-serif; font-size: 12px; font-weight: 200;" fill="rgb(50, 49, 63)" stroke="none" stroke-width="1px">0</text><text x="0" y="282.75" dx="0em" dy="0.3em" style="text-anchor: end; visibility: inherit; font-family: &quot;Helvetica Neue&quot;, sans-serif; font-size: 12px; font-weight: 200;" fill="rgb(50, 49, 63)" stroke="none" stroke-width="1px">1</text><text x="0" y="235.625" dx="0em" dy="0.3em" style="text-anchor: end; visibility: inherit; font-family: &quot;Helvetica Neue&quot;, sans-serif; font-size: 12px; font-weight: 200;" fill="rgb(50, 49, 63)" stroke="none" stroke-width="1px">2</text><text x="0" y="188.5" dx="0em" dy="0.3em" style="text-anchor: end; visibility: inherit; font-family: &quot;Helvetica Neue&quot;, sans-serif; font-size: 12px; font-weight: 200;" fill="rgb(50, 49, 63)" stroke="none" stroke-width="1px">3</text><text x="0" y="141.375" dx="0em" dy="0.3em" style="text-anchor: end; visibility: inherit; font-family: &quot;Helvetica Neue&quot;, sans-serif; font-size: 12px; font-weight: 200;" fill="rgb(50, 49, 63)" stroke="none" stroke-width="1px">4</text><text x="0" y="94.25" dx="0em" dy="0.3em" style="text-anchor: end; visibility: inherit; font-family: &quot;Helvetica Neue&quot;, sans-serif; font-size: 12px; font-weight: 200;" fill="rgb(50, 49, 63)" stroke="none" stroke-width="1px">5</text><text x="0" y="47.125" dx="0em" dy="0.3em" style="text-anchor: end; visibility: inherit; font-family: &quot;Helvetica Neue&quot;, sans-serif; font-size: 12px; font-weight: 200;" fill="rgb(50, 49, 63)" stroke="none" stroke-width="1px">6</text><text x="0" y="0" dx="0em" dy="0.3em" style="text-anchor: end; visibility: hidden; font-family: &quot;Helvetica Neue&quot;, sans-serif; font-size: 12px; font-weight: 200;" fill="rgb(50, 49, 63)" stroke="none" stroke-width="1px">7</text></g><line x1="31.59375" y1="0" x2="31.59375" y2="377" fill="rgb(0, 0, 0)" stroke="rgb(204, 204, 204)" stroke-width="1px"></line></g></g><g transform="translate(31, 0)" clip-path="url(#clip_0)"><clipPath id="clip_0"><rect width="984" height="377"></rect></clipPath><g><g><g><line x1="0" y1="0" x2="0" y2="377" fill="rgb(0, 0, 0)" stroke="rgb(60, 60, 60)" stroke-width="1px" opacity="0.25"></line><line x1="123.09203125" y1="0" x2="123.09203125" y2="377" fill="rgb(0, 0, 0)" stroke="rgb(60, 60, 60)" stroke-width="1px" opacity="0.25"></line><line x1="246.1840625" y1="0" x2="246.1840625" y2="377" fill="rgb(0, 0, 0)" stroke="rgb(60, 60, 60)" stroke-width="1px" opacity="0.25"></line><line x1="369.27609375000003" y1="0" x2="369.27609375000003" y2="377" fill="rgb(0, 0, 0)" stroke="rgb(60, 60, 60)" stroke-width="1px" opacity="0.25"></line><line x1="492.368125" y1="0" x2="492.368125" y2="377" fill="rgb(0, 0, 0)" stroke="rgb(60, 60, 60)" stroke-width="1px" opacity="0.25"></line><line x1="615.4601562500001" y1="0" x2="615.4601562500001" y2="377" fill="rgb(0, 0, 0)" stroke="rgb(60, 60, 60)" stroke-width="1px" opacity="0.25"></line><line x1="738.5521875000001" y1="0" x2="738.5521875000001" y2="377" fill="rgb(0, 0, 0)" stroke="rgb(60, 60, 60)" stroke-width="1px" opacity="0.25"></line><line x1="861.64421875" y1="0" x2="861.64421875" y2="377" fill="rgb(0, 0, 0)" stroke="rgb(60, 60, 60)" stroke-width="1px" opacity="0.25"></line><line x1="984.73625" y1="0" x2="984.73625" y2="377" fill="rgb(0, 0, 0)" stroke="rgb(60, 60, 60)" stroke-width="1px" opacity="0.25"></line></g><g><line x1="0" y1="377" x2="984.73625" y2="377" fill="rgb(0, 0, 0)" stroke="rgb(60, 60, 60)" stroke-width="1px" opacity="0.25"></line><line x1="0" y1="329.875" x2="984.73625" y2="329.875" fill="rgb(0, 0, 0)" stroke="rgb(60, 60, 60)" stroke-width="1px" opacity="0.25"></line><line x1="0" y1="282.75" x2="984.73625" y2="282.75" fill="rgb(0, 0, 0)" stroke="rgb(60, 60, 60)" stroke-width="1px" opacity="0.25"></line><line x1="0" y1="235.625" x2="984.73625" y2="235.625" fill="rgb(0, 0, 0)" stroke="rgb(60, 60, 60)" stroke-width="1px" opacity="0.25"></line><line x1="0" y1="188.5" x2="984.73625" y2="188.5" fill="rgb(0, 0, 0)" stroke="rgb(60, 60, 60)" stroke-width="1px" opacity="0.25"></line><line x1="0" y1="141.375" x2="984.73625" y2="141.375" fill="rgb(0, 0, 0)" stroke="rgb(60, 60, 60)" stroke-width="1px" opacity="0.25"></line><line x1="0" y1="94.25" x2="984.73625" y2="94.25" fill="rgb(0, 0, 0)" stroke="rgb(60, 60, 60)" stroke-width="1px" opacity="0.25"></line><line x1="0" y1="47.125" x2="984.73625" y2="47.125" fill="rgb(0, 0, 0)" stroke="rgb(60, 60, 60)" stroke-width="1px" opacity="0.25"></line><line x1="0" y1="0" x2="984.73625" y2="0" fill="rgb(0, 0, 0)" stroke="rgb(60, 60, 60)" stroke-width="1px" opacity="0.25"></line></g></g></g><g><g><line x1="0" y1="329.875" x2="984.73625" y2="329.875" fill="rgb(0, 0, 0)" stroke="rgb(153, 153, 153)" stroke-width="1.5px"></line></g></g><g><g><line x1="123.09203125" y1="0" x2="123.09203125" y2="377" fill="rgb(0, 0, 0)" stroke="rgb(153, 153, 153)" stroke-width="1.5px"></line></g></g><g><g><g><g><g><path stroke="rgb(255, 112, 67)" stroke-width="2px" d="M124.26140554687501,53.41594499349594L125.73850992187502,91.50816196203232L125.92314796874999,92.84183537960052L126.60015414062501,111.45308601856232L127.52334437500001,152.48554828763008L127.70798242187502,117.08203679323196L128.938902734375,105.89894104003906L132.6932096875,123.97852897644043L132.877847734375,116.73056864738464L133.431761875,133.47023624181747L137.24761484375,137.76760339736938L137.555344921875,118.98570835590363L138.84781125,152.17735919356346L139.15554132812503,141.28143095970154L139.58636343749998,133.1615527868271L139.95563953125,157.2947700023651L142.10975007812502,123.98796677589417L142.232842109375,127.01190513372421L142.725210234375,162.52029979228973L144.5100446875,150.8291470706463L145.740965,158.1789457499981L149.06444984375003,150.94324332475662L149.125995859375,157.4563249051571L150.356916171875,142.07647567987442L150.54155421875,190.54231733083725L151.464744453125,118.18861877918243L151.6493825,169.761260420084L151.710928515625,145.39765977859497L152.326388671875,139.00444948673248L156.142241640625,178.23864018917084L157.8039840625,194.6193006336689L158.7887203125,182.97100001573563L159.21954242187502,156.01818403601646L159.28108843750002,140.49944186210632L161.312106953125,172.9054296016693L162.17375117187498,174.67598325014114L162.666119296875,184.0940082669258L162.78921132812502,156.11464059352875L162.97384937500001,172.344004124403L163.09694140625,146.41880720853806L163.83549359375002,184.95305025577545L164.45095375000002,188.71679973602295L167.097432421875,138.90550988912582L167.589800546875,197.5349290072918L168.082168671875,168.26786348223686L169.436181015625,138.28630036115646L169.682365078125,150.61813360452652L170.23627921875,149.29313397407532L170.48246328125,152.5907460451126L170.6055553125,178.74766340851784L171.46719953125,151.53125193715096L171.5902915625,175.97980400919914L171.89802164062502,194.81437095999718L172.021113671875,160.0586520433426L172.513481796875,164.30122378468513L172.88275789062502,161.93877404928207L172.94430390625,182.77771613001823L174.60604632812502,172.87466686964035L178.9758134375,172.33559998869896L179.09890546875002,188.1041966676712L181.129923984375,147.958314538002L181.31456203125,152.32257771492004L182.360844296875,162.7105276286602L182.9147584375,200.83057487010956L182.976304453125,167.55517479777336L183.34558054687503,175.7757902443409L183.4071265625,156.74656867980957L183.714856640625,180.66816571354866L184.822684921875,144.34803041815758L185.00732296875,179.06127923727036L185.561237109375,148.24612247943878L188.576991875,163.32931020855904L188.76162992187503,142.39455199241638L189.13090601562502,165.61237007379532L189.50018210937503,172.56556770205498L189.80791218750002,151.26005002856255L190.42337234375,159.4685536324978L190.79264843750002,171.5499593615532L191.100378515625,153.4840449988842L194.30077132812502,203.47798997163773L194.60850140625,185.17153531312943L194.67004742187498,181.22058033943176L195.777875703125,163.26289731264114L196.57797390625,186.29804903268814L197.378072109375,146.69414377212524L199.71682070312502,154.21615982055664L200.76310296875002,207.13200256228447L201.99402328125,134.4505539536476L202.363299375,166.30785724520683L202.794121484375,176.11333763599396L204.14813382812503,180.66061547398567L204.332771875,136.1598517894745L205.009778046875,148.60846656560898L205.19441609375002,203.17783424258232L205.37905414062502,142.22934556007385L205.44060015625,194.1507026553154L208.39480890625,182.84133139252663L208.764085,201.46233442425728L208.825631015625,179.239383995533L210.179643359375,159.06939089298248L210.918195546875,159.52242773771286L211.533655703125,181.52467972040176L213.38003617187502,163.59414160251617L214.05704234375003,157.265085875988L214.54941046875,171.8008250594139L214.9186865625,160.0709661245346L216.88815906250002,193.3402653336525L217.13434312500002,191.65186548233032L218.672993515625,162.3705309033394L219.657729765625,157.42182075977325L219.71927578125,189.8206627368927L220.64246601562502,170.86726939678192L220.888650078125,201.10159701108932L221.93493234375,175.99358993768692L224.08904289062502,145.94961374998093L224.581411015625,197.50622236728668L225.812331328125,150.78778928518295L226.673975546875,179.87745788693428L227.2278896875,188.88445550203323L227.59716578125,132.70011180639267L227.72025781250002,160.9889943599701L227.904895859375,157.3690140247345L228.33571796875,179.47672218084335L228.88963210937501,155.4966669678688L229.75127632812502,162.64597982168198L229.874368359375,155.92487341165543L230.05900640625,165.7332525551319L230.55137453125002,188.1925973892212L230.612920546875,184.3835577070713L232.397755,184.53998923301697L232.76703109375,213.42581260204315L234.24413546875002,174.17988082766533L235.536601796875,209.05142626166344L236.64443007812503,162.26028841733932L237.19834421875,199.11467057466507L237.998442421875,186.24438840150833L238.18308046875,188.43999132514L238.67544859375002,192.6680018901825L241.13728921875003,179.6382658481598L242.18357148437502,183.33590579032898L242.799031640625,188.00738057494164L242.9836696875,173.89774680137634L244.21459000000002,153.6677337884903L245.19932625,175.16502979397774L246.30715453125,181.42247059941292L246.55333859375003,205.5671480000019L247.04570671875,212.5527487397194L248.09198898437498,176.81550991535187L248.461265078125,191.0344311594963L249.938369453125,159.48297998309135L250.73846765625,158.33559074997902L250.923105703125,173.48735982179642L250.98465171875003,197.84396076202393L251.47701984375004,148.91364455223083L251.72320390625,188.86440017819405L252.15402601562505,165.97414115071297L253.07721625000002,165.63006594777107L255.16978078125,209.7856421172619L255.41596484375003,155.54303577542305L255.84678695312502,185.38309931755066L256.40070109375006,194.84163945913315L257.7547134375,207.36958792805672L258.0008975,177.51532274484634L258.49326562500005,180.07615727186203L258.98563375000003,178.18260887265205L259.23181781249997,173.14682379364967L260.46273812500004,188.34759077429771L260.770468203125,151.59592333436012L260.83201421875003,122.66710180044174L260.95510625000003,188.01248148083687L261.13974429687505,194.81368559598923L261.878296484375,184.9140968620777L262.06293453125,176.60405826568604L262.370664609375,169.5226526260376L263.54003890625,169.80080929398537L264.52477515625003,200.96063673496246L265.1402353125,201.46992960572243L265.87878750000004,162.02372547984123L267.47898390625,177.9049578011036L268.03289804687506,167.91754135489464L270.18700859374997,200.07013541460037L270.248554609375,177.47089767456055L270.371646640625,154.74260926246643L273.079671328125,182.5116263628006L273.572039453125,188.71419310569763L274.12595359375,135.04938232898712L274.249045625,146.0906077325344L274.556775703125,204.3598399758339L276.09542609375,154.7942138016224L276.15697210937503,190.9204247891903L276.772432265625,175.76117289066315L276.895524296875,207.1489344239235L277.203254375,173.13015034794807L278.06489859375,180.6759294271469L278.4341746875,168.79212200641632L278.98808882812506,173.46850669384003L279.9112790625,180.69191750884056L280.157463125,195.84152936935425L280.28055515625005,216.27505055069923L281.81920554687497,186.04186895489693L283.173217890625,193.97793474793434L283.542493984375,163.27686300873756L284.58877624999997,189.76113718748093L284.95805234375,184.5833356976509L286.55824875,194.05711114406586L287.973807109375,165.68315356969833L288.40462921875,198.00201019644737L288.712359296875,158.7676172554493L289.5124575,203.89205095171928L289.94327960937505,182.05280324816704L290.86646984375,198.67818358540535L291.789660078125,142.52149039506912L292.651304296875,157.9945603609085L294.80541484375,185.13517731428146L294.866960859375,174.57551562786102L294.928506875,184.14561280608177L299.913734140625,170.96096202731133L300.46764828125,212.64480099081993L301.021562421875,194.97286981344223L301.39083851562503,182.11648592352867L302.86794289062505,196.28324085474014L305.76060562500004,194.93329846858978L306.25297375,195.4266594350338L308.4686303125,184.1131984591484L309.4533665625,187.628823697567L309.638004609375,186.92658400535583L310.130372734375,174.9293207526207L310.31501078125,198.07633286714554L311.79211515625,207.7885251045227L312.03829921875,207.06420770287514L313.8846796875,206.44988560676575L315.30023804687505,207.87476861476898L316.22342828125,160.74740916490555L317.3312565625,189.69713991880417L317.70053265625,185.22108376026154L318.68526890625003,199.72007170319557L319.7930971875,172.3333416581154L319.854643203125,176.12776398658752L321.947207734375,177.0946890115738L322.562667890625,181.88477671146393L322.7473059375,194.0567291378975L322.80885195312504,196.63193383812904L322.931943984375,189.3948382139206L322.99349,188.07446759939194L324.532140390625,199.21658757328987L326.56315890625,195.6406727731228L327.978717265625,195.34777516126633L329.02499953125005,167.35025095939636L330.932926015625,208.3242887556553L332.5946684375,188.778639793396L332.902398515625,183.82278388738632L334.256410859375,173.20276522636414L335.42578515625,196.6457422375679L335.5488771875,174.92578157782555L336.348975390625,179.09236779808998L337.333711640625,198.91194888949394L339.11854609375,204.61830085515976L339.30318414062504,158.01015520095825L340.84183453125,180.72148928046227L342.4420309375,191.22177147865295L343.488313203125,179.1914085149765L344.71923351562504,180.87608942389488L345.827061796875,173.2426174581051L345.95015382812505,183.74016943573952L346.07324585937505,169.58978459239006L346.442521953125,195.91015565395355L348.16581039062504,190.49716195464134L349.027454609375,181.27001643180847L352.474031484375,174.45743077993393L352.720215546875,195.76311698555946L353.212583671875,204.31799906492233L353.39722171875,200.07479813694954L355.305148203125,210.22485932707787L355.79751632812497,205.5435647368431L356.59761453125,205.08607864379883L356.90534460937505,178.36061251163483L357.890080859375,187.40427148342133L358.19781093750004,180.241206407547L358.32090296875003,198.46708023548126L358.936363125,203.1071631014347L359.1825471875,169.80342715978622L360.96738164062504,197.23953711986542L361.705933828125,188.67467793822289L364.906326640625,196.94152736663818L365.33714875000004,195.6623010635376L365.58333281250003,192.35832971334457L366.260338984375,181.96363851428032L366.629615078125,178.20286643505096L366.998891171875,186.4898723065853L368.35290351562503,185.4649160504341L369.89155390625,164.27087676525116L369.95309992187504,184.66925337910652L370.691652109375,194.03824678063393L371.36865828125,172.79473769664764L371.553296328125,209.5966389477253L375.06141921875,189.07922247052193L375.36914929687504,184.96722942590714L375.4306953125,212.19237086176872L376.04615546875004,199.56288740038872L380.539014609375,178.02236852049828L381.21602078125,189.32067283988L381.277566796875,211.17287504673004L381.400658828125,170.87483087182045L381.70838890625004,215.2612735927105L381.769934921875,178.36969077587128L383.3085853125,227.68917015194893L383.616315390625,184.9588252902031L383.8009534375,181.32255351543427L384.2933215625,194.57451602816582L385.52424187500003,172.53904074430466L385.70887992187505,184.7500139772892L385.7704259375,211.91757360100746L386.693616171875,198.36364644765854L387.67835242187505,196.64846122264862L388.047628515625,197.91222751140594L388.84772671875,227.40947422385216L388.97081875000003,190.46596103906631L389.77091695312504,199.26072052121162L390.44792312500005,210.7338937819004L392.04811953125,208.9437117576599L392.602033671875,201.63157439231873L393.52522390625,201.9021808207035L393.956046015625,180.7119615972042L394.325322109375,192.90892419219017L394.571506171875,175.0251144170761L395.802426484375,196.86650809645653L395.98706453125004,206.46927803754807L398.5719971875,194.12367010116577L399.618279453125,203.6692514717579L400.66456171875,213.3163565993309L400.72610773437503,176.10875356197357L401.957028046875,196.05452027916908L402.14166609375,170.08878576755524L402.69558023437503,188.36074751615524L404.911236796875,199.879098623991L405.09587484375,171.08856332302094L405.9575190625,193.05836725234985L406.08061109375,206.97640246152878L406.203703125,203.0281552374363L407.988537578125,188.19494560360909L409.71182601562504,177.74818921089172L410.204194140625,220.12026846408844L410.450378203125,195.71087202429771L410.942746328125,206.31443071365356L411.6197525,189.4744303226471L413.21994890625007,187.67017024755478L413.52767898437503,212.27944579720497L414.51241523437506,191.1949299275875L415.497151484375,214.96636483073235L415.98951960937507,212.4091818332672L416.54343375,197.45266285538673L417.09734789062503,197.66657507419586L417.77435406250004,212.5606135725975L417.835900078125,222.09031921625137L418.205176171875,209.60618910193443L418.57445226562504,216.73960375785828L418.69754429687504,188.2454715371132L418.88218234375,184.03329175710678L421.036292890625,190.50301563739777L421.774845078125,185.8566071987152L422.944219375,184.918512403965L424.359777734375,208.2712236046791L425.59069804687505,207.95882120728493L427.067802421875,186.41325759887695L428.052538671875,190.53337389230728L428.544906796875,180.96169251203537L429.0988209375,179.40817454457283L429.283458984375,176.6427083015442L429.40655101562504,199.7592722773552L432.54539781249997,195.506869494915L432.730035859375,195.6555036008358L433.960956171875,195.7192873954773L434.084048203125,169.97380191087723L434.14559421875003,187.02028787136078L434.576416328125,221.47943517565727L435.684244609375,205.56244033575058L437.407533046875,174.52864122390747L438.638453359375,213.81115570664406L438.761545390625,219.20789167284966L439.130821484375,179.64279374480247L440.73101789062497,218.19268780946732L441.03874796875004,196.80405008792877L442.085030234375,188.7278105020523L443.192858515625,194.8596948683262L443.685226640625,182.47567284107208L445.593153125,206.87011486291885L447.25489554687505,178.31079441308975L448.67045390625003,187.34340891242027L450.455288359375,220.93320006132126L451.13229453125,179.81008997559547L452.11703078125004,188.33854621648788L452.97867500000007,201.46092998981476L454.27114132812505,190.18904027342796L456.73298195312503,199.87823349237442L458.086994296875,215.57940608263016L458.39472437500007,213.28078508377075L460.671926953125,191.23559111356735L461.34893312500003,191.24617493152618L461.71820921875,192.8799479007721L462.5798534375,202.06562328338623L462.70294546875,209.7362397313118L464.67241796875,208.8375140428543L466.14952234375,183.63014042377472L466.88807453125,165.06201153993607L467.0111665625,205.60402283072472L467.38044265625,176.69890815019608L468.11899484375,222.47470730543137L469.657645234375,221.22053611278534L471.380933671875,184.32614442706108L471.50402570312497,208.01689738035202L471.750209765625,152.77160349488258L472.6734,193.65129700303078L475.196786640625,224.75185731053352L475.38142468750004,172.44893223047256L476.48925296875,220.72591677308083L477.59708125000003,204.47218349575996L478.643363515625,189.03617936372757L478.82800156250005,216.73754766583443L479.44346171875003,188.70378905534744L480.55129,218.35898408293724L480.612836015625,190.6982994377613L481.65911828125,208.47275432944298L481.843756328125,205.80716022849083L483.93632085937503,188.05807504057884L484.059412890625,184.93302863836288L484.49023500000004,219.44338724017143L486.151977421875,227.60125255584717L486.7058915625,205.95017659664154L487.998357890625,214.71737545728683L489.475462265625,191.2115696668625L489.78319234375004,178.22034883499146L490.15246843750003,205.8533942103386L491.814210859375,202.44588795304298L493.04513117187497,181.03559947013855L493.35286125000005,190.22864532470703L494.27605148437505,208.74357423186302L494.5837815625,222.753942579031L496.12243195312504,214.2595073580742L497.23026023437507,217.10491400957108L497.47644429687506,186.31857624650002L497.78417437499996,190.61058408021927L498.768910625,220.50508350133896L498.89200265625,180.91054862737656L499.87673890625,189.606447160244L499.99983093750006,200.44886082410812L500.36910703125005,211.53589326143265L500.4921990625,205.63689783215523L501.3538432812501,203.99936097860336L501.60002734375007,208.4609795510769L503.015585703125,196.59355345368385L503.56949984375007,222.9998534321785L504.73887414062506,206.50592815876007L505.4158803125,167.17469665408134L505.53897234375006,227.80186197161674L505.90824843750005,221.20752543210983L506.70834664062505,208.98326063156128L507.81617492187496,218.73950716853142L510.21646953124997,199.88491860032082L511.63202789062507,212.23004341125488L511.87821195312506,208.8678385913372L511.93975796875,214.3760304749012L512.3705800781249,203.03546953201294L513.41686234375,187.20777425169945L514.093868515625,189.05422353744507L514.7708746875,196.95902100205421L515.201696796875,199.24529421329498L515.5709728906251,205.0762476027012L517.048077265625,228.900410592556L520.433108125,222.14644041657448L520.6792921875001,207.14142912626266L521.4793903906251,171.98990687727928L522.89494875,223.63271406292915L522.956494765625,195.1552889943123L523.2026788281249,220.0187896490097L524.4335991406251,206.95721226930618L524.49514515625,196.82882431149483L524.5566911718751,199.36477226018906L525.049059296875,187.12196892499924L526.279979609375,224.13804081082344L527.757083984375,230.95686215162277L528.18790609375,203.1325328052044L528.3725441406251,160.8417871594429L529.5419184374999,206.38637146353722L532.86540328125,203.63068008422852L533.419317421875,216.81731954216957L533.5424094531251,193.46379938721657L533.788593515625,196.37136068940163L534.157869609375,221.82128575444221L534.3425076562501,209.5446074604988L534.773329765625,184.53997799754143L535.265697890625,210.503959774971L535.4503359375,186.87635019421577L536.1888881250001,155.79966527223587L537.8506305468751,237.43169255554676L538.0968146093751,192.29890528321266L538.77382078125,209.36124449968338L539.4508269531251,212.46883097290993L543.6359560156251,196.77337723970413L544.497600234375,202.85963433980942L544.9899683593751,208.78247144818306L545.851612578125,190.7731614112854L545.9131585937499,226.65756249427795L547.513355,191.7378281056881L548.3749992187501,183.3052217066288L549.913649609375,196.76665842533112L551.6984840625,203.6648921072483L551.8831221093751,201.38724774122238L553.483318515625,231.1461237370968L554.591146796875,215.24990329146385L554.837330859375,181.04173403978348L556.37598125,214.7266222536564L556.8068033593751,206.49714201688766L557.9761776562501,186.0294986963272L559.5763740625,215.4939490556717L560.499564296875,203.43528392910957L560.991932421875,189.01346123218536L561.0534784375,214.30924680829048L562.40749078125,225.96015405654907L562.65367484375,194.5294168293476L563.5153190625001,219.5069687962532L564.7462393750001,213.18854182958603L565.9771596875,196.92139339447021L566.531073828125,211.84902596473694L567.08498796875,214.13201841711998L567.20808,187.64241862297058L567.269626015625,209.45739769935608L568.4390003125001,178.44699084758759L568.623638359375,184.14823067188263L569.1775524999999,221.43735831975937L571.454755078125,206.4288865029812L572.4394913281251,219.20381319522858L573.1164975,209.14430993795395L574.2243257812501,197.60670122504234L574.8397859375,176.36721444129944L574.901331953125,196.95604360103607L575.70143015625,203.62668025493622L576.009160234375,230.95594084262848L576.07070625,205.00867745280266L577.486264609375,197.53140106797218L577.7324486718751,200.21979194879532L578.65563890625,229.82091063261032L580.502019375,182.28341138362885L581.055933515625,203.8296940624714L581.2405715625001,199.62242418527603L581.6713936718751,198.41317242383957L582.286853828125,208.7026658654213L582.4714918750001,201.97666078805923L582.779221953125,230.69951358437538L583.394682109375,234.61572846770287L584.871786484375,216.56242030858994L585.4257006250001,198.20678797364235L586.595074921875,206.59376710653305L587.6413571875,199.95216292142868L590.657111953125,200.75272426009178L591.45721015625,202.1598664522171L591.641848203125,220.65631300210953L593.5497746875001,186.70960450172424L593.611320703125,183.51004442572594L594.6576029687501,213.7373948097229L595.273063125,203.80895337462425L595.580793203125,200.512610912323L596.2577993750001,203.02016681432724L596.62707546875,205.7162315249443L597.0578975781251,222.5986795425415L598.165725859375,193.99634969234467L598.4734559375,227.12396955490112L598.7811860156249,203.63134297728539L599.889014296875,206.99090746045113L600.56602046875,230.11747100949287L600.750658515625,213.6387810409069L601.9815788281251,187.45642656087875L602.473946953125,205.65850365161896L603.089407109375,215.8965273797512L603.8279592968751,209.09769394993782L605.24351765625,221.29361164569855L605.551247734375,196.23286098241806L609.3055546875,179.14389368891716L609.3671007031251,167.37137365341187L609.6132847656249,216.11822578310966L611.336573203125,188.25116792321205L613.9830518750001,185.31159675121307L614.47542,228.12620767951012L614.9677881250001,180.52621671557426L615.029334140625,215.09964004158974L617.121898671875,206.72466039657593L617.79890484375,192.29031014442444L618.53745703125,178.98482182621956L618.7220950781251,206.16243720054626L619.583739296875,206.86581167578697L623.276500234375,190.82388958334923L624.753604609375,229.5272939503193L626.599985078125,219.59007760882378L626.8461691406251,208.98721551895142L627.707813359375,198.5356054008007L628.754095625,220.20226496458054L629.12337171875,217.21778559684753L631.708304375,208.11597180366516L632.693040625,214.8537516593933L633.370046796875,208.09932082891464L633.9239609375,220.522577136755L634.4163290625,222.39119401574135L635.647249375,213.6345565021038L635.77034140625,200.53838509321213L635.954979453125,223.31979483366013L636.0780714843751,176.66183108091354L636.447347578125,203.95741894841194L637.185899765625,213.30859288573265L637.6782678906251,194.61846920847893L637.8629059375,196.5008832514286L638.1706360156251,220.57048520445824L638.601458125,209.14251226186752L638.7245501562501,178.01763838529587L641.8633969531251,217.6742043197155L642.540403125,203.24159556627274L643.03277125,223.38083717226982L644.2636915625001,220.23373553156853L644.325237578125,217.9744948744774L644.448329609375,211.78611853718758L645.309973828125,209.90818744897842L645.5561578906251,228.53242629766464L646.11007203125,231.22064864635468L646.1716180468751,219.03351709246635L646.479348125,194.78314757347107L646.7255321875,206.6176986694336L646.787078203125,196.1481904387474L647.7102684375,195.21506172418594L649.618194921875,218.74263063073158L650.3567471093751,199.3386273086071L650.78756921875,211.5965311229229L651.095299296875,254.2106000483036L651.956943515625,202.7686831653118L652.5108576562501,215.42962595820427L653.434047890625,212.21568447351456L654.1110540625,221.6312938630581L654.5418761718751,187.72516790032387L654.6034221875,222.57063579559326L655.157336328125,193.93736344575882L657.496084921875,212.44768580794334L657.9884530468751,216.65753984451294L658.0499990625001,217.25318858027458L658.296183125,226.6262716948986L660.265655625,210.86210179328918L663.158318359375,223.2648983001709L663.404502421875,213.90648871660233L664.512330703125,214.16079246997833L664.82006078125,228.4432278573513L665.9278890625001,216.33512663841248L666.112527109375,214.76974400877953L667.4049934375,212.3020291030407L668.0819996093751,223.08506327867508L669.559103984375,225.48510691523552L669.98992609375,194.90869277715683L671.0362083593751,215.2891375720501L671.1593003906249,221.72214391827583L671.3439384375,204.1667246222496L672.636404765625,209.91429954767227L672.7594967968749,228.91465717554092L673.0672268750001,188.16083469986916L673.744233046875,202.74787506461143L674.482785234375,221.58261054754257L675.5290675000001,200.90759405493736L676.63689578125,183.77064004540443L677.0061718750001,200.534991979599L677.3139019531251,203.79807743430138L677.62163203125,198.15321722626686L678.7294603125,229.49818283319473L678.791006328125,215.2273424565792L680.45274875,204.3315041065216L680.945116875,224.79119271039963L681.56057703125,180.67451375722885L682.237583203125,206.08796846866608L683.53004953125,226.560780107975L684.6378778125,223.80905485153198L686.6073503125001,225.59181022644043L686.668896328125,235.66844196617603L687.0381724218751,187.01337805390358L690.2385652343751,209.1266702413559L690.361657265625,204.54798924922943L690.977117421875,213.42256554961205L691.40793953125,191.6481128334999L693.0696819531249,195.70319819450378L694.36214828125,220.76158940792084L694.9776084375001,192.47831335663795L695.9623446875,217.06055635213852L696.0854367187501,233.04928970336914L696.516258828125,224.684287160635L698.4857313281251,229.60997581481934L698.79346140625,229.586943089962L699.4704675781251,218.9039158821106L699.77819765625,194.7708784341812L702.4246763281251,220.40694162249565L702.609314375,191.62093421816826L703.8402346875,237.80781695246696L704.2095107812501,224.38255846500397L704.271056796875,216.92643848061562L705.871253203125,168.40359926223755L706.3020753125,213.63501715660095L710.1179282812501,196.67957225441933L710.179474296875,176.78307309746742L710.7333884375,230.71796223521233L711.164210546875,221.80061247944832L711.3488485937501,220.07283228635788L711.779670703125,214.52228266000748L711.96430875,220.24931913614273L713.31832109375,231.50619825720787L713.9953272656251,207.963461458683L714.6723334375,214.71312844753265L715.28779359375,187.8553758263588L715.4108856250001,184.49538439512253L715.472431640625,223.50861823558807L715.6570696875,245.50833661854267L717.1341740624999,207.5730511546135L717.50345015625,204.91968125104904L717.7496342187501,203.35569182038307L718.919008515625,223.18555337190628L719.5344686718751,217.13436219096184L720.026836796875,207.17410188913345L720.765388984375,237.61663410067558L723.227229609375,210.58115872740746L723.7811437500001,196.1010463833809L723.842689765625,225.6146856546402L724.3350578906251,208.99404668807983L724.8889720312501,209.6110765337944L727.0430825781251,244.16370299458504L728.7663710156249,191.04846426844597L728.9510090625,208.80865010619164L731.4128496875,194.7900686264038L732.8899540625,242.9628385156393L733.5054142187499,200.26728430390358L736.890445078125,186.88608011603355L737.69054328125,194.35606467723846L738.367549453125,196.4478405714035L739.4753777343751,202.34880220890045L741.691034296875,214.04592096805573L741.998764375,180.35794299840927L742.0603103906251,209.81923618912697L742.183402421875,227.76358270645142L743.0450466406251,218.78587597608566L743.783598828125,210.39634639024734L744.3990589843751,195.29649645090103L745.1991571875001,234.26212558150291L745.506887265625,202.61715030670166L745.5684332812501,192.5182217657566L746.491623515625,234.04765158891678L746.860899609375,239.22977873682976L747.476359765625,192.46903285384178L748.9534641406251,201.2353441119194L749.99974640625,223.38532012701035L751.35375875,191.35499051213264L753.261685234375,208.95012721419334L753.6925073437501,228.6275345981121L753.8771453906251,205.80635127425194L754.369513515625,175.3219669163227L755.354249765625,221.28300535678864L755.600433828125,206.67928031086922L755.90816390625,222.6974618434906L756.0312559375001,200.06178745627403L756.15434796875,234.27302399277687L756.338986015625,224.33314484357834L758.4930965625,200.27534013986588L758.923918671875,228.4591148197651L759.908654921875,219.4921154975891L761.1395752343751,175.17437770962715L762.8628636718751,208.00369569659233L762.985955703125,221.7164025902748L763.04750171875,194.34411013126373L763.1705937500001,235.62058445811272L763.53986984375,215.52459943294525L764.093783984375,194.7443290054798L764.463060078125,231.38468658924103L764.7707901562501,204.7025781571865L766.5556246093751,213.95019471645355L767.417268828125,233.97829499840736L768.094275,244.62940222024918L768.7097351562501,210.02350836992264L768.9559192187501,216.45357102155685L769.017465234375,196.38379836082458L770.740753671875,212.89949798583984L771.2946678125,192.2854901254177L771.7870359375,197.69967478513718L772.710226171875,213.46942871809006L772.7717721875,251.7000498920679L773.510324375,241.49942906200886L775.418250859375,197.90466603636742L775.972165,211.5607798397541L776.772263203125,202.4306189417839L776.9569012500001,206.06048649549484L777.018447265625,203.41261073946953L777.32617734375,224.7702048420906L777.880091484375,242.36436967551708L778.372459609375,220.01951995491982L778.80328171875,242.45812410116196L778.864827734375,217.09299317002296L779.9111100000001,186.53205028176308L781.75749046875,233.88546749949455L782.372950625,208.79740339517593L784.6501532031251,230.43874943256378L785.20406734375,211.805679500103L785.265613359375,236.0233369320631L785.6348894531251,213.14227414131165L786.619625703125,227.14722698926926L787.0504478125,239.87462761998177L788.7737362500001,190.07174190878868L788.8352822656251,208.4176218509674L789.3891964062501,207.47921246290207L789.696926484375,199.50388991832733L790.3739326562501,213.79943710565567L790.9278467968751,222.81077161431313L791.789491015625,222.77257099747658L792.4664971875,231.26434341073036L794.1282396093751,200.9219529926777L794.3128776562501,231.75925487279892L794.866791796875,207.22911077737808L796.4054421875001,228.96809309720993L796.65162625,216.9514711201191L797.205540390625,224.2417105436325L798.0671846093751,238.04499784111977L798.4364607031251,215.4141322374344L798.559552734375,184.48356467485428L800.6521172656251,213.17626145482063L801.0213933593751,196.17730155587196L801.390669453125,210.72329872846603L801.513761484375,223.59586170315742L801.5753075,199.88632303476334L802.19076765625,248.60553589463234L802.4984977343751,214.73819479346275L803.3601419531251,190.7194783091545L803.91405609375,208.9754856824875L804.89879234375,222.48245978355408L806.437442734375,219.13336676359177L807.60681703125,228.4301609992981L808.160731171875,217.43984353542328L809.268559453125,211.5526902973652L810.376387734375,196.11840519309044L810.930301875,230.2814977169037L812.345860234375,197.51768255233765L812.468952265625,220.4699838757515L812.5304982812501,194.44767874479294L815.669345078125,204.90569308400154L816.161713203125,230.59563037753105L816.34635125,209.8825256228447L816.900265390625,234.70902785658836L817.94654765625,230.91531336307526L819.239013984375,216.28708374500275L820.16220421875,233.1097365617752L821.14694046875,236.84152673184872L822.3778607812501,201.9592233300209L822.808682890625,219.0204389989376L823.239505,208.95814934372902L823.547235078125,200.38999816775322L825.4551615625,239.44592681527138L825.9475296875,204.78920367360115L826.0706217187501,203.3888814151287L828.16318625,234.15177074074745L828.347824296875,210.23672398924828L829.2094685156251,223.706385076046L829.3941065625,180.4345464706421L830.071112734375,198.00374045968056L830.440388828125,209.22482335567474L832.1636772656251,215.11274060606956L832.3483153125,208.41905999183655L832.4098613281251,231.60432890057564L832.779137421875,203.37269109487534L832.902229453125,239.48586893081665L833.9485117187501,226.18305465579033L834.44087984375,208.427576482296L834.9947939843751,205.334416359663L835.9179842187501,207.9986509680748L836.9027204687501,203.67685788869858L839.3030150781251,218.22503474354744L840.041567265625,215.33775347471237L840.164659296875,201.10538336634636L840.780119453125,202.56281554698944L841.4571256250001,218.3286482989788L841.8879477343751,202.22790849208832L842.31876984375,247.95259746909142L842.4418618750001,224.55370846390724L843.4881441406251,217.76925644278526L844.6575184375,225.15242448449135L846.8731750000001,197.71361801028252L847.48863515625,207.8181755244732L848.5349174218751,216.560341745615L848.904193515625,243.00073577463627L849.45810765625,222.88994801044464L851.304488125,237.9015208184719L852.7200464843751,191.9754584133625L852.7815925,244.08080765604973L853.8894207812501,229.68232104182243L855.61270921875,206.5148041844368L855.9204392968751,222.8457925915718L856.7205375,210.54368841648102L856.782083515625,202.6057462990284L857.58218171875,248.838273152709L858.07454984375,218.78517937660217L858.382279921875,195.87851655483246L858.5053719531251,174.81188756227493L858.56691796875,217.24439120292664L859.79783828125,206.037172883749L860.1055683593751,201.22936683893204L860.9672125781251,201.35369861125946L861.582672734375,236.207666143775L861.8904028125,223.70571094751358L862.321224921875,221.6828871667385L863.24441515625,215.2426451742649L863.49059921875,224.73797026276588L864.22915140625,218.9980804026127L866.383261953125,199.41632062196732L866.93717609375,215.47077026963234L867.244906171875,242.51566097140312L869.8913848437501,219.6608948111534L870.199114921875,235.58421522378922L871.12230515625,215.63476327061653L871.799311328125,226.14207887649536L872.0454953906251,210.0516420006752L873.0302316406251,196.9600546658039L873.8303298437501,216.13904511928558L875.06125015625,199.31816750764847L875.615164296875,247.4787637591362L876.107532421875,224.92725431919098L877.3384527343751,223.1879352927208L878.3231889843751,226.12845024466515L879.554109296875,220.6679978966713L879.7387473437501,214.81010183691978L880.7234835937501,208.61504039168358L881.5851278125,217.06749987602234L881.70821984375,246.1071425229311L882.385226015625,236.68834787607193L886.0779869531251,210.12495347857475L886.6319010937501,201.8257234096527L886.693447109375,194.05024626851082L888.539827578125,194.3366834819317L889.709201875,197.8066028058529L889.893839921875,231.39411315321922L891.247852265625,202.09040874242783L893.9558769531251,237.19396674633026L895.24834328125,215.4438163638115L895.617619375,189.91310822963715L895.74071140625,223.62514135241508L897.033177734375,206.02163422107697L898.3871900781251,189.4391284584999L900.17202453125,243.24822521209717L902.14149703125,207.28360283374786L903.0031412500001,236.8288362622261L903.9878775000001,256.3465482145548L904.7264296875,223.16571152210236L908.357644609375,226.20322233438492L909.3423808593751,202.89695858955383L911.25030734375,225.771016061306L911.74267546875,201.02833047509193L913.0351417968751,230.26537480950356L914.5737921875,200.6243477165699L914.881522265625,234.78547403216362L915.68162046875,217.52459272742271L916.481718671875,198.3950833082199L916.850994765625,225.27355414628983L919.435927421875,217.2522672712803L919.4974734375,235.5114767551422L919.8052035156251,217.2390094101429L920.11293359375,261.16276401281357L920.7283937500001,230.98159143328667L922.57477421875,222.25816598534584L923.374872421875,200.7645889222622L924.2980626562501,215.6107755303383L925.3443449218751,201.0601830482483L927.00608734375,222.06974706053734L927.0676333593751,204.2437662780285L927.560001484375,226.40607884526253L928.2985536718751,235.7964477390051L928.48319171875,193.83431166410446L929.0371058593751,210.10299935936928L929.96029609375,233.82190841436386L930.2064801562501,219.0197648704052L930.3295721875,208.94307133555412L931.2527624218751,215.82190135121346L932.360590703125,225.18045699596405L933.468418984375,222.04426500201225L934.3916092187501,212.0576013326645L935.007069375,241.71505469083786L935.1917074218751,224.4972389638424L935.9302596093751,225.41223362088203L935.9918056250001,227.0203672349453L936.2379896875,198.08686050772667L937.961278125,218.06987282633781L939.56147453125,235.04064291715622L941.592493046875,185.67324423789978L941.900223125,190.7070518732071L942.5156832812501,256.74232345819473L944.73133984375,181.96095323562622L945.039069921875,205.19781544804573L947.993278671875,217.73035922646523L948.239462734375,232.37663301825523L949.470383046875,237.0400519669056L952.424591796875,180.90039175748825L952.4861378125001,216.9189893603325L954.08633421875,208.0819957256317L954.2709722656251,205.33069741725922L956.8559049218751,211.6609328687191L957.8406411718751,241.6286932080984L959.9947517187501,223.52467373013496L960.0562977343751,184.87395250797272" style="fill: none;" fill="none"></path></g></g></g></g></g></g><g transform="translate(31, 377)" clip-path="url(#clip_1)"><clipPath id="clip_1"><rect width="984" height="23"></rect></clipPath><g><g><line x1="0" y1="0" x2="0" y2="5" style="visibility: inherit;" fill="rgb(0, 0, 0)" stroke="rgb(204, 204, 204)" stroke-width="1px"></line><line x1="123.09203125" y1="0" x2="123.09203125" y2="5" style="visibility: inherit;" fill="rgb(0, 0, 0)" stroke="rgb(204, 204, 204)" stroke-width="1px"></line><line x1="246.1840625" y1="0" x2="246.1840625" y2="5" style="visibility: inherit;" fill="rgb(0, 0, 0)" stroke="rgb(204, 204, 204)" stroke-width="1px"></line><line x1="369.27609375000003" y1="0" x2="369.27609375000003" y2="5" style="visibility: inherit;" fill="rgb(0, 0, 0)" stroke="rgb(204, 204, 204)" stroke-width="1px"></line><line x1="492.368125" y1="0" x2="492.368125" y2="5" style="visibility: inherit;" fill="rgb(0, 0, 0)" stroke="rgb(204, 204, 204)" stroke-width="1px"></line><line x1="615.4601562500001" y1="0" x2="615.4601562500001" y2="5" style="visibility: inherit;" fill="rgb(0, 0, 0)" stroke="rgb(204, 204, 204)" stroke-width="1px"></line><line x1="738.5521875000001" y1="0" x2="738.5521875000001" y2="5" style="visibility: inherit;" fill="rgb(0, 0, 0)" stroke="rgb(204, 204, 204)" stroke-width="1px"></line><line x1="861.64421875" y1="0" x2="861.64421875" y2="5" style="visibility: inherit;" fill="rgb(0, 0, 0)" stroke="rgb(204, 204, 204)" stroke-width="1px"></line><line x1="984.73625" y1="0" x2="984.73625" y2="5" style="visibility: inherit;" fill="rgb(0, 0, 0)" stroke="rgb(204, 204, 204)" stroke-width="1px"></line></g><g transform="translate(0, 8)"><text x="0" y="0" dx="0em" dy="0.95em" style="text-anchor: middle; visibility: hidden; font-family: &quot;Helvetica Neue&quot;, sans-serif; font-size: 12px; font-weight: 200;" fill="rgb(50, 49, 63)" stroke="none" stroke-width="1px">-20k</text><text x="123.09203125" y="0" dx="0em" dy="0.95em" style="text-anchor: middle; visibility: inherit; font-family: &quot;Helvetica Neue&quot;, sans-serif; font-size: 12px; font-weight: 200;" fill="rgb(50, 49, 63)" stroke="none" stroke-width="1px">0</text><text x="246.1840625" y="0" dx="0em" dy="0.95em" style="text-anchor: middle; visibility: inherit; font-family: &quot;Helvetica Neue&quot;, sans-serif; font-size: 12px; font-weight: 200;" fill="rgb(50, 49, 63)" stroke="none" stroke-width="1px">20k</text><text x="369.27609375000003" y="0" dx="0em" dy="0.95em" style="text-anchor: middle; visibility: inherit; font-family: &quot;Helvetica Neue&quot;, sans-serif; font-size: 12px; font-weight: 200;" fill="rgb(50, 49, 63)" stroke="none" stroke-width="1px">40k</text><text x="492.368125" y="0" dx="0em" dy="0.95em" style="text-anchor: middle; visibility: inherit; font-family: &quot;Helvetica Neue&quot;, sans-serif; font-size: 12px; font-weight: 200;" fill="rgb(50, 49, 63)" stroke="none" stroke-width="1px">60k</text><text x="615.4601562500001" y="0" dx="0em" dy="0.95em" style="text-anchor: middle; visibility: inherit; font-family: &quot;Helvetica Neue&quot;, sans-serif; font-size: 12px; font-weight: 200;" fill="rgb(50, 49, 63)" stroke="none" stroke-width="1px">80k</text><text x="738.5521875000001" y="0" dx="0em" dy="0.95em" style="text-anchor: middle; visibility: inherit; font-family: &quot;Helvetica Neue&quot;, sans-serif; font-size: 12px; font-weight: 200;" fill="rgb(50, 49, 63)" stroke="none" stroke-width="1px">100k</text><text x="861.64421875" y="0" dx="0em" dy="0.95em" style="text-anchor: middle; visibility: inherit; font-family: &quot;Helvetica Neue&quot;, sans-serif; font-size: 12px; font-weight: 200;" fill="rgb(50, 49, 63)" stroke="none" stroke-width="1px">120k</text><text x="984.73625" y="0" dx="0em" dy="0.95em" style="text-anchor: middle; visibility: hidden; font-family: &quot;Helvetica Neue&quot;, sans-serif; font-size: 12px; font-weight: 200;" fill="rgb(50, 49, 63)" stroke="none" stroke-width="1px">140k</text></g><line x1="0" y1="0" x2="984.73625" y2="0" fill="rgb(0, 0, 0)" stroke="rgb(204, 204, 204)" stroke-width="1px"></line></g></g></g></g></svg>