<svg viewBox="0 0 330 200" xmlns="http://www.w3.org/2000/svg"><g><g><g><g><g><line x1="63.984375" y1="176" x2="58.984375" y2="176" style="visibility: inherit;" fill="rgb(0, 0, 0)" stroke="rgb(204, 204, 204)" stroke-width="1px"></line><line x1="63.984375" y1="161.33333333333334" x2="58.984375" y2="161.33333333333334" style="visibility: inherit;" fill="rgb(0, 0, 0)" stroke="rgb(204, 204, 204)" stroke-width="1px"></line><line x1="63.984375" y1="146.66666666666666" x2="58.984375" y2="146.66666666666666" style="visibility: inherit;" fill="rgb(0, 0, 0)" stroke="rgb(204, 204, 204)" stroke-width="1px"></line><line x1="63.984375" y1="132" x2="58.984375" y2="132" style="visibility: inherit;" fill="rgb(0, 0, 0)" stroke="rgb(204, 204, 204)" stroke-width="1px"></line><line x1="63.984375" y1="117.33333333333334" x2="58.984375" y2="117.33333333333334" style="visibility: inherit;" fill="rgb(0, 0, 0)" stroke="rgb(204, 204, 204)" stroke-width="1px"></line><line x1="63.984375" y1="102.66666666666667" x2="58.984375" y2="102.66666666666667" style="visibility: inherit;" fill="rgb(0, 0, 0)" stroke="rgb(204, 204, 204)" stroke-width="1px"></line><line x1="63.984375" y1="88" x2="58.984375" y2="88" style="visibility: inherit;" fill="rgb(0, 0, 0)" stroke="rgb(204, 204, 204)" stroke-width="1px"></line><line x1="63.984375" y1="73.33333333333334" x2="58.984375" y2="73.33333333333334" style="visibility: inherit;" fill="rgb(0, 0, 0)" stroke="rgb(204, 204, 204)" stroke-width="1px"></line><line x1="63.984375" y1="58.66666666666667" x2="58.984375" y2="58.66666666666667" style="visibility: inherit;" fill="rgb(0, 0, 0)" stroke="rgb(204, 204, 204)" stroke-width="1px"></line><line x1="63.984375" y1="44" x2="58.984375" y2="44" style="visibility: inherit;" fill="rgb(0, 0, 0)" stroke="rgb(204, 204, 204)" stroke-width="1px"></line><line x1="63.984375" y1="29.333333333333364" x2="58.984375" y2="29.333333333333364" style="visibility: inherit;" fill="rgb(0, 0, 0)" stroke="rgb(204, 204, 204)" stroke-width="1px"></line><line x1="63.984375" y1="14.666666666666673" x2="58.984375" y2="14.666666666666673" style="visibility: inherit;" fill="rgb(0, 0, 0)" stroke="rgb(204, 204, 204)" stroke-width="1px"></line><line x1="63.984375" y1="0" x2="58.984375" y2="0" style="visibility: inherit;" fill="rgb(0, 0, 0)" stroke="rgb(204, 204, 204)" stroke-width="1px"></line></g><g transform="translate(53.984375, 0)"><text x="0" y="176" dx="0em" dy="0.3em" style="text-anchor: end; visibility: hidden; font-family: Roboto, sans-serif; font-size: 12px; font-weight: 200;" fill="rgb(33, 33, 33)" stroke="none" stroke-width="1px">0.025</text><text x="0" y="161.33333333333334" dx="0em" dy="0.3em" style="text-anchor: end; visibility: inherit; font-family: Roboto, sans-serif; font-size: 12px; font-weight: 200;" fill="rgb(33, 33, 33)" stroke="none" stroke-width="1px">0.03</text><text x="0" y="146.66666666666666" dx="0em" dy="0.3em" style="text-anchor: end; visibility: hidden; font-family: Roboto, sans-serif; font-size: 12px; font-weight: 200;" fill="rgb(33, 33, 33)" stroke="none" stroke-width="1px">0.035</text><text x="0" y="132" dx="0em" dy="0.3em" style="text-anchor: end; visibility: inherit; font-family: Roboto, sans-serif; font-size: 12px; font-weight: 200;" fill="rgb(33, 33, 33)" stroke="none" stroke-width="1px">0.04</text><text x="0" y="117.33333333333334" dx="0em" dy="0.3em" style="text-anchor: end; visibility: hidden; font-family: Roboto, sans-serif; font-size: 12px; font-weight: 200;" fill="rgb(33, 33, 33)" stroke="none" stroke-width="1px">0.045</text><text x="0" y="102.66666666666667" dx="0em" dy="0.3em" style="text-anchor: end; visibility: inherit; font-family: Roboto, sans-serif; font-size: 12px; font-weight: 200;" fill="rgb(33, 33, 33)" stroke="none" stroke-width="1px">0.05</text><text x="0" y="88" dx="0em" dy="0.3em" style="text-anchor: end; visibility: hidden; font-family: Roboto, sans-serif; font-size: 12px; font-weight: 200;" fill="rgb(33, 33, 33)" stroke="none" stroke-width="1px">0.055</text><text x="0" y="73.33333333333334" dx="0em" dy="0.3em" style="text-anchor: end; visibility: inherit; font-family: Roboto, sans-serif; font-size: 12px; font-weight: 200;" fill="rgb(33, 33, 33)" stroke="none" stroke-width="1px">0.06</text><text x="0" y="58.66666666666667" dx="0em" dy="0.3em" style="text-anchor: end; visibility: hidden; font-family: Roboto, sans-serif; font-size: 12px; font-weight: 200;" fill="rgb(33, 33, 33)" stroke="none" stroke-width="1px">0.065</text><text x="0" y="44" dx="0em" dy="0.3em" style="text-anchor: end; visibility: inherit; font-family: Roboto, sans-serif; font-size: 12px; font-weight: 200;" fill="rgb(33, 33, 33)" stroke="none" stroke-width="1px">0.07</text><text x="0" y="29.333333333333364" dx="0em" dy="0.3em" style="text-anchor: end; visibility: hidden; font-family: Roboto, sans-serif; font-size: 12px; font-weight: 200;" fill="rgb(33, 33, 33)" stroke="none" stroke-width="1px">0.075</text><text x="0" y="14.666666666666673" dx="0em" dy="0.3em" style="text-anchor: end; visibility: inherit; font-family: Roboto, sans-serif; font-size: 12px; font-weight: 200;" fill="rgb(33, 33, 33)" stroke="none" stroke-width="1px">0.08</text><text x="0" y="0" dx="0em" dy="0.3em" style="text-anchor: end; visibility: hidden; font-family: Roboto, sans-serif; font-size: 12px; font-weight: 200;" fill="rgb(33, 33, 33)" stroke="none" stroke-width="1px">0.085</text></g><line x1="63.984375" y1="0" x2="63.984375" y2="176" fill="rgb(0, 0, 0)" stroke="rgb(204, 204, 204)" stroke-width="1px"></line></g></g><g transform="translate(63, 0)" clip-path="url(#clip_0)"><clipPath id="clip_0"><rect width="266" height="176"></rect></clipPath><g><g><g><line x1="0" y1="0" x2="0" y2="176" fill="rgb(0, 0, 0)" stroke="rgb(66, 66, 66)" stroke-width="1px" opacity="0.25"></line><line x1="19.00111607142857" y1="0" x2="19.00111607142857" y2="176" fill="rgb(0, 0, 0)" stroke="rgb(66, 66, 66)" stroke-width="1px" opacity="0.25"></line><line x1="38.00223214285714" y1="0" x2="38.00223214285714" y2="176" fill="rgb(0, 0, 0)" stroke="rgb(66, 66, 66)" stroke-width="1px" opacity="0.25"></line><line x1="57.00334821428571" y1="0" x2="57.00334821428571" y2="176" fill="rgb(0, 0, 0)" stroke="rgb(66, 66, 66)" stroke-width="1px" opacity="0.25"></line><line x1="76.00446428571428" y1="0" x2="76.00446428571428" y2="176" fill="rgb(0, 0, 0)" stroke="rgb(66, 66, 66)" stroke-width="1px" opacity="0.25"></line><line x1="95.00558035714286" y1="0" x2="95.00558035714286" y2="176" fill="rgb(0, 0, 0)" stroke="rgb(66, 66, 66)" stroke-width="1px" opacity="0.25"></line><line x1="114.00669642857142" y1="0" x2="114.00669642857142" y2="176" fill="rgb(0, 0, 0)" stroke="rgb(66, 66, 66)" stroke-width="1px" opacity="0.25"></line><line x1="133.0078125" y1="0" x2="133.0078125" y2="176" fill="rgb(0, 0, 0)" stroke="rgb(66, 66, 66)" stroke-width="1px" opacity="0.25"></line><line x1="152.00892857142856" y1="0" x2="152.00892857142856" y2="176" fill="rgb(0, 0, 0)" stroke="rgb(66, 66, 66)" stroke-width="1px" opacity="0.25"></line><line x1="171.01004464285717" y1="0" x2="171.01004464285717" y2="176" fill="rgb(0, 0, 0)" stroke="rgb(66, 66, 66)" stroke-width="1px" opacity="0.25"></line><line x1="190.01116071428572" y1="0" x2="190.01116071428572" y2="176" fill="rgb(0, 0, 0)" stroke="rgb(66, 66, 66)" stroke-width="1px" opacity="0.25"></line><line x1="209.01227678571428" y1="0" x2="209.01227678571428" y2="176" fill="rgb(0, 0, 0)" stroke="rgb(66, 66, 66)" stroke-width="1px" opacity="0.25"></line><line x1="228.01339285714283" y1="0" x2="228.01339285714283" y2="176" fill="rgb(0, 0, 0)" stroke="rgb(66, 66, 66)" stroke-width="1px" opacity="0.25"></line><line x1="247.01450892857144" y1="0" x2="247.01450892857144" y2="176" fill="rgb(0, 0, 0)" stroke="rgb(66, 66, 66)" stroke-width="1px" opacity="0.25"></line><line x1="266.015625" y1="0" x2="266.015625" y2="176" fill="rgb(0, 0, 0)" stroke="rgb(66, 66, 66)" stroke-width="1px" opacity="0.25"></line></g><g><line x1="0" y1="176" x2="266.015625" y2="176" fill="rgb(0, 0, 0)" stroke="rgb(66, 66, 66)" stroke-width="1px" opacity="0.25"></line><line x1="0" y1="161.33333333333334" x2="266.015625" y2="161.33333333333334" fill="rgb(0, 0, 0)" stroke="rgb(66, 66, 66)" stroke-width="1px" opacity="0.25"></line><line x1="0" y1="146.66666666666666" x2="266.015625" y2="146.66666666666666" fill="rgb(0, 0, 0)" stroke="rgb(66, 66, 66)" stroke-width="1px" opacity="0.25"></line><line x1="0" y1="132" x2="266.015625" y2="132" fill="rgb(0, 0, 0)" stroke="rgb(66, 66, 66)" stroke-width="1px" opacity="0.25"></line><line x1="0" y1="117.33333333333334" x2="266.015625" y2="117.33333333333334" fill="rgb(0, 0, 0)" stroke="rgb(66, 66, 66)" stroke-width="1px" opacity="0.25"></line><line x1="0" y1="102.66666666666667" x2="266.015625" y2="102.66666666666667" fill="rgb(0, 0, 0)" stroke="rgb(66, 66, 66)" stroke-width="1px" opacity="0.25"></line><line x1="0" y1="88" x2="266.015625" y2="88" fill="rgb(0, 0, 0)" stroke="rgb(66, 66, 66)" stroke-width="1px" opacity="0.25"></line><line x1="0" y1="73.33333333333334" x2="266.015625" y2="73.33333333333334" fill="rgb(0, 0, 0)" stroke="rgb(66, 66, 66)" stroke-width="1px" opacity="0.25"></line><line x1="0" y1="58.66666666666667" x2="266.015625" y2="58.66666666666667" fill="rgb(0, 0, 0)" stroke="rgb(66, 66, 66)" stroke-width="1px" opacity="0.25"></line><line x1="0" y1="44" x2="266.015625" y2="44" fill="rgb(0, 0, 0)" stroke="rgb(66, 66, 66)" stroke-width="1px" opacity="0.25"></line><line x1="0" y1="29.333333333333364" x2="266.015625" y2="29.333333333333364" fill="rgb(0, 0, 0)" stroke="rgb(66, 66, 66)" stroke-width="1px" opacity="0.25"></line><line x1="0" y1="14.666666666666673" x2="266.015625" y2="14.666666666666673" fill="rgb(0, 0, 0)" stroke="rgb(66, 66, 66)" stroke-width="1px" opacity="0.25"></line><line x1="0" y1="0" x2="266.015625" y2="0" fill="rgb(0, 0, 0)" stroke="rgb(66, 66, 66)" stroke-width="1px" opacity="0.25"></line></g></g></g><g><g><line x1="0" y1="249.33333333333331" x2="266.015625" y2="249.33333333333331" fill="rgb(0, 0, 0)" stroke="rgb(153, 153, 153)" stroke-width="1.5px"></line></g></g><g><g><line x1="19.00111607142857" y1="0" x2="19.00111607142857" y2="176" fill="rgb(0, 0, 0)" stroke="rgb(153, 153, 153)" stroke-width="1.5px"></line></g></g><g><g><g><g><g><path stroke="rgb(255, 112, 67)" stroke-width="2px" d="M19.191127232142858,13.276713450749767L19.571149553571427,7.435572504997273L19.761160714285715,8.20255605217552L19.951171875,8.164584607178126L20.521205357142854,16.56822139191571L20.901227678571427,21.715663277074256L21.09123883928571,25.352767472312962L21.28125,27.469750643142387L21.851283482142858,31.55432072550346L22.041294642857142,33.18217956625282L22.23130580357143,35.41031195971512L22.421316964285715,36.72452824079029L22.611328125,37.45003813109361L22.801339285714285,38.35880344668108L22.99135044642857,39.26300249309457L23.371372767857142,39.38903866897022L23.561383928571427,39.84081772414033L23.94140625,41.205302283020266L24.13141741071429,42.40326967877397L24.321428571428573,43.51860812830607L24.511439732142854,44.475630985282564L24.701450892857142,45.691704647031045L24.891462053571427,47.01706788737764L25.081473214285715,48.20491109349583L25.271484375,48.720812623501956L25.461495535714285,49.017597981791L25.651506696428573,49.408257400580666L26.031529017857142,50.566710529199376L26.22154017857143,50.985394316685905L26.41155133928571,51.358922785310725L26.6015625,51.8363659453625L26.791573660714285,52.51885383428264L27.171595982142858,53.266382768292736L27.361607142857142,54.296244091218874L27.931640625,55.63217750288416L28.12165178571429,56.67631095789404L28.311662946428573,57.360864227135714L28.501674107142854,58.136269324988284L28.691685267857142,71.09883417432825L28.881696428571427,76.49816482239696L29.071707589285715,77.1780794842952L29.26171875,79.3569331408444L29.451729910714285,81.26261000534703L29.641741071428573,83.14047647767495L30.021763392857142,83.22379758311128L30.21177455357143,81.93380988243807L30.591796875,81.85215858977881L30.781808035714285,80.64613158915822L30.97181919642857,80.17958306916555L31.161830357142858,80.29901103763675L31.54185267857143,80.65670216434711L31.731863839285715,80.87490980835928L31.921875,80.79240685112565L32.111886160714285,80.6421621009147L32.491908482142854,80.28640662219716L32.681919642857146,80.57333750677078L32.87193080357143,81.1815214980761L33.061941964285715,82.01826464508703L33.441964285714285,82.18326216166061L33.821986607142854,82.22514034842358L34.011997767857146,82.54260459861106L34.20200892857142,82.98259335748922L34.392020089285715,83.5915115395739L34.58203125,84.10225089308945L34.77204241071429,84.53389763782816L34.96205357142857,85.3615406192366L35.15206473214286,86.04816906275494L35.342075892857146,86.0751346943109L35.53208705357142,86.1505893030164L35.722098214285715,85.88907418003065L35.912109375,85.68034681489297L36.102120535714285,85.74878098652897L36.29213169642857,85.74075944872384L36.67215401785714,86.13127353778495L37.052176339285715,86.58003235056609L37.2421875,86.87518148538237L37.432198660714285,87.24415818601908L38.00223214285714,87.82101200272677L38.19224330357143,92.55065888315461L38.382254464285715,93.05891867965474L38.762276785714285,93.98084223562486L38.95228794642858,95.66531795835898L39.33231026785714,95.73955442056898L39.52232142857143,95.62748310692615L39.712332589285715,95.84689971840882L39.90234375,94.12209984284543L40.092354910714285,92.79818268987677L40.28236607142858,92.72908741060779L40.472377232142854,92.41321403477919L40.85239955357143,92.72005285438499L41.04241071428571,92.19878047476172L41.232421875,92.76757490895167L41.422433035714285,92.98889801658379L41.61244419642857,93.22569999947461L41.802455357142854,92.52342059922803L41.992466517857146,91.92951181757005L42.18247767857142,91.2706972155624L42.372488839285715,91.07365986070951L42.5625,91.60280985253209L42.94252232142857,91.18672680825287L43.132533482142854,91.30912400863743L43.322544642857146,91.08083169608618L43.51255580357142,91.11428625354753L43.702566964285715,91.75846889199568L43.892578125,91.69894340782416L44.082589285714285,91.71233201314439L44.27260044642857,91.80573094858386L44.65262276785714,92.87505284730787L45.032645089285715,93.15838074555515L45.22265625,93.23760914725375L45.412667410714285,93.47646080606567L45.60267857142857,93.70450377754403L45.79268973214286,93.52850531116347L45.98270089285714,93.5565016979489L46.362723214285715,93.80852965799052L46.552734375,94.07431927693136L46.742745535714285,94.47716636283545L46.93275669642858,94.97957460178942L47.122767857142854,95.38644824084051L47.31277901785714,95.76825478269501L47.692801339285715,93.94638341224497L48.072823660714285,99.72590024604185L48.26283482142858,106.85178502003622L48.452845982142854,109.92158663829326L48.83286830357143,111.40197219387787L49.02287946428571,111.47512868604719L49.212890625,111.03351294733085L49.402901785714285,109.91264345489142L49.59291294642857,108.91463907306712L49.782924107142854,107.40393504944636L49.972935267857146,105.40305612155115L50.16294642857143,104.65172844132772L50.352957589285715,104.21024207870757L50.54296875,104.298842362169L50.73297991071429,104.16842459734494L51.113002232142854,104.31217739838092L51.303013392857146,104.23903592740135L51.49302455357142,104.11042343962971L51.683035714285715,103.95823197795224L51.873046875,104.26924646635815L52.25306919642857,104.49442492767156L52.44308035714286,105.00049939261265L52.633091517857146,105.23405059877865L52.82310267857142,105.13855780385235L53.013113839285715,105.0892173601526L53.393136160714285,105.03440549492865L53.58314732142857,105.06143614363688L53.77315848214286,105.0330790005844L53.96316964285714,104.82315905030894L54.15318080357143,103.88409045022524L54.343191964285715,103.39784564980943L54.533203125,102.94320444112466L55.10323660714286,102.71510015236603L55.29324776785714,102.55505375647903L55.48325892857143,101.83269117226817L55.673270089285715,101.4129199064808L55.86328125,101.0954570696972L56.24330357142858,100.90200708267426L56.623325892857146,100.97948529297513L56.81333705357143,101.11236080710731L57.00334821428571,101.19191564630258L57.193359375,119.27920648362709L57.57338169642858,112.11000537617883L57.763392857142854,108.61889131711254L57.953404017857146,109.27373507725991L58.14341517857143,108.54993639255242L58.333426339285715,107.81178475537705L58.5234375,107.3436861740677L58.71344866071429,107.92970704478793L58.90345982142857,109.38454869256083L59.093470982142854,111.01161853591003L59.283482142857146,112.48376870226502L59.663504464285715,112.51831409179157L59.853515625,112.11778549855742L60.043526785714285,111.05175446970736L60.23353794642857,110.24971359274869L60.613560267857146,108.80594518166038L60.80357142857142,108.01224285591394L60.993582589285715,107.59579061406107L61.18359375,107.36912057561032L61.373604910714285,107.6013103510679L61.56361607142857,108.16748804563727L61.75362723214286,108.38076327670284L61.94363839285714,108.42614260372719L62.13364955357143,107.75379485522033L62.703683035714285,107.60353746394908L62.89369419642857,107.54100342421091L63.08370535714286,107.3451651165586L63.27371651785714,106.98313487150477L63.46372767857143,107.19131626632735L63.653738839285715,107.36124647824124L63.84375,107.37717881104244L64.03376116071429,107.37265919626292L64.22377232142857,107.14973608045102L64.41378348214286,107.02655130657544L64.60379464285714,106.9298849783321L64.98381696428571,106.32769040357944L65.173828125,105.96773741300034L65.55385044642857,106.11653928948519L65.74386160714286,106.17247837181735L65.93387276785714,106.48191794591655L66.12388392857143,106.74497911634552L66.31389508928571,106.98669107736652L66.50390625,106.89619089751348L67.07393973214286,117.37854478511557L67.26395089285714,123.09096667222187L67.45396205357143,125.04010580213074L67.64397321428571,124.19648253658137L68.02399553571429,123.75995620730754L68.21400669642858,123.18223513350826L68.40401785714285,120.86746466866697L68.59402901785714,119.09586825000187L68.97405133928571,117.76051796690784L69.1640625,116.71695729821622L69.54408482142858,116.02790024715482L69.92410714285714,116.19424079361251L70.11411830357143,116.12540291847402L70.494140625,115.72904327174993L70.68415178571429,114.76367769237939L71.06417410714285,114.28982147532653L71.25418526785714,114.25667456562094L71.44419642857143,114.22151849135619L71.63420758928572,113.86098553418039L72.01422991071429,113.83048165050498L72.20424107142857,113.59253183329514L72.39425223214285,113.41072884792733L72.58426339285714,112.99999073104848L72.77427455357143,112.53285133216852L72.96428571428572,112.43955501342263L73.154296875,112.1238257433441L73.34430803571428,112.02872763149738L73.53431919642857,111.85453888221262L73.72433035714286,111.95741244421609L73.91434151785714,112.29137602805818L74.10435267857143,112.18764134661193L74.29436383928572,112.24274022827052L74.484375,112.52830827702782L75.24441964285714,112.30922636471016L75.43443080357143,112.22432407388182L75.62444196428572,112.05699588844635L75.814453125,111.93963509791764L76.00446428571428,111.8478968500714L76.19447544642857,114.11927007593435L76.38448660714286,101.35286541953319L76.76450892857143,101.19488189324518L76.95452008928572,101.11226066174973L77.14453125,102.3442760003976L77.33454241071428,103.47695016622774L77.52455357142857,101.08311586237092L77.71456473214286,101.43682144079291L77.90457589285715,102.43741714553246L78.28459821428571,103.47069224275873L78.474609375,104.53705079093213L78.66462053571428,105.40542151968461L78.85463169642857,107.1210052794662L79.04464285714286,107.47143757103565L79.23465401785715,107.39932113344678L79.61467633928571,108.44219412876292L79.8046875,109.14630319956815L79.99469866071429,109.48732803434456L80.18470982142857,109.97973005475797L80.37472098214286,110.82337862949888L80.75474330357142,111.464347783931L80.94475446428571,111.99261302801446L81.32477678571429,112.82400913468486L81.70479910714286,113.1679514135807L81.89481026785715,113.50685883477666L82.08482142857142,113.82570715496145L82.27483258928571,114.2145681922587L82.46484375,114.64916532903624L82.65485491071429,115.05147868197986L83.03487723214286,115.51051663042202L83.22488839285714,115.86523384261785L83.41489955357143,116.20802295848921L83.794921875,116.14845496403294L83.98493303571429,116.10470211100848L84.17494419642858,115.96884739155928L84.36495535714285,115.68975191765244L84.55496651785714,115.4902245528691L84.74497767857143,115.30003001255949L84.93498883928571,115.10035519180589L85.125,114.84785526024041L85.31501116071429,114.76804856276556L85.50502232142858,114.6386190323991L85.69503348214285,135.57675777687408L86.07505580357143,131.6492401926544L86.26506696428571,126.14320908599058L86.455078125,120.5662688728946L86.64508928571429,119.53944425881569L87.02511160714285,120.43336640855074L87.21512276785714,120.68460326429448L87.59514508928572,119.11196211002016L87.78515625,117.88420074992426L87.97516741071429,116.44550771204459L88.16517857142857,114.93861735674437L88.35518973214285,113.47912044214823L88.54520089285714,112.89187817705245L88.73521205357143,112.707248367464L88.92522321428572,112.6575028564108L89.115234375,113.0287872591956L89.30524553571428,113.16146706974567L90.06529017857143,113.43046195965644L90.25530133928572,113.62671330568175L90.4453125,113.1499197025914L90.82533482142857,112.98397630491768L91.01534598214286,112.87432635251034L91.58537946428572,113.48707843873908L91.775390625,114.01128605835046L92.15541294642857,114.5690178463801L92.34542410714286,114.90897643506194L92.53543526785714,115.12940405968627L93.10546875,115.0291798700718L93.29547991071428,114.99409559904504L93.48549107142857,114.94861110571406L93.67550223214286,115.14649722093372L93.86551339285715,115.39916092424016L94.05552455357143,115.52712948084923L94.24553571428571,115.81619295454652L94.435546875,115.80520949945824L94.62555803571428,115.86136523596036L94.81556919642857,115.73133822904975L95.00558035714286,115.66506255046697L95.19559151785715,124.82030105020307L95.38560267857143,127.35965730006916L95.57561383928571,124.60332933220518L95.765625,125.7163364518876L95.95563616071428,125.29966321960262L96.14564732142857,124.30784252112214L96.33565848214286,124.35504339630467L96.52566964285715,125.25508264598288L96.71568080357142,127.24077314474408L96.90569196428571,127.25924512349499L97.095703125,126.85619722566764L97.47572544642857,125.5736753628359L97.66573660714286,125.13085570051504L97.85574776785715,123.81047918467263L98.04575892857142,123.78284298222387L98.61579241071429,122.75505932276126L98.80580357142857,121.78347207767573L98.99581473214286,121.48767305411582L99.18582589285714,121.44968559541913L99.37583705357143,121.01548080165352L99.56584821428571,120.46562784027556L99.755859375,120.38040942218801L99.94587053571429,120.4054082051927L100.13588169642857,120.74196062580832L100.32589285714286,121.59860777514825L100.70591517857143,121.76158669585575L100.89592633928571,121.71955426729477L101.0859375,121.7718852213825L101.65597098214285,122.14123259296845L101.84598214285714,122.11003943866987L102.03599330357143,122.16115475845238L102.22600446428571,121.93130754521626L102.416015625,121.42948663487716L102.60602678571429,121.18964064273051L102.79603794642858,121.00979025455007L102.98604910714285,120.87189928268407L103.36607142857143,121.11411849404382L103.55608258928572,121.13419006513561L103.74609375,121.1808295304398L103.93610491071429,120.53811711002311L104.69614955357143,154.6704314307109L104.88616071428572,148.0734307302476L105.076171875,140.96369471947997L105.26618303571429,134.85990574439754L105.45619419642857,131.75142149814204L105.64620535714285,128.56859901361605L105.83621651785714,125.73104558078212L106.21623883928572,124.3210825225975L106.59626116071428,124.35465188630022L106.78627232142857,123.96294408524592L106.97628348214286,124.05958269527291L107.16629464285714,123.48942151759506L107.35630580357143,122.4680178270406L107.54631696428572,122.44641554190716L107.736328125,122.87726876636745L108.11635044642857,121.84067746897782L108.30636160714286,120.7706682179386L108.49637276785714,120.03797300819643L108.68638392857143,120.11451939044846L109.06640625,120.96882567782276L109.25641741071428,121.46993992713534L109.44642857142857,121.17069646907316L110.01646205357143,121.38703252390505L110.20647321428572,121.31138370145646L110.396484375,121.42363915667505L110.58649553571428,121.44750090733513L110.77650669642857,121.50750372585861L110.96651785714286,121.56610789563581L111.15652901785715,121.5990499258021L111.53655133928571,121.96573324998099L111.7265625,122.2950796206785L111.91657366071428,122.39510033448494L112.10658482142857,122.48737516752854L112.29659598214286,122.44268771063474L112.48660714285715,122.52786481410972L113.056640625,122.41781640865831L113.24665178571429,122.44673875660756L113.62667410714286,122.77259348844126L113.81668526785715,122.75206055053852L114.00669642857142,122.66220786060164L114.38671875,132.5291539940353L114.57672991071429,133.4301246074706L114.76674107142857,135.47943881757277L115.33677455357142,137.8440861440135L115.52678571428571,138.99803083756169L115.716796875,141.08091560374856L115.90680803571429,142.58897299391722L116.09681919642857,143.12718919211247L116.28683035714286,143.05433731452794L116.47684151785714,142.8817732642661L116.66685267857143,142.7491108125788L116.85686383928571,142.96847712673798L117.23688616071429,142.11705737716784L117.42689732142858,141.2848403299262L117.61690848214285,140.89964147276143L117.80691964285714,140.8564492456106L117.99693080357143,141.21384939304912L118.18694196428571,141.7531208877877L118.56696428571429,141.74444352100983L119.13699776785714,141.10827345755118L119.32700892857143,140.69656445447455L119.89704241071429,140.87360980826924L120.08705357142857,140.3005912307003L120.27706473214285,140.13058007576657L120.46707589285714,139.94317264250074L120.65708705357143,139.83114779924048L120.84709821428572,139.99233550787784L121.037109375,140.12804626004387L121.22712053571429,140.195682183364L121.41713169642857,140.22774464416045L121.60714285714285,140.1085435779544L121.79715401785714,140.07571946571187L121.98716517857143,140.00178079797774L122.17717633928572,139.65670978025963L122.3671875,139.50390262800278L122.55719866071428,139.3242430730531L122.93722098214286,139.28165839774624L123.12723214285714,139.23288880187204L123.31724330357143,139.37037223019956L123.697265625,139.559589172038L124.07728794642857,145.91295952675694L124.26729910714286,147.30341310746246L124.45731026785714,147.7181516058054L124.64732142857143,145.0417592744116L124.83733258928572,142.69620519996192L125.21735491071428,140.31249463232658L125.40736607142857,139.8801648835677L125.59737723214286,139.65573946358788L125.78738839285714,139.23061329358038L125.97739955357143,138.74021567245256L126.16741071428572,138.25451386773545L126.357421875,136.8404651292401L126.73744419642857,137.11260042637016L126.92745535714286,136.90894428521054L127.11746651785715,137.22708150325013L127.30747767857143,137.4994350388316L127.49748883928571,137.2214453606606L127.6875,137.58238074712756L127.87751116071428,138.23380038062416L128.06752232142858,138.35661325208156L128.44754464285714,138.39536351373877L128.63755580357144,138.4728054190343L128.82756696428572,138.3087715934514L129.39760044642858,138.39293264334196L130.15764508928572,139.07377660464127L130.34765625,139.67934547379141L130.53766741071428,140.28579347837683L130.91768973214286,140.4538586388551L131.10770089285714,140.86943648559986L131.29771205357142,141.12934354724368L131.48772321428572,141.37052242625882L131.677734375,141.4514261603502L131.86774553571428,141.47959950686382L132.05775669642858,141.35158713929385L132.24776785714286,141.09277534647305L132.43777901785714,140.92871128815523L132.62779017857142,140.88854275126127L132.81780133928572,140.98417663164258L133.0078125,141.08848409406733L133.38783482142858,138.0833077066286L133.57784598214286,139.52313085594636L133.76785714285714,139.90707940379102L133.95786830357142,140.68904779664268L134.14787946428572,140.11727781878864L134.337890625,140.60710252793803L134.52790178571428,141.32478399359488L134.71791294642858,142.65188209583346L134.90792410714286,142.80333433371774L135.09793526785717,142.99221677276685L135.4779575892857,144.2150914670618L135.66796875,143.9186179479912L135.85797991071428,144.30812117900183L136.04799107142858,144.46149274575154L136.23800223214286,143.69136509617633L136.42801339285717,143.17015751989962L136.61802455357142,143.01793636158473L136.8080357142857,143.0809526757918L136.998046875,143.18666169145837L137.18805803571428,143.20846636950452L137.37806919642858,142.73549316640387L137.56808035714286,142.45809965719198L137.94810267857142,142.40010824236919L138.1381138392857,141.9697328633089L138.328125,142.0589808598768L138.51813616071428,142.01982059333392L138.70814732142858,142.00520194920105L139.27818080357142,142.13184893937233L139.4681919642857,142.3601011721968L139.658203125,142.3565901928353L139.84821428571428,142.19312787134695L140.03822544642858,142.03559603738336L140.22823660714286,141.94303077726096L140.60825892857144,142.08033609152952L140.7982700892857,142.00149904744495L140.98828125,142.01029432847105L141.17829241071428,142.20262438277803L141.36830357142858,142.28940980168423L141.55831473214286,142.1128292910193L141.74832589285714,142.18438759040444L142.318359375,142.31833131268587L142.50837053571428,142.21449455711223L142.88839285714286,150.79245002126484L143.07840401785714,148.7872238261846L143.26841517857144,147.07872973104404L143.4584263392857,142.87445106240165L143.6484375,141.18879625478615L144.21847098214286,140.2836188472066L144.40848214285714,140.12690507551557L144.59849330357144,140.48483022360318L144.7885044642857,140.21789593880365L145.16852678571428,140.81325086386L145.54854910714286,141.0155378367364L145.92857142857144,140.48911362802147L146.30859375,140.14879457502659L146.49860491071428,139.53809072384692L146.68861607142856,139.45295147384877L146.87862723214286,139.53591360421385L147.06863839285714,139.70868228537682L147.44866071428572,140.1657438039552L147.638671875,140.75866648513698L147.82868303571428,141.02717041745956L148.01869419642856,141.23945727214323L148.20870535714286,141.43698842286136L148.39871651785714,141.63444313382544L148.77873883928572,141.9849552530573L148.96875,142.317292305938L149.15876116071428,142.52502130654153L149.34877232142856,142.9005282989345L149.72879464285714,143.0841549399218L149.91880580357144,143.22310963646896L150.10881696428572,143.20022326733465L150.298828125,143.0981446466394L150.67885044642856,142.952550146672L150.86886160714286,142.9028190773882L151.05887276785714,143.16183845214988L151.24888392857144,143.43351012873418L151.43889508928572,143.6328056081599L151.62890625,143.8922988389611L151.81891741071428,144.2049620200006L152.00892857142856,144.28812782260624L152.19893973214286,144.27637424643547L152.57896205357144,138.5664776399277L152.76897321428572,133.51478722698744L153.14899553571428,135.9254278998013L153.33900669642856,138.1882421569289L153.52901785714286,140.9255298850692L153.71902901785714,142.54434279269518L153.90904017857144,143.13052731156273L154.09905133928572,143.46026934027628L154.2890625,143.32405158384614L154.4790736607143,143.29623730483038L154.66908482142856,143.20875153244964L155.04910714285714,143.2905024447129L155.23911830357142,143.59342983711278L155.42912946428572,144.12987602958194L155.619140625,144.48757726277378L155.8091517857143,143.99385004634937L155.99916294642856,144.30737360355425L156.18917410714286,144.55517821334104L156.37918526785714,145.17942657166103L156.56919642857142,144.78370357012778L156.75920758928572,144.39580221447963L156.94921875,144.2244784244316L157.1392299107143,144.11978713324172L157.32924107142856,143.88951032748125L157.51925223214286,144.12788903747182L157.70926339285714,144.27592543781307L157.89927455357142,144.27752382767503L158.08928571428572,144.37535749601705L158.279296875,144.29917278325982L158.4693080357143,144.32645777724045L158.65931919642856,144.26886258837698L158.84933035714286,144.2723419804401L159.03934151785714,144.10842750106414L159.41936383928572,144.13751553078987L159.609375,144.2022888734768L159.7993861607143,144.02383076795917L160.17940848214283,144.05011096586173L160.36941964285714,144.09436056806277L160.55943080357142,144.14250310536406L160.74944196428572,144.20008866156843L160.939453125,144.48121725816952L161.88950892857142,149.7370213069484L162.07952008928572,141.9099783220668L162.26953125,140.32513167771373L162.64955357142858,139.35920053906844L162.83956473214283,138.61853526942497L163.02957589285714,140.1305902257317L163.21958705357142,140.9403759631368L163.40959821428572,142.4547716454378L163.7896205357143,143.61445785814792L163.97963169642858,144.6905603324628L164.16964285714283,144.88685167125402L164.35965401785714,144.6608511226865L164.54966517857142,144.7609792163467L164.73967633928572,144.6496295378901L164.9296875,145.02085585472767L165.11969866071428,144.860319871174L165.30970982142858,144.7223338396152L165.49972098214286,144.22727318470479L165.68973214285714,144.5032102815199L165.87974330357142,145.03614695977498L166.06975446428572,145.0357720222751L166.44977678571428,145.56781772971232L166.63978794642858,145.91620851477035L166.82979910714286,146.10848891488737L167.01981026785714,146.371120761347L167.20982142857142,146.73211343517633L167.39983258928572,146.78610756852666L167.58984375,147.02101718699004L167.77985491071428,147.18770381996075L167.96986607142858,147.08603315267388L168.53989955357142,146.6810980441973L168.7299107142857,146.53859146850144L168.919921875,146.69891297270954L169.10993303571428,146.6498660452173L169.29994419642858,146.476972687662L169.48995535714286,146.04065547093967L169.86997767857142,145.60704521559808L170.0599888392857,145.30979106559238L170.25,145.1213371777567L170.44001116071428,144.94961466932492L170.63002232142858,144.87396989590445L170.82003348214286,144.84474264577938L171.01004464285717,144.7679616629834L171.20005580357142,144.81144627053072L171.580078125,145.42267503809055L171.77008928571428,145.09562416754835L171.96010044642858,144.6001107765198L172.15011160714286,142.2078008059438L172.34012276785717,143.11868848425803L172.53013392857142,142.1230860115448L172.7201450892857,143.39160700408772L172.91015625,144.4584453330526L173.10016741071428,145.88770309842167L173.29017857142858,146.67340713991646L173.67020089285714,146.58751739414885L173.86021205357144,146.73117087693424L174.0502232142857,146.63714196529833L174.43024553571428,146.5552197908174L174.62025669642858,146.86781104891367L174.81026785714286,147.05030854834436L175.00027901785714,146.94312310393644L175.19029017857144,147.0238025198936L175.3803013392857,147.4135027891731L175.5703125,146.53447323836895L175.76032366071428,146.54510902045976L175.95033482142858,146.02315809733952L176.14034598214286,145.59920436386636L176.33035714285714,145.38818377402052L176.52036830357144,144.9976587423481L176.7103794642857,144.36669229639355L176.900390625,144.05495824320784L177.28041294642858,143.6034019345264L177.47042410714286,143.4188785923056L177.66043526785714,143.5613289578278L177.85044642857144,143.60027854662255L178.0404575892857,143.8077070456015L178.23046875,143.66169932730597L178.61049107142856,143.83551152893463L178.80050223214286,144.07653707076247L179.18052455357144,144.66523799385112L179.37053571428572,145.14546253533453L179.75055803571428,145.51485428562538L180.13058035714286,145.8580951294349L180.70061383928572,145.98368740882754L180.890625,155.46305295312175L181.46065848214286,151.3622800935334L181.65066964285714,149.85203839316128L181.84068080357144,148.369318173175L182.03069196428572,146.0847839708199L182.220703125,145.95611576607246L182.60072544642856,145.88687444748732L182.79073660714286,146.41349503808567L182.98074776785714,147.3678704902332L183.55078125,148.28949883807505L183.74079241071428,148.43848986960734L184.12081473214286,148.21516077242663L184.31082589285714,147.62551640186135L184.50083705357144,147.12093439924772L184.69084821428572,147.0325044268055L184.880859375,147.2574206515362L185.07087053571428,147.61669485117258L185.26088169642856,147.5558587253805L185.64090401785714,147.26792796894208L185.83091517857144,147.03592488235807L186.02092633928572,147.11009812196042L186.40094866071428,147.58022889995542L186.59095982142856,147.33124746583283L186.78097098214286,147.22174841782874L186.97098214285714,147.19537057054893L187.16099330357144,147.13491150680895L187.35100446428572,146.96885212030242L187.541015625,147.11068841476975L187.7310267857143,147.1687380273724L187.92103794642856,147.2471073984852L188.11104910714286,147.19452250717586L188.30106026785714,147.30229305854542L188.68108258928572,147.1336834726598L188.87109375,146.63817855703036L189.25111607142856,146.3525112290414L189.63113839285714,146.16902936811638L189.82114955357142,146.21848638841743L190.3911830357143,148.3966112136199L190.58119419642856,140.47241702075922L190.96121651785714,138.90122206049836L191.15122767857142,139.6595568758508L191.34123883928572,137.5910965821501L191.53125,138.3605526261343L191.7212611607143,138.65751358505966L192.10128348214286,140.77918424191205L192.29129464285714,142.0304758428462L192.67131696428572,142.57035407298375L192.861328125,143.41805007183692L193.24135044642858,144.61200227414054L193.43136160714283,145.78145909751146L193.62137276785714,146.40266294744424L193.81138392857142,146.720642762185L194.00139508928572,146.6552983662293L194.19140625,146.46161596024862L194.3814174107143,146.81197657611864L194.57142857142858,147.1367439335201L194.76143973214283,147.11243330075027L195.14146205357142,147.08675767561007L195.33147321428572,147.56965150185553L195.521484375,147.66524950910485L195.7114955357143,147.84838404803799L195.90150669642858,148.0157041781107L196.09151785714283,148.2278017182922L196.28152901785714,148.59766863066608L196.47154017857142,148.93780267007344L196.66155133928572,148.65393880864298L196.8515625,148.67333094990443L197.23158482142858,148.5518034977686L197.61160714285714,148.4756743361337L197.80161830357142,148.366376828141L197.99162946428572,148.48822711566308L198.181640625,148.65429987108243L198.37165178571428,148.35072247343578L198.56166294642858,148.17382561459533L198.75167410714286,148.18649584826466L198.94168526785714,148.05320731069625L199.13169642857142,147.76468905965078L199.32170758928572,147.66029908553514L199.51171875,147.71001310127428L199.70172991071428,147.72046920643717L200.08175223214286,141.29946077457947L200.46177455357142,140.66475630954037L200.65178571428572,141.4964204539168L200.841796875,143.79512873744815L201.03180803571428,145.42407809568954L201.41183035714286,147.35343561295772L201.60184151785717,147.90691572263304L201.79185267857142,148.9724063585269L201.9818638392857,148.84183085620808L202.171875,148.31303577022004L202.36188616071428,148.30037858722358L202.55189732142858,148.4915208655859L202.93191964285717,148.37712174087355L203.12193080357142,148.59213878371074L203.69196428571428,148.532343349801L203.88197544642858,147.97336579279892L204.45200892857142,147.79494650115643L204.6420200892857,147.47663103113615L204.83203125,147.75159986756273L205.02204241071428,147.98225992486095L205.21205357142858,147.9957719101422L205.40206473214286,147.99905788027723L205.59207589285717,147.92115804626633L205.78208705357142,148.03479040309242L205.9720982142857,148.0419068454372L206.54213169642858,147.9462860813936L206.73214285714286,147.99252397961618L206.92215401785714,148.1187280286185L207.11216517857144,148.13260944697254L207.3021763392857,148.13026866920586L207.68219866071428,148.22283648813442L207.87220982142858,148.41132136602008L208.06222098214286,148.33694853237552L208.25223214285714,148.32120407731105L208.44224330357144,148.363951602245L208.822265625,148.11611930449683L209.01227678571428,148.05859913778232L209.20228794642858,147.6714210570967L209.39229910714286,147.2083206531077L209.58231026785714,153.06406326830404L209.77232142857144,146.23488822623105L209.9623325892857,142.4885368131241L210.15234375,142.21932797725842L210.34235491071428,142.90139833944545L210.53236607142858,145.3077363005728L210.91238839285714,147.23513858108424L211.2924107142857,148.7632598117314L211.67243303571428,149.08836372903917L211.86244419642856,149.41957858529847L212.05245535714286,150.08877212600208L212.24246651785714,150.68826428331712L212.43247767857144,151.0879848914014L213.00251116071428,150.2720660120249L213.38253348214286,149.83532956540586L213.57254464285714,149.07008859694005L213.95256696428572,148.93739269483092L214.142578125,148.84000700895785L214.33258928571428,148.65013503741105L214.52260044642856,148.47701093183485L214.71261160714286,148.1811050055019L215.09263392857144,147.79525235559097L215.85267857142856,147.35523060519827L216.04268973214286,146.9220508310755L216.23270089285714,146.76387379011868L216.42271205357144,146.4501156018656L216.61272321428572,146.33904830653358L217.37276785714286,146.52978595121039L217.56277901785714,146.54549185448886L217.75279017857144,146.71676942515774L217.94280133928572,146.96802782699507L218.32282366071428,146.9667985738419L218.51283482142856,146.98823077089205L218.70284598214286,147.07506501638858L219.08286830357144,142.37124737877033L219.27287946428572,142.99883111781904L219.462890625,141.66710429469964L219.84291294642856,143.6037854974283L220.22293526785714,143.84086722283442L220.41294642857144,143.86419863392243L220.60295758928572,145.46202759875453L220.9829799107143,146.30424637556231L221.17299107142856,146.94994379854296L221.36300223214286,147.66619313027118L221.55301339285714,148.05145898818367L221.74302455357142,148.2741431198084L221.93303571428572,148.67283770650013L222.123046875,149.05750409688184L222.3130580357143,148.662952661071L222.50306919642856,148.3059535341782L222.69308035714286,148.18165693585016L222.88309151785714,148.1653007938699L223.07310267857142,148.1160431389552L223.26311383928572,147.97816187249867L223.6431361607143,148.20536375507066L223.83314732142856,148.52837934770793L224.02315848214286,148.51147992618053L224.40318080357142,148.0975903304845L224.59319196428572,147.82254534755725L224.783203125,147.52388792312888L224.9732142857143,147.43646713739685L225.35323660714286,147.25280576932062L225.54324776785714,147.15374627503334L225.73325892857142,146.9268835154727L225.92327008928572,146.93582647845477L226.49330357142858,147.03279108487763L226.68331473214283,147.10689779927253L226.87332589285714,147.0597149181957L227.06333705357142,147.025228956258L227.82338169642858,146.97915493979994L228.20340401785714,147.22768825412754L228.39341517857142,147.2524967955806L228.58342633928572,148.57807216449132L228.7734375,151.67823641342054L228.9634486607143,151.85318489576656L229.15345982142858,151.7709787112789L229.34347098214283,149.58675888115067L229.53348214285714,147.286416754726L229.72349330357142,145.06005440489656L229.91350446428572,144.9899408320757L230.103515625,144.70915886760784L230.2935267857143,144.49047992826127L230.48353794642858,144.4671402823962L230.67354910714283,144.50298783294582L230.86356026785714,143.2818714446558L231.24358258928572,143.11285611391466L231.43359375,143.62660936753193L231.62360491071428,144.4347078576102L231.81361607142858,144.9529701893179L232.00362723214286,145.5298946395307L232.19363839285714,145.60247670579687L232.38364955357142,145.7664253411814L232.95368303571428,146.20658106594033L233.14369419642858,146.95325118892637L233.52371651785714,146.63271216507704L233.71372767857142,146.43114407036273L233.90373883928572,146.68931815926376L234.09375,146.57361355168112L234.28376116071428,146.55065022354813L234.47377232142858,146.401016949289L234.66378348214286,146.362242268725L234.85379464285717,146.71295647255806L235.04380580357142,146.70604977070627L235.2338169642857,146.893452030774L235.61383928571428,147.0621788476046L235.80385044642858,146.93845230584162L236.18387276785717,146.6279852921455L236.37388392857142,146.46850372958315L236.75390625,146.5297383245317L236.94391741071428,146.55554282127747L237.13392857142858,146.4031832106447L237.32393973214286,146.5899077507378L237.51395089285717,146.67769649739193L237.70396205357142,146.7679472950009L237.8939732142857,146.85629653455263L238.083984375,138.70801133824258L238.27399553571428,133.67734964835367L238.65401785714286,137.7192964562638L238.84402901785717,140.04869577142776L239.03404017857142,139.35073022556213L239.4140625,141.2512554437632L239.60407366071428,141.91708899204224L239.79408482142858,141.64311306077812L239.98409598214286,141.8479246322229L240.17410714285714,142.4776123855858L240.36411830357144,143.33686963484777L240.5541294642857,143.70491123060043L240.744140625,144.16039808507554L240.93415178571428,144.63289885470746L241.12416294642858,144.79551036804602L241.8842075892857,145.59302852739702L242.07421875,146.1310506871729L242.26422991071428,146.7186989433401L242.64425223214286,147.01959199389816L242.83426339285714,147.0927802563568L243.02427455357144,146.86239065175417L243.2142857142857,146.72566925751266L243.404296875,146.8268865303224L243.59430803571428,146.97597680624477L243.78431919642858,146.95092806499892L244.16434151785714,147.14745557277416L244.35435267857144,147.1770165362101L244.5443638392857,147.23461232969012L244.92438616071428,147.40511687431047L245.11439732142856,147.35929927726573L245.30440848214286,147.49247820476683L245.49441964285714,147.41269518117105L245.87444196428572,147.34464442638554L246.064453125,147.30498103245893L246.25446428571428,147.32923785017806L246.44447544642856,147.4390580445541L246.63448660714286,147.51007298171598L246.82449776785714,147.46559399489607L247.39453125,147.21979237868814L247.58454241071428,134.22524349654375L248.15457589285714,137.31001441139773L248.34458705357144,140.28205344155705L248.53459821428572,144.01774461910293L248.91462053571428,147.0253488213529L249.10463169642856,148.4539129251665L249.29464285714286,149.2609334179417L249.67466517857144,148.23746291331383L249.86467633928572,147.64049310405215L250.0546875,147.54603157193955L250.43470982142856,147.1564237699002L250.62472098214286,146.6267069275234L250.81473214285714,145.9883202609452L251.00474330357144,145.99661580107804L251.19475446428572,146.40259807536322L251.384765625,146.47646996912945L251.57477678571428,146.4773365509764L251.95479910714286,146.66416631453765L252.52483258928572,147.24265939184147L252.71484375,147.36441232872875L253.28487723214286,147.69068091380325L253.47488839285714,147.73929647565518L253.66489955357144,147.3610791919269L253.85491071428572,147.27766647483736L254.044921875,147.38552585370837L254.42494419642856,147.4458223926673L254.61495535714286,147.56408346182008L254.80496651785714,147.1697463779801L254.99497767857142,147.1323615266375L255.18498883928572,147.13356902322127L255.375,147.42967745137784L255.5650111607143,147.4834331937983L255.75502232142856,147.5931234042856L255.94503348214286,147.54887993818596L256.13504464285717,147.56549318444377L256.3250558035714,147.72270725455869L256.5150669642857,147.96558437915837L256.705078125,148.02509253525054L256.8950892857143,148.19513159575055" style="fill: none;" fill="none"></path></g></g></g></g><g opacity="0.2"><g><g><g><path stroke="rgb(255, 112, 67)" stroke-width="2px" d="M19.191127232142858,13.276713450749728L19.571149553571427,3.930887937545796L19.761160714285715,8.938860257466647L19.951171875,8.11993018786115L20.521205357142854,27.540009578069064L20.901227678571427,28.836428483327243L21.09123883928571,30.55388466517131L21.28125,30.556332429250094L21.851283482142858,37.578268210093185L22.041294642857142,35.59936022758486L22.23130580357143,38.73230155309042L22.421316964285715,38.688700755437225L22.611328125,38.5359340508779L22.801339285714285,39.720171054204314L22.99135044642857,40.61823821067812L23.371372767857142,39.57800404230754L23.561383928571427,40.51829512914023L23.94140625,43.251682678858444L24.13141741071429,44.20003827412924L24.321428571428573,45.191513856252044L24.511439732142854,45.91111278533938L24.701450892857142,47.51577512423198L24.891462053571427,49.00508658091228L25.081473214285715,49.98666183153789L25.271484375,49.4946612517039L25.461495535714285,49.46277475357058L25.651506696428573,49.994245529174826L26.031529017857142,52.30438844362895L26.22154017857143,51.61341961224875L26.41155133928571,51.91921528180441L26.6015625,52.55253052711489L26.791573660714285,53.54258553187053L27.171595982142858,54.38767608006796L27.361607142857142,55.84103600184123L27.931640625,57.63607756296794L28.12165178571429,58.24251111348471L28.311662946428573,58.387694120407126L28.501674107142854,59.29937696456911L28.691685267857142,90.54268137613933L28.881696428571427,84.5971607764562L29.071707589285715,78.19795147577922L29.26171875,82.62521362304689L29.451729910714285,84.12112530072531L29.641741071428573,85.9572761853536L30.021763392857142,83.348779241244L30.21177455357143,79.99882833162944L30.591796875,81.72968165079753L30.781808035714285,78.837091088295L30.97181919642857,79.47976028919221L31.161830357142858,80.4781529903412L31.54185267857143,81.19323885440828L31.731863839285715,81.20222127437593L31.921875,80.66865241527559L32.111886160714285,80.41679497559866L32.491908482142854,79.75277340412141L32.681919642857146,81.00373383363089L32.87193080357143,82.09379748503368L33.061941964285715,83.27337936560313L33.441964285714285,82.4307584365209L33.821986607142854,82.28795762856802L34.011997767857146,83.01880097389223L34.20200892857142,83.64257649580638L34.392020089285715,84.50488881270091L34.58203125,84.86835992336275L34.77204241071429,85.18136775493623L34.96205357142857,86.60300509134929L35.15206473214286,87.07811172803244L35.342075892857146,86.1155831416448L35.53208705357142,86.26377121607463L35.722098214285715,85.49680149555208L35.912109375,85.36725576718649L36.102120535714285,85.85143224398296L36.29213169642857,85.7287271420161L36.67215401785714,86.71704467137656L37.052176339285715,87.25317056973776L37.2421875,87.31790518760683L37.432198660714285,87.79762323697409L38.00223214285714,88.6862927277883L38.19224330357143,99.64512920379639L38.382254464285715,93.82130837440491L38.762276785714285,95.36372756958008L38.95228794642858,98.19203154246013L39.33231026785714,95.85090911388397L39.52232142857143,95.4593761364619L39.712332589285715,96.17602463563284L39.90234375,91.53490002950033L40.092354910714285,90.8123069604238L40.28236607142858,92.62544449170431L40.472377232142854,91.93940397103628L40.85239955357143,93.18031108379364L41.04241071428571,91.41687190532684L41.232421875,93.62076656023662L41.422433035714285,93.32088267803192L41.61244419642857,93.58090297381084L41.802455357142854,91.47000149885814L41.992466517857146,91.03864864508311L42.18247767857142,90.28247531255087L42.372488839285715,90.77810382843018L42.5625,92.39653484026591L42.94252232142857,90.56260224183401L43.132533482142854,91.49271980921428L43.322544642857146,90.73839322725932L43.51255580357142,91.16446808973949L43.702566964285715,92.72474284966788L43.892578125,91.60965518156688L44.082589285714285,91.73241492112479L44.27260044642857,91.94582935174307L44.65262276785714,94.47903569539389L45.032645089285715,93.58337259292603L45.22265625,93.35645174980164L45.412667410714285,93.83473829428355L45.60267857142857,94.04656823476157L45.79268973214286,93.26450761159262L45.98270089285714,93.59849627812704L46.362723214285715,94.18657159805298L46.552734375,94.47300370534262L46.742745535714285,95.08143699169159L46.93275669642858,95.73318696022034L47.122767857142854,95.99675869941711L47.31277901785714,96.34096459547679L47.692801339285715,91.21357635656993L48.072823660714285,108.39517549673717L48.26283482142858,117.54061218102774L48.452845982142854,114.52628906567892L48.83286830357143,113.62255052725475L49.02287946428571,111.58486342430115L49.212890625,110.37108933925629L49.402901785714285,108.2313392162323L49.59291294642857,107.41763250033061L49.782924107142854,105.1378790140152L49.972935267857146,102.40173772970836L50.16294642857143,103.52473692099254L50.352957589285715,103.54801253477733L50.54296875,104.43174278736115L50.73297991071429,103.97279795010886L51.113002232142854,104.5278065999349L51.303013392857146,104.129323720932L51.49302455357142,103.91750470797221L51.683035714285715,103.729944785436L51.873046875,104.73576819896698L52.25306919642857,104.83219261964163L52.44308035714286,105.75961109002432L52.633091517857146,105.58437740802765L52.82310267857142,104.99531861146292L53.013113839285715,105.01520669460297L53.393136160714285,104.9521876970927L53.58314732142857,105.10198211669922L53.77315848214286,104.99054328600566L53.96316964285714,104.50827912489574L54.15318080357143,102.4754875500997L54.343191964285715,102.6684784491857L54.533203125,102.26124262809753L55.10323660714286,102.37294371922812L55.29324776785714,102.31498416264853L55.48325892857143,100.74914729595184L55.673270089285715,100.78326300779979L55.86328125,100.61926281452179L56.24330357142858,100.6118321021398L56.623325892857146,101.09570260842642L56.81333705357143,101.31167407830557L57.00334821428571,101.31124790509543L57.193359375,146.41014273961386L57.57338169642858,101.35620371500652L57.763392857142854,103.38222022851309L57.953404017857146,110.25600071748099L58.14341517857143,107.46423836549124L58.333426339285715,106.70455729961395L58.5234375,106.64153830210368L58.71344866071429,108.80873835086823L58.90345982142857,111.56681116422018L59.093470982142854,113.45222330093384L59.283482142857146,114.69199395179749L59.663504464285715,112.57013217608134L59.853515625,111.51699260870616L60.043526785714285,109.4527079264323L60.23353794642857,109.0466522773107L60.613560267857146,106.64029256502788L60.80357142857142,106.82168936729431L60.993582589285715,106.97111225128174L61.18359375,107.02911551793417L61.373604910714285,107.94959501425426L61.56361607142857,109.01675458749136L61.75362723214286,108.70067612330119L61.94363839285714,108.49421159426372L62.13364955357143,106.74527323246002L62.703683035714285,107.37815137704214L62.89369419642857,107.44720236460368L63.08370535714286,107.05140765508017L63.27371651785714,106.44008950392406L63.46372767857143,107.5035883585612L63.653738839285715,107.61614179611206L63.84375,107.40107731024425L64.03376116071429,107.36587977409363L64.22377232142857,106.8153514067332L64.41378348214286,106.84177414576213L64.60379464285714,106.78488548596701L64.98381696428571,105.4243985414505L65.173828125,105.42780792713165L65.55385044642857,106.33974210421245L65.74386160714286,106.25638699531555L65.93387276785714,106.94607730706534L66.12388392857143,107.13957087198894L66.31389508928571,107.34925901889801L66.50390625,106.76044062773387L67.07393973214286,133.10207561651868L67.26395089285714,131.65959950288138L67.45396205357143,127.96381449699402L67.64397321428571,122.93104763825735L68.02399553571429,123.10516671339671L68.21400669642858,122.31565352280936L68.40401785714285,117.39530897140503L68.59402901785714,116.4384736220042L68.97405133928571,115.75749254226685L69.1640625,115.15161629517874L69.54408482142858,114.99431467056274L69.92410714285714,116.44375161329906L70.11411830357143,116.0221461057663L70.494140625,115.13450380166373L70.68415178571429,113.31562932332358L71.06417410714285,113.57903714974722L71.25418526785714,114.20695420106253L71.44419642857143,114.1687843799591L71.63420758928572,113.32018609841666L72.01422991071429,113.78472582499187L72.20424107142857,113.23560710748038L72.39425223214285,113.1380243698756L72.58426339285714,112.3838835557302L72.77427455357143,111.83214223384857L72.96428571428572,112.29961053530376L73.154296875,111.65023183822632L73.34430803571428,111.88608046372732L73.53431919642857,111.59325575828552L73.72433035714286,112.11172278722128L73.91434151785714,112.79232140382132L74.10435267857143,112.03203932444255L74.29436383928572,112.32538855075836L74.484375,112.95666035016379L75.24441964285714,111.98060349623363L75.43443080357143,112.09697063763937L75.62444196428572,111.80600361029308L75.814453125,111.76359391212463L76.00446428571428,111.710289478302L76.19447544642857,117.5263299147288L76.38448660714286,82.20325843493144L76.76450892857143,100.95790660381317L76.95452008928572,100.98832881450653L77.14453125,104.19229900836945L77.33454241071428,105.17596141497295L77.52455357142857,97.4923644065857L77.71456473214286,101.9673798084259L77.90457589285715,103.93831070264181L78.28459821428571,105.02060488859813L78.474609375,106.13658861319225L78.66462053571428,106.70797761281332L78.85463169642857,109.6943809191386L79.04464285714286,107.9970860083898L79.23465401785715,107.2911464770635L79.61467633928571,110.00650362173717L79.8046875,110.20246680577597L79.99469866071429,109.9988652865092L80.18470982142857,110.71833308537802L80.37472098214286,112.08885149161021L80.75474330357142,112.42580151557922L80.94475446428571,112.78501089413962L81.32477678571429,114.07110329469046L81.70479910714286,113.68386483192444L81.89481026785715,114.01521996657054L82.08482142857142,114.30397963523865L82.27483258928571,114.79785974820456L82.46484375,115.30106103420258L82.65485491071429,115.65494871139526L83.03487723214286,116.19907355308533L83.22488839285714,116.39730966091156L83.41489955357143,116.72220663229625L83.794921875,116.05910297234854L83.98493303571429,116.03907283147177L84.17494419642858,115.76506531238556L84.36495535714285,115.2711087067922L84.55496651785714,115.19093350569408L84.74497767857143,115.01473820209503L84.93498883928571,114.80084296067557L85.125,114.46910536289215L85.31501116071429,114.64833851655325L85.50502232142858,114.44447473684947L85.69503348214285,166.9839658935865L86.07505580357143,125.75796381632487L86.26506696428571,117.88416242599487L86.455078125,112.20085855325064L86.64508928571429,117.99920733769736L87.02511160714285,121.77424963315329L87.21512276785714,121.06145854791006L87.59514508928572,116.7530003786087L87.78515625,116.04255870978038L87.97516741071429,114.28746815522513L88.16517857142857,112.67828182379405L88.35518973214285,111.28987507025401L88.54520089285714,112.01101477940878L88.73521205357143,112.43030365308127L88.92522321428572,112.58288458983104L89.115234375,113.5857138633728L89.30524553571428,113.36048678557079L90.06529017857143,113.83395429452261L90.25530133928572,113.92109032471976L90.4453125,112.43472929795584L90.82533482142857,112.73506120840709L91.01534598214286,112.70985142389934L91.58537946428572,114.40620656808218L91.775390625,114.79759748776755L92.15541294642857,115.40561552842459L92.34542410714286,115.41891431808472L92.53543526785714,115.46004549662273L93.10546875,114.87884358565013L93.29547991071428,114.94146919250488L93.48549107142857,114.88038436571757L93.67550223214286,115.44332639376323L93.86551339285715,115.77815647919974L94.05552455357143,115.71908231576285L94.24553571428571,116.24978816509247L94.435546875,115.78873431682587L94.62555803571428,115.9455988407135L94.81556919642857,115.53629771868388L95.00558035714286,115.56564903259277L95.19559151785715,138.55315879980725L95.38560267857143,131.16869167486828L95.57561383928571,120.46883738040924L95.765625,127.38584713141124L95.95563616071428,124.67465337117514L96.14564732142857,122.8201114734014L96.33565848214286,124.42584470907848L96.52566964285715,126.60514152050018L96.71568080357142,130.21930889288586L96.90569196428571,127.2869530916214L97.095703125,126.2516253789266L97.47572544642857,123.64989256858826L97.66573660714286,124.4666262070338L97.85574776785715,121.82991441090903L98.04575892857142,123.74138867855072L98.61579241071429,121.2133838335673L98.80580357142857,120.32609121004741L98.99581473214286,121.04397451877594L99.18582589285714,121.39270440737407L99.37583705357143,120.36417361100516L99.56584821428571,119.64084839820862L99.755859375,120.25258179505667L99.94587053571429,120.4429063796997L100.13588169642857,121.24678925673167L100.32589285714286,122.88357849915823L100.70591517857143,122.00605507691702L100.89592633928571,121.65650562445323L101.0859375,121.85038165251414L101.65597098214285,122.6952536503474L101.84598214285714,122.06324970722198L102.03599330357143,122.23782773812613L102.22600446428571,121.58653672536215L102.416015625,120.6767552693685L102.60602678571429,120.8298716545105L102.79603794642858,120.74001467227936L102.98604910714285,120.66506282488506L103.36607142857143,121.47744731108348L103.55608258928572,121.16429742177328L103.74609375,121.2507887283961L103.93610491071429,119.5740484793981L104.69614955357143,205.86890291174254L104.88616071428572,138.17792967955273L105.076171875,130.29909070332846L105.26618303571429,125.7042222817739L105.45619419642857,127.08869512875876L105.64620535714285,123.79436528682709L105.83621651785714,121.47471543153128L106.21623883928572,122.20613793532054L106.59626116071428,124.40500593185425L106.78627232142857,123.37538238366446L106.97628348214286,124.20454061031342L107.16629464285714,122.63417975107829L107.35630580357143,120.93591229120891L107.54631696428572,122.41401211420695L107.736328125,123.52354860305786L108.11635044642857,120.28579052289328L108.30636160714286,119.1656543413798L108.49637276785714,118.93893019358318L108.68638392857143,120.2293389638265L109.06640625,122.25028510888419L109.25641741071428,122.22161130110423L109.44642857142857,120.72183128197989L110.01646205357143,121.71153660615286L110.20647321428572,121.19791046778361L110.396484375,121.59202233950298L110.58649553571428,121.4832935333252L110.77650669642857,121.5975079536438L110.96651785714286,121.65401415030162L111.15652901785715,121.64846297105154L111.53655133928571,122.5157582362493L111.7265625,122.78909917672476L111.91657366071428,122.54513140519461L112.10658482142857,122.62578741709392L112.29659598214286,122.37565652529399L112.48660714285715,122.6556304693222L113.056640625,122.25274380048117L113.24665178571429,122.4901222785314L113.62667410714286,123.26137558619182L113.81668526785715,122.72126114368439L114.00669642857142,122.52742882569632L114.38671875,147.3295731941859L114.57672991071429,134.7815805276235L114.76674107142857,138.55341013272604L115.33677455357142,141.39105713367462L115.52678571428571,140.7289478778839L115.716796875,144.20524275302887L115.90680803571429,144.85105907917023L116.09681919642857,143.93451348940533L116.28683035714286,142.94505949815115L116.47684151785714,142.6229271888733L116.66685267857143,142.5501171350479L116.85686383928571,143.29752659797668L117.23688616071429,140.8399277528127L117.42689732142858,140.03651475906372L117.61690848214285,140.32184318701428L117.80691964285714,140.79166090488434L117.99693080357143,141.74994961420697L118.18694196428571,142.56202812989554L118.56696428571429,141.73142747084302L119.13699776785714,140.1540183623632L119.32700892857143,140.07900094985962L119.89704241071429,141.1391778389613L120.08705357142857,139.44106336434683L120.27706473214285,139.875563343366L120.46707589285714,139.66206149260205L120.65708705357143,139.6631105343501L120.84709821428572,140.23411707083386L121.037109375,140.33161238829297L121.22712053571429,140.29713606834412L121.41713169642857,140.27583833535513L121.60714285714285,139.92974197864532L121.79715401785714,140.02648329734802L121.98716517857143,139.89087279637656L122.17717633928572,139.13910325368246L122.3671875,139.27469189961752L122.55719866071428,139.05475374062857L122.93722098214286,139.21778138478598L123.12723214285714,139.15973440806073L123.31724330357143,139.57659737269086L123.697265625,139.84341458479565L124.07728794642857,155.44301505883536L124.26729910714286,149.38909347852072L124.45731026785714,148.34025935331982L124.64732142857143,141.02717077732086L124.83733258928572,139.17787408828735L125.21735491071428,136.73692878087363L125.40736607142857,139.23167026042938L125.59737723214286,139.31910133361816L125.78738839285714,138.59292403856915L125.97739955357143,138.0046192407608L126.16741071428572,137.5259611606598L126.357421875,134.7193920214971L126.73744419642857,137.52080337206525L126.92745535714286,136.60346007347107L127.11746651785715,137.70428733030957L127.30747767857143,137.9079653422038L127.49748883928571,136.80446084340414L127.6875,138.123783826828L127.87751116071428,139.21092983086905L128.06752232142858,138.5408325592677L128.44754464285714,138.45348890622458L128.63755580357144,138.58896827697754L128.82756696428572,138.06272085507712L129.39760044642858,138.5191742181778L130.15764508928572,140.09504254659018L130.34765625,140.5876987775167L130.53766741071428,141.19546548525494L130.91768973214286,140.70595637957257L131.10770089285714,141.49280325571698L131.29771205357142,141.51920413970947L131.48772321428572,141.7322907447815L131.677734375,141.57278176148733L131.86774553571428,141.52185952663422L132.05775669642858,141.15956858793896L132.24776785714286,140.70455765724182L132.43777901785714,140.68261520067853L132.62779017857142,140.82828994592032L132.81780133928572,141.12762745221457L133.0078125,141.24494528770447L133.38783482142858,133.5755431254705L133.57784598214286,141.682865579923L133.76785714285714,140.48300222555798L133.95786830357142,141.86200038592023L134.14787946428572,139.25962285200757L134.337890625,141.3418395916621L134.52790178571428,142.4013061920802L134.71791294642858,144.64252924919128L134.90792410714286,143.03051269054413L135.09793526785717,143.27554043134054L135.4779575892857,146.04940350850424L135.66796875,143.47390766938528L135.85797991071428,144.8923760255178L136.04799107142858,144.69155009587607L136.23800223214286,142.53617362181348L136.42801339285717,142.38834615548453L136.61802455357142,142.78960462411246L136.8080357142857,143.17547714710236L136.998046875,143.3452252149582L137.18805803571428,143.2411733865738L137.37806919642858,142.02603336175284L137.56808035714286,142.04200939337414L137.94810267857142,142.313121120135L138.1381138392857,141.32416979471844L138.328125,142.1928528547287L138.51813616071428,141.9610801935196L138.70814732142858,141.9832739830017L139.27818080357142,142.3218194246292L139.4681919642857,142.70247952143353L139.658203125,142.35132372379303L139.84821428571428,141.94793438911438L140.03822544642858,141.799298286438L140.22823660714286,141.80418288707733L140.60825892857144,142.28629406293234L140.7982700892857,141.88324348131817L140.98828125,142.0234872500102L141.17829241071428,142.4911194642385L141.36830357142858,142.41958793004355L141.55831473214286,141.84795852502188L141.74832589285714,142.29172503948212L142.318359375,142.519246896108L142.50837053571428,142.05873942375183L142.88839285714286,163.6593832174937L143.07840401785714,145.77938453356427L143.26841517857144,144.51598858833313L143.4584263392857,136.56803305943808L143.6484375,138.66031404336294L144.21847098214286,138.9258527358373L144.40848214285714,139.89183441797894L144.59849330357144,141.02171794573468L144.7885044642857,139.8174945116043L145.16852678571428,141.70628325144452L145.54854910714286,141.31896829605103L145.92857142857144,139.69947731494904L146.30859375,139.63831599553427L146.49860491071428,138.62203494707745L146.68861607142856,139.32524259885153L146.87862723214286,139.66035679976147L147.06863839285714,139.96783530712128L147.44866071428572,140.85133608182272L147.638671875,141.6480505069097L147.82868303571428,141.42992631594342L148.01869419642856,141.5578875541687L148.20870535714286,141.7332851489385L148.39871651785714,141.9306252002716L148.77873883928572,142.51072343190512L148.96875,142.815797885259L149.15876116071428,142.8366148074468L149.34877232142856,143.46378878752392L149.72879464285714,143.3595949014028L149.91880580357144,143.43154168128967L150.10881696428572,143.16589371363324L150.298828125,142.94502671559653L150.67885044642856,142.7341583967209L150.86886160714286,142.82822247346243L151.05887276785714,143.55036751429242L151.24888392857144,143.84101764361066L151.43889508928572,143.9317488272985L151.62890625,144.28153868516287L151.81891741071428,144.67395679155987L152.00892857142856,144.4128765265147L152.19893973214286,144.25874388217926L152.57896205357144,130.00163273016614L152.76897321428572,125.93725160757701L153.14899553571428,139.54138890902203L153.33900669642856,141.58246354262036L153.52901785714286,145.03146147727966L153.71902901785714,144.97256215413412L153.90904017857144,144.0098040898641L154.09905133928572,143.95488238334656L154.2890625,143.11972494920096L154.4790736607143,143.25451588630676L154.66908482142856,143.07752287387848L155.04910714285714,143.41312881310782L155.23911830357142,144.04782092571259L155.42912946428572,144.93454531828564L155.619140625,145.02412911256155L155.8091517857143,143.25325922171277L155.99916294642856,144.77765893936157L156.18917410714286,144.92688512802124L156.37918526785714,146.11579910914105L156.56919642857142,144.19011906782788L156.75920758928572,143.81395018100739L156.94921875,143.96749273935956L157.1392299107143,143.9627501964569L157.32924107142856,143.54409511884054L157.51925223214286,144.4854571024577L157.70926339285714,144.497980038325L157.89927455357142,144.27992141246796L158.08928571428572,144.5221079985301L158.279296875,144.18489571412405L158.4693080357143,144.36738526821136L158.65931919642856,144.1824698050817L158.84933035714286,144.27756106853485L159.03934151785714,143.86255578200024L159.41936383928572,144.18114757537842L159.609375,144.29944888750714L159.7993861607143,143.75614360968274L160.17940848214283,144.08953126271567L160.36941964285714,144.16073497136435L160.55943080357142,144.21471691131592L160.74944196428572,144.28646699587506L160.939453125,144.9029101530711L161.88950892857142,157.6207273801168L162.07952008928572,130.16941384474438L162.26953125,137.9478617111842L162.64955357142858,137.91030383110046L162.83956473214283,137.50753736495972L163.02957589285714,142.39867266019186L163.21958705357142,142.15505456924438L163.40959821428572,144.72636516888937L163.7896205357143,145.35398717721304L163.97963169642858,146.30471404393515L164.16964285714283,145.18128867944083L164.35965401785714,144.3218502998352L164.54966517857142,144.91117135683697L164.73967633928572,144.4826050202052L164.9296875,145.57769532998404L165.11969866071428,144.6195158958435L165.30970982142858,144.51535479227704L165.49972098214286,143.48468220233917L165.68973214285714,144.91711592674255L165.87974330357142,145.8355519771576L166.06975446428572,145.0352096160253L166.44977678571428,146.36588629086813L166.63978794642858,146.4387946923574L166.82979910714286,146.396909515063L167.01981026785714,146.76506853103638L167.20982142857142,147.27360244592032L167.39983258928572,146.86709876855215L167.58984375,147.37338161468506L167.77985491071428,147.4377337694168L167.96986607142858,146.9335271517436L168.53989955357142,146.07369538148245L168.7299107142857,146.32483160495758L168.919921875,146.93939522902173L169.10993303571428,146.576295653979L169.29994419642858,146.21763265132904L169.48995535714286,145.38617964585623L169.86997767857142,144.95662983258566L170.0599888392857,144.8639098405838L170.25,144.83865634600323L170.44001116071428,144.69203090667725L170.63002232142858,144.76050273577374L170.82003348214286,144.80090177059174L171.01004464285717,144.65279018878937L171.20005580357142,144.87667318185171L171.580078125,146.33951818943024L171.77008928571428,144.60504786173504L171.96010044642858,143.85684068997702L172.15011160714286,138.61933585007986L172.34012276785717,144.48502000172934L172.53013392857142,140.62968230247498L172.7201450892857,145.29438849290213L172.91015625,146.05870282649994L173.10016741071428,148.03158974647522L173.29017857142858,147.85196320215863L173.67020089285714,146.45868277549744L173.86021205357144,146.94665110111237L174.0502232142857,146.49609859784445L174.43024553571428,146.43233652909598L174.62025669642858,147.33669793605804L174.81026785714286,147.32405479749045L175.00027901785714,146.78234493732452L175.19029017857144,147.14482164382935L175.3803013392857,147.99805319309235L175.5703125,145.21592891216278L175.76032366071428,146.5610626935959L175.95033482142858,145.2402317126592L176.14034598214286,144.96327376365662L176.33035714285714,145.0716528892517L176.52036830357144,144.41187119483948L176.7103794642857,143.42024262746176L176.900390625,143.58735716342926L177.28041294642858,142.9260674715042L177.47042410714286,143.14209357897442L177.66043526785714,143.77500450611115L177.85044642857144,143.65870292981467L178.0404575892857,144.11884979406994L178.23046875,143.44268774986267L178.61049107142856,144.09622983137768L178.80050223214286,144.43807538350424L179.18052455357144,145.5482893784841L179.37053571428572,145.86579934755963L179.75055803571428,146.06894191106161L180.13058035714286,146.37295639514923L180.70061383928572,146.17207582791647L180.890625,169.68210126956305L181.46065848214286,145.2111208041509L181.65066964285714,147.58667584260306L181.84068080357144,146.14523784319562L182.03069196428572,142.6579826672872L182.220703125,145.76311345895132L182.60072544642856,145.7830124696096L182.79073660714286,147.20342592398327L182.98074776785714,148.7994336684545L183.55078125,149.67194135983786L183.74079241071428,148.66197641690573L184.12081473214286,147.88016712665558L184.31082589285714,146.7410498460134L184.50083705357144,146.36406139532727L184.69084821428572,146.8998594681422L184.880859375,147.5947949886322L185.07087053571428,148.15560615062714L185.26088169642856,147.46460453669232L185.64090401785714,146.83603183428448L185.83091517857144,146.68792025248212L186.02092633928572,147.22135798136395L186.40094866071428,148.28542506694794L186.59095982142856,146.95777531464896L186.78097098214286,147.05749984582266L186.97098214285714,147.1558037996292L187.16099330357144,147.04422291119894L187.35100446428572,146.7197630405426L187.541015625,147.32344285647076L187.7310267857143,147.25581244627637L187.92103794642856,147.36466145515442L188.11104910714286,147.1156451702118L188.30106026785714,147.4639488855998L188.68108258928572,146.8807690938314L188.87109375,145.89492118358612L189.25111607142856,145.924010237058L189.63113839285714,145.89380657672882L189.82114955357142,146.29267191886902L190.3911830357143,151.66379845142365L190.58119419642856,128.5861257314682L190.96121651785714,136.54442962010702L191.15122767857142,140.79705909887952L191.34123883928572,134.48840614159903L191.53125,139.51473669211072L191.7212611607143,139.1029550234477L192.10128348214286,143.96169022719067L192.29129464285714,143.90741324424744L192.67131696428572,143.38017141819L192.861328125,144.6895940701167L193.24135044642858,146.40293057759604L193.43136160714283,147.53564433256787L193.62137276785714,147.33446872234344L193.81138392857142,147.19761248429617L194.00139508928572,146.55728177229565L194.19140625,146.17109235127768L194.3814174107143,147.3375174999237L194.57142857142858,147.6238949696223L194.76143973214283,147.07596735159558L195.14146205357142,147.04824423789978L195.33147321428572,148.29399224122366L195.521484375,147.80864651997885L195.7114955357143,148.12308585643768L195.90150669642858,148.26668437321982L196.09151785714283,148.54594802856445L196.28152901785714,149.1524689992269L196.47154017857142,149.44800372918448L196.66155133928572,148.2281430164973L196.8515625,148.70241916179657L197.23158482142858,148.36951231956482L197.61160714285714,148.36148059368134L197.80161830357142,148.20243056615195L197.99162946428572,148.67100254694623L198.181640625,148.90340900421143L198.37165178571428,147.89535637696585L198.56166294642858,147.90848032633465L198.75167410714286,148.20550119876862L198.94168526785714,147.8532745043437L199.13169642857142,147.33191168308258L199.32170758928572,147.5037141243617L199.51171875,147.78458412488303L199.70172991071428,147.73615336418152L200.08175223214286,131.6679481267929L200.46177455357142,139.71269961198172L200.65178571428572,142.74391667048138L200.841796875,147.24319116274518L201.03180803571428,147.86750213305157L201.41183035714286,150.24747188886008L201.60184151785717,148.737135887146L201.79185267857142,150.57064231236777L201.9818638392857,148.6459676027298L202.171875,147.5198431412379L202.36188616071428,148.28139281272888L202.55189732142858,148.7782342831294L202.93191964285717,148.20552305380505L203.12193080357142,148.91466434796652L203.69196428571428,148.44265019893646L203.88197544642858,147.13489945729575L204.45200892857142,147.52731756369275L204.6420200892857,146.99915782610577L204.83203125,148.16405312220257L205.02204241071428,148.32825001080832L205.21205357142858,148.01603988806409L205.40206473214286,148.00398683547974L205.59207589285717,147.80430829524994L205.78208705357142,148.2052389383316L205.9720982142857,148.05258150895438L206.54213169642858,147.80285493532818L206.73214285714286,148.06188082695007L206.92215401785714,148.308034102122L207.11216517857144,148.1534315745036L207.3021763392857,148.12675750255585L207.68219866071428,148.3616882165273L207.87220982142858,148.69404868284863L208.06222098214286,148.2253892819087L208.25223214285714,148.29758739471436L208.44224330357144,148.4280728896459L208.822265625,147.74437085787457L209.01227678571428,147.97231888771057L209.20228794642858,147.09065393606824L209.39229910714286,146.51367004712424L209.58231026785714,161.84767719109854L209.77232142857144,135.99112566312155L209.9623325892857,136.86900969346365L210.15234375,141.8155147234599L210.34235491071428,143.92450388272604L210.53236607142858,148.9172432422638L210.91238839285714,150.1262420018514L211.2924107142857,151.05544165770215L211.67243303571428,149.57601960500082L211.86244419642856,149.9164008696874L212.05245535714286,151.0925624370575L212.24246651785714,151.58750251928967L212.43247767857144,151.68756580352783L213.00251116071428,149.0481876929601L213.38253348214286,149.1802248954773L213.57254464285714,147.92222714424133L213.95256696428572,148.73834884166718L214.142578125,148.69392848014832L214.33258928571428,148.36532708009085L214.52260044642856,148.21732477347058L214.71261160714286,147.7372461160024L215.09263392857144,147.2164733807246L215.85267857142856,146.6951979796092L216.04268973214286,146.27228116989136L216.23270089285714,146.52660822868347L216.42271205357144,145.979478319486L216.61272321428572,146.17244736353558L217.37276785714286,146.81589241822562L217.56277901785714,146.56905070940655L217.75279017857144,146.973685781161L217.94280133928572,147.3449154297511L218.32282366071428,146.96495469411215L218.51283482142856,147.02037906646729L218.70284598214286,147.2053163846334L219.08286830357144,135.31552092234296L219.27287946428572,143.94020672639212L219.462890625,139.66951406002045L219.84291294642856,146.5088073015213L220.22293526785714,144.1964898109436L220.41294642857144,143.8991957505544L220.60295758928572,147.85877104600272L220.9829799107143,147.56757454077405L221.17299107142856,147.91848993301392L221.36300223214286,148.74056712786359L221.55301339285714,148.6293577750524L221.74302455357142,148.60816931724548L221.93303571428572,149.2708795865377L222.123046875,149.63450368245444L222.3130580357143,148.07112550735474L222.50306919642856,147.77045484383902L222.69308035714286,147.99521203835806L222.88309151785714,148.14076658089957L223.07310267857142,148.04215665658316L223.26311383928572,147.77133997281393L223.6431361607143,148.54616657892865L223.83314732142856,149.01290273666382L224.02315848214286,148.48613079388937L224.40318080357142,147.47675593694052L224.59319196428572,147.4099778731664L224.783203125,147.07590178648633L224.9732142857143,147.30533595879874L225.35323660714286,146.97731371720633L225.54324776785714,147.00515703360242L225.73325892857142,146.5865893761317L225.92327008928572,146.94924092292786L226.49330357142858,147.17823799451193L226.68331473214283,147.21805787086487L226.87332589285714,146.9889405965805L227.06333705357142,146.97350001335144L227.82338169642858,146.91004391511282L228.20340401785714,147.60048822561902L228.39341517857142,147.28970960776013L228.58342633928572,150.56643521785736L228.7734375,156.3284827868144L228.9634486607143,152.11560761928558L229.15345982142858,151.64766943454742L229.34347098214283,146.31042913595837L229.53348214285714,143.83590356508893L229.72349330357142,141.7205108801524L229.91350446428572,144.88477047284445L230.103515625,144.28798592090607L230.2935267857143,144.16246151924133L230.48353794642858,144.43213081359863L230.67354910714283,144.55675915877026L230.86356026785714,141.45019686222076L231.24358258928572,142.85933311780295L231.43359375,144.39723924795788L231.62360491071428,145.64685559272766L231.81361607142858,145.73036368687949L232.00362723214286,146.39528131484985L232.19363839285714,145.71134980519614L232.38364955357142,146.01234829425812L232.95368303571428,146.86681465307873L233.14369419642858,148.07325637340546L233.52371651785714,146.15190362930298L233.71372767857142,146.12879192829132L233.90373883928572,147.07657929261526L234.09375,146.40005664030713L234.28376116071428,146.5162052313487L234.47377232142858,146.1765670379003L234.66378348214286,146.30408024787903L234.85379464285717,147.23902777830762L235.04380580357142,146.6956897179286L235.2338169642857,147.17455542087555L235.61383928571428,147.31526907285055L235.80385044642858,146.75286249319714L236.18387276785717,146.16228477160138L236.37388392857142,146.22928138573965L236.75390625,146.62159021695456L236.94391741071428,146.5942495663961L237.13392857142858,146.17464379469556L237.32393973214286,146.8699945608775L237.51395089285717,146.80937961737317L237.70396205357142,146.9033234914144L237.8939732142857,146.98882039388022L238.083984375,126.48558354377747L238.27399553571428,126.13135711352031L238.65401785714286,143.78221666812897L238.84402901785717,143.5427947441737L239.03404017857142,138.30378190676373L239.4140625,144.10204327106476L239.60407366071428,142.91583931446075L239.79408482142858,141.23214916388196L239.98409598214286,142.15514198939007L240.17410714285714,143.4221440156301L240.36411830357144,144.62575550874075L240.5541294642857,144.25697362422943L240.744140625,144.84362836678824L240.93415178571428,145.34165000915527L241.12416294642858,145.0394276380539L241.8842075892857,146.78930576642355L242.07421875,146.93808392683667L242.26422991071428,147.60017132759094L242.64425223214286,147.47093156973523L242.83426339285714,147.20256265004477L243.02427455357144,146.51680624485016L243.2142857142857,146.52058716615042L243.404296875,146.97871243953705L243.59430803571428,147.1996122201284L243.78431919642858,146.9133549531301L244.16434151785714,147.44224683443707L244.35435267857144,147.22135798136395L244.5443638392857,147.3210060199102L244.92438616071428,147.66087369124097L245.11439732142856,147.2905728816986L245.30440848214286,147.6922465960185L245.49441964285714,147.2930206457774L245.87444196428572,147.24256829420727L246.064453125,147.24548594156903L246.25446428571428,147.3656230767568L246.44447544642856,147.60378833611807L246.63448660714286,147.6165953874588L246.82449776785714,147.39887551466626L247.39453125,146.85108995437622L247.58454241071428,114.73342017332713L248.15457589285714,141.9371707836787L248.34458705357144,144.74011198679608L248.53459821428572,149.62128138542175L248.91462053571428,151.5367551247279L249.10463169642856,150.59675908088684L249.29464285714286,150.4714641571045L249.67466517857144,146.70225715637207L249.86467633928572,146.7450383901596L250.0546875,147.40433927377066L250.43470982142856,146.57201206684113L250.62472098214286,145.83213166395825L250.81473214285714,145.03074026107788L251.00474330357144,146.00905911127728L251.19475446428572,147.01157148679098L251.384765625,146.58727780977887L251.57477678571428,146.47863642374676L251.95479910714286,146.94441095987958L252.52483258928572,148.11039900779724L252.71484375,147.54704173405966L253.28487723214286,148.18008379141492L253.47488839285714,147.81221981843314L253.66489955357144,146.79375326633453L253.85491071428572,147.152547399203L254.044921875,147.5473149220149L254.42494419642856,147.53626720110577L254.61495535714286,147.74147506554922L254.80496651785714,146.57824075222015L254.99497767857142,147.07628424962363L255.18498883928572,147.13538026809692L255.375,147.87384009361267L255.5650111607143,147.56406680742901L255.75502232142856,147.75765872001648L255.94503348214286,147.48251473903656L256.13504464285717,147.59041305383047L256.3250558035714,147.95852835973105L256.5150669642857,148.32990006605786L256.705078125,148.11435476938885L256.8950892857143,148.45019018650055" style="fill: none;" fill="none"></path></g></g></g></g></g></g><g transform="translate(63, 176)" clip-path="url(#clip_1)"><clipPath id="clip_1"><rect width="266" height="24"></rect></clipPath><g><g><line x1="0" y1="0" x2="0" y2="5" style="visibility: inherit;" fill="rgb(0, 0, 0)" stroke="rgb(204, 204, 204)" stroke-width="1px"></line><line x1="19.00111607142857" y1="0" x2="19.00111607142857" y2="5" style="visibility: inherit;" fill="rgb(0, 0, 0)" stroke="rgb(204, 204, 204)" stroke-width="1px"></line><line x1="38.00223214285714" y1="0" x2="38.00223214285714" y2="5" style="visibility: inherit;" fill="rgb(0, 0, 0)" stroke="rgb(204, 204, 204)" stroke-width="1px"></line><line x1="57.00334821428571" y1="0" x2="57.00334821428571" y2="5" style="visibility: inherit;" fill="rgb(0, 0, 0)" stroke="rgb(204, 204, 204)" stroke-width="1px"></line><line x1="76.00446428571428" y1="0" x2="76.00446428571428" y2="5" style="visibility: inherit;" fill="rgb(0, 0, 0)" stroke="rgb(204, 204, 204)" stroke-width="1px"></line><line x1="95.00558035714286" y1="0" x2="95.00558035714286" y2="5" style="visibility: inherit;" fill="rgb(0, 0, 0)" stroke="rgb(204, 204, 204)" stroke-width="1px"></line><line x1="114.00669642857142" y1="0" x2="114.00669642857142" y2="5" style="visibility: inherit;" fill="rgb(0, 0, 0)" stroke="rgb(204, 204, 204)" stroke-width="1px"></line><line x1="133.0078125" y1="0" x2="133.0078125" y2="5" style="visibility: inherit;" fill="rgb(0, 0, 0)" stroke="rgb(204, 204, 204)" stroke-width="1px"></line><line x1="152.00892857142856" y1="0" x2="152.00892857142856" y2="5" style="visibility: inherit;" fill="rgb(0, 0, 0)" stroke="rgb(204, 204, 204)" stroke-width="1px"></line><line x1="171.01004464285717" y1="0" x2="171.01004464285717" y2="5" style="visibility: inherit;" fill="rgb(0, 0, 0)" stroke="rgb(204, 204, 204)" stroke-width="1px"></line><line x1="190.01116071428572" y1="0" x2="190.01116071428572" y2="5" style="visibility: inherit;" fill="rgb(0, 0, 0)" stroke="rgb(204, 204, 204)" stroke-width="1px"></line><line x1="209.01227678571428" y1="0" x2="209.01227678571428" y2="5" style="visibility: inherit;" fill="rgb(0, 0, 0)" stroke="rgb(204, 204, 204)" stroke-width="1px"></line><line x1="228.01339285714283" y1="0" x2="228.01339285714283" y2="5" style="visibility: inherit;" fill="rgb(0, 0, 0)" stroke="rgb(204, 204, 204)" stroke-width="1px"></line><line x1="247.01450892857144" y1="0" x2="247.01450892857144" y2="5" style="visibility: inherit;" fill="rgb(0, 0, 0)" stroke="rgb(204, 204, 204)" stroke-width="1px"></line><line x1="266.015625" y1="0" x2="266.015625" y2="5" style="visibility: inherit;" fill="rgb(0, 0, 0)" stroke="rgb(204, 204, 204)" stroke-width="1px"></line></g><g transform="translate(0, 8)"><text x="0" y="0" dx="0em" dy="0.95em" style="text-anchor: middle; visibility: hidden; font-family: Roboto, sans-serif; font-size: 12px; font-weight: 200;" fill="rgb(33, 33, 33)" stroke="none" stroke-width="1px">-10k</text><text x="19.00111607142857" y="0" dx="0em" dy="0.95em" style="text-anchor: middle; visibility: inherit; font-family: Roboto, sans-serif; font-size: 12px; font-weight: 200;" fill="rgb(33, 33, 33)" stroke="none" stroke-width="1px">0</text><text x="38.00223214285714" y="0" dx="0em" dy="0.95em" style="text-anchor: middle; visibility: hidden; font-family: Roboto, sans-serif; font-size: 12px; font-weight: 200;" fill="rgb(33, 33, 33)" stroke="none" stroke-width="1px">10k</text><text x="57.00334821428571" y="0" dx="0em" dy="0.95em" style="text-anchor: middle; visibility: inherit; font-family: Roboto, sans-serif; font-size: 12px; font-weight: 200;" fill="rgb(33, 33, 33)" stroke="none" stroke-width="1px">20k</text><text x="76.00446428571428" y="0" dx="0em" dy="0.95em" style="text-anchor: middle; visibility: hidden; font-family: Roboto, sans-serif; font-size: 12px; font-weight: 200;" fill="rgb(33, 33, 33)" stroke="none" stroke-width="1px">30k</text><text x="95.00558035714286" y="0" dx="0em" dy="0.95em" style="text-anchor: middle; visibility: inherit; font-family: Roboto, sans-serif; font-size: 12px; font-weight: 200;" fill="rgb(33, 33, 33)" stroke="none" stroke-width="1px">40k</text><text x="114.00669642857142" y="0" dx="0em" dy="0.95em" style="text-anchor: middle; visibility: hidden; font-family: Roboto, sans-serif; font-size: 12px; font-weight: 200;" fill="rgb(33, 33, 33)" stroke="none" stroke-width="1px">50k</text><text x="133.0078125" y="0" dx="0em" dy="0.95em" style="text-anchor: middle; visibility: inherit; font-family: Roboto, sans-serif; font-size: 12px; font-weight: 200;" fill="rgb(33, 33, 33)" stroke="none" stroke-width="1px">60k</text><text x="152.00892857142856" y="0" dx="0em" dy="0.95em" style="text-anchor: middle; visibility: hidden; font-family: Roboto, sans-serif; font-size: 12px; font-weight: 200;" fill="rgb(33, 33, 33)" stroke="none" stroke-width="1px">70k</text><text x="171.01004464285717" y="0" dx="0em" dy="0.95em" style="text-anchor: middle; visibility: inherit; font-family: Roboto, sans-serif; font-size: 12px; font-weight: 200;" fill="rgb(33, 33, 33)" stroke="none" stroke-width="1px">80k</text><text x="190.01116071428572" y="0" dx="0em" dy="0.95em" style="text-anchor: middle; visibility: hidden; font-family: Roboto, sans-serif; font-size: 12px; font-weight: 200;" fill="rgb(33, 33, 33)" stroke="none" stroke-width="1px">90k</text><text x="209.01227678571428" y="0" dx="0em" dy="0.95em" style="text-anchor: middle; visibility: inherit; font-family: Roboto, sans-serif; font-size: 12px; font-weight: 200;" fill="rgb(33, 33, 33)" stroke="none" stroke-width="1px">100k</text><text x="228.01339285714283" y="0" dx="0em" dy="0.95em" style="text-anchor: middle; visibility: hidden; font-family: Roboto, sans-serif; font-size: 12px; font-weight: 200;" fill="rgb(33, 33, 33)" stroke="none" stroke-width="1px">110k</text><text x="247.01450892857144" y="0" dx="0em" dy="0.95em" style="text-anchor: middle; visibility: inherit; font-family: Roboto, sans-serif; font-size: 12px; font-weight: 200;" fill="rgb(33, 33, 33)" stroke="none" stroke-width="1px">120k</text><text x="266.015625" y="0" dx="0em" dy="0.95em" style="text-anchor: middle; visibility: hidden; font-family: Roboto, sans-serif; font-size: 12px; font-weight: 200;" fill="rgb(33, 33, 33)" stroke="none" stroke-width="1px">130k</text></g><line x1="0" y1="0" x2="266.015625" y2="0" fill="rgb(0, 0, 0)" stroke="rgb(204, 204, 204)" stroke-width="1px"></line></g></g></g></g></svg>