<svg viewBox="0 0 330 200" xmlns="http://www.w3.org/2000/svg"><g><g><g><g><g><line x1="42.390625" y1="176" x2="37.390625" y2="176" style="visibility: inherit;" fill="rgb(0, 0, 0)" stroke="rgb(204, 204, 204)" stroke-width="1px"></line><line x1="42.390625" y1="160" x2="37.390625" y2="160" style="visibility: inherit;" fill="rgb(0, 0, 0)" stroke="rgb(204, 204, 204)" stroke-width="1px"></line><line x1="42.390625" y1="144" x2="37.390625" y2="144" style="visibility: inherit;" fill="rgb(0, 0, 0)" stroke="rgb(204, 204, 204)" stroke-width="1px"></line><line x1="42.390625" y1="128" x2="37.390625" y2="128" style="visibility: inherit;" fill="rgb(0, 0, 0)" stroke="rgb(204, 204, 204)" stroke-width="1px"></line><line x1="42.390625" y1="112" x2="37.390625" y2="112" style="visibility: inherit;" fill="rgb(0, 0, 0)" stroke="rgb(204, 204, 204)" stroke-width="1px"></line><line x1="42.390625" y1="96" x2="37.390625" y2="96" style="visibility: inherit;" fill="rgb(0, 0, 0)" stroke="rgb(204, 204, 204)" stroke-width="1px"></line><line x1="42.390625" y1="80" x2="37.390625" y2="80" style="visibility: inherit;" fill="rgb(0, 0, 0)" stroke="rgb(204, 204, 204)" stroke-width="1px"></line><line x1="42.390625" y1="64.00000000000003" x2="37.390625" y2="64.00000000000003" style="visibility: inherit;" fill="rgb(0, 0, 0)" stroke="rgb(204, 204, 204)" stroke-width="1px"></line><line x1="42.390625" y1="48" x2="37.390625" y2="48" style="visibility: inherit;" fill="rgb(0, 0, 0)" stroke="rgb(204, 204, 204)" stroke-width="1px"></line><line x1="42.390625" y1="32.000000000000014" x2="37.390625" y2="32.000000000000014" style="visibility: inherit;" fill="rgb(0, 0, 0)" stroke="rgb(204, 204, 204)" stroke-width="1px"></line><line x1="42.390625" y1="16.000000000000007" x2="37.390625" y2="16.000000000000007" style="visibility: inherit;" fill="rgb(0, 0, 0)" stroke="rgb(204, 204, 204)" stroke-width="1px"></line><line x1="42.390625" y1="0" x2="37.390625" y2="0" style="visibility: inherit;" fill="rgb(0, 0, 0)" stroke="rgb(204, 204, 204)" stroke-width="1px"></line></g><g transform="translate(32.390625, 0)"><text x="0" y="176" dx="0em" dy="0.3em" style="text-anchor: end; visibility: hidden; font-family: Roboto, sans-serif; font-size: 12px; font-weight: 200;" fill="rgb(33, 33, 33)" stroke="none" stroke-width="1px">0</text><text x="0" y="160" dx="0em" dy="0.3em" style="text-anchor: end; visibility: inherit; font-family: Roboto, sans-serif; font-size: 12px; font-weight: 200;" fill="rgb(33, 33, 33)" stroke="none" stroke-width="1px">0.1</text><text x="0" y="144" dx="0em" dy="0.3em" style="text-anchor: end; visibility: hidden; font-family: Roboto, sans-serif; font-size: 12px; font-weight: 200;" fill="rgb(33, 33, 33)" stroke="none" stroke-width="1px">0.2</text><text x="0" y="128" dx="0em" dy="0.3em" style="text-anchor: end; visibility: inherit; font-family: Roboto, sans-serif; font-size: 12px; font-weight: 200;" fill="rgb(33, 33, 33)" stroke="none" stroke-width="1px">0.3</text><text x="0" y="112" dx="0em" dy="0.3em" style="text-anchor: end; visibility: hidden; font-family: Roboto, sans-serif; font-size: 12px; font-weight: 200;" fill="rgb(33, 33, 33)" stroke="none" stroke-width="1px">0.4</text><text x="0" y="96" dx="0em" dy="0.3em" style="text-anchor: end; visibility: inherit; font-family: Roboto, sans-serif; font-size: 12px; font-weight: 200;" fill="rgb(33, 33, 33)" stroke="none" stroke-width="1px">0.5</text><text x="0" y="80" dx="0em" dy="0.3em" style="text-anchor: end; visibility: hidden; font-family: Roboto, sans-serif; font-size: 12px; font-weight: 200;" fill="rgb(33, 33, 33)" stroke="none" stroke-width="1px">0.6</text><text x="0" y="64.00000000000003" dx="0em" dy="0.3em" style="text-anchor: end; visibility: inherit; font-family: Roboto, sans-serif; font-size: 12px; font-weight: 200;" fill="rgb(33, 33, 33)" stroke="none" stroke-width="1px">0.7</text><text x="0" y="48" dx="0em" dy="0.3em" style="text-anchor: end; visibility: hidden; font-family: Roboto, sans-serif; font-size: 12px; font-weight: 200;" fill="rgb(33, 33, 33)" stroke="none" stroke-width="1px">0.8</text><text x="0" y="32.000000000000014" dx="0em" dy="0.3em" style="text-anchor: end; visibility: inherit; font-family: Roboto, sans-serif; font-size: 12px; font-weight: 200;" fill="rgb(33, 33, 33)" stroke="none" stroke-width="1px">0.9</text><text x="0" y="16.000000000000007" dx="0em" dy="0.3em" style="text-anchor: end; visibility: hidden; font-family: Roboto, sans-serif; font-size: 12px; font-weight: 200;" fill="rgb(33, 33, 33)" stroke="none" stroke-width="1px">1</text><text x="0" y="0" dx="0em" dy="0.3em" style="text-anchor: end; visibility: hidden; font-family: Roboto, sans-serif; font-size: 12px; font-weight: 200;" fill="rgb(33, 33, 33)" stroke="none" stroke-width="1px">1.1</text></g><line x1="42.390625" y1="0" x2="42.390625" y2="176" fill="rgb(0, 0, 0)" stroke="rgb(204, 204, 204)" stroke-width="1px"></line></g></g><g transform="translate(42, 0)" clip-path="url(#clip_0)"><clipPath id="clip_0"><rect width="287" height="176"></rect></clipPath><g><g><g><line x1="0" y1="0" x2="0" y2="176" fill="rgb(0, 0, 0)" stroke="rgb(66, 66, 66)" stroke-width="1px" opacity="0.25"></line><line x1="20.543526785714285" y1="0" x2="20.543526785714285" y2="176" fill="rgb(0, 0, 0)" stroke="rgb(66, 66, 66)" stroke-width="1px" opacity="0.25"></line><line x1="41.08705357142857" y1="0" x2="41.08705357142857" y2="176" fill="rgb(0, 0, 0)" stroke="rgb(66, 66, 66)" stroke-width="1px" opacity="0.25"></line><line x1="61.630580357142854" y1="0" x2="61.630580357142854" y2="176" fill="rgb(0, 0, 0)" stroke="rgb(66, 66, 66)" stroke-width="1px" opacity="0.25"></line><line x1="82.17410714285714" y1="0" x2="82.17410714285714" y2="176" fill="rgb(0, 0, 0)" stroke="rgb(66, 66, 66)" stroke-width="1px" opacity="0.25"></line><line x1="102.71763392857143" y1="0" x2="102.71763392857143" y2="176" fill="rgb(0, 0, 0)" stroke="rgb(66, 66, 66)" stroke-width="1px" opacity="0.25"></line><line x1="123.26116071428571" y1="0" x2="123.26116071428571" y2="176" fill="rgb(0, 0, 0)" stroke="rgb(66, 66, 66)" stroke-width="1px" opacity="0.25"></line><line x1="143.8046875" y1="0" x2="143.8046875" y2="176" fill="rgb(0, 0, 0)" stroke="rgb(66, 66, 66)" stroke-width="1px" opacity="0.25"></line><line x1="164.34821428571428" y1="0" x2="164.34821428571428" y2="176" fill="rgb(0, 0, 0)" stroke="rgb(66, 66, 66)" stroke-width="1px" opacity="0.25"></line><line x1="184.89174107142858" y1="0" x2="184.89174107142858" y2="176" fill="rgb(0, 0, 0)" stroke="rgb(66, 66, 66)" stroke-width="1px" opacity="0.25"></line><line x1="205.43526785714286" y1="0" x2="205.43526785714286" y2="176" fill="rgb(0, 0, 0)" stroke="rgb(66, 66, 66)" stroke-width="1px" opacity="0.25"></line><line x1="225.97879464285714" y1="0" x2="225.97879464285714" y2="176" fill="rgb(0, 0, 0)" stroke="rgb(66, 66, 66)" stroke-width="1px" opacity="0.25"></line><line x1="246.52232142857142" y1="0" x2="246.52232142857142" y2="176" fill="rgb(0, 0, 0)" stroke="rgb(66, 66, 66)" stroke-width="1px" opacity="0.25"></line><line x1="267.0658482142857" y1="0" x2="267.0658482142857" y2="176" fill="rgb(0, 0, 0)" stroke="rgb(66, 66, 66)" stroke-width="1px" opacity="0.25"></line><line x1="287.609375" y1="0" x2="287.609375" y2="176" fill="rgb(0, 0, 0)" stroke="rgb(66, 66, 66)" stroke-width="1px" opacity="0.25"></line></g><g><line x1="0" y1="176" x2="287.609375" y2="176" fill="rgb(0, 0, 0)" stroke="rgb(66, 66, 66)" stroke-width="1px" opacity="0.25"></line><line x1="0" y1="160" x2="287.609375" y2="160" fill="rgb(0, 0, 0)" stroke="rgb(66, 66, 66)" stroke-width="1px" opacity="0.25"></line><line x1="0" y1="144" x2="287.609375" y2="144" fill="rgb(0, 0, 0)" stroke="rgb(66, 66, 66)" stroke-width="1px" opacity="0.25"></line><line x1="0" y1="128" x2="287.609375" y2="128" fill="rgb(0, 0, 0)" stroke="rgb(66, 66, 66)" stroke-width="1px" opacity="0.25"></line><line x1="0" y1="112" x2="287.609375" y2="112" fill="rgb(0, 0, 0)" stroke="rgb(66, 66, 66)" stroke-width="1px" opacity="0.25"></line><line x1="0" y1="96" x2="287.609375" y2="96" fill="rgb(0, 0, 0)" stroke="rgb(66, 66, 66)" stroke-width="1px" opacity="0.25"></line><line x1="0" y1="80" x2="287.609375" y2="80" fill="rgb(0, 0, 0)" stroke="rgb(66, 66, 66)" stroke-width="1px" opacity="0.25"></line><line x1="0" y1="64.00000000000003" x2="287.609375" y2="64.00000000000003" fill="rgb(0, 0, 0)" stroke="rgb(66, 66, 66)" stroke-width="1px" opacity="0.25"></line><line x1="0" y1="48" x2="287.609375" y2="48" fill="rgb(0, 0, 0)" stroke="rgb(66, 66, 66)" stroke-width="1px" opacity="0.25"></line><line x1="0" y1="32.000000000000014" x2="287.609375" y2="32.000000000000014" fill="rgb(0, 0, 0)" stroke="rgb(66, 66, 66)" stroke-width="1px" opacity="0.25"></line><line x1="0" y1="16.000000000000007" x2="287.609375" y2="16.000000000000007" fill="rgb(0, 0, 0)" stroke="rgb(66, 66, 66)" stroke-width="1px" opacity="0.25"></line><line x1="0" y1="0" x2="287.609375" y2="0" fill="rgb(0, 0, 0)" stroke="rgb(66, 66, 66)" stroke-width="1px" opacity="0.25"></line></g></g></g><g><g><line x1="0" y1="176" x2="287.609375" y2="176" fill="rgb(0, 0, 0)" stroke="rgb(153, 153, 153)" stroke-width="1.5px"></line></g></g><g><g><line x1="20.543526785714285" y1="0" x2="20.543526785714285" y2="176" fill="rgb(0, 0, 0)" stroke="rgb(153, 153, 153)" stroke-width="1.5px"></line></g></g><g><g><g><g><g><path stroke="rgb(255, 112, 67)" stroke-width="2px" d="M20.74896205357143,22.223306655883803L21.159832589285713,47.82031273841861L21.365267857142857,60.36198331871813L21.570703124999998,68.73270140675939L22.187008928571426,77.54656758331576L22.597879464285715,83.97980635173852L22.803314732142855,88.47892431376556L23.00875,91.62536196015596L23.625055803571428,95.17495642406217L23.83049107142857,97.53137200917823L24.035926339285716,99.36134486150011L24.241361607142856,100.78052199585119L24.446796875,101.82320628080961L24.652232142857144,102.7796521458701L24.857667410714285,103.65915101219272L25.26853794642857,104.68854491140524L25.473973214285714,105.56363594088288L25.884843749999998,106.61692585045009L26.090279017857146,107.52418532809104L26.295714285714286,108.26035186349024L26.501149553571427,108.90358850999472L26.70658482142857,109.43324589286723L26.912020089285715,109.80463659541395L27.11745535714286,110.21829646005116L27.322890625,110.57827923821723L27.52832589285714,110.94158257305983L27.733761160714288,111.29566699302987L28.14463169642857,111.78058614729052L28.350066964285716,112.14760444811631L28.555502232142857,112.45060382777399L28.7609375,112.73774247696362L28.96637276785714,113.05897623073822L29.37724330357143,113.51063714856045L29.58267857142857,113.89297707242963L30.198984375,114.4593103468214L30.404419642857142,114.91871632452568L30.609854910714287,115.31178010537549L30.815290178571427,115.64989422109697L31.02072544642857,121.30444383895723L31.226160714285715,125.35232687702265L31.43159598214286,128.49388628681433L31.63703125,130.51887281920565L31.84246651785714,131.70735449936166L32.04790178571429,132.43598458389852L32.45877232142857,132.61508692040167L32.664207589285716,132.94453127823812L33.075078125000005,132.83297662521505L33.280513392857145,132.6510993753935L33.485948660714286,132.48442259520456L33.691383928571426,132.41254991942685L34.102254464285714,132.43407589587008L34.307689732142855,132.4964299582986L34.513125,132.56672508618536L34.71856026785714,132.57940120161356L35.129430803571424,132.74649745619774L35.33486607142857,132.89272803304488L35.54030133928571,133.04216910742463L35.74573660714286,133.18252726401533L36.15660714285715,133.200038361583L36.56747767857143,133.14804502012365L36.772912946428576,133.15696055699607L36.97834821428571,133.10706734066736L37.18378348214286,133.09209265354593L37.38921875,133.09128464486193L37.594654017857145,133.08483556047673L37.800089285714286,133.1073542781806L38.005524553571426,133.1788202970109L38.210959821428574,133.19038505845555L38.416395089285714,133.17708503897958L38.621830357142855,133.14367625532134L38.827265625,133.14858864198675L39.03270089285714,133.14244946509928L39.238136160714284,133.1315294782539L39.649006696428565,133.15995253802657L40.05987723214286,133.20331634093117L40.2653125,133.24336698656555L40.47074776785714,133.24914976957606L41.08705357142857,133.32810657622315L41.29248883928572,135.5959673011416L41.49792410714286,136.45834026838028L41.908794642857146,136.90474869075229L42.114229910714286,137.372329385655L42.52510044642857,137.68043231462053L42.730535714285715,137.92674598392614L42.93597098214286,138.3640506344841L43.141406249999996,138.9000177906636L43.34684151785714,139.26495784084102L43.55227678571429,139.47031579947532L43.757712053571424,139.63599578461682L44.16858258928572,139.82630801154158L44.37401785714285,139.9368313309728L44.579453125,139.9786597345578L44.78488839285715,140.069193139929L44.99032366071428,140.13865943864494L45.19575892857143,140.08906972477143L45.40119419642857,140.07372591536821L45.60662946428571,139.9575860359763L45.81206473214286,139.89190658679576L46.0175,139.8936366125999L46.428370535714286,139.84474024087538L46.63380580357143,139.8905309731385L46.839241071428575,139.90881199208624L47.044676339285715,139.9476679478152L47.250111607142856,139.96763126337908L47.455546875,139.96405768563977L47.66098214285714,140.00726075274127L47.866417410714284,140.05110308708177L48.277287946428565,140.11117428053274L48.68815848214286,140.13508530562436L48.89359375,140.09911797109433L49.09902901785714,140.05212024249548L49.30446428571429,139.9917846882219L49.50989955357143,139.95419480585306L49.71533482142857,139.92039133419541L50.12620535714286,139.88127132242886L50.331640625,139.8912685155032L50.53707589285714,139.891079392383L50.74251116071429,139.89966056725353L50.94794642857143,139.90947750795465L51.15338169642857,139.88083512537827L51.56425223214286,143.35729059549064L51.975122767857144,143.87505055053168L52.18055803571429,144.0841897999235L52.385993303571425,144.45913166254687L52.79686383928572,144.13277002841193L53.00229910714285,143.9201864997742L53.207734375,143.74716709853396L53.41316964285714,143.67120370150317L53.61860491071428,143.6988030009312L53.82404017857143,143.656168969443L54.02947544642857,143.6753492545906L54.23491071428572,143.67085190962692L54.44034598214286,143.6351067802366L54.64578125,143.6028068888817L54.85121651785715,143.57525873354874L55.26208705357143,143.62770338160874L55.467522321428575,143.66536619247844L55.67295758928571,143.7270521282068L55.878392857142856,143.80476746314233L56.083828125000004,143.7845202526657L56.494698660714285,143.794891038013L56.70013392857143,143.8572401037648L56.90556919642857,143.9180565256378L57.11100446428571,143.982804702431L57.31643973214286,144.07671208781605L57.72731026785714,144.0691870427287L57.93274553571428,144.1023249850366L58.13818080357143,144.12843524370754L58.34361607142857,144.08790709349014L58.54905133928571,144.06222263439L58.75448660714286,144.0573510138005L58.959921875,144.05036729620755L59.576227678571435,144.04951969413077L59.78166294642857,143.98675527350971L59.987098214285716,143.8958100687079L60.19253348214286,143.85444847408604L60.39796875,143.85700864591405L60.808839285714285,143.81705896257282L61.21970982142857,143.798447848552L61.425145089285714,143.80808653902622L61.630580357142854,143.80085400624046L61.836015625,146.65344521929603L62.24688616071429,147.3865606160747L62.45232142857143,148.0402226550452L62.65775669642857,148.57502947467995L62.86319196428572,148.61383673082847L63.06862723214285,148.58912742454447L63.2740625,148.5281678457179L63.47949776785715,148.36889426822174L63.68493303571428,148.29864349910446L63.89036830357143,148.1168646272947L64.09580357142858,148.01393992048082L64.50667410714286,147.841693343768L64.712109375,147.71152426126568L64.91754464285714,147.58859725787025L65.12297991071428,147.45773694511522L65.53385044642857,147.2719028329627L65.73928571428571,147.17103201960182L65.94472098214285,147.08943046816978L66.15015625000001,146.9715064864683L66.35559151785714,146.91611960538194L66.56102678571429,146.9218717754362L66.76646205357143,146.94522053840623L66.97189732142857,146.9679253986053L67.17733258928571,146.87950420919492L67.79363839285715,146.7866689714398L67.99907366071429,146.72197086528575L68.20450892857143,146.6682746822574L68.40994419642857,146.62776477425922L68.61537946428571,146.62762398296374L68.82081473214286,146.613480441414L69.02625,146.57045414009252L69.23168526785715,146.54133483146762L69.43712053571429,146.48687498793086L69.64255580357143,146.46791959419897L69.84799107142857,146.48967223534018L70.25886160714285,146.47593034010546L70.464296875,146.46363876284013L70.87516741071428,146.49591854823143L71.08060267857142,146.5195464826376L71.28603794642858,146.55057943682377L71.49147321428572,146.5605102826387L71.69690848214286,146.57656915481272L71.90234375,146.59096235928166L72.51864955357144,148.43044983683367L72.72408482142856,149.25836069189512L72.92952008928572,149.7248280453861L73.13495535714286,150.12306802321555L73.54582589285715,150.6173173001354L73.7512611607143,150.98527132337955L73.95669642857142,150.96281482497255L74.16213169642856,150.79364214968325L74.57300223214285,150.6798189796903L74.7784375,150.59905483233322L75.18930803571429,150.4321433181011L75.60017857142857,150.29503866877815L75.80561383928571,150.14907615689432L76.21648437500001,149.94701958482264L76.42191964285715,149.76881123056887L76.83279017857143,149.59870338720606L77.03822544642857,149.48499336411075L77.24366071428571,149.42131160837124L77.44909598214286,149.40365328277176L77.85996651785715,149.29475544622557L78.06540178571429,149.23473061758887L78.27083705357143,149.16929200672274L78.47627232142857,149.13015186418988L78.68170758928572,149.11313941258132L78.88714285714286,149.142491305935L79.092578125,149.13600595299462L79.29801339285713,149.15170225801504L79.50344866071428,149.1486536103632L79.70888392857142,149.17041927803433L79.91431919642856,149.17769178288506L80.11975446428572,149.17268352828816L80.32518973214286,149.15748966409205L80.530625,149.13844368859193L81.35236607142858,149.10744479897062L81.55780133928572,149.09145281077886L81.76323660714286,149.06036942816652L81.968671875,149.00247188578174L82.17410714285714,148.96788880926448L82.37954241071428,149.54891508640097L82.58497767857143,149.52354270113258L82.99584821428572,149.95558012659995L83.20128348214287,150.38540156564503L83.40671875,150.6701928131663L83.61215401785714,150.9396021457245L83.81758928571429,150.9641103322345L84.02302455357143,151.0873109564208L84.22845982142857,151.265754989685L84.63933035714285,151.3438678573974L84.844765625,151.36774821230222L85.05020089285713,151.30135552375586L85.25563616071429,151.25685930424373L85.46107142857143,151.19261922939683L85.66650669642857,151.1394801527504L86.07737723214285,151.15763409079574L86.28281249999999,151.15398768866933L86.48824776785715,151.13433520963716L86.69368303571429,151.09707394224958L86.89911830357143,151.11712803234192L87.30998883928571,151.19199904077968L87.51542410714285,151.20384345217775L87.92629464285714,151.20449944594046L88.33716517857144,151.21338360463702L88.54260044642858,151.1907914695449L88.7480357142857,151.13437425001308L88.95347098214286,151.10923668684867L89.15890625,151.11383607949202L89.36434151785714,151.11059901097647L89.77521205357144,151.03031147110005L89.98064732142856,150.9393924032899L90.1860825892857,150.90852069588018L90.596953125,150.887877653429L90.80238839285714,150.86719581507987L91.0078236607143,150.85616572513192L91.21325892857142,150.83891038783793L91.41869419642856,150.82466237955333L91.62412946428572,150.8277560306373L91.82956473214286,150.80632158713237L92.035,150.79608829377113L92.24043526785715,150.78930554126512L92.44587053571429,150.76401472887284L92.65130580357142,151.81019773960642L93.06217633928571,152.03094229030927L93.26761160714285,152.38461475925635L93.47304687500001,152.89551285122033L93.67848214285715,153.1682964039695L94.08935267857143,153.25866522031137L94.29478794642857,153.4295952656097L94.70565848214287,153.3903676711456L94.91109375,153.33676176327086L95.11652901785715,153.40131509934434L95.32196428571427,153.30387957474332L95.52739955357143,153.20677633035626L95.73283482142857,153.08502256243494L95.93827008928571,153.02065732103028L96.14370535714286,152.95447603476904L96.349140625,152.8409309364132L96.55457589285713,152.74126872877906L97.37631696428572,152.84656768715757L97.58175223214286,152.88814347789514L97.7871875,152.85678020599977L98.19805803571428,152.75435743024047L98.40349330357142,152.67404199415503L99.01979910714286,152.63478389247692L99.225234375,152.64480408945343L99.63610491071428,152.65808797430194L99.84154017857144,152.68037200302598L100.04697544642858,152.70428815085123L100.66328125,152.67095793842333L100.86871651785714,152.67864974474344L101.07415178571428,152.68822584232947L101.27958705357143,152.66504465151584L101.48502232142857,152.65365745192025L101.69045758928571,152.66259413698467L101.89589285714285,152.6792943819711L102.101328125,152.7044035639971L102.30676339285714,152.72412300387677L102.51219866071429,152.71276130842958L102.71763392857143,152.70473503212807L102.92306919642857,152.7720323034565L103.12850446428573,153.1726973789001L103.33393973214285,153.5454301796594L103.53937499999999,153.8071577049636L103.74481026785715,153.84606067522424L103.95024553571429,153.7842994224075L104.15568080357143,154.00222085064908L104.36111607142858,154.25024608460822L104.56655133928571,154.4217615347371L104.77198660714285,154.5421487940112L104.977421875,154.6489985735869L105.38829241071429,154.65217055986258L105.59372767857144,154.5834589368697L105.79916294642858,154.51803819934105L106.0045982142857,154.4712536370729L106.62090401785714,154.43467612480967L106.82633928571428,154.44509446272758L107.03177455357144,154.38973524361558L107.23720982142856,154.35066319817128L107.4426450892857,154.30324936696186L107.64808035714286,154.2475393342274L107.853515625,154.21850879951106L108.05895089285714,154.19762864091268L108.2643861607143,154.13177870737476L108.46982142857144,154.11175612823345L108.88069196428572,154.1090561641227L109.08612723214286,154.09590435582226L109.2915625,154.1147867236008L109.90786830357142,154.1129859562796L110.11330357142856,154.06349412656317L110.31873883928571,154.02583680186564L110.52417410714285,154.00404635449584L110.729609375,153.98973707783423L110.93504464285715,153.97488110320688L111.14047991071429,153.93297706280305L111.34591517857142,153.91398774525018L111.75678571428571,153.9062696155339L111.96222098214285,153.90467809775052L112.16765625000001,153.86603683911906L112.37309151785715,153.82302614857642L113.19483258928571,153.6527676392191L113.40026785714286,154.8133865242358L113.605703125,154.8742440727446L113.81113839285715,154.66946946305595L114.01657366071429,154.86287838651276L114.22200892857143,154.98435682316742L114.42744419642857,155.2733941689737L114.83831473214286,155.46164716575188L115.24918526785713,155.63731354054L115.45462053571428,155.64331665978543L115.66005580357142,155.66413521376677L115.86549107142856,155.63271345858232L116.07092633928572,155.6479256520537L116.27636160714286,155.66418931304617L116.481796875,155.64813154589658L116.89266741071428,155.59328890831188L117.09810267857142,155.47502089137384L117.30353794642858,155.3985421216163L117.50897321428572,155.34400312636333L117.91984375,155.27895970662854L118.12527901785714,155.2115275115992L118.33071428571428,155.16436767883454L118.94702008928572,155.09051380340665L119.15245535714287,155.00927806964165L119.357890625,154.94667974156528L119.56332589285714,154.9102632465505L119.76876116071429,154.87651626244445L119.97419642857143,154.82702174171962L120.17963169642857,154.7829512499878L120.59050223214285,154.7461415614551L120.7959375,154.71498630558645L121.00137276785713,154.67939595052715L121.20680803571429,154.6501481751747L121.41224330357143,154.6342436444847L121.61767857142857,154.61799564195204L122.23398437499999,154.59240726371127L122.43941964285715,154.5973989709587L122.85029017857143,154.60469602014845L123.05572544642858,154.6104971317424L123.26116071428571,154.60977400231204L123.67203125,155.95614474348926L123.87746651785714,156.95083537896102L124.08290178571428,157.52546252727285L124.6992075892857,158.33153632831437L124.90464285714286,158.75932867259897L125.110078125,159.10373448688458L125.31551339285714,159.36606111144226L125.5209486607143,159.47509530791763L125.72638392857144,159.52298776870444L125.93181919642856,159.50138116219924L126.1372544642857,159.48372559749652L126.34268973214286,159.40732205512268L126.75356026785714,159.41240041614856L126.9589955357143,159.40700789190106L127.16443080357142,159.3992710345791L127.36986607142856,159.38813487492837L127.57530133928572,159.3814627158811L127.78073660714286,159.3577197926146L128.19160714285715,159.37109769206657L128.80791294642856,159.36012676251778L129.0133482142857,159.36433026130703L129.62965401785715,159.37542636952224L129.83508928571428,159.38907589770213L130.04052455357143,159.39680451307805L130.24595982142856,159.4141021856911L130.4513950892857,159.40941225822252L130.65683035714287,159.41399166187932L130.862265625,159.41477378130728L131.06770089285715,159.4084590907143L131.27313616071427,159.4201617619542L131.47857142857143,159.4522130239694L131.68400669642858,159.48899043492608L131.8894419642857,159.49744890267928L132.09487723214286,159.4973002322631L132.30031250000002,159.5114369897912L132.50574776785714,159.54014409237325L132.91661830357143,159.56249006183873L133.12205357142858,159.57027096505124L133.3274888392857,159.59025790068603L133.73835937500002,159.60379453762232L134.14922991071427,159.44793889679823L134.35466517857142,159.57199677084873L134.56010044642858,159.87356190833444L134.7655357142857,160.10120480628606L134.97097098214286,160.16893096787808L135.38184151785714,160.09733731760429L135.5872767857143,160.06233763226177L135.79271205357142,160.03726753907387L135.99814732142858,160.04265223334423L136.20358258928573,160.02303396695964L136.40901785714286,160.04754793068238L136.61445312499998,160.05496213090697L137.0253236607143,160.0948253467815L137.23075892857142,160.0631440636597L137.43619419642857,160.06275292379155L137.64162946428573,160.10068953122195L137.84706473214285,160.10420730164944L138.0525,160.06238314182337L138.25793526785714,160.0314607421802L138.4633705357143,160.00984934569874L138.87424107142857,160.00364691973616L139.07967633928573,159.9992392954879L139.28511160714285,159.96396904573757L139.9014174107143,159.97442930570793L140.72315848214285,159.9917118169758L140.92859375,160.01349728214103L141.13402901785713,160.04161420409298L141.54489955357144,160.08063010540258L141.75033482142857,160.10352609256893L141.95577008928572,160.11608971178524L142.16120535714285,160.13586877000327L142.366640625,160.17922796137333L142.57207589285716,160.2269667466116L142.77751116071428,160.24957468984317L142.98294642857144,160.2706134013998L143.18838169642856,160.2990518863599L143.39381696428572,160.315681055522L143.59925223214285,160.34503292759422L143.8046875,160.36415467095472L144.21555803571428,159.93108244795857L144.4209933035714,160.07437202965772L144.6264285714286,160.3516390182707L144.83186383928572,160.4725456630071L145.03729910714287,160.5121092078018L145.242734375,160.5931321666794L145.44816964285712,160.67683686531524L145.65360491071428,160.75061591694916L145.85904017857143,160.73449430602886L146.0644754464286,160.7799594505912L146.47534598214284,160.90102525378978L146.68078125,160.92911765471527L146.88621651785712,160.99166220125812L147.0916517857143,161.06509524403367L147.29708705357143,161.12425125729058L147.5025223214286,161.17115128690608L147.7079575892857,161.18238933476573L147.91339285714284,161.21648592706183L148.118828125,161.22683636519704L148.32426339285712,161.20430002315874L148.5296986607143,161.15328260483764L148.73513392857143,161.0980067981626L149.1460044642857,161.0225768526402L149.35143973214284,160.95438874006314L149.556875,160.92881381654766L149.76231026785715,160.92243959989563L149.9677455357143,160.8834259181405L150.5840513392857,160.87981026585013L150.78948660714283,160.87358775863117L150.99492187500002,160.85054234939255L151.20035714285714,160.84326780007743L151.4057924107143,160.85289681057014L151.61122767857142,160.85202901422906L152.0220982142857,160.8677641919847L152.22753348214286,160.88607065508342L152.43296875000001,160.894505838332L152.63840401785714,160.90643960224236L152.8438392857143,160.89813174001364L153.04927455357142,160.90451577420228L153.25470982142855,160.90839960047717L153.871015625,160.89585639160344L154.07645089285714,160.9001302785961L154.48732142857142,159.74987163944772L154.69275669642855,159.89179586651164L154.89819196428573,160.1250693755283L155.10362723214286,160.36390804987752L155.3090625,160.544004009614L155.92536830357142,160.81513846304992L156.13080357142857,161.00755851499426L156.33623883928573,161.14648810048215L156.54167410714285,161.25072035204954L156.95254464285713,161.377203565905L157.36341517857144,161.40574833278032L157.77428571428572,161.43138768985372L158.18515625,161.4659759206444L158.39059151785713,161.43617696779194L158.59602678571426,161.3955915642811L158.80146205357144,161.40242833334406L159.00689732142857,161.41845180057408L159.41776785714285,161.44049893297506L159.623203125,161.43953510807606L159.82863839285713,161.44981391839178L160.03407366071428,161.4497923351049L160.23950892857144,161.4360808072519L160.44494419642857,161.40631897080135L160.85581473214285,161.3990214277994L161.06125,161.38917453346795L161.26668526785716,161.4027680829653L161.47212053571428,161.40929772111707L161.88299107142856,161.39486156495173L162.08842633928572,161.36972228641366L162.29386160714284,161.34510674449834L162.499296875,161.33314742072244L162.91016741071428,161.32246135129822L163.11560267857143,161.32073558839735L163.32103794642856,161.30032480640756L163.52647321428572,161.3020487122747L163.73190848214287,161.30643808204013L163.93734375,161.32118908976364L164.14277901785715,161.3231822992256L164.34821428571428,161.3218705382878L164.55364955357143,161.31000226300566L164.96452008928574,161.41988044715885L165.16995535714287,161.22353118501283L165.58082589285715,161.304906522287L165.78626116071428,161.40304431620424L165.99169642857143,161.60060792746057L166.19713169642856,161.77213033188528L166.40256696428574,161.87342634289948L166.60800223214287,161.98957189613276L166.8134375,161.9596760791164L167.01887276785715,161.95972154865393L167.22430803571427,161.982271756707L167.63517857142858,161.96720977185868L167.8406138392857,161.95676495765866L168.04604910714286,161.88152405104174L168.251484375,161.82475898552616L168.45691964285714,161.73705004387307L168.66235491071427,161.69835499962096L168.86779017857145,161.67049310231164L169.07322544642858,161.68307951464627L169.2786607142857,161.7017435751818L169.48409598214286,161.71474779382123L169.68953125,161.69443934401735L169.89496651785714,161.67786546493093L170.10040178571427,161.65505940881084L170.30583705357145,161.64376091460414L170.51127232142858,161.64870152175442L170.7167075892857,161.64255924999722L170.92214285714286,161.635272335887L171.12757812499999,161.6531064938784L171.33301339285714,161.65818841643812L171.5384486607143,161.6658428632479L171.74388392857145,161.6651402546919L171.94931919642858,161.66495186292866L172.36018973214286,161.6679673564657L172.56562499999998,161.66958353353886L172.77106026785717,161.6740980472168L173.18193080357142,161.6752575114966L173.38736607142857,161.67906216833595L173.5928013392857,161.67775485547546L173.79823660714285,161.6608815052042L174.003671875,161.65676278221187L175.0308482142857,161.73104802577245L175.23628348214288,161.77687754516927L175.44171875,161.82736596039015L175.8525892857143,161.74523415905878L176.0580245535714,161.67484597410348L176.26345982142857,161.69066512611857L176.4688950892857,161.69138805882545L176.67433035714288,161.76259112844713L177.08520089285716,161.86420855814129L177.29063616071429,161.89607859786696L177.4960714285714,161.88102808675973L177.70150669642857,161.86347860742694L177.90694196428572,161.84614016204526L178.11237723214288,161.84048305505186L178.3178125,161.80833121868176L178.52324776785713,161.78205159146907L178.72868303571428,161.75810987257552L178.9341183035714,161.72485827507728L179.1395535714286,161.71822919310424L179.34498883928572,161.73885892546946L179.55042410714287,161.75634321401583L179.96129464285713,161.83469105261602L180.16672991071428,161.88322658835673L180.3721651785714,161.90743219553724L180.5776004464286,161.9184651118475L180.78303571428572,161.9035451735233L180.98847098214287,161.88781306297628L181.19390625,161.88652199000745L181.39934151785712,161.89210263187067L181.60477678571428,161.8956164794825L182.22108258928571,161.88034073577302L182.42651785714284,161.89401578942523L182.631953125,161.91348371529332L182.83738839285712,161.91605449690672L183.0428236607143,161.9225989876643L183.24825892857143,161.89510974278778L183.6591294642857,161.87292705172737L183.86456473214284,161.8413374077942L184.07,161.81941292593874L184.27543526785712,161.7926745766997L184.4808705357143,161.7934534284234L184.68630580357143,161.79328368501425L184.89174107142858,161.7962831878457L185.0971763392857,161.79940325163565L185.508046875,162.24429134215572L185.71348214285715,162.4202889662126L185.9189174107143,162.1971059358799L186.12435267857143,161.73136609296105L186.32978794642858,161.67337680757106L186.5352232142857,161.62831359446085L186.74065848214283,161.62634681069872L186.94609375000002,161.65254625322834L187.15152901785714,161.71921024705418L187.3569642857143,161.78426071396737L187.76783482142855,161.8182436727957L187.9732700892857,161.84197941443182L188.17870535714286,161.87675585163151L188.58957589285714,161.92624195702382L188.7950111607143,161.98696427516643L189.00044642857142,162.01470492465796L189.20588169642855,162.03474916329088L189.41131696428573,162.04142368620694L189.61675223214286,162.06590712538994L189.8221875,162.06360080523274L190.02762276785714,162.05346323658813L190.2330580357143,162.00558401113622L190.43849330357142,161.96846032718344L190.64392857142855,161.94409852373317L190.84936383928573,161.9441150972111L191.05479910714286,161.93261276178734L191.260234375,161.93482705648645L191.6711049107143,161.92531903204863L191.87654017857142,161.91144075165715L192.08197544642857,161.9022921929987L192.28741071428573,161.87389341653775L192.49284598214285,161.8517243365132L192.69828125,161.82419406769773L193.10915178571426,161.81239659427465L193.31458705357144,161.82977079653062L193.72545758928572,161.8609940010507L193.93089285714285,161.8802677034258L194.34176339285713,161.879977753098L194.75263392857144,161.88007081170986L195.36893973214285,161.86635034453934L195.574375,160.39897156460324L196.19068080357144,161.29011259498142L196.39611607142857,161.75060564292636L196.60155133928572,162.17841409452654L196.80698660714285,162.35175947432458L197.012421875,162.4350157027527L197.42329241071428,162.39611274272707L197.62872767857144,162.36051720542017L197.83416294642856,162.3731426367897L198.45046875,162.3520976525389L198.65590401785715,162.3203828705456L199.06677455357143,162.31419045764838L199.27220982142856,162.3170048179545L199.47764508928572,162.32485321654787L199.68308035714287,162.32236249145214L199.888515625,162.33419327078073L200.09395089285715,162.3525627382863L200.29938616071428,162.33706988860777L200.71025669642856,162.31360257845884L200.91569196428574,162.31324699629405L201.12112723214287,162.30385024016533L201.53199776785715,162.29674305120372L201.73743303571428,162.26531046390093L201.94286830357143,162.26552249049877L202.14830357142856,162.24673453006585L202.35373883928574,162.2287993850317L202.55917410714287,162.21118233335056L202.764609375,162.21877339918638L202.97004464285715,162.22465698384775L203.17547991071427,162.22615390100202L203.38091517857143,162.21751340078185L203.58635044642858,162.21711654571814L203.99722098214286,162.19314720099047L204.20265625,162.16978675046488L204.61352678571427,162.16055744838076L205.02439732142858,162.1418996927223L205.2298325892857,162.1388951943565L205.84613839285714,159.0062121395021L206.05157366071427,159.6436072733253L206.46244419642858,160.30999325193463L206.6678794642857,160.69527415321767L206.87331473214286,160.90740020207463L207.07874999999999,161.1163389631027L207.28418526785714,161.29404654192413L207.69505580357145,161.39329060368232L207.90049107142858,161.45543914110954L208.31136160714286,161.4747538868874L208.51679687499998,161.5632551374608L208.9276674107143,161.6172647394284L209.13310267857142,161.69997872814798L209.33853794642857,161.7811489457206L209.5439732142857,161.87279646124338L209.74940848214285,161.92432980850873L209.95484375,161.9564276046487L210.16027901785716,161.9888503257592L210.3657142857143,161.98906024123187L210.57114955357142,161.98753251925086L210.9820200892857,162.03019832548483L211.18745535714288,162.08499550209632L211.392890625,162.1112925016057L211.59832589285716,162.1231963994009L211.8037611607143,162.134097168559L212.0091964285714,162.1564299998964L212.21463169642857,162.17432436575206L212.4200669642857,162.1765747143609L212.62550223214288,162.18933039151327L212.8309375,162.2120623424214L213.24180803571429,162.2403289696313L213.65267857142857,162.25429774646383L213.85811383928572,162.26240197017444L214.06354910714288,162.28646053787858L214.268984375,162.30414961526864L214.47441964285713,162.305552951992L214.67985491071428,162.30244292765883L214.8852901785714,162.3014910098912L215.0907254464286,162.3079179213644L215.29616071428572,162.31816940821415L215.50159598214287,162.33331106494194L215.70703125,162.34583453172638L215.91246651785713,162.35332238575336L216.3233370535714,162.25168783605406L216.73420758928572,162.00603808844275L216.93964285714287,161.76905196836105L217.145078125,161.76755062300273L217.35051339285712,161.78449783061924L217.76138392857143,161.8439982970654L217.9668191964286,161.9000008726179L218.17225446428571,161.93676098728534L218.37768973214284,161.91113000240537L218.583125,161.85217755512363L218.78856026785712,161.8393242447136L218.9939955357143,161.85734859040727L219.4048660714286,161.84488686878294L219.6103013392857,161.81585918044334L220.22660714285712,161.837548459621L220.4320424107143,161.84660237136586L221.0483482142857,161.82964864434663L221.25378348214284,161.8093078557364L221.45921875,161.82906720779607L221.66465401785715,161.8338198527233L221.8700892857143,161.83594712403632L222.07552455357143,161.83956475727092L222.28095982142858,161.83826873107154L222.4863950892857,161.8287258947098L222.69183035714283,161.82924866701387L223.3081361607143,161.8320747853829L223.51357142857142,161.83829325684985L223.71900669642855,161.84571362882303L223.9244419642857,161.84823370784193L224.12987723214286,161.8532280970196L224.54074776785714,161.85748358062386L224.7461830357143,161.86629726583647L224.95161830357142,161.8643165713244L225.15705357142855,161.85619541917404L225.36248883928573,161.86337001868583L225.773359375,161.86562628596124L225.97879464285714,161.8622936907357L226.1842299107143,161.83555248397266L226.38966517857142,161.82881514440584L226.59510044642855,162.45941009647015L226.80053571428573,162.40233940199832L227.00597098214286,162.28553024718653L227.21140625,162.380491446194L227.41684151785714,162.27373802109776L227.6222767857143,162.2039701190246L228.03314732142857,162.27806949893554L228.44401785714285,162.309752275228L228.85488839285713,162.25614297966928L229.06032366071426,162.21736605513556L229.26575892857144,162.18924045293608L229.47119419642857,162.16983022528336L229.67662946428572,162.16928724192053L230.29293526785713,162.14056246127168L230.70380580357144,162.09891543773102L230.90924107142857,162.07328730814032L231.32011160714285,162.06825302834733L231.525546875,162.06194085356844L231.73098214285713,162.0844368128613L231.93641741071428,162.0988780491731L232.14185267857144,162.07226447064764L232.55272321428572,162.08044335722377L233.37446428571428,162.0982395975557L233.57989955357144,162.108176336811L233.78533482142856,162.11479689247966L233.99077008928572,162.10272794704179L234.19620535714284,162.10714429462277L235.01794642857143,162.1012591948767L235.22338169642856,162.0828360337412L235.42881696428572,162.09070160498592L235.63425223214287,162.0823260456942L236.04512276785715,162.06855265561475L236.25055803571428,162.06817455448947L236.45599330357143,162.06902439211748L236.86686383928574,161.85053967723218L237.07229910714287,161.8699930148659L237.277734375,161.44027068837514L237.68860491071428,161.43788372650164L238.09947544642856,161.42587148651134L238.30491071428574,161.49865691366583L238.51034598214287,161.69530086817022L238.92121651785715,161.7280001467566L239.12665178571427,161.73071631348733L239.33208705357143,161.79146428439975L239.53752232142858,161.8405993195412L239.7429575892857,161.8732565529369L239.94839285714286,161.88756419940128L240.153828125,161.8780737979611L240.35926339285714,161.8394978203416L240.56469866071427,161.7967775915885L240.77013392857145,161.77310573189402L240.97556919642858,161.74285847621528L241.1810044642857,161.73815597699502L241.38643973214286,161.73733910087597L241.79731026785714,161.80818095304878L242.00274553571427,161.8482932954926L242.20818080357145,161.85165976940982L242.6190513392857,161.87737846052283L242.82448660714286,161.8783162097671L243.02992187499999,161.87611940267908L243.23535714285714,161.87537495352763L243.64622767857145,161.86480073963367L243.85166294642858,161.8652191927121L244.0570982142857,161.86022028744733L244.26253348214286,161.8571136559279L244.8788392857143,161.8578131535787L245.08427455357142,161.84944378966918L245.28970982142857,161.8415449359109L245.4951450892857,161.84859780657828L246.3168861607143,161.89633948915326L246.72775669642857,161.9388952691145L246.9331919642857,161.9683287882082L247.13862723214288,161.81111793179943L247.3440625,161.99858024394294L247.54949776785716,162.02665650055278L247.7549330357143,161.92275659564416L247.9603683035714,161.59407448961306L248.16580357142857,161.43814787980298L248.3712388392857,161.34937316010226L248.57667410714288,161.34524878162043L248.782109375,161.35675215898692L248.98754464285716,161.38316445457184L249.19297991071429,161.37250016276386L249.3984151785714,161.39615186538902L249.60385044642857,161.3663808851636L250.01472098214288,161.39724580938795L250.22015625,161.45263858136641L250.42559151785713,161.49285990892116L250.63102678571428,161.52108778296866L250.8364620535714,161.55311258875705L251.0418973214286,161.56088528778182L251.24733258928572,161.56003666964784L251.86363839285713,161.56253872542152L252.06907366071428,161.56141449349266L252.4799441964286,161.5816931327411L252.68537946428572,161.58876292706898L252.89081473214287,161.63139067173822L253.09625,161.66432443905367L253.30168526785712,161.6865199068099L253.50712053571428,161.7092642580813L253.71255580357143,161.7236199256984L253.9179910714286,161.7642605708365L254.12342633928571,161.78665463962105L254.32886160714284,161.79864149593084L254.73973214285712,161.81031540216665L254.9451674107143,161.8327068041662L255.3560379464286,161.82981331055757L255.5614732142857,161.84734238925813L255.97234375,161.85424779500508L256.1777790178571,161.87727426675525L256.3832142857143,161.89380049221256L256.58864955357143,161.92486681647623L256.7940848214286,161.95397223298266L256.99952008928574,161.96196645059894L257.20495535714286,161.96823354696457L257.410390625,160.85237205109135L257.6158258928571,161.13975813437185L258.0266964285714,161.3392841485064L258.2321316964286,161.39118779104476L258.43756696428574,161.39452989340737L258.8484375,161.5001003708894L259.0538727678571,161.6013712386164L259.2593080357143,161.65562683939177L259.4647433035714,161.72719978451275L259.67017857142855,161.71057323908533L259.87561383928573,161.72517349896268L260.08104910714286,161.70867606745622L260.286484375,161.68530457464732L260.4919196428571,161.65480838565753L260.6973549107143,161.6514323374553L261.51909598214286,161.66246727829716L261.72453125,161.66559636429275L261.9299665178571,161.69046356579855L262.3408370535714,161.7534366744828L262.54627232142855,161.7841199575705L262.75170758928573,161.80579387777107L262.95714285714286,161.85643021841682L263.162578125,161.90750103342435L263.36801339285716,161.94401815621794L263.5734486607143,161.98411929064238L263.98431919642854,161.9955180373981L264.1897544642857,161.99562768263786L264.39518973214285,161.99831225945454L264.80606026785716,162.01910950227918L265.0114955357143,162.0262949555179L265.2169308035714,162.03376622730855L265.42236607142854,162.04160640081383L265.83323660714285,162.04564579391848L266.03867187500003,162.0507020477317L266.24410714285716,162.05479199432506L266.4495424107143,162.05810569967733L266.6549776785714,162.0741029217595L266.86041294642854,162.091345431492L267.47671875000003,162.10408990507437L267.68215401785716,161.14270096376606L268.29845982142854,161.51309126231118L268.5038950892857,161.75255404480126L268.70933035714285,162.0206723843087L269.12020089285716,162.01855281794485L269.3256361607143,162.10549356820832L269.5310714285714,162.0618771689096L269.9419419642857,162.08161101203913L270.14737723214284,162.06780701554865L270.35281249999997,162.09572275684508L270.7636830357143,162.09290042046447L270.96911830357146,162.06272982671106L271.1745535714286,162.01142482229616L271.3799888392857,162.02362106006473L271.58542410714284,162.04248493767457L271.79085937499997,162.06165391121314L271.99629464285715,162.0904206151605L272.40716517857146,162.07700284211876L273.02347098214284,162.086232756907L273.22890624999997,162.04811960180655L273.84521205357146,162.03335317206415L274.0506473214286,162.03826437134762L274.2560825892857,162.0196036919309L274.46151785714284,162.01037614490707L274.66695312499996,162.0112578448422L275.0778236607143,162.03732387881084L275.28325892857146,162.0571057835853L275.4886941964286,162.0468916439793L275.6941294642857,162.05158831738123L275.89956473214284,162.06830946244415L276.105,162.0876819588996L276.31043526785714,162.09589893211464L276.51587053571427,162.09783934706175L276.72130580357145,162.10039882155493L276.9267410714286,162.1126395004525L277.1321763392857,162.12164806947314L277.3376116071429,162.14159817472222L277.543046875,162.14485833033993L277.74848214285714,162.14646967044516" style="fill: none;" fill="none"></path></g></g></g></g><g opacity="0.2"><g><g><g><path stroke="rgb(255, 112, 67)" stroke-width="2px" d="M20.74896205357143,22.223306655883803L21.159832589285713,63.17851638793945L21.365267857142857,72.40198707580566L21.570703124999998,78.5766658782959L22.187008928571426,89.05395126342773L22.597879464285715,92.87929153442384L22.803314732142855,94.91273498535158L23.00875,96.21289825439453L23.625055803571428,100.40991878509521L23.83049107142857,101.03037452697754L24.035926339285716,102.08970642089845L24.241361607142856,102.9015645980835L24.446796875,103.38382816314697L24.652232142857144,104.21244716644287L24.857667410714285,104.97736549377443L25.26853794642857,106.23190975189209L25.473973214285714,106.87590217590333L25.884843749999998,108.19659328460695L26.090279017857146,108.88493633270264L26.295714285714286,109.36453437805177L26.501149553571427,109.868408203125L26.70658482142857,110.22771453857423L26.912020089285715,110.36171531677248L27.11745535714286,110.83878135681154L27.322890625,111.1182508468628L27.52832589285714,111.48653602600099L27.733761160714288,111.82679271698L28.14463169642857,112.50796413421632L28.350066964285716,112.6981315612793L28.555502232142857,112.90510272979738L28.7609375,113.16845035552979L28.96637276785714,113.54082679748535L29.37724330357143,114.18812847137451L29.58267857142857,114.46648693084717L30.198984375,115.30881023406982L30.404419642857142,115.60782527923584L30.609854910714287,115.90137577056886L30.815290178571427,116.15706539154053L31.02072544642857,129.78626823425293L31.226160714285715,131.4241514205933L31.43159598214286,133.20622539520264L31.63703125,133.55635261535645L31.84246651785714,133.4900770187378L32.04790178571429,133.52892971038818L32.45877232142857,132.88374042510986L32.664207589285716,133.4386978149414L33.075078125000005,132.66564464569092L33.280513392857145,132.3782835006714L33.485948660714286,132.23440742492676L33.691383928571426,132.30474090576172L34.102254464285714,132.46636486053467L34.307689732142855,132.58996105194092L34.513125,132.67216777801514L34.71856026785714,132.59841537475586L35.129430803571424,132.99714183807373L35.33486607142857,133.11207389831543L35.54030133928571,133.26633071899414L35.74573660714286,133.39306449890137L36.15660714285715,133.22630500793457L36.56747767857143,133.07005500793457L36.772912946428576,133.1703338623047L36.97834821428571,133.03222751617432L37.18378348214286,133.06963062286377L37.38921875,133.09007263183594L37.594654017857145,133.07516193389893L37.800089285714286,133.14113235473633L38.005524553571426,133.28601932525635L38.210959821428574,133.20773220062256L38.416395089285714,133.15713500976562L38.621830357142855,133.09356307983398L38.827265625,133.15595722198486L39.03270089285714,133.13324069976807L39.238136160714284,133.11514949798584L39.649006696428565,133.20258712768555L40.05987723214286,133.2683620452881L40.2653125,133.3034429550171L40.47074776785714,133.2578239440918L41.08705357142857,133.44654178619385L41.29248883928572,138.9977583885193L41.49792410714286,137.75189971923828L41.908794642857146,137.5743613243103L42.114229910714286,138.07370042800903L42.52510044642857,138.14258670806885L42.730535714285715,138.29621648788452L42.93597098214286,139.02000761032104L43.141406249999996,139.70396852493286L43.34684151785714,139.81236791610718L43.55227678571429,139.77835273742676L43.757712053571424,139.8845157623291L44.16858258928572,140.1117763519287L44.37401785714285,140.10261631011963L44.579453125,140.0414023399353L44.78488839285715,140.20499324798584L44.99032366071428,140.24285888671875L45.19575892857143,140.01468515396118L45.40119419642857,140.05071020126343L45.60662946428571,139.78337621688843L45.81206473214286,139.7933874130249L46.0175,139.89623165130615L46.428370535714286,139.77139568328857L46.63380580357143,139.9592170715332L46.839241071428575,139.9362335205078L47.044676339285715,140.0059518814087L47.250111607142856,139.99757623672485L47.455546875,139.95869731903076L47.66098214285714,140.07206535339355L47.866417410714284,140.11686658859253L48.277287946428565,140.20128107070923L48.68815848214286,140.17095184326172L48.89359375,140.04516696929932L49.09902901785714,139.98162364959717L49.30446428571429,139.90128135681152L49.50989955357143,139.8978099822998L49.71533482142857,139.86968612670898L50.12620535714286,139.82259130477905L50.331640625,139.90626430511475L50.53707589285714,139.89079570770264L50.74251116071429,139.91253232955933L50.94794642857143,139.92420291900635L51.15338169642857,139.83787155151367L51.56425223214286,148.57197380065918L51.975122767857144,144.65169048309326L52.18055803571429,144.39789867401123L52.385993303571425,145.02154445648193L52.79686383928572,143.64322757720947L53.00229910714285,143.60131120681763L53.207734375,143.48763799667358L53.41316964285714,143.55725860595703L53.61860491071428,143.74020195007324L53.82404017857143,143.5922179222107L54.02947544642857,143.704119682312L54.23491071428572,143.6641058921814L54.44034598214286,143.58148908615112L54.64578125,143.55435705184937L54.85121651785715,143.53393650054932L55.26208705357143,143.70637035369873L55.467522321428575,143.72186040878296L55.67295758928571,143.81958103179932L55.878392857142856,143.92134046554565L56.083828125000004,143.75414943695068L56.494698660714285,143.81044721603394L56.70013392857143,143.95076370239258L56.90556919642857,144.00928115844727L57.11100446428571,144.07992696762085L57.31643973214286,144.21757316589355L57.72731026785714,144.05789947509766L57.93274553571428,144.15203189849854L58.13818080357143,144.16760063171387L58.34361607142857,144.02711486816406L58.54905133928571,144.02369594573975L58.75448660714286,144.05004358291626L58.959921875,144.03989171981812L59.576227678571435,144.04824829101562L59.78166294642857,143.89260864257812L59.987098214285716,143.75939226150513L60.19253348214286,143.79240608215332L60.39796875,143.860848903656L60.808839285714285,143.75713443756104L61.21970982142857,143.77053117752075L61.425145089285714,143.82254457473755L61.630580357142854,143.79000520706177L61.836015625,150.9323320388794L62.24688616071429,148.48623371124268L62.45232142857143,149.02071571350098L62.65775669642857,149.37723970413208L62.86319196428572,148.67204761505127L63.06862723214285,148.5520634651184L63.2740625,148.43672847747803L63.47949776785715,148.12998390197754L63.68493303571428,148.19326734542847L63.89036830357143,147.84419631958008L64.09580357142858,147.85955286026L64.50667410714286,147.58332347869873L64.712109375,147.5162706375122L64.91754464285714,147.4042067527771L65.12297991071428,147.26144647598267L65.53385044642857,146.9931516647339L65.73928571428571,147.01972579956055L65.94472098214285,146.96702814102173L66.15015625000001,146.79462051391602L66.35559151785714,146.83303928375244L66.56102678571429,146.93050003051758L66.76646205357143,146.98024368286133L66.97189732142857,147.0019826889038L67.17733258928571,146.74687242507935L67.79363839285715,146.64741611480713L67.99907366071429,146.6249237060547L68.20450892857143,146.58773040771484L68.40994419642857,146.56699991226196L68.61537946428571,146.6274127960205L68.82081473214286,146.59226512908936L69.02625,146.50591468811035L69.23168526785715,146.49765586853027L69.43712053571429,146.40518522262573L69.64255580357143,146.43948650360107L69.84799107142857,146.522301197052L70.25886160714285,146.45531749725342L70.464296875,146.44520139694214L70.87516741071428,146.54433822631836L71.08060267857142,146.55498838424683L71.28603794642858,146.59712886810303L71.49147321428572,146.57540655136108L71.69690848214286,146.60065746307373L71.90234375,146.6125521659851L72.51864955357144,151.18968105316162L72.72408482142856,150.5002269744873L72.92952008928572,150.42452907562256L73.13495535714286,150.72042798995972L73.54582589285715,151.35869121551514L73.7512611607143,151.53720235824585L73.95669642857142,150.92913007736206L74.16213169642856,150.53988313674927L74.57300223214285,150.50908422470093L74.7784375,150.4779086112976L75.18930803571429,150.18177604675293L75.60017857142857,150.0893816947937L75.80561383928571,149.9301323890686L76.21648437500001,149.6439347267151L76.42191964285715,149.50149869918823L76.83279017857143,149.34354162216187L77.03822544642857,149.31442832946777L77.24366071428571,149.32578897476196L77.44909598214286,149.37716579437256L77.85996651785715,149.13140869140625L78.06540178571429,149.1446933746338L78.27083705357143,149.07113409042358L78.47627232142857,149.07144165039062L78.68170758928572,149.08762073516846L78.88714285714286,149.18651914596558L79.092578125,149.12627792358398L79.29801339285713,149.17524671554565L79.50344866071428,149.1440806388855L79.70888392857142,149.20306777954102L79.91431919642856,149.18860054016113L80.11975446428572,149.16517114639282L80.32518973214286,149.13469886779785L80.530625,149.1098747253418L81.35236607142858,149.06094646453857L81.55780133928572,149.0674648284912L81.76323660714286,149.01374435424805L81.968671875,148.9156255722046L82.17410714285714,148.91601419448853L82.37954241071428,150.4204545021057L82.58497767857143,149.48548412322998L82.99584821428572,150.60363626480103L83.20128348214287,151.03013372421265L83.40671875,151.09737968444824L83.61215401785714,151.34371614456177L83.81758928571429,151.0008726119995L84.02302455357143,151.2721118927002L84.22845982142857,151.5334210395813L84.63933035714285,151.46103715896606L84.844765625,151.40356874465942L85.05020089285713,151.20176649093628L85.25563616071429,151.1901149749756L85.46107142857143,151.09625911712646L85.66650669642857,151.05977153778076L86.07737723214285,151.18486499786377L86.28281249999999,151.14851808547974L86.48824776785715,151.10485649108887L86.69368303571429,151.0411820411682L86.89911830357143,151.14720916748047L87.30998883928571,151.30430555343628L87.51542410714285,151.2216100692749L87.92629464285714,151.20548343658447L88.33716517857144,151.22670984268188L88.54260044642858,151.15690326690674L88.7480357142857,151.04974842071533L88.95347098214286,151.07153034210205L89.15890625,151.12073516845703L89.36434151785714,151.10574340820312L89.77521205357144,150.9098801612854L89.98064732142856,150.8030138015747L90.1860825892857,150.86221313476562L90.596953125,150.8569130897522L90.80238839285714,150.83617305755615L91.0078236607143,150.83962059020996L91.21325892857142,150.81302738189697L91.41869419642856,150.80329036712646L91.62412946428572,150.83239650726318L91.82956473214286,150.774169921875L92.035,150.78073835372925L92.24043526785715,150.7791314125061L92.44587053571429,150.72607851028442L92.65130580357142,153.3794722557068L93.06217633928571,152.36205911636353L93.26761160714285,152.915123462677L93.47304687500001,153.66185998916626L93.67848214285715,153.57747173309326L94.08935267857143,153.39421844482422L94.29478794642857,153.68599033355713L94.70565848214287,153.33152627944946L94.91109375,153.25635290145874L95.11652901785715,153.4981451034546L95.32196428571427,153.1577262878418L95.52739955357143,153.06112146377563L95.73283482142857,152.90239191055298L95.93827008928571,152.92410945892334L96.14370535714286,152.8552041053772L96.349140625,152.6706132888794L96.55457589285713,152.59177541732788L97.37631696428572,153.00451612472534L97.58175223214286,152.95050716400146L97.7871875,152.80973529815674L98.19805803571428,152.60072326660156L98.40349330357142,152.55356884002686L99.01979910714286,152.57589673995972L99.225234375,152.6598343849182L99.63610491071428,152.6780138015747L99.84154017857144,152.71379804611206L100.04697544642858,152.7401623725891L100.66328125,152.6209626197815L100.86871651785714,152.69018745422363L101.07415178571428,152.7025899887085L101.27958705357143,152.6302728652954L101.48502232142857,152.63657665252686L101.69045758928571,152.6759991645813L101.89589285714285,152.70434474945068L102.101328125,152.74206733703613L102.30676339285714,152.7537021636963L102.51219866071429,152.6957187652588L102.71763392857143,152.69269561767578L102.92306919642857,152.87297821044922L103.12850446428573,153.77369499206543L103.33393973214285,154.10452938079834L103.53937499999999,154.19974899291992L103.74481026785715,153.90441513061523L103.95024553571429,153.69165754318237L104.15568080357143,154.32910299301147L104.36111607142858,154.62228393554688L104.56655133928571,154.67903470993042L104.77198660714285,154.72272968292236L104.977421875,154.80927324295044L105.38829241071429,154.65692853927612L105.59372767857144,154.48039150238037L105.79916294642858,154.4199070930481L106.0045982142857,154.40107679367065L106.62090401785714,154.3798098564148L106.82633928571428,154.4607219696045L107.03177455357144,154.3066964149475L107.23720982142856,154.29205513000488L107.4426450892857,154.2321286201477L107.64808035714286,154.16397428512573L107.853515625,154.17496299743652L108.05895089285714,154.16630840301514L108.2643861607143,154.03300380706787L108.46982142857144,154.08172225952148L108.88069196428572,154.10500621795654L109.08612723214286,154.07617664337158L109.2915625,154.14311027526855L109.90786830357142,154.11028480529785L110.11330357142856,153.98925638198853L110.31873883928571,153.96935081481934L110.52417410714285,153.97136068344116L110.729609375,153.9682731628418L110.93504464285715,153.95259714126587L111.14047991071429,153.87012100219727L111.34591517857142,153.8855037689209L111.75678571428571,153.89469242095947L111.96222098214285,153.90229082107544L112.16765625000001,153.80807495117188L112.37309151785715,153.75851011276245L113.19483258928571,153.3973798751831L113.40026785714286,156.55431485176086L113.605703125,154.9655303955078L113.81113839285715,154.36230754852295L114.01657366071429,155.152991771698L114.22200892857143,155.1665744781494L114.42744419642857,155.7069501876831L114.83831473214286,155.7440266609192L115.24918526785713,155.90081310272217L115.45462053571428,155.65232133865356L115.66005580357142,155.69536304473877L115.86549107142856,155.58558082580566L116.07092633928572,155.67074394226074L116.27636160714286,155.6885848045349L116.481796875,155.62404489517212L116.89266741071428,155.51102495193481L117.09810267857142,155.2976188659668L117.30353794642858,155.28382396697998L117.50897321428572,155.2621946334839L117.91984375,155.18139457702637L118.12527901785714,155.11037921905518L118.33071428571428,155.0936279296875L118.94702008928572,154.9797329902649L119.15245535714287,154.88742446899414L119.357890625,154.85278224945068L119.56332589285714,154.85563850402832L119.76876116071429,154.8258957862854L119.97419642857143,154.75277996063232L120.17963169642857,154.71684551239014L120.59050223214285,154.690927028656L120.7959375,154.66825342178345L121.00137276785713,154.62601041793823L121.20680803571429,154.606276512146L121.41224330357143,154.6103868484497L121.61767857142857,154.59362363815308L122.23398437499999,154.5540246963501L122.43941964285715,154.60488653182983L122.85029017857143,154.6156415939331L123.05572544642858,154.6191987991333L123.26116071428571,154.6086893081665L123.67203125,157.97570085525513L123.87746651785714,158.44287133216858L124.08290178571428,158.3874032497406L124.6992075892857,159.5406470298767L124.90464285714286,159.40101718902588L125.110078125,159.620343208313L125.31551339285714,159.7595510482788L125.5209486607143,159.63864660263062L125.72638392857144,159.59482645988464L125.93181919642856,159.4689712524414L126.1372544642857,159.4572422504425L126.34268973214286,159.2927167415619L126.75356026785714,159.42001795768738L126.9589955357143,159.39891910552979L127.16443080357142,159.3876657485962L127.36986607142856,159.37143063545227L127.57530133928572,159.37145447731018L127.78073660714286,159.32210540771484L128.19160714285715,159.3911645412445L128.80791294642856,159.34367036819458L129.0133482142857,159.37063550949097L129.62965401785715,159.3920705318451L129.83508928571428,159.40955018997192L130.04052455357143,159.40839743614197L130.24595982142856,159.4400486946106L130.4513950892857,159.40237736701965L130.65683035714287,159.4208607673645L130.862265625,159.41594696044922L131.06770089285715,159.39898705482483L131.27313616071427,159.4377157688141L131.47857142857143,159.5002899169922L131.68400669642858,159.54415655136108L131.8894419642857,159.51013660430908L132.09487723214286,159.4970772266388L132.30031250000002,159.53264212608337L132.50574776785714,159.58320474624634L132.91661830357143,159.596009016037L133.12205357142858,159.58194231987L133.3274888392857,159.62023830413818L133.73835937500002,159.62409949302673L134.14922991071427,159.21415543556213L134.35466517857142,159.75808358192444L134.56010044642858,160.325909614563L134.7655357142857,160.4426691532135L134.97097098214286,160.2705202102661L135.38184151785714,159.9899468421936L135.5872767857143,160.00983810424805L135.79271205357142,159.999662399292L135.99814732142858,160.05072927474976L136.20358258928573,159.9936065673828L136.40901785714286,160.08431887626648L136.61445312499998,160.0660834312439L137.0253236607143,160.15462017059326L137.23075892857142,160.01562213897705L137.43619419642857,160.06216621398926L137.64162946428573,160.15759444236755L137.84706473214285,160.10948395729065L138.0525,159.99964690208435L138.25793526785714,159.98507714271545L138.4633705357143,159.97743225097656L138.87424107142857,159.99434328079224L139.07967633928573,159.9926278591156L139.28511160714285,159.91106367111206L139.9014174107143,159.99011969566345L140.72315848214285,160.01763558387756L140.92859375,160.04617547988892L141.13402901785713,160.08378958702087L141.54489955357144,160.13915395736694L141.75033482142857,160.13787007331848L141.95577008928572,160.13493514060974L142.16120535714285,160.16553735733032L142.366640625,160.24426674842834L142.57207589285716,160.298574924469L142.77751116071428,160.28348660469055L142.98294642857144,160.30217146873474L143.18838169642856,160.34170961380005L143.39381696428572,160.34062480926514L143.59925223214285,160.38906073570251L143.8046875,160.39283728599548L144.21555803571428,159.28147411346436L144.4209933035714,160.28930640220642L144.6264285714286,160.76753950119019L144.83186383928572,160.6539056301117L145.03729910714287,160.5714545249939L145.242734375,160.71466660499573L145.44816964285712,160.80239391326904L145.65360491071428,160.86128449440002L145.85904017857143,160.71031188964844L146.0644754464286,160.8481571674347L146.47534598214284,161.08262395858765L146.68078125,160.97125625610352L146.88621651785712,161.0854790210724L147.0916517857143,161.17524480819702L147.29708705357143,161.2129852771759L147.5025223214286,161.24150133132935L147.7079575892857,161.19924640655518L147.91339285714284,161.26763081550598L148.118828125,161.2423620223999L148.32426339285712,161.17049551010132L148.5296986607143,161.07675647735596L148.73513392857143,161.01509308815002L149.1460044642857,160.9094319343567L149.35143973214284,160.8521065711975L149.556875,160.8904514312744L149.76231026785715,160.9128782749176L149.9677455357143,160.8249053955078L150.5840513392857,160.87438678741455L150.78948660714283,160.86425399780273L150.99492187500002,160.81597423553467L151.20035714285714,160.83235597610474L151.4057924107143,160.8673403263092L151.61122767857142,160.8507273197174L152.0220982142857,160.89136695861816L152.22753348214286,160.91353034973145L152.43296875000001,160.90715861320496L152.63840401785714,160.9243402481079L152.8438392857143,160.88566994667053L153.04927455357142,160.91409182548523L153.25470982142855,160.91422533988953L153.871015625,160.87704157829285L154.07645089285714,160.90654110908508L154.48732142857142,158.0244836807251L154.69275669642855,160.10468220710754L154.89819196428573,160.47497963905334L155.10362723214286,160.72216606140137L155.3090625,160.81414794921875L155.92536830357142,161.22184014320374L156.13080357142857,161.29618859291077L156.33623883928573,161.354882478714L156.54167410714285,161.40706872940063L156.95254464285713,161.56692838668823L157.36341517857144,161.44856548309326L157.77428571428572,161.46984672546387L158.18515625,161.51785826683044L158.39059151785713,161.39147853851318L158.59602678571426,161.3347134590149L158.80146205357144,161.41268348693848L159.00689732142857,161.44248700141907L159.41776785714285,161.47356963157654L159.623203125,161.43808937072754L159.82863839285713,161.46523213386536L160.03407366071428,161.44975996017456L160.23950892857144,161.4155135154724L160.44494419642857,161.3616762161255L160.85581473214285,161.3880751132965L161.06125,161.37440419197083L161.26668526785716,161.4231584072113L161.47212053571428,161.41909217834473L161.88299107142856,161.37320733070374L162.08842633928572,161.33201336860657L162.29386160714284,161.30818343162537L162.499296875,161.3152084350586L162.91016741071428,161.30643224716187L163.11560267857143,161.31814694404602L163.32103794642856,161.26970863342285L163.52647321428572,161.30463457107544L163.73190848214287,161.31302213668823L163.93734375,161.34331560134888L164.14277901785715,161.32617211341858L164.34821428571428,161.3199028968811L164.55364955357143,161.2921998500824L164.96452008928574,161.58469772338867L165.16995535714287,160.92900729179382L165.58082589285715,161.42696952819824L165.78626116071428,161.55025100708008L165.99169642857143,161.8969533443451L166.19713169642856,162.02941393852234L166.40256696428574,162.02537035942078L166.60800223214287,162.16379022598267L166.8134375,161.91483235359192L167.01887276785715,161.9597897529602L167.22430803571427,162.01609706878662L167.63517857142858,161.94461679458618L167.8406138392857,161.94109773635864L168.04604910714286,161.76866269111633L168.251484375,161.7396113872528L168.45691964285714,161.60548663139343L168.66235491071427,161.6403124332428L168.86779017857145,161.62870025634766L169.07322544642858,161.7019591331482L169.2786607142857,161.7297396659851L169.48409598214286,161.7342541217804L169.68953125,161.66397666931152L169.89496651785714,161.65300464630127L170.10040178571427,161.62085032463074L170.30583705357145,161.62681317329407L170.51127232142858,161.65611243247986L170.7167075892857,161.63334584236145L170.92214285714286,161.62434196472168L171.12757812499999,161.67985773086548L171.33301339285714,161.6658113002777L171.5384486607143,161.67732453346252L171.74388392857145,161.6640863418579L171.94931919642858,161.6646692752838L172.36018973214286,161.67249059677124L172.56562499999998,161.67200779914856L172.77106026785717,161.68086981773376L173.18193080357142,161.67699670791626L173.38736607142857,161.68476915359497L173.5928013392857,161.6757938861847L173.79823660714285,161.63557147979736L174.003671875,161.6505846977234L175.0308482142857,161.84247589111328L175.23628348214288,161.84562182426453L175.44171875,161.90309858322144L175.8525892857143,161.62203645706177L176.0580245535714,161.56926369667053L176.26345982142857,161.71439385414124L176.4688950892857,161.69247245788574L176.67433035714288,161.86939573287964L177.08520089285716,162.0166347026825L177.29063616071429,161.94388365745544L177.4960714285714,161.85845232009888L177.70150669642857,161.83715438842773L177.90694196428572,161.82013249397278L178.11237723214288,161.83199739456177L178.3178125,161.7601034641266L178.52324776785713,161.74263215065002L178.72868303571428,161.72219729423523L178.9341183035714,161.67498087882996L179.1395535714286,161.70828557014465L179.34498883928572,161.76980352401733L179.55042410714287,161.78256964683533L179.96129464285713,161.95221281051636L180.16672991071428,161.95602989196777L180.3721651785714,161.94374060630798L180.5776004464286,161.93501448631287L180.78303571428572,161.881165266037L180.98847098214287,161.86421489715576L181.19390625,161.8845853805542L181.39934151785712,161.90047359466553L181.60477678571428,161.90088725090027L182.22108258928571,161.85742712020874L182.42651785714284,161.91452836990356L182.631953125,161.94268560409546L182.83738839285712,161.91991066932678L183.0428236607143,161.93241572380066L183.24825892857143,161.85387587547302L183.6591294642857,161.83965301513672L183.86456473214284,161.79395294189453L184.07,161.78652620315552L184.27543526785712,161.7525670528412L184.4808705357143,161.7946217060089L184.68630580357143,161.7930290699005L184.89174107142858,161.8007824420929L185.0971763392857,161.80408334732056L185.508046875,162.9116234779358L185.71348214285715,162.68428540229797L185.9189174107143,161.86233139038086L186.12435267857143,161.03275632858276L186.32978794642858,161.58639287948608L186.5352232142857,161.56071877479553L186.74065848214283,161.62339663505554L186.94609375000002,161.6918454170227L187.15152901785714,161.81920623779297L187.3569642857143,161.88183641433716L187.76783482142855,161.8692181110382L187.9732700892857,161.877583026886L188.17870535714286,161.92892050743103L188.58957589285714,162.0004711151123L188.7950111607143,162.07804775238037L189.00044642857142,162.05631589889526L189.20588169642855,162.06481552124023L189.41131696428573,162.05143547058105L189.61675223214286,162.10263228416443L189.8221875,162.06014132499695L190.02762276785714,162.03825688362122L190.2330580357143,161.93376517295837L190.43849330357142,161.91277480125427L190.64392857142855,161.90755581855774L190.84936383928573,161.94413995742798L191.05479910714286,161.91535925865173L191.260234375,161.93814849853516L191.6711049107143,161.91105699539185L191.87654017857142,161.89062333106995L192.08197544642857,161.888569355011L192.28741071428573,161.8312952518463L192.49284598214285,161.81847071647644L192.69828125,161.7828986644745L193.10915178571426,161.79470038414001L193.31458705357144,161.85583209991455L193.72545758928572,161.9078288078308L193.93089285714285,161.90917825698853L194.34176339285713,161.8795428276062L194.75263392857144,161.88021039962769L195.36893973214285,161.84576964378357L195.574375,158.1979033946991L196.19068080357144,162.6268241405487L196.39611607142857,162.44134521484375L196.60155133928572,162.82012677192688L196.80698660714285,162.6117775440216L197.012421875,162.5599000453949L197.42329241071428,162.3377583026886L197.62872767857144,162.30712389945984L197.83416294642856,162.392080783844L198.45046875,162.32053017616272L198.65590401785715,162.27281069755554L199.06677455357143,162.3049018383026L199.27220982142856,162.3212263584137L199.47764508928572,162.33662581443787L199.68308035714287,162.3186264038086L199.888515625,162.35193943977356L200.09395089285715,162.38011693954468L200.29938616071428,162.31383061408997L200.71025669642856,162.27840161323547L200.91569196428574,162.31271362304688L201.12112723214287,162.2897551059723L201.53199776785715,162.28608226776123L201.73743303571428,162.21816158294678L201.94286830357143,162.2658405303955L202.14830357142856,162.2185525894165L202.35373883928574,162.20189666748047L202.55917410714287,162.18475675582886L202.764609375,162.23015999794006L202.97004464285715,162.23348236083984L203.17547991071427,162.2283992767334L203.38091517857143,162.20455265045166L203.58635044642858,162.21652126312256L203.99722098214286,162.15719318389893L204.20265625,162.1347460746765L204.61352678571427,162.14671349525452L205.02439732142858,162.11391305923462L205.2298325892857,162.13438844680786L205.84613839285714,154.30718755722046L206.05157366071427,160.59969997406006L206.46244419642858,161.30957221984863L206.6678794642857,161.2731955051422L206.87331473214286,161.2255892753601L207.07874999999999,161.42974710464478L207.28418526785714,161.56060791015625L207.69505580357145,161.54215669631958L207.90049107142858,161.54866194725037L208.31136160714286,161.5037260055542L208.51679687499998,161.69600701332092L208.9276674107143,161.69827914237976L209.13310267857142,161.82404971122742L209.33853794642857,161.90290427207947L209.5439732142857,162.0102677345276L209.74940848214285,162.00162982940674L209.95484375,162.00457429885864L210.16027901785716,162.03748440742493L210.3657142857143,161.98937511444092L210.57114955357142,161.9852409362793L210.9820200892857,162.09419703483582L211.18745535714288,162.16719126701355L211.392890625,162.15073800086975L211.59832589285716,162.14105224609375L211.8037611607143,162.15044832229614L212.0091964285714,162.18992924690247L212.21463169642857,162.20116591453552L212.4200669642857,162.17995023727417L212.62550223214288,162.20846390724182L212.8309375,162.24616026878357L213.24180803571429,162.28272891044617L213.65267857142857,162.27525091171265L213.85811383928572,162.27455830574036L214.06354910714288,162.32254838943481L214.268984375,162.33068323135376L214.47441964285713,162.30765795707703L214.67985491071428,162.29777789115906L214.8852901785714,162.30006313323975L215.0907254464286,162.31755828857422L215.29616071428572,162.33354663848877L215.50159598214287,162.35602355003357L215.70703125,162.36461973190308L215.91246651785713,162.36455416679382L216.3233370535714,162.09923601150513L216.73420758928572,161.63756346702576L216.93964285714287,161.41357278823853L217.145078125,161.7652986049652L217.35051339285712,161.80991864204407L217.76138392857143,161.93324899673462L217.9668191964286,161.98400473594666L218.17225446428571,161.9919011592865L218.37768973214284,161.87268352508545L218.583125,161.76374888420105L218.78856026785712,161.8200442790985L218.9939955357143,161.88438510894775L219.4048660714286,161.82619428634644L219.6103013392857,161.77231764793396L220.22660714285712,161.87008237838745L220.4320424107143,161.86018323898315L221.0483482142857,161.80421805381775L221.25378348214284,161.77879667282104L221.45921875,161.85870623588562L221.66465401785715,161.84094882011414L221.8700892857143,161.83913803100586L222.07552455357143,161.8449912071228L222.28095982142858,161.83632469177246L222.4863950892857,161.81441164016724L222.69183035714283,161.83003282546997L223.3081361607143,161.8363139629364L223.51357142857142,161.8476209640503L223.71900669642855,161.85684418678284L223.9244419642857,161.85201382637024L224.12987723214286,161.86071968078613L224.54074776785714,161.86386680603027L224.7461830357143,161.8795177936554L224.95161830357142,161.86134552955627L225.15705357142855,161.8440136909485L225.36248883928573,161.8741319179535L225.773359375,161.8690106868744L225.97879464285714,161.85729479789734L226.1842299107143,161.79544067382812L226.38966517857142,161.81870913505554L226.59510044642855,163.40530252456665L226.80053571428573,162.31673336029053L227.00597098214286,162.11031651496887L227.21140625,162.5229332447052L227.41684151785714,162.11360788345337L227.6222767857143,162.09931826591492L228.03314732142857,162.38921856880188L228.44401785714285,162.35727643966675L228.85488839285713,162.17572903633118L229.06032366071426,162.15920066833496L229.26575892857144,162.14705204963684L229.47119419642857,162.14071488380432L229.67662946428572,162.16847276687622L230.29293526785713,162.09747529029846L230.70380580357144,162.03644490242004L230.90924107142857,162.03484511375427L231.32011160714285,162.06070160865784L231.525546875,162.05247259140015L231.73098214285713,162.11818075180054L231.93641741071428,162.12053990364075L232.14185267857144,162.0323441028595L232.55272321428572,162.092711687088L233.37446428571428,162.1249339580536L233.57989955357144,162.12308144569397L233.78533482142856,162.12472772598267L233.99077008928572,162.0846245288849L234.19620535714284,162.11376881599426L235.01794642857143,162.09243154525757L235.22338169642856,162.05520129203796L235.42881696428572,162.10249996185303L235.63425223214287,162.0697627067566L236.04512276785715,162.0478925704956L236.25055803571428,162.0676074028015L236.45599330357143,162.07029914855957L236.86686383928574,161.52281260490417L237.07229910714287,161.89917302131653L237.277734375,160.79568719863892L237.68860491071428,161.4343032836914L238.09947544642856,161.40785312652588L238.30491071428574,161.60783505439758L238.51034598214287,161.99026679992676L238.92121651785715,161.77704906463623L239.12665178571427,161.73479056358337L239.33208705357143,161.88258624076843L239.53752232142858,161.91430187225342L239.7429575892857,161.9222424030304L239.94839285714286,161.9090256690979L240.153828125,161.86383819580078L240.35926339285714,161.78163385391235L240.56469866071427,161.73269724845886L240.77013392857145,161.7375979423523L240.97556919642858,161.69748759269714L241.1810044642857,161.73110222816467L241.38643973214286,161.7361137866974L241.79731026785714,161.91444373130798L242.00274553571427,161.90846180915833L242.20818080357145,161.85670948028564L242.6190513392857,161.91595649719238L242.82448660714286,161.87972283363342L243.02992187499999,161.87282419204712L243.23535714285714,161.87425827980042L243.64622767857145,161.84893941879272L243.85166294642858,161.8658468723297L244.0570982142857,161.85272192955017L244.26253348214286,161.85245370864868L244.8788392857143,161.85886240005493L245.08427455357142,161.83688974380493L245.28970982142857,161.82969665527344L245.4951450892857,161.85917711257935L246.3168861607143,161.96795201301575L246.72775669642857,162.0027289390564L246.9331919642857,162.01247906684875L247.13862723214288,161.57530164718628L247.3440625,162.2797737121582L247.54949776785716,162.06877088546753L247.7549330357143,161.76690673828125L247.9603683035714,161.1010513305664L248.16580357142857,161.2042579650879L248.3712388392857,161.21621108055115L248.57667410714288,161.3390622138977L248.782109375,161.37400722503662L248.98754464285716,161.42278289794922L249.19297991071429,161.35650372505188L249.3984151785714,161.43162941932678L249.60385044642857,161.32172441482544L250.01472098214288,161.4435431957245L250.22015625,161.5357277393341L250.42559151785713,161.5531919002533L250.63102678571428,161.56342959403992L250.8364620535714,161.60114979743958L251.0418973214286,161.57254433631897L251.24733258928572,161.5587637424469L251.86363839285713,161.56629180908203L252.06907366071428,161.55972814559937L252.4799441964286,161.61211109161377L252.68537946428572,161.5993676185608L252.89081473214287,161.69533228874207L253.09625,161.71372509002686L253.30168526785712,161.7198131084442L253.50712053571428,161.7433807849884L253.71255580357143,161.74515342712402L253.9179910714286,161.8252215385437L254.12342633928571,161.82024574279785L254.32886160714284,161.8166217803955L254.73973214285712,161.82782626152039L254.9451674107143,161.86629390716553L255.3560379464286,161.82547307014465L255.5614732142857,161.87363600730896L255.97234375,161.8646059036255L256.1777790178571,161.9118139743805L256.3832142857143,161.91858983039856L256.58864955357143,161.9714663028717L256.7940848214286,161.9976303577423L256.99952008928574,161.97395777702332L257.20495535714286,161.97763419151306L257.410390625,159.1785798072815L257.6158258928571,161.5708372592926L258.0266964285714,161.63857316970825L258.2321316964286,161.4690432548523L258.43756696428574,161.3995430469513L258.8484375,161.65845608711243L259.0538727678571,161.7532775402069L259.2593080357143,161.7370102405548L259.4647433035714,161.8345592021942L259.67017857142855,161.6856334209442L259.87561383928573,161.7470738887787L260.08104910714286,161.68392992019653L260.286484375,161.65024733543396L260.4919196428571,161.60906410217285L260.6973549107143,161.64636826515198L261.51909598214286,161.67901968955994L261.72453125,161.67028999328613L261.9299665178571,161.72776436805725L262.3408370535714,161.84789633750916L262.54627232142855,161.83014488220215L262.75170758928573,161.8383047580719L262.95714285714286,161.93238472938538L263.162578125,161.98410725593567L263.36801339285716,161.99879384040833L263.5734486607143,162.04427099227905L263.98431919642854,162.01261615753174L264.1897544642857,161.99579215049744L264.39518973214285,162.00233912467957L264.80606026785716,162.0503053665161L265.0114955357143,162.03707313537598L265.2169308035714,162.0449731349945L265.42236607142854,162.05336666107178L265.83323660714285,162.05170488357544L266.03867187500003,162.05828642845154L266.24410714285716,162.0609269142151L266.4495424107143,162.0630762577057L266.6549776785714,162.0980987548828L266.86041294642854,162.1172091960907L267.47671875000003,162.123206615448L267.68215401785716,159.7006175518036L268.29845982142854,162.06867671012878L268.5038950892857,162.11174821853638L268.70933035714285,162.42284989356995L269.12020089285716,162.01537346839905L269.3256361607143,162.23590469360352L269.5310714285714,161.99645256996155L269.9419419642857,162.1112117767334L270.14737723214284,162.047101020813L270.35281249999997,162.13759636878967L270.7636830357143,162.08866691589355L270.96911830357146,162.01747393608093L271.1745535714286,161.93446731567383L271.3799888392857,162.04191541671753L271.58542410714284,162.07078075408936L271.79085937499997,162.090407371521L271.99629464285715,162.13357067108154L272.40716517857146,162.05687618255615L273.02347098214284,162.10007762908936L273.22890624999997,161.99094986915588L273.84521205357146,162.01120352745056L274.0506473214286,162.04563117027283L274.2560825892857,161.9916126728058L274.46151785714284,161.99653482437134L274.66695312499996,162.01258039474487L275.0778236607143,162.0764229297638L275.28325892857146,162.08677864074707L275.4886941964286,162.0315704345703L275.6941294642857,162.05863332748413L275.89956473214284,162.09339118003845L276.105,162.11674070358276L276.31043526785714,162.10822439193726L276.51587053571427,162.10074996948242L276.72130580357145,162.10423803329468L276.9267410714286,162.13100051879883L277.1321763392857,162.13516092300415L277.3376116071429,162.17152333259583L277.543046875,162.14974856376648L277.74848214285714,162.14888668060303" style="fill: none;" fill="none"></path></g></g></g></g></g></g><g transform="translate(42, 176)" clip-path="url(#clip_1)"><clipPath id="clip_1"><rect width="287" height="24"></rect></clipPath><g><g><line x1="0" y1="0" x2="0" y2="5" style="visibility: inherit;" fill="rgb(0, 0, 0)" stroke="rgb(204, 204, 204)" stroke-width="1px"></line><line x1="20.543526785714285" y1="0" x2="20.543526785714285" y2="5" style="visibility: inherit;" fill="rgb(0, 0, 0)" stroke="rgb(204, 204, 204)" stroke-width="1px"></line><line x1="41.08705357142857" y1="0" x2="41.08705357142857" y2="5" style="visibility: inherit;" fill="rgb(0, 0, 0)" stroke="rgb(204, 204, 204)" stroke-width="1px"></line><line x1="61.630580357142854" y1="0" x2="61.630580357142854" y2="5" style="visibility: inherit;" fill="rgb(0, 0, 0)" stroke="rgb(204, 204, 204)" stroke-width="1px"></line><line x1="82.17410714285714" y1="0" x2="82.17410714285714" y2="5" style="visibility: inherit;" fill="rgb(0, 0, 0)" stroke="rgb(204, 204, 204)" stroke-width="1px"></line><line x1="102.71763392857143" y1="0" x2="102.71763392857143" y2="5" style="visibility: inherit;" fill="rgb(0, 0, 0)" stroke="rgb(204, 204, 204)" stroke-width="1px"></line><line x1="123.26116071428571" y1="0" x2="123.26116071428571" y2="5" style="visibility: inherit;" fill="rgb(0, 0, 0)" stroke="rgb(204, 204, 204)" stroke-width="1px"></line><line x1="143.8046875" y1="0" x2="143.8046875" y2="5" style="visibility: inherit;" fill="rgb(0, 0, 0)" stroke="rgb(204, 204, 204)" stroke-width="1px"></line><line x1="164.34821428571428" y1="0" x2="164.34821428571428" y2="5" style="visibility: inherit;" fill="rgb(0, 0, 0)" stroke="rgb(204, 204, 204)" stroke-width="1px"></line><line x1="184.89174107142858" y1="0" x2="184.89174107142858" y2="5" style="visibility: inherit;" fill="rgb(0, 0, 0)" stroke="rgb(204, 204, 204)" stroke-width="1px"></line><line x1="205.43526785714286" y1="0" x2="205.43526785714286" y2="5" style="visibility: inherit;" fill="rgb(0, 0, 0)" stroke="rgb(204, 204, 204)" stroke-width="1px"></line><line x1="225.97879464285714" y1="0" x2="225.97879464285714" y2="5" style="visibility: inherit;" fill="rgb(0, 0, 0)" stroke="rgb(204, 204, 204)" stroke-width="1px"></line><line x1="246.52232142857142" y1="0" x2="246.52232142857142" y2="5" style="visibility: inherit;" fill="rgb(0, 0, 0)" stroke="rgb(204, 204, 204)" stroke-width="1px"></line><line x1="267.0658482142857" y1="0" x2="267.0658482142857" y2="5" style="visibility: inherit;" fill="rgb(0, 0, 0)" stroke="rgb(204, 204, 204)" stroke-width="1px"></line><line x1="287.609375" y1="0" x2="287.609375" y2="5" style="visibility: inherit;" fill="rgb(0, 0, 0)" stroke="rgb(204, 204, 204)" stroke-width="1px"></line></g><g transform="translate(0, 8)"><text x="0" y="0" dx="0em" dy="0.95em" style="text-anchor: middle; visibility: hidden; font-family: Roboto, sans-serif; font-size: 12px; font-weight: 200;" fill="rgb(33, 33, 33)" stroke="none" stroke-width="1px">-10k</text><text x="20.543526785714285" y="0" dx="0em" dy="0.95em" style="text-anchor: middle; visibility: inherit; font-family: Roboto, sans-serif; font-size: 12px; font-weight: 200;" fill="rgb(33, 33, 33)" stroke="none" stroke-width="1px">0</text><text x="41.08705357142857" y="0" dx="0em" dy="0.95em" style="text-anchor: middle; visibility: hidden; font-family: Roboto, sans-serif; font-size: 12px; font-weight: 200;" fill="rgb(33, 33, 33)" stroke="none" stroke-width="1px">10k</text><text x="61.630580357142854" y="0" dx="0em" dy="0.95em" style="text-anchor: middle; visibility: inherit; font-family: Roboto, sans-serif; font-size: 12px; font-weight: 200;" fill="rgb(33, 33, 33)" stroke="none" stroke-width="1px">20k</text><text x="82.17410714285714" y="0" dx="0em" dy="0.95em" style="text-anchor: middle; visibility: hidden; font-family: Roboto, sans-serif; font-size: 12px; font-weight: 200;" fill="rgb(33, 33, 33)" stroke="none" stroke-width="1px">30k</text><text x="102.71763392857143" y="0" dx="0em" dy="0.95em" style="text-anchor: middle; visibility: inherit; font-family: Roboto, sans-serif; font-size: 12px; font-weight: 200;" fill="rgb(33, 33, 33)" stroke="none" stroke-width="1px">40k</text><text x="123.26116071428571" y="0" dx="0em" dy="0.95em" style="text-anchor: middle; visibility: hidden; font-family: Roboto, sans-serif; font-size: 12px; font-weight: 200;" fill="rgb(33, 33, 33)" stroke="none" stroke-width="1px">50k</text><text x="143.8046875" y="0" dx="0em" dy="0.95em" style="text-anchor: middle; visibility: inherit; font-family: Roboto, sans-serif; font-size: 12px; font-weight: 200;" fill="rgb(33, 33, 33)" stroke="none" stroke-width="1px">60k</text><text x="164.34821428571428" y="0" dx="0em" dy="0.95em" style="text-anchor: middle; visibility: hidden; font-family: Roboto, sans-serif; font-size: 12px; font-weight: 200;" fill="rgb(33, 33, 33)" stroke="none" stroke-width="1px">70k</text><text x="184.89174107142858" y="0" dx="0em" dy="0.95em" style="text-anchor: middle; visibility: inherit; font-family: Roboto, sans-serif; font-size: 12px; font-weight: 200;" fill="rgb(33, 33, 33)" stroke="none" stroke-width="1px">80k</text><text x="205.43526785714286" y="0" dx="0em" dy="0.95em" style="text-anchor: middle; visibility: hidden; font-family: Roboto, sans-serif; font-size: 12px; font-weight: 200;" fill="rgb(33, 33, 33)" stroke="none" stroke-width="1px">90k</text><text x="225.97879464285714" y="0" dx="0em" dy="0.95em" style="text-anchor: middle; visibility: inherit; font-family: Roboto, sans-serif; font-size: 12px; font-weight: 200;" fill="rgb(33, 33, 33)" stroke="none" stroke-width="1px">100k</text><text x="246.52232142857142" y="0" dx="0em" dy="0.95em" style="text-anchor: middle; visibility: hidden; font-family: Roboto, sans-serif; font-size: 12px; font-weight: 200;" fill="rgb(33, 33, 33)" stroke="none" stroke-width="1px">110k</text><text x="267.0658482142857" y="0" dx="0em" dy="0.95em" style="text-anchor: middle; visibility: inherit; font-family: Roboto, sans-serif; font-size: 12px; font-weight: 200;" fill="rgb(33, 33, 33)" stroke="none" stroke-width="1px">120k</text><text x="287.609375" y="0" dx="0em" dy="0.95em" style="text-anchor: middle; visibility: hidden; font-family: Roboto, sans-serif; font-size: 12px; font-weight: 200;" fill="rgb(33, 33, 33)" stroke="none" stroke-width="1px">130k</text></g><line x1="0" y1="0" x2="287.609375" y2="0" fill="rgb(0, 0, 0)" stroke="rgb(204, 204, 204)" stroke-width="1px"></line></g></g></g></g></svg>