<svg viewBox="0 0 330 200" xmlns="http://www.w3.org/2000/svg"><g><g><g><g><g><line x1="53.1875" y1="176" x2="48.1875" y2="176" style="visibility: inherit;" fill="rgb(0, 0, 0)" stroke="rgb(204, 204, 204)" stroke-width="1px"></line><line x1="53.1875" y1="158.4" x2="48.1875" y2="158.4" style="visibility: inherit;" fill="rgb(0, 0, 0)" stroke="rgb(204, 204, 204)" stroke-width="1px"></line><line x1="53.1875" y1="140.8" x2="48.1875" y2="140.8" style="visibility: inherit;" fill="rgb(0, 0, 0)" stroke="rgb(204, 204, 204)" stroke-width="1px"></line><line x1="53.1875" y1="123.19999999999999" x2="48.1875" y2="123.19999999999999" style="visibility: inherit;" fill="rgb(0, 0, 0)" stroke="rgb(204, 204, 204)" stroke-width="1px"></line><line x1="53.1875" y1="105.6" x2="48.1875" y2="105.6" style="visibility: inherit;" fill="rgb(0, 0, 0)" stroke="rgb(204, 204, 204)" stroke-width="1px"></line><line x1="53.1875" y1="88" x2="48.1875" y2="88" style="visibility: inherit;" fill="rgb(0, 0, 0)" stroke="rgb(204, 204, 204)" stroke-width="1px"></line><line x1="53.1875" y1="70.4" x2="48.1875" y2="70.4" style="visibility: inherit;" fill="rgb(0, 0, 0)" stroke="rgb(204, 204, 204)" stroke-width="1px"></line><line x1="53.1875" y1="52.80000000000001" x2="48.1875" y2="52.80000000000001" style="visibility: inherit;" fill="rgb(0, 0, 0)" stroke="rgb(204, 204, 204)" stroke-width="1px"></line><line x1="53.1875" y1="35.19999999999999" x2="48.1875" y2="35.19999999999999" style="visibility: inherit;" fill="rgb(0, 0, 0)" stroke="rgb(204, 204, 204)" stroke-width="1px"></line><line x1="53.1875" y1="17.599999999999994" x2="48.1875" y2="17.599999999999994" style="visibility: inherit;" fill="rgb(0, 0, 0)" stroke="rgb(204, 204, 204)" stroke-width="1px"></line><line x1="53.1875" y1="0" x2="48.1875" y2="0" style="visibility: inherit;" fill="rgb(0, 0, 0)" stroke="rgb(204, 204, 204)" stroke-width="1px"></line></g><g transform="translate(43.1875, 0)"><text x="0" y="176" dx="0em" dy="0.3em" style="text-anchor: end; visibility: hidden; font-family: Roboto, sans-serif; font-size: 12px; font-weight: 200;" fill="rgb(33, 33, 33)" stroke="none" stroke-width="1px">0</text><text x="0" y="158.4" dx="0em" dy="0.3em" style="text-anchor: end; visibility: inherit; font-family: Roboto, sans-serif; font-size: 12px; font-weight: 200;" fill="rgb(33, 33, 33)" stroke="none" stroke-width="1px">0.05</text><text x="0" y="140.8" dx="0em" dy="0.3em" style="text-anchor: end; visibility: hidden; font-family: Roboto, sans-serif; font-size: 12px; font-weight: 200;" fill="rgb(33, 33, 33)" stroke="none" stroke-width="1px">0.1</text><text x="0" y="123.19999999999999" dx="0em" dy="0.3em" style="text-anchor: end; visibility: inherit; font-family: Roboto, sans-serif; font-size: 12px; font-weight: 200;" fill="rgb(33, 33, 33)" stroke="none" stroke-width="1px">0.15</text><text x="0" y="105.6" dx="0em" dy="0.3em" style="text-anchor: end; visibility: hidden; font-family: Roboto, sans-serif; font-size: 12px; font-weight: 200;" fill="rgb(33, 33, 33)" stroke="none" stroke-width="1px">0.2</text><text x="0" y="88" dx="0em" dy="0.3em" style="text-anchor: end; visibility: inherit; font-family: Roboto, sans-serif; font-size: 12px; font-weight: 200;" fill="rgb(33, 33, 33)" stroke="none" stroke-width="1px">0.25</text><text x="0" y="70.4" dx="0em" dy="0.3em" style="text-anchor: end; visibility: hidden; font-family: Roboto, sans-serif; font-size: 12px; font-weight: 200;" fill="rgb(33, 33, 33)" stroke="none" stroke-width="1px">0.3</text><text x="0" y="52.80000000000001" dx="0em" dy="0.3em" style="text-anchor: end; visibility: inherit; font-family: Roboto, sans-serif; font-size: 12px; font-weight: 200;" fill="rgb(33, 33, 33)" stroke="none" stroke-width="1px">0.35</text><text x="0" y="35.19999999999999" dx="0em" dy="0.3em" style="text-anchor: end; visibility: hidden; font-family: Roboto, sans-serif; font-size: 12px; font-weight: 200;" fill="rgb(33, 33, 33)" stroke="none" stroke-width="1px">0.4</text><text x="0" y="17.599999999999994" dx="0em" dy="0.3em" style="text-anchor: end; visibility: inherit; font-family: Roboto, sans-serif; font-size: 12px; font-weight: 200;" fill="rgb(33, 33, 33)" stroke="none" stroke-width="1px">0.45</text><text x="0" y="0" dx="0em" dy="0.3em" style="text-anchor: end; visibility: hidden; font-family: Roboto, sans-serif; font-size: 12px; font-weight: 200;" fill="rgb(33, 33, 33)" stroke="none" stroke-width="1px">0.5</text></g><line x1="53.1875" y1="0" x2="53.1875" y2="176" fill="rgb(0, 0, 0)" stroke="rgb(204, 204, 204)" stroke-width="1px"></line></g></g><g transform="translate(53, 0)" clip-path="url(#clip_0)"><clipPath id="clip_0"><rect width="276" height="176"></rect></clipPath><g><g><g><line x1="0" y1="0" x2="0" y2="176" fill="rgb(0, 0, 0)" stroke="rgb(66, 66, 66)" stroke-width="1px" opacity="0.25"></line><line x1="19.772321428571427" y1="0" x2="19.772321428571427" y2="176" fill="rgb(0, 0, 0)" stroke="rgb(66, 66, 66)" stroke-width="1px" opacity="0.25"></line><line x1="39.544642857142854" y1="0" x2="39.544642857142854" y2="176" fill="rgb(0, 0, 0)" stroke="rgb(66, 66, 66)" stroke-width="1px" opacity="0.25"></line><line x1="59.316964285714285" y1="0" x2="59.316964285714285" y2="176" fill="rgb(0, 0, 0)" stroke="rgb(66, 66, 66)" stroke-width="1px" opacity="0.25"></line><line x1="79.08928571428571" y1="0" x2="79.08928571428571" y2="176" fill="rgb(0, 0, 0)" stroke="rgb(66, 66, 66)" stroke-width="1px" opacity="0.25"></line><line x1="98.86160714285714" y1="0" x2="98.86160714285714" y2="176" fill="rgb(0, 0, 0)" stroke="rgb(66, 66, 66)" stroke-width="1px" opacity="0.25"></line><line x1="118.63392857142857" y1="0" x2="118.63392857142857" y2="176" fill="rgb(0, 0, 0)" stroke="rgb(66, 66, 66)" stroke-width="1px" opacity="0.25"></line><line x1="138.40625" y1="0" x2="138.40625" y2="176" fill="rgb(0, 0, 0)" stroke="rgb(66, 66, 66)" stroke-width="1px" opacity="0.25"></line><line x1="158.17857142857142" y1="0" x2="158.17857142857142" y2="176" fill="rgb(0, 0, 0)" stroke="rgb(66, 66, 66)" stroke-width="1px" opacity="0.25"></line><line x1="177.95089285714286" y1="0" x2="177.95089285714286" y2="176" fill="rgb(0, 0, 0)" stroke="rgb(66, 66, 66)" stroke-width="1px" opacity="0.25"></line><line x1="197.72321428571428" y1="0" x2="197.72321428571428" y2="176" fill="rgb(0, 0, 0)" stroke="rgb(66, 66, 66)" stroke-width="1px" opacity="0.25"></line><line x1="217.49553571428572" y1="0" x2="217.49553571428572" y2="176" fill="rgb(0, 0, 0)" stroke="rgb(66, 66, 66)" stroke-width="1px" opacity="0.25"></line><line x1="237.26785714285714" y1="0" x2="237.26785714285714" y2="176" fill="rgb(0, 0, 0)" stroke="rgb(66, 66, 66)" stroke-width="1px" opacity="0.25"></line><line x1="257.04017857142856" y1="0" x2="257.04017857142856" y2="176" fill="rgb(0, 0, 0)" stroke="rgb(66, 66, 66)" stroke-width="1px" opacity="0.25"></line><line x1="276.8125" y1="0" x2="276.8125" y2="176" fill="rgb(0, 0, 0)" stroke="rgb(66, 66, 66)" stroke-width="1px" opacity="0.25"></line></g><g><line x1="0" y1="176" x2="276.8125" y2="176" fill="rgb(0, 0, 0)" stroke="rgb(66, 66, 66)" stroke-width="1px" opacity="0.25"></line><line x1="0" y1="158.4" x2="276.8125" y2="158.4" fill="rgb(0, 0, 0)" stroke="rgb(66, 66, 66)" stroke-width="1px" opacity="0.25"></line><line x1="0" y1="140.8" x2="276.8125" y2="140.8" fill="rgb(0, 0, 0)" stroke="rgb(66, 66, 66)" stroke-width="1px" opacity="0.25"></line><line x1="0" y1="123.19999999999999" x2="276.8125" y2="123.19999999999999" fill="rgb(0, 0, 0)" stroke="rgb(66, 66, 66)" stroke-width="1px" opacity="0.25"></line><line x1="0" y1="105.6" x2="276.8125" y2="105.6" fill="rgb(0, 0, 0)" stroke="rgb(66, 66, 66)" stroke-width="1px" opacity="0.25"></line><line x1="0" y1="88" x2="276.8125" y2="88" fill="rgb(0, 0, 0)" stroke="rgb(66, 66, 66)" stroke-width="1px" opacity="0.25"></line><line x1="0" y1="70.4" x2="276.8125" y2="70.4" fill="rgb(0, 0, 0)" stroke="rgb(66, 66, 66)" stroke-width="1px" opacity="0.25"></line><line x1="0" y1="52.80000000000001" x2="276.8125" y2="52.80000000000001" fill="rgb(0, 0, 0)" stroke="rgb(66, 66, 66)" stroke-width="1px" opacity="0.25"></line><line x1="0" y1="35.19999999999999" x2="276.8125" y2="35.19999999999999" fill="rgb(0, 0, 0)" stroke="rgb(66, 66, 66)" stroke-width="1px" opacity="0.25"></line><line x1="0" y1="17.599999999999994" x2="276.8125" y2="17.599999999999994" fill="rgb(0, 0, 0)" stroke="rgb(66, 66, 66)" stroke-width="1px" opacity="0.25"></line><line x1="0" y1="0" x2="276.8125" y2="0" fill="rgb(0, 0, 0)" stroke="rgb(66, 66, 66)" stroke-width="1px" opacity="0.25"></line></g></g></g><g><g><line x1="0" y1="176" x2="276.8125" y2="176" fill="rgb(0, 0, 0)" stroke="rgb(153, 153, 153)" stroke-width="1.5px"></line></g></g><g><g><line x1="19.772321428571427" y1="0" x2="19.772321428571427" y2="176" fill="rgb(0, 0, 0)" stroke="rgb(153, 153, 153)" stroke-width="1.5px"></line></g></g><g><g><g><g><g><path stroke="rgb(255, 112, 67)" stroke-width="2px" d="M19.970044642857143,17.276700019836426L20.36549107142857,52.305259585380554L20.563214285714288,65.012844864203L20.7609375,72.46412984062643L21.354107142857142,81.08616117666696L21.74955357142857,86.98059396655422L21.947276785714283,90.65213161024836L22.145,93.26870086910805L22.738169642857144,96.0118407824934L22.935892857142857,97.63682376644672L23.133616071428573,98.80978474822476L23.331339285714286,99.63048169125213L23.529062500000002,100.29886736375677L23.726785714285715,100.98868858182774L23.924508928571427,101.60712544982201L24.319955357142856,102.2625692323535L24.51767857142857,102.82738201639542L24.913125,103.63174077413507L25.110848214285717,104.43445932282633L25.30857142857143,105.03844063427833L25.506294642857142,105.61862211377782L25.70401785714286,106.16924722711403L25.90174107142857,106.70390756199961L26.099464285714287,107.1874249914367L26.2971875,107.55413313092967L26.494910714285712,107.89259436277118L26.69263392857143,108.23853148191888L27.088080357142854,108.77458856343367L27.285803571428573,109.1285540802487L27.483526785714286,109.40887346165862L27.681250000000002,109.77323378566486L27.878973214285715,110.07987295113777L28.274419642857143,110.36262372009764L28.472142857142856,110.64412300721372L29.065312499999997,111.13618618461332L29.263035714285717,111.49262727993518L29.46075892857143,111.78008011577276L29.658482142857142,112.10142342923842L29.85620535714286,114.46380721069444L30.05392857142857,117.69643218077448L30.251651785714287,121.20948795813293L30.449375,122.99374029923692L30.647098214285712,124.20589135854205L30.84482142857143,124.8461471962176L31.240267857142854,125.15820005940117L31.437991071428574,125.55109851009149L31.833437500000002,125.6466079738563L32.03116071428571,125.56539398353073L32.22888392857143,125.48225492191662L32.426607142857144,125.63811584682799L32.822053571428576,125.99543493015663L33.019776785714285,126.0609841407724L33.2175,126.23022280105309L33.41522321428572,126.28668447714071L33.81066964285714,126.47836253870153L34.00839285714286,126.55871533053298L34.20611607142857,126.54188851533637L34.403839285714284,126.62637193213885L34.799285714285716,126.56281294352402L35.19473214285714,126.55861614898795L35.39245535714286,126.63022965643378L35.59017857142857,126.65601865323528L35.78790178571428,126.7433870784768L35.985625,126.87916918708854L36.183348214285715,127.00230848857147L36.381071428571424,127.14445741217365L36.57879464285714,127.19311422849314L36.77651785714286,127.07550541606317L36.97424107142857,127.03105497388107L37.17196428571429,126.97873144166505L37.369687500000005,126.98648546228907L37.567410714285714,127.01959208303751L37.76513392857143,127.04819876941477L38.160580357142855,127.12554840441011L38.55602678571429,127.21905176756063L38.753750000000004,127.28651700566576L38.95147321428571,127.32347976058938L39.544642857142854,127.40477930838001L39.74236607142857,128.14919330676872L39.940089285714286,129.94088317156124L40.33553571428571,130.26869822263887L40.53325892857143,130.2903378529559L40.92870535714285,130.765548308087L41.126428571428576,131.38912482225456L41.32415178571429,132.05464732148383L41.521875,132.42456562219937L41.71959821428572,132.69996108352473L41.917321428571434,132.8377816542347L42.11504464285714,132.6561406531548L42.510491071428575,132.73798513881061L42.708214285714284,132.72476825995264L42.9059375,132.85921407868278L43.103660714285716,133.03637347894795L43.301383928571425,133.15477820800476L43.49910714285714,133.15108311514098L43.69683035714286,133.15623767578626L43.89455357142857,133.0912706816436L44.09227678571428,133.10629830147272L44.29,133.15698071351915L44.685446428571424,132.9951794864611L44.88316964285714,133.00844745170332L45.08089285714286,133.00141952235256L45.278616071428566,133.00558565735074L45.47633928571429,133.04968194174322L45.674062500000005,132.9639363050911L45.871785714285714,132.931728348759L46.06950892857143,132.9378019247217L46.464955357142856,132.98649926625268L46.86040178571429,133.03840424801456L47.058125000000004,133.05335737577408L47.25584821428571,133.10893083400325L47.45357142857143,133.1342539357352L47.651294642857145,133.13797757430123L47.849017857142854,133.1423811757758L48.24446428571429,133.17920636202066L48.442187499999996,133.17405261436204L48.63991071428571,133.15861419343412L48.83763392857143,133.16874372663176L49.03535714285714,133.1677813273792L49.23308035714285,133.15275543583184L49.62852678571429,133.46645661385503L50.02397321428572,132.94589331264285L50.221696428571434,133.87644216129178L50.41941964285714,134.82081883376236L50.814866071428575,135.80420814290878L51.012589285714284,136.17775832614444L51.2103125,136.2760118186542L51.40803571428572,136.23215782285146L51.605758928571426,136.19294116282708L51.80348214285714,136.168988402988L52.00120535714286,136.09265299815266L52.198928571428574,136.1370892773767L52.39665178571428,136.0639724880874L52.594375,136.0042262166989L52.792098214285716,136.06614704670022L53.18754464285714,136.22487299288218L53.38526785714286,136.3843371906573L53.582991071428566,136.6432476543602L53.78071428571428,136.7158255877028L53.9784375,136.74190370451987L54.37388392857143,136.72824978954543L54.57160714285715,136.78618693427413L54.76933035714286,136.7826056961785L54.96705357142857,136.78867409733357L55.16477678571429,136.8043518430437L55.56022321428571,136.81689827242167L55.75794642857143,136.8793497598092L55.955669642857146,136.94861710762504L56.153392857142855,136.9847403329344L56.35111607142857,136.90840439568348L56.54883928571429,136.85341322762005L56.746562499999996,136.84108989442726L57.339732142857144,136.79621363285386L57.53745535714285,136.68393154503826L57.73517857142857,136.49323169923974L57.932901785714286,136.37163949332924L58.130624999999995,136.3355968017715L58.526071428571434,136.26714301224573L58.92151785714286,136.28835234711187L59.119241071428576,136.30652667087088L59.316964285714285,136.34467907549006L59.5146875,140.9237455594603L59.91013392857143,140.87904754090687L60.10785714285714,141.0358383107685L60.30558035714286,141.59580060532704L60.503303571428575,141.55925066882978L60.701026785714284,141.67673101195462L60.89875,141.59168199401358L61.096473214285716,141.4080180388764L61.294196428571425,141.39136271846746L61.49191964285714,141.39539731247694L61.68964285714286,141.5001468461959L62.08508928571428,141.39879845393943L62.2828125,141.28176602609904L62.48053571428571,141.26015496783225L62.678258928571424,141.16340241749745L63.07370535714286,140.93172503661907L63.27142857142857,140.88798943252442L63.46915178571429,140.82938513214037L63.666875000000005,140.8048671785274L63.864598214285714,140.81629013438695L64.06232142857142,140.8575000251512L64.26004464285714,140.86092621595742L64.45776785714285,140.86721481389452L64.65549107142857,140.74022911492975L65.24866071428572,140.69283598961823L65.44638392857144,140.6369120735073L65.64410714285715,140.58583767760655L65.84183035714285,140.5561182948879L66.03955357142857,140.57903983908483L66.23727678571429,140.60038992594235L66.435,140.70055997866723L66.63272321428572,140.73839085399112L66.83044642857143,140.6605334824264L67.02816964285714,140.58108371173978L67.22589285714285,140.59251056716226L67.62133928571428,140.52073156002393L67.8190625,140.47303683259028L68.21450892857143,140.49250492273532L68.41223214285714,140.49476748000836L68.60995535714285,140.5169956999496L68.80767857142857,140.51981179222318L69.00540178571428,140.48135776701483L69.203125,140.3870480739052L69.79629464285715,142.07225446003525L69.99401785714285,142.69648854790836L70.19174107142857,142.81720495735829L70.38946428571428,143.07247019121186L70.78491071428572,143.3282434481927L70.98263392857143,143.60697557559897L71.18035714285713,143.38455144185596L71.37808035714285,143.24111218225224L71.77352678571428,143.3487961469368L71.97125,143.25586668123458L72.36669642857143,143.06896829288993L72.76214285714285,142.95983791161652L72.95986607142856,142.87477617149995L73.3553125,142.86567666939166L73.55303571428573,142.7538714099602L73.94848214285715,142.75704362920976L74.14620535714286,142.7322729762319L74.34392857142858,142.72484933948058L74.5416517857143,142.71554229030335L74.93709821428573,142.58250158649278L75.13482142857143,142.51720429433342L75.33254464285714,142.46460342987152L75.53026785714286,142.41260547985897L75.72799107142858,142.43054907053866L75.92571428571429,142.53472295123433L76.12343750000001,142.58818453978355L76.32116071428571,142.65209886092458L76.51888392857143,142.66107952987264L76.71660714285714,142.72292001482907L76.91433035714286,142.78975729606788L77.11205357142858,142.76306612767124L77.30977678571429,142.73505563424436L77.50750000000001,142.7275197201157L78.29839285714286,142.71884186823274L78.49611607142857,142.7271856293625L78.69383928571429,142.66771253499664L78.89156249999999,142.6234097513752L79.08928571428571,142.58541870315057L79.28700892857142,141.3145486843537L79.48473214285714,142.06025182795233L79.88017857142857,142.92021987194838L80.07790178571429,143.62090547892464L80.27562499999999,143.93185143478522L80.4733482142857,144.20981257443313L80.67107142857142,144.19332061579635L80.86879464285714,144.49688016397243L81.06651785714286,144.8220244110971L81.46196428571427,145.14848350652153L81.65968749999999,145.32677492599544L81.8574107142857,145.28046379745518L82.05513392857142,145.3740197793276L82.25285714285715,145.4066244110841L82.45058035714287,145.42523780735604L82.84602678571429,145.5820527033345L83.04375,145.7549309704504L83.24147321428572,145.79944476925144L83.43919642857144,145.82931486036068L83.63691964285715,145.9720875696283L84.03236607142857,145.97426425671227L84.23008928571429,145.9467551902273L84.62553571428572,145.99971100064153L85.02098214285715,146.07403047306556L85.21870535714287,146.10126366271507L85.41642857142857,146.08496578963957L85.61415178571428,146.03501925726152L85.811875,146.02812920724998L86.00959821428572,146.0492277784088L86.40504464285715,146.0187996293866L86.60276785714285,145.91878147517224L86.80049107142857,145.93133594748127L87.1959375,145.86626445148437L87.39366071428572,145.80528189476757L87.59138392857143,145.7462512596633L87.78910714285713,145.71702117587242L87.98683035714285,145.69390956679055L88.18455357142857,145.6822823054735L88.38227678571428,145.66080084843304L88.58,145.66304335238257L88.77772321428571,145.6428258016212L88.97544642857143,145.5782536741795L89.17316964285713,146.12565408210168L89.56861607142856,146.47100697791703L89.76633928571428,146.94144007465914L89.9640625,147.42597196639585L90.16178571428571,147.67446507299545L90.55723214285713,147.9264645891464L90.75495535714285,147.95321018201565L91.1504017857143,147.79230412663492L91.34812500000001,147.67988849175856L91.54584821428573,147.6732132464223L91.74357142857143,147.4654737013324L91.94129464285714,147.34591467963122L92.13901785714286,147.3862116800932L92.33674107142858,147.42875125808644L92.5344642857143,147.50147663833576L92.73218750000001,147.54118425418065L92.92991071428571,147.54141062956526L93.72080357142858,147.45980826891346L93.91852678571429,147.40367770121625L94.11625000000001,147.32719531015238L94.51169642857143,147.23012417766856L94.70941964285714,147.13032580741293L95.30258928571429,147.03990603284862L95.50031249999999,147.00425682542817L95.89575892857142,146.93645244883356L96.09348214285714,146.8837855699471L96.29120535714286,146.84324865596363L96.88437499999999,146.82571590576688L97.08209821428571,146.83301842590643L97.27982142857142,146.84910829294012L97.47754464285714,146.845498129298L97.67526785714286,146.87448122773748L97.87299107142857,146.9083127181183L98.07071428571427,146.9350957393915L98.26843749999999,146.96232945443813L98.4661607142857,147.00891460610404L98.66388392857142,147.0165541507779L98.86160714285714,147.01559683906905L99.05933035714285,148.98491514460963L99.25705357142859,150.52417586288882L99.45477678571427,151.00140804077407L99.6525,151.10056577935947L99.85022321428572,151.11181184539277L100.04794642857144,151.060692244107L100.24566964285715,151.18252492745785L100.44339285714287,151.26652408123059L100.64111607142857,151.49079489994074L100.83883928571429,151.46288390331284L101.0365625,151.35397059543618L101.43200892857143,151.3243582178574L101.62973214285715,151.22378782805333L101.82745535714287,151.10993187651948L102.02517857142857,150.93215604439925L102.61834821428572,150.61111047157974L102.81607142857143,150.46411014967757L103.01379464285715,150.303967722497L103.21151785714285,150.23170180811977L103.40924107142857,150.1825945597559L103.60696428571428,150.16321255097805L103.8046875,150.11670165854704L104.00241071428572,150.0818231916309L104.20013392857143,150.00855417346244L104.39785714285715,149.98638031062652L104.79330357142857,149.9580086062978L104.99102678571428,149.8865686411041L105.18875,149.82000366177428L105.78191964285713,149.8497892339603L105.97964285714285,149.82675319430686L106.17736607142857,149.8071135849801L106.37508928571428,149.76231437748953L106.5728125,149.7449874271529L106.77053571428571,149.74108062920433L106.96825892857143,149.73839875899233L107.16598214285713,149.76156065966174L107.56142857142856,149.78413966957027L107.75915178571428,149.7999939183193L107.956875,149.7272563493131L108.15459821428573,149.57744658684007L108.94549107142858,153.93571227011248L109.1432142857143,154.1037765575478L109.34093750000001,153.7572423596996L109.53866071428573,153.35975265382635L109.73638392857143,153.26608114170375L109.93410714285714,152.9496676249942L110.13183035714286,152.82026844761612L110.52727678571429,152.77921637023593L110.92272321428571,152.88134818151656L111.12044642857143,152.94975760504641L111.31816964285714,152.9697815115752L111.51589285714286,152.85968739601984L111.71361607142858,152.73006109483845L111.91133928571429,152.63800156168824L112.10906250000001,152.57678630383424L112.50450892857143,152.38598753471143L112.70223214285714,152.2815308180986L112.89995535714286,152.22820060298073L113.09767857142857,152.17098455932873L113.49312499999999,152.17476137463532L113.69084821428571,152.19863142957854L113.88857142857142,152.17012318605524L114.48174107142857,152.11069569965804L114.67946428571429,151.9856314777172L114.87718749999999,151.8382824968598L115.0749107142857,151.77724680371892L115.27263392857142,151.69588795344717L115.47035714285714,151.6415043296855L115.66808035714286,151.5899116767908L116.06352678571427,151.59704259475853L116.26124999999999,151.5783492293405L116.4589732142857,151.51944272318167L116.65669642857142,151.50169859289338L116.85441964285715,151.46416202759272L117.05214285714287,151.45028209433275L117.6453125,151.40705356446097L117.84303571428572,151.385758456273L118.23848214285715,151.36613744299598L118.43620535714287,151.3014952290117L118.63392857142857,151.26956329036113L119.029375,152.4132537918589L119.22709821428572,153.44256139262325L119.42482142857143,154.15699558534507L120.01799107142857,155.15071981595923L120.21571428571428,155.5872576799808L120.4134375,155.82855204146017L120.61116071428572,156.0165596687848L120.80888392857143,156.03059591555922L121.00660714285715,156.05536383214192L121.20433035714285,156.0648325075066L121.40205357142857,156.13912419017288L121.59977678571428,156.20164830408177L121.99522321428572,156.26028470350315L122.19294642857143,156.33078410716658L122.39066964285713,156.38435832555177L122.58839285714285,156.45316266951014L122.78611607142857,156.562200784308L122.98383928571428,156.66156644798653L123.37928571428571,156.67319533334575L123.97245535714285,156.63973367873672L124.17017857142856,156.60338762202167L124.76334821428571,156.66398221730176L124.96107142857142,156.6855647950112L125.15879464285713,156.71550514630908L125.35651785714285,156.7638102670457L125.55424107142858,156.77972385286964L125.7519642857143,156.76898143887328L125.94968750000001,156.77423752665402L126.14741071428573,156.79080212902954L126.34513392857143,156.7942210959907L126.54285714285714,156.790994747133L126.74058035714286,156.79387928465064L126.93830357142858,156.80108128439818L127.1360267857143,156.7864221718993L127.33375000000001,156.78807253760613L127.53147321428571,156.79086763335772L127.92691964285714,156.79459504290526L128.12464285714285,156.80254666807713L128.32236607142858,156.83955364705602L128.7178125,156.90327208805965L129.1132589285714,157.63537713032298L129.31098214285714,157.55696375454266L129.50870535714284,157.48703403046608L129.70642857142857,157.24257599574852L129.9041517857143,157.1483926013859L130.2995982142857,156.8835670015664L130.49732142857144,156.87423037656848L130.69504464285714,156.906175179295L130.89276785714287,156.96567981422677L131.09049107142857,157.10440164196928L131.2882142857143,157.25934041373992L131.4859375,157.3139066507403L131.88138392857144,157.4006683713188L132.07910714285714,157.38304018294755L132.27683035714287,157.50820507595503L132.47455357142857,157.66041959517935L132.67227678571427,157.7461941551789L132.87,157.78306514690067L133.0677232142857,157.85875863236038L133.26544642857144,157.87325788975863L133.66089285714287,157.90625115299886L133.85861607142857,157.97240111866392L134.05633928571427,157.9946654655862L134.64950892857144,157.9488759528594L135.44040178571427,157.94349821156243L135.638125,157.9652749523281L135.8358482142857,157.99963497071022L136.23129464285714,157.98673252432675L136.42901785714287,158.0147917042323L136.62674107142857,158.01170486033845L136.82446428571427,158.03203998697333L137.0221875,158.07063285525163L137.2199107142857,158.09829053888035L137.41763392857143,158.1095056629736L137.61535714285714,158.131234460864L137.81308035714284,158.1643105350694L138.01080357142857,158.18298597352273L138.20852678571427,158.22305981645923L138.40625,158.2512037773725L138.80169642857143,156.83172226070144L138.99941964285713,157.55793166231382L139.19714285714286,158.27481517834227L139.39486607142857,158.77298666025854L139.5925892857143,158.86040955177342L139.7903125,158.95910819406149L139.9880357142857,158.94647798558972L140.18575892857143,159.0738407231623L140.38348214285713,159.06326920135345L140.58120535714286,159.08405398335174L140.97665178571427,159.2137762487299L141.174375,159.17896088244717L141.3720982142857,159.2079567449224L141.56982142857143,159.26362959962677L141.76754464285713,159.20105123771185L141.96526785714286,159.1766959205446L142.16299107142856,159.23631292433603L142.36071428571427,159.303468357629L142.5584375,159.30722506708287L142.7561607142857,159.30485806385508L142.95388392857143,159.26421786260505L143.15160714285713,159.16413961000382L143.54705357142856,159.06410318700753L143.74477678571427,158.97253192715814L143.9425,158.9815492466269L144.1402232142857,158.9999997517573L144.33794642857143,158.98217629796903L144.93111607142856,158.97781896237518L145.12883928571426,158.97540650155534L145.3265625,158.95228477350707L145.5242857142857,158.9445439102163L145.72200892857143,158.93842286598147L145.91973214285713,158.95899726588405L146.31517857142856,158.98739748977945L146.51290178571426,159.02248376478747L146.710625,159.04512168091532L146.9083482142857,159.06283765507933L147.10607142857145,159.0206437913966L147.30379464285716,158.9843219762082L147.50151785714283,158.97547406226607L148.09468750000002,158.9703200475586L148.29241071428572,158.994287670625L148.68785714285715,159.0232981806831L148.88558035714286,159.33031606470564L149.0833035714286,159.57650680419815L149.2810267857143,159.52612072871335L149.47875000000002,159.45066961435202L150.07191964285715,159.51280193798377L150.26964285714286,159.61767791076085L150.4673660714286,159.7409921071743L150.6650892857143,159.84054262529702L151.06053571428572,160.03252090865902L151.45598214285715,160.00795715960584L151.85142857142858,159.96860157199336L152.24687500000002,159.958019940541L152.44459821428572,159.88101537733422L152.64232142857142,159.81819529360024L152.84004464285715,159.82192832842762L153.03776785714285,159.84595359930572L153.43321428571429,159.87445162277922L153.63093750000002,159.9024531277508L153.82866071428572,159.92222753956855L154.02638392857142,159.931540917128L154.22410714285715,159.8860049431143L154.42183035714285,159.8455729594599L154.81727678571428,159.80724559490505L155.01500000000001,159.80753528037442L155.21272321428572,159.80972430085404L155.41044642857142,159.80828083142796L155.80589285714285,159.7777829920361L156.00361607142858,159.75261358947216L156.20133928571428,159.71508081275616L156.39906249999999,159.69551577280996L156.79450892857142,159.67352498835945L156.99223214285715,159.68655761043203L157.18995535714285,159.68279890990243L157.38767857142858,159.69842985138882L157.58540178571428,159.6952545336818L157.78312499999998,159.72308757853125L157.98084821428571,159.7437244591213L158.17857142857142,159.75375201327185L158.37629464285715,159.7348128916179L158.77174107142858,160.0520863986823L158.96946428571428,160.08611495833472L159.3649107142857,160.52770609581995L159.56263392857142,160.78181158855276L159.76035714285715,161.09179637047478L159.95808035714285,161.24227507837313L160.15580357142858,161.2511870856744L160.35352678571428,161.3285966393746L160.55124999999998,161.22296751006826L160.7489732142857,161.05859511175385L160.9466964285714,160.9747316901602L161.34214285714285,160.87071423916325L161.53986607142855,160.82369950525944L161.73758928571428,160.71877057023633L161.93531249999998,160.65146493117683L162.1330357142857,160.5796449136774L162.3307589285714,160.57263312053922L162.52848214285714,160.50929470844414L162.72620535714285,160.4838565587243L162.92392857142855,160.4511077165151L163.12165178571428,160.4042252874103L163.31937499999998,160.38592220400133L163.5170982142857,160.37815776499724L163.7148214285714,160.34175824542413L163.91254464285717,160.35971445691328L164.11026785714284,160.37213308126772L164.30799107142855,160.3536110312405L164.5057142857143,160.3335295433201L164.7034375,160.3115194746493L164.90116071428574,160.30963993720047L165.09888392857144,160.28675613791842L165.29660714285717,160.26625849003256L165.49433035714287,160.26160794016516L165.8897767857143,160.24904735992428L166.0875,160.23906674450683L166.28522321428574,160.2381651786926L166.68066964285714,160.2282793753125L166.87839285714287,160.21821204619275L167.07611607142857,160.1740305888454L167.2738392857143,160.1519901077628L167.4715625,160.15602727655647L168.46017857142857,159.95770914509345L168.6579017857143,159.59986509772804L168.855625,160.01909931834143L169.25107142857144,160.0031803627944L169.44879464285714,159.87981163144923L169.64651785714287,160.0083215396453L169.84424107142857,159.9851920700579L170.0419642857143,160.14116368869003L170.43741071428573,160.42414118158254L170.63513392857143,160.6367642480578L170.83285714285714,160.7294128655461L171.03058035714287,160.74123181814358L171.22830357142857,160.71988943764214L171.4260267857143,160.7357480260649L171.62375,160.8047643025469L171.8214732142857,160.8172834586949L172.01919642857143,160.8629795474917L172.21691964285714,160.8081670143074L172.41464285714287,160.80215279685655L172.61236607142857,160.8016740824413L172.8100892857143,160.8020566669483L173.2055357142857,160.78839113517876L173.40325892857143,160.77535888078376L173.60098214285713,160.77951224161723L173.79870535714286,160.77697934814415L173.99642857142857,160.7574486142881L174.1941517857143,160.72706562319323L174.391875,160.74058140539483L174.5895982142857,160.72384694351763L174.78732142857143,160.68775121649512L175.38049107142857,160.67960858512168L175.57821428571427,160.68227505784182L175.7759375,160.69105930388537L175.9736607142857,160.66108047521453L176.17138392857143,160.64438612196648L176.36910714285713,160.61253475507382L176.76455357142856,160.5764971218126L176.96227678571427,160.53469727287396L177.16,160.50701259285034L177.3577232142857,160.50908364480628L177.55544642857143,160.5074964858645L177.75316964285713,160.49608944043837L177.95089285714286,160.4819517504294L178.14861607142856,160.47067029304023L178.5440625,160.5697932662172L178.7417857142857,160.96890218386667L178.93950892857143,160.39404730397234L179.13723214285713,159.94620135067564L179.33495535714286,159.85485474251902L179.53267857142856,159.72934188832758L179.73040178571426,159.91585821145725L179.928125,159.96585093876092L180.1258482142857,160.04867579305392L180.32357142857143,160.14021593191757L180.71901785714283,160.20817435895523L180.91674107142856,160.25138424107504L181.11446428571426,160.28469857137844L181.5099107142857,160.38393912650014L181.70763392857145,160.52272020540755L181.90535714285716,160.59375859953238L182.10308035714283,160.6433992007808L182.3008035714286,160.69354179021337L182.4985267857143,160.777825036744L182.69625000000002,160.82451353019457L182.89397321428572,160.85387726751554L183.09169642857145,160.82476594524138L183.28941964285715,160.78323990390632L183.48714285714286,160.78021620682438L183.6848660714286,160.80213078839515L183.8825892857143,160.7836210309442L184.08031250000002,160.78279473656275L184.47575892857145,160.7561594621769L184.67348214285715,160.7427348122854L184.87120535714286,160.76231335555664L185.0689285714286,160.75166291567774L185.2666517857143,160.74066421135123L185.46437500000002,160.74070542302044L185.85982142857142,160.76414109019228L186.05754464285715,160.8049645945298L186.45299107142858,160.8705863788645L186.6507142857143,160.9263512512994L187.04616071428572,160.95376664524986L187.44160714285715,160.96297696903773L188.03477678571429,160.94813129708425L188.23250000000002,157.5103249872044L188.82566964285715,159.0586909964273L189.02339285714285,159.97470982757744L189.22111607142858,160.48903870515545L189.41883928571428,160.86481823880985L189.61656250000001,161.15605615591713L190.01200892857142,161.22561935791794L190.20973214285715,161.33332417136089L190.40745535714285,161.4748774869779L191.00062499999999,161.618150884124L191.19834821428572,161.64727259529374L191.59379464285715,161.66389170201268L191.79151785714285,161.68630952186373L191.98924107142858,161.7077334555804L192.18696428571428,161.69374808268662L192.38468749999998,161.6964940106685L192.58241071428571,161.73083600257723L192.78013392857142,161.67645044836337L193.17558035714285,161.59974729843697L193.37330357142858,161.57280013458586L193.57102678571428,161.5949402183095L193.9664732142857,161.6376540857434L194.16419642857142,161.61027904736278L194.36191964285715,161.588842751904L194.55964285714285,161.5467861427806L194.75736607142858,161.5051813563074L194.95508928571428,161.45303833725245L195.15281249999998,161.44865520144816L195.3505357142857,161.442438646229L195.5482589285714,161.4246573234033L195.74598214285714,161.41374043133447L195.94370535714285,161.39959785644166L196.33915178571428,161.33760226550075L196.53687499999998,161.27288382519706L196.9323214285714,161.24799242776288L197.32776785714285,161.21054987407717L197.52549107142855,161.21007330594654L198.1186607142857,162.56119179355022L198.3163839285714,161.46849465147804L198.71183035714284,161.21576189861386L198.90955357142855,160.95693902889306L199.1072767857143,160.66729662847172L199.305,160.5065827729204L199.50272321428574,160.58289963971967L199.89816964285717,160.77529072148437L200.09589285714287,160.9105422936847L200.4913392857143,160.90164296883168L200.6890625,161.02736068402422L201.08450892857144,161.1225846328419L201.28223214285714,161.25890486944206L201.47995535714287,161.34714389746483L201.67767857142857,161.45181766095814L201.8754017857143,161.4759122785512L202.073125,161.46855265239378L202.27084821428573,161.50954307520092L202.46857142857144,161.53253072144807L202.66629464285714,161.51871830011737L203.06174107142857,161.5577924596389L203.2594642857143,161.61789729279997L203.4571875,161.67441650678347L203.65491071428573,161.70223729878444L203.85263392857144,161.6911154810773L204.05035714285714,161.70995088959853L204.24808035714287,161.72859175530147L204.44580357142857,161.7427434893076L204.6435267857143,161.72698645422602L204.84125,161.73442547696678L205.23669642857143,161.72369194732815L205.63214285714287,161.6821325344247L205.82986607142857,161.67255485787408L206.0275892857143,161.68137314757357L206.2253125,161.6962240388432L206.4230357142857,161.68731817307705L206.62075892857143,161.67459464491984L206.81848214285714,161.65523276580322L207.01620535714287,161.65016742857068L207.21392857142857,161.63864095396858L207.4116517857143,161.61347541443743L207.609375,161.59778705377718L207.8070982142857,161.5917115637025L208.20254464285713,160.9099740760541L208.59799107142857,160.50509890180922L208.7957142857143,160.44324102557957L208.9934375,160.38806232546125L209.1911607142857,160.35416622599575L209.58660714285713,160.40964176440605L209.78433035714286,160.52354017606L209.98205357142857,160.59081339663638L210.17977678571427,160.50266079799158L210.3775,160.33435995993509L210.5752232142857,160.23544921647007L210.77294642857143,160.23267392021714L211.16839285714286,160.2776716929811L211.36611607142856,160.2872887839161L211.9592857142857,160.32419407303826L212.15700892857143,160.35705583057222L212.75017857142856,160.3674002215947L212.94790178571427,160.37922499928982L213.145625,160.42506360026664L213.3433482142857,160.45018019087593L213.54107142857143,160.46516884450602L213.73879464285713,160.4842155282765L213.93651785714286,160.4996954622906L214.13424107142856,160.522315694275L214.33196428571426,160.56249940000922L214.92513392857143,160.59904496433109L215.12285714285713,160.6265699896918L215.32058035714283,160.66979098520912L215.51830357142856,160.70902962805172L215.71602678571426,160.72891323161926L216.1114732142857,160.78755145307065L216.30919642857145,160.82588203570654L216.50691964285716,160.83033385170347L216.70464285714283,160.8270647424033L216.9023660714286,160.8428399501783L217.29781250000002,160.83799457183733L217.49553571428572,160.85060424584898L217.69325892857145,160.81551286565514L217.89098214285715,160.7873670398429L218.08870535714286,161.33973785276623L218.2864285714286,160.41611249467974L218.4841517857143,160.0995127154663L218.68187500000002,160.0854603644177L218.87959821428572,160.17704564308912L219.07732142857145,160.43313010916586L219.47276785714286,160.77130828133505L219.8682142857143,160.9959219564872L220.26366071428572,160.97121221243603L220.46138392857142,160.87254275333441L220.65910714285715,160.8617931690905L220.85683035714285,160.82928994221052L221.05455357142858,160.81247984720804L221.64772321428572,160.7697093209835L222.04316964285715,160.7121640039213L222.24089285714285,160.62486948923632L222.63633928571429,160.61959842655875L222.83406250000002,160.5839107740749L223.03178571428572,160.60526341848546L223.22950892857142,160.61102701814755L223.42723214285715,160.56865778918137L223.82267857142858,160.570310970277L224.61357142857142,160.6098074317756L224.81129464285715,160.63514181380168L225.00901785714285,160.64634139779028L225.20674107142858,160.63193659450303L225.40446428571428,160.62991473952349L226.19535714285715,160.6666612021888L226.39308035714285,160.68630939678937L226.59080357142858,160.71380823824757L226.78852678571428,160.72511111482353L227.18397321428571,160.72219077816231L227.38169642857142,160.72519178432597L227.57941964285715,160.7476627066277L227.97486607142858,159.8255699655141L228.17258928571428,159.90878893022094L228.37031249999998,159.4867364948055L228.76575892857142,159.67767507940897L229.16120535714285,159.5242411083601L229.35892857142858,159.58653777758013L229.55665178571428,159.83358880233604L229.9520982142857,160.02289045066738L230.1498214285714,160.12486012107792L230.34754464285714,160.26042213038602L230.54526785714285,160.30943940875528L230.74299107142855,160.27552909134386L230.94071428571428,160.28653246449565L231.13843749999998,160.3011412995287L231.3361607142857,160.27385103566814L231.5338839285714,160.24170191206557L231.73160714285714,160.1922923512341L231.92933035714285,160.18209637326487L232.12705357142855,160.1843469925075L232.32477678571428,160.19000105782445L232.7202232142857,160.27877080872116L232.9179464285714,160.3691792275575L233.11566964285717,160.4012218347828L233.51111607142855,160.45770464132073L233.7088392857143,160.48574119681027L233.9065625,160.52646292372884L234.10428571428574,160.54572733118738L234.49973214285717,160.53406176492336L234.69745535714287,160.53187385514238L234.89517857142857,160.5252314526728L235.0929017857143,160.5487985681827L235.68607142857144,160.57158189245075L235.88379464285714,160.58166049258713L236.08151785714287,160.57774805031303L236.27924107142857,160.58194293381027L237.07013392857144,160.62372234941273L237.46558035714287,160.69259850669354L237.66330357142857,160.71995253854067L237.8610267857143,160.94399025138063L238.05875,160.99002324399856L238.25647321428573,160.97780672822896L238.45419642857144,160.8861810691029L238.65191964285714,160.70946542780817L238.84964285714287,160.508552315004L239.04736607142857,160.46597552428682L239.2450892857143,160.47626156884454L239.4428125,160.53404447602048L239.64053571428573,160.51261671284922L239.83825892857143,160.55340647637897L240.03598214285714,160.59915385210547L240.23370535714287,160.50149827935712L240.6291517857143,160.52670763575088L240.826875,160.5953128733817L241.0245982142857,160.66942694178718L241.22232142857143,160.62656475538907L241.42004464285714,160.6391343202287L241.61776785714287,160.6379359678086L241.81549107142857,160.642810971478L242.4086607142857,160.63299431260788L242.60638392857143,160.63989685688236L243.00183035714286,160.63869718738684L243.19955357142857,160.60166847722704L243.3972767857143,160.63907458792315L243.595,160.66540600305905L243.7927232142857,160.69935537246533L243.99044642857143,160.7254485658864L244.18816964285713,160.75220439267514L244.38589285714286,160.80351723094202L244.58361607142857,160.83232958829055L244.78133928571427,160.86116118261606L245.1767857142857,160.8761768998467L245.37450892857143,160.893514148102L245.76995535714286,160.90133165818798L245.96767857142856,160.90848216713874L246.363125,160.93128019154912L246.5608482142857,160.93953965652491L246.75857142857143,160.94456562130756L246.95629464285713,160.9626407189912L247.15401785714286,160.99534623406805L247.35174107142856,161.0198234592824L247.54946428571427,161.02491683214598L247.7471875,159.82702566653307L247.9449107142857,160.50176878851542L248.34035714285713,161.00201766539746L248.53808035714286,161.20216341524798L248.73580357142856,161.11449968641685L249.13125,161.23008382216506L249.3289732142857,161.274777101847L249.52669642857143,161.09340181790142L249.72441964285713,161.02237991596667L249.92214285714283,160.96473190847283L250.11986607142856,160.98347533740548L250.31758928571426,160.95668314098089L250.5153125,160.96668595194083L250.7130357142857,160.98970886539973L250.91075892857145,160.97845680994723L251.7016517857143,160.9616767375644L251.89937500000002,160.9495273953066L252.09709821428572,160.97415803226147L252.49254464285715,160.99879688234518L252.69026785714286,161.03150149709813L252.8879910714286,161.02513530568382L253.0857142857143,161.0360095186001L253.28343750000002,161.04354060190713L253.48116071428572,161.05508783160326L253.67888392857145,161.05189711271927L254.07433035714286,161.02515815746312L254.2720535714286,161.01282944113925L254.4697767857143,161.00947784084627L254.86522321428572,161.03391112505523L255.06294642857142,161.0426555491634L255.26066964285715,161.04781408412146L255.45839285714285,161.06824881614975L255.8538392857143,161.0813300060137L256.0515625,161.08008457701825L256.2492857142857,161.08726178098573L256.4470089285714,161.08000346713575L256.64473214285715,161.0675829213459L256.84245535714285,161.06706580886834L257.435625,161.05629397254938L257.6333482142857,158.08953733934018L258.2265178571428,159.11686384494934L258.4242410714286,159.99496209511656L258.6219642857143,160.70693862372337L259.0174107142857,160.99065549334108L259.2151339285714,161.24864005541932L259.41285714285715,161.37751683888513L259.8083035714286,161.27710324107215L260.0060267857143,161.22146771895055L260.20375,161.256339159889L260.5991964285714,161.22568169074236L260.7969196428572,161.15646271012415L260.9946428571429,161.0751406437289L261.1923660714286,161.07265840090105L261.3900892857143,161.1123712189006L261.5878125,161.09955220979495L261.78553571428574,161.09692872501637L262.18098214285715,161.063911705835L262.7741517857143,161.06814920283756L262.971875,161.00155250655055L263.5650446428572,160.95892362848784L263.7627678571429,160.95345853004375L263.9604910714286,160.91075962921093L264.1582142857143,160.92537313783237L264.3559375,160.9402571563963L264.75138392857144,161.00085654527211L264.94910714285714,161.0425767819301L265.14683035714285,160.99762315274572L265.34455357142855,160.98635670376595L265.5422767857143,160.9716534902619L265.74,160.96292335331242L265.9377232142857,160.9629215630281L266.1354464285714,160.94768105938363L266.3331696428572,160.93776728507476L266.5308928571429,160.93530026553034L266.7286160714286,160.93881716417047L266.9263392857143,160.96909145168527L267.1240625,160.9705946186308L267.32178571428574,160.98010547990344" style="fill: none;" fill="none"></path></g></g></g></g><g opacity="0.2"><g><g><g><path stroke="rgb(255, 112, 67)" stroke-width="2px" d="M19.970044642857143,17.276700019836426L20.36549107142857,73.32239532470703L20.563214285714288,77.21212673187256L20.7609375,81.22684097290039L21.354107142857142,92.34308528900146L21.74955357142857,95.1347165107727L21.947276785714283,95.90248918533325L22.145,97.08368396759033L22.738169642857144,100.05743932723999L22.935892857142857,100.04973411560059L23.133616071428573,100.55858755111694L23.331339285714286,100.85706090927124L23.529062500000002,101.29926347732544L23.726785714285715,102.02206897735596L23.924508928571427,102.53405380249023L24.319955357142856,103.24527263641357L24.51767857142857,103.67436218261719L24.913125,104.83807468414307L25.110848214285717,105.63841485977173L25.30857142857143,105.94435739517212L25.506294642857142,106.48886251449585L25.70401785714286,106.99516677856445L25.90174107142857,107.50588750839233L26.099464285714287,107.91269540786743L26.2971875,108.10419273376465L26.494910714285712,108.40028476715088L26.69263392857143,108.75743627548218L27.088080357142854,109.57867336273193L27.285803571428573,109.65950202941895L27.483526785714286,109.82935237884521L27.681250000000002,110.31977415084839L27.878973214285715,110.53983163833618L28.274419642857143,110.78674983978271L28.472142857142856,111.06637191772461L29.065312499999997,111.87428092956543L29.263035714285717,112.0272889137268L29.46075892857143,112.21125936508179L29.658482142857142,112.58343839645386L29.85620535714286,118.00738286972046L30.05392857142857,122.54536962509155L30.251651785714287,126.47907161712646L30.449375,125.67011880874634L30.647098214285712,126.02411794662476L30.84482142857143,125.80653095245361L31.240267857142854,125.62627935409546L31.437991071428574,126.14044618606567L31.833437500000002,125.78987216949463L32.03116071428571,125.44357299804688L32.22888392857143,125.35754632949829L32.426607142857144,125.8719072341919L32.822053571428576,126.53141355514526L33.019776785714285,126.15930795669556L33.2175,126.48408079147339L33.41522321428572,126.37137699127197L33.81066964285714,126.76587963104248L34.00839285714286,126.67924451828003L34.20611607142857,126.5166482925415L34.403839285714284,126.75309705734253L34.799285714285716,126.4674744606018L35.19473214285714,126.55232095718384L35.39245535714286,126.73764991760254L35.59017857142857,126.6947021484375L35.78790178571428,126.87443971633911L35.985625,127.0828423500061L36.183348214285715,127.1870174407959L36.381071428571424,127.3576807975769L36.57879464285714,127.26609945297241L36.77651785714286,126.89909219741821L36.97424107142857,126.96437931060791L37.17196428571429,126.90024614334106L37.369687500000005,126.9981164932251L37.567410714285714,127.06925201416016L37.76513392857143,127.09110879898071L38.160580357142855,127.24157285690308L38.55602678571429,127.35930681228638L38.753750000000004,127.38771486282349L38.95147321428571,127.37892389297485L39.544642857142854,127.52672863006592L39.74236607142857,129.2658143043518L39.940089285714286,132.62841796875L40.33553571428571,130.76042079925537L40.53325892857143,130.3227972984314L40.92870535714285,131.4783639907837L41.126428571428576,132.32448959350586L41.32415178571429,133.05293107032776L41.521875,132.9794430732727L41.71959821428572,133.1130542755127L41.917321428571434,133.04451251029968L42.11504464285714,132.38367915153503L42.510491071428575,132.8607518672943L42.708214285714284,132.70494294166565L42.9059375,133.06088280677795L43.103660714285716,133.3021125793457L43.301383928571425,133.33238530158997L43.49910714285714,133.14554047584534L43.69683035714286,133.16396951675415L43.89455357142857,132.9938201904297L44.09227678571428,133.12883973121643L44.29,133.23300433158875L44.685446428571424,132.75247764587402L44.88316964285714,133.02834939956665L45.08089285714286,132.99087762832642L45.278616071428566,133.01183485984802L45.47633928571429,133.1158263683319L45.674062500000005,132.83531785011292L45.871785714285714,132.88341641426086L46.06950892857143,132.94691228866577L46.464955357142856,133.0595452785492L46.86040178571429,133.11626172065735L47.058125000000004,133.07578706741333L47.25584821428571,133.19229102134705L47.45357142857143,133.17223858833313L47.651294642857145,133.14356303215027L47.849017857142854,133.14898657798767L48.24446428571429,133.23444414138794L48.442187499999996,133.16632199287415L48.63991071428571,133.13545656204224L48.83763392857143,133.18393802642822L49.03535714285714,133.16633772850037L49.23308035714285,133.13021659851074L49.62852678571429,133.9370083808899L50.02397321428572,132.16504836082458L50.221696428571434,135.27226543426514L50.41941964285714,136.23738384246826L50.814866071428575,137.27929210662842L51.012589285714284,136.73808360099792L51.2103125,136.42339205741882L51.40803571428572,136.16637682914734L51.605758928571426,136.13411617279053L51.80348214285714,136.13305926322937L52.00120535714286,135.97814989089966L52.198928571428574,136.20374369621277L52.39665178571428,135.95429730415344L52.594375,135.9146068096161L52.792098214285716,136.15902829170227L53.18754464285714,136.46296191215515L53.38526785714286,136.62353348731995L53.582991071428566,137.03161334991455L53.78071428571428,136.82469248771667L53.9784375,136.78102087974548L54.37388392857143,136.70776891708374L54.57160714285715,136.8730926513672L54.76933035714286,136.77723383903503L54.96705357142857,136.79777669906616L55.16477678571429,136.8278684616089L55.56022321428571,136.83571791648865L55.75794642857143,136.9730269908905L55.955669642857146,137.05251812934875L56.153392857142855,137.03892517089844L56.35111607142857,136.79390048980713L56.54883928571429,136.7709264755249L56.746562499999996,136.82260489463806L57.339732142857144,136.72889924049377L57.53745535714285,136.51550841331482L57.73517857142857,136.207181930542L57.932901785714286,136.1892511844635L58.130624999999995,136.28153276443481L58.526071428571434,136.16446232795715L58.92151785714286,136.320166349411L59.119241071428576,136.3337881565094L59.316964285714285,136.40190768241882L59.5146875,147.79234528541565L59.91013392857143,140.81200051307678L60.10785714285714,141.2710244655609L60.30558035714286,142.43574404716492L60.503303571428575,141.50442576408386L60.701026785714284,141.85295152664185L60.89875,141.46410846710205L61.096473214285716,141.13252210617065L61.294196428571425,141.366379737854L61.49191964285714,141.4014492034912L61.68964285714286,141.6572711467743L62.08508928571428,141.2467758655548L62.2828125,141.10621738433838L62.48053571428571,141.22773838043213L62.678258928571424,141.01827359199524L63.07370535714286,140.5842089653015L63.27142857142857,140.82238602638245L63.46915178571429,140.74147868156433L63.666875000000005,140.7680902481079L63.864598214285714,140.83342456817627L64.06232142857142,140.9193148612976L64.26004464285714,140.86606550216675L64.45776785714285,140.87664771080017L64.65549107142857,140.54975056648254L65.24866071428572,140.621746301651L65.44638392857144,140.55302619934082L65.64410714285715,140.5092260837555L65.84183035714285,140.51153922080994L66.03955357142857,140.61342215538025L66.23727678571429,140.63241505622864L66.435,140.85081505775452L66.63272321428572,140.79513716697693L66.83044642857143,140.54374742507935L67.02816964285714,140.46190905570984L67.22589285714285,140.60965085029602L67.62133928571428,140.4130630493164L67.8190625,140.40149474143982L68.21450892857143,140.52170705795288L68.41223214285714,140.49816131591797L68.60995535714285,140.55033802986145L68.80767857142857,140.52403593063354L69.00540178571428,140.42367672920227L69.203125,140.24558353424072L69.79629464285715,144.60006403923035L69.99401785714285,143.63283967971802L70.19174107142857,142.9982795715332L70.38946428571428,143.4553680419922L70.78491071428572,143.71190333366394L70.98263392857143,144.02507376670837L71.18035714285713,143.05091524124146L71.37808035714285,143.02595329284668L71.77352678571428,143.51032209396362L71.97125,143.11647248268127L72.36669642857143,142.78862071037292L72.76214285714285,142.79614233970642L72.95986607142856,142.74718356132507L73.3553125,142.85202741622925L73.55303571428573,142.586163520813L73.94848214285715,142.7618019580841L74.14620535714286,142.69511699676514L74.34392857142858,142.71371388435364L74.5416517857143,142.70158171653748L74.93709821428573,142.38294053077698L75.13482142857143,142.41925835609436L75.33254464285714,142.3857021331787L75.53026785714286,142.3346085548401L75.72799107142858,142.45746445655823L75.92571428571429,142.69098377227783L76.12343750000001,142.66837692260742L76.32116071428571,142.7479703426361L76.51888392857143,142.67455053329468L76.71660714285714,142.8156807422638L76.91433035714286,142.89001321792603L77.11205357142858,142.7230293750763L77.30977678571429,142.693039894104L77.50750000000001,142.71621584892273L78.29839285714286,142.70582509040833L78.49611607142857,142.73970127105713L78.69383928571429,142.57850289344788L78.89156249999999,142.556955575943L79.08928571428571,142.5284321308136L79.28700892857142,139.40824365615845L79.48473214285714,143.17880654335022L79.88017857142857,144.2101719379425L80.07790178571429,144.67193388938904L80.27562499999999,144.39827036857605L80.4733482142857,144.62675428390503L80.67107142857142,144.1685826778412L80.86879464285714,144.95221948623657L81.06651785714286,145.30974078178406L81.46196428571427,145.6381721496582L81.65968749999999,145.5942120552063L81.8574107142857,145.21099710464478L82.05513392857142,145.51435375213623L82.25285714285715,145.45553135871887L82.45058035714287,145.45315790176392L82.84602678571429,145.81727504730225L83.04375,146.01424837112427L83.24147321428572,145.866215467453L83.43919642857144,145.87411999702454L83.63691964285715,146.18624663352966L84.03236607142857,145.97752928733826L84.23008928571429,145.90549159049988L84.62553571428572,146.07914471626282L85.02098214285715,146.18550968170166L85.21870535714287,146.14211344718933L85.41642857142857,146.06051898002625L85.61415178571428,145.96009945869446L85.811875,146.01779413223267L86.00959821428572,146.0808756351471L86.40504464285715,145.97315740585327L86.60276785714285,145.7687542438507L86.80049107142857,145.95016765594482L87.1959375,145.768657207489L87.39366071428572,145.71380805969238L87.59138392857143,145.65770530700684L87.78910714285713,145.67317605018616L87.98683035714285,145.65924215316772L88.18455357142857,145.66484141349792L88.38227678571428,145.62857866287231L88.58,145.66640710830688L88.77772321428571,145.61249947547913L88.97544642857143,145.48139548301697L89.17316964285713,146.94675469398499L89.56861607142856,146.98903632164001L89.76633928571428,147.64708971977234L89.9640625,148.15276980400085L90.16178571428571,148.0472047328949L90.55723214285713,148.3044638633728L90.75495535714285,147.99332857131958L91.1504017857143,147.55094504356384L91.34812500000001,147.51126503944397L91.54584821428573,147.66320037841797L91.74357142857143,147.1538643836975L91.94129464285714,147.16657614707947L92.13901785714286,147.44665718078613L92.33674107142858,147.4925606250763L92.5344642857143,147.61056470870972L92.73218750000001,147.600745677948L92.92991071428571,147.5417501926422L93.72080357142858,147.3374047279358L93.91852678571429,147.3194818496704L94.11625000000001,147.21247172355652L94.51169642857143,147.08451747894287L94.70941964285714,146.98062825202942L95.30258928571429,146.9042763710022L95.50031249999999,146.95078301429749L95.89575892857142,146.83474588394165L96.09348214285714,146.80478525161743L96.29120535714286,146.7824432849884L96.88437499999999,146.7994167804718L97.08209821428571,146.84397220611572L97.27982142857142,146.8732430934906L97.47754464285714,146.84008288383484L97.67526785714286,146.91795587539673L97.87299107142857,146.95905995368958L98.07071428571427,146.97527027130127L98.26843749999999,147.00318002700806L98.4661607142857,147.0787923336029L98.66388392857142,147.0280134677887L98.86160714285714,147.01416087150574L99.05933035714285,151.93889260292053L99.25705357142859,152.83306694030762L99.45477678571427,151.71725630760193L99.6525,151.24930238723755L99.85022321428572,151.12868094444275L100.04794642857144,150.98401284217834L100.24566964285715,151.36527395248413L100.44339285714287,151.39252281188965L100.64111607142857,151.82720112800598L100.83883928571429,151.42101740837097L101.0365625,151.19060063362122L101.43200892857143,151.27993965148926L101.62973214285715,151.07293224334717L101.82745535714287,150.93914794921875L102.02517857142857,150.66549229621887L102.61834821428572,150.12954211235046L102.81607142857143,150.24360966682434L103.01379464285715,150.06375408172607L103.21151785714285,150.12330293655396L103.40924107142857,150.10893368721008L103.60696428571428,150.13413953781128L103.8046875,150.0469353199005L104.00241071428572,150.0295054912567L104.20013392857143,149.89865064620972L104.39785714285715,149.95311951637268L104.79330357142857,149.9154510498047L104.99102678571428,149.7794086933136L105.18875,149.72015619277954L105.78191964285713,149.89446759223938L105.97964285714285,149.79219913482666L106.17736607142857,149.77765417099L106.37508928571428,149.69511556625366L106.5728125,149.71899700164795L106.77053571428571,149.7352204322815L106.96825892857143,149.73437595367432L107.16598214285713,149.7963035106659L107.56142857142856,149.81800818443298L107.75915178571428,149.82377529144287L107.956875,149.61814999580383L108.15459821428573,149.3527319431305L108.94549107142858,160.47311079502106L109.1432142857143,154.35587298870087L109.34093750000001,153.23744106292725L109.53866071428573,152.76351809501648L109.73638392857143,153.1255738735199L109.93410714285714,152.4750473499298L110.13183035714286,152.62616968154907L110.52727678571429,152.71763825416565L110.92272321428571,153.0345458984375L111.12044642857143,153.0523717403412L111.31816964285714,152.9998173713684L111.51589285714286,152.69454622268677L111.71361607142858,152.5356216430664L111.91133928571429,152.4999122619629L112.10906250000001,152.48496341705322L112.50450892857143,152.09978938102722L112.70223214285714,152.12484574317932L112.89995535714286,152.14820528030396L113.09767857142857,152.0851604938507L113.49312499999999,152.18042659759521L113.69084821428571,152.2344365119934L113.88857142857142,152.12736082077026L114.48174107142857,152.02155447006226L114.67946428571429,151.7980351448059L114.87718749999999,151.61725902557373L115.0749107142857,151.68569326400757L115.27263392857142,151.57384967803955L115.47035714285714,151.55992889404297L115.66808035714286,151.51252269744873L116.06352678571427,151.6077389717102L116.26124999999999,151.55030918121338L116.4589732142857,151.43108296394348L116.65669642857142,151.47508239746094L116.85441964285715,151.40785717964172L117.05214285714287,151.42946219444275L117.6453125,151.34221076965332L117.84303571428572,151.3538157939911L118.23848214285715,151.33670592308044L118.43620535714287,151.20453190803528L118.63392857142857,151.22166538238525L119.029375,154.12878954410553L119.22709821428572,154.98652279376984L119.42482142857143,155.2286468744278L120.01799107142857,156.6413061618805L120.21571428571428,156.24206447601318L120.4134375,156.1904935836792L120.61116071428572,156.29857110977173L120.80888392857143,156.05165028572083L121.00660714285715,156.092515707016L121.20433035714285,156.0790355205536L121.40205357142857,156.25056171417236L121.59977678571428,156.29543447494507L121.99522321428572,156.3482393026352L122.19294642857143,156.43653321266174L122.39066964285713,156.46471965312958L122.58839285714285,156.5563691854477L122.78611607142857,156.72575795650482L122.98383928571428,156.81061494350433L123.37928571428571,156.69063866138458L123.97245535714285,156.58954119682312L124.17017857142856,156.54886853694916L124.76334821428571,156.75487411022186L124.96107142857142,156.71793866157532L125.15879464285713,156.76041567325592L125.35651785714285,156.83626794815063L125.55424107142858,156.80359423160553L125.7519642857143,156.75286781787872L125.94968750000001,156.7821216583252L126.14741071428573,156.81564903259277L126.34513392857143,156.7993495464325L126.54285714285714,156.78615522384644L126.74058035714286,156.79820609092712L126.93830357142858,156.81188428401947L127.1360267857143,156.76443350315094L127.33375000000001,156.79054808616638L127.53147321428571,156.79506027698517L127.92691964285714,156.80018615722656L128.12464285714285,156.81447410583496L128.32236607142858,156.8950641155243L128.7178125,156.99884974956512L129.1132589285714,158.73353469371796L129.31098214285714,157.4393436908722L129.50870535714284,157.3821394443512L129.70642857142857,156.87588894367218L129.9041517857143,157.00711750984192L130.2995982142857,156.48632860183716L130.49732142857144,156.86022543907166L130.69504464285714,156.9540923833847L130.89276785714287,157.05493676662445L131.09049107142857,157.31248438358307L131.2882142857143,157.49174857139587L131.4859375,157.39575600624084L131.88138392857144,157.53081095218658L132.07910714285714,157.35659790039062L132.27683035714287,157.6959524154663L132.47455357142857,157.8887413740158L132.67227678571427,157.87485599517822L132.87,157.83837163448334L133.0677232142857,157.97229886054993L133.26544642857144,157.89500677585602L133.66089285714287,157.9557410478592L133.85861607142857,158.07162606716156L134.05633928571427,158.02806198596954L134.64950892857144,157.88019168376923L135.44040178571427,157.935431599617L135.638125,157.99794006347656L135.8358482142857,158.0511749982834L136.23129464285714,157.9673788547516L136.42901785714287,158.05688047409058L136.62674107142857,158.00707459449768L136.82446428571427,158.06254267692566L137.0221875,158.12852215766907L137.2199107142857,158.13977706432343L137.41763392857143,158.12632834911346L137.61535714285714,158.16382765769958L137.81308035714284,158.21392464637756L138.01080357142857,158.2109991312027L138.20852678571427,158.28317058086395L138.40625,158.29341971874237L138.80169642857143,154.70249998569489L138.99941964285713,158.64724576473236L139.19714285714286,159.35014045238495L139.39486607142857,159.52024388313293L139.5925892857143,158.99154388904572L139.7903125,159.1071561574936L139.9880357142857,158.92753267288208L140.18575892857143,159.26488482952118L140.38348214285713,159.04741191864014L140.58120535714286,159.11523115634918L140.97665178571427,159.40835964679718L141.174375,159.12673783302307L141.3720982142857,159.25145053863525L141.56982142857143,159.34713888168335L141.76754464285713,159.10718369483948L141.96526785714286,159.1401629447937L142.16299107142856,159.3257384300232L142.36071428571427,159.40420150756836L142.5584375,159.31286013126373L142.7561607142857,159.30130755901337L142.95388392857143,159.20325756072998L143.15160714285713,159.014022231102L143.54705357142856,158.91404855251312L143.74477678571427,158.83517503738403L143.9425,158.99507522583008L144.1402232142857,159.02767550945282L144.33794642857143,158.95544111728668L144.93111607142856,158.97128295898438L145.12883928571426,158.97178781032562L145.3265625,158.91760218143463L145.5242857142857,158.93293261528015L145.72200892857143,158.9292412996292L145.91973214285713,158.98985886573792L146.31517857142856,159.02999782562256L146.51290178571426,159.0751131772995L146.710625,159.07907855510712L146.9083482142857,159.08941161632538L147.10607142857145,158.9573529958725L147.30379464285716,158.9298392534256L147.50151785714283,158.96220219135284L148.09468750000002,158.96258902549744L148.29241071428572,159.0302391052246L148.68785714285715,159.06681394577026L148.88558035714286,159.79084289073944L149.0833035714286,159.9457929134369L149.2810267857143,159.45054161548615L149.47875000000002,159.33749294281006L150.07191964285715,159.6060004234314L150.26964285714286,159.77499186992645L150.4673660714286,159.92596340179443L150.6650892857143,159.98986840248108L151.06053571428572,160.3204883337021L151.45598214285715,159.971111536026L151.85142857142858,159.90956819057465L152.24687500000002,159.94214749336243L152.44459821428572,159.7655085325241L152.64232142857142,159.72396516799927L152.84004464285715,159.82752788066864L153.03776785714285,159.88199150562286L153.43321428571429,159.9171986579895L153.63093750000002,159.94445538520813L153.82866071428572,159.95188915729523L154.02638392857142,159.9455109834671L154.22410714285715,159.8177009820938L154.42183035714285,159.78492498397827L154.81727678571428,159.74975454807281L155.01500000000001,159.8079698085785L155.21272321428572,159.8130078315735L155.41044642857142,159.80611562728882L155.80589285714285,159.7320362329483L156.00361607142858,159.71485948562622L156.20133928571428,159.6587816476822L156.39906249999999,159.66616821289062L156.79450892857142,159.64053881168365L156.99223214285715,159.70610654354095L157.18995535714285,159.67716085910797L157.38767857142858,159.72187626361847L157.58540178571428,159.69049155712128L157.78312499999998,159.76483714580536L157.98084821428571,159.7746797800064L158.17857142857142,159.76879334449768L158.37629464285715,159.70640420913696L158.77174107142858,160.52799665927887L158.96946428571428,160.13715779781342L159.3649107142857,161.19009280204773L159.56263392857142,161.16296982765198L159.76035714285715,161.55677354335785L159.95808035714285,161.46799314022064L160.15580357142858,161.26455509662628L160.35352678571428,161.44471096992493L160.55124999999998,161.0645238161087L160.7489732142857,160.81203651428223L160.9466964285714,160.84893655776978L161.34214285714285,160.71468806266785L161.53986607142855,160.7531774044037L161.73758928571428,160.56137716770172L161.93531249999998,160.55050647258759L162.1330357142857,160.47191488742828L162.3307589285714,160.5621154308319L162.52848214285714,160.4142870903015L162.72620535714285,160.4456993341446L162.92392857142855,160.4019844532013L163.12165178571428,160.33390164375305L163.31937499999998,160.35846757888794L163.5170982142857,160.3665111064911L163.7148214285714,160.28715896606445L163.91254464285717,160.38664877414703L164.11026785714284,160.39076101779938L164.30799107142855,160.32582795619965L164.5057142857143,160.3034073114395L164.7034375,160.27850437164307L164.90116071428574,160.30682063102722L165.09888392857144,160.25243043899536L165.29660714285717,160.23551201820374L165.49433035714287,160.25463211536407L165.8897767857143,160.230206489563L166.0875,160.22409582138062L166.28522321428574,160.2368128299713L166.68066964285714,160.2134506702423L166.87839285714287,160.20311105251312L167.07611607142857,160.1077584028244L167.2738392857143,160.11892938613892L167.4715625,160.162083029747L168.46017857142857,159.66023194789886L168.6579017857143,159.06309902668L168.855625,160.64795064926147L169.25107142857144,159.97930192947388L169.44879464285714,159.69475853443146L169.64651785714287,160.2010864019394L169.84424107142857,159.95049786567688L170.0419642857143,160.37512111663818L170.43741071428573,160.84860742092133L170.63513392857143,160.9556988477707L170.83285714285714,160.86838579177856L171.03058035714287,160.7589602470398L171.22830357142857,160.68787586688995L171.4260267857143,160.75953590869904L171.62375,160.9082887172699L171.8214732142857,160.83606219291687L172.01919642857143,160.93152368068695L172.21691964285714,160.72594821453094L172.41464285714287,160.79313147068024L172.61236607142857,160.80095601081848L172.8100892857143,160.8026305437088L173.2055357142857,160.7678928375244L173.40325892857143,160.75581049919128L173.60098214285713,160.78574228286743L173.79870535714286,160.77318000793457L173.99642857142857,160.72815251350403L174.1941517857143,160.6814911365509L174.391875,160.7608550786972L174.5895982142857,160.6987452507019L174.78732142857143,160.6336076259613L175.38049107142857,160.66739463806152L175.57821428571427,160.686274766922L175.7759375,160.70423567295074L175.9736607142857,160.61611223220825L176.17138392857143,160.61934459209442L176.36910714285713,160.5647577047348L176.76455357142856,160.52244067192078L176.96227678571427,160.47199749946594L177.16,160.46548557281494L177.3577232142857,160.51219022274017L177.55544642857143,160.50511574745178L177.75316964285713,160.4789788722992L177.95089285714286,160.46074521541595L178.14861607142856,160.45374810695648L178.5440625,160.71847772598267L178.7417857142857,161.56756556034088L178.93950892857143,159.53176498413086L179.13723214285713,159.2744324207306L179.33495535714286,159.71783483028412L179.53267857142856,159.5410726070404L179.73040178571426,160.19563269615173L179.928125,160.0408400297165L180.1258482142857,160.1729130744934L180.32357142857143,160.277526140213L180.71901785714283,160.31011199951172L180.91674107142856,160.31619906425476L181.11446428571426,160.3346700668335L181.5099107142857,160.53279995918274L181.70763392857145,160.73089182376862L181.90535714285716,160.7003161907196L182.10308035714283,160.7178601026535L182.3008035714286,160.76875567436218L182.4985267857143,160.90424990653992L182.69625000000002,160.89454627037048L182.89397321428572,160.897922873497L183.09169642857145,160.78109896183014L183.28941964285715,160.7209508419037L183.48714285714286,160.77568066120148L183.6848660714286,160.83500266075134L183.8825892857143,160.75585639476776L184.08031250000002,160.78155529499054L184.47575892857145,160.71620655059814L184.67348214285715,160.72259783744812L184.87120535714286,160.79168117046356L185.0689285714286,160.73568725585938L185.2666517857143,160.72416615486145L185.46437500000002,160.7407672405243L185.85982142857142,160.79929459095L186.05754464285715,160.86619985103607L186.45299107142858,160.96901905536652L186.6507142857143,161.00999855995178L187.04616071428572,160.99488973617554L187.44160714285715,160.97679245471954L188.03477678571429,160.92586278915405L188.23250000000002,152.35361552238464L188.82566964285715,161.38124001026154L189.02339285714285,161.34873807430267L189.22111607142858,161.26053202152252L189.41883928571428,161.42848753929138L189.61656250000001,161.59291303157806L190.01200892857142,161.3299641609192L190.20973214285715,161.49488139152527L190.40745535714285,161.68720746040344L191.00062499999999,161.83306097984314L191.19834821428572,161.69095516204834L191.59379464285715,161.68882036209106L191.79151785714285,161.71993625164032L191.98924107142858,161.7398693561554L192.18696428571428,161.67277002334595L192.38468749999998,161.7006129026413L192.58241071428571,161.78234899044037L192.78013392857142,161.59487211704254L193.17558035714285,161.48469257354736L193.37330357142858,161.5323793888092L193.57102678571428,161.62815034389496L193.9664732142857,161.70172488689423L194.16419642857142,161.56921648979187L194.36191964285715,161.55668830871582L194.55964285714285,161.48370122909546L194.75736607142858,161.4427741765976L194.95508928571428,161.37482380867004L195.15281249999998,161.4420804977417L195.3505357142857,161.43311381340027L195.5482589285714,161.39798533916473L195.74598214285714,161.3973650932312L195.94370535714285,161.37838399410248L196.33915178571428,161.24460887908936L196.53687499999998,161.17580616474152L196.9323214285714,161.21065533161163L197.32776785714285,161.15438604354858L197.52549107142855,161.2093584537506L198.1186607142857,164.58786952495575L198.3163839285714,159.82944893836975L198.71183035714284,160.83666276931763L198.90955357142855,160.56870472431183L199.1072767857143,160.23283302783966L199.305,160.2655119895935L199.50272321428574,160.69737493991852L199.89816964285717,161.06387734413147L200.09589285714287,161.11341965198517L200.4913392857143,160.88829398155212L200.6890625,161.21593725681305L201.08450892857144,161.26542055606842L201.28223214285714,161.46338522434235L201.47995535714287,161.4795024394989L201.67767857142857,161.60882830619812L201.8754017857143,161.5120542049408L202.073125,161.45751321315765L202.27084821428573,161.57102870941162L202.46857142857144,161.5670121908188L202.66629464285714,161.49799966812134L203.06174107142857,161.6164036989212L203.2594642857143,161.7080545425415L203.4571875,161.7591953277588L203.65491071428573,161.7439684867859L203.85263392857144,161.6744327545166L204.05035714285714,161.73820400238037L204.24808035714287,161.7565530538559L204.44580357142857,161.76397109031677L204.6435267857143,161.7033509016037L204.84125,161.74558401107788L205.23669642857143,161.70759165287018L205.63214285714287,161.61979341506958L205.82986607142857,161.6581883430481L206.0275892857143,161.6946005821228L206.2253125,161.71850037574768L206.4230357142857,161.6739593744278L206.62075892857143,161.65550935268402L206.81848214285714,161.6261899471283L207.01620535714287,161.64256942272186L207.21392857142857,161.62135124206543L207.4116517857143,161.5757271051407L207.609375,161.57425451278687L207.8070982142857,161.5825983285904L208.20254464285713,159.8873678445816L208.59799107142857,159.8977861404419L208.7957142857143,160.35045421123505L208.9934375,160.3052942752838L209.1911607142857,160.30332207679749L209.58660714285713,160.49285507202148L209.78433035714286,160.69438779354095L209.98205357142857,160.69172322750092L210.17977678571427,160.3704319000244L210.3775,160.08190870285034L210.5752232142857,160.08708310127258L210.77294642857143,160.2285109758377L211.16839285714286,160.34516835212708L211.36611607142856,160.3017144203186L211.9592857142857,160.3795520067215L212.15700892857143,160.40634846687317L212.75017857142856,160.38291680812836L212.94790178571427,160.39696216583252L213.145625,160.49382150173187L213.3433482142857,160.48785507678986L213.54107142857143,160.48765182495117L213.73879464285713,160.5127855539322L213.93651785714286,160.52291536331177L214.13424107142856,160.5562460422516L214.33196428571426,160.62277495861053L214.92513392857143,160.6538633108139L215.12285714285713,160.66785752773285L215.32058035714283,160.7346224784851L215.51830357142856,160.76788759231567L215.71602678571426,160.75873863697052L216.1114732142857,160.8755087852478L216.30919642857145,160.88337790966034L216.50691964285716,160.83701157569885L216.70464285714283,160.82216107845306L216.9023660714286,160.86650276184082L217.29781250000002,160.83072650432587L217.49553571428572,160.86951875686646L217.69325892857145,160.76287579536438L217.89098214285715,160.74514830112457L218.08870535714286,162.16829407215118L218.2864285714286,159.03067445755005L218.4841517857143,159.62461304664612L218.68187500000002,160.06438183784485L218.87959821428572,160.3144235610962L219.07732142857145,160.81725680828094L219.47276785714286,161.27857553958893L219.8682142857143,161.3328424692154L220.26366071428572,160.93414759635925L220.46138392857142,160.724538564682L220.65910714285715,160.8456687927246L220.85683035714285,160.78053510189056L221.05455357142858,160.78726470470428L221.64772321428572,160.70555353164673L222.04316964285715,160.62584602832794L222.24089285714285,160.49392771720886L222.63633928571429,160.61169183254242L222.83406250000002,160.53037929534912L223.03178571428572,160.63729238510132L223.22950892857142,160.6196724176407L223.42723214285715,160.50510394573212L223.82267857142858,160.57279074192047L224.61357142857142,160.66905212402344L224.81129464285715,160.67314338684082L225.00901785714285,160.6631407737732L225.20674107142858,160.61032938957214L225.40446428571428,160.62688195705414L226.19535714285715,160.72178089618683L226.39308035714285,160.71578168869019L226.59080357142858,160.75505650043488L226.78852678571428,160.7420654296875L227.18397321428571,160.71781027317047L227.38169642857142,160.72969329357147L227.57941964285715,160.78136909008026L227.97486607142858,158.4424308538437L228.17258928571428,160.0336173772812L228.37031249999998,158.85365784168243L228.76575892857142,159.9640829563141L229.16120535714285,159.2940901517868L229.35892857142858,159.67998278141022L229.55665178571428,160.2041653394699L229.9520982142857,160.30684292316437L230.1498214285714,160.27781462669373L230.34754464285714,160.46376514434814L230.54526785714285,160.3829653263092L230.74299107142855,160.22466361522675L230.94071428571428,160.30303752422333L231.13843749999998,160.32305455207825L231.3361607142857,160.23291563987732L231.5338839285714,160.19347822666168L231.73160714285714,160.11817800998688L231.92933035714285,160.16680240631104L232.12705357142855,160.18772292137146L232.32477678571428,160.19848215579987L232.7202232142857,160.41192543506622L232.9179464285714,160.50479185581207L233.11566964285717,160.44928574562073L233.51111607142855,160.54242885112762L233.7088392857143,160.52779603004456L233.9065625,160.58754551410675L234.10428571428574,160.57462394237518L234.49973214285717,160.51656341552734L234.69745535714287,160.5285919904709L234.89517857142857,160.5152678489685L235.0929017857143,160.58414924144745L235.68607142857144,160.60575687885284L235.88379464285714,160.59677839279175L236.08151785714287,160.57187938690186L236.27924107142857,160.5882352590561L237.07013392857144,160.68639147281647L237.46558035714287,160.79591274261475L237.66330357142857,160.76098358631134L237.8610267857143,161.28004682064056L238.05875,161.05907273292542L238.25647321428573,160.95948195457458L238.45419642857144,160.74874258041382L238.65191964285714,160.4443919658661L238.84964285714287,160.20718264579773L239.04736607142857,160.40211033821106L239.2450892857143,160.49169063568115L239.4428125,160.62071883678436L239.64053571428573,160.48047506809235L239.83825892857143,160.61459112167358L240.03598214285714,160.6677749156952L240.23370535714287,160.35501492023468L240.6291517857143,160.5645216703415L240.826875,160.69822072982788L241.0245982142857,160.78059804439545L241.22232142857143,160.56227147579193L241.42004464285714,160.6579886674881L241.61776785714287,160.63613843917847L241.81549107142857,160.65012347698212L242.4086607142857,160.61826932430267L242.60638392857143,160.65025067329407L243.00183035714286,160.63689768314362L243.19955357142857,160.5461254119873L243.3972767857143,160.69518375396729L243.595,160.70490312576294L243.7927232142857,160.7502794265747L243.99044642857143,160.76458835601807L244.18816964285713,160.79233813285828L244.38589285714286,160.88048648834229L244.58361607142857,160.87554812431335L244.78133928571427,160.9044085741043L245.1767857142857,160.89870047569275L245.37450892857143,160.91952002048492L245.76995535714286,160.91305792331696L245.96767857142856,160.91920793056488L246.363125,160.96547722816467L246.5608482142857,160.95192885398865L246.75857142857143,160.95210456848145L246.95629464285713,160.98975336551666L247.15401785714286,161.04440450668335L247.35174107142856,161.05653929710388L247.54946428571427,161.03255689144135L247.7471875,158.0301889181137L247.9449107142857,161.51388347148895L248.34035714285713,161.75239098072052L248.53808035714286,161.5023820400238L248.73580357142856,160.98300409317017L249.13125,161.40346002578735L249.3289732142857,161.34181702136993L249.52669642857143,160.82133889198303L249.72441964285713,160.91584706306458L249.92214285714283,160.87825989723206L250.11986607142856,161.01159048080444L250.31758928571426,160.916494846344L250.5153125,160.98169016838074L250.7130357142857,161.02424323558807L250.91075892857145,160.9615787267685L251.7016517857143,160.93650662899017L251.89937500000002,160.93130338191986L252.09709821428572,161.0111039876938L252.49254464285715,161.0357551574707L252.69026785714286,161.0805584192276L252.8879910714286,161.01558601856232L253.0857142857143,161.05232083797455L253.28343750000002,161.05483722686768L253.48116071428572,161.07240867614746L253.67888392857145,161.0471110343933L254.07433035714286,160.98504972457886L254.2720535714286,160.99433636665344L254.4697767857143,161.0044504404068L254.86522321428572,161.0705610513687L255.06294642857142,161.05577218532562L255.26066964285715,161.05555188655853L255.45839285714285,161.0989009141922L255.8538392857143,161.10095179080963L256.0515625,161.07821643352509L256.2492857142857,161.09802758693695L256.4470089285714,161.06911599636078L256.64473214285715,161.04895210266113L256.84245535714285,161.06629014015198L257.435625,161.04013621807098L257.6333482142857,153.63940238952637L258.2265178571428,160.65785360336304L258.4242410714286,161.31210947036743L258.6219642857143,161.7749034166336L259.0174107142857,161.41623079776764L259.2151339285714,161.63561689853668L259.41285714285715,161.57083201408386L259.8083035714286,161.12648284435272L260.0060267857143,161.13801443576813L260.20375,161.3086463212967L260.5991964285714,161.1796954870224L260.7969196428572,161.05263423919678L260.9946428571429,160.95315754413605L261.1923660714286,161.06893503665924L261.3900892857143,161.17194044589996L261.5878125,161.08032369613647L261.78553571428574,161.0929934978485L262.18098214285715,161.014386177063L262.7741517857143,161.07450544834137L262.971875,160.90165746212006L263.5650446428572,160.89498031139374L263.7627678571429,160.94526088237762L263.9604910714286,160.84671127796173L264.1582142857143,160.94729340076447L264.3559375,160.96258318424225L264.75138392857144,161.09175562858582L264.94910714285714,161.10515713691711L265.14683035714285,160.93019270896912L265.34455357142855,160.96945703029633L265.5422767857143,160.9495986700058L265.74,160.94982814788818L265.9377232142857,160.96291887760162L266.1354464285714,160.92482030391693L266.3331696428572,160.92289662361145L266.5308928571429,160.93159973621368L266.7286160714286,160.94409251213074L266.9263392857143,161.01450288295746L267.1240625,160.97284936904907L267.32178571428574,160.99437177181244" style="fill: none;" fill="none"></path></g></g></g></g></g></g><g transform="translate(53, 176)" clip-path="url(#clip_1)"><clipPath id="clip_1"><rect width="276" height="24"></rect></clipPath><g><g><line x1="0" y1="0" x2="0" y2="5" style="visibility: inherit;" fill="rgb(0, 0, 0)" stroke="rgb(204, 204, 204)" stroke-width="1px"></line><line x1="19.772321428571427" y1="0" x2="19.772321428571427" y2="5" style="visibility: inherit;" fill="rgb(0, 0, 0)" stroke="rgb(204, 204, 204)" stroke-width="1px"></line><line x1="39.544642857142854" y1="0" x2="39.544642857142854" y2="5" style="visibility: inherit;" fill="rgb(0, 0, 0)" stroke="rgb(204, 204, 204)" stroke-width="1px"></line><line x1="59.316964285714285" y1="0" x2="59.316964285714285" y2="5" style="visibility: inherit;" fill="rgb(0, 0, 0)" stroke="rgb(204, 204, 204)" stroke-width="1px"></line><line x1="79.08928571428571" y1="0" x2="79.08928571428571" y2="5" style="visibility: inherit;" fill="rgb(0, 0, 0)" stroke="rgb(204, 204, 204)" stroke-width="1px"></line><line x1="98.86160714285714" y1="0" x2="98.86160714285714" y2="5" style="visibility: inherit;" fill="rgb(0, 0, 0)" stroke="rgb(204, 204, 204)" stroke-width="1px"></line><line x1="118.63392857142857" y1="0" x2="118.63392857142857" y2="5" style="visibility: inherit;" fill="rgb(0, 0, 0)" stroke="rgb(204, 204, 204)" stroke-width="1px"></line><line x1="138.40625" y1="0" x2="138.40625" y2="5" style="visibility: inherit;" fill="rgb(0, 0, 0)" stroke="rgb(204, 204, 204)" stroke-width="1px"></line><line x1="158.17857142857142" y1="0" x2="158.17857142857142" y2="5" style="visibility: inherit;" fill="rgb(0, 0, 0)" stroke="rgb(204, 204, 204)" stroke-width="1px"></line><line x1="177.95089285714286" y1="0" x2="177.95089285714286" y2="5" style="visibility: inherit;" fill="rgb(0, 0, 0)" stroke="rgb(204, 204, 204)" stroke-width="1px"></line><line x1="197.72321428571428" y1="0" x2="197.72321428571428" y2="5" style="visibility: inherit;" fill="rgb(0, 0, 0)" stroke="rgb(204, 204, 204)" stroke-width="1px"></line><line x1="217.49553571428572" y1="0" x2="217.49553571428572" y2="5" style="visibility: inherit;" fill="rgb(0, 0, 0)" stroke="rgb(204, 204, 204)" stroke-width="1px"></line><line x1="237.26785714285714" y1="0" x2="237.26785714285714" y2="5" style="visibility: inherit;" fill="rgb(0, 0, 0)" stroke="rgb(204, 204, 204)" stroke-width="1px"></line><line x1="257.04017857142856" y1="0" x2="257.04017857142856" y2="5" style="visibility: inherit;" fill="rgb(0, 0, 0)" stroke="rgb(204, 204, 204)" stroke-width="1px"></line><line x1="276.8125" y1="0" x2="276.8125" y2="5" style="visibility: inherit;" fill="rgb(0, 0, 0)" stroke="rgb(204, 204, 204)" stroke-width="1px"></line></g><g transform="translate(0, 8)"><text x="0" y="0" dx="0em" dy="0.95em" style="text-anchor: middle; visibility: hidden; font-family: Roboto, sans-serif; font-size: 12px; font-weight: 200;" fill="rgb(33, 33, 33)" stroke="none" stroke-width="1px">-10k</text><text x="19.772321428571427" y="0" dx="0em" dy="0.95em" style="text-anchor: middle; visibility: inherit; font-family: Roboto, sans-serif; font-size: 12px; font-weight: 200;" fill="rgb(33, 33, 33)" stroke="none" stroke-width="1px">0</text><text x="39.544642857142854" y="0" dx="0em" dy="0.95em" style="text-anchor: middle; visibility: hidden; font-family: Roboto, sans-serif; font-size: 12px; font-weight: 200;" fill="rgb(33, 33, 33)" stroke="none" stroke-width="1px">10k</text><text x="59.316964285714285" y="0" dx="0em" dy="0.95em" style="text-anchor: middle; visibility: inherit; font-family: Roboto, sans-serif; font-size: 12px; font-weight: 200;" fill="rgb(33, 33, 33)" stroke="none" stroke-width="1px">20k</text><text x="79.08928571428571" y="0" dx="0em" dy="0.95em" style="text-anchor: middle; visibility: hidden; font-family: Roboto, sans-serif; font-size: 12px; font-weight: 200;" fill="rgb(33, 33, 33)" stroke="none" stroke-width="1px">30k</text><text x="98.86160714285714" y="0" dx="0em" dy="0.95em" style="text-anchor: middle; visibility: inherit; font-family: Roboto, sans-serif; font-size: 12px; font-weight: 200;" fill="rgb(33, 33, 33)" stroke="none" stroke-width="1px">40k</text><text x="118.63392857142857" y="0" dx="0em" dy="0.95em" style="text-anchor: middle; visibility: hidden; font-family: Roboto, sans-serif; font-size: 12px; font-weight: 200;" fill="rgb(33, 33, 33)" stroke="none" stroke-width="1px">50k</text><text x="138.40625" y="0" dx="0em" dy="0.95em" style="text-anchor: middle; visibility: inherit; font-family: Roboto, sans-serif; font-size: 12px; font-weight: 200;" fill="rgb(33, 33, 33)" stroke="none" stroke-width="1px">60k</text><text x="158.17857142857142" y="0" dx="0em" dy="0.95em" style="text-anchor: middle; visibility: hidden; font-family: Roboto, sans-serif; font-size: 12px; font-weight: 200;" fill="rgb(33, 33, 33)" stroke="none" stroke-width="1px">70k</text><text x="177.95089285714286" y="0" dx="0em" dy="0.95em" style="text-anchor: middle; visibility: inherit; font-family: Roboto, sans-serif; font-size: 12px; font-weight: 200;" fill="rgb(33, 33, 33)" stroke="none" stroke-width="1px">80k</text><text x="197.72321428571428" y="0" dx="0em" dy="0.95em" style="text-anchor: middle; visibility: hidden; font-family: Roboto, sans-serif; font-size: 12px; font-weight: 200;" fill="rgb(33, 33, 33)" stroke="none" stroke-width="1px">90k</text><text x="217.49553571428572" y="0" dx="0em" dy="0.95em" style="text-anchor: middle; visibility: inherit; font-family: Roboto, sans-serif; font-size: 12px; font-weight: 200;" fill="rgb(33, 33, 33)" stroke="none" stroke-width="1px">100k</text><text x="237.26785714285714" y="0" dx="0em" dy="0.95em" style="text-anchor: middle; visibility: hidden; font-family: Roboto, sans-serif; font-size: 12px; font-weight: 200;" fill="rgb(33, 33, 33)" stroke="none" stroke-width="1px">110k</text><text x="257.04017857142856" y="0" dx="0em" dy="0.95em" style="text-anchor: middle; visibility: inherit; font-family: Roboto, sans-serif; font-size: 12px; font-weight: 200;" fill="rgb(33, 33, 33)" stroke="none" stroke-width="1px">120k</text><text x="276.8125" y="0" dx="0em" dy="0.95em" style="text-anchor: middle; visibility: hidden; font-family: Roboto, sans-serif; font-size: 12px; font-weight: 200;" fill="rgb(33, 33, 33)" stroke="none" stroke-width="1px">130k</text></g><line x1="0" y1="0" x2="276.8125" y2="0" fill="rgb(0, 0, 0)" stroke="rgb(204, 204, 204)" stroke-width="1px"></line></g></g></g></g></svg>