<svg viewBox="0 0 1016.3333740234375 400" xmlns="http://www.w3.org/2000/svg"><g><g><g><g><g><line x1="74.78125" y1="377" x2="69.78125" y2="377" style="visibility: inherit;" fill="rgb(0, 0, 0)" stroke="rgb(204, 204, 204)" stroke-width="1px"></line><line x1="74.78125" y1="350.07142857142856" x2="69.78125" y2="350.07142857142856" style="visibility: inherit;" fill="rgb(0, 0, 0)" stroke="rgb(204, 204, 204)" stroke-width="1px"></line><line x1="74.78125" y1="323.1428571428571" x2="69.78125" y2="323.1428571428571" style="visibility: inherit;" fill="rgb(0, 0, 0)" stroke="rgb(204, 204, 204)" stroke-width="1px"></line><line x1="74.78125" y1="296.2142857142857" x2="69.78125" y2="296.2142857142857" style="visibility: inherit;" fill="rgb(0, 0, 0)" stroke="rgb(204, 204, 204)" stroke-width="1px"></line><line x1="74.78125" y1="269.2857142857143" x2="69.78125" y2="269.2857142857143" style="visibility: inherit;" fill="rgb(0, 0, 0)" stroke="rgb(204, 204, 204)" stroke-width="1px"></line><line x1="74.78125" y1="242.35714285714286" x2="69.78125" y2="242.35714285714286" style="visibility: inherit;" fill="rgb(0, 0, 0)" stroke="rgb(204, 204, 204)" stroke-width="1px"></line><line x1="74.78125" y1="215.42857142857142" x2="69.78125" y2="215.42857142857142" style="visibility: inherit;" fill="rgb(0, 0, 0)" stroke="rgb(204, 204, 204)" stroke-width="1px"></line><line x1="74.78125" y1="188.5" x2="69.78125" y2="188.5" style="visibility: inherit;" fill="rgb(0, 0, 0)" stroke="rgb(204, 204, 204)" stroke-width="1px"></line><line x1="74.78125" y1="161.57142857142858" x2="69.78125" y2="161.57142857142858" style="visibility: inherit;" fill="rgb(0, 0, 0)" stroke="rgb(204, 204, 204)" stroke-width="1px"></line><line x1="74.78125" y1="134.64285714285717" x2="69.78125" y2="134.64285714285717" style="visibility: inherit;" fill="rgb(0, 0, 0)" stroke="rgb(204, 204, 204)" stroke-width="1px"></line><line x1="74.78125" y1="107.71428571428572" x2="69.78125" y2="107.71428571428572" style="visibility: inherit;" fill="rgb(0, 0, 0)" stroke="rgb(204, 204, 204)" stroke-width="1px"></line><line x1="74.78125" y1="80.78571428571428" x2="69.78125" y2="80.78571428571428" style="visibility: inherit;" fill="rgb(0, 0, 0)" stroke="rgb(204, 204, 204)" stroke-width="1px"></line><line x1="74.78125" y1="53.85714285714283" x2="69.78125" y2="53.85714285714283" style="visibility: inherit;" fill="rgb(0, 0, 0)" stroke="rgb(204, 204, 204)" stroke-width="1px"></line><line x1="74.78125" y1="26.928571428571388" x2="69.78125" y2="26.928571428571388" style="visibility: inherit;" fill="rgb(0, 0, 0)" stroke="rgb(204, 204, 204)" stroke-width="1px"></line></g><g transform="translate(64.78125, 0)"><text x="0" y="377" dx="0em" dy="0.3em" style="text-anchor: end; visibility: hidden; font-family: &quot;Helvetica Neue&quot;, sans-serif; font-size: 12px; font-weight: 200;" fill="rgb(50, 49, 63)" stroke="none" stroke-width="1px">-1e-4</text><text x="0" y="350.07142857142856" dx="0em" dy="0.3em" style="text-anchor: end; visibility: inherit; font-family: &quot;Helvetica Neue&quot;, sans-serif; font-size: 12px; font-weight: 200;" fill="rgb(50, 49, 63)" stroke="none" stroke-width="1px">-5e-5</text><text x="0" y="323.1428571428571" dx="0em" dy="0.3em" style="text-anchor: end; visibility: inherit; font-family: &quot;Helvetica Neue&quot;, sans-serif; font-size: 12px; font-weight: 200;" fill="rgb(50, 49, 63)" stroke="none" stroke-width="1px">0</text><text x="0" y="296.2142857142857" dx="0em" dy="0.3em" style="text-anchor: end; visibility: inherit; font-family: &quot;Helvetica Neue&quot;, sans-serif; font-size: 12px; font-weight: 200;" fill="rgb(50, 49, 63)" stroke="none" stroke-width="1px">5e-5</text><text x="0" y="269.2857142857143" dx="0em" dy="0.3em" style="text-anchor: end; visibility: inherit; font-family: &quot;Helvetica Neue&quot;, sans-serif; font-size: 12px; font-weight: 200;" fill="rgb(50, 49, 63)" stroke="none" stroke-width="1px">1e-4</text><text x="0" y="242.35714285714286" dx="0em" dy="0.3em" style="text-anchor: end; visibility: inherit; font-family: &quot;Helvetica Neue&quot;, sans-serif; font-size: 12px; font-weight: 200;" fill="rgb(50, 49, 63)" stroke="none" stroke-width="1px">1.5e-4</text><text x="0" y="215.42857142857142" dx="0em" dy="0.3em" style="text-anchor: end; visibility: inherit; font-family: &quot;Helvetica Neue&quot;, sans-serif; font-size: 12px; font-weight: 200;" fill="rgb(50, 49, 63)" stroke="none" stroke-width="1px">2e-4</text><text x="0" y="188.5" dx="0em" dy="0.3em" style="text-anchor: end; visibility: inherit; font-family: &quot;Helvetica Neue&quot;, sans-serif; font-size: 12px; font-weight: 200;" fill="rgb(50, 49, 63)" stroke="none" stroke-width="1px">2.5e-4</text><text x="0" y="161.57142857142858" dx="0em" dy="0.3em" style="text-anchor: end; visibility: inherit; font-family: &quot;Helvetica Neue&quot;, sans-serif; font-size: 12px; font-weight: 200;" fill="rgb(50, 49, 63)" stroke="none" stroke-width="1px">3e-4</text><text x="0" y="134.64285714285717" dx="0em" dy="0.3em" style="text-anchor: end; visibility: inherit; font-family: &quot;Helvetica Neue&quot;, sans-serif; font-size: 12px; font-weight: 200;" fill="rgb(50, 49, 63)" stroke="none" stroke-width="1px">3.5e-4</text><text x="0" y="107.71428571428572" dx="0em" dy="0.3em" style="text-anchor: end; visibility: inherit; font-family: &quot;Helvetica Neue&quot;, sans-serif; font-size: 12px; font-weight: 200;" fill="rgb(50, 49, 63)" stroke="none" stroke-width="1px">4e-4</text><text x="0" y="80.78571428571428" dx="0em" dy="0.3em" style="text-anchor: end; visibility: inherit; font-family: &quot;Helvetica Neue&quot;, sans-serif; font-size: 12px; font-weight: 200;" fill="rgb(50, 49, 63)" stroke="none" stroke-width="1px">4.5e-4</text><text x="0" y="53.85714285714283" dx="0em" dy="0.3em" style="text-anchor: end; visibility: inherit; font-family: &quot;Helvetica Neue&quot;, sans-serif; font-size: 12px; font-weight: 200;" fill="rgb(50, 49, 63)" stroke="none" stroke-width="1px">5e-4</text><text x="0" y="26.928571428571388" dx="0em" dy="0.3em" style="text-anchor: end; visibility: inherit; font-family: &quot;Helvetica Neue&quot;, sans-serif; font-size: 12px; font-weight: 200;" fill="rgb(50, 49, 63)" stroke="none" stroke-width="1px">5.5e-4</text></g><line x1="74.78125" y1="0" x2="74.78125" y2="377" fill="rgb(0, 0, 0)" stroke="rgb(204, 204, 204)" stroke-width="1px"></line></g></g><g transform="translate(74, 0)" clip-path="url(#clip_0)"><clipPath id="clip_0"><rect width="941" height="377"></rect></clipPath><g><g><g><line x1="0" y1="0" x2="0" y2="377" fill="rgb(0, 0, 0)" stroke="rgb(60, 60, 60)" stroke-width="1px" opacity="0.25"></line><line x1="117.69359375" y1="0" x2="117.69359375" y2="377" fill="rgb(0, 0, 0)" stroke="rgb(60, 60, 60)" stroke-width="1px" opacity="0.25"></line><line x1="235.3871875" y1="0" x2="235.3871875" y2="377" fill="rgb(0, 0, 0)" stroke="rgb(60, 60, 60)" stroke-width="1px" opacity="0.25"></line><line x1="353.08078125000003" y1="0" x2="353.08078125000003" y2="377" fill="rgb(0, 0, 0)" stroke="rgb(60, 60, 60)" stroke-width="1px" opacity="0.25"></line><line x1="470.774375" y1="0" x2="470.774375" y2="377" fill="rgb(0, 0, 0)" stroke="rgb(60, 60, 60)" stroke-width="1px" opacity="0.25"></line><line x1="588.4679687500001" y1="0" x2="588.4679687500001" y2="377" fill="rgb(0, 0, 0)" stroke="rgb(60, 60, 60)" stroke-width="1px" opacity="0.25"></line><line x1="706.1615625000001" y1="0" x2="706.1615625000001" y2="377" fill="rgb(0, 0, 0)" stroke="rgb(60, 60, 60)" stroke-width="1px" opacity="0.25"></line><line x1="823.85515625" y1="0" x2="823.85515625" y2="377" fill="rgb(0, 0, 0)" stroke="rgb(60, 60, 60)" stroke-width="1px" opacity="0.25"></line><line x1="941.54875" y1="0" x2="941.54875" y2="377" fill="rgb(0, 0, 0)" stroke="rgb(60, 60, 60)" stroke-width="1px" opacity="0.25"></line></g><g><line x1="0" y1="377" x2="941.54875" y2="377" fill="rgb(0, 0, 0)" stroke="rgb(60, 60, 60)" stroke-width="1px" opacity="0.25"></line><line x1="0" y1="350.07142857142856" x2="941.54875" y2="350.07142857142856" fill="rgb(0, 0, 0)" stroke="rgb(60, 60, 60)" stroke-width="1px" opacity="0.25"></line><line x1="0" y1="323.1428571428571" x2="941.54875" y2="323.1428571428571" fill="rgb(0, 0, 0)" stroke="rgb(60, 60, 60)" stroke-width="1px" opacity="0.25"></line><line x1="0" y1="296.2142857142857" x2="941.54875" y2="296.2142857142857" fill="rgb(0, 0, 0)" stroke="rgb(60, 60, 60)" stroke-width="1px" opacity="0.25"></line><line x1="0" y1="269.2857142857143" x2="941.54875" y2="269.2857142857143" fill="rgb(0, 0, 0)" stroke="rgb(60, 60, 60)" stroke-width="1px" opacity="0.25"></line><line x1="0" y1="242.35714285714286" x2="941.54875" y2="242.35714285714286" fill="rgb(0, 0, 0)" stroke="rgb(60, 60, 60)" stroke-width="1px" opacity="0.25"></line><line x1="0" y1="215.42857142857142" x2="941.54875" y2="215.42857142857142" fill="rgb(0, 0, 0)" stroke="rgb(60, 60, 60)" stroke-width="1px" opacity="0.25"></line><line x1="0" y1="188.5" x2="941.54875" y2="188.5" fill="rgb(0, 0, 0)" stroke="rgb(60, 60, 60)" stroke-width="1px" opacity="0.25"></line><line x1="0" y1="161.57142857142858" x2="941.54875" y2="161.57142857142858" fill="rgb(0, 0, 0)" stroke="rgb(60, 60, 60)" stroke-width="1px" opacity="0.25"></line><line x1="0" y1="134.64285714285717" x2="941.54875" y2="134.64285714285717" fill="rgb(0, 0, 0)" stroke="rgb(60, 60, 60)" stroke-width="1px" opacity="0.25"></line><line x1="0" y1="107.71428571428572" x2="941.54875" y2="107.71428571428572" fill="rgb(0, 0, 0)" stroke="rgb(60, 60, 60)" stroke-width="1px" opacity="0.25"></line><line x1="0" y1="80.78571428571428" x2="941.54875" y2="80.78571428571428" fill="rgb(0, 0, 0)" stroke="rgb(60, 60, 60)" stroke-width="1px" opacity="0.25"></line><line x1="0" y1="53.85714285714283" x2="941.54875" y2="53.85714285714283" fill="rgb(0, 0, 0)" stroke="rgb(60, 60, 60)" stroke-width="1px" opacity="0.25"></line><line x1="0" y1="26.928571428571388" x2="941.54875" y2="26.928571428571388" fill="rgb(0, 0, 0)" stroke="rgb(60, 60, 60)" stroke-width="1px" opacity="0.25"></line></g></g></g><g><g><line x1="0" y1="323.1428571428571" x2="941.54875" y2="323.1428571428571" fill="rgb(0, 0, 0)" stroke="rgb(153, 153, 153)" stroke-width="1.5px"></line></g></g><g><g><line x1="117.69359375" y1="0" x2="117.69359375" y2="377" fill="rgb(0, 0, 0)" stroke="rgb(153, 153, 153)" stroke-width="1.5px"></line></g></g><g><g><g><g><g><path stroke="rgb(255, 112, 67)" stroke-width="2px" d="M118.81168289062501,53.85713006675775L120.22400601562501,53.85713006675775L120.40054640625,53.85713006675775L121.047861171875,53.85713006675775L121.930563125,53.85713006675775L122.10710351562501,53.85713006675775L123.28403945312502,53.85713006675775L126.87369406250001,53.85713006675775L127.050234453125,53.85713006675775L127.57985562500001,53.85713006675775L131.22835703125,53.85713006675775L131.522591015625,53.85713006675775L132.75837375,53.85713006675775L133.05260773437502,53.85713006675775L133.4645353125,53.85713006675775L133.81761609375002,53.85713006675775L135.87725398437502,53.85713006675775L135.994947578125,53.85713006675775L136.465721953125,53.85713006675775L138.1722790625,53.85713006675775L139.349215,53.85713006675775L142.52694203125,53.85713006675775L142.585788828125,53.85713006675775L143.76272476562502,53.85713006675775L143.93926515625003,53.85713006675775L144.821967109375,53.85713006675775L144.99850750000002,53.85713006675775L145.057354296875,53.85713006675775L145.64582226562501,53.85713006675775L149.294323671875,53.85713006675775L150.8831871875,53.85713006675775L151.8247359375,53.85713006675775L152.23666351562503,53.85713006675775L152.2955103125,53.85713006675775L154.237454609375,53.85713006675775L155.061309765625,53.85713006675775L155.532084140625,53.85713006675775L155.64977773437502,53.85713006675775L155.82631812500003,53.85713006675775L155.94401171875,53.85713006675775L156.65017328125,53.85713006675775L157.23864125000003,53.85713006675775L159.769053515625,53.85713006675775L160.239827890625,53.85713006675775L160.710602265625,53.85713006675775L162.00523179687502,53.85713006675775L162.240618984375,53.85713006675775L162.77024015625,53.85713006675775L163.00562734375,53.85713006675775L163.12332093749998,53.85713006675775L163.94717609375002,53.85713006675775L164.0648696875,53.85713006675775L164.359103671875,53.85713006675775L164.476797265625,53.85713006675775L164.947571640625,53.85713006675775L165.30065242187501,53.85713006675775L165.35949921875002,53.85713006675775L166.94836273437502,53.85713006675775L171.1264853125,53.85713006675775L171.24417890625003,53.85713006675775L173.18612320312502,53.85713006675775L173.36266359375003,53.85713006675775L174.363059140625,53.85713006675775L174.8926803125,53.85713006675775L174.951527109375,53.85713006675775L175.30460789062502,53.85713006675775L175.3634546875,53.85713006675775L175.657688671875,53.85713006675775L176.71693101562502,53.85713006675775L176.89347140625,53.85713006675775L177.42309257812502,53.85713006675775L180.30658562500003,53.85713006675775L180.483126015625,53.85713006675775L180.83620679687502,53.85713006675775L181.18928757812503,53.85713006675775L181.48352156250002,53.85713006675775L182.07198953125,53.85713006675775L182.42507031250003,53.85713006675775L182.719304296875,53.85713006675775L185.77933773437502,53.85713006675775L186.07357171875,53.85713006675775L186.132418515625,53.85713006675775L187.19166085937502,53.85713006675775L187.95666921875,53.85713006675775L188.721677578125,53.85713006675775L190.957855859375,53.85713006675775L191.95825140625,53.85713006675775L193.13518734375,53.85713006675775L193.488268125,53.85713006675775L193.900195703125,53.85713006675775L195.19482523437503,53.85713006675775L195.371365625,53.85713006675775L196.018680390625,53.85713006675775L196.19522078125001,53.85713006675775L196.37176117187502,53.85713006675775L196.43060796875002,53.85713006675775L199.25525421875003,53.85713006675775L199.608335,53.85713006675775L199.66718179687498,53.85713006675775L200.961811328125,53.85713006675775L201.667972890625,53.85713006675775L202.256440859375,53.85713006675775L204.02184476562502,53.85713006675775L204.66915953125002,53.85713006675775L205.13993390625,53.85713006675775L205.49301468750002,53.85713006675775L207.3761121875,53.85713006675775L207.61149937500002,53.85713006675775L209.082669296875,53.85713006675775L210.024218046875,53.85713006675775L210.08306484375,53.85713006675775L210.96576679687502,53.85713006675775L211.201153984375,53.85713006675775L212.20154953125,53.85713006675775L214.261187421875,53.85713006675775L214.731961796875,53.85713006675775L215.90889773437502,53.85713006675775L216.732752890625,53.85713006675775L217.26237406250002,53.85713006675775L217.61545484375,53.85713006675775L217.7331484375,53.85713006675775L217.909688828125,53.85713006675775L218.32161640625,53.85713006675775L218.851237578125,53.85713006675775L219.67509273437503,53.85713006675775L219.792786328125,53.85713006675775L219.96932671875,53.85713006675775L220.44010109375,53.85713006675775L220.498947890625,53.85713006675775L222.205505,107.71429115646913L222.55858578125,107.71429115646913L223.97090890625,107.71429115646913L225.206691640625,107.71429115646913L226.265933984375,107.71429115646913L226.79555515625,107.71429115646913L227.560563515625,107.71429115646913L227.73710390625,107.71429115646913L228.20787828125,107.71429115646913L230.56175015625,107.71429115646913L231.56214570312503,107.71429115646913L232.150613671875,107.71429115646913L232.3271540625,107.71429115646913L233.50409000000002,107.71429115646913L234.44563875,107.71429115646913L235.50488109375,107.71429115646913L235.74026828125002,107.71429115646913L236.21104265625002,107.71429115646913L237.211438203125,107.71429115646913L237.564518984375,107.71429115646913L238.976842109375,107.71429115646913L239.74185046875,107.71429115646913L239.918390859375,107.71429115646913L239.97723765625003,107.71429115646913L240.44801203125002,107.71429115646913L240.68339921875,107.71429115646913L241.09532679687504,107.71429115646913L241.97802875000002,107.71429115646913L243.97881984375002,107.71429115646913L244.21420703125003,107.71429115646913L244.62613460937501,107.71429115646913L245.15575578125004,107.71429115646913L246.4503853125,107.71429115646913L246.6857725,107.71429115646913L247.15654687500003,107.71429115646913L247.62732125000002,107.71429115646913L247.8627084375,107.71429115646913L249.03964437500002,107.71429115646913L249.333878359375,107.71429115646913L249.39272515625004,107.71429115646913L249.51041875,107.71429115646913L249.68695914062502,107.71429115646913L250.393120703125,107.71429115646913L250.56966109375,107.71429115646913L250.863895078125,107.71429115646913L251.98198421875,107.71429115646913L252.92353296875,107.71429115646913L253.5120009375,107.71429115646913L254.21816250000003,107.71429115646913L255.74817921875,107.71429115646913L256.27780039062503,107.71429115646913L258.33743828125,107.71429115646913L258.396285078125,107.71429115646913L258.513978671875,107.71429115646913L261.103237734375,107.71429115646913L261.574012109375,107.71429115646913L262.10363328125,107.71429115646913L262.22132687500005,107.71429115646913L262.51556085937506,107.71429115646913L263.98673078125,107.71429115646913L264.045577578125,107.71429115646913L264.63404554687503,107.71429115646913L264.751739140625,107.71429115646913L265.045973125,107.71429115646913L265.86982828125,107.71429115646913L266.22290906250004,107.71429115646913L266.75253023437506,107.71429115646913L267.63523218750004,107.71429115646913L267.870619375,107.71429115646913L267.98831296875005,107.71429115646913L269.459482890625,107.71429115646913L270.754112421875,107.71429115646913L271.107193203125,107.71429115646913L272.10758875,107.71429115646913L272.46066953125,107.71429115646913L273.99068625,107.71429115646913L275.344162578125,107.71429115646913L275.75609015625,107.71429115646913L276.050324140625,107.71429115646913L276.8153325,107.71429115646913L277.227260078125,107.71429115646913L278.10996203125,107.71429115646913L278.992663984375,107.71429115646913L279.816519140625,107.71429115646913L281.87615703125,107.71429115646913L281.93500382812505,107.71429115646913L281.993850625,107.71429115646913L286.760441171875,107.71429115646913L287.29006234375,107.71429115646913L287.819683515625,107.71429115646913L288.172764296875,107.71429115646913L289.585087421875,107.71429115646913L292.350886875,107.71429115646913L292.82166125000003,107.71429115646913L294.9401459375,107.71429115646913L295.8816946875,107.71429115646913L296.058235078125,107.71429115646913L296.529009453125,107.71429115646913L296.70554984375,107.71429115646913L298.11787296875,107.71429115646913L298.35326015625003,107.71429115646913L300.1186640625,150.80000435374677L301.47214039062504,150.80000435374677L302.35484234375,150.80000435374677L303.4140846875,150.80000435374677L303.76716546875,150.80000435374677L304.70871421875,150.80000435374677L305.7679565625,150.80000435374677L305.826803359375,150.80000435374677L307.827594453125,150.80000435374677L308.416062421875,150.80000435374677L308.5926028125,150.80000435374677L308.651449609375,150.80000435374677L308.769143203125,150.80000435374677L308.82799,150.80000435374677L310.299159921875,150.80000435374677L312.24110421875,150.80000435374677L313.594580546875,150.80000435374677L314.59497609375,150.80000435374677L316.419226796875,150.80000435374677L318.00809031250003,150.80000435374677L318.302324296875,150.80000435374677L319.59695382812504,150.80000435374677L320.71504296875,150.80000435374677L320.83273656250003,150.80000435374677L321.597744921875,150.80000435374677L322.539293671875,150.80000435374677L324.24585078125,150.80000435374677L324.422391171875,150.80000435374677L325.89356109375,150.80000435374677L327.4235778125,150.80000435374677L328.42397335937505,150.80000435374677L329.600909296875,150.80000435374677L330.660151640625,150.80000435374677L330.77784523437504,150.80000435374677L330.89553882812504,150.80000435374677L331.248619609375,150.80000435374677L332.896329921875,150.80000435374677L333.72018507812504,150.80000435374677L337.01560570312506,150.80000435374677L337.250992890625,150.80000435374677L337.72176726562503,150.80000435374677L337.89830765625004,150.80000435374677L339.722558359375,150.80000435374677L340.193332734375,150.80000435374677L340.95834109375,150.80000435374677L341.25257507812506,150.80000435374677L342.19412382812504,150.80000435374677L342.48835781250006,150.80000435374677L342.60605140625,150.80000435374677L343.194519375,150.80000435374677L343.42990656250004,150.80000435374677L345.13646367187505,150.80000435374677L345.842625234375,150.80000435374677L348.90265867187503,150.80000435374677L349.31458625,150.80000435374677L349.54997343750006,150.80000435374677L350.19728820312497,150.80000435374677L350.550368984375,150.80000435374677L350.903449765625,150.80000435374677L352.19807929687505,150.80000435374677L353.66924921875,150.80000435374677L353.728096015625,150.80000435374677L354.43425757812497,150.80000435374677L355.08157234375,150.80000435374677L355.258112734375,150.80000435374677L358.61238015625,150.80000435374677L358.90661414062504,150.80000435374677L358.9654609375,150.80000435374677L359.55392890625,150.80000435374677L363.849745078125,150.80000435374677L364.49705984375004,150.80000435374677L364.55590664062504,150.80000435374677L364.67360023437504,150.80000435374677L364.96783421875,150.80000435374677L365.02668101562506,150.80000435374677L366.4978509375,150.80000435374677L366.792084921875,150.80000435374677L366.9686253125,150.80000435374677L367.4393996875,150.80000435374677L368.61633562500003,150.80000435374677L368.79287601562504,150.80000435374677L368.8517228125,150.80000435374677L369.734424765625,150.80000435374677L370.67597351562506,150.80000435374677L371.029054296875,150.80000435374677L371.79406265625,150.80000435374677L371.91175625000005,150.80000435374677L372.676764609375,150.80000435374677L373.32407937500005,150.80000435374677L374.85409609375,150.80000435374677L375.38371726562497,150.80000435374677L376.26641921875,185.26857177667054L376.678346796875,185.26857177667054L377.03142757812503,185.26857177667054L377.266814765625,185.26857177667054L378.44375070312503,185.26857177667054L378.62029109375004,185.26857177667054L381.0918565625,185.26857177667054L382.092252109375,185.26857177667054L383.09264765625,185.26857177667054L383.151494453125,185.26857177667054L384.328430390625,185.26857177667054L384.50497078125,185.26857177667054L385.034591953125,185.26857177667054L387.153076640625,185.26857177667054L387.32961703125,185.26857177667054L388.15347218750003,185.26857177667054L388.27116578125003,185.26857177667054L388.388859375,185.26857177667054L390.095416484375,185.26857177667054L391.743126796875,185.26857177667054L392.213901171875,185.26857177667054L392.449288359375,185.26857177667054L392.920062734375,185.26857177667054L393.5673775,185.26857177667054L395.09739421875,185.26857177667054L395.39162820312504,185.26857177667054L396.333176953125,185.26857177667054L397.27472570312506,185.26857177667054L397.745500078125,185.26857177667054L398.27512125,185.26857177667054L398.804742421875,185.26857177667054L399.45205718750003,185.26857177667054L399.510903984375,185.26857177667054L399.863984765625,185.26857177667054L400.217065546875,185.26857177667054L400.334759140625,185.26857177667054L400.51129953125,185.26857177667054L402.57093742187504,185.26857177667054L403.277098984375,185.26857177667054L404.395188125,185.26857177667054L405.748664453125,185.26857177667054L406.925600390625,185.26857177667054L408.337923515625,185.26857177667054L409.27947226562503,185.26857177667054L409.75024664062505,185.26857177667054L410.2798678125,185.26857177667054L410.456408203125,185.26857177667054L410.574101796875,185.26857177667054L413.5752884375,185.26857177667054L413.751828828125,185.26857177667054L414.92876476562503,185.26857177667054L415.04645835937504,185.26857177667054L415.10530515625004,185.26857177667054L415.517232734375,185.26857177667054L416.576475078125,185.26857177667054L418.22418539062505,185.26857177667054L419.401121328125,185.26857177667054L419.518814921875,185.26857177667054L419.871895703125,185.26857177667054L421.401912421875,185.26857177667054L421.69614640625,185.26857177667054L422.696541953125,185.26857177667054L423.755784296875,185.26857177667054L424.226558671875,185.26857177667054L426.05080937500003,185.26857177667054L427.63967289062504,185.26857177667054L428.99314921875003,185.26857177667054L430.699706328125,185.26857177667054L431.34702109375,185.26857177667054L432.28856984375,185.26857177667054L433.11242500000003,185.26857177667054L434.348207734375,185.26857177667054L436.70207960937506,185.26857177667054L437.996709140625,185.26857177667054L438.29094312500007,185.26857177667054L440.46827460937504,185.26857177667054L441.11558937500007,185.26857177667054L441.46867015625,185.26857177667054L442.2925253125,185.26857177667054L442.41021890625,185.26857177667054L444.29331640625,185.26857177667054L445.70563953125003,185.26857177667054L446.41180109375006,185.26857177667054L446.5294946875,185.26857177667054L446.88257546875,185.26857177667054L447.58873703125,185.26857177667054L449.05990695312505,185.26857177667054L450.707617265625,185.26857177667054L450.825310859375,185.26857177667054L451.060698046875,185.26857177667054L451.9434,185.26857177667054L454.35611867187504,212.84342728245872L454.53265906250004,212.84342728245872L455.59190140625003,212.84342728245872L456.65114375,212.84342728245872L457.651539296875,212.84342728245872L457.8280796875,212.84342728245872L458.41654765625003,212.84342728245872L459.47579,212.84342728245872L459.534636796875,212.84342728245872L460.53503234375,212.84342728245872L460.711572734375,212.84342728245872L462.71236382812504,212.84342728245872L462.83005742187504,212.84342728245872L463.241985,212.84342728245872L464.830848515625,212.84342728245872L465.36046968750003,212.84342728245872L466.596252421875,212.84342728245872L468.008575546875,212.84342728245872L468.30280953125003,212.84342728245872L468.65589031250005,212.84342728245872L470.244753828125,212.84342728245872L471.421689765625,212.84342728245872L471.71592375,212.84342728245872L472.59862570312504,212.84342728245872L472.8928596875,212.84342728245872L474.364029609375,212.84342728245872L475.42327195312504,212.84342728245872L475.65865914062505,212.84342728245872L475.95289312499995,212.84342728245872L476.894441875,212.84342728245872L477.01213546875,212.84342728245872L477.95368421875,212.84342728245872L478.07137781250003,212.84342728245872L478.42445859375005,212.84342728245872L478.5421521875,212.84342728245872L479.3660073437501,212.84342728245872L479.60139453125004,212.84342728245872L480.95487085937503,212.84342728245872L481.48449203125006,212.84342728245872L482.60258117187504,212.84342728245872L483.2498959375,212.84342728245872L483.36758953125,212.84342728245872L483.72067031250003,212.84342728245872L484.48567867187506,212.84342728245872L485.544921015625,212.84342728245872L487.83994609375,212.84342728245872L489.1934224218751,212.84342728245872L489.42880960937504,212.84342728245872L489.48765640625,212.84342728245872L489.899583984375,212.84342728245872L490.89997953125004,212.84342728245872L491.547294296875,212.84342728245872L492.1946090625001,212.84342728245872L492.60653664062505,212.84342728245872L492.95961742187507,212.84342728245872L494.371940546875,212.84342728245872L497.60851437499997,212.84342728245872L497.8439015625001,212.84342728245872L498.60890992187507,212.84342728245872L499.96238625000007,212.84342728245872L500.021233046875,212.84342728245872L500.25662023437496,212.84342728245872L501.43355617187507,212.84342728245872L501.49240296875,212.84342728245872L501.551249765625,212.84342728245872L502.02202414062504,212.84342728245872L503.198960078125,212.84342728245872L504.61128320312497,212.84342728245872L505.02321078125004,212.84342728245872L505.19975117187505,212.84342728245872L506.3178403125,212.84342728245872L509.49556734375,212.84342728245872L510.025188515625,212.84342728245872L510.142882109375,212.84342728245872L510.37826929687503,212.84342728245872L510.73135007812505,212.84342728245872L510.90789046875005,212.84342728245872L511.319818046875,212.84342728245872L511.790592421875,212.84342728245872L511.9671328125,212.84342728245872L512.673294375,212.84342728245872L514.2621578906251,212.84342728245872L514.4975450781251,212.84342728245872L515.1448598437499,212.84342728245872L515.792174609375,212.84342728245872L519.7937567968751,212.84342728245872L520.617611953125,212.84342728245872L521.088386328125,212.84342728245872L521.912241484375,212.84342728245872L521.97108828125,212.84342728245872L523.501105,212.84342728245872L524.3249601562501,212.84342728245872L525.7961300781251,212.84342728245872L527.5026871875001,212.84342728245872L527.679227578125,212.84342728245872L529.209244296875,212.84342728245872L530.2684866406249,212.84342728245872L530.503873828125,212.84342728245872L531.9750437499999,234.90331482198755L532.386971328125,234.90331482198755L533.5050604687501,234.90331482198755L535.0350771875001,234.90331482198755L535.9177791406249,234.90331482198755L536.3885535156251,234.90331482198755L536.4474003125,234.90331482198755L537.7420298437501,234.90331482198755L537.97741703125,234.90331482198755L538.8012721875001,234.90331482198755L539.978208125,234.90331482198755L541.1551440625,234.90331482198755L541.684765234375,234.90331482198755L542.21438640625,234.90331482198755L542.33208,234.90331482198755L542.3909267968751,234.90331482198755L543.5090159375001,234.90331482198755L543.685556328125,234.90331482198755L544.2151775,234.90331482198755L546.392508984375,234.90331482198755L547.334057734375,234.90331482198755L547.9813725,234.90331482198755L549.0406148437501,234.90331482198755L549.6290828125,234.90331482198755L549.687929609375,234.90331482198755L550.45293796875,234.90331482198755L550.7471719531251,234.90331482198755L550.80601875,234.90331482198755L552.159495078125,234.90331482198755L552.394882265625,234.90331482198755L553.27758421875,234.90331482198755L555.0429881250001,234.90331482198755L555.572609296875,234.90331482198755L555.7491496875001,234.90331482198755L556.1610772656251,234.90331482198755L556.7495452343751,234.90331482198755L556.926085625,234.90331482198755L557.220319609375,234.90331482198755L557.808787578125,234.90331482198755L559.2211107031251,234.90331482198755L559.750731875,234.90331482198755L560.868821015625,234.90331482198755L561.8692165625,234.90331482198755L564.752709609375,234.90331482198755L565.5177179687499,234.90331482198755L565.694258359375,234.90331482198755L567.5185090625,234.90331482198755L567.577355859375,234.90331482198755L568.5777514062501,234.90331482198755L569.1662193750001,234.90331482198755L569.460453359375,234.90331482198755L570.107768125,234.90331482198755L570.46084890625,234.90331482198755L570.8727764843751,234.90331482198755L571.932018828125,234.90331482198755L572.2262528125001,234.90331482198755L572.5204867968749,234.90331482198755L573.579729140625,234.90331482198755L574.22704390625,234.90331482198755L574.403584296875,234.90331482198755L575.5805202343751,234.90331482198755L576.051294609375,234.90331482198755L576.639762578125,234.90331482198755L577.345924140625,234.90331482198755L578.69940046875,234.90331482198755L578.9936344531251,234.90331482198755L582.5832890625001,234.90331482198755L582.642135859375,234.90331482198755L582.877523046875,234.90331482198755L584.525233359375,234.90331482198755L587.0556456250001,234.90331482198755L587.52642,234.90331482198755L587.997194375,234.90331482198755L588.056041171875,234.90331482198755L590.056832265625,234.90331482198755L590.70414703125,234.90331482198755L591.4103085937501,234.90331482198755L591.586848984375,234.90331482198755L592.4107041406251,234.90331482198755L595.9415119531251,234.90331482198755L597.353835078125,234.90331482198755L599.119238984375,234.90331482198755L599.3546261718751,234.90331482198755L600.178481328125,234.90331482198755L601.178876875,234.90331482198755L601.53195765625,234.90331482198755L604.003523125,234.90331482198755L604.9450718749999,234.90331482198755L605.592386640625,234.90331482198755L606.1220078125001,234.90331482198755L606.5927821875,234.90331482198755L607.7697181249999,234.90331482198755L607.8874117187501,234.90331482198755L608.063952109375,234.90331482198755L608.1816457031251,234.90331482198755L608.534726484375,252.55122485361062L609.240888046875,252.55122485361062L609.7116624218751,252.55122485361062L609.8882028125,252.55122485361062L610.182436796875,252.55122485361062L610.5943643749999,252.55122485361062L610.7120579687501,252.55122485361062L613.713244609375,252.55122485361062L614.360559375,252.55122485361062L614.83133375,252.55122485361062L616.0082696875,252.55122485361062L616.067116484375,252.55122485361062L616.184810078125,252.55122485361062L617.008665234375,252.55122485361062L617.244052421875,252.55122485361062L617.77367359375,252.55122485361062L617.8325203906251,252.55122485361062L618.126754375,252.55122485361062L618.3621415625,252.55122485361062L618.4209883593751,252.55122485361062L619.3036903125,252.55122485361062L621.127941015625,252.55122485361062L621.834102578125,252.55122485361062L622.2460301562501,252.55122485361062L622.540264140625,252.55122485361062L623.3641192968751,252.55122485361062L623.89374046875,252.55122485361062L624.7764424218751,252.55122485361062L625.4237571875001,252.55122485361062L625.835684765625,252.55122485361062L625.8945315625,252.55122485361062L626.424152734375,252.55122485361062L628.660331015625,252.55122485361062L629.1311053906251,252.55122485361062L629.1899521875,252.55122485361062L629.425339375,252.55122485361062L631.308436875,252.55122485361062L634.074236328125,252.55122485361062L634.309623515625,252.55122485361062L635.3688658593751,252.55122485361062L635.66309984375,252.55122485361062L636.7223421875001,252.55122485361062L636.898882578125,252.55122485361062L638.1346653125,252.55122485361062L638.781980078125,252.55122485361062L640.194303203125,252.55122485361062L640.60623078125,252.55122485361062L641.606626328125,252.55122485361062L641.724319921875,252.55122485361062L641.9008603125,252.55122485361062L643.1366430468751,252.55122485361062L643.254336640625,252.55122485361062L643.548570625,252.55122485361062L644.195885390625,252.55122485361062L644.902046953125,252.55122485361062L645.9024425000001,252.55122485361062L646.96168484375,252.55122485361062L647.3147656250001,252.55122485361062L647.608999609375,252.55122485361062L647.90323359375,252.55122485361062L648.9624759375,252.55122485361062L649.0213227343751,252.55122485361062L650.61018625,252.55122485361062L651.080960625,252.55122485361062L651.66942859375,252.55122485361062L652.3167433593751,252.55122485361062L653.55252609375,252.55122485361062L654.6117684375,252.55122485361062L656.4948659375001,252.55122485361062L656.553712734375,252.55122485361062L656.906793515625,252.55122485361062L659.9668269531251,252.55122485361062L660.0845205468751,252.55122485361062L660.6729885156251,252.55122485361062L661.08491609375,252.55122485361062L662.673779609375,252.55122485361062L663.90956234375,252.55122485361062L664.4980303125,252.55122485361062L665.4395790625,252.55122485361062L665.55727265625,252.55122485361062L665.9692002343751,252.55122485361062L667.852297734375,252.55122485361062L668.14653171875,252.55122485361062L668.7938464843751,252.55122485361062L669.08808046875,252.55122485361062L671.6184927343751,252.55122485361062L671.795033125,252.55122485361062L672.9719690625001,252.55122485361062L673.3250498437501,252.55122485361062L673.383896640625,252.55122485361062L674.913913359375,252.55122485361062L675.3258409375001,252.55122485361062L678.9743423437501,252.55122485361062L679.033189140625,252.55122485361062L679.5628103125,252.55122485361062L679.974737890625,252.55122485361062L680.15127828125,252.55122485361062L680.563205859375,252.55122485361062L680.73974625,252.55122485361062L682.03437578125,252.55122485361062L682.6816905468751,252.55122485361062L683.3290053125,252.55122485361062L683.9174732812501,252.55122485361062L684.0351668750001,252.55122485361062L684.094013671875,252.55122485361062L684.2705540625001,252.55122485361062L685.6828771875,266.6695489602862L686.03595796875,266.6695489602862L686.27134515625,266.6695489602862L687.3894342968749,266.6695489602862L687.9779022656251,266.6695489602862L688.448676640625,266.6695489602862L689.154838203125,266.6695489602862L691.508710078125,266.6695489602862L692.03833125,266.6695489602862L692.097178046875,266.6695489602862L692.567952421875,266.6695489602862L693.0975735937501,266.6695489602862L695.157211484375,266.6695489602862L696.804921796875,266.6695489602862L696.9814621875,266.6695489602862L699.3353340625,266.6695489602862L700.7476571875,266.6695489602862L701.33612515625,266.6695489602862L704.572698984375,266.6695489602862L705.33770734375,266.6695489602862L705.985022109375,266.6695489602862L707.044264453125,266.6695489602862L709.162749140625,266.6695489602862L709.456983125,266.6695489602862L709.515829921875,266.6695489602862L709.633523515625,266.6695489602862L710.4573786718751,266.6695489602862L711.1635402343751,266.6695489602862L711.7520082031251,266.6695489602862L712.5170165625001,266.6695489602862L712.811250546875,266.6695489602862L712.8700973437501,266.6695489602862L713.752799296875,266.6695489602862L714.105880078125,266.6695489602862L714.694348046875,266.6695489602862L716.1066711718751,266.6695489602862L717.10706671875,266.6695489602862L718.40169625,266.6695489602862L720.2259469531251,266.6695489602862L720.6378745312501,266.6695489602862L720.814414921875,266.6695489602862L721.285189296875,266.6695489602862L722.226738046875,266.6695489602862L722.462125234375,266.6695489602862L722.75635921875,266.6695489602862L722.8740528125,266.6695489602862L722.9917464062501,266.6695489602862L723.168286796875,266.6695489602862L725.2279246875,266.6695489602862L725.639852265625,266.6695489602862L726.581401015625,266.6695489602862L727.7583369531251,266.6695489602862L729.406047265625,266.6695489602862L729.523740859375,266.6695489602862L729.58258765625,266.6695489602862L729.7002812500001,266.6695489602862L730.0533620312501,266.6695489602862L730.582983203125,266.6695489602862L730.936063984375,266.6695489602862L731.23029796875,266.6695489602862L732.9368550781251,266.6695489602862L733.760710234375,266.6695489602862L734.4080250000001,266.6695489602862L734.9964929687501,266.6695489602862L735.23188015625,266.6695489602862L735.2907269531249,266.6695489602862L736.938437265625,266.6695489602862L737.4680584375001,266.6695489602862L737.9388328125,266.6695489602862L738.821534765625,266.6695489602862L738.8803815625,266.6695489602862L739.586543125,266.6695489602862L741.4107938281251,266.6695489602862L741.940415,266.6695489602862L742.705423359375,266.6695489602862L742.8819637500001,266.6695489602862L742.940810546875,266.6695489602862L743.2350445312501,266.6695489602862L743.764665703125,266.6695489602862L744.2354400781251,266.6695489602862L744.64736765625,266.6695489602862L744.706214453125,266.6695489602862L745.7066100000001,266.6695489602862L747.47201390625,266.6695489602862L748.060481875,266.6695489602862L750.2378133593751,266.6695489602862L750.7674345312499,266.6695489602862L750.8262813281251,266.6695489602862L751.1793621093751,266.6695489602862L752.120910859375,266.6695489602862L752.5328384375,266.6695489602862L754.1805487500001,266.6695489602862L754.239395546875,266.6695489602862L754.7690167187501,266.6695489602862L755.063250703125,266.6695489602862L755.71056546875,266.6695489602862L756.2401866406251,266.6695489602862L757.064041796875,266.6695489602862L757.7113565625,266.6695489602862L759.3002200781251,266.6695489602862L759.4767604687501,266.6695489602862L760.006381640625,266.6695489602862L761.4775515625,266.6695489602862L761.71293875,266.6695489602862L762.242559921875,266.6695489602862L763.066415078125,266.6695489602862L763.419495859375,277.96421138052494L763.537189453125,277.96421138052494L765.537980546875,277.96421138052494L765.891061328125,277.96421138052494L766.244142109375,277.96421138052494L766.361835703125,277.96421138052494L766.4206825,277.96421138052494L767.00915046875,277.96421138052494L767.303384453125,277.96421138052494L768.1272396093751,277.96421138052494L768.65686078125,277.96421138052494L769.59840953125,277.96421138052494L771.069579453125,277.96421138052494L772.18766859375,277.96421138052494L772.7172897656251,277.96421138052494L773.776532109375,277.96421138052494L774.835774453125,277.96421138052494L775.365395625,277.96421138052494L776.718871953125,277.96421138052494L776.836565546875,277.96421138052494L776.8954123437501,277.96421138052494L779.896598984375,277.96421138052494L780.3673733593749,277.96421138052494L780.54391375,277.96421138052494L781.073534921875,277.96421138052494L782.07393046875,277.96421138052494L783.309713203125,277.96421138052494L784.19241515625,277.96421138052494L785.1339639062501,277.96421138052494L786.31089984375,277.96421138052494L786.722827421875,277.96421138052494L787.134755,277.96421138052494L787.428988984375,277.96421138052494L789.2532396875001,277.96421138052494L789.7240140625,277.96421138052494L789.84170765625,277.96421138052494L791.84249875,277.96421138052494L792.0190391406251,277.96421138052494L792.8428942968751,277.96421138052494L793.0194346875,277.96421138052494L793.666749453125,277.96421138052494L794.019830234375,277.96421138052494L795.6675405468751,277.96421138052494L795.8440809374999,277.96421138052494L795.9029277343751,277.96421138052494L796.256008515625,277.96421138052494L796.373702109375,277.96421138052494L797.3740976562501,277.96421138052494L797.84487203125,277.96421138052494L798.3744932031251,277.96421138052494L799.2571951562501,277.96421138052494L800.1987439062501,277.96421138052494L802.493768984375,277.96421138052494L803.199930546875,277.96421138052494L803.3176241406251,277.96421138052494L803.906092109375,277.96421138052494L804.5534068750001,277.96421138052494L804.965334453125,277.96421138052494L805.37726203125,277.96421138052494L805.4949556250001,277.96421138052494L806.4953511718751,277.96421138052494L807.6134403125001,277.96421138052494L809.731925,277.96421138052494L810.32039296875,277.96421138052494L811.320788515625,277.96421138052494L811.673869296875,277.96421138052494L812.20349046875,277.96421138052494L813.9688943750001,277.96421138052494L815.3223707031251,277.96421138052494L815.3812175,277.96421138052494L816.4404598437501,277.96421138052494L818.08817015625,277.96421138052494L818.382404140625,277.96421138052494L819.1474125000001,277.96421138052494L819.206259296875,277.96421138052494L819.97126765625,277.96421138052494L820.44204203125,277.96421138052494L820.736276015625,277.96421138052494L820.853969609375,277.96421138052494L820.91281640625,277.96421138052494L822.0897523437501,277.96421138052494L822.383986328125,277.96421138052494L823.2078414843751,277.96421138052494L823.7963094531251,277.96421138052494L824.0905434375001,277.96421138052494L824.502471015625,277.96421138052494L825.38517296875,277.96421138052494L825.62056015625,277.96421138052494L826.32672171875,277.96421138052494L828.3863596093751,277.96421138052494L828.91598078125,277.96421138052494L829.210214765625,277.96421138052494L831.74062703125,277.96421138052494L832.034861015625,277.96421138052494L832.9175629687501,277.96421138052494L833.5648777343749,277.96421138052494L833.800264921875,277.96421138052494L834.7418136718751,277.96421138052494L835.5068220312501,277.96421138052494L836.68375796875,277.96421138052494L837.2133791406251,277.96421138052494L837.684153515625,277.96421138052494L838.861089453125,277.96421138052494L839.8026382031251,277.96421138052494L840.979574140625,286.9999405329914L841.1561145312501,286.9999405329914L842.0976632812501,286.9999405329914L842.9215184375,286.9999405329914L843.03921203125,286.9999405329914L843.686526796875,286.9999405329914L847.217334609375,286.9999405329914L847.7469557812501,286.9999405329914L847.805802578125,286.9999405329914L849.571206484375,286.9999405329914L850.689295625,286.9999405329914L850.8658360156251,286.9999405329914L852.160465546875,286.9999405329914L854.7497246093751,286.9999405329914L855.98550734375,286.9999405329914L856.338588125,286.9999405329914L856.45628171875,286.9999405329914L857.692064453125,286.9999405329914L858.986693984375,286.9999405329914L860.69325109375,286.9999405329914L862.57634859375,286.9999405329914L863.4002037500001,286.9999405329914L864.3417525000001,286.9999405329914L865.0479140625,286.9999405329914L868.5198750781251,286.9999405329914L869.461423828125,286.9999405329914L871.28567453125,286.9999405329914L871.7564489062501,286.9999405329914L872.992231640625,286.9999405329914L874.4634015625,286.9999405329914L874.757635546875,286.9999405329914L875.5226439062501,286.9999405329914L876.2876522656251,286.9999405329914L876.6407330468751,286.9999405329914L879.1122985156251,286.9999405329914L879.1711453125,286.9999405329914L879.4653792968751,286.9999405329914L879.75961328125,286.9999405329914L880.3480812500001,286.9999405329914L882.11348515625,286.9999405329914L882.878493515625,286.9999405329914L883.7611954687501,286.9999405329914L884.7615910156251,286.9999405329914L886.35045453125,286.9999405329914L886.409301328125,286.9999405329914L886.880075703125,286.9999405329914L887.5862372656251,286.9999405329914L887.76277765625,286.9999405329914L888.2923988281251,286.9999405329914L889.17510078125,286.9999405329914L889.4104879687501,286.9999405329914L889.5281815625,286.9999405329914L890.4108835156251,286.9999405329914L891.470125859375,286.9999405329914L892.529368203125,286.9999405329914L893.41207015625,286.9999405329914L894.000538125,286.9999405329914L894.1770785156251,286.9999405329914L894.883240078125,286.9999405329914L894.9420868750001,286.9999405329914L895.1774740625,286.9999405329914L896.825184375,286.9999405329914L898.35520109375,286.9999405329914L900.297145390625,286.9999405329914L900.5913793750001,286.9999405329914L901.17984734375,286.9999405329914L903.29833203125,286.9999405329914L903.592566015625,286.9999405329914L906.417212265625,286.9999405329914L906.652599453125,286.9999405329914L907.829535390625,286.9999405329914L910.654181640625,286.9999405329914L910.7130284375,286.9999405329914L912.2430451562501,286.9999405329914L912.419585546875,286.9999405329914L914.891151015625,286.9999405329914L915.8326997656251,286.9999405329914L917.8923376562501,286.9999405329914L917.951184453125,286.9999405329914" style="fill: none;" fill="none"></path></g></g></g></g></g><g><g opacity="0.0942831"><span style="white-space: normal;" fill="rgb(0, 0, 0)" stroke="none" stroke-width="1px">Alt + Scroll to Zoom</span></g></g></g><g transform="translate(74, 377)" clip-path="url(#clip_1)"><clipPath id="clip_1"><rect width="941" height="23"></rect></clipPath><g><g><line x1="0" y1="0" x2="0" y2="5" style="visibility: inherit;" fill="rgb(0, 0, 0)" stroke="rgb(204, 204, 204)" stroke-width="1px"></line><line x1="117.69359375" y1="0" x2="117.69359375" y2="5" style="visibility: inherit;" fill="rgb(0, 0, 0)" stroke="rgb(204, 204, 204)" stroke-width="1px"></line><line x1="235.3871875" y1="0" x2="235.3871875" y2="5" style="visibility: inherit;" fill="rgb(0, 0, 0)" stroke="rgb(204, 204, 204)" stroke-width="1px"></line><line x1="353.08078125000003" y1="0" x2="353.08078125000003" y2="5" style="visibility: inherit;" fill="rgb(0, 0, 0)" stroke="rgb(204, 204, 204)" stroke-width="1px"></line><line x1="470.774375" y1="0" x2="470.774375" y2="5" style="visibility: inherit;" fill="rgb(0, 0, 0)" stroke="rgb(204, 204, 204)" stroke-width="1px"></line><line x1="588.4679687500001" y1="0" x2="588.4679687500001" y2="5" style="visibility: inherit;" fill="rgb(0, 0, 0)" stroke="rgb(204, 204, 204)" stroke-width="1px"></line><line x1="706.1615625000001" y1="0" x2="706.1615625000001" y2="5" style="visibility: inherit;" fill="rgb(0, 0, 0)" stroke="rgb(204, 204, 204)" stroke-width="1px"></line><line x1="823.85515625" y1="0" x2="823.85515625" y2="5" style="visibility: inherit;" fill="rgb(0, 0, 0)" stroke="rgb(204, 204, 204)" stroke-width="1px"></line><line x1="941.54875" y1="0" x2="941.54875" y2="5" style="visibility: inherit;" fill="rgb(0, 0, 0)" stroke="rgb(204, 204, 204)" stroke-width="1px"></line></g><g transform="translate(0, 8)"><text x="0" y="0" dx="0em" dy="0.95em" style="text-anchor: middle; visibility: hidden; font-family: &quot;Helvetica Neue&quot;, sans-serif; font-size: 12px; font-weight: 200;" fill="rgb(50, 49, 63)" stroke="none" stroke-width="1px">-20k</text><text x="117.69359375" y="0" dx="0em" dy="0.95em" style="text-anchor: middle; visibility: inherit; font-family: &quot;Helvetica Neue&quot;, sans-serif; font-size: 12px; font-weight: 200;" fill="rgb(50, 49, 63)" stroke="none" stroke-width="1px">0</text><text x="235.3871875" y="0" dx="0em" dy="0.95em" style="text-anchor: middle; visibility: inherit; font-family: &quot;Helvetica Neue&quot;, sans-serif; font-size: 12px; font-weight: 200;" fill="rgb(50, 49, 63)" stroke="none" stroke-width="1px">20k</text><text x="353.08078125000003" y="0" dx="0em" dy="0.95em" style="text-anchor: middle; visibility: inherit; font-family: &quot;Helvetica Neue&quot;, sans-serif; font-size: 12px; font-weight: 200;" fill="rgb(50, 49, 63)" stroke="none" stroke-width="1px">40k</text><text x="470.774375" y="0" dx="0em" dy="0.95em" style="text-anchor: middle; visibility: inherit; font-family: &quot;Helvetica Neue&quot;, sans-serif; font-size: 12px; font-weight: 200;" fill="rgb(50, 49, 63)" stroke="none" stroke-width="1px">60k</text><text x="588.4679687500001" y="0" dx="0em" dy="0.95em" style="text-anchor: middle; visibility: inherit; font-family: &quot;Helvetica Neue&quot;, sans-serif; font-size: 12px; font-weight: 200;" fill="rgb(50, 49, 63)" stroke="none" stroke-width="1px">80k</text><text x="706.1615625000001" y="0" dx="0em" dy="0.95em" style="text-anchor: middle; visibility: inherit; font-family: &quot;Helvetica Neue&quot;, sans-serif; font-size: 12px; font-weight: 200;" fill="rgb(50, 49, 63)" stroke="none" stroke-width="1px">100k</text><text x="823.85515625" y="0" dx="0em" dy="0.95em" style="text-anchor: middle; visibility: inherit; font-family: &quot;Helvetica Neue&quot;, sans-serif; font-size: 12px; font-weight: 200;" fill="rgb(50, 49, 63)" stroke="none" stroke-width="1px">120k</text><text x="941.54875" y="0" dx="0em" dy="0.95em" style="text-anchor: middle; visibility: hidden; font-family: &quot;Helvetica Neue&quot;, sans-serif; font-size: 12px; font-weight: 200;" fill="rgb(50, 49, 63)" stroke="none" stroke-width="1px">140k</text></g><line x1="0" y1="0" x2="941.54875" y2="0" fill="rgb(0, 0, 0)" stroke="rgb(204, 204, 204)" stroke-width="1px"></line></g></g></g></g></svg>