<svg viewBox="0 0 330 200" xmlns="http://www.w3.org/2000/svg"><g><g><g><g><g><line x1="53.1875" y1="176" x2="48.1875" y2="176" style="visibility: inherit;" fill="rgb(0, 0, 0)" stroke="rgb(204, 204, 204)" stroke-width="1px"></line><line x1="53.1875" y1="164.26666666666668" x2="48.1875" y2="164.26666666666668" style="visibility: inherit;" fill="rgb(0, 0, 0)" stroke="rgb(204, 204, 204)" stroke-width="1px"></line><line x1="53.1875" y1="152.53333333333333" x2="48.1875" y2="152.53333333333333" style="visibility: inherit;" fill="rgb(0, 0, 0)" stroke="rgb(204, 204, 204)" stroke-width="1px"></line><line x1="53.1875" y1="140.8" x2="48.1875" y2="140.8" style="visibility: inherit;" fill="rgb(0, 0, 0)" stroke="rgb(204, 204, 204)" stroke-width="1px"></line><line x1="53.1875" y1="129.06666666666666" x2="48.1875" y2="129.06666666666666" style="visibility: inherit;" fill="rgb(0, 0, 0)" stroke="rgb(204, 204, 204)" stroke-width="1px"></line><line x1="53.1875" y1="117.33333333333334" x2="48.1875" y2="117.33333333333334" style="visibility: inherit;" fill="rgb(0, 0, 0)" stroke="rgb(204, 204, 204)" stroke-width="1px"></line><line x1="53.1875" y1="105.60000000000002" x2="48.1875" y2="105.60000000000002" style="visibility: inherit;" fill="rgb(0, 0, 0)" stroke="rgb(204, 204, 204)" stroke-width="1px"></line><line x1="53.1875" y1="93.86666666666669" x2="48.1875" y2="93.86666666666669" style="visibility: inherit;" fill="rgb(0, 0, 0)" stroke="rgb(204, 204, 204)" stroke-width="1px"></line><line x1="53.1875" y1="82.13333333333335" x2="48.1875" y2="82.13333333333335" style="visibility: inherit;" fill="rgb(0, 0, 0)" stroke="rgb(204, 204, 204)" stroke-width="1px"></line><line x1="53.1875" y1="70.4" x2="48.1875" y2="70.4" style="visibility: inherit;" fill="rgb(0, 0, 0)" stroke="rgb(204, 204, 204)" stroke-width="1px"></line><line x1="53.1875" y1="58.66666666666669" x2="48.1875" y2="58.66666666666669" style="visibility: inherit;" fill="rgb(0, 0, 0)" stroke="rgb(204, 204, 204)" stroke-width="1px"></line><line x1="53.1875" y1="46.933333333333344" x2="48.1875" y2="46.933333333333344" style="visibility: inherit;" fill="rgb(0, 0, 0)" stroke="rgb(204, 204, 204)" stroke-width="1px"></line><line x1="53.1875" y1="35.20000000000001" x2="48.1875" y2="35.20000000000001" style="visibility: inherit;" fill="rgb(0, 0, 0)" stroke="rgb(204, 204, 204)" stroke-width="1px"></line><line x1="53.1875" y1="23.466666666666683" x2="48.1875" y2="23.466666666666683" style="visibility: inherit;" fill="rgb(0, 0, 0)" stroke="rgb(204, 204, 204)" stroke-width="1px"></line><line x1="53.1875" y1="11.73333333333335" x2="48.1875" y2="11.73333333333335" style="visibility: inherit;" fill="rgb(0, 0, 0)" stroke="rgb(204, 204, 204)" stroke-width="1px"></line><line x1="53.1875" y1="0" x2="48.1875" y2="0" style="visibility: inherit;" fill="rgb(0, 0, 0)" stroke="rgb(204, 204, 204)" stroke-width="1px"></line></g><g transform="translate(43.1875, 0)"><text x="0" y="176" dx="0em" dy="0.3em" style="text-anchor: end; visibility: hidden; font-family: Roboto, sans-serif; font-size: 12px; font-weight: 200;" fill="rgb(33, 33, 33)" stroke="none" stroke-width="1px">0.1</text><text x="0" y="164.26666666666668" dx="0em" dy="0.3em" style="text-anchor: end; visibility: inherit; font-family: Roboto, sans-serif; font-size: 12px; font-weight: 200;" fill="rgb(33, 33, 33)" stroke="none" stroke-width="1px">0.12</text><text x="0" y="152.53333333333333" dx="0em" dy="0.3em" style="text-anchor: end; visibility: hidden; font-family: Roboto, sans-serif; font-size: 12px; font-weight: 200;" fill="rgb(33, 33, 33)" stroke="none" stroke-width="1px">0.14</text><text x="0" y="140.8" dx="0em" dy="0.3em" style="text-anchor: end; visibility: inherit; font-family: Roboto, sans-serif; font-size: 12px; font-weight: 200;" fill="rgb(33, 33, 33)" stroke="none" stroke-width="1px">0.16</text><text x="0" y="129.06666666666666" dx="0em" dy="0.3em" style="text-anchor: end; visibility: hidden; font-family: Roboto, sans-serif; font-size: 12px; font-weight: 200;" fill="rgb(33, 33, 33)" stroke="none" stroke-width="1px">0.18</text><text x="0" y="117.33333333333334" dx="0em" dy="0.3em" style="text-anchor: end; visibility: inherit; font-family: Roboto, sans-serif; font-size: 12px; font-weight: 200;" fill="rgb(33, 33, 33)" stroke="none" stroke-width="1px">0.2</text><text x="0" y="105.60000000000002" dx="0em" dy="0.3em" style="text-anchor: end; visibility: hidden; font-family: Roboto, sans-serif; font-size: 12px; font-weight: 200;" fill="rgb(33, 33, 33)" stroke="none" stroke-width="1px">0.22</text><text x="0" y="93.86666666666669" dx="0em" dy="0.3em" style="text-anchor: end; visibility: inherit; font-family: Roboto, sans-serif; font-size: 12px; font-weight: 200;" fill="rgb(33, 33, 33)" stroke="none" stroke-width="1px">0.24</text><text x="0" y="82.13333333333335" dx="0em" dy="0.3em" style="text-anchor: end; visibility: hidden; font-family: Roboto, sans-serif; font-size: 12px; font-weight: 200;" fill="rgb(33, 33, 33)" stroke="none" stroke-width="1px">0.26</text><text x="0" y="70.4" dx="0em" dy="0.3em" style="text-anchor: end; visibility: inherit; font-family: Roboto, sans-serif; font-size: 12px; font-weight: 200;" fill="rgb(33, 33, 33)" stroke="none" stroke-width="1px">0.28</text><text x="0" y="58.66666666666669" dx="0em" dy="0.3em" style="text-anchor: end; visibility: hidden; font-family: Roboto, sans-serif; font-size: 12px; font-weight: 200;" fill="rgb(33, 33, 33)" stroke="none" stroke-width="1px">0.3</text><text x="0" y="46.933333333333344" dx="0em" dy="0.3em" style="text-anchor: end; visibility: inherit; font-family: Roboto, sans-serif; font-size: 12px; font-weight: 200;" fill="rgb(33, 33, 33)" stroke="none" stroke-width="1px">0.32</text><text x="0" y="35.20000000000001" dx="0em" dy="0.3em" style="text-anchor: end; visibility: hidden; font-family: Roboto, sans-serif; font-size: 12px; font-weight: 200;" fill="rgb(33, 33, 33)" stroke="none" stroke-width="1px">0.34</text><text x="0" y="23.466666666666683" dx="0em" dy="0.3em" style="text-anchor: end; visibility: inherit; font-family: Roboto, sans-serif; font-size: 12px; font-weight: 200;" fill="rgb(33, 33, 33)" stroke="none" stroke-width="1px">0.36</text><text x="0" y="11.73333333333335" dx="0em" dy="0.3em" style="text-anchor: end; visibility: hidden; font-family: Roboto, sans-serif; font-size: 12px; font-weight: 200;" fill="rgb(33, 33, 33)" stroke="none" stroke-width="1px">0.38</text><text x="0" y="0" dx="0em" dy="0.3em" style="text-anchor: end; visibility: hidden; font-family: Roboto, sans-serif; font-size: 12px; font-weight: 200;" fill="rgb(33, 33, 33)" stroke="none" stroke-width="1px">0.4</text></g><line x1="53.1875" y1="0" x2="53.1875" y2="176" fill="rgb(0, 0, 0)" stroke="rgb(204, 204, 204)" stroke-width="1px"></line></g></g><g transform="translate(53, 0)" clip-path="url(#clip_0)"><clipPath id="clip_0"><rect width="276" height="176"></rect></clipPath><g><g><g><line x1="0" y1="0" x2="0" y2="176" fill="rgb(0, 0, 0)" stroke="rgb(66, 66, 66)" stroke-width="1px" opacity="0.25"></line><line x1="19.772321428571427" y1="0" x2="19.772321428571427" y2="176" fill="rgb(0, 0, 0)" stroke="rgb(66, 66, 66)" stroke-width="1px" opacity="0.25"></line><line x1="39.544642857142854" y1="0" x2="39.544642857142854" y2="176" fill="rgb(0, 0, 0)" stroke="rgb(66, 66, 66)" stroke-width="1px" opacity="0.25"></line><line x1="59.316964285714285" y1="0" x2="59.316964285714285" y2="176" fill="rgb(0, 0, 0)" stroke="rgb(66, 66, 66)" stroke-width="1px" opacity="0.25"></line><line x1="79.08928571428571" y1="0" x2="79.08928571428571" y2="176" fill="rgb(0, 0, 0)" stroke="rgb(66, 66, 66)" stroke-width="1px" opacity="0.25"></line><line x1="98.86160714285714" y1="0" x2="98.86160714285714" y2="176" fill="rgb(0, 0, 0)" stroke="rgb(66, 66, 66)" stroke-width="1px" opacity="0.25"></line><line x1="118.63392857142857" y1="0" x2="118.63392857142857" y2="176" fill="rgb(0, 0, 0)" stroke="rgb(66, 66, 66)" stroke-width="1px" opacity="0.25"></line><line x1="138.40625" y1="0" x2="138.40625" y2="176" fill="rgb(0, 0, 0)" stroke="rgb(66, 66, 66)" stroke-width="1px" opacity="0.25"></line><line x1="158.17857142857142" y1="0" x2="158.17857142857142" y2="176" fill="rgb(0, 0, 0)" stroke="rgb(66, 66, 66)" stroke-width="1px" opacity="0.25"></line><line x1="177.95089285714286" y1="0" x2="177.95089285714286" y2="176" fill="rgb(0, 0, 0)" stroke="rgb(66, 66, 66)" stroke-width="1px" opacity="0.25"></line><line x1="197.72321428571428" y1="0" x2="197.72321428571428" y2="176" fill="rgb(0, 0, 0)" stroke="rgb(66, 66, 66)" stroke-width="1px" opacity="0.25"></line><line x1="217.49553571428572" y1="0" x2="217.49553571428572" y2="176" fill="rgb(0, 0, 0)" stroke="rgb(66, 66, 66)" stroke-width="1px" opacity="0.25"></line><line x1="237.26785714285714" y1="0" x2="237.26785714285714" y2="176" fill="rgb(0, 0, 0)" stroke="rgb(66, 66, 66)" stroke-width="1px" opacity="0.25"></line><line x1="257.04017857142856" y1="0" x2="257.04017857142856" y2="176" fill="rgb(0, 0, 0)" stroke="rgb(66, 66, 66)" stroke-width="1px" opacity="0.25"></line><line x1="276.8125" y1="0" x2="276.8125" y2="176" fill="rgb(0, 0, 0)" stroke="rgb(66, 66, 66)" stroke-width="1px" opacity="0.25"></line></g><g><line x1="0" y1="176" x2="276.8125" y2="176" fill="rgb(0, 0, 0)" stroke="rgb(66, 66, 66)" stroke-width="1px" opacity="0.25"></line><line x1="0" y1="164.26666666666668" x2="276.8125" y2="164.26666666666668" fill="rgb(0, 0, 0)" stroke="rgb(66, 66, 66)" stroke-width="1px" opacity="0.25"></line><line x1="0" y1="152.53333333333333" x2="276.8125" y2="152.53333333333333" fill="rgb(0, 0, 0)" stroke="rgb(66, 66, 66)" stroke-width="1px" opacity="0.25"></line><line x1="0" y1="140.8" x2="276.8125" y2="140.8" fill="rgb(0, 0, 0)" stroke="rgb(66, 66, 66)" stroke-width="1px" opacity="0.25"></line><line x1="0" y1="129.06666666666666" x2="276.8125" y2="129.06666666666666" fill="rgb(0, 0, 0)" stroke="rgb(66, 66, 66)" stroke-width="1px" opacity="0.25"></line><line x1="0" y1="117.33333333333334" x2="276.8125" y2="117.33333333333334" fill="rgb(0, 0, 0)" stroke="rgb(66, 66, 66)" stroke-width="1px" opacity="0.25"></line><line x1="0" y1="105.60000000000002" x2="276.8125" y2="105.60000000000002" fill="rgb(0, 0, 0)" stroke="rgb(66, 66, 66)" stroke-width="1px" opacity="0.25"></line><line x1="0" y1="93.86666666666669" x2="276.8125" y2="93.86666666666669" fill="rgb(0, 0, 0)" stroke="rgb(66, 66, 66)" stroke-width="1px" opacity="0.25"></line><line x1="0" y1="82.13333333333335" x2="276.8125" y2="82.13333333333335" fill="rgb(0, 0, 0)" stroke="rgb(66, 66, 66)" stroke-width="1px" opacity="0.25"></line><line x1="0" y1="70.4" x2="276.8125" y2="70.4" fill="rgb(0, 0, 0)" stroke="rgb(66, 66, 66)" stroke-width="1px" opacity="0.25"></line><line x1="0" y1="58.66666666666669" x2="276.8125" y2="58.66666666666669" fill="rgb(0, 0, 0)" stroke="rgb(66, 66, 66)" stroke-width="1px" opacity="0.25"></line><line x1="0" y1="46.933333333333344" x2="276.8125" y2="46.933333333333344" fill="rgb(0, 0, 0)" stroke="rgb(66, 66, 66)" stroke-width="1px" opacity="0.25"></line><line x1="0" y1="35.20000000000001" x2="276.8125" y2="35.20000000000001" fill="rgb(0, 0, 0)" stroke="rgb(66, 66, 66)" stroke-width="1px" opacity="0.25"></line><line x1="0" y1="23.466666666666683" x2="276.8125" y2="23.466666666666683" fill="rgb(0, 0, 0)" stroke="rgb(66, 66, 66)" stroke-width="1px" opacity="0.25"></line><line x1="0" y1="11.73333333333335" x2="276.8125" y2="11.73333333333335" fill="rgb(0, 0, 0)" stroke="rgb(66, 66, 66)" stroke-width="1px" opacity="0.25"></line><line x1="0" y1="0" x2="276.8125" y2="0" fill="rgb(0, 0, 0)" stroke="rgb(66, 66, 66)" stroke-width="1px" opacity="0.25"></line></g></g></g><g><g><line x1="0" y1="234.66666666666666" x2="276.8125" y2="234.66666666666666" fill="rgb(0, 0, 0)" stroke="rgb(153, 153, 153)" stroke-width="1.5px"></line></g></g><g><g><line x1="19.772321428571427" y1="0" x2="19.772321428571427" y2="176" fill="rgb(0, 0, 0)" stroke="rgb(153, 153, 153)" stroke-width="1.5px"></line></g></g><g><g><g><g><g><path stroke="rgb(255, 112, 67)" stroke-width="2px" d="M19.970044642857143,17.12819067637126L20.36549107142857,18.25562644004824L20.563214285714288,19.289960640628365L20.7609375,19.472405592600587L21.354107142857142,16.894432664827562L21.74955357142857,14.718786987104249L21.947276785714283,13.062671621800668L22.145,11.950367241970396L22.738169642857144,11.332767984230761L22.935892857142857,11.045217973849825L23.133616071428573,10.90333404608891L23.331339285714286,10.73396484204066L23.529062500000002,10.582292779979259L23.726785714285715,10.57215099988524L23.924508928571427,10.785192984649706L24.319955357142856,11.052054264987264L24.51767857142857,11.395344519917531L24.913125,11.920047705251063L25.110848214285717,12.482955996008135L25.30857142857143,12.85015816771073L25.506294642857142,13.139093701149172L25.70401785714286,13.332397007574949L25.90174107142857,13.279249516797472L26.099464285714287,13.544360404344674L26.2971875,13.865195823981248L26.494910714285712,14.294808305964537L26.69263392857143,14.746543343874414L27.088080357142854,15.385993771647387L27.285803571428573,15.851209318921699L27.483526785714286,16.176741161163037L27.681250000000002,16.59670205017344L27.878973214285715,17.047975515083515L28.274419642857143,17.74928730583669L28.472142857142856,18.33646637208645L29.065312499999997,19.23640157741056L29.263035714285717,19.97381333055786L29.46075892857143,20.70652323744762L29.658482142857142,21.344327152844677L29.85620535714286,31.9109739346739L30.05392857142857,37.507135439451986L30.251651785714287,42.49698044573319L30.449375,44.47415618424426L30.647098214285712,46.25657610343591L30.84482142857143,47.13515840533711L31.240267857142854,47.66786071403404L31.437991071428574,48.48594477624975L31.833437500000002,48.89226342948576L32.03116071428571,49.057845062293175L32.22888392857143,49.092873795595764L32.426607142857144,49.27352721518443L32.822053571428576,49.257999462045184L33.019776785714285,49.21784797638066L33.2175,49.27908614076829L33.41522321428572,49.405410211072486L33.81066964285714,50.1138397698324L34.00839285714286,50.70826179850451L34.20611607142857,51.04264036259073L34.403839285714284,51.11520048444085L34.799285714285716,51.00804520724975L35.19473214285714,50.798487733277256L35.39245535714286,50.84832087584692L35.59017857142857,50.8449101890824L35.78790178571428,50.854067542892786L35.985625,51.03789205873536L36.183348214285715,51.25299303248248L36.381071428571424,51.55022899616589L36.57879464285714,52.04783593997659L36.77651785714286,52.27856207322263L36.97424107142857,52.54025316495411L37.17196428571429,52.71850042497343L37.369687500000005,52.99191072556515L37.567410714285714,53.08958053771537L37.76513392857143,53.23547668566634L38.160580357142855,53.34650591598154L38.55602678571429,53.42107519062082L38.753750000000004,53.55353063276442L38.95147321428571,53.5785236632687L39.544642857142854,53.96331369136941L39.74236607142857,59.520913985899114L39.940089285714286,62.40716966839494L40.33553571428571,63.892531145722856L40.53325892857143,65.88694131520064L40.92870535714285,66.74981730071705L41.126428571428576,68.03770038816137L41.32415178571429,69.22482970555308L41.521875,69.98380364099953L41.71959821428572,71.21000989150889L41.917321428571434,71.850396727752L42.11504464285714,72.10531695002199L42.510491071428575,72.19505382764666L42.708214285714284,72.12927722049749L42.9059375,72.05253530609409L43.103660714285716,72.00142678261479L43.301383928571425,71.9215616105438L43.49910714285714,71.98816989174131L43.69683035714286,72.03656915611411L43.89455357142857,72.05186626783842L44.09227678571428,72.21535158239901L44.29,72.4063459083424L44.685446428571424,72.28384508162655L44.88316964285714,72.46750667971324L45.08089285714286,72.3952473041333L45.278616071428566,72.33272918285435L45.47633928571429,72.29523929092193L45.674062500000005,72.26617136080803L45.871785714285714,72.44748205232466L46.06950892857143,72.53949778648919L46.464955357142856,72.4213845493756L46.86040178571429,72.2441297866322L47.058125000000004,72.01510898058123L47.25584821428571,71.9466325270206L47.45357142857143,71.90066511395L47.651294642857145,71.95906412777755L47.849017857142854,72.0154620260643L48.24446428571429,72.04637743536517L48.442187499999996,72.22798973026207L48.63991071428571,72.41931387803356L48.83763392857143,72.51998826476776L49.03535714285714,72.62295601733237L49.23308035714285,72.65354516089586L49.62852678571429,82.96261704353866L50.02397321428572,83.69092751575539L50.221696428571434,83.46861903488455L50.41941964285714,83.35339635582659L50.814866071428575,83.53148692034816L51.012589285714284,83.55763498057804L51.2103125,83.82801716591844L51.40803571428572,84.53490895270863L51.605758928571426,85.23290686352787L51.80348214285714,85.80119405911609L52.00120535714286,86.37396963472908L52.198928571428574,86.8131117663925L52.39665178571428,86.9007706548062L52.594375,86.89038851491334L52.792098214285716,86.7585050103966L53.18754464285714,86.72128762232683L53.38526785714286,86.54015324966564L53.582991071428566,86.44706838005655L53.78071428571428,86.40340032979176L53.9784375,86.45514330151276L54.37388392857143,86.4527736080642L54.57160714285715,86.61228178975715L54.76933035714286,86.72188300512873L54.96705357142857,86.83185035361436L55.16477678571429,86.94723363542708L55.56022321428571,87.0273596514711L55.75794642857143,87.17072321987845L55.955669642857146,87.27847051233071L56.153392857142855,87.22564019924415L56.35111607142857,87.20612488289287L56.54883928571429,87.20819310803975L56.746562499999996,87.24332508520148L57.339732142857144,87.22655484522896L57.53745535714285,87.076550532056L57.73517857142857,86.94718789776553L57.932901785714286,86.79536809754602L58.130624999999995,86.71580168941955L58.526071428571434,86.59095727606221L58.92151785714286,86.66769310953383L59.119241071428576,86.85185843977627L59.316964285714285,86.98047109210471L59.5146875,98.82757937767495L59.91013392857143,97.65470529312923L60.10785714285714,98.26105564861517L60.30558035714286,98.37508202808512L60.503303571428575,97.93505529493538L60.701026785714284,98.23003164090983L60.89875,97.97985114549562L61.096473214285716,97.02170445459066L61.294196428571425,96.62039438448537L61.49191964285714,96.39228076673857L61.68964285714286,96.41084911189863L62.08508928571428,96.36757982032927L62.2828125,96.4983345921284L62.48053571428571,96.37037450405634L62.678258928571424,96.29807436267143L63.07370535714286,96.00284383177524L63.27142857142857,95.87257320173443L63.46915178571429,95.89738825850404L63.666875000000005,95.55408898130685L63.864598214285714,95.41196108938634L64.06232142857142,95.50816507984031L64.26004464285714,95.70401829788383L64.45776785714285,95.80646598920802L64.65549107142857,95.71202951621362L65.24866071428572,95.46321465542722L65.44638392857144,95.27457268618033L65.64410714285715,95.21154918421797L65.84183035714285,95.27740138858252L66.03955357142857,95.41879214896575L66.23727678571429,95.54994179837199L66.435,95.57781600574032L66.63272321428572,95.53774191311624L66.83044642857143,95.36036601884143L67.02816964285714,95.29729038411169L67.22589285714285,95.430508744322L67.62133928571428,95.5131777594106L67.8190625,95.61808814622661L68.21450892857143,95.83581349462887L68.41223214285714,96.00684030777587L68.60995535714285,96.14641413644776L68.80767857142857,96.19333007468279L69.00540178571428,96.196397049428L69.203125,96.20137386910179L69.79629464285715,100.64666361843781L69.99401785714285,102.67524029752754L70.19174107142857,103.4483619010914L70.38946428571428,104.5640254821262L70.78491071428572,106.66167298987794L70.98263392857143,107.44670656543148L71.18035714285713,107.38704446487331L71.37808035714285,106.98434834996486L71.77352678571428,106.34674889238453L71.97125,105.97626368835634L72.36669642857143,105.15350806296905L72.76214285714285,104.56324843315902L72.95986607142856,104.13112087894652L73.3553125,103.79268365611141L73.55303571428573,103.5988319089582L73.94848214285715,103.20652497036679L74.14620535714286,102.94424687359783L74.34392857142858,102.86996412198181L74.5416517857143,102.95739889097473L74.93709821428573,102.73913354845203L75.13482142857143,102.62274902962461L75.33254464285714,102.47506543339976L75.53026785714286,102.48021513029948L75.72799107142858,102.40702562613299L75.92571428571429,102.61418957561062L76.12343750000001,102.73433723678076L76.32116071428571,102.90265443303122L76.51888392857143,103.08292083568135L76.71660714285714,103.27903933103937L76.91433035714286,103.52424243356423L77.11205357142858,103.61627211927754L77.30977678571429,103.68202580666173L77.50750000000001,103.77223765247444L78.29839285714286,104.00793989932563L78.49611607142857,104.21942674578841L78.69383928571429,104.36966702617178L78.89156249999999,104.38222406671625L79.08928571428571,104.38760425865362L79.28700892857142,111.09705904058445L79.48473214285714,111.00533046880463L79.88017857142857,112.12982887362895L80.07790178571429,113.23001575272556L80.27562499999999,113.08482398868367L80.4733482142857,113.11463512349586L80.67107142857142,112.52369643868086L80.86879464285714,112.06078819605357L81.06651785714286,111.90805405878615L81.46196428571427,112.03290082516425L81.65968749999999,112.00612526835293L81.8574107142857,111.97464601418154L82.05513392857142,111.76572105221416L82.25285714285715,111.43064864237587L82.45058035714287,111.33728233829825L82.84602678571429,111.36488866720013L83.04375,111.37077671635198L83.24147321428572,111.22592259058186L83.43919642857144,111.05594349270363L83.63691964285715,111.07794927178998L84.03236607142857,111.06380422087021L84.23008928571429,110.96573601864682L84.62553571428572,110.96996348720533L85.02098214285715,110.8573396620457L85.21870535714287,110.87111855451096L85.41642857142857,110.86816813689767L85.61415178571428,110.96473505979158L85.811875,111.09695785970717L86.00959821428572,111.22686584232983L86.40504464285715,111.18217415475092L86.60276785714285,111.03219814417703L86.80049107142857,111.00589986235666L87.1959375,111.03456179851753L87.39366071428572,111.06576017074462L87.59138392857143,111.00832925359018L87.78910714285713,110.8846357154028L87.98683035714285,110.7980269126401L88.18455357142857,110.79907320731715L88.38227678571428,110.75613428032698L88.58,110.81269272690795L88.77772321428571,110.84861048376031L88.97544642857143,110.8668007074722L89.17316964285713,116.35375822497974L89.56861607142856,115.13251803465825L89.76633928571428,116.01603603848702L89.9640625,116.51677367183896L90.16178571428571,116.43715891695021L90.55723214285713,117.14480502678552L90.75495535714285,117.8547495321846L91.1504017857143,118.01160555579759L91.34812500000001,118.09365518986283L91.54584821428573,118.54975930908779L91.74357142857143,118.46120514905132L91.94129464285714,118.17066051822312L92.13901785714286,117.99953331705774L92.33674107142858,118.08424732381212L92.5344642857143,117.98450676576759L92.73218750000001,117.75083271648367L92.92991071428571,117.46167834591397L93.72080357142858,117.55251976643916L93.91852678571429,117.53675980247012L94.11625000000001,117.44289792504082L94.51169642857143,117.23729866103037L94.70941964285714,117.02787222080849L95.30258928571429,116.83086403377902L95.50031249999999,116.76625116766326L95.89575892857142,116.76767223736148L96.09348214285714,116.77044462557934L96.29120535714286,116.79682348209403L96.88437499999999,116.80906657003032L97.08209821428571,116.88956210388345L97.27982142857142,116.94068134649754L97.47754464285714,116.92037295991676L97.67526785714286,116.94408613658645L97.87299107142857,117.0442445489766L98.07071428571427,117.05109023727985L98.26843749999999,117.16390634980608L98.4661607142857,117.3121099714844L98.66388392857142,117.32723905112795L98.86160714285714,117.38588372150927L99.05933035714285,116.54235119390411L99.25705357142859,119.18226242125785L99.45477678571427,120.70943851507161L99.6525,122.06111747763427L99.85022321428572,122.40203875745458L100.04794642857144,121.93340395159598L100.24566964285715,122.82543988784398L100.44339285714287,123.63631465292124L100.64111607142857,123.96499020013897L100.83883928571429,124.32230028005654L101.0365625,124.7570480376018L101.43200892857143,124.9232171775619L101.62973214285715,124.7150249084862L101.82745535714287,124.3926589092234L102.02517857142857,124.10783979896422L102.61834821428572,123.55485236011178L102.81607142857143,123.47996322728534L103.01379464285715,123.52244639645423L103.21151785714285,123.6243764733299L103.40924107142857,123.69376600037164L103.60696428571428,123.70922962178875L103.8046875,123.69021863550003L104.00241071428572,123.620411889613L104.20013392857143,123.4848099491161L104.39785714285715,123.40659940686794L104.79330357142857,123.31549093989715L104.99102678571428,123.2386036586852L105.18875,123.3548244876916L105.78191964285713,123.54379456698426L105.97964285714285,123.62964276547946L106.17736607142857,123.50519241537083L106.37508928571428,123.38369298167287L106.5728125,123.26691190513327L106.77053571428571,123.22002358503555L106.96825892857143,123.11575463970948L107.16598214285713,123.04605629182129L107.56142857142856,123.07228512447836L107.75915178571428,123.13055057653843L107.956875,123.00924109217956L108.15459821428573,122.86130554754001L108.94549107142858,138.1938180880455L109.1432142857143,135.49533188879735L109.34093750000001,134.5736011616801L109.53866071428573,132.37552888904503L109.73638392857143,131.45305196274018L109.93410714285714,130.71798017717617L110.13183035714286,130.61612027742794L110.52727678571429,130.38302093659837L110.92272321428571,130.54358940471212L111.12044642857143,130.2761612722218L111.31816964285714,130.35067575706682L111.51589285714286,130.37642126997497L111.71361607142858,130.31751249861827L111.91133928571429,130.22510985512798L112.10906250000001,130.10057488270166L112.50450892857143,129.7668000331773L112.70223214285714,129.4716388069344L112.89995535714286,129.35859656032437L113.09767857142857,129.25241474924394L113.49312499999999,129.18439410101124L113.69084821428571,129.11927191796352L113.88857142857142,129.01012261936535L114.48174107142857,128.87343107996068L114.67946428571429,128.63596565328646L114.87718749999999,128.39536252897545L115.0749107142857,128.2324396090601L115.27263392857142,128.18326698046292L115.47035714285714,128.14323452096005L115.66808035714286,128.1380873063057L116.06352678571427,128.25536602768398L116.26124999999999,128.2512757740404L116.4589732142857,128.21437808446007L116.65669642857142,128.14371779305884L116.85441964285715,128.20970861162633L117.05214285714287,128.2544364137206L117.6453125,128.0933302722029L117.84303571428572,127.99194240262027L118.23848214285715,127.91145763212393L118.43620535714287,127.743268291636L118.63392857142857,127.61291507908723L119.029375,131.63212734080764L119.22709821428572,133.46091200679987L119.42482142857143,134.5854578918444L120.01799107142857,137.91104748087488L120.21571428571428,139.5901885801794L120.4134375,141.1811292791908L120.61116071428572,142.42035117693018L120.80888392857143,143.01584354408942L121.00660714285715,143.27860281885683L121.20433035714285,143.41996676537008L121.40205357142857,143.6982284316179L121.59977678571428,143.75917976272643L121.99522321428572,144.11498095893387L122.19294642857143,144.41058416150128L122.39066964285713,144.64193326820205L122.58839285714285,144.87452007088623L122.78611607142857,145.0155128364974L122.98383928571428,145.05788456550522L123.37928571428571,145.17194813381403L123.97245535714285,145.11437188321813L124.17017857142856,145.1286275549797L124.76334821428571,145.20821507160272L124.96107142857142,145.2567963245575L125.15879464285713,145.31531125166404L125.35651785714285,145.4369241904719L125.55424107142858,145.490176962505L125.7519642857143,145.5498128374558L125.94968750000001,145.59472801924593L126.14741071428573,145.5579233644854L126.34513392857143,145.59347492526675L126.54285714285714,145.65770467561904L126.74058035714286,145.75244668588493L126.93830357142858,145.7281450160272L127.1360267857143,145.69373013146287L127.33375000000001,145.7452342921549L127.53147321428571,145.8976647782755L127.92691964285714,145.99203940600745L128.12464285714285,146.04339799307144L128.32236607142858,146.15271993292782L128.7178125,146.2505571433708L129.1132589285714,145.5844660354935L129.31098214285714,146.06798213441866L129.50870535714284,147.09338263900895L129.70642857142857,148.01476829190145L129.9041517857143,148.4475088811264L130.2995982142857,148.72314762451322L130.49732142857144,148.91612066851897L130.69504464285714,148.9071699342738L130.89276785714287,149.05108862489126L131.09049107142857,149.07543797514634L131.2882142857143,149.21172244084954L131.4859375,149.38117552637902L131.88138392857144,149.46796497209777L132.07910714285714,149.30819864573425L132.27683035714287,149.3518159439306L132.47455357142857,149.34031173687026L132.67227678571427,149.20279652139055L132.87,149.0185198521247L133.0677232142857,148.94234843267782L133.26544642857144,148.90407629339168L133.66089285714287,148.87415436622464L133.85861607142857,148.87893744141041L134.05633928571427,148.75788748163092L134.64950892857144,148.73139086503647L135.44040178571427,148.96460883898854L135.638125,149.20649599085243L135.8358482142857,149.39161075979467L136.23129464285714,149.45443419116734L136.42901785714287,149.46119900245267L136.62674107142857,149.4173656366197L136.82446428571427,149.4450702863094L137.0221875,149.51294925593277L137.2199107142857,149.52890176842376L137.41763392857143,149.50097003342566L137.61535714285714,149.56215829111252L137.81308035714284,149.67633948201208L138.01080357142857,149.76672771061024L138.20852678571427,149.86073681404926L138.40625,149.92154825145445L138.80169642857143,146.531854274359L138.99941964285713,146.7394869262894L139.19714285714286,148.04024862855198L139.39486607142857,149.39531826740216L139.5925892857143,149.94396656214622L139.7903125,150.63279502466972L139.9880357142857,150.84692802951133L140.18575892857143,150.90525491391855L140.38348214285713,150.922822964322L140.58120535714286,151.35258535472437L140.97665178571427,151.8635450915171L141.174375,151.84794972235002L141.3720982142857,151.87952261305276L141.56982142857143,152.0768454063123L141.76754464285713,152.20410348503898L141.96526785714286,152.38698152817753L142.16299107142856,152.4753708449054L142.36071428571427,152.6061803901423L142.5584375,152.65468100731943L142.7561607142857,152.64342823838416L142.95388392857143,152.45968575009837L143.15160714285713,152.34053039588014L143.54705357142856,152.15065282208212L143.74477678571427,151.89567562116673L143.9425,151.85670964821276L144.1402232142857,151.8769072586542L144.33794642857143,151.88621788984017L144.93111607142856,151.95881355861113L145.12883928571426,151.9831000629621L145.3265625,151.92701201023007L145.5242857142857,151.921200746584L145.72200892857143,152.00172474838575L145.91973214285713,152.0278064580199L146.31517857142856,152.09933094410718L146.51290178571426,152.1916345212576L146.710625,152.2487545800438L146.9083482142857,152.31945284161353L147.10607142857145,152.29146361323228L147.30379464285716,152.2529059567374L147.50151785714283,152.22496675163438L148.09468750000002,152.22033364798585L148.29241071428572,152.24592337146973L148.68785714285715,148.82663409592058L148.88558035714286,150.9475366633019L149.0833035714286,151.92030053700296L149.2810267857143,153.19192743320437L149.47875000000002,153.81443338405595L150.07191964285715,153.6507401594212L150.26964285714286,153.9020334638371L150.4673660714286,154.17047346575345L150.6650892857143,154.45882819261124L151.06053571428572,154.96693643430453L151.45598214285715,155.14205239911627L151.85142857142858,155.05693770269403L152.24687500000002,154.9669039775124L152.44459821428572,154.75102009748565L152.64232142857142,154.56838377937763L152.84004464285715,154.64519222949994L153.03776785714285,154.72434309547177L153.43321428571429,154.93005358830112L153.63093750000002,154.93731249762587L153.82866071428572,154.91966943776416L154.02638392857142,154.93345983526592L154.22410714285715,154.8174191298176L154.42183035714285,154.621626455511L154.81727678571428,154.5897701415968L155.01500000000001,154.45919916432413L155.21272321428572,154.4332352324405L155.41044642857142,154.50465390547586L155.80589285714285,154.44372690596865L156.00361607142858,154.29360844023236L156.20133928571428,154.17690568761356L156.39906249999999,154.09459626036679L156.79450892857142,154.0961940329738L156.99223214285715,154.1471325422208L157.18995535714285,154.12009276538376L157.38767857142858,154.1518800432838L157.58540178571428,154.13245257787048L157.78312499999998,154.21217462848907L157.98084821428571,154.2419923152404L158.17857142857142,154.28576278721553L158.37629464285715,154.22808424652771L158.77174107142858,152.56041634890136L158.96946428571428,150.87770418810464L159.3649107142857,152.5313281326748L159.56263392857142,153.2192419276192L159.76035714285715,154.34588059816087L159.95808035714285,155.4331301273902L160.15580357142858,155.859687595884L160.35352678571428,156.12230447291532L160.55124999999998,155.89176412041505L160.7489732142857,155.82653014430716L160.9466964285714,155.80664317152488L161.34214285714285,155.8679341018692L161.53986607142855,156.0257680778004L161.73758928571428,155.7993113258062L161.93531249999998,155.6824144398319L162.1330357142857,155.39723324031513L162.3307589285714,155.4557003135535L162.52848214285714,155.34436929752746L162.72620535714285,155.29999920048508L162.92392857142855,155.27456955304658L163.12165178571428,155.33063261622738L163.31937499999998,155.29383429436612L163.5170982142857,155.25714914331076L163.7148214285714,155.2475202421103L163.91254464285717,155.26574147977956L164.11026785714284,155.27104436499988L164.30799107142855,155.14104674941171L164.5057142857143,155.10728627057395L164.7034375,155.20543882217916L164.90116071428574,155.23192895035098L165.09888392857144,155.23852152375468L165.29660714285717,155.28248752006743L165.49433035714287,155.31092323968124L165.8897767857143,155.3277189142067L166.0875,155.29163848200793L166.28522321428574,155.26579755250228L166.68066964285714,155.24051242890127L166.87839285714287,155.28110142045517L167.07611607142857,155.29969207938493L167.2738392857143,155.33134125369378L167.4715625,155.38609958508167L168.46017857142857,159.4276018668327L168.6579017857143,156.7452155110705L168.855625,155.61755262359787L169.25107142857144,155.58581833766786L169.44879464285714,154.79819033579162L169.64651785714287,155.45409571748655L169.84424107142857,155.99097301734494L170.0419642857143,156.55850523018643L170.43741071428573,157.00260344328765L170.63513392857143,157.40645187208423L170.83285714285714,157.54413999582948L171.03058035714287,157.45182865539564L171.22830357142857,157.2834985197348L171.4260267857143,157.0986785058635L171.62375,156.9172174591496L171.8214732142857,156.90935655784656L172.01919642857143,156.79758880348237L172.21691964285714,156.65928772575396L172.41464285714287,156.66041574966948L172.61236607142857,156.82311706200466L172.8100892857143,156.96674182686343L173.2055357142857,157.2861920992919L173.40325892857143,157.47359266283442L173.60098214285713,157.61347593308884L173.79870535714286,157.6659521268292L173.99642857142857,157.55070138016245L174.1941517857143,157.37050636632583L174.391875,157.3027564844887L174.5895982142857,157.310495354418L174.78732142857143,157.32272324821395L175.38049107142857,157.25639277613783L175.57821428571427,157.29239824960607L175.7759375,157.42258085141566L175.9736607142857,157.37915193237853L176.17138392857143,157.36622159003016L176.36910714285713,157.2572448431579L176.76455357142856,157.16522362505165L176.96227678571427,157.0223040104395L177.16,156.8953004233332L177.3577232142857,156.77667502277842L177.55544642857143,156.78986022301766L177.75316964285713,156.74853282031367L177.95089285714286,156.73434219076407L178.14861607142856,156.68948900688196L178.5440625,158.43936008605462L178.7417857142857,159.79188057418529L178.93950892857143,158.9203574933759L179.13723214285713,157.88451118537697L179.33495535714286,157.91318548879372L179.53267857142856,157.75265442427803L179.73040178571426,158.06929456649308L179.928125,158.33921213621747L180.1258482142857,158.36999749148796L180.32357142857143,158.29244291983989L180.71901785714283,158.37489335657924L180.91674107142856,158.57860422683814L181.11446428571426,158.74662142129577L181.5099107142857,159.0016478685449L181.70763392857145,159.42125321951968L181.90535714285716,159.51968149459836L182.10308035714283,159.49486757188924L182.3008035714286,159.4481757692688L182.4985267857143,159.5741705067273L182.69625000000002,159.59493393703198L182.89397321428572,159.50149822436111L183.09169642857145,159.24082120380206L183.28941964285715,159.10212281617365L183.48714285714286,158.96352836652304L183.6848660714286,158.97681709824226L183.8825892857143,158.96666988947922L184.08031250000002,158.93687671752136L184.47575892857145,158.81323992211438L184.67348214285715,158.69731997052122L184.87120535714286,158.59926903207673L185.0689285714286,158.42563833371543L185.2666517857143,158.23068283543435L185.46437500000002,158.08726319399744L185.85982142857142,158.02899353142936L186.05754464285715,158.053145236391L186.45299107142858,158.16774981018992L186.6507142857143,158.3061864105687L187.04616071428572,158.34879382418546L187.44160714285715,158.34891201635375L188.03477678571429,158.25058631249374L188.23250000000002,156.00286669024686L188.82566964285715,158.03476145956236L189.02339285714285,159.03908254559823L189.22111607142858,160.31512852821345L189.41883928571428,160.33944027610775L189.61656250000001,160.2913260995636L190.01200892857142,160.15882625615336L190.20973214285715,159.91786134105368L190.40745535714285,159.8831485342668L191.00062499999999,159.96813419451436L191.19834821428572,159.80142145349652L191.59379464285715,159.54877921538L191.79151785714285,159.54946927585073L191.98924107142858,159.59193589900653L192.18696428571428,159.64707228311732L192.38468749999998,159.66280296307107L192.58241071428571,159.63929796334884L192.78013392857142,159.527878857355L193.17558035714285,159.4628492295945L193.37330357142858,159.4967468480391L193.57102678571428,159.44275032083925L193.9664732142857,159.51238919854603L194.16419642857142,159.4075479600456L194.36191964285715,159.40578836363318L194.55964285714285,159.44919449187375L194.75736607142858,159.41500568845106L194.95508928571428,159.37648735319516L195.15281249999998,159.47185512706602L195.3505357142857,159.4987724720933L195.5482589285714,159.40079063372798L195.74598214285714,159.32635332463377L195.94370535714285,159.26708128443275L196.33915178571428,159.19238880311002L196.53687499999998,159.0766196272843L196.9323214285714,159.01251173150976L197.32776785714285,158.9609969146993L197.52549107142855,158.98092109091758L198.1186607142857,126.56221852776017L198.3163839285714,134.475240497251L198.71183035714284,141.7660987228908L198.90955357142855,146.35192213758378L199.1072767857143,149.663999618915L199.305,151.62317375053604L199.50272321428574,153.08547924981298L199.89816964285717,154.1261633814918L200.09589285714287,154.7412408857473L200.4913392857143,155.1466611625112L200.6890625,155.9076049408132L201.08450892857144,156.38005719666566L201.28223214285714,156.87299421281548L201.47995535714287,157.39866441200732L201.67767857142857,157.7874085369342L201.8754017857143,158.02159215585192L202.073125,158.1693931673515L202.27084821428573,158.32305491693108L202.46857142857144,158.37710531191402L202.66629464285714,158.41008804422444L203.06174107142857,158.58723744262352L203.2594642857143,158.87464064265745L203.4571875,159.00499151094036L203.65491071428573,159.07730641728605L203.85263392857144,159.17251102983533L204.05035714285714,159.2877891750708L204.24808035714287,159.42471366871843L204.44580357142857,159.47715950260232L204.6435267857143,159.51526394039195L204.84125,159.5331436547625L205.23669642857143,159.63287917890082L205.63214285714287,159.6492342161214L205.82986607142857,159.63320234658772L206.0275892857143,159.6594289813983L206.2253125,159.6617721959679L206.4230357142857,159.5782651888169L206.62075892857143,159.49930534284334L206.81848214285714,159.41618508609747L207.01620535714287,159.40023544537593L207.21392857142857,159.42952916090232L207.4116517857143,159.46922968068446L207.609375,159.48689561429853L207.8070982142857,159.5010933876628L208.20254464285713,160.08368266427084L208.59799107142857,159.11513275784392L208.7957142857143,158.691516432457L208.9934375,158.33302642899326L209.1911607142857,157.82865217127943L209.58660714285713,157.7398922610196L209.78433035714286,157.93498645829635L209.98205357142857,157.92384657824522L210.17977678571427,157.74516176520478L210.3775,157.44827014211035L210.5752232142857,157.25742078226733L210.77294642857143,157.13120735725917L211.16839285714286,156.90548031950686L211.36611607142856,156.69149185076174L211.9592857142857,156.8610546004066L212.15700892857143,157.10483250287905L212.75017857142856,157.23465376655898L212.94790178571427,157.26559141612435L213.145625,157.40406297447115L213.3433482142857,157.45609077693123L213.54107142857143,157.45071688223538L213.73879464285713,157.47520822840127L213.93651785714286,157.42093903158423L214.13424107142856,157.39539909959427L214.33196428571426,157.40658792217926L214.92513392857143,157.3776023250442L215.12285714285713,157.39373484422492L215.32058035714283,157.46456999283868L215.51830357142856,157.44146401108407L215.71602678571426,157.39318835588952L216.1114732142857,157.34798729331885L216.30919642857145,157.3627409055527L216.50691964285716,157.358770285926L216.70464285714283,157.331511637498L216.9023660714286,157.40447186286988L217.29781250000002,157.41083567255185L217.49553571428572,157.3996456677523L217.69325892857145,157.27336538323604L217.89098214285715,157.23094275289085L218.08870535714286,163.76414364194855L218.2864285714286,162.91249778439195L218.4841517857143,161.84075549385702L218.68187500000002,161.2745699116096L218.87959821428572,160.70411833297246L219.07732142857145,160.58647869529943L219.47276785714286,160.2363637517052L219.8682142857143,159.7655379750425L220.26366071428572,158.85985925861763L220.46138392857142,158.26305230698128L220.65910714285715,158.16325969839775L220.85683035714285,158.12921154108454L221.05455357142858,158.01762091879135L221.64772321428572,157.95352693258178L222.04316964285715,157.71546936745517L222.24089285714285,157.47970371672554L222.63633928571429,157.46213965353795L222.83406250000002,157.42411981863236L223.03178571428572,157.54190748637393L223.22950892857142,157.58181169254865L223.42723214285715,157.55578136418234L223.82267857142858,157.57703698460642L224.61357142857142,157.6287237929367L224.81129464285715,157.71640860997022L225.00901785714285,157.74908421017156L225.20674107142858,157.70000880704777L225.40446428571428,157.69655182607843L226.19535714285715,157.6812562146656L226.39308035714285,157.6068913935943L226.59080357142858,157.6458636442417L226.78852678571428,157.71080653188196L227.18397321428571,157.67546164384026L227.38169642857142,157.68284459545538L227.57941964285715,157.7264490821023L227.97486607142858,157.92927390126744L228.17258928571428,158.87385112715776L228.37031249999998,156.29223434928863L228.76575892857142,155.9688177951404L229.16120535714285,155.42346476206552L229.35892857142858,155.31576492799942L229.55665178571428,155.7423588260827L229.9520982142857,155.79929096449322L230.1498214285714,155.75012486149217L230.34754464285714,156.0284315325976L230.54526785714285,156.39714276660447L230.74299107142855,156.63694803636648L230.94071428571428,156.99680091969992L231.13843749999998,157.02027293463246L231.3361607142857,157.01963109425523L231.5338839285714,156.92811573337607L231.73160714285714,156.84228076611615L231.92933035714285,156.7367331549008L232.12705357142855,156.75063853846865L232.32477678571428,156.84906648031995L232.7202232142857,157.18191964486516L232.9179464285714,157.40754637157488L233.11566964285717,157.51063989620746L233.51111607142855,157.68655482344633L233.7088392857143,157.7369801327356L233.9065625,157.79691970297307L234.10428571428574,157.84649651019936L234.49973214285717,157.84722959659L234.69745535714287,157.84981998400787L234.89517857142857,157.79631351190946L235.0929017857143,157.78396658157195L235.68607142857144,157.776184265146L235.88379464285714,157.73980933685857L236.08151785714287,157.66572461680428L236.27924107142857,157.62835131976522L237.07013392857144,157.67241560753294L237.46558035714287,157.7060785810318L237.66330357142857,157.72162911018728L237.8610267857143,157.23252822193106L238.05875,158.15163756151557L238.25647321428573,157.22106943571305L238.45419642857144,155.4864555321757L238.65191964285714,154.30536736583457L238.84964285714287,154.10164623381146L239.04736607142857,153.94966273062298L239.2450892857143,154.14090613853654L239.4428125,154.62826132177346L239.64053571428573,154.9767946684303L239.83825892857143,155.2760098785525L240.03598214285714,155.5221951172967L240.23370535714287,155.53269509670451L240.6291517857143,155.85062692282983L240.826875,156.24096621107094L241.0245982142857,156.46367928006867L241.22232142857143,156.59905902118655L241.42004464285714,156.61968722087843L241.61776785714287,156.48219104295595L241.81549107142857,156.45548836997523L242.4086607142857,156.50867554711127L242.60638392857143,156.5647437880446L243.00183035714286,156.64772815962692L243.19955357142857,156.6628934112791L243.3972767857143,156.85998084352036L243.595,157.00528459274148L243.7927232142857,157.00862043215855L243.99044642857143,157.0410896049779L244.18816964285713,157.0407512132431L244.38589285714286,157.19682742421458L244.58361607142857,157.26128531256097L244.78133928571427,157.24379435037838L245.1767857142857,157.26117630912026L245.37450892857143,157.3342227863063L245.76995535714286,157.32459150513748L245.96767857142856,157.36913177228413L246.363125,157.3759171457476L246.5608482142857,157.43749683845363L246.75857142857143,157.5109583005209L246.95629464285713,157.65940434127447L247.15401785714286,157.82831802997626L247.35174107142856,157.93713542044344L247.54946428571427,157.99683795901248L247.7471875,153.2611700208909L247.9449107142857,154.87810227345983L248.34035714285713,156.0273715162569L248.53808035714286,156.53850504781565L248.73580357142856,157.24637719606812L249.13125,157.72162932921722L249.3289732142857,157.79416432441835L249.52669642857143,157.6620512552752L249.72441964285713,157.34804983224635L249.92214285714283,157.01528334986864L250.11986607142856,156.78792875829356L250.31758928571426,156.61734521680881L250.5153125,156.58039585129706L250.7130357142857,156.58569014495387L250.91075892857145,156.5978290344821L251.7016517857143,156.8159277978865L251.89937500000002,156.96604396561747L252.09709821428572,157.01423941647988L252.49254464285715,157.17423445341575L252.69026785714286,157.216688384757L252.8879910714286,157.23208994278048L253.0857142857143,157.29013929332535L253.28343750000002,157.39098510085685L253.48116071428572,157.46449370943992L253.67888392857145,157.59445594805572L254.07433035714286,157.6295939230408L254.2720535714286,157.71879798234417L254.4697767857143,157.81095662550678L254.86522321428572,157.89772656065156L255.06294642857142,157.91273986400324L255.26066964285715,157.89763736983832L255.45839285714285,157.92277813113148L255.8538392857143,157.96086457663625L256.0515625,158.02959803319285L256.2492857142857,158.07958711530551L256.4470089285714,158.04044521657102L256.64473214285715,158.0958305327543L256.84245535714285,158.1785904801954L257.435625,158.2449541869006L257.6333482142857,152.3662816831812L258.2265178571428,154.8131576309211L258.4242410714286,155.50945423024535L258.6219642857143,156.77738261606876L259.0174107142857,157.1486024720664L259.2151339285714,157.80567263741466L259.41285714285715,157.5927328696599L259.8083035714286,157.4658397136579L260.0060267857143,157.36941185584368L260.20375,157.50703707729204L260.5991964285714,157.33585600492012L260.7969196428572,157.2430258379578L260.9946428571429,157.07288427668013L261.1923660714286,157.09425756643532L261.3900892857143,157.32087275173456L261.5878125,157.5513290531607L261.78553571428574,157.72450445297392L262.18098214285715,157.75297310075976L262.7741517857143,157.86186642322036L262.971875,157.76616751475987L263.5650446428572,157.6920823931129L263.7627678571429,157.6786794590611L263.9604910714286,157.56371237005743L264.1582142857143,157.55034531652504L264.3559375,157.61793651679898L264.75138392857144,157.81486489673304L264.94910714285714,157.9595556873074L265.14683035714285,157.980948421438L265.34455357142855,158.01870929384995L265.5422767857143,158.09398575137914L265.74,158.1359625389826L265.9377232142857,158.15429836892991L266.1354464285714,158.17226550410535L266.3331696428572,158.20753041961004L266.5308928571429,158.22151392335618L266.7286160714286,158.24401713392095L266.9263392857143,158.3056351084369L267.1240625,158.3357031984443L267.32178571428574,158.33085396150634" style="fill: none;" fill="none"></path></g></g></g></g><g opacity="0.2"><g><g><g><path stroke="rgb(255, 112, 67)" stroke-width="2px" d="M19.970044642857143,17.12819067637126L20.36549107142857,18.932087898254416L20.563214285714288,20.282921473185226L20.7609375,19.686960856119796L21.354107142857142,13.528631210327168L21.74955357142857,11.709085782368991L21.947276785714283,10.694400151570651L22.145,10.328616778055833L22.738169642857144,10.421929041544603L22.935892857142857,10.618239720662448L23.133616071428573,10.691795031229661L23.331339285714286,10.480832735697435L23.529062500000002,10.355279922485371L23.726785714285715,10.556958198547383L23.924508928571427,11.10450553894045L24.319955357142856,11.452157974243184L24.51767857142857,11.910134633382174L24.913125,12.706969261169453L25.110848214285717,13.327232678731296L25.30857142857143,13.400927861531589L25.506294642857142,13.572481155395527L25.70401785714286,13.62234560648601L25.90174107142857,13.199529329935716L26.099464285714287,13.942023595174167L26.2971875,14.346446673075365L26.494910714285712,14.939225196838398L26.69263392857143,15.424144744873066L27.088080357142854,16.345168431599948L27.285803571428573,16.549032211303732L27.483526785714286,16.665038744608566L27.681250000000002,17.22664324442546L27.878973214285715,17.724885622660324L28.274419642857143,18.80125490824382L28.472142857142856,19.217234929402682L29.065312499999997,20.586304346720382L29.263035714285717,21.07993094126384L29.46075892857143,21.80558808644614L29.658482142857142,22.30103302001953L29.85620535714286,47.760944048563665L30.05392857142857,45.9013776779175L30.251651785714287,49.98174794514975L30.449375,47.43991978963217L30.647098214285712,48.93020598093671L30.84482142857143,48.45303185780844L31.240267857142854,48.46691417694094L31.437991071428574,49.71307086944582L31.833437500000002,49.50174140930178L32.03116071428571,49.306217511494964L32.22888392857143,49.14541689554853L32.426607142857144,49.54450734456381L32.822053571428576,49.23470783233645L33.019776785714285,49.157620747884124L33.2175,49.370943387349456L33.41522321428572,49.59489631652834L33.81066964285714,51.17648410797121L34.00839285714286,51.599894841512054L34.20611607142857,51.544208208719915L34.403839285714284,51.22404066721601L34.799285714285716,50.847312291463226L35.19473214285714,50.48415152231855L35.39245535714286,50.92307058970136L35.59017857142857,50.83979415893557L35.78790178571428,50.86780357360842L35.985625,51.31362883249921L36.183348214285715,51.57564449310305L36.381071428571424,51.99608294169111L36.57879464285714,52.79424635569257L36.77651785714286,52.624651273091644L36.97424107142857,52.93278980255129L37.17196428571429,52.98587131500246L37.369687500000005,53.40202617645266L37.567410714285714,53.236085255940765L37.76513392857143,53.454320907592795L38.160580357142855,53.51304976145429L38.55602678571429,53.53292910257978L38.753750000000004,53.75221379597983L38.95147321428571,53.61601320902509L39.544642857142854,54.54049873352053L39.74236607142857,67.8573144276937L39.940089285714286,66.73655319213869L40.33553571428571,66.12057336171469L40.53325892857143,68.87855656941733L40.92870535714285,68.04413127899171L41.126428571428576,69.96952501932782L41.32415178571429,71.00552368164064L41.521875,71.12226454416913L41.71959821428572,73.04931926727296L41.917321428571434,72.81097698211671L42.11504464285714,72.48769728342694L42.510491071428575,72.32965914408368L42.708214285714284,72.03061230977377L42.9059375,71.93742243448895L43.103660714285716,71.92476399739584L43.301383928571425,71.80176385243735L43.49910714285714,72.08808231353761L43.69683035714286,72.10916805267335L43.89455357142857,72.07481193542482L44.09227678571428,72.46057955423993L44.29,72.6928373972575L44.685446428571424,72.10009384155275L44.88316964285714,72.74299907684328L45.08089285714286,72.28685824076337L45.278616071428566,72.23895200093588L45.47633928571429,72.23900445302328L45.674062500000005,72.22256946563722L45.871785714285714,72.71944808959962L46.06950892857143,72.67752138773602L46.464955357142856,72.24421469370526L46.86040178571429,71.9782476425171L47.058125000000004,71.67157777150473L47.25584821428571,71.8439178466797L47.45357142857143,71.83171399434408L47.651294642857145,72.04666264851889L47.849017857142854,72.10005887349448L48.24446428571429,72.09275054931642L48.442187499999996,72.50040817260744L48.63991071428571,72.70630009969076L48.83763392857143,72.67099984486899L49.03535714285714,72.77740764617921L49.23308035714285,72.69942887624106L49.62852678571429,98.42622486750287L50.02397321428572,84.78339322408041L50.221696428571434,83.1351563135783L50.41941964285714,83.18056233723959L50.814866071428575,83.79862276713055L51.012589285714284,83.59685707092287L51.2103125,84.23359044392905L51.40803571428572,85.59524663289389L51.605758928571426,86.27990372975668L51.80348214285714,86.65362485249838L52.00120535714286,87.23313299814862L52.198928571428574,87.47182496388754L52.39665178571428,87.03225898742677L52.594375,86.87481530507407L52.792098214285716,86.56067975362143L53.18754464285714,86.66546154022218L53.38526785714286,86.26845169067384L53.582991071428566,86.30744107564291L53.78071428571428,86.33789825439455L53.9784375,86.53275775909425L54.37388392857143,86.44921906789145L54.57160714285715,86.85154406229657L54.76933035714286,86.88628482818605L54.96705357142857,86.99680137634279L55.16477678571429,87.12030855814618L55.56022321428571,87.14754867553712L55.75794642857143,87.38576857248944L55.955669642857146,87.44009145100912L56.153392857142855,87.14639472961427L56.35111607142857,87.1768519083659L56.54883928571429,87.2112954457601L56.746562499999996,87.29602305094403L57.339732142857144,87.2013994852702L57.53745535714285,86.85154406229657L57.73517857142857,86.75314394632977L57.932901785714286,86.56763839721681L58.130624999999995,86.59645207722983L58.526071428571434,86.40369065602621L58.92151785714286,86.78279685974123L59.119241071428576,87.12810643513998L59.316964285714285,87.17339007059735L59.5146875,116.59824180603027L59.91013392857143,95.89539416631064L60.10785714285714,99.17058118184408L60.30558035714286,98.54612159729005L60.503303571428575,97.27501519521078L60.701026785714284,98.67249615987143L60.89875,97.60458040237428L61.096473214285716,95.58448441823325L61.294196428571425,96.0184292793274L61.49191964285714,96.05011034011842L61.68964285714286,96.43870162963869L62.08508928571428,96.30267588297528L62.2828125,96.69446674982709L62.48053571428571,96.17843437194826L62.678258928571424,96.18962415059408L63.07370535714286,95.55999803543092L63.27142857142857,95.67716725667319L63.46915178571429,95.93461084365846L63.666875000000005,95.03914006551108L63.864598214285714,95.19876925150555L64.06232142857142,95.65247106552125L64.26004464285714,95.99779812494916L64.45776785714285,95.96013752619427L64.65549107142857,95.57037480672201L65.24866071428572,95.08999236424765L65.44638392857144,94.99160973231L65.64410714285715,95.11701393127443L65.84183035714285,95.37617969512941L66.03955357142857,95.63087828954062L66.23727678571429,95.74666627248129L66.435,95.61962731679282L66.63272321428572,95.47763077418011L66.83044642857143,95.09430217742921L67.02816964285714,95.20267693201703L67.22589285714285,95.63033628463747L67.62133928571428,95.63718128204347L67.8190625,95.77545372645062L68.21450892857143,96.16240151723227L68.41223214285714,96.26338052749635L68.60995535714285,96.35577487945558L68.80767857142857,96.26370398203534L69.00540178571428,96.20099751154584L69.203125,96.20883909861249L69.79629464285715,107.31459824244183L69.99401785714285,105.71810531616211L70.19174107142857,104.6080443064372L70.38946428571428,106.2375208536784L70.78491071428572,109.80814425150555L70.98263392857143,108.62425692876181L71.18035714285713,107.29755131403607L71.37808035714285,106.38030417760214L71.77352678571428,105.390349706014L71.97125,105.42053588231406L72.36669642857143,103.91937462488812L72.76214285714285,103.67785898844403L72.95986607142856,103.48292954762778L73.3553125,103.28502782185873L73.55303571428573,103.30805428822836L73.94848214285715,102.61806456247967L74.14620535714286,102.55082972844443L74.34392857142858,102.75853999455771L74.5416517857143,103.08855104446411L74.93709821428573,102.41173553466797L75.13482142857143,102.44817225138348L75.33254464285714,102.2535400390625L75.53026785714286,102.48793967564902L75.72799107142858,102.29724136988324L75.92571428571429,102.92493549982709L76.12343750000001,102.91455872853598L76.32116071428571,103.15513022740683L76.51888392857143,103.35332043965658L76.71660714285714,103.57321707407635L76.91433035714286,103.8920470873515L77.11205357142858,103.7543166478475L77.30977678571429,103.78065633773804L77.50750000000001,103.90755542119345L78.29839285714286,104.36149326960248L78.49611607142857,104.5366570154826L78.69383928571429,104.59502744674683L78.89156249999999,104.40105962753296L79.08928571428571,104.39567454655966L79.28700892857142,121.16124121348064L79.48473214285714,110.86773761113486L79.88017857142857,113.81657648086548L80.07790178571429,114.88029607137045L80.27562499999999,112.86703634262085L80.4733482142857,113.15935182571411L80.67107142857142,111.63728841145834L80.86879464285714,111.36642583211264L81.06651785714286,111.67895285288495L81.46196428571427,112.22017097473145L81.65968749999999,111.96596193313599L81.8574107142857,111.92742713292441L82.05513392857142,111.45233360926312L82.25285714285715,110.92804002761841L82.45058035714287,111.19723288218182L82.84602678571429,111.40629816055298L83.04375,111.37960879007977L83.24147321428572,111.0086414019267L83.43919642857144,110.80097484588623L83.63691964285715,111.11095794041952L84.03236607142857,111.04258664449057L84.23008928571429,110.8186337153117L84.62553571428572,110.97630469004315L85.02098214285715,110.68840392430624L85.21870535714287,110.89178689320883L85.41642857142857,110.86374251047772L85.61415178571428,111.1095854441325L85.811875,111.2952920595805L86.00959821428572,111.42172781626385L86.40504464285715,111.11513662338257L86.60276785714285,110.80723412831625L86.80049107142857,110.96645243962607L87.1959375,111.07755470275879L87.39366071428572,111.1125577290853L87.59138392857143,110.92218287785849L87.78910714285713,110.69909540812176L87.98683035714285,110.6681137084961L88.18455357142857,110.8006426493327L88.38227678571428,110.69172588984173L88.58,110.89753039677939L88.77772321428571,110.90248711903891L88.97544642857143,110.89408604303998L89.17316964285713,124.58419450124106L89.56861607142856,113.30065774917603L89.76633928571428,117.34131304423016L89.9640625,117.26788012186688L90.16178571428571,116.31773678461713L90.55723214285713,118.20627419153851L90.75495535714285,118.9196662902832L91.1504017857143,118.24688959121704L91.34812500000001,118.2167296409607L91.54584821428573,119.23391548792523L91.74357142857143,118.32837390899658L91.94129464285714,117.7348435719808L92.13901785714286,117.74284251530966L92.33674107142858,118.2113183339437L92.5344642857143,117.83489592870077L92.73218750000001,117.4003216425578L92.92991071428571,117.02794679005942L93.72080357142858,117.68878189722699L93.91852678571429,117.51311985651654L94.11625000000001,117.30210510889691L94.51169642857143,116.92889976501465L94.70941964285714,116.71373256047568L95.30258928571429,116.53535175323486L95.50031249999999,116.66933186848959L95.89575892857142,116.76980384190878L96.09348214285714,116.7746032079061L96.29120535714286,116.83639176686606L96.88437499999999,116.82743120193481L97.08209821428571,117.01030540466309L97.27982142857142,117.0173602104187L97.47754464285714,116.88991038004559L97.67526785714286,116.979655901591L97.87299107142857,117.19448216756186L98.07071428571427,117.06135876973471L98.26843749999999,117.3331305185954L98.4661607142857,117.53441540400189L98.66388392857142,117.34993267059326L98.86160714285714,117.4738507270813L99.05933035714285,115.27705240249634L99.25705357142859,123.14212926228842L99.45477678571427,123.00020265579224L99.6525,124.08863592147827L99.85022321428572,122.91342067718506L100.04794642857144,121.23045174280803L100.24566964285715,124.16349379221599L100.44339285714287,124.85262680053711L100.64111607142857,124.45800352096558L100.83883928571429,124.85826539993286L101.0365625,125.40916967391968L101.43200892857143,125.17247088750204L101.62973214285715,124.40273650487265L101.82745535714287,123.90910991032919L102.02517857142857,123.68061113357544L102.61834821428572,122.7253712018331L102.81607142857143,123.36762952804565L103.01379464285715,123.58617115020752L103.21151785714285,123.7772715886434L103.40924107142857,123.79785029093425L103.60696428571428,123.7324250539144L103.8046875,123.6617021560669L104.00241071428572,123.51570177078247L104.20013392857143,123.28140703837077L104.39785714285715,123.2892835934957L104.79330357142857,123.17882823944092L104.99102678571428,123.12327273686728L105.18875,123.52915573120117L105.78191964285713,123.82724968592326L105.97964285714285,123.75841506322226L106.17736607142857,123.31851689020793L106.37508928571428,123.2014438311259L106.5728125,123.0917402903239L106.77053571428571,123.14969110488892L106.96825892857143,122.95935122172038L107.16598214285713,122.94150876998901L107.56142857142856,123.11162837346396L107.75915178571428,123.21794875462851L107.956875,122.82727686564128L108.15459821428573,122.63940223058066L108.94549107142858,161.1925868988037L109.1432142857143,131.44760258992514L109.34093750000001,133.19100507100424L109.53866071428573,129.07842048009238L109.73638392857143,130.0693365732829L109.93410714285714,129.61537249883017L110.13183035714286,130.4633304278056L110.52727678571429,130.033371925354L110.92272321428571,130.78444210688275L111.12044642857143,129.87501907348633L111.31816964285714,130.46244748433432L111.51589285714286,130.41503953933716L111.71361607142858,130.22914934158325L111.91133928571429,130.08650588989258L112.10906250000001,129.9137724240621L112.50450892857143,129.2661377588908L112.70223214285714,129.02889696757L112.89995535714286,129.18903319040936L113.09767857142857,129.0931420326233L113.49312499999999,129.0823631286621L113.69084821428571,129.02158864339194L113.88857142857142,128.8463986714681L114.48174107142857,128.6683937708537L114.67946428571429,128.27976751327515L114.87718749999999,128.03445784250897L115.0749107142857,127.98805522918701L115.27263392857142,128.10950803756714L115.47035714285714,128.08318583170575L115.66808035714286,128.13036648432416L116.06352678571427,128.4312841097514L116.26124999999999,128.24514039357504L116.4589732142857,128.15903155008954L116.65669642857142,128.03772735595703L116.85441964285715,128.30869483947754L117.05214285714287,128.321528116862L117.6453125,127.85167105992636L117.84303571428572,127.83986059824626L118.23848214285715,127.7907304763794L118.43620535714287,127.49098428090414L118.63392857142857,127.41738526026408L119.029375,137.66094573338827L119.22709821428572,136.20408900578818L119.42482142857143,136.27227671941122L120.01799107142857,142.8994318644206L120.21571428571428,142.10890022913617L120.4134375,143.56754032770795L120.61116071428572,144.27918402353924L120.80888392857143,143.9090820948283L121.00660714285715,143.6727417310079L121.20433035714285,143.63201268513998L121.40205357142857,144.1156209309896L121.59977678571428,143.85060675938925L121.99522321428572,144.64868275324505L122.19294642857143,144.85398896535239L122.39066964285713,144.98895692825317L122.58839285714285,145.22340027491254L122.78611607142857,145.22700198491415L122.98383928571428,145.12144215901694L123.37928571428571,145.34304348627728L123.97245535714285,145.02800750732422L124.17017857142856,145.15001106262207L124.76334821428571,145.3275963465373L124.96107142857142,145.32966820398968L125.15879464285713,145.40308364232382L125.35651785714285,145.61934359868368L125.55424107142858,145.57005612055463L125.7519642857143,145.63926664988202L125.94968750000001,145.66210079193115L126.14741071428573,145.50271638234457L126.34513392857143,145.6468022664388L126.54285714285714,145.75404930114746L126.74058035714286,145.89455970128378L126.93830357142858,145.69169251124066L127.1360267857143,145.6421078046163L127.33375000000001,145.82249053319296L127.53147321428571,146.12631050745648L127.92691964285714,146.1336013476054L128.12464285714285,146.12043587366742L128.32236607142858,146.3167028427124L128.7178125,146.39731295903525L129.1132589285714,144.58532937367758L129.31098214285714,146.7932562828064L129.50870535714284,148.63148339589438L129.70642857142857,149.39684677124023L129.9041517857143,149.0966197649638L130.2995982142857,149.1366057395935L130.49732142857144,149.2055802345276L130.69504464285714,148.8937438329061L130.89276785714287,149.26696666081747L131.09049107142857,149.111962000529L131.2882142857143,149.4161491394043L131.4859375,149.63535515467328L131.88138392857144,149.59814914067587L132.07910714285714,149.06854915618896L132.27683035714287,149.4172418912252L132.47455357142857,149.32305542627972L132.67227678571427,148.996523698171L132.87,148.74210484822592L133.0677232142857,148.8280913035075L133.26544642857144,148.8466680844625L133.66089285714287,148.82927147547406L133.85861607142857,148.88611205418906L134.05633928571427,148.57631254196167L134.64950892857144,148.69164594014487L135.44040178571427,149.3144357999166L135.638125,149.56932671864828L135.8358482142857,149.669282913208L136.23129464285714,149.54866933822632L136.42901785714287,149.4713462193807L136.62674107142857,149.3516155878703L136.82446428571427,149.48662726084393L137.0221875,149.61476771036786L137.2199107142857,149.55283053716025L137.41763392857143,149.45907243092856L137.61535714285714,149.65394067764282L137.81308035714284,149.84761126836142L138.01080357142857,149.9023100535075L138.20852678571427,150.00175046920776L138.40625,150.01276540756226L138.80169642857143,141.44731330871582L138.99941964285713,147.050935904185L139.19714285714286,149.9913911819458L139.39486607142857,151.4279227256775L139.5925892857143,150.7669390042623L139.7903125,151.66603771845502L139.9880357142857,151.16812753677368L140.18575892857143,150.9927452405294L140.38348214285713,150.94917503992718L140.58120535714286,151.99722894032797L140.97665178571427,152.62998469670615L141.174375,151.82455666859946L141.3720982142857,151.92688194910687L141.56982142857143,152.3728295962016L141.76754464285713,152.3949906031291L141.96526785714286,152.66129859288534L142.16299107142856,152.60795481999716L142.36071428571427,152.80239470799765L142.5584375,152.72743193308514L142.7561607142857,152.6265490849813L142.95388392857143,152.18407201766968L143.15160714285713,152.16179736455283L143.54705357142856,151.8658364613851L143.74477678571427,151.5132098197937L143.9425,151.79826068878174L144.1402232142857,151.9072036743164L144.33794642857143,151.90018383661908L144.93111607142856,152.06770706176758L145.12883928571426,152.01952981948853L145.3265625,151.84287993113202L145.5242857142857,151.91248385111493L145.72200892857143,152.12251075108847L145.91973214285713,152.06692902247113L146.31517857142856,152.20661767323813L146.51290178571426,152.33008988698325L146.710625,152.33443466822308L146.9083482142857,152.4255002339681L147.10607142857145,152.2494797706604L147.30379464285716,152.19506947199505L147.50151785714283,152.18305794397992L148.09468750000002,152.21338399251303L148.29241071428572,152.28430795669556L148.68785714285715,143.69770018259686L148.88558035714286,154.12889051437378L149.0833035714286,153.37944634755453L149.2810267857143,155.09936777750653L149.47875000000002,154.74819231033325L150.07191964285715,153.40520032246908L150.26964285714286,154.27897342046103L150.4673660714286,154.57313346862793L150.6650892857143,154.89136028289795L151.06053571428572,155.72909879684448L151.45598214285715,155.40472634633383L151.85142857142858,154.92926565806073L152.24687500000002,154.83185338974L152.44459821428572,154.4271942774455L152.64232142857142,154.29442930221558L152.84004464285715,154.76040490468344L153.03776785714285,154.84306939442953L153.43321428571429,155.23861932754517L153.63093750000002,154.94820086161297L153.82866071428572,154.89320484797162L154.02638392857142,154.95414543151855L154.22410714285715,154.6433580716451L154.42183035714285,154.32793744405112L154.81727678571428,154.54198567072552L155.01500000000001,154.26334269841513L155.21272321428572,154.39428933461508L155.41044642857142,154.6117819150289L155.80589285714285,154.35233640670776L156.00361607142858,154.06843074162802L156.20133928571428,154.0018515586853L156.39906249999999,153.97113211949667L156.79450892857142,154.09859069188437L156.99223214285715,154.2235403060913L157.18995535714285,154.07953310012817L157.38767857142858,154.19956096013388L157.58540178571428,154.10331137975058L157.78312499999998,154.33175770441693L157.98084821428571,154.28671884536743L158.17857142857142,154.35141849517822L158.37629464285715,154.14156643549603L158.77174107142858,150.05891450246176L158.96946428571428,148.3536359469096L159.3649107142857,155.01176404953003L159.56263392857142,154.25111262003583L159.76035714285715,156.0358386039734L159.95808035714285,157.06400442123413L160.15580357142858,156.4995237986247L160.35352678571428,156.51622978846234L160.55124999999998,155.54595359166464L160.7489732142857,155.72867918014526L160.9466964285714,155.7768127123515L161.34214285714285,155.95987049738568L161.53986607142855,156.2625190416972L161.73758928571428,155.45962619781494L161.93531249999998,155.50706911087036L162.1330357142857,154.96946144104004L162.3307589285714,155.54340092341107L162.52848214285714,155.17737277348837L162.72620535714285,155.23344405492148L162.92392857142855,155.23642508188885L163.12165178571428,155.41472721099854L163.31937499999998,155.2386368115743L163.5170982142857,155.20212141672772L163.7148214285714,155.23307689030966L163.91254464285717,155.29307333628338L164.11026785714284,155.2789986928304L164.30799107142855,154.94605032602948L164.5057142857143,155.05664555231732L164.7034375,155.352667649587L164.90116071428574,155.27166414260864L165.09888392857144,155.2484103838603L165.29660714285717,155.34843651453656L165.49433035714287,155.353576819102L165.8897767857143,155.35291242599487L166.0875,155.23751783370972L166.28522321428574,155.22703615824383L166.68066964285714,155.20258474349976L166.87839285714287,155.34198490778607L167.07611607142857,155.32757806777954L167.2738392857143,155.37881501515707L167.4715625,155.4682370821635L168.46017857142857,165.48985528945923L168.6579017857143,152.72163597742718L168.855625,153.92605829238892L169.25107142857144,155.5382169087728L169.44879464285714,153.6167483329773L169.64651785714287,156.4379537900289L169.84424107142857,156.79628896713257L170.0419642857143,157.40980354944867L170.43741071428573,157.66875076293945L170.63513392857143,158.01222451527914L170.83285714285714,157.75067218144736L171.03058035714287,157.31336164474487L171.22830357142857,157.0310033162435L171.4260267857143,156.82144848505658L171.62375,156.6450258890788L171.8214732142857,156.89756520589194L172.01919642857143,156.62993717193604L172.21691964285714,156.45183610916138L172.41464285714287,156.66210778554282L172.61236607142857,157.06716903050742L172.8100892857143,157.1821789741516L173.2055357142857,157.76536750793457L173.40325892857143,157.7546935081482L173.60098214285713,157.82330083847046L173.79870535714286,157.7446664174398L173.99642857142857,157.37782526016235L174.1941517857143,157.1002138455709L174.391875,157.201131661733L174.5895982142857,157.32210365931195L174.78732142857143,157.3410650889079L175.38049107142857,157.15689706802368L175.57821428571427,157.34640645980835L175.7759375,157.61785475413006L175.9736607142857,157.31400855382284L176.17138392857143,157.34682607650757L176.36910714285713,157.09377972284955L176.76455357142856,157.02719179789227L176.96227678571427,156.80792458852133L177.16,156.70479504267377L177.3577232142857,156.59873692194623L177.55544642857143,156.80963802337646L177.75316964285713,156.68654171625775L177.95089285714286,156.71305624643963L178.14861607142856,156.62220923105878L178.5440625,161.06416670481366L178.7417857142857,161.82066130638123L178.93950892857143,157.61307287216187L179.13723214285713,156.3307417233785L179.33495535714286,157.95619694391888L179.53267857142856,157.51185782750449L179.73040178571426,158.54425477981567L179.928125,158.74408849080405L180.1258482142857,158.41617552439374L180.32357142857143,158.17611106236777L180.71901785714283,158.49856901168823L180.91674107142856,158.88417053222656L181.11446428571426,158.99864721298218L181.5099107142857,159.38418753941855L181.70763392857145,160.05066124598187L181.90535714285716,159.6673239072164L182.10308035714283,159.45764668782553L182.3008035714286,159.37813806533813L182.4985267857143,159.76316261291504L182.69625000000002,159.626079082489L182.89397321428572,159.36134465535483L183.09169642857145,158.84980567296347L183.28941964285715,158.89407523473105L183.48714285714286,158.75563669204712L183.6848660714286,158.99675019582114L183.8825892857143,158.95144907633465L184.08031250000002,158.89218695958456L184.47575892857145,158.6277847290039L184.67348214285715,158.52344004313153L184.87120535714286,158.45219262441L185.0689285714286,158.16519228617352L185.2666517857143,157.9382495880127L185.46437500000002,157.87213373184204L185.85982142857142,157.94158903757733L186.05754464285715,158.08937279383343L186.45299107142858,158.33965667088827L186.6507142857143,158.5138413111369L187.04616071428572,158.4127049446106L187.44160714285715,158.34908930460614L188.03477678571429,158.1030977567037L188.23250000000002,152.63128725687665L188.82566964285715,161.08260361353558L189.02339285714285,160.5455641746521L189.22111607142858,162.22919750213623L189.41883928571428,160.37590789794922L189.61656250000001,160.21915483474731L190.01200892857142,159.96007649103802L190.20973214285715,159.55641396840414L190.40745535714285,159.83107932408652L191.00062499999999,160.09561268488568L191.19834821428572,159.55135234196982L191.59379464285715,159.16981585820517L191.79151785714285,159.55050436655682L191.98924107142858,159.65563583374023L192.18696428571428,159.72977685928345L192.38468749999998,159.6863989830017L192.58241071428571,159.60404046376547L192.78013392857142,159.36075019836426L193.17558035714285,159.3653047879537L193.37330357142858,159.547593275706L193.57102678571428,159.3617555300395L193.9664732142857,159.6168475151062L194.16419642857142,159.25028610229492L194.36191964285715,159.4031489690145L194.55964285714285,159.51430368423462L194.75736607142858,159.36372248331708L194.95508928571428,159.31870985031128L195.15281249999998,159.61490678787231L195.3505357142857,159.53914848963421L195.5482589285714,159.25381787618002L195.74598214285714,159.21469736099243L195.94370535714285,159.17817322413129L196.33915178571428,159.0803500811259L196.53687499999998,158.90296586354575L196.9323214285714,158.9163498878479L197.32776785714285,158.88372468948364L197.52549107142855,159.01080735524496L198.1186607142857,77.93416468302411L198.3163839285714,146.34477345148724L198.71183035714284,152.70238606135052L198.90955357142855,153.23065725962323L199.1072767857143,154.63211584091187L199.305,154.56193494796753L199.50272321428574,155.27893749872845L199.89816964285717,155.68718957901L200.09589285714287,155.66385714213055L200.4913392857143,155.75479157765707L200.6890625,157.0490206082662L201.08450892857144,157.08873558044434L201.28223214285714,157.61239973704022L201.47995535714287,158.1871697107951L201.67767857142857,158.37052472432455L201.8754017857143,158.37286758422852L202.073125,158.39109468460083L202.27084821428573,158.55354754130047L202.46857142857144,158.45818090438843L202.66629464285714,158.45956214269003L203.06174107142857,158.85296154022217L203.2594642857143,159.30574544270834L203.4571875,159.20051781336468L203.65491071428573,159.18577877680463L203.85263392857144,159.31531794865927L204.05035714285714,159.460706392924L204.24808035714287,159.63010040918988L204.44580357142857,159.55582825342816L204.6435267857143,159.57242059707642L204.84125,159.55996322631836L205.23669642857143,159.78248246510825L205.63214285714287,159.67376677195233L205.82986607142857,159.6091545422872L206.0275892857143,159.6987689336141L206.2253125,159.66528701782227L206.4230357142857,159.45300467809042L206.62075892857143,159.38086557388306L206.81848214285714,159.2915047009786L207.01620535714287,159.37631098429364L207.21392857142857,159.4734697341919L207.4116517857143,159.52878046035767L207.609375,159.51339451471966L207.8070982142857,159.52239004770917L208.20254464285713,160.95756657918295L208.59799107142857,157.66230789820355L208.7957142857143,158.05609194437665L208.9934375,157.7952914237976L209.1911607142857,157.07209078470868L209.58660714285713,157.60675239562988L209.78433035714286,158.22762775421143L209.98205357142857,157.90713675816855L210.17977678571427,157.47713454564413L210.3775,157.0029327074687L210.5752232142857,156.97114674250287L210.77294642857143,156.94188721974692L211.16839285714286,156.56688976287842L211.36611607142856,156.37050914764404L211.9592857142857,157.11539872487387L212.15700892857143,157.47049935658774L212.75017857142856,157.42938566207886L212.94790178571427,157.3119978904724L213.145625,157.6117703119914L213.3433482142857,157.53413248062134L213.54107142857143,157.44265604019165L213.73879464285713,157.51194524765015L213.93651785714286,157.33953523635864L214.13424107142856,157.3570892016093L214.33196428571426,157.42337115605673L214.92513392857143,157.33412392934164L215.12285714285713,157.41793362299603L215.32058035714283,157.57082271575928L215.51830357142856,157.40680503845215L215.71602678571426,157.32077487309775L216.1114732142857,157.2801856994629L216.30919642857145,157.3848713239034L216.50691964285716,157.35281435648602L216.70464285714283,157.29062366485596L216.9023660714286,157.51391220092773L217.29781250000002,157.4203813870748L217.49553571428572,157.38286066055298L217.69325892857145,157.0839449564616L217.89098214285715,157.16730880737305L218.08870535714286,173.5639449755351L218.2864285714286,161.63502899805707L218.4841517857143,160.23314205805463L218.68187500000002,160.42529153823853L218.87959821428572,159.8484409650167L219.07732142857145,160.41001923878989L219.47276785714286,159.7111913363139L219.8682142857143,159.05929931004843L220.26366071428572,157.50134118398032L220.46138392857142,157.3678418795268L220.65910714285715,158.01357078552246L220.85683035714285,158.07813930511475L221.05455357142858,157.85023498535156L221.64772321428572,157.85738595326742L222.04316964285715,157.35838301976523L222.24089285714285,157.1260552406311L222.63633928571429,157.43579355875653L222.83406250000002,157.36709006627402L223.03178571428572,157.71858898798627L223.22950892857142,157.64166800181073L223.42723214285715,157.5167358716329L223.82267857142858,157.60892041524252L224.61357142857142,157.70625400543213L224.81129464285715,157.84793583552045L225.00901785714285,157.79809761047363L225.20674107142858,157.62639570236206L225.40446428571428,157.69136635462445L226.19535714285715,157.6583127975464L226.39308035714285,157.4953441619873L226.59080357142858,157.70432202021283L226.78852678571428,157.80822086334229L227.18397321428571,157.62244431177777L227.38169642857142,157.69391902287802L227.57941964285715,157.79185581207275L227.97486607142858,158.23351113001507L228.17258928571428,160.29071696599325L228.37031249999998,152.41980918248495L228.76575892857142,155.48369296391806L229.16120535714285,154.60543521245322L229.35892857142858,155.15421517690024L229.55665178571428,156.3822496732076L229.9520982142857,155.88468917210898L230.1498214285714,155.67637570699057L230.34754464285714,156.4458915392558L230.54526785714285,156.95020961761475L230.74299107142855,156.99665594100952L230.94071428571428,157.53658024470013L231.13843749999998,157.05548095703125L231.3361607142857,157.0186683336894L231.5338839285714,156.7908426920573L231.73160714285714,156.71352831522626L231.92933035714285,156.57841173807782L232.12705357142855,156.7714966138204L232.32477678571428,156.99670839309692L232.7202232142857,157.68119939168295L232.9179464285714,157.7459864616394L233.11566964285717,157.66528018315634L233.51111607142855,157.95042721430463L233.7088392857143,157.81261809666952L233.9065625,157.88682905832928L234.10428571428574,157.92086172103882L234.49973214285717,157.84832922617596L234.69745535714287,157.8537055651347L234.89517857142857,157.7160538037618L235.0929017857143,157.76544618606567L235.68607142857144,157.76451079050702L235.88379464285714,157.6852469444275L236.08151785714287,157.55459753672284L236.27924107142857,157.57229137420654L237.07013392857144,157.73851203918457L237.46558035714287,157.75657304128012L237.66330357142857,157.7449549039205L237.8610267857143,156.49887688954672L238.05875,159.53030157089233L238.25647321428573,155.82521724700928L238.45419642857144,152.88453467686972L238.65191964285714,152.53373511632284L238.84964285714287,153.7960645357768L239.04736607142857,153.72168747584027L239.2450892857143,154.42777125040692L239.4428125,155.35929409662884L239.64053571428573,155.49959468841553L239.83825892857143,155.72483269373578L240.03598214285714,155.89147297541302L240.23370535714287,155.54844506581625L240.6291517857143,156.32752466201782L240.826875,156.82647514343262L241.0245982142857,156.79774888356528L241.22232142857143,156.80212863286337L241.42004464285714,156.65062952041626L241.61776785714287,156.2759467760722L241.81549107142857,156.41543436050415L242.4086607142857,156.58845631281537L242.60638392857143,156.64884614944458L243.00183035714286,156.77220471700033L243.19955357142857,156.68564128875732L243.3972767857143,157.15561199188232L243.595,157.2232402165731L243.7927232142857,157.01362419128418L243.99044642857143,157.08979336420697L244.18816964285713,157.04024362564087L244.38589285714286,157.4309417406718L244.58361607142857,157.35797214508057L244.78133928571427,157.2175579071045L245.1767857142857,157.2872492472331L245.37450892857143,157.4437925020854L245.76995535714286,157.31014458338421L245.96767857142856,157.43594217300415L246.363125,157.3860952059428L246.5608482142857,157.52986637751263L246.75857142857143,157.62115049362183L246.95629464285713,157.88207340240479L247.15401785714286,158.081688563029L247.35174107142856,158.10036150614422L247.54946428571427,158.08639176686606L247.7471875,146.1576681137085L247.9449107142857,157.30350065231323L248.34035714285713,157.75127538045248L248.53808035714286,157.3052053451538L248.73580357142856,158.30818541844687L249.13125,158.43450752894086L249.3289732142857,157.90296681722006L249.52669642857143,157.46388165156048L249.72441964285713,156.87704769770306L249.92214285714283,156.5161336263021L250.11986607142856,156.446896870931L250.31758928571426,156.36146990458172L250.5153125,156.5249718030294L250.7130357142857,156.59363158543906L250.91075892857145,156.6160373687744L251.7016517857143,157.14307594299316L251.89937500000002,157.19121821721396L252.09709821428572,157.08653259277344L252.49254464285715,157.41422700881958L252.69026785714286,157.2803692817688L252.8879910714286,157.25519227981567L253.0857142857143,157.37721331914267L253.28343750000002,157.54225381215414L253.48116071428572,157.57475662231445L253.67888392857145,157.78939930597943L254.07433035714286,157.6823008855184L254.2720535714286,157.85260407129925L254.4697767857143,157.94919459025067L254.86522321428572,158.02788146336874L255.06294642857142,157.93525981903076L255.26066964285715,157.8749836285909L255.45839285714285,157.9604892730713L255.8538392857143,158.0179942448934L256.0515625,158.13269821802777L256.2492857142857,158.15457073847455L256.4470089285714,157.98173236846924L256.64473214285715,158.17890850702923L256.84245535714285,158.30273040135702L257.435625,158.34449974695843L257.6333482142857,143.54827292760214L258.2265178571428,158.48347155253094L258.4242410714286,156.55389912923178L258.6219642857143,158.6792751948039L259.0174107142857,157.70543225606283L259.2151339285714,158.791277885437L259.41285714285715,157.27332321802777L259.8083035714286,157.27549997965497L260.0060267857143,157.22477006912231L260.20375,157.71347490946454L260.5991964285714,157.0790843963623L260.7969196428572,157.10378058751425L260.9946428571429,156.8176719347636L261.1923660714286,157.12631750106812L261.3900892857143,157.66079552968344L261.5878125,157.8970135052999L261.78553571428574,157.9842675526937L262.18098214285715,157.79567607243857L262.7741517857143,158.02520640691122L262.971875,157.6226191520691L263.5650446428572,157.58095471064252L263.7627678571429,157.6585750579834L263.9604910714286,157.39126173655194L264.1582142857143,157.5302947362264L264.3559375,157.7193233172099L264.75138392857144,158.11025746663412L264.94910714285714,158.17659187316895L265.14683035714285,158.01303752263388L265.34455357142855,158.07535060246786L265.5422767857143,158.20690043767294L265.74,158.1989277203878L265.9377232142857,158.18180211385092L266.1354464285714,158.1992162068685L266.3331696428572,158.26042779286703L266.5308928571429,158.24248917897543L266.7286160714286,158.27777194976807L266.9263392857143,158.39806207021078L267.1240625,158.3808053334554L267.32178571428574,158.32358010609946" style="fill: none;" fill="none"></path></g></g></g></g></g></g><g transform="translate(53, 176)" clip-path="url(#clip_1)"><clipPath id="clip_1"><rect width="276" height="24"></rect></clipPath><g><g><line x1="0" y1="0" x2="0" y2="5" style="visibility: inherit;" fill="rgb(0, 0, 0)" stroke="rgb(204, 204, 204)" stroke-width="1px"></line><line x1="19.772321428571427" y1="0" x2="19.772321428571427" y2="5" style="visibility: inherit;" fill="rgb(0, 0, 0)" stroke="rgb(204, 204, 204)" stroke-width="1px"></line><line x1="39.544642857142854" y1="0" x2="39.544642857142854" y2="5" style="visibility: inherit;" fill="rgb(0, 0, 0)" stroke="rgb(204, 204, 204)" stroke-width="1px"></line><line x1="59.316964285714285" y1="0" x2="59.316964285714285" y2="5" style="visibility: inherit;" fill="rgb(0, 0, 0)" stroke="rgb(204, 204, 204)" stroke-width="1px"></line><line x1="79.08928571428571" y1="0" x2="79.08928571428571" y2="5" style="visibility: inherit;" fill="rgb(0, 0, 0)" stroke="rgb(204, 204, 204)" stroke-width="1px"></line><line x1="98.86160714285714" y1="0" x2="98.86160714285714" y2="5" style="visibility: inherit;" fill="rgb(0, 0, 0)" stroke="rgb(204, 204, 204)" stroke-width="1px"></line><line x1="118.63392857142857" y1="0" x2="118.63392857142857" y2="5" style="visibility: inherit;" fill="rgb(0, 0, 0)" stroke="rgb(204, 204, 204)" stroke-width="1px"></line><line x1="138.40625" y1="0" x2="138.40625" y2="5" style="visibility: inherit;" fill="rgb(0, 0, 0)" stroke="rgb(204, 204, 204)" stroke-width="1px"></line><line x1="158.17857142857142" y1="0" x2="158.17857142857142" y2="5" style="visibility: inherit;" fill="rgb(0, 0, 0)" stroke="rgb(204, 204, 204)" stroke-width="1px"></line><line x1="177.95089285714286" y1="0" x2="177.95089285714286" y2="5" style="visibility: inherit;" fill="rgb(0, 0, 0)" stroke="rgb(204, 204, 204)" stroke-width="1px"></line><line x1="197.72321428571428" y1="0" x2="197.72321428571428" y2="5" style="visibility: inherit;" fill="rgb(0, 0, 0)" stroke="rgb(204, 204, 204)" stroke-width="1px"></line><line x1="217.49553571428572" y1="0" x2="217.49553571428572" y2="5" style="visibility: inherit;" fill="rgb(0, 0, 0)" stroke="rgb(204, 204, 204)" stroke-width="1px"></line><line x1="237.26785714285714" y1="0" x2="237.26785714285714" y2="5" style="visibility: inherit;" fill="rgb(0, 0, 0)" stroke="rgb(204, 204, 204)" stroke-width="1px"></line><line x1="257.04017857142856" y1="0" x2="257.04017857142856" y2="5" style="visibility: inherit;" fill="rgb(0, 0, 0)" stroke="rgb(204, 204, 204)" stroke-width="1px"></line><line x1="276.8125" y1="0" x2="276.8125" y2="5" style="visibility: inherit;" fill="rgb(0, 0, 0)" stroke="rgb(204, 204, 204)" stroke-width="1px"></line></g><g transform="translate(0, 8)"><text x="0" y="0" dx="0em" dy="0.95em" style="text-anchor: middle; visibility: hidden; font-family: Roboto, sans-serif; font-size: 12px; font-weight: 200;" fill="rgb(33, 33, 33)" stroke="none" stroke-width="1px">-10k</text><text x="19.772321428571427" y="0" dx="0em" dy="0.95em" style="text-anchor: middle; visibility: inherit; font-family: Roboto, sans-serif; font-size: 12px; font-weight: 200;" fill="rgb(33, 33, 33)" stroke="none" stroke-width="1px">0</text><text x="39.544642857142854" y="0" dx="0em" dy="0.95em" style="text-anchor: middle; visibility: hidden; font-family: Roboto, sans-serif; font-size: 12px; font-weight: 200;" fill="rgb(33, 33, 33)" stroke="none" stroke-width="1px">10k</text><text x="59.316964285714285" y="0" dx="0em" dy="0.95em" style="text-anchor: middle; visibility: inherit; font-family: Roboto, sans-serif; font-size: 12px; font-weight: 200;" fill="rgb(33, 33, 33)" stroke="none" stroke-width="1px">20k</text><text x="79.08928571428571" y="0" dx="0em" dy="0.95em" style="text-anchor: middle; visibility: hidden; font-family: Roboto, sans-serif; font-size: 12px; font-weight: 200;" fill="rgb(33, 33, 33)" stroke="none" stroke-width="1px">30k</text><text x="98.86160714285714" y="0" dx="0em" dy="0.95em" style="text-anchor: middle; visibility: inherit; font-family: Roboto, sans-serif; font-size: 12px; font-weight: 200;" fill="rgb(33, 33, 33)" stroke="none" stroke-width="1px">40k</text><text x="118.63392857142857" y="0" dx="0em" dy="0.95em" style="text-anchor: middle; visibility: hidden; font-family: Roboto, sans-serif; font-size: 12px; font-weight: 200;" fill="rgb(33, 33, 33)" stroke="none" stroke-width="1px">50k</text><text x="138.40625" y="0" dx="0em" dy="0.95em" style="text-anchor: middle; visibility: inherit; font-family: Roboto, sans-serif; font-size: 12px; font-weight: 200;" fill="rgb(33, 33, 33)" stroke="none" stroke-width="1px">60k</text><text x="158.17857142857142" y="0" dx="0em" dy="0.95em" style="text-anchor: middle; visibility: hidden; font-family: Roboto, sans-serif; font-size: 12px; font-weight: 200;" fill="rgb(33, 33, 33)" stroke="none" stroke-width="1px">70k</text><text x="177.95089285714286" y="0" dx="0em" dy="0.95em" style="text-anchor: middle; visibility: inherit; font-family: Roboto, sans-serif; font-size: 12px; font-weight: 200;" fill="rgb(33, 33, 33)" stroke="none" stroke-width="1px">80k</text><text x="197.72321428571428" y="0" dx="0em" dy="0.95em" style="text-anchor: middle; visibility: hidden; font-family: Roboto, sans-serif; font-size: 12px; font-weight: 200;" fill="rgb(33, 33, 33)" stroke="none" stroke-width="1px">90k</text><text x="217.49553571428572" y="0" dx="0em" dy="0.95em" style="text-anchor: middle; visibility: inherit; font-family: Roboto, sans-serif; font-size: 12px; font-weight: 200;" fill="rgb(33, 33, 33)" stroke="none" stroke-width="1px">100k</text><text x="237.26785714285714" y="0" dx="0em" dy="0.95em" style="text-anchor: middle; visibility: hidden; font-family: Roboto, sans-serif; font-size: 12px; font-weight: 200;" fill="rgb(33, 33, 33)" stroke="none" stroke-width="1px">110k</text><text x="257.04017857142856" y="0" dx="0em" dy="0.95em" style="text-anchor: middle; visibility: inherit; font-family: Roboto, sans-serif; font-size: 12px; font-weight: 200;" fill="rgb(33, 33, 33)" stroke="none" stroke-width="1px">120k</text><text x="276.8125" y="0" dx="0em" dy="0.95em" style="text-anchor: middle; visibility: hidden; font-family: Roboto, sans-serif; font-size: 12px; font-weight: 200;" fill="rgb(33, 33, 33)" stroke="none" stroke-width="1px">130k</text></g><line x1="0" y1="0" x2="276.8125" y2="0" fill="rgb(0, 0, 0)" stroke="rgb(204, 204, 204)" stroke-width="1px"></line></g></g></g></g></svg>