<svg viewBox="0 0 330 200" xmlns="http://www.w3.org/2000/svg"><g><g><g><g><g><line x1="42.390625" y1="176" x2="37.390625" y2="176" style="visibility: inherit;" fill="rgb(0, 0, 0)" stroke="rgb(204, 204, 204)" stroke-width="1px"></line><line x1="42.390625" y1="156.44444444444443" x2="37.390625" y2="156.44444444444443" style="visibility: inherit;" fill="rgb(0, 0, 0)" stroke="rgb(204, 204, 204)" stroke-width="1px"></line><line x1="42.390625" y1="136.88888888888889" x2="37.390625" y2="136.88888888888889" style="visibility: inherit;" fill="rgb(0, 0, 0)" stroke="rgb(204, 204, 204)" stroke-width="1px"></line><line x1="42.390625" y1="117.33333333333333" x2="37.390625" y2="117.33333333333333" style="visibility: inherit;" fill="rgb(0, 0, 0)" stroke="rgb(204, 204, 204)" stroke-width="1px"></line><line x1="42.390625" y1="97.77777777777779" x2="37.390625" y2="97.77777777777779" style="visibility: inherit;" fill="rgb(0, 0, 0)" stroke="rgb(204, 204, 204)" stroke-width="1px"></line><line x1="42.390625" y1="78.22222222222221" x2="37.390625" y2="78.22222222222221" style="visibility: inherit;" fill="rgb(0, 0, 0)" stroke="rgb(204, 204, 204)" stroke-width="1px"></line><line x1="42.390625" y1="58.66666666666667" x2="37.390625" y2="58.66666666666667" style="visibility: inherit;" fill="rgb(0, 0, 0)" stroke="rgb(204, 204, 204)" stroke-width="1px"></line><line x1="42.390625" y1="39.11111111111111" x2="37.390625" y2="39.11111111111111" style="visibility: inherit;" fill="rgb(0, 0, 0)" stroke="rgb(204, 204, 204)" stroke-width="1px"></line><line x1="42.390625" y1="19.555555555555543" x2="37.390625" y2="19.555555555555543" style="visibility: inherit;" fill="rgb(0, 0, 0)" stroke="rgb(204, 204, 204)" stroke-width="1px"></line><line x1="42.390625" y1="0" x2="37.390625" y2="0" style="visibility: inherit;" fill="rgb(0, 0, 0)" stroke="rgb(204, 204, 204)" stroke-width="1px"></line></g><g transform="translate(32.390625, 0)"><text x="0" y="176" dx="0em" dy="0.3em" style="text-anchor: end; visibility: hidden; font-family: Roboto, sans-serif; font-size: 12px; font-weight: 200;" fill="rgb(33, 33, 33)" stroke="none" stroke-width="1px">0.2</text><text x="0" y="156.44444444444443" dx="0em" dy="0.3em" style="text-anchor: end; visibility: inherit; font-family: Roboto, sans-serif; font-size: 12px; font-weight: 200;" fill="rgb(33, 33, 33)" stroke="none" stroke-width="1px">0.4</text><text x="0" y="136.88888888888889" dx="0em" dy="0.3em" style="text-anchor: end; visibility: hidden; font-family: Roboto, sans-serif; font-size: 12px; font-weight: 200;" fill="rgb(33, 33, 33)" stroke="none" stroke-width="1px">0.6</text><text x="0" y="117.33333333333333" dx="0em" dy="0.3em" style="text-anchor: end; visibility: inherit; font-family: Roboto, sans-serif; font-size: 12px; font-weight: 200;" fill="rgb(33, 33, 33)" stroke="none" stroke-width="1px">0.8</text><text x="0" y="97.77777777777779" dx="0em" dy="0.3em" style="text-anchor: end; visibility: hidden; font-family: Roboto, sans-serif; font-size: 12px; font-weight: 200;" fill="rgb(33, 33, 33)" stroke="none" stroke-width="1px">1</text><text x="0" y="78.22222222222221" dx="0em" dy="0.3em" style="text-anchor: end; visibility: inherit; font-family: Roboto, sans-serif; font-size: 12px; font-weight: 200;" fill="rgb(33, 33, 33)" stroke="none" stroke-width="1px">1.2</text><text x="0" y="58.66666666666667" dx="0em" dy="0.3em" style="text-anchor: end; visibility: hidden; font-family: Roboto, sans-serif; font-size: 12px; font-weight: 200;" fill="rgb(33, 33, 33)" stroke="none" stroke-width="1px">1.4</text><text x="0" y="39.11111111111111" dx="0em" dy="0.3em" style="text-anchor: end; visibility: inherit; font-family: Roboto, sans-serif; font-size: 12px; font-weight: 200;" fill="rgb(33, 33, 33)" stroke="none" stroke-width="1px">1.6</text><text x="0" y="19.555555555555543" dx="0em" dy="0.3em" style="text-anchor: end; visibility: hidden; font-family: Roboto, sans-serif; font-size: 12px; font-weight: 200;" fill="rgb(33, 33, 33)" stroke="none" stroke-width="1px">1.8</text><text x="0" y="0" dx="0em" dy="0.3em" style="text-anchor: end; visibility: hidden; font-family: Roboto, sans-serif; font-size: 12px; font-weight: 200;" fill="rgb(33, 33, 33)" stroke="none" stroke-width="1px">2</text></g><line x1="42.390625" y1="0" x2="42.390625" y2="176" fill="rgb(0, 0, 0)" stroke="rgb(204, 204, 204)" stroke-width="1px"></line></g></g><g transform="translate(42, 0)" clip-path="url(#clip_0)"><clipPath id="clip_0"><rect width="287" height="176"></rect></clipPath><g><g><g><line x1="0" y1="0" x2="0" y2="176" fill="rgb(0, 0, 0)" stroke="rgb(66, 66, 66)" stroke-width="1px" opacity="0.25"></line><line x1="20.543526785714285" y1="0" x2="20.543526785714285" y2="176" fill="rgb(0, 0, 0)" stroke="rgb(66, 66, 66)" stroke-width="1px" opacity="0.25"></line><line x1="41.08705357142857" y1="0" x2="41.08705357142857" y2="176" fill="rgb(0, 0, 0)" stroke="rgb(66, 66, 66)" stroke-width="1px" opacity="0.25"></line><line x1="61.630580357142854" y1="0" x2="61.630580357142854" y2="176" fill="rgb(0, 0, 0)" stroke="rgb(66, 66, 66)" stroke-width="1px" opacity="0.25"></line><line x1="82.17410714285714" y1="0" x2="82.17410714285714" y2="176" fill="rgb(0, 0, 0)" stroke="rgb(66, 66, 66)" stroke-width="1px" opacity="0.25"></line><line x1="102.71763392857143" y1="0" x2="102.71763392857143" y2="176" fill="rgb(0, 0, 0)" stroke="rgb(66, 66, 66)" stroke-width="1px" opacity="0.25"></line><line x1="123.26116071428571" y1="0" x2="123.26116071428571" y2="176" fill="rgb(0, 0, 0)" stroke="rgb(66, 66, 66)" stroke-width="1px" opacity="0.25"></line><line x1="143.8046875" y1="0" x2="143.8046875" y2="176" fill="rgb(0, 0, 0)" stroke="rgb(66, 66, 66)" stroke-width="1px" opacity="0.25"></line><line x1="164.34821428571428" y1="0" x2="164.34821428571428" y2="176" fill="rgb(0, 0, 0)" stroke="rgb(66, 66, 66)" stroke-width="1px" opacity="0.25"></line><line x1="184.89174107142858" y1="0" x2="184.89174107142858" y2="176" fill="rgb(0, 0, 0)" stroke="rgb(66, 66, 66)" stroke-width="1px" opacity="0.25"></line><line x1="205.43526785714286" y1="0" x2="205.43526785714286" y2="176" fill="rgb(0, 0, 0)" stroke="rgb(66, 66, 66)" stroke-width="1px" opacity="0.25"></line><line x1="225.97879464285714" y1="0" x2="225.97879464285714" y2="176" fill="rgb(0, 0, 0)" stroke="rgb(66, 66, 66)" stroke-width="1px" opacity="0.25"></line><line x1="246.52232142857142" y1="0" x2="246.52232142857142" y2="176" fill="rgb(0, 0, 0)" stroke="rgb(66, 66, 66)" stroke-width="1px" opacity="0.25"></line><line x1="267.0658482142857" y1="0" x2="267.0658482142857" y2="176" fill="rgb(0, 0, 0)" stroke="rgb(66, 66, 66)" stroke-width="1px" opacity="0.25"></line><line x1="287.609375" y1="0" x2="287.609375" y2="176" fill="rgb(0, 0, 0)" stroke="rgb(66, 66, 66)" stroke-width="1px" opacity="0.25"></line></g><g><line x1="0" y1="176" x2="287.609375" y2="176" fill="rgb(0, 0, 0)" stroke="rgb(66, 66, 66)" stroke-width="1px" opacity="0.25"></line><line x1="0" y1="156.44444444444443" x2="287.609375" y2="156.44444444444443" fill="rgb(0, 0, 0)" stroke="rgb(66, 66, 66)" stroke-width="1px" opacity="0.25"></line><line x1="0" y1="136.88888888888889" x2="287.609375" y2="136.88888888888889" fill="rgb(0, 0, 0)" stroke="rgb(66, 66, 66)" stroke-width="1px" opacity="0.25"></line><line x1="0" y1="117.33333333333333" x2="287.609375" y2="117.33333333333333" fill="rgb(0, 0, 0)" stroke="rgb(66, 66, 66)" stroke-width="1px" opacity="0.25"></line><line x1="0" y1="97.77777777777779" x2="287.609375" y2="97.77777777777779" fill="rgb(0, 0, 0)" stroke="rgb(66, 66, 66)" stroke-width="1px" opacity="0.25"></line><line x1="0" y1="78.22222222222221" x2="287.609375" y2="78.22222222222221" fill="rgb(0, 0, 0)" stroke="rgb(66, 66, 66)" stroke-width="1px" opacity="0.25"></line><line x1="0" y1="58.66666666666667" x2="287.609375" y2="58.66666666666667" fill="rgb(0, 0, 0)" stroke="rgb(66, 66, 66)" stroke-width="1px" opacity="0.25"></line><line x1="0" y1="39.11111111111111" x2="287.609375" y2="39.11111111111111" fill="rgb(0, 0, 0)" stroke="rgb(66, 66, 66)" stroke-width="1px" opacity="0.25"></line><line x1="0" y1="19.555555555555543" x2="287.609375" y2="19.555555555555543" fill="rgb(0, 0, 0)" stroke="rgb(66, 66, 66)" stroke-width="1px" opacity="0.25"></line><line x1="0" y1="0" x2="287.609375" y2="0" fill="rgb(0, 0, 0)" stroke="rgb(66, 66, 66)" stroke-width="1px" opacity="0.25"></line></g></g></g><g><g><line x1="0" y1="195.55555555555557" x2="287.609375" y2="195.55555555555557" fill="rgb(0, 0, 0)" stroke="rgb(153, 153, 153)" stroke-width="1.5px"></line></g></g><g><g><line x1="20.543526785714285" y1="0" x2="20.543526785714285" y2="176" fill="rgb(0, 0, 0)" stroke="rgb(153, 153, 153)" stroke-width="1.5px"></line></g></g><g><g><g><g><g><path stroke="rgb(255, 112, 67)" stroke-width="2px" d="M20.74896205357143,13.366143968370217L21.159832589285713,38.73211185137431L21.365267857142857,50.124301586021375L21.570703124999998,57.33868529204449L22.187008928571426,64.97040612703667L22.597879464285715,70.34814534074636L22.803314732142855,73.96269626318201L23.00875,76.49752597790494L23.625055803571428,79.46192318889975L23.83049107142857,81.3596752573804L24.035926339285716,82.85443631480183L24.241361607142856,83.96526249730701L24.446796875,84.78702840267373L24.652232142857144,85.59174218347276L24.857667410714285,86.36664648502953L25.26853794642857,87.22646646846182L25.473973214285714,87.9904111824996L25.884843749999998,88.9904567742495L26.090279017857146,89.90162116913518L26.295714285714286,90.61765242482637L26.501149553571427,91.25196192692235L26.70658482142857,91.80134341769663L26.912020089285715,92.21214084455985L27.11745535714286,92.68302463604773L27.322890625,93.07554465733996L27.52832589285714,93.47307490225971L27.733761160714288,93.87386322129623L28.14463169642857,94.46430115465589L28.350066964285716,94.87840570838304L28.555502232142857,95.20814345316712L28.7609375,95.57073691616596L28.96637276785714,95.95018576103467L29.37724330357143,96.4465449587843L29.58267857142857,96.8905828989086L30.198984375,97.56788034655588L30.404419642857142,98.10534706588064L30.609854910714287,98.5703359194758L30.815290178571427,98.99837241949936L31.02072544642857,105.30333962616051L31.226160714285715,109.78766962438279L31.43159598214286,113.53766457603143L31.63703125,115.67294067067797L31.84246651785714,117.09653589058368L32.04790178571429,117.92868412638617L32.45877232142857,118.2163790159685L32.664207589285716,118.62019076375941L33.075078125000005,118.64354746199999L33.280513392857145,118.49723759618816L33.485948660714286,118.36257116658423L33.691383928571426,118.39603293602123L34.102254464285714,118.5177784614967L34.307689732142855,118.57467519626938L34.513125,118.67209842898683L34.71856026785714,118.71157403779308L35.129430803571424,118.9731471034757L35.33486607142857,119.19346472048666L35.54030133928571,119.35611713185259L35.74573660714286,119.50534474471488L36.15660714285715,119.486030409451L36.56747767857143,119.41956060644262L36.772912946428576,119.46378856079212L36.97834821428571,119.45456233460894L37.18378348214286,119.49150346487943L37.38921875,119.57638918355548L37.594654017857145,119.6568919360366L37.800089285714286,119.7872659514847L38.005524553571426,119.95027857723848L38.210959821428574,119.9640299342256L38.416395089285714,119.98968551661989L38.621830357142855,119.97572434674223L38.827265625,120.01949201330521L39.03270089285714,120.04349367667886L39.238136160714284,120.06881636490218L39.649006696428565,120.13919423619117L40.05987723214286,120.21905358327287L40.2653125,120.2941836656701L40.47074776785714,120.32444924562603L41.08705357142857,120.4786436650785L41.29248883928572,123.15526252350999L41.49792410714286,124.67794458618174L41.908794642857146,125.3201014498563L42.114229910714286,126.00040708844678L42.52510044642857,126.4669824665012L42.730535714285715,127.00163502975968L42.93597098214286,127.6589125364105L43.141406249999996,128.15820419604063L43.34684151785714,128.61796087313382L43.55227678571429,128.88616853064843L43.757712053571424,128.96891853409272L44.16858258928572,129.1331402134732L44.37401785714285,129.16867243612157L44.579453125,129.23774881248949L44.78488839285715,129.3411440503382L44.99032366071428,129.41106998699271L45.19575892857143,129.3674307359565L45.40119419642857,129.34775590658043L45.60662946428571,129.2393226079402L45.81206473214286,129.22403849409898L46.0175,129.28864596633244L46.428370535714286,129.17953286246006L46.63380580357143,129.24589224860395L46.839241071428575,129.23545878055887L47.044676339285715,129.25105606735332L47.250111607142856,129.29072941474467L47.455546875,129.25789915600828L47.66098214285714,129.30602038417572L47.866417410714284,129.352948295162L48.277287946428565,129.41914329553796L48.68815848214286,129.42807674846807L48.89359375,129.374720787986L49.09902901785714,129.3579859219561L49.30446428571429,129.32809013885347L49.50989955357143,129.31001979037046L49.71533482142857,129.30091665937852L50.12620535714286,129.300793237679L50.331640625,129.34459943537811L50.53707589285714,129.38551145837312L50.74251116071429,129.42709511015843L50.94794642857143,129.46354979239985L51.15338169642857,129.45969776687872L51.56425223214286,133.3287865369854L51.975122767857144,133.81462887952088L52.18055803571429,134.40139990665133L52.385993303571425,134.97598059611755L52.79686383928572,135.12873105786585L53.00229910714285,135.10937873074815L53.207734375,135.06128166248047L53.41316964285714,135.08312943721268L53.61860491071428,135.17216774377565L53.82404017857143,135.18381788530618L54.02947544642857,135.20310273951162L54.23491071428572,135.26084547617225L54.44034598214286,135.21858470201738L54.64578125,135.1834721492676L54.85121651785715,135.15750908946018L55.26208705357143,135.23223742965538L55.467522321428575,135.2669220408553L55.67295758928571,135.3567364425579L55.878392857142856,135.41204012433735L56.083828125000004,135.4259013156099L56.494698660714285,135.43555614140314L56.70013392857143,135.53320546354198L56.90556919642857,135.5954294036813L57.11100446428571,135.65182835313271L57.31643973214286,135.73115650420277L57.72731026785714,135.74157069288623L57.93274553571428,135.8039639204518L58.13818080357143,135.8561750272114L58.34361607142857,135.82564086498678L58.54905133928571,135.75418523751148L58.75448660714286,135.72006786281668L58.959921875,135.70307792539944L59.576227678571435,135.6796940113703L59.78166294642857,135.57981474870044L59.987098214285716,135.42562496202677L60.19253348214286,135.32727841790347L60.39796875,135.2949860879464L60.808839285714285,135.22430089247325L61.21970982142857,135.2341926655431L61.425145089285714,135.28025474184975L61.630580357142854,135.3105192544116L61.836015625,140.90315992606006L62.24688616071429,140.9043074546595L62.45232142857143,141.33200724975964L62.65775669642857,141.85521194703733L62.86319196428572,141.77131016009795L63.06862723214285,141.81340132195666L63.2740625,141.69522403766726L63.47949776785715,141.4067161028982L63.68493303571428,141.34076745979394L63.89036830357143,141.2470187644506L64.09580357142858,141.2653843899773L64.50667410714286,141.12591056732245L64.712109375,141.02229448051662L64.91754464285714,140.88430708449596L65.12297991071428,140.73867704617555L65.53385044642857,140.46342497092365L65.73928571428571,140.34146394014152L65.94472098214285,140.26557146914678L66.15015625000001,140.12192493986478L66.35559151785714,140.07530221462417L66.56102678571429,140.12517213959265L66.76646205357143,140.1801428803132L66.97189732142857,140.21435153798882L67.17733258928571,140.08689191000303L67.79363839285715,139.97051757872754L67.99907366071429,139.88191979507994L68.20450892857143,139.81788605876997L68.40994419642857,139.78378320657816L68.61537946428571,139.82056886905596L68.82081473214286,139.8453770999031L69.02625,139.85208650638825L69.23168526785715,139.8379707216498L69.43712053571429,139.74606979498262L69.64255580357143,139.69779696562617L69.84799107142857,139.7332444313424L70.25886160714285,139.69861297282455L70.464296875,139.68334040128912L70.87516741071428,139.74972185145054L71.08060267857142,139.79515959809365L71.28603794642858,139.85387484888983L71.49147321428572,139.8773127701195L71.69690848214286,139.88501366745635L71.90234375,139.86542465351744L72.51864955357144,142.54796246592502L72.72408482142856,143.75581639285798L72.92952008928572,144.2682376672713L73.13495535714286,144.74033636867333L73.54582589285715,145.44848314071626L73.7512611607143,145.86235160317975L73.95669642857142,145.69973971590903L74.16213169642856,145.43034420762433L74.57300223214285,145.23991886588317L74.7784375,145.06821580351158L75.18930803571429,144.75420369610976L75.60017857142857,144.54727268560205L75.80561383928571,144.36012961274471L76.21648437500001,144.16450556136155L76.42191964285715,143.96005600303602L76.83279017857143,143.77580285502256L77.03822544642857,143.65461368288928L77.24366071428571,143.60008123870492L77.44909598214286,143.58926110148576L77.85996651785715,143.44836112798671L78.06540178571429,143.36621295907284L78.27083705357143,143.28093726335874L78.47627232142857,143.2297415402798L78.68170758928572,143.19656002392645L78.88714285714286,143.27485074654717L79.092578125,143.29523779981633L79.29801339285713,143.34746649682504L79.50344866071428,143.3723369554545L79.70888392857142,143.43893269593707L79.91431919642856,143.5139421218347L80.11975446428572,143.5153472711206L80.32518973214286,143.5110780305733L80.530625,143.5218999277461L81.35236607142858,143.53252629053708L81.55780133928572,143.55748879678322L81.76323660714286,143.54143564562364L81.968671875,143.49192851248267L82.17410714285714,143.45807935209137L82.37954241071428,144.65408713863926L82.58497767857143,144.40488561075247L82.99584821428572,145.08993801589267L83.20128348214287,145.72785271143854L83.40671875,146.00513436822325L83.61215401785714,146.289709386464L83.81758928571429,146.12182138993506L84.02302455357143,146.21607048492132L84.22845982142857,146.423335769855L84.63933035714285,146.61700512910863L84.844765625,146.71220609446686L85.05020089285713,146.68246718254545L85.25563616071429,146.70362837318694L85.46107142857143,146.62926278169755L85.66650669642857,146.583995352124L86.07737723214285,146.67801203790066L86.28281249999999,146.74825774442144L86.48824776785715,146.73583751340632L86.69368303571429,146.70944667443922L86.89911830357143,146.79315108012332L87.30998883928571,146.85851838956978L87.51542410714285,146.85937998091933L87.92629464285714,146.90290881300092L88.33716517857144,146.9216758264019L88.54260044642858,146.92902777113002L88.7480357142857,146.90015983691305L88.95347098214286,146.89998041854594L89.15890625,146.93740048765915L89.36434151785714,146.9763446310083L89.77521205357144,146.9266803273246L89.98064732142856,146.83016385554052L90.1860825892857,146.821828188677L90.596953125,146.7939297040048L90.80238839285714,146.7680919244401L91.0078236607143,146.7308542772837L91.21325892857142,146.68227049246343L91.41869419642856,146.64605667380107L91.62412946428572,146.6385533887072L91.82956473214286,146.60567600396814L92.035,146.60105577429658L92.24043526785715,146.594621315191L92.44587053571429,146.55994678678172L92.65130580357142,148.96376661875414L93.06217633928571,148.86013931153025L93.26761160714285,149.17066647944202L93.47304687500001,149.51503257555177L93.67848214285715,149.70326253137438L94.08935267857143,149.97622599552275L94.29478794642857,150.21481240666697L94.70565848214287,150.11986441340122L94.91109375,150.02862808594085L95.11652901785715,150.09428481088796L95.32196428571427,149.91204663014443L95.52739955357143,149.7224205567203L95.73283482142857,149.61111365757955L95.93827008928571,149.591560874398L96.14370535714286,149.553035512642L96.349140625,149.46810725898763L96.55457589285713,149.36349531818826L97.37631696428572,149.42928472312596L97.58175223214286,149.44301488159152L97.7871875,149.37106655665403L98.19805803571428,149.24171295407976L98.40349330357142,149.12635044243075L99.01979910714286,149.06483406747398L99.225234375,149.06775985447908L99.63610491071428,149.07587135407334L99.84154017857144,149.08665368368696L100.04697544642858,149.10175203263378L100.66328125,149.07521239308286L100.86871651785714,149.09418789710597L101.07415178571428,149.11151310701766L101.27958705357143,149.09955548451765L101.48502232142857,149.11302255581342L101.69045758928571,149.14884062801116L101.89589285714285,149.17726214047858L102.101328125,149.21860735803796L102.30676339285714,149.2701708811585L102.51219866071429,149.26353698202354L102.71763392857143,149.26593131956488L102.92306919642857,150.0186764692156L103.12850446428573,151.21572949789626L103.33393973214285,151.73872648657957L103.53937499999999,152.18859471932674L103.74481026785715,152.25842376715647L103.95024553571429,152.09531512624713L104.15568080357143,152.41257790784056L104.36111607142858,152.75262917183514L104.56655133928571,153.04071032068737L104.77198660714285,153.16669481830758L104.977421875,153.26076147326674L105.38829241071429,153.23941851743035L105.59372767857144,153.12003243353087L105.79916294642858,152.95068604116642L106.0045982142857,152.8243219860958L106.62090401785714,152.58636599167917L106.82633928571428,152.50703144633943L107.03177455357144,152.42593714732433L107.23720982142856,152.39770890755557L107.4426450892857,152.35218324485615L107.64808035714286,152.2970029672045L107.853515625,152.26033388667986L108.05895089285714,152.2270843796221L108.2643861607143,152.15510803269405L108.46982142857144,152.1522322365069L108.88069196428572,152.13294929673813L109.08612723214286,152.0908524180087L109.2915625,152.1050161140607L109.90786830357142,152.15599586008003L110.11330357142856,152.13261983457014L110.31873883928571,152.08511346907434L110.52417410714285,152.03144197263927L110.729609375,151.98169326874117L110.93504464285715,151.95571967286037L111.14047991071429,151.90599386884074L111.34591517857142,151.8846101661124L111.75678571428571,151.8986109355846L111.96222098214285,151.91242212148393L112.16765625000001,151.84993931109835L112.37309151785715,151.73596165981306L113.19483258928571,156.5357069185427L113.40026785714286,156.622010682023L113.605703125,156.17232883810783L113.81113839285715,155.3669699321575L114.01657366071429,155.2017820849252L114.22200892857143,154.95952063645316L114.42744419642857,154.98864855011868L114.83831473214286,155.00644001084243L115.24918526785713,155.17004186210306L115.45462053571428,155.13508423744005L115.66005580357142,155.1690095141234L115.86549107142856,155.10451118993967L116.07092633928572,155.03393531351213L116.27636160714286,155.00218161250507L116.481796875,154.96897082510802L116.89266741071428,154.79227322263776L117.09810267857142,154.6061230244301L117.30353794642858,154.501308791363L117.50897321428572,154.43693993705602L117.91984375,154.41538070570286L118.12527901785714,154.38665242617506L118.33071428571428,154.32174700142716L118.94702008928572,154.2445358692116L119.15245535714287,154.118051909914L119.357890625,154.00250892186122L119.56332589285714,153.9369421952934L119.76876116071429,153.88752436495977L119.97419642857143,153.83745232073096L120.17963169642857,153.79642912389744L120.59050223214285,153.80768427436695L120.7959375,153.79374909577524L121.00137276785713,153.7528199047511L121.20680803571429,153.72131656816262L121.41224330357143,153.71067868398026L121.61767857142857,153.7071878118896L122.23398437499999,153.649024338406L122.43941964285715,153.63022554834257L122.85029017857143,153.62668237439533L123.05572544642858,153.58355525610557L123.26116071428571,153.54952210273967L123.67203125,155.68876329182228L123.87746651785714,156.9173790137422L124.08290178571428,157.72272916690554L124.6992075892857,159.12444990774287L124.90464285714286,159.82546092212377L125.110078125,160.43754329301356L125.31551339285714,160.90688429286544L125.5209486607143,161.09460431873413L125.72638392857144,161.1721167477346L125.93181919642856,161.17935157889386L126.1372544642857,161.23115345747493L126.34268973214286,161.21930080268186L126.75356026785714,161.26961142389018L126.9589955357143,161.30742549572545L127.16443080357142,161.34329806239566L127.36986607142856,161.3929289276338L127.57530133928572,161.4545516918396L127.78073660714286,161.49268162748984L128.19160714285715,161.52280846735897L128.80791294642856,161.4760083327754L129.0133482142857,161.4571330105634L129.62965401785715,161.49991156259077L129.83508928571428,161.50324459499126L130.04052455357143,161.5203692652345L130.24595982142856,161.5583807311988L130.4513950892857,161.56507666073128L130.65683035714287,161.5802035705626L130.862265625,161.59415076697812L131.06770089285715,161.59101342805525L131.27313616071427,161.6061091825927L131.47857142857143,161.63153052098278L131.68400669642858,161.66950323707562L131.8894419642857,161.67015791385722L132.09487723214286,161.64875629480957L132.30031250000002,161.66134526095556L132.50574776785714,161.69908190293836L132.91661830357143,161.72808224672315L133.12205357142858,161.74197981915748L133.3274888392857,161.7872772690037L133.73835937500002,161.8358620185813L134.14922991071427,162.04474285981686L134.35466517857142,162.22570904206876L134.56010044642858,162.57529909942204L134.7655357142857,162.71086023900435L134.97097098214286,162.720025181692L135.38184151785714,162.56919361480675L135.5872767857143,162.56296303269426L135.79271205357142,162.5475430207613L135.99814732142858,162.57717782559968L136.20358258928573,162.59143392822926L136.40901785714286,162.65597727910418L136.61445312499998,162.65677343682557L137.0253236607143,162.7287713010344L137.23075892857142,162.67109766187338L137.43619419642857,162.72350100095974L137.64162946428573,162.79612721783795L137.84706473214285,162.78991775780645L138.0525,162.7559190681428L138.25793526785714,162.76706687091226L138.4633705357143,162.75560246792497L138.87424107142857,162.75728167559276L139.07967633928573,162.77634087747344L139.28511160714285,162.73532780800534L139.9014174107143,162.72739040530288L140.72315848214285,162.79802259411352L140.92859375,162.87788533465957L141.13402901785713,162.95567968797158L141.54489955357144,162.9920115827211L141.75033482142857,163.02877821411155L141.95577008928572,163.03695703941528L142.16120535714285,163.0673490554634L142.366640625,163.11857662806835L142.57207589285716,163.15903079502405L142.77751116071428,163.16703965129693L142.98294642857144,163.1875036615532L143.18838169642856,163.2276317949137L143.39381696428572,163.2567079416604L143.59925223214285,163.30463295489693L143.8046875,163.33774847970494L144.21555803571428,162.01367059593383L144.4209933035714,162.38556013716914L144.6264285714286,162.983727452439L144.83186383928572,163.4479061746291L145.03729910714287,163.5687505924253L145.242734375,163.7768132521837L145.44816964285712,163.88406890834148L145.65360491071428,164.01849246279596L145.85904017857143,164.01368116425527L146.0644754464286,164.12516208210488L146.47534598214284,164.36110254491044L146.68078125,164.35611685599358L146.88621651785712,164.42063943834387L147.0916517857143,164.5189793551111L147.29708705357143,164.53328596749103L147.5025223214286,164.56828830294063L147.7079575892857,164.60137349954596L147.91339285714284,164.66476684366475L148.118828125,164.68374292717596L148.32426339285712,164.66816470755205L148.5296986607143,164.57930857048936L148.73513392857143,164.48862335877854L149.1460044642857,164.38115985934942L149.35143973214284,164.25721041739322L149.556875,164.24056718841067L149.76231026785715,164.2438574571436L149.9677455357143,164.21612974969037L150.5840513392857,164.22903064403758L150.78948660714283,164.2362140229175L150.99492187500002,164.20624253152124L151.20035714285714,164.19322976336534L151.4057924107143,164.2055835192673L151.61122767857142,164.21202948879835L152.0220982142857,164.24603254313251L152.22753348214286,164.27972223787495L152.43296875000001,164.30097926845875L152.63840401785714,164.3313876938267L152.8438392857143,164.31281721170078L153.04927455357142,164.29431647736362L153.25470982142855,164.2919615481342L153.871015625,164.28655640394427L154.07645089285714,164.29662915401886L154.48732142857142,163.31780210534671L154.69275669642855,163.77645994464518L154.89819196428573,164.09258009801948L155.10362723214286,164.29633615831256L155.3090625,164.4329989656988L155.92536830357142,164.5584957490143L156.13080357142857,164.74187659030486L156.33623883928573,164.91770215911862L156.54167410714285,165.04821364929197L156.95254464285713,165.2833662719523L157.36341517857144,165.32991587201062L157.77428571428572,165.30291897171983L158.18515625,165.29476698175287L158.39059151785713,165.1988294544597L158.59602678571426,165.1233003497456L158.80146205357144,165.14408184185962L159.00689732142857,165.1794979425656L159.41776785714285,165.25040807373978L159.623203125,165.27857179007856L159.82863839285713,165.29635587735794L160.03407366071428,165.3083038294543L160.23950892857144,165.27452034207226L160.44494419642857,165.21905140219025L160.85581473214285,165.21031994636922L161.06125,165.1936989699103L161.26668526785716,165.20521075903494L161.47212053571428,165.23321989007263L161.88299107142856,165.2118927011538L162.08842633928572,165.16914974270153L162.29386160714284,165.12346727024251L162.499296875,165.09360302907666L162.91016741071428,165.07637801753282L163.11560267857143,165.08577548588724L163.32103794642856,165.07638586105818L163.52647321428572,165.0961342340557L163.73190848214287,165.1013404923852L163.93734375,165.14002326583585L164.14277901785715,165.16236572206117L164.34821428571428,165.17441676633948L164.55364955357143,165.15189773453378L164.96452008928574,164.8389023804121L165.16995535714287,164.27952175915954L165.58082589285715,164.80787484528386L165.78626116071428,165.12851171899894L165.99169642857143,165.61436793465185L166.19713169642856,165.99615636887083L166.40256696428574,166.15116708199008L166.60800223214287,166.29840780263373L166.8134375,166.20783350248274L167.01887276785715,166.150402408449L167.22430803571427,166.13465749121198L167.63517857142858,166.10949939228985L167.8406138392857,166.12645975195107L168.04604910714286,166.03147069810802L168.251484375,165.9705258752179L168.45691964285714,165.8329887132343L168.66235491071427,165.82758963415668L168.86779017857145,165.78267292366212L169.07322544642858,165.79671245526742L169.2786607142857,165.7815921805986L169.48409598214286,165.772930307681L169.68953125,165.74359123650206L169.89496651785714,165.72170187545294L170.10040178571427,165.68837303957162L170.30583705357145,165.6974388568715L170.51127232142858,165.70972625866227L170.7167075892857,165.67921430540898L170.92214285714286,165.66681790090624L171.12757812499999,165.6854219367989L171.33301339285714,165.69332999771166L171.5384486607143,165.69082945258614L171.74388392857145,165.69214988221114L171.94931919642858,165.6900188103149L172.36018973214286,165.69214139364473L172.56562499999998,165.686501758523L172.77106026785717,165.67875512938002L173.18193080357142,165.67337981628225L173.38736607142857,165.6811474203412L173.5928013392857,165.6727788842658L173.79823660714285,165.6635394491915L174.003671875,165.6806411026814L175.0308482142857,166.51972666786833L175.23628348214288,165.74036663019692L175.44171875,165.6469030030544L175.8525892857143,165.55480306434484L176.0580245535714,165.3215580157377L176.26345982142857,165.526641983108L176.4688950892857,165.63713183700023L176.67433035714288,165.86903913570163L177.08520089285716,166.12241600207122L177.29063616071429,166.30413233456656L177.4960714285714,166.35016134908386L177.70150669642857,166.31980055158357L177.90694196428572,166.27855993791763L178.11237723214288,166.244993128617L178.3178125,166.2266469044258L178.52324776785713,166.20740302658695L178.72868303571428,166.1822378067901L178.9341183035714,166.10713931493345L179.1395535714286,166.11080354660845L179.34498883928572,166.1681595351238L179.55042410714287,166.2028750191361L179.96129464285713,166.31793506736273L180.16672991071428,166.3868218992501L180.3721651785714,166.43249120320974L180.5776004464286,166.4560299807488L180.78303571428572,166.43431215314928L180.98847098214287,166.3880256675745L181.19390625,166.3875300272808L181.39934151785712,166.39313758254417L181.60477678571428,166.3839077867159L182.22108258928571,166.347757705409L182.42651785714284,166.3581053916102L182.631953125,166.39948371073518L182.83738839285712,166.38385382439574L183.0428236607143,166.3752976419614L183.24825892857143,166.31694487902044L183.6591294642857,166.26358781228637L183.86456473214284,166.19894371147393L184.07,166.1504058251374L184.27543526785712,166.10914568031058L184.4808705357143,166.10885674378477L184.68630580357143,166.0977220612041L184.89174107142858,166.0907032270925L185.0971763392857,166.0834508711581L185.508046875,166.69487997008935L185.71348214285715,167.12781656915757L185.9189174107143,166.66997452723538L186.12435267857143,166.0085692017131L186.32978794642858,165.98289912329568L186.5352232142857,165.86055426364348L186.74065848214283,166.00621990169873L186.94609375000002,166.11666440053258L187.15152901785714,166.23318369637016L187.3569642857143,166.31162981129404L187.76783482142855,166.3621523244053L187.9732700892857,166.4274000880839L188.17870535714286,166.4827750909295L188.58957589285714,166.58035763827758L188.7950111607143,166.73637013869165L189.00044642857142,166.7955434263614L189.20588169642855,166.81387341994582L189.41131696428573,166.82678766568955L189.61675223214286,166.8991513568058L189.8221875,166.88486994412904L190.02762276785714,166.87161304551117L190.2330580357143,166.77342266637734L190.43849330357142,166.70195257477485L190.64392857142855,166.65609240685086L190.84936383928573,166.6513871361068L191.05479910714286,166.61649243621864L191.260234375,166.60226015865774L191.6711049107143,166.55339329612238L191.87654017857142,166.51571231586922L192.08197544642857,166.50396597221737L192.28741071428573,166.45601253146413L192.49284598214285,166.41383138226823L192.69828125,166.36824821256678L193.10915178571426,166.36363104542608L193.31458705357144,166.3976483080418L193.72545758928572,166.47368119029653L193.93089285714285,166.54002998459077L194.34176339285713,166.56688242997703L194.75263392857144,166.58095875621754L195.36893973214285,166.55624900471386L195.574375,164.64593060010074L196.19068080357144,165.82257558553786L196.39611607142857,166.47548339555286L196.60155133928572,167.04304048492287L196.80698660714285,167.1812577126185L197.012421875,167.30072850452422L197.42329241071428,167.2718859713601L197.62872767857144,167.2574443354338L197.83416294642856,167.33050669966252L198.45046875,167.4023290552318L198.65590401785715,167.3682176583249L199.06677455357143,167.31949896030392L199.27220982142856,167.30790679568375L199.47764508928572,167.3089125581774L199.68308035714287,167.3097479704601L199.888515625,167.3278591319736L200.09395089285715,167.35668192680242L200.29938616071428,167.31150983001132L200.71025669642856,167.25542621084588L200.91569196428574,167.24563940791077L201.12112723214287,167.23952021853796L201.53199776785715,167.27431939701904L201.73743303571428,167.22173334489003L201.94286830357143,167.2119656483118L202.14830357142856,167.19515653132106L202.35373883928574,167.16492596275828L202.55917410714287,167.12772070504892L202.764609375,167.15176403008502L202.97004464285715,167.1600542964825L203.17547991071427,167.14231204006805L203.38091517857143,167.1198404889131L203.58635044642858,167.10938346086223L203.99722098214286,167.05944462967219L204.20265625,166.9913801346691L204.61352678571427,166.9586190591272L205.02439732142858,166.9221148033284L205.2298325892857,166.92511533534585L205.84613839285714,160.05549521812102L206.05157366071427,161.19618512797007L206.46244419642858,162.69598775338386L206.6678794642857,163.64912335017078L206.87331473214286,164.18136375178813L207.07874999999999,164.61658281304392L207.28418526785714,164.99999754956136L207.69505580357145,165.35825794271426L207.90049107142858,165.57803044583144L208.31136160714286,165.6729280477045L208.51679687499998,165.91701449107794L208.9276674107143,166.09501220806771L209.13310267857142,166.30456447748278L209.33853794642857,166.48699771121568L209.5439732142857,166.64747022045907L209.74940848214285,166.72250829940324L209.95484375,166.7582564521151L210.16027901785716,166.82674554132657L210.3657142857143,166.85309296468174L210.57114955357142,166.85300960181388L210.9820200892857,166.91860628548204L211.18745535714288,167.0327866155614L211.392890625,167.08946861630272L211.59832589285716,167.1226280929316L211.8037611607143,167.14764426824132L212.0091964285714,167.19280693007187L212.21463169642857,167.24407095223935L212.4200669642857,167.26945594058594L212.62550223214288,167.26976256632506L212.8309375,167.28934682049572L213.24180803571429,167.31621173338357L213.65267857142857,167.31339198075824L213.85811383928572,167.30936892529846L214.06354910714288,167.33495285067605L214.268984375,167.35581417188567L214.47441964285713,167.33016099780778L214.67985491071428,167.30566923899772L214.8852901785714,167.28627797348625L215.0907254464286,167.281697437134L215.29616071428572,167.28002613151733L215.50159598214287,167.28542599961625L215.70703125,167.29332250023498L215.91246651785713,167.29892527724738L216.3233370535714,166.9305088791509L216.73420758928572,166.4853429268422L216.93964285714287,166.28045502792202L217.145078125,166.2810854192665L217.35051339285712,166.2522618286134L217.76138392857143,166.35355135342076L217.9668191964286,166.47037886570914L218.17225446428571,166.54519023293867L218.37768973214284,166.4709070763002L218.583125,166.3210215500268L218.78856026785712,166.25346046673891L218.9939955357143,166.24904115854946L219.4048660714286,166.21249037234864L219.6103013392857,166.16892516297762L220.22660714285712,166.21869819504946L220.4320424107143,166.25535630801411L221.0483482142857,166.26355860801L221.25378348214284,166.24895848667828L221.45921875,166.30601063074394L221.66465401785715,166.33225171586906L221.8700892857143,166.33727049787132L222.07552455357143,166.34896433594068L222.28095982142858,166.3408301447366L222.4863950892857,166.34081368691926L222.69183035714283,166.35439706207967L223.3081361607143,166.35825767202834L223.51357142857142,166.37393300185798L223.71900669642855,166.40648588872736L223.9244419642857,166.415537693786L224.12987723214286,166.4159893253238L224.54074776785714,166.4304305270587L224.7461830357143,166.4552050325438L224.95161830357142,166.4520903258753L225.15705357142855,166.44115195316135L225.36248883928573,166.46350401691498L225.773359375,166.45633538727438L225.97879464285714,166.4540192295977L226.1842299107143,166.3939776108584L226.38966517857142,166.35953436145047L226.59510044642855,168.18239260292034L226.80053571428573,167.5213730846404L227.00597098214286,167.05854352733184L227.21140625,167.00933407928295L227.41684151785714,166.89719637279492L227.6222767857143,166.98629906469122L228.03314732142857,167.1314142917539L228.44401785714285,167.1856355996563L228.85488839285713,167.0059017802921L229.06032366071426,166.86636877186314L229.26575892857144,166.85186940374967L229.47119419642857,166.84528651600874L229.67662946428572,166.83501106162348L230.29293526785713,166.7676971454987L230.70380580357144,166.67202779250755L230.90924107142857,166.56731556347788L231.32011160714285,166.55542386533554L231.525546875,166.53206949542337L231.73098214285713,166.56505044698275L231.93641741071428,166.57635693258447L232.14185267857144,166.53412259986507L232.55272321428572,166.53026054722372L233.37446428571428,166.546054438618L233.57989955357144,166.55933879499995L233.78533482142856,166.5666694933628L233.99077008928572,166.53665468063681L234.19620535714284,166.53451313224141L235.01794642857143,166.5449331779085L235.22338169642856,166.52726122544354L235.42881696428572,166.55191168470867L235.63425223214287,166.5691322403174L236.04512276785715,166.5539728592051L236.25055803571428,166.5565204283391L236.45599330357143,166.57344307467108L236.86686383928574,166.06079854811753L237.07229910714287,166.27415197704218L237.277734375,165.41964668600153L237.68860491071428,165.4818790006078L238.09947544642856,165.34892860801307L238.30491071428574,165.39354092131828L238.51034598214287,165.70669787212012L238.92121651785715,165.81682657781852L239.12665178571427,165.86014076090686L239.33208705357143,166.00518035633797L239.53752232142858,166.12311704270766L239.7429575892857,166.18104461154311L239.94839285714286,166.2661096982749L240.153828125,166.2811025102491L240.35926339285714,166.2366891508367L240.56469866071427,166.17449960076542L240.77013392857145,166.12785872398058L240.97556919642858,166.08840584039962L241.1810044642857,166.08683275747464L241.38643973214286,166.099712946755L241.79731026785714,166.23071162493235L242.00274553571427,166.32870994496403L242.20818080357145,166.35628712335725L242.6190513392857,166.40321717622248L242.82448660714286,166.4108139896799L243.02992187499999,166.42081777002863L243.23535714285714,166.43106282930776L243.64622767857145,166.4153606564673L243.85166294642858,166.41213918949398L244.0570982142857,166.39075940650508L244.26253348214286,166.39364734769944L244.8788392857143,166.40233875601143L245.08427455357142,166.39643142726544L245.28970982142857,166.3765965772726L245.4951450892857,166.3746930351358L246.3168861607143,166.42128230938985L246.72775669642857,166.4803154841311L246.9331919642857,166.50931991588556L247.13862723214288,166.43814848334483L247.3440625,166.82201980103255L247.54949776785716,166.6865207532663L247.7549330357143,166.3057315615586L247.9603683035714,165.786127980616L248.16580357142857,165.52439812982058L248.3712388392857,165.35877789224241L248.57667410714288,165.38865118986067L248.782109375,165.48359814477715L248.98754464285716,165.54458647882592L249.19297991071429,165.59849099930184L249.3984151785714,165.66787770691482L249.60385044642857,165.583603740882L250.01472098214288,165.65682279072604L250.22015625,165.79191361733385L250.42559151785713,165.90113604983554L250.63102678571428,165.94631926502637L250.8364620535714,165.99205085077065L251.0418973214286,165.97597088810048L251.24733258928572,165.97782040805694L251.86363839285713,166.0001592282055L252.06907366071428,166.03562386825604L252.4799441964286,166.0508298661671L252.68537946428572,166.0406732431866L252.89081473214287,166.1185678829508L253.09625,166.1663688613826L253.30168526785712,166.18915266821574L253.50712053571428,166.2107245678823L253.71255580357143,166.2255804604695L253.9179910714286,166.30237282513016L254.12342633928571,166.33457408400767L254.32886160714284,166.35323977104264L254.73973214285712,166.37306580323838L254.9451674107143,166.39961537017408L255.3560379464286,166.38806487894445L255.5614732142857,166.40287072922624L255.97234375,166.4165961498635L256.1777790178571,166.4440848151283L256.3832142857143,166.46274603389986L256.58864955357143,166.51771694610488L256.7940848214286,166.57566668703143L256.99952008928574,166.60849580435345L257.20495535714286,166.62663603055182L257.410390625,164.55108569598815L257.6158258928571,165.01593948657617L258.0266964285714,165.60310568498093L258.2321316964286,165.85325671221062L258.43756696428574,165.9256611246978L258.8484375,166.16484214075427L259.0538727678571,166.2734281505957L259.2593080357143,166.22505129292495L259.4647433035714,166.20355613247156L259.67017857142855,166.14291131823617L259.87561383928573,166.14778906965537L260.08104910714286,166.1141029978981L260.286484375,166.11162365719156L260.4919196428571,166.1160141833625L260.6973549107143,166.1182685128319L261.51909598214286,166.18328512299863L261.72453125,166.22477665563378L261.9299665178571,166.27443478847846L262.3408370535714,166.3564579600147L262.54627232142855,166.3938095319699L262.75170758928573,166.40017363320376L262.95714285714286,166.43925621510564L263.162578125,166.4927386638914L263.36801339285716,166.53548406611912L263.5734486607143,166.57992896997882L263.98431919642854,166.59187435976372L264.1897544642857,166.6043695601128L264.39518973214285,166.62235826340464L264.80606026785716,166.66200013345104L265.0114955357143,166.66979552803477L265.2169308035714,166.67771663499036L265.42236607142854,166.68971468083686L265.83323660714285,166.69989628371508L266.03867187500003,166.71277389592078L266.24410714285716,166.7264065682857L266.4495424107143,166.72355258371908L266.6549776785714,166.74147708890064L266.86041294642854,166.76418154312174L267.47671875000003,166.77184449292355L267.68215401785716,163.94729905652616L268.29845982142854,164.96965636143983L268.5038950892857,165.57502809098636L268.70933035714285,166.27249331367113L269.12020089285716,166.51213181007498L269.3256361607143,166.79405505650396L269.5310714285714,166.7946105114211L269.9419419642857,166.72351220054298L270.14737723214284,166.66365242615396L270.35281249999997,166.71018774611122L270.7636830357143,166.65842955491362L270.96911830357146,166.58763577317714L271.1745535714286,166.48405631911731L271.3799888392857,166.49465852630655L271.58542410714284,166.5685198590972L271.79085937499997,166.61754569061836L271.99629464285715,166.6632877759365L272.40716517857146,166.6568886091315L273.02347098214284,166.70113834838094L273.22890624999997,166.647456313438L273.84521205357146,166.6251197409233L274.0506473214286,166.62598942759573L274.2560825892857,166.57095631982645L274.46151785714284,166.56436764480793L274.66695312499996,166.58390248453557L275.0778236607143,166.6514965174751L275.28325892857146,166.7032310598652L275.4886941964286,166.6749228312045L275.6941294642857,166.6797101726878L275.89956473214284,166.69843126718692L276.105,166.72471184496112L276.31043526785714,166.7345810801958L276.51587053571427,166.73818423907343L276.72130580357145,166.74139750735193L276.9267410714286,166.75107672123517L277.1321763392857,166.76654942087043L277.3376116071429,166.80551625971356L277.543046875,166.81492079573155L277.74848214285714,166.82340758608152" style="fill: none;" fill="none"></path></g></g></g></g><g opacity="0.2"><g><g><g><path stroke="rgb(255, 112, 67)" stroke-width="2px" d="M20.74896205357143,13.366143968370217L21.159832589285713,53.95169258117676L21.365267857142857,61.06080373128255L21.570703124999998,65.82280053032768L22.187008928571426,74.93438084920247L22.597879464285715,77.78749465942383L22.803314732142855,79.13156191507976L23.00875,80.19333203633626L23.625055803571428,83.83383327060275L23.83049107142857,84.17761590745712L24.035926339285716,85.08302052815755L24.241361607142856,85.62545670403374L24.446796875,86.0169940524631L24.652232142857144,86.7972363366021L24.857667410714285,87.52809206644694L25.26853794642857,88.51559003194173L25.473973214285714,89.13600497775607L25.884843749999998,90.49027125040689L26.090279017857146,91.26822895473904L26.295714285714286,91.69163386027017L26.501149553571427,92.20339139302571L26.70658482142857,92.62539757622612L26.912020089285715,92.82832887437607L27.11745535714286,93.38934474521213L27.322890625,93.66432189941406L27.52832589285714,94.0693685743544L27.733761160714288,94.47504467434354L28.14463169642857,95.34995714823404L28.350066964285716,95.49956215752495L28.555502232142857,95.7027498881022L28.7609375,96.11462699042427L28.96637276785714,96.51935895284016L29.37724330357143,97.19108369615341L29.58267857142857,97.5566397772895L30.198984375,98.58382648891873L30.404419642857142,98.91154713100858L30.609854910714287,99.26781919267441L30.815290178571427,99.64042716556125L31.02072544642857,114.76079040103487L31.226160714285715,116.51416460673013L31.43159598214286,119.16265699598526L31.63703125,118.87585481007893L31.84246651785714,119.2319287194146L32.04790178571429,119.17690647972954L32.45877232142857,118.64792135026718L32.664207589285716,119.22590838538277L33.075078125000005,118.67858250935872L33.280513392857145,118.27777279747856L33.485948660714286,118.16057152218289L33.691383928571426,118.44622559017606L34.102254464285714,118.7003967497084L34.307689732142855,118.66002029842801L34.513125,118.81823327806259L34.71856026785714,118.77078745100235L35.129430803571424,119.36550670199922L35.33486607142857,119.52394114600288L35.54030133928571,119.60009574890137L35.74573660714286,119.72918616400825L36.15660714285715,119.45705890655518L36.56747767857143,119.31985590193008L36.772912946428576,119.53013049231636L36.97834821428571,119.44072299533418L37.18378348214286,119.54691516028511L37.38921875,119.70371776156954L37.594654017857145,119.7776460647583L37.800089285714286,119.98282697465683L38.005524553571426,120.19479751586914L38.210959821428574,119.98465696970621L38.416395089285714,120.02816889021133L38.621830357142855,119.95478259192573L38.827265625,120.08514351314969L39.03270089285714,120.07949617173935L39.238136160714284,120.10680039723714L39.649006696428565,120.24476104312471L40.05987723214286,120.33884260389542L40.2653125,120.40687878926595L40.47074776785714,120.36984761555989L41.08705357142857,120.70993529425728L41.29248883928572,127.17019081115723L41.49792410714286,126.96196768018936L41.908794642857146,126.28333674536812L42.114229910714286,127.02086554633247L42.52510044642857,127.16684553358292L42.730535714285715,127.80361387464737L42.93597098214286,128.64482879638672L43.141406249999996,128.90714168548584L43.34684151785714,129.30759588877362L43.55227678571429,129.28848001692032L43.757712053571424,129.09304353925918L44.16858258928572,129.37947273254395L44.37401785714285,129.22197077009415L44.579453125,129.3413633770413L44.78488839285715,129.49623690711127L44.99032366071428,129.51595889197455L45.19575892857143,129.30197185940213L45.40119419642857,129.3182436625163L45.60662946428571,129.07667265997992L45.81206473214286,129.20111232333713L46.0175,129.38555717468262L46.428370535714286,129.01586320665146L46.63380580357143,129.34543132781982L46.839241071428575,129.2198085784912L47.044676339285715,129.27445199754501L47.250111607142856,129.35023943583172L47.455546875,129.20865376790366L47.66098214285714,129.37820222642685L47.866417410714284,129.42334016164145L48.277287946428565,129.5184357961019L48.68815848214286,129.44147692786322L48.89359375,129.2946868472629L49.09902901785714,129.33288362291123L49.30446428571429,129.2832464641995L49.50989955357143,129.28291426764594L49.71533482142857,129.28726196289062L50.12620535714286,129.30060810512967L50.331640625,129.41030873192682L50.53707589285714,129.44687949286566L50.74251116071429,129.48947058783637L50.94794642857143,129.518231815762L51.15338169642857,129.45391972859701L51.56425223214286,139.13241969214545L51.975122767857144,134.54339239332413L52.18055803571429,135.28155644734701L52.385993303571425,135.83785163031683L52.79686383928572,135.35785675048828L53.00229910714285,135.08035024007162L53.207734375,134.98913606007895L53.41316964285714,135.11590109931097L53.61860491071428,135.30572520362006L53.82404017857143,135.201293097602L54.02947544642857,135.23203002081976L54.23491071428572,135.34745958116318L54.44034598214286,135.15519354078506L54.64578125,135.13080332014297L54.85121651785715,135.11856449974908L55.26208705357143,135.34432993994818L55.467522321428575,135.31894895765518L55.67295758928571,135.49145804511176L55.878392857142856,135.49499564700656L56.083828125000004,135.44669310251874L56.494698660714285,135.45003838009305L56.70013392857143,135.6796794467502L56.90556919642857,135.68876531389023L57.11100446428571,135.73642677730984L57.31643973214286,135.85014873080783L57.72731026785714,135.75719197591147L57.93274553571428,135.89755376180014L58.13818080357143,135.9344916873508L58.34361607142857,135.77983962164984L58.54905133928571,135.64700179629855L58.75448660714286,135.66889180077447L58.959921875,135.67759301927353L59.576227678571435,135.6446181403266L59.78166294642857,135.42999585469565L59.987098214285716,135.19434028201633L60.19253348214286,135.17975860171848L60.39796875,135.2465475930108L60.808839285714285,135.11827309926352L61.21970982142857,135.24903032514786L61.425145089285714,135.34934785630966L61.630580357142854,135.3559160232544L61.836015625,149.29212093353271L62.24688616071429,140.9060287475586L62.45232142857143,141.97355694240994L62.65775669642857,142.64001899295383L62.86319196428572,141.64545747968887L63.06862723214285,141.87653806474472L63.2740625,141.51795811123318L63.47949776785715,140.97395420074463L63.68493303571428,141.24184449513754L63.89036830357143,141.10639572143555L64.09580357142858,141.29293282826742L64.50667410714286,140.91669983334012L64.712109375,140.8668703503079L64.91754464285714,140.67732599046494L65.12297991071428,140.52023198869492L65.53385044642857,140.0505468580458L65.73928571428571,140.15852239396835L65.94472098214285,140.15173276265463L66.15015625000001,139.90645514594183L66.35559151785714,140.00536812676324L66.56102678571429,140.19997702704535L66.76646205357143,140.26259899139404L66.97189732142857,140.26566452450223L67.17733258928571,139.89570246802435L67.79363839285715,139.79595608181424L67.99907366071429,139.74902311960858L68.20450892857143,139.72183545430502L68.40994419642857,139.73262892829047L68.61537946428571,139.87574736277264L68.82081473214286,139.88258944617377L69.02625,139.862150616116L69.23168526785715,139.81679704454208L69.43712053571429,139.60821840498184L69.64255580357143,139.62538772159152L69.84799107142857,139.78641562991672L70.25886160714285,139.64666578504776L70.464296875,139.66043154398602L70.87516741071428,139.84929402669272L71.08060267857142,139.8633162180583L71.28603794642858,139.94194772508408L71.49147321428572,139.91246965196396L71.69690848214286,139.89656501346164L71.90234375,139.83604113260907L72.51864955357144,146.5717691845364L72.72408482142856,145.56759728325738L72.92952008928572,145.03686957889133L73.13495535714286,145.44848442077637L73.54582589285715,146.51070329878067L73.7512611607143,146.483154296875L73.95669642857142,145.455821885003L74.16213169642856,145.0262509451972L74.57300223214285,144.95428085327148L74.7784375,144.81066120995416L75.18930803571429,144.28318553500705L75.60017857142857,144.2368761698405L75.80561383928571,144.07941500345868L76.21648437500001,143.87106948428683L76.42191964285715,143.6533816655477L76.83279017857143,143.49942313300238L77.03822544642857,143.4728299246894L77.24366071428571,143.5182825724284L77.44909598214286,143.573030895657L77.85996651785715,143.2370111677382L78.06540178571429,143.24299070570206L78.27083705357143,143.1530237197876L78.47627232142857,143.15294795566135L78.68170758928572,143.14678774939642L78.88714285714286,143.39228683047824L79.092578125,143.32581837972006L79.29801339285713,143.42580954233807L79.50344866071428,143.4096426433987L79.70888392857142,143.53882630666098L79.91431919642856,143.62645626068115L80.11975446428572,143.51745499504938L80.32518973214286,143.50467416975235L80.530625,143.5381327735053L81.35236607142858,143.54846583472357L81.55780133928572,143.59493255615234L81.76323660714286,143.51735591888428L81.968671875,143.41766781277127L82.17410714285714,143.40730561150446L82.37954241071428,146.44809881846112L82.58497767857143,144.03108331892227L82.99584821428572,146.11751662360297L83.20128348214287,146.68472475475735L83.40671875,146.42105685340033L83.61215401785714,146.71657191382513L83.81758928571429,145.8699893951416L84.02302455357143,146.35744412740073L84.22845982142857,146.73423369725546L84.63933035714285,146.9075091679891L84.844765625,146.8550075425042L85.05020089285713,146.63785881466336L85.25563616071429,146.73537015914917L85.46107142857143,146.51771439446344L85.66650669642857,146.51609420776367L86.07737723214285,146.8190370665656L86.28281249999999,146.8536263042026L86.48824776785715,146.7172071668837L86.69368303571429,146.6698604159885L86.89911830357143,146.9187076886495L87.30998883928571,146.95656935373944L87.51542410714285,146.86067236794366L87.92629464285714,146.96820206112332L88.33716517857144,146.94982634650336L88.54260044642858,146.94005568822226L88.7480357142857,146.85685793558758L88.95347098214286,146.8997112909953L89.15890625,146.99353059132895L89.36434151785714,147.03476084603204L89.77521205357144,146.85218387179904L89.98064732142856,146.68538914786444L90.1860825892857,146.80932468838162L90.596953125,146.75208197699652L90.80238839285714,146.72933525509305L91.0078236607143,146.67499780654907L91.21325892857142,146.609394815233L91.41869419642856,146.59173594580756L91.62412946428572,146.62729846106635L91.82956473214286,146.55635992685956L92.035,146.59412542978924L92.24043526785715,146.58496962653265L92.44587053571429,146.50793499416775L92.65130580357142,152.5694963667128L93.06217633928571,148.70469835069443L93.26761160714285,149.63645723130966L93.47304687500001,150.0315817197164L93.67848214285715,149.98560746510825L94.08935267857143,150.38567119174533L94.29478794642857,150.57269202338324L94.70565848214287,149.97744242350262L94.91109375,149.8917735947503L95.11652901785715,150.19276989830865L95.32196428571427,149.63868935902914L95.52739955357143,149.43798144658408L95.73283482142857,149.4441533088684L95.93827008928571,149.56223169962567L96.14370535714286,149.495247470008L96.349140625,149.34071487850613L96.55457589285713,149.2065774069892L97.37631696428572,149.5279688305325L97.58175223214286,149.46361011928983L97.7871875,149.26314406924777L98.19805803571428,149.04768255021835L98.40349330357142,148.95330667495728L99.01979910714286,148.9725595050388L99.225234375,149.07214853498672L99.63610491071428,149.08803860346478L99.84154017857144,149.10282717810736L100.04697544642858,149.12439955605402L100.66328125,149.03540293375653L100.86871651785714,149.1226511531406L101.07415178571428,149.1375009218852L101.27958705357143,149.08161905076767L101.48502232142857,149.13322316275702L101.69045758928571,149.2025677363078L101.89589285714285,149.2198944091797L102.101328125,149.28062518437704L102.30676339285714,149.3475161658393L102.51219866071429,149.25358613332114L102.71763392857143,149.2695228258769L102.92306919642857,151.14779419369168L103.12850446428573,153.0113090409173L103.33393973214285,152.5232219696045L103.53937499999999,152.86339706844754L103.74481026785715,152.3631673389011L103.95024553571429,151.8506521648831L104.15568080357143,152.8884720802307L104.36111607142858,153.262706067827L104.56655133928571,153.47283204396567L104.77198660714285,153.35567156473797L104.977421875,153.40186145570541L105.38829241071429,153.2074040836758L105.59372767857144,152.9409533076816L105.79916294642858,152.69666645261978L106.0045982142857,152.63477590348984L106.62090401785714,152.22943200005426L106.82633928571428,152.3880296283298L107.03177455357144,152.3042956988017L107.23720982142856,152.35536654790243L107.4426450892857,152.28389475080704L107.64808035714286,152.214232550727L107.853515625,152.20533026589288L108.05895089285714,152.1772101190355L108.2643861607143,152.04714351230197L108.46982142857144,152.14791854222617L108.88069196428572,152.10402488708496L109.08612723214286,152.02770709991455L109.2915625,152.1262616581387L109.90786830357142,152.23246547910904L110.11330357142856,152.09755579630536L110.31873883928571,152.01385392083063L110.52417410714285,151.95093472798666L110.729609375,151.907070212894L110.93504464285715,151.91675927903916L111.14047991071429,151.83140516281128L111.34591517857142,151.85253461201987L111.75678571428571,151.9196120897929L111.96222098214285,151.93313890033298L112.16765625000001,151.75621509552002L112.37309151785715,151.56499518288507L113.19483258928571,163.73532480663724L113.40026785714286,156.75146632724338L113.605703125,155.4978060722351L113.81113839285715,154.158931573232L114.01657366071429,154.95400031407672L114.22200892857143,154.59612846374512L114.42744419642857,155.032340420617L114.83831473214286,155.03312720192804L115.24918526785713,155.415444638994L115.45462053571428,155.08264780044556L115.66005580357142,155.21989742914838L115.86549107142856,155.00776370366412L116.07092633928572,154.92807149887085L116.27636160714286,154.95455106099445L116.481796875,154.91915464401245L116.89266741071428,154.52722681893243L117.09810267857142,154.3268977271186L117.30353794642858,154.34408744176227L117.50897321428572,154.34038665559555L117.91984375,154.3830418586731L118.12527901785714,154.3435600068834L118.33071428571428,154.22438886430527L118.94702008928572,154.12871917088825L119.15245535714287,153.92832597096762L119.357890625,153.82919443978204L119.56332589285714,153.83859210544162L119.76876116071429,153.81339761945938L119.97419642857143,153.76234425438776L120.17963169642857,153.7348943286472L120.59050223214285,153.82456700007123L120.7959375,153.77284632788763L121.00137276785713,153.69142611821493L121.20680803571429,153.67406156327988L121.41224330357143,153.69472185770672L121.61767857142857,153.70195150375366L122.23398437499999,153.5617791281806L122.43941964285715,153.60202736324734L122.85029017857143,153.62136761347455L123.05572544642858,153.51886457867093L123.26116071428571,153.49847237269086L123.67203125,158.89762507544623L123.87746651785714,158.76030259662204L124.08290178571428,158.93075439665054L124.6992075892857,161.22703101899887L124.90464285714286,160.87697744369507L125.110078125,161.3556668493483L125.31551339285714,161.61089579264325L125.5209486607143,161.37618435753717L125.72638392857144,161.28838539123535L125.93181919642856,161.19020382563275L126.1372544642857,161.30885627534653L126.34268973214286,161.20152182049222L126.75356026785714,161.3450773557027L126.9589955357143,161.36414660347833L127.16443080357142,161.39710691240097L127.36986607142856,161.467375225491L127.57530133928572,161.54698583814834L127.78073660714286,161.54987653096515L128.19160714285715,161.56799872716266L128.80791294642856,161.40580813090008L129.0133482142857,161.42882002724542L129.62965401785715,161.56407939063178L129.83508928571428,161.50824414359198L130.04052455357143,161.54605627059937L130.24595982142856,161.61539793014526L130.4513950892857,161.57512055502997L130.65683035714287,161.6028939353095L130.862265625,161.6150715616014L131.06770089285715,161.58630741967096L131.27313616071427,161.62875281439887L131.47857142857143,161.66966252856784L131.68400669642858,161.72646231121487L131.8894419642857,161.6711399290297L132.09487723214286,161.61665386623807L132.30031250000002,161.68022871017456L132.50574776785714,161.75568686591254L132.91661830357143,161.77158276240033L133.12205357142858,161.762826177809L133.3274888392857,161.85522344377304L133.73835937500002,161.90873914294772L134.14922991071427,162.3580641216702L134.35466517857142,162.49715831544663L134.56010044642858,163.09968418545193L134.7655357142857,162.91420194837784L134.97097098214286,162.73377259572345L135.38184151785714,162.3429462644789L135.5872767857143,162.55361715952557L135.79271205357142,162.52441300286188L135.99814732142858,162.62163003285724L136.20358258928573,162.61281808217365L136.40901785714286,162.75279230541653L136.61445312499998,162.65796767340765L137.0253236607143,162.8367680973477L137.23075892857142,162.58458720313178L137.43619419642857,162.8021060095893L137.64162946428573,162.90506654315524L137.84706473214285,162.78060356775921L138.0525,162.7049210336473L138.25793526785714,162.78378857506647L138.4633705357143,162.73840586344403L138.87424107142857,162.75980048709445L139.07967633928573,162.80492968029446L139.28511160714285,162.67380820380316L139.9014174107143,162.7154843012492L140.72315848214285,162.90397087732953L140.92859375,162.99767944547867L141.13402901785713,163.0723712179396L141.54489955357144,163.0465094248454L141.75033482142857,163.08392816119724L141.95577008928572,163.04922527737088L142.16120535714285,163.11293707953558L142.366640625,163.19541798697577L142.57207589285716,163.2197120454576L142.77751116071428,163.17905293570624L142.98294642857144,163.21819967693753L143.18838169642856,163.2878239949544L143.39381696428572,163.30032216178046L143.59925223214285,163.37652047475177L143.8046875,163.38742176691693L144.21555803571428,160.02755377027725L144.4209933035714,162.94339444902207L144.6264285714286,163.8809784253438L144.83186383928572,164.14417425791424L145.03729910714287,163.7500172191196L145.242734375,164.0889072418213L145.44816964285712,164.04495239257812L145.65360491071428,164.2201277944777L145.85904017857143,164.00646421644424L146.0644754464286,164.29238345887924L146.47534598214284,164.7150132391188L146.68078125,164.34863832261826L146.88621651785712,164.51742331186932L147.0916517857143,164.6664892302619L147.29708705357143,164.55474588606094L147.5025223214286,164.62079180611505L147.7079575892857,164.65100129445392L147.91339285714284,164.75985685984296L148.118828125,164.71220705244278L148.32426339285712,164.64479737811618L148.5296986607143,164.4460243648953L148.73513392857143,164.3525955412123L149.1460044642857,164.21996461020575L149.35143973214284,164.07128625445895L149.556875,164.2156023449368L149.76231026785715,164.24879286024307L149.9677455357143,164.17453818851047L150.5840513392857,164.2483819855584L150.78948660714283,164.24698909123737L150.99492187500002,164.16128529442682L151.20035714285714,164.17371061113144L151.4057924107143,164.22411415312027L151.61122767857142,164.2216984430949L152.0220982142857,164.2970371246338L152.22753348214286,164.3302567799886L152.43296875000001,164.33286481433444L152.63840401785714,164.37700033187866L152.8438392857143,164.2849614885118L153.04927455357142,164.26656537585788L153.25470982142855,164.2884291542901L153.871015625,164.27844868765936L154.07645089285714,164.3117382791307L154.48732142857142,161.84956153233844L154.69275669642855,164.46444670359296L154.89819196428573,164.5667603280809L155.10362723214286,164.60197024875217L155.3090625,164.63799317677814L155.92536830357142,164.7467409239875L156.13080357142857,165.01694785224066L156.33623883928573,165.1814405123393L156.54167410714285,165.243980884552L156.95254464285713,165.6360952059428L157.36341517857144,165.39974027209811L157.77428571428572,165.26242362128363L158.18515625,165.28253899680243L158.39059151785713,165.05492316351996L158.59602678571426,165.0100066926744L158.80146205357144,165.17525408003067L159.00689732142857,165.23262209362454L159.41776785714285,165.35677327050104L159.623203125,165.32081736458673L159.82863839285713,165.32303200827704L160.03407366071428,165.32622575759888L160.23950892857144,165.2238451109992L160.44494419642857,165.13584799236722L160.85581473214285,165.19722276263767L161.06125,165.1687675052219L161.26668526785716,165.2224784427219L161.47212053571428,165.2752335866292L161.88299107142856,165.17990191777545L162.08842633928572,165.1050353050232L162.29386160714284,165.05494356155396L162.499296875,165.04880666732788L162.91016741071428,165.050540500217L163.11560267857143,165.09987168841892L163.32103794642856,165.06230142381455L163.52647321428572,165.12575679355197L163.73190848214287,165.10914987987942L163.93734375,165.1980474260118L164.14277901785715,165.1958794063992L164.34821428571428,165.1924933327569L164.55364955357143,165.11811918682523L164.96452008928574,164.36940934922958L165.16995535714287,163.4404508272807L165.58082589285715,165.60040447447037L165.78626116071428,165.60946702957153L165.99169642857143,166.34315225813125L166.19713169642856,166.56883902019925L166.40256696428574,166.38368315166898L166.60800223214287,166.51926888359918L166.8134375,166.07197205225629L167.01887276785715,166.0642557673984L167.22430803571427,166.11104011535645L167.63517857142858,166.07176224390668L167.8406138392857,166.15190029144287L168.04604910714286,165.88898711734348L168.251484375,165.87910864088272L168.45691964285714,165.62668297025894L168.66235491071427,165.81949101554022L168.86779017857145,165.71529785792035L169.07322544642858,165.81777175267536L169.2786607142857,165.7589117685954L169.48409598214286,165.7599374983046L169.68953125,165.6995826297336L169.89496651785714,165.68886783387924L170.10040178571427,165.63837978574966L170.30583705357145,165.71103758282132L170.51127232142858,165.72815736134845L170.7167075892857,165.633446375529L170.92214285714286,165.64822329415216L171.12757812499999,165.71332799063788L171.33301339285714,165.7051920890808L171.5384486607143,165.6870786348979L171.74388392857145,165.69413052664862L171.94931919642858,165.68682220247055L172.36018973214286,165.69532526863946L172.56562499999998,165.6780423058404L172.77106026785717,165.66713518566556L173.18193080357142,165.6653168466356L173.38736607142857,165.6927988264296L173.5928013392857,165.66022608015274L173.79823660714285,165.64968029658002L174.003671875,165.70629358291626L175.0308482142857,167.77835501564874L175.23628348214288,164.57132657368976L175.44171875,165.50670756234064L175.8525892857143,165.41665315628052L176.0580245535714,164.971690442827L176.26345982142857,165.8342679341634L176.4688950892857,165.80286661783856L176.67433035714288,166.2169000837538L177.08520089285716,166.50248130162555L177.29063616071429,166.5767068333096L177.4960714285714,166.4192048708598L177.70150669642857,166.2742593553331L177.90694196428572,166.21669901741876L178.11237723214288,166.19464291466608L178.3178125,166.19912756813898L178.52324776785713,166.17853720982868L178.72868303571428,166.14448997709488L178.9341183035714,165.99449157714844L179.1395535714286,166.11629989412094L179.34498883928572,166.25419351789688L179.55042410714287,166.25494824515448L179.96129464285713,166.4905251397027L180.16672991071428,166.49015214708115L180.3721651785714,166.50099515914917L180.5776004464286,166.49133814705743L180.78303571428572,166.40173541174994L180.98847098214287,166.31859593921237L181.19390625,166.38678656684027L181.39934151785712,166.40154891543918L181.60477678571428,166.37006309297348L182.22108258928571,166.29353258344864L182.42651785714284,166.37362692091202L182.631953125,166.4615511894226L182.83738839285712,166.36040899488663L183.0428236607143,166.36246336830988L183.24825892857143,166.22941573460895L183.6591294642857,166.18355221218533L183.86456473214284,166.10197756025528L184.07,166.0775989956326L184.27543526785712,166.04725546307034L184.4808705357143,166.10842333899603L184.68630580357143,166.0810200373332L184.89174107142858,166.08017497592502L185.0971763392857,166.07257233725653L185.508046875,167.61202361848618L185.71348214285715,167.77722146775986L185.9189174107143,165.98321146435208L186.12435267857143,165.01646121342975L186.32978794642858,165.9443940056695L186.5352232142857,165.6770369741652L186.74065848214283,166.2247183587816L186.94609375000002,166.28233114878338L187.15152901785714,166.40796264012653L187.3569642857143,166.42929898367987L187.76783482142855,166.4379360940721L187.9732700892857,166.52527173360187L188.17870535714286,166.5658375951979L188.58957589285714,166.72673145929974L188.7950111607143,166.97038888931274L189.00044642857142,166.88430335786606L189.20588169642855,166.84136841032242L189.41131696428573,166.84615903430515L189.61675223214286,167.00769689348007L189.8221875,166.86344782511395L190.02762276785714,166.85172769758438L190.2330580357143,166.62613709767658L190.43849330357142,166.59474743737115L190.64392857142855,166.58730215496487L190.84936383928573,166.64432922999066L191.05479910714286,166.56415038638644L191.260234375,166.58091174231635L191.6711049107143,166.48009300231934L191.87654017857142,166.4591908454895L192.08197544642857,166.48634645673965L192.28741071428573,166.3840823703342L192.49284598214285,166.3505596584744L192.69828125,166.2998734580146L193.10915178571426,166.35670529471503L193.31458705357144,166.44867420196533L193.72545758928572,166.58773051367865L193.93089285714285,166.63955317603217L194.34176339285713,166.60716109805637L194.75263392857144,166.60207324557834L195.36893973214285,166.51918437745834L195.574375,161.780452993181L196.19068080357144,167.58754306369357L196.39611607142857,167.45484511057538L196.60155133928572,167.89437611897785L196.80698660714285,167.38858355416193L197.012421875,167.4799346923828L197.42329241071428,167.22862217161392L197.62872767857144,167.23578188154434L197.83416294642856,167.44010024600558L198.45046875,167.51006258858575L198.65590401785715,167.31705056296454L199.06677455357143,167.24642091327243L199.27220982142856,167.2905185487535L199.47764508928572,167.31042120191788L199.68308035714287,167.31100108888413L199.888515625,167.35502587424384L200.09395089285715,167.39991611904568L200.29938616071428,167.24375168482464L200.71025669642856,167.17130078209772L200.91569196428574,167.23095920350815L201.12112723214287,167.23034143447876L201.53199776785715,167.32651816474066L201.73743303571428,167.1428542666965L201.94286830357143,167.1973141034444L202.14830357142856,167.16994285583496L202.35373883928574,167.11958010991412L202.55917410714287,167.07191281848483L202.764609375,167.18782901763916L202.97004464285715,167.17248969607883L203.17547991071427,167.11569865544635L203.38091517857143,167.0861331621806L203.58635044642858,167.09369791878595L203.99722098214286,166.98453638288711L204.20265625,166.88928339216446L204.61352678571427,166.90947744581436L205.02439732142858,166.86735841963028L205.2298325892857,166.929616133372L205.84613839285714,149.75106504228378L206.05157366071427,162.9072199927436L206.46244419642858,164.94569169150458L206.6678794642857,165.07882674535114L206.87331473214286,164.97972435421414L207.07874999999999,165.26941140492755L207.28418526785714,165.57511965433758L207.69505580357145,165.89564853244357L207.90049107142858,165.90768920050726L208.31136160714286,165.81527445051407L208.51679687499998,166.28314415613812L208.9276674107143,166.3620087835524L209.13310267857142,166.61889288160538L209.33853794642857,166.76064756181503L209.5439732142857,166.88817898432416L209.74940848214285,166.83506541781955L209.95484375,166.81187868118286L210.16027901785716,166.92947917514377L210.3657142857143,166.8926140997145L210.57114955357142,166.85288455751206L210.9820200892857,167.0170013109843L211.18745535714288,167.20405711068048L211.392890625,167.1744916174147L211.59832589285716,167.1723673078749L211.8037611607143,167.1851685312059L212.0091964285714,167.26055092281766L212.21463169642857,167.32096698549057L212.4200669642857,167.3075334231059L212.62550223214288,167.27022250493366L212.8309375,167.3187232017517L213.24180803571429,167.3565091027154L213.65267857142857,167.30916235182022L213.85811383928572,167.30333434210883L214.06354910714288,167.3733287387424L214.268984375,167.3871061537001L214.47441964285713,167.29168123669095L214.67985491071428,167.26893160078262L214.8852901785714,167.25719107521905L215.0907254464286,167.27482663260565L215.29616071428572,167.27751917309232L215.50159598214287,167.2935258017646L215.70703125,167.30516725116306L215.91246651785713,167.30732944276596L216.3233370535714,166.37788428200616L216.73420758928572,165.81759399837918L216.93964285714287,165.9731231795417L217.145078125,166.28203100628323L217.35051339285712,166.20902644263373L217.76138392857143,166.50548564063178L217.9668191964286,166.6456201341417L218.17225446428571,166.65740728378296L218.37768973214284,166.3594823413425L218.583125,166.09619326061673L218.78856026785712,166.15211884180707L218.9939955357143,166.24241219626532L219.4048660714286,166.15766419304742L219.6103013392857,166.10357734892105L220.22660714285712,166.2933577431573L220.4320424107143,166.3103434774611L221.0483482142857,166.27586205800372L221.25378348214284,166.22705830468072L221.45921875,166.39158884684247L221.66465401785715,166.3716133435567L221.8700892857143,166.3447986708747L222.07552455357143,166.3665050930447L222.28095982142858,166.32862885793048L222.4863950892857,166.3407890001933L222.69183035714283,166.37477212482028L223.3081361607143,166.36404858695136L223.51357142857142,166.39744599660236L223.71900669642855,166.45531521903143L223.9244419642857,166.42911540137396L224.12987723214286,166.41666677263046L224.54074776785714,166.45209232966107L224.7461830357143,166.49236679077148L224.95161830357142,166.44741826587253L225.15705357142855,166.42474439409042L225.36248883928573,166.49703211254544L225.773359375,166.44558244281345L225.97879464285714,166.4505449930827L226.1842299107143,166.30391518274945L226.38966517857142,166.3078694873386L226.59510044642855,170.91667996512518L226.80053571428573,166.52984380722046L227.00597098214286,166.36429919136896L227.21140625,166.93551990720962L227.41684151785714,166.7289898130629L227.6222767857143,167.11995310253567L228.03314732142857,167.34908713234796L228.44401785714285,167.26696756150986L228.85488839285713,166.7363010512458L229.06032366071426,166.6570692592197L229.26575892857144,166.83012035157944L229.47119419642857,166.8354121843974L229.67662946428572,166.8195978800456L230.29293526785713,166.66672627131146L230.70380580357144,166.52852376302081L230.90924107142857,166.4102472199334L231.32011160714285,166.537586318122L231.525546875,166.49703794055515L231.73098214285713,166.61452187432184L231.93641741071428,166.593316660987L232.14185267857144,166.47077110078598L232.55272321428572,166.52446746826172L233.37446428571428,166.56974527570938L233.57989955357144,166.5792653295729L233.78533482142856,166.57766554090713L233.99077008928572,166.49163246154785L234.19620535714284,166.5313008096483L235.01794642857143,166.56056324640912L235.22338169642856,166.50075329674615L235.42881696428572,166.58888737360638L235.63425223214287,166.59496307373047L236.04512276785715,166.53123378753662L236.25055803571428,166.56034178204007L236.45599330357143,166.59882704416913L236.86686383928574,165.2918317582872L237.07229910714287,166.59418212042914L237.277734375,164.1378887494405L237.68860491071428,165.57522747251724L238.09947544642856,165.14950301912094L238.30491071428574,165.46045939127606L238.51034598214287,166.1764332983229L238.92121651785715,165.98201963636612L239.12665178571427,165.9251120355394L239.33208705357143,166.2227397494846L239.53752232142858,166.30002207226224L239.7429575892857,166.2679359647963L239.94839285714286,166.39370732837253L240.153828125,166.30359172821045L240.35926339285714,166.17006911171808L240.56469866071427,166.0812152756585L240.77013392857145,166.05789740880329L240.97556919642858,166.02922651502823L241.1810044642857,166.08447313308716L241.38643973214286,166.1190332306756L241.79731026785714,166.42720964219833L242.00274553571427,166.47570742501154L242.20818080357145,166.3976528909471L242.6190513392857,166.4736122555203L242.82448660714286,166.422209209866L243.02992187499999,166.43582344055176L243.23535714285714,166.44643041822647L243.64622767857145,166.3918073972066L243.85166294642858,166.407306989034L244.0570982142857,166.35868973202176L244.26253348214286,166.39797925949097L244.8788392857143,166.41537586847943L245.08427455357142,166.38757043414645L245.28970982142857,166.3468443022834L245.4951450892857,166.3718377219306L246.3168861607143,166.49116622077094L246.72775669642857,166.56886524624295L246.9331919642857,166.55282656351727L247.13862723214288,166.3313913345337L247.3440625,167.39782677756415L247.54949776785716,166.48327218161688L247.7549330357143,165.734547773997L247.9603683035714,165.0067226092021L248.16580357142857,165.1318033536275L248.3712388392857,165.1103475358751L248.57667410714288,165.43346113628812L248.782109375,165.62601857715183L248.98754464285716,165.6360689798991L249.19297991071429,165.67934778001572L249.3984151785714,165.7719577683343L249.60385044642857,165.45719279183282L250.01472098214288,165.7666513654921L250.22015625,165.99454985724554L250.42559151785713,166.06496969858807L250.63102678571428,166.01409408781265L250.8364620535714,166.06064822938706L251.0418973214286,165.95185094409518L251.24733258928572,165.98059468799167L251.86363839285713,166.03366745842828L252.06907366071428,166.08882082833185L252.4799441964286,166.07363886303372L252.68537946428572,166.02543830871582L252.89081473214287,166.2354098425971L253.09625,166.23807032903034L253.30168526785712,166.22332837846542L253.50712053571428,166.24308241738214L253.71255580357143,166.2478642993503L253.9179910714286,166.41756137212116L254.12342633928571,166.38287597232394L254.32886160714284,166.38123830159503L254.73973214285712,166.40280485153198L254.9451674107143,166.43943972057767L255.3560379464286,166.37073914210004L255.5614732142857,166.42507950464886L255.97234375,166.43718428081937L256.1777790178571,166.48531781302557L256.3832142857143,166.49073786205716L256.58864955357143,166.60017331441242L256.7940848214286,166.6625912984212L256.99952008928574,166.6577394803365L257.20495535714286,166.6538463698493L257.410390625,161.43776019414264L257.6158258928571,165.71322017245822L258.0266964285714,166.48385498258804L258.2321316964286,166.22848325305515L258.43756696428574,166.03426774342853L258.8484375,166.52361366483902L259.0538727678571,166.43630716535782L259.2593080357143,166.15248600641888L259.4647433035714,166.17131339179144L259.67017857142855,166.05194409688312L259.87561383928573,166.15510569678412L260.08104910714286,166.06357389026218L260.286484375,166.10790464613174L260.4919196428571,166.12259997261896L260.6973549107143,166.12165000703598L261.51909598214286,166.28081003824872L261.72453125,166.28701395458646L261.9299665178571,166.3489219877455L262.3408370535714,166.47949271731906L262.54627232142855,166.44983688990277L262.75170758928573,166.4097197850545L262.95714285714286,166.49788008795844L263.162578125,166.57296233707004L263.36801339285716,166.59960216946072L263.5734486607143,166.64659632576837L263.98431919642854,166.60979244444107L264.1897544642857,166.6231123606364L264.39518973214285,166.64934131834244L264.80606026785716,166.72146293852066L265.0114955357143,166.68148861991034L265.2169308035714,166.68959829542374L265.42236607142854,166.70771174960666L265.83323660714285,166.71516868803238L266.03867187500003,166.7320903142293L266.24410714285716,166.74685557683307L266.4495424107143,166.71927160686917L266.6549776785714,166.7683638466729L266.86041294642854,166.7982382244534L267.47671875000003,166.78333891762628L267.68215401785716,159.71048090193008L268.29845982142854,166.50319231881036L268.5038950892857,166.48308568530612L268.70933035714285,167.3186911476983L269.12020089285716,166.87158955468072L269.3256361607143,167.21693992614746L269.5310714285714,166.7954436937968L269.9419419642857,166.6168647342258L270.14737723214284,166.57386276457046L270.35281249999997,166.7799907260471L270.7636830357143,166.58079226811725L270.96911830357146,166.48144510057236L271.1745535714286,166.32868713802762L271.3799888392857,166.5105618370904L271.58542410714284,166.67931185828314L271.79085937499997,166.69108443790012L271.99629464285715,166.73190090391373L272.40716517857146,166.647289858924L273.02347098214284,166.76751295725506L273.22890624999997,166.56693326102362L273.84521205357146,166.5916148821513L274.0506473214286,166.6272939576043L274.2560825892857,166.4884066581726L274.46151785714284,166.55448463228012L274.66695312499996,166.61320474412705L275.0778236607143,166.75288756688434L275.28325892857146,166.78083287345038L275.4886941964286,166.63246048821344L275.6941294642857,166.68689118491278L275.89956473214284,166.72651290893555L276.105,166.76413271162247L276.31043526785714,166.74938493304782L276.51587053571427,166.74358897738986L276.72130580357145,166.7462174097697L276.9267410714286,166.76559554206L277.1321763392857,166.78975847032333L277.3376116071429,166.86396651797824L277.543046875,166.82902759975858L277.74848214285714,166.83613777160645" style="fill: none;" fill="none"></path></g></g></g></g></g></g><g transform="translate(42, 176)" clip-path="url(#clip_1)"><clipPath id="clip_1"><rect width="287" height="24"></rect></clipPath><g><g><line x1="0" y1="0" x2="0" y2="5" style="visibility: inherit;" fill="rgb(0, 0, 0)" stroke="rgb(204, 204, 204)" stroke-width="1px"></line><line x1="20.543526785714285" y1="0" x2="20.543526785714285" y2="5" style="visibility: inherit;" fill="rgb(0, 0, 0)" stroke="rgb(204, 204, 204)" stroke-width="1px"></line><line x1="41.08705357142857" y1="0" x2="41.08705357142857" y2="5" style="visibility: inherit;" fill="rgb(0, 0, 0)" stroke="rgb(204, 204, 204)" stroke-width="1px"></line><line x1="61.630580357142854" y1="0" x2="61.630580357142854" y2="5" style="visibility: inherit;" fill="rgb(0, 0, 0)" stroke="rgb(204, 204, 204)" stroke-width="1px"></line><line x1="82.17410714285714" y1="0" x2="82.17410714285714" y2="5" style="visibility: inherit;" fill="rgb(0, 0, 0)" stroke="rgb(204, 204, 204)" stroke-width="1px"></line><line x1="102.71763392857143" y1="0" x2="102.71763392857143" y2="5" style="visibility: inherit;" fill="rgb(0, 0, 0)" stroke="rgb(204, 204, 204)" stroke-width="1px"></line><line x1="123.26116071428571" y1="0" x2="123.26116071428571" y2="5" style="visibility: inherit;" fill="rgb(0, 0, 0)" stroke="rgb(204, 204, 204)" stroke-width="1px"></line><line x1="143.8046875" y1="0" x2="143.8046875" y2="5" style="visibility: inherit;" fill="rgb(0, 0, 0)" stroke="rgb(204, 204, 204)" stroke-width="1px"></line><line x1="164.34821428571428" y1="0" x2="164.34821428571428" y2="5" style="visibility: inherit;" fill="rgb(0, 0, 0)" stroke="rgb(204, 204, 204)" stroke-width="1px"></line><line x1="184.89174107142858" y1="0" x2="184.89174107142858" y2="5" style="visibility: inherit;" fill="rgb(0, 0, 0)" stroke="rgb(204, 204, 204)" stroke-width="1px"></line><line x1="205.43526785714286" y1="0" x2="205.43526785714286" y2="5" style="visibility: inherit;" fill="rgb(0, 0, 0)" stroke="rgb(204, 204, 204)" stroke-width="1px"></line><line x1="225.97879464285714" y1="0" x2="225.97879464285714" y2="5" style="visibility: inherit;" fill="rgb(0, 0, 0)" stroke="rgb(204, 204, 204)" stroke-width="1px"></line><line x1="246.52232142857142" y1="0" x2="246.52232142857142" y2="5" style="visibility: inherit;" fill="rgb(0, 0, 0)" stroke="rgb(204, 204, 204)" stroke-width="1px"></line><line x1="267.0658482142857" y1="0" x2="267.0658482142857" y2="5" style="visibility: inherit;" fill="rgb(0, 0, 0)" stroke="rgb(204, 204, 204)" stroke-width="1px"></line><line x1="287.609375" y1="0" x2="287.609375" y2="5" style="visibility: inherit;" fill="rgb(0, 0, 0)" stroke="rgb(204, 204, 204)" stroke-width="1px"></line></g><g transform="translate(0, 8)"><text x="0" y="0" dx="0em" dy="0.95em" style="text-anchor: middle; visibility: hidden; font-family: Roboto, sans-serif; font-size: 12px; font-weight: 200;" fill="rgb(33, 33, 33)" stroke="none" stroke-width="1px">-10k</text><text x="20.543526785714285" y="0" dx="0em" dy="0.95em" style="text-anchor: middle; visibility: inherit; font-family: Roboto, sans-serif; font-size: 12px; font-weight: 200;" fill="rgb(33, 33, 33)" stroke="none" stroke-width="1px">0</text><text x="41.08705357142857" y="0" dx="0em" dy="0.95em" style="text-anchor: middle; visibility: hidden; font-family: Roboto, sans-serif; font-size: 12px; font-weight: 200;" fill="rgb(33, 33, 33)" stroke="none" stroke-width="1px">10k</text><text x="61.630580357142854" y="0" dx="0em" dy="0.95em" style="text-anchor: middle; visibility: inherit; font-family: Roboto, sans-serif; font-size: 12px; font-weight: 200;" fill="rgb(33, 33, 33)" stroke="none" stroke-width="1px">20k</text><text x="82.17410714285714" y="0" dx="0em" dy="0.95em" style="text-anchor: middle; visibility: hidden; font-family: Roboto, sans-serif; font-size: 12px; font-weight: 200;" fill="rgb(33, 33, 33)" stroke="none" stroke-width="1px">30k</text><text x="102.71763392857143" y="0" dx="0em" dy="0.95em" style="text-anchor: middle; visibility: inherit; font-family: Roboto, sans-serif; font-size: 12px; font-weight: 200;" fill="rgb(33, 33, 33)" stroke="none" stroke-width="1px">40k</text><text x="123.26116071428571" y="0" dx="0em" dy="0.95em" style="text-anchor: middle; visibility: hidden; font-family: Roboto, sans-serif; font-size: 12px; font-weight: 200;" fill="rgb(33, 33, 33)" stroke="none" stroke-width="1px">50k</text><text x="143.8046875" y="0" dx="0em" dy="0.95em" style="text-anchor: middle; visibility: inherit; font-family: Roboto, sans-serif; font-size: 12px; font-weight: 200;" fill="rgb(33, 33, 33)" stroke="none" stroke-width="1px">60k</text><text x="164.34821428571428" y="0" dx="0em" dy="0.95em" style="text-anchor: middle; visibility: hidden; font-family: Roboto, sans-serif; font-size: 12px; font-weight: 200;" fill="rgb(33, 33, 33)" stroke="none" stroke-width="1px">70k</text><text x="184.89174107142858" y="0" dx="0em" dy="0.95em" style="text-anchor: middle; visibility: inherit; font-family: Roboto, sans-serif; font-size: 12px; font-weight: 200;" fill="rgb(33, 33, 33)" stroke="none" stroke-width="1px">80k</text><text x="205.43526785714286" y="0" dx="0em" dy="0.95em" style="text-anchor: middle; visibility: hidden; font-family: Roboto, sans-serif; font-size: 12px; font-weight: 200;" fill="rgb(33, 33, 33)" stroke="none" stroke-width="1px">90k</text><text x="225.97879464285714" y="0" dx="0em" dy="0.95em" style="text-anchor: middle; visibility: inherit; font-family: Roboto, sans-serif; font-size: 12px; font-weight: 200;" fill="rgb(33, 33, 33)" stroke="none" stroke-width="1px">100k</text><text x="246.52232142857142" y="0" dx="0em" dy="0.95em" style="text-anchor: middle; visibility: hidden; font-family: Roboto, sans-serif; font-size: 12px; font-weight: 200;" fill="rgb(33, 33, 33)" stroke="none" stroke-width="1px">110k</text><text x="267.0658482142857" y="0" dx="0em" dy="0.95em" style="text-anchor: middle; visibility: inherit; font-family: Roboto, sans-serif; font-size: 12px; font-weight: 200;" fill="rgb(33, 33, 33)" stroke="none" stroke-width="1px">120k</text><text x="287.609375" y="0" dx="0em" dy="0.95em" style="text-anchor: middle; visibility: hidden; font-family: Roboto, sans-serif; font-size: 12px; font-weight: 200;" fill="rgb(33, 33, 33)" stroke="none" stroke-width="1px">130k</text></g><line x1="0" y1="0" x2="287.609375" y2="0" fill="rgb(0, 0, 0)" stroke="rgb(204, 204, 204)" stroke-width="1px"></line></g></g></g></g></svg>