<?xml version="1.0" encoding="utf-8" standalone="no"?>
<!DOCTYPE svg PUBLIC "-//W3C//DTD SVG 1.1//EN"
  "http://www.w3.org/Graphics/SVG/1.1/DTD/svg11.dtd">
<svg xmlns:xlink="http://www.w3.org/1999/xlink" width="605.803125pt" height="277.314375pt" viewBox="0 0 605.803125 277.314375" xmlns="http://www.w3.org/2000/svg" version="1.1">
 <metadata>
  <rdf:RDF xmlns:dc="http://purl.org/dc/elements/1.1/" xmlns:cc="http://creativecommons.org/ns#" xmlns:rdf="http://www.w3.org/1999/02/22-rdf-syntax-ns#">
   <cc:Work>
    <dc:type rdf:resource="http://purl.org/dc/dcmitype/StillImage"/>
    <dc:date>2022-04-28T11:19:55.941388</dc:date>
    <dc:format>image/svg+xml</dc:format>
    <dc:creator>
     <cc:Agent>
      <dc:title>Matplotlib v3.5.1, https://matplotlib.org/</dc:title>
     </cc:Agent>
    </dc:creator>
   </cc:Work>
  </rdf:RDF>
 </metadata>
 <defs>
  <style type="text/css">*{stroke-linejoin: round; stroke-linecap: butt}</style>
 </defs>
 <g id="figure_1">
  <g id="patch_1">
   <path d="M 0 277.314375 
L 605.803125 277.314375 
L 605.803125 0 
L 0 0 
L 0 277.314375 
z
" style="fill: none"/>
  </g>
  <g id="axes_1">
   <g id="patch_2">
    <path d="M 40.603125 239.758125 
L 598.603125 239.758125 
L 598.603125 22.318125 
L 40.603125 22.318125 
z
" style="fill: #ffffff"/>
   </g>
   <g id="matplotlib.axis_1">
    <g id="xtick_1">
     <g id="line2d_1">
      <defs>
       <path id="m61681223be" d="M 0 0 
L 0 3.5 
" style="stroke: #000000; stroke-width: 0.8"/>
      </defs>
      <g>
       <use xlink:href="#m61681223be" x="63.417652" y="239.758125" style="stroke: #000000; stroke-width: 0.8"/>
      </g>
     </g>
     <g id="text_1">
      <!-- 0 -->
      <g transform="translate(60.236402 254.356562)scale(0.1 -0.1)">
       <defs>
        <path id="DejaVuSans-30" d="M 2034 4250 
Q 1547 4250 1301 3770 
Q 1056 3291 1056 2328 
Q 1056 1369 1301 889 
Q 1547 409 2034 409 
Q 2525 409 2770 889 
Q 3016 1369 3016 2328 
Q 3016 3291 2770 3770 
Q 2525 4250 2034 4250 
z
M 2034 4750 
Q 2819 4750 3233 4129 
Q 3647 3509 3647 2328 
Q 3647 1150 3233 529 
Q 2819 -91 2034 -91 
Q 1250 -91 836 529 
Q 422 1150 422 2328 
Q 422 3509 836 4129 
Q 1250 4750 2034 4750 
z
" transform="scale(0.015625)"/>
       </defs>
       <use xlink:href="#DejaVuSans-30"/>
      </g>
     </g>
    </g>
    <g id="xtick_2">
     <g id="line2d_2">
      <g>
       <use xlink:href="#m61681223be" x="127.145382" y="239.758125" style="stroke: #000000; stroke-width: 0.8"/>
      </g>
     </g>
     <g id="text_2">
      <!-- 25 -->
      <g transform="translate(120.782882 254.356562)scale(0.1 -0.1)">
       <defs>
        <path id="DejaVuSans-32" d="M 1228 531 
L 3431 531 
L 3431 0 
L 469 0 
L 469 531 
Q 828 903 1448 1529 
Q 2069 2156 2228 2338 
Q 2531 2678 2651 2914 
Q 2772 3150 2772 3378 
Q 2772 3750 2511 3984 
Q 2250 4219 1831 4219 
Q 1534 4219 1204 4116 
Q 875 4013 500 3803 
L 500 4441 
Q 881 4594 1212 4672 
Q 1544 4750 1819 4750 
Q 2544 4750 2975 4387 
Q 3406 4025 3406 3419 
Q 3406 3131 3298 2873 
Q 3191 2616 2906 2266 
Q 2828 2175 2409 1742 
Q 1991 1309 1228 531 
z
" transform="scale(0.015625)"/>
        <path id="DejaVuSans-35" d="M 691 4666 
L 3169 4666 
L 3169 4134 
L 1269 4134 
L 1269 2991 
Q 1406 3038 1543 3061 
Q 1681 3084 1819 3084 
Q 2600 3084 3056 2656 
Q 3513 2228 3513 1497 
Q 3513 744 3044 326 
Q 2575 -91 1722 -91 
Q 1428 -91 1123 -41 
Q 819 9 494 109 
L 494 744 
Q 775 591 1075 516 
Q 1375 441 1709 441 
Q 2250 441 2565 725 
Q 2881 1009 2881 1497 
Q 2881 1984 2565 2268 
Q 2250 2553 1709 2553 
Q 1456 2553 1204 2497 
Q 953 2441 691 2322 
L 691 4666 
z
" transform="scale(0.015625)"/>
       </defs>
       <use xlink:href="#DejaVuSans-32"/>
       <use xlink:href="#DejaVuSans-35" x="63.623047"/>
      </g>
     </g>
    </g>
    <g id="xtick_3">
     <g id="line2d_3">
      <g>
       <use xlink:href="#m61681223be" x="190.873111" y="239.758125" style="stroke: #000000; stroke-width: 0.8"/>
      </g>
     </g>
     <g id="text_3">
      <!-- 50 -->
      <g transform="translate(184.510611 254.356562)scale(0.1 -0.1)">
       <use xlink:href="#DejaVuSans-35"/>
       <use xlink:href="#DejaVuSans-30" x="63.623047"/>
      </g>
     </g>
    </g>
    <g id="xtick_4">
     <g id="line2d_4">
      <g>
       <use xlink:href="#m61681223be" x="254.600841" y="239.758125" style="stroke: #000000; stroke-width: 0.8"/>
      </g>
     </g>
     <g id="text_4">
      <!-- 75 -->
      <g transform="translate(248.238341 254.356562)scale(0.1 -0.1)">
       <defs>
        <path id="DejaVuSans-37" d="M 525 4666 
L 3525 4666 
L 3525 4397 
L 1831 0 
L 1172 0 
L 2766 4134 
L 525 4134 
L 525 4666 
z
" transform="scale(0.015625)"/>
       </defs>
       <use xlink:href="#DejaVuSans-37"/>
       <use xlink:href="#DejaVuSans-35" x="63.623047"/>
      </g>
     </g>
    </g>
    <g id="xtick_5">
     <g id="line2d_5">
      <g>
       <use xlink:href="#m61681223be" x="318.32857" y="239.758125" style="stroke: #000000; stroke-width: 0.8"/>
      </g>
     </g>
     <g id="text_5">
      <!-- 100 -->
      <g transform="translate(308.78482 254.356562)scale(0.1 -0.1)">
       <defs>
        <path id="DejaVuSans-31" d="M 794 531 
L 1825 531 
L 1825 4091 
L 703 3866 
L 703 4441 
L 1819 4666 
L 2450 4666 
L 2450 531 
L 3481 531 
L 3481 0 
L 794 0 
L 794 531 
z
" transform="scale(0.015625)"/>
       </defs>
       <use xlink:href="#DejaVuSans-31"/>
       <use xlink:href="#DejaVuSans-30" x="63.623047"/>
       <use xlink:href="#DejaVuSans-30" x="127.246094"/>
      </g>
     </g>
    </g>
    <g id="xtick_6">
     <g id="line2d_6">
      <g>
       <use xlink:href="#m61681223be" x="382.0563" y="239.758125" style="stroke: #000000; stroke-width: 0.8"/>
      </g>
     </g>
     <g id="text_6">
      <!-- 125 -->
      <g transform="translate(372.51255 254.356562)scale(0.1 -0.1)">
       <use xlink:href="#DejaVuSans-31"/>
       <use xlink:href="#DejaVuSans-32" x="63.623047"/>
       <use xlink:href="#DejaVuSans-35" x="127.246094"/>
      </g>
     </g>
    </g>
    <g id="xtick_7">
     <g id="line2d_7">
      <g>
       <use xlink:href="#m61681223be" x="445.78403" y="239.758125" style="stroke: #000000; stroke-width: 0.8"/>
      </g>
     </g>
     <g id="text_7">
      <!-- 150 -->
      <g transform="translate(436.24028 254.356562)scale(0.1 -0.1)">
       <use xlink:href="#DejaVuSans-31"/>
       <use xlink:href="#DejaVuSans-35" x="63.623047"/>
       <use xlink:href="#DejaVuSans-30" x="127.246094"/>
      </g>
     </g>
    </g>
    <g id="xtick_8">
     <g id="line2d_8">
      <g>
       <use xlink:href="#m61681223be" x="509.511759" y="239.758125" style="stroke: #000000; stroke-width: 0.8"/>
      </g>
     </g>
     <g id="text_8">
      <!-- 175 -->
      <g transform="translate(499.968009 254.356562)scale(0.1 -0.1)">
       <use xlink:href="#DejaVuSans-31"/>
       <use xlink:href="#DejaVuSans-37" x="63.623047"/>
       <use xlink:href="#DejaVuSans-35" x="127.246094"/>
      </g>
     </g>
    </g>
    <g id="xtick_9">
     <g id="line2d_9">
      <g>
       <use xlink:href="#m61681223be" x="573.239489" y="239.758125" style="stroke: #000000; stroke-width: 0.8"/>
      </g>
     </g>
     <g id="text_9">
      <!-- 200 -->
      <g transform="translate(563.695739 254.356562)scale(0.1 -0.1)">
       <use xlink:href="#DejaVuSans-32"/>
       <use xlink:href="#DejaVuSans-30" x="63.623047"/>
       <use xlink:href="#DejaVuSans-30" x="127.246094"/>
      </g>
     </g>
    </g>
    <g id="text_10">
     <!-- epoch -->
     <g transform="translate(304.375 268.034687)scale(0.1 -0.1)">
      <defs>
       <path id="DejaVuSans-65" d="M 3597 1894 
L 3597 1613 
L 953 1613 
Q 991 1019 1311 708 
Q 1631 397 2203 397 
Q 2534 397 2845 478 
Q 3156 559 3463 722 
L 3463 178 
Q 3153 47 2828 -22 
Q 2503 -91 2169 -91 
Q 1331 -91 842 396 
Q 353 884 353 1716 
Q 353 2575 817 3079 
Q 1281 3584 2069 3584 
Q 2775 3584 3186 3129 
Q 3597 2675 3597 1894 
z
M 3022 2063 
Q 3016 2534 2758 2815 
Q 2500 3097 2075 3097 
Q 1594 3097 1305 2825 
Q 1016 2553 972 2059 
L 3022 2063 
z
" transform="scale(0.015625)"/>
       <path id="DejaVuSans-70" d="M 1159 525 
L 1159 -1331 
L 581 -1331 
L 581 3500 
L 1159 3500 
L 1159 2969 
Q 1341 3281 1617 3432 
Q 1894 3584 2278 3584 
Q 2916 3584 3314 3078 
Q 3713 2572 3713 1747 
Q 3713 922 3314 415 
Q 2916 -91 2278 -91 
Q 1894 -91 1617 61 
Q 1341 213 1159 525 
z
M 3116 1747 
Q 3116 2381 2855 2742 
Q 2594 3103 2138 3103 
Q 1681 3103 1420 2742 
Q 1159 2381 1159 1747 
Q 1159 1113 1420 752 
Q 1681 391 2138 391 
Q 2594 391 2855 752 
Q 3116 1113 3116 1747 
z
" transform="scale(0.015625)"/>
       <path id="DejaVuSans-6f" d="M 1959 3097 
Q 1497 3097 1228 2736 
Q 959 2375 959 1747 
Q 959 1119 1226 758 
Q 1494 397 1959 397 
Q 2419 397 2687 759 
Q 2956 1122 2956 1747 
Q 2956 2369 2687 2733 
Q 2419 3097 1959 3097 
z
M 1959 3584 
Q 2709 3584 3137 3096 
Q 3566 2609 3566 1747 
Q 3566 888 3137 398 
Q 2709 -91 1959 -91 
Q 1206 -91 779 398 
Q 353 888 353 1747 
Q 353 2609 779 3096 
Q 1206 3584 1959 3584 
z
" transform="scale(0.015625)"/>
       <path id="DejaVuSans-63" d="M 3122 3366 
L 3122 2828 
Q 2878 2963 2633 3030 
Q 2388 3097 2138 3097 
Q 1578 3097 1268 2742 
Q 959 2388 959 1747 
Q 959 1106 1268 751 
Q 1578 397 2138 397 
Q 2388 397 2633 464 
Q 2878 531 3122 666 
L 3122 134 
Q 2881 22 2623 -34 
Q 2366 -91 2075 -91 
Q 1284 -91 818 406 
Q 353 903 353 1747 
Q 353 2603 823 3093 
Q 1294 3584 2113 3584 
Q 2378 3584 2631 3529 
Q 2884 3475 3122 3366 
z
" transform="scale(0.015625)"/>
       <path id="DejaVuSans-68" d="M 3513 2113 
L 3513 0 
L 2938 0 
L 2938 2094 
Q 2938 2591 2744 2837 
Q 2550 3084 2163 3084 
Q 1697 3084 1428 2787 
Q 1159 2491 1159 1978 
L 1159 0 
L 581 0 
L 581 4863 
L 1159 4863 
L 1159 2956 
Q 1366 3272 1645 3428 
Q 1925 3584 2291 3584 
Q 2894 3584 3203 3211 
Q 3513 2838 3513 2113 
z
" transform="scale(0.015625)"/>
      </defs>
      <use xlink:href="#DejaVuSans-65"/>
      <use xlink:href="#DejaVuSans-70" x="61.523438"/>
      <use xlink:href="#DejaVuSans-6f" x="125"/>
      <use xlink:href="#DejaVuSans-63" x="186.181641"/>
      <use xlink:href="#DejaVuSans-68" x="241.162109"/>
     </g>
    </g>
   </g>
   <g id="matplotlib.axis_2">
    <g id="ytick_1">
     <g id="line2d_10">
      <defs>
       <path id="mef19fb3cb4" d="M 0 0 
L -3.5 0 
" style="stroke: #000000; stroke-width: 0.8"/>
      </defs>
      <g>
       <use xlink:href="#mef19fb3cb4" x="40.603125" y="221.332078" style="stroke: #000000; stroke-width: 0.8"/>
      </g>
     </g>
     <g id="text_11">
      <!-- 50 -->
      <g transform="translate(20.878125 225.131297)scale(0.1 -0.1)">
       <use xlink:href="#DejaVuSans-35"/>
       <use xlink:href="#DejaVuSans-30" x="63.623047"/>
      </g>
     </g>
    </g>
    <g id="ytick_2">
     <g id="line2d_11">
      <g>
       <use xlink:href="#mef19fb3cb4" x="40.603125" y="180.885049" style="stroke: #000000; stroke-width: 0.8"/>
      </g>
     </g>
     <g id="text_12">
      <!-- 60 -->
      <g transform="translate(20.878125 184.684268)scale(0.1 -0.1)">
       <defs>
        <path id="DejaVuSans-36" d="M 2113 2584 
Q 1688 2584 1439 2293 
Q 1191 2003 1191 1497 
Q 1191 994 1439 701 
Q 1688 409 2113 409 
Q 2538 409 2786 701 
Q 3034 994 3034 1497 
Q 3034 2003 2786 2293 
Q 2538 2584 2113 2584 
z
M 3366 4563 
L 3366 3988 
Q 3128 4100 2886 4159 
Q 2644 4219 2406 4219 
Q 1781 4219 1451 3797 
Q 1122 3375 1075 2522 
Q 1259 2794 1537 2939 
Q 1816 3084 2150 3084 
Q 2853 3084 3261 2657 
Q 3669 2231 3669 1497 
Q 3669 778 3244 343 
Q 2819 -91 2113 -91 
Q 1303 -91 875 529 
Q 447 1150 447 2328 
Q 447 3434 972 4092 
Q 1497 4750 2381 4750 
Q 2619 4750 2861 4703 
Q 3103 4656 3366 4563 
z
" transform="scale(0.015625)"/>
       </defs>
       <use xlink:href="#DejaVuSans-36"/>
       <use xlink:href="#DejaVuSans-30" x="63.623047"/>
      </g>
     </g>
    </g>
    <g id="ytick_3">
     <g id="line2d_12">
      <g>
       <use xlink:href="#mef19fb3cb4" x="40.603125" y="140.43802" style="stroke: #000000; stroke-width: 0.8"/>
      </g>
     </g>
     <g id="text_13">
      <!-- 70 -->
      <g transform="translate(20.878125 144.237239)scale(0.1 -0.1)">
       <use xlink:href="#DejaVuSans-37"/>
       <use xlink:href="#DejaVuSans-30" x="63.623047"/>
      </g>
     </g>
    </g>
    <g id="ytick_4">
     <g id="line2d_13">
      <g>
       <use xlink:href="#mef19fb3cb4" x="40.603125" y="99.990991" style="stroke: #000000; stroke-width: 0.8"/>
      </g>
     </g>
     <g id="text_14">
      <!-- 80 -->
      <g transform="translate(20.878125 103.79021)scale(0.1 -0.1)">
       <defs>
        <path id="DejaVuSans-38" d="M 2034 2216 
Q 1584 2216 1326 1975 
Q 1069 1734 1069 1313 
Q 1069 891 1326 650 
Q 1584 409 2034 409 
Q 2484 409 2743 651 
Q 3003 894 3003 1313 
Q 3003 1734 2745 1975 
Q 2488 2216 2034 2216 
z
M 1403 2484 
Q 997 2584 770 2862 
Q 544 3141 544 3541 
Q 544 4100 942 4425 
Q 1341 4750 2034 4750 
Q 2731 4750 3128 4425 
Q 3525 4100 3525 3541 
Q 3525 3141 3298 2862 
Q 3072 2584 2669 2484 
Q 3125 2378 3379 2068 
Q 3634 1759 3634 1313 
Q 3634 634 3220 271 
Q 2806 -91 2034 -91 
Q 1263 -91 848 271 
Q 434 634 434 1313 
Q 434 1759 690 2068 
Q 947 2378 1403 2484 
z
M 1172 3481 
Q 1172 3119 1398 2916 
Q 1625 2713 2034 2713 
Q 2441 2713 2670 2916 
Q 2900 3119 2900 3481 
Q 2900 3844 2670 4047 
Q 2441 4250 2034 4250 
Q 1625 4250 1398 4047 
Q 1172 3844 1172 3481 
z
" transform="scale(0.015625)"/>
       </defs>
       <use xlink:href="#DejaVuSans-38"/>
       <use xlink:href="#DejaVuSans-30" x="63.623047"/>
      </g>
     </g>
    </g>
    <g id="ytick_5">
     <g id="line2d_14">
      <g>
       <use xlink:href="#mef19fb3cb4" x="40.603125" y="59.543962" style="stroke: #000000; stroke-width: 0.8"/>
      </g>
     </g>
     <g id="text_15">
      <!-- 90 -->
      <g transform="translate(20.878125 63.34318)scale(0.1 -0.1)">
       <defs>
        <path id="DejaVuSans-39" d="M 703 97 
L 703 672 
Q 941 559 1184 500 
Q 1428 441 1663 441 
Q 2288 441 2617 861 
Q 2947 1281 2994 2138 
Q 2813 1869 2534 1725 
Q 2256 1581 1919 1581 
Q 1219 1581 811 2004 
Q 403 2428 403 3163 
Q 403 3881 828 4315 
Q 1253 4750 1959 4750 
Q 2769 4750 3195 4129 
Q 3622 3509 3622 2328 
Q 3622 1225 3098 567 
Q 2575 -91 1691 -91 
Q 1453 -91 1209 -44 
Q 966 3 703 97 
z
M 1959 2075 
Q 2384 2075 2632 2365 
Q 2881 2656 2881 3163 
Q 2881 3666 2632 3958 
Q 2384 4250 1959 4250 
Q 1534 4250 1286 3958 
Q 1038 3666 1038 3163 
Q 1038 2656 1286 2365 
Q 1534 2075 1959 2075 
z
" transform="scale(0.015625)"/>
       </defs>
       <use xlink:href="#DejaVuSans-39"/>
       <use xlink:href="#DejaVuSans-30" x="63.623047"/>
      </g>
     </g>
    </g>
    <g id="text_16">
     <!-- Accuary -->
     <g transform="translate(14.798437 151.117031)rotate(-90)scale(0.1 -0.1)">
      <defs>
       <path id="DejaVuSans-41" d="M 2188 4044 
L 1331 1722 
L 3047 1722 
L 2188 4044 
z
M 1831 4666 
L 2547 4666 
L 4325 0 
L 3669 0 
L 3244 1197 
L 1141 1197 
L 716 0 
L 50 0 
L 1831 4666 
z
" transform="scale(0.015625)"/>
       <path id="DejaVuSans-75" d="M 544 1381 
L 544 3500 
L 1119 3500 
L 1119 1403 
Q 1119 906 1312 657 
Q 1506 409 1894 409 
Q 2359 409 2629 706 
Q 2900 1003 2900 1516 
L 2900 3500 
L 3475 3500 
L 3475 0 
L 2900 0 
L 2900 538 
Q 2691 219 2414 64 
Q 2138 -91 1772 -91 
Q 1169 -91 856 284 
Q 544 659 544 1381 
z
M 1991 3584 
L 1991 3584 
z
" transform="scale(0.015625)"/>
       <path id="DejaVuSans-61" d="M 2194 1759 
Q 1497 1759 1228 1600 
Q 959 1441 959 1056 
Q 959 750 1161 570 
Q 1363 391 1709 391 
Q 2188 391 2477 730 
Q 2766 1069 2766 1631 
L 2766 1759 
L 2194 1759 
z
M 3341 1997 
L 3341 0 
L 2766 0 
L 2766 531 
Q 2569 213 2275 61 
Q 1981 -91 1556 -91 
Q 1019 -91 701 211 
Q 384 513 384 1019 
Q 384 1609 779 1909 
Q 1175 2209 1959 2209 
L 2766 2209 
L 2766 2266 
Q 2766 2663 2505 2880 
Q 2244 3097 1772 3097 
Q 1472 3097 1187 3025 
Q 903 2953 641 2809 
L 641 3341 
Q 956 3463 1253 3523 
Q 1550 3584 1831 3584 
Q 2591 3584 2966 3190 
Q 3341 2797 3341 1997 
z
" transform="scale(0.015625)"/>
       <path id="DejaVuSans-72" d="M 2631 2963 
Q 2534 3019 2420 3045 
Q 2306 3072 2169 3072 
Q 1681 3072 1420 2755 
Q 1159 2438 1159 1844 
L 1159 0 
L 581 0 
L 581 3500 
L 1159 3500 
L 1159 2956 
Q 1341 3275 1631 3429 
Q 1922 3584 2338 3584 
Q 2397 3584 2469 3576 
Q 2541 3569 2628 3553 
L 2631 2963 
z
" transform="scale(0.015625)"/>
       <path id="DejaVuSans-79" d="M 2059 -325 
Q 1816 -950 1584 -1140 
Q 1353 -1331 966 -1331 
L 506 -1331 
L 506 -850 
L 844 -850 
Q 1081 -850 1212 -737 
Q 1344 -625 1503 -206 
L 1606 56 
L 191 3500 
L 800 3500 
L 1894 763 
L 2988 3500 
L 3597 3500 
L 2059 -325 
z
" transform="scale(0.015625)"/>
      </defs>
      <use xlink:href="#DejaVuSans-41"/>
      <use xlink:href="#DejaVuSans-63" x="66.658203"/>
      <use xlink:href="#DejaVuSans-63" x="121.638672"/>
      <use xlink:href="#DejaVuSans-75" x="176.619141"/>
      <use xlink:href="#DejaVuSans-61" x="239.998047"/>
      <use xlink:href="#DejaVuSans-72" x="301.277344"/>
      <use xlink:href="#DejaVuSans-79" x="342.390625"/>
     </g>
    </g>
   </g>
   <g id="line2d_15">
    <path d="M 65.966761 229.874489 
L 68.515871 195.211386 
L 71.06498 199.870885 
L 73.614089 155.718907 
L 76.163198 133.246539 
L 78.712307 131.426435 
L 81.261416 121.241851 
L 83.810526 130.124015 
L 86.359635 122.568525 
L 88.908744 121.217596 
L 91.457853 117.124353 
L 94.006962 107.667848 
L 96.556072 101.115418 
L 99.105181 100.160868 
L 101.65429 90.162361 
L 104.203399 95.113074 
L 106.752508 83.593762 
L 109.301617 75.374935 
L 111.850727 63.669545 
L 114.399836 63.701916 
L 116.948945 61.841356 
L 119.498054 59.754294 
L 122.047163 61.590568 
L 124.596273 61.849441 
L 127.145382 59.090957 
L 129.694491 61.444977 
L 132.2436 58.128322 
L 134.792709 58.743118 
L 137.341818 56.777393 
L 139.890928 56.300102 
L 142.440037 61.695734 
L 144.989146 57.756198 
L 150.087364 56.801647 
L 152.636474 58.282029 
L 155.185583 55.725761 
L 157.734692 56.0898 
L 160.283801 56.591315 
L 162.83291 56.275847 
L 165.382019 56.534689 
L 167.931129 55.08671 
L 170.480238 55.644881 
L 173.029347 55.814757 
L 175.578456 57.764283 
L 178.127565 53.881371 
L 180.676675 52.716489 
L 183.225784 52.190689 
L 185.774893 53.209949 
L 188.324002 52.401021 
L 190.873111 55.911808 
L 193.42222 50.01463 
L 195.97133 51.462641 
L 198.520439 54.528539 
L 201.069548 52.82974 
L 203.618657 54.310121 
L 206.167766 49.035825 
L 208.716876 51.786224 
L 213.815094 48.61516 
L 216.364203 48.849779 
L 218.913312 48.865948 
L 221.462421 49.691077 
L 224.011531 48.890203 
L 226.56064 47.64444 
L 229.109749 48.048904 
L 231.658858 49.480745 
L 236.757077 49.674877 
L 239.306186 49.238073 
L 241.855295 47.361312 
L 246.953513 47.879028 
L 249.502622 46.65755 
L 252.051732 48.218781 
L 254.600841 47.377482 
L 257.14995 45.783881 
L 259.699059 46.592809 
L 262.248168 46.940678 
L 264.797278 46.738431 
L 267.346387 44.610913 
L 269.895496 45.986128 
L 272.444605 44.877871 
L 274.993714 43.308524 
L 280.091933 44.707994 
L 282.641042 44.360156 
L 285.190151 45.104374 
L 287.73926 44.76462 
L 290.288369 43.001142 
L 292.837479 43.729158 
L 295.386588 43.268069 
L 297.935697 42.612847 
L 300.484806 43.761529 
L 303.033915 42.782724 
L 305.583024 43.122478 
L 308.132134 40.744172 
L 310.681243 40.99496 
L 313.230352 42.984941 
L 315.779461 42.418685 
L 318.32857 42.459141 
L 320.87768 42.823149 
L 323.426789 41.391339 
L 325.975898 43.073937 
L 328.525007 40.736087 
L 331.074116 43.025396 
L 333.623226 40.736087 
L 336.172335 40.372079 
L 338.721444 42.831234 
L 341.270553 41.0273 
L 343.819662 40.889794 
L 346.368771 39.838162 
L 348.917881 40.728002 
L 351.46699 39.393243 
L 354.016099 39.077775 
L 356.565208 40.161746 
L 359.114317 40.639006 
L 364.212536 39.393243 
L 369.310754 38.62477 
L 371.859863 39.271906 
L 374.408972 38.924068 
L 376.958082 37.791556 
L 379.507191 37.912892 
L 382.0563 39.975699 
L 384.605409 38.14748 
L 387.154518 37.2253 
L 389.703628 36.966427 
L 392.252737 39.037319 
L 397.350955 38.72182 
L 399.900064 37.815811 
L 404.998283 37.346636 
L 407.547392 37.014968 
L 410.096501 37.73493 
L 412.64561 38.066599 
L 415.194719 36.141298 
L 417.743829 36.81272 
L 420.292938 37.306181 
L 422.842047 36.384001 
L 425.391156 38.285017 
L 427.940265 36.958342 
L 430.489374 35.882456 
L 433.038484 35.930996 
L 435.587593 36.392086 
L 438.136702 37.346636 
L 440.685811 36.028047 
L 443.23492 35.186748 
L 445.78403 35.728749 
L 448.333139 35.33237 
L 453.431357 36.35163 
L 455.980466 35.542702 
L 458.529575 34.094692 
L 461.078685 35.526501 
L 463.627794 34.798485 
L 466.176903 35.105867 
L 468.726012 34.709488 
L 471.275121 34.758029 
L 473.824231 35.41325 
L 476.37334 36.400171 
L 478.922449 34.879365 
L 481.471558 34.183688 
L 484.020667 33.763023 
L 491.667995 35.267659 
L 494.217104 34.895535 
L 496.766213 33.674027 
L 499.315322 33.156311 
L 501.864432 34.248399 
L 504.413541 34.029981 
L 506.96265 34.474901 
L 509.511759 34.232198 
L 512.060868 33.754938 
L 514.609977 33.908645 
L 517.159087 33.48798 
L 519.708196 32.759932 
L 522.257305 34.078522 
L 524.806414 33.601231 
L 527.355523 34.264568 
L 529.904633 33.496065 
L 532.453742 32.5496 
L 537.55196 33.204852 
L 542.650178 32.460634 
L 545.199288 32.298843 
L 550.297506 32.201761 
L 552.846615 32.695222 
L 555.395724 32.662851 
L 557.944834 32.509175 
L 560.493943 32.468719 
L 563.043052 33.148227 
L 565.592161 32.306928 
L 570.690379 32.282673 
L 573.239489 32.452549 
L 573.239489 32.452549 
" clip-path="url(#p2ff6cc0ab0)" style="fill: none; stroke: #0000ff; stroke-width: 1.5; stroke-linecap: square"/>
   </g>
   <g id="line2d_16">
    <path d="M 65.966761 223.678013 
L 68.515871 181.127737 
L 71.06498 189.055351 
L 73.614089 145.898363 
L 76.163198 119.28421 
L 78.712307 118.353946 
L 81.261416 106.705212 
L 83.810526 116.493386 
L 86.359635 110.871251 
L 88.908744 104.804197 
L 91.457853 104.197486 
L 94.006962 97.0788 
L 96.556072 88.746722 
L 99.105181 89.272522 
L 101.65429 85.146938 
L 104.203399 87.411962 
L 106.752508 79.039428 
L 109.301617 72.56791 
L 111.850727 63.224656 
L 114.399836 62.456153 
L 116.948945 62.658369 
L 119.498054 61.808985 
L 122.047163 60.474257 
L 124.596273 62.860617 
L 127.145382 60.029337 
L 129.694491 61.808985 
L 132.2436 58.977706 
L 134.792709 61.121393 
L 137.341818 61.323641 
L 139.890928 59.90797 
L 142.440037 61.404521 
L 144.989146 59.463081 
L 147.538255 58.694578 
L 150.087364 59.463081 
L 152.636474 61.687649 
L 155.185583 58.654122 
L 157.734692 59.422626 
L 160.283801 60.433801 
L 162.83291 61.121393 
L 165.382019 61.566313 
L 167.931129 57.804738 
L 170.480238 61.283185 
L 173.029347 60.35289 
L 175.578456 61.849441 
L 178.127565 59.179953 
L 180.676675 57.117146 
L 183.225784 59.139498 
L 185.774893 58.41145 
L 188.324002 58.087866 
L 190.873111 61.283185 
L 193.42222 56.834018 
L 195.97133 56.793562 
L 198.520439 61.647194 
L 201.069548 57.96653 
L 203.618657 60.191129 
L 206.167766 55.377923 
L 208.716876 58.49233 
L 213.815094 55.741931 
L 216.364203 55.701506 
L 218.913312 55.539714 
L 221.462421 54.811667 
L 224.011531 56.793562 
L 226.56064 55.175675 
L 229.109749 55.013883 
L 231.658858 57.481155 
L 234.207967 55.216131 
L 236.757077 57.198027 
L 239.306186 56.186851 
L 244.404404 55.013883 
L 246.953513 55.377923 
L 249.502622 55.216131 
L 252.051732 57.117146 
L 254.600841 54.771211 
L 257.14995 53.598243 
L 259.699059 55.822842 
L 262.248168 54.892547 
L 264.797278 56.389098 
L 267.346387 54.204955 
L 269.895496 54.043163 
L 272.444605 54.488083 
L 274.993714 53.153324 
L 277.542823 53.031988 
L 280.091933 54.568964 
L 282.641042 54.204955 
L 285.190151 55.620595 
L 287.73926 54.892547 
L 290.288369 52.263484 
L 292.837479 53.679155 
L 295.386588 53.679155 
L 297.935697 53.881371 
L 300.484806 54.326291 
L 303.033915 52.951107 
L 305.583024 54.933003 
L 308.132134 51.050092 
L 310.681243 52.465732 
L 313.230352 53.072443 
L 315.779461 53.315115 
L 318.32857 54.366747 
L 320.87768 53.557788 
L 323.426789 54.002708 
L 325.975898 54.002708 
L 328.525007 53.476907 
L 331.074116 54.488083 
L 333.623226 54.649875 
L 336.172335 52.223059 
L 338.721444 54.568964 
L 341.270553 52.82974 
L 343.819662 52.546612 
L 346.368771 53.840916 
L 348.917881 51.778139 
L 351.46699 52.223059 
L 354.016099 51.4141 
L 359.114317 53.153324 
L 361.663427 52.546612 
L 364.212536 50.96918 
L 366.761645 51.899476 
L 369.310754 51.697228 
L 371.859863 53.71958 
L 374.408972 52.546612 
L 376.958082 51.737684 
L 379.507191 50.402924 
L 382.0563 52.142148 
L 384.605409 50.241133 
L 387.154518 50.402924 
L 389.703628 51.130972 
L 392.252737 51.697228 
L 394.801846 50.402924 
L 397.350955 52.870196 
L 402.449173 50.645628 
L 404.998283 51.33322 
L 407.547392 50.3625 
L 410.096501 52.627523 
L 412.64561 50.564716 
L 415.194719 49.229957 
L 417.743829 50.119796 
L 420.292938 50.3625 
L 422.842047 51.050092 
L 425.391156 52.101723 
L 430.489374 49.99846 
L 433.038484 50.766964 
L 435.587593 50.766964 
L 443.23492 50.483836 
L 445.78403 49.674877 
L 453.431357 50.928756 
L 455.980466 50.3625 
L 458.529575 48.178356 
L 461.078685 50.807389 
L 463.627794 48.906404 
L 466.176903 50.119796 
L 468.726012 49.593996 
L 471.275121 49.755788 
L 473.824231 49.796213 
L 476.37334 51.33322 
L 478.922449 49.47266 
L 481.471558 48.542365 
L 484.020667 49.91758 
L 486.569776 48.218781 
L 489.118886 49.149076 
L 491.667995 51.737684 
L 494.217104 49.674877 
L 496.766213 47.814317 
L 501.864432 49.310868 
L 504.413541 50.241133 
L 506.96265 49.47266 
L 509.511759 48.421029 
L 512.060868 49.674877 
L 514.609977 49.796213 
L 517.159087 49.149076 
L 519.708196 47.814317 
L 522.257305 49.391749 
L 524.806414 49.513085 
L 527.355523 49.99846 
L 529.904633 48.58282 
L 532.453742 49.310868 
L 535.002851 48.299693 
L 537.55196 48.299693 
L 540.101069 48.542365 
L 542.650178 48.137901 
L 545.199288 47.288517 
L 547.748397 49.02774 
L 550.297506 48.340148 
L 552.846615 48.137901 
L 555.395724 47.409853 
L 557.944834 48.259237 
L 560.493943 48.05702 
L 563.043052 47.976109 
L 565.592161 47.450309 
L 568.14127 48.137901 
L 570.690379 46.317797 
L 573.239489 47.288517 
L 573.239489 47.288517 
" clip-path="url(#p2ff6cc0ab0)" style="fill: none; stroke: #008000; stroke-width: 1.5; stroke-linecap: square"/>
   </g>
   <g id="patch_3">
    <path d="M 40.603125 239.758125 
L 40.603125 22.318125 
" style="fill: none; stroke: #000000; stroke-width: 0.8; stroke-linejoin: miter; stroke-linecap: square"/>
   </g>
   <g id="patch_4">
    <path d="M 598.603125 239.758125 
L 598.603125 22.318125 
" style="fill: none; stroke: #000000; stroke-width: 0.8; stroke-linejoin: miter; stroke-linecap: square"/>
   </g>
   <g id="patch_5">
    <path d="M 40.603125 239.758125 
L 598.603125 239.758125 
" style="fill: none; stroke: #000000; stroke-width: 0.8; stroke-linejoin: miter; stroke-linecap: square"/>
   </g>
   <g id="patch_6">
    <path d="M 40.603125 22.318125 
L 598.603125 22.318125 
" style="fill: none; stroke: #000000; stroke-width: 0.8; stroke-linejoin: miter; stroke-linecap: square"/>
   </g>
   <g id="text_17">
    <!-- No Erase -->
    <g transform="translate(292.784063 16.318125)scale(0.12 -0.12)">
     <defs>
      <path id="DejaVuSans-4e" d="M 628 4666 
L 1478 4666 
L 3547 763 
L 3547 4666 
L 4159 4666 
L 4159 0 
L 3309 0 
L 1241 3903 
L 1241 0 
L 628 0 
L 628 4666 
z
" transform="scale(0.015625)"/>
      <path id="DejaVuSans-20" transform="scale(0.015625)"/>
      <path id="DejaVuSans-45" d="M 628 4666 
L 3578 4666 
L 3578 4134 
L 1259 4134 
L 1259 2753 
L 3481 2753 
L 3481 2222 
L 1259 2222 
L 1259 531 
L 3634 531 
L 3634 0 
L 628 0 
L 628 4666 
z
" transform="scale(0.015625)"/>
      <path id="DejaVuSans-73" d="M 2834 3397 
L 2834 2853 
Q 2591 2978 2328 3040 
Q 2066 3103 1784 3103 
Q 1356 3103 1142 2972 
Q 928 2841 928 2578 
Q 928 2378 1081 2264 
Q 1234 2150 1697 2047 
L 1894 2003 
Q 2506 1872 2764 1633 
Q 3022 1394 3022 966 
Q 3022 478 2636 193 
Q 2250 -91 1575 -91 
Q 1294 -91 989 -36 
Q 684 19 347 128 
L 347 722 
Q 666 556 975 473 
Q 1284 391 1588 391 
Q 1994 391 2212 530 
Q 2431 669 2431 922 
Q 2431 1156 2273 1281 
Q 2116 1406 1581 1522 
L 1381 1569 
Q 847 1681 609 1914 
Q 372 2147 372 2553 
Q 372 3047 722 3315 
Q 1072 3584 1716 3584 
Q 2034 3584 2315 3537 
Q 2597 3491 2834 3397 
z
" transform="scale(0.015625)"/>
     </defs>
     <use xlink:href="#DejaVuSans-4e"/>
     <use xlink:href="#DejaVuSans-6f" x="74.804688"/>
     <use xlink:href="#DejaVuSans-20" x="135.986328"/>
     <use xlink:href="#DejaVuSans-45" x="167.773438"/>
     <use xlink:href="#DejaVuSans-72" x="230.957031"/>
     <use xlink:href="#DejaVuSans-61" x="272.070312"/>
     <use xlink:href="#DejaVuSans-73" x="333.349609"/>
     <use xlink:href="#DejaVuSans-65" x="385.449219"/>
    </g>
   </g>
   <g id="legend_1">
    <g id="patch_7">
     <path d="M 47.603125 59.674375 
L 123.71875 59.674375 
Q 125.71875 59.674375 125.71875 57.674375 
L 125.71875 29.318125 
Q 125.71875 27.318125 123.71875 27.318125 
L 47.603125 27.318125 
Q 45.603125 27.318125 45.603125 29.318125 
L 45.603125 57.674375 
Q 45.603125 59.674375 47.603125 59.674375 
z
" style="fill: #ffffff; opacity: 0.8; stroke: #cccccc; stroke-linejoin: miter"/>
    </g>
    <g id="line2d_17">
     <path d="M 49.603125 35.416562 
L 59.603125 35.416562 
L 69.603125 35.416562 
" style="fill: none; stroke: #0000ff; stroke-width: 1.5; stroke-linecap: square"/>
    </g>
    <g id="text_18">
     <!-- train Acc -->
     <g transform="translate(77.603125 38.916562)scale(0.1 -0.1)">
      <defs>
       <path id="DejaVuSans-74" d="M 1172 4494 
L 1172 3500 
L 2356 3500 
L 2356 3053 
L 1172 3053 
L 1172 1153 
Q 1172 725 1289 603 
Q 1406 481 1766 481 
L 2356 481 
L 2356 0 
L 1766 0 
Q 1100 0 847 248 
Q 594 497 594 1153 
L 594 3053 
L 172 3053 
L 172 3500 
L 594 3500 
L 594 4494 
L 1172 4494 
z
" transform="scale(0.015625)"/>
       <path id="DejaVuSans-69" d="M 603 3500 
L 1178 3500 
L 1178 0 
L 603 0 
L 603 3500 
z
M 603 4863 
L 1178 4863 
L 1178 4134 
L 603 4134 
L 603 4863 
z
" transform="scale(0.015625)"/>
       <path id="DejaVuSans-6e" d="M 3513 2113 
L 3513 0 
L 2938 0 
L 2938 2094 
Q 2938 2591 2744 2837 
Q 2550 3084 2163 3084 
Q 1697 3084 1428 2787 
Q 1159 2491 1159 1978 
L 1159 0 
L 581 0 
L 581 3500 
L 1159 3500 
L 1159 2956 
Q 1366 3272 1645 3428 
Q 1925 3584 2291 3584 
Q 2894 3584 3203 3211 
Q 3513 2838 3513 2113 
z
" transform="scale(0.015625)"/>
      </defs>
      <use xlink:href="#DejaVuSans-74"/>
      <use xlink:href="#DejaVuSans-72" x="39.208984"/>
      <use xlink:href="#DejaVuSans-61" x="80.322266"/>
      <use xlink:href="#DejaVuSans-69" x="141.601562"/>
      <use xlink:href="#DejaVuSans-6e" x="169.384766"/>
      <use xlink:href="#DejaVuSans-20" x="232.763672"/>
      <use xlink:href="#DejaVuSans-41" x="264.550781"/>
      <use xlink:href="#DejaVuSans-63" x="331.208984"/>
      <use xlink:href="#DejaVuSans-63" x="386.189453"/>
     </g>
    </g>
    <g id="line2d_18">
     <path d="M 49.603125 50.094687 
L 59.603125 50.094687 
L 69.603125 50.094687 
" style="fill: none; stroke: #008000; stroke-width: 1.5; stroke-linecap: square"/>
    </g>
    <g id="text_19">
     <!-- test Acc -->
     <g transform="translate(77.603125 53.594687)scale(0.1 -0.1)">
      <use xlink:href="#DejaVuSans-74"/>
      <use xlink:href="#DejaVuSans-65" x="39.208984"/>
      <use xlink:href="#DejaVuSans-73" x="100.732422"/>
      <use xlink:href="#DejaVuSans-74" x="152.832031"/>
      <use xlink:href="#DejaVuSans-20" x="192.041016"/>
      <use xlink:href="#DejaVuSans-41" x="223.828125"/>
      <use xlink:href="#DejaVuSans-63" x="290.486328"/>
      <use xlink:href="#DejaVuSans-63" x="345.466797"/>
     </g>
    </g>
   </g>
  </g>
 </g>
 <defs>
  <clipPath id="p2ff6cc0ab0">
   <rect x="40.603125" y="22.318125" width="558" height="217.44"/>
  </clipPath>
 </defs>
</svg>
