<?xml version="1.0" encoding="utf-8" standalone="no"?>
<!DOCTYPE svg PUBLIC "-//W3C//DTD SVG 1.1//EN"
  "http://www.w3.org/Graphics/SVG/1.1/DTD/svg11.dtd">
<!-- Created with matplotlib (https://matplotlib.org/) -->
<svg height="345.6pt" version="1.1" viewBox="0 0 460.8 345.6" width="460.8pt" xmlns="http://www.w3.org/2000/svg" xmlns:xlink="http://www.w3.org/1999/xlink">
 <defs>
  <style type="text/css">
*{stroke-linecap:butt;stroke-linejoin:round;}
  </style>
 </defs>
 <g id="figure_1">
  <g id="patch_1">
   <path d="M 0 345.6 
L 460.8 345.6 
L 460.8 0 
L 0 0 
z
" style="fill:#ffffff;"/>
  </g>
  <g id="axes_1">
   <g id="patch_2">
    <path d="M 57.6 307.584 
L 414.72 307.584 
L 414.72 41.472 
L 57.6 41.472 
z
" style="fill:#e5e5e5;"/>
   </g>
   <g id="matplotlib.axis_1">
    <g id="xtick_1">
     <g id="line2d_1">
      <path clip-path="url(#p4b22cbed6a)" d="M 73.832727 307.584 
L 73.832727 41.472 
" style="fill:none;stroke:#ffffff;stroke-linecap:square;stroke-width:0.8;"/>
     </g>
     <g id="line2d_2">
      <defs>
       <path d="M 0 0 
L 0 3.5 
" id="m5675f2ccc7" style="stroke:#555555;stroke-width:0.8;"/>
      </defs>
      <g>
       <use style="fill:#555555;stroke:#555555;stroke-width:0.8;" x="73.832727" xlink:href="#m5675f2ccc7" y="307.584"/>
      </g>
     </g>
     <g id="text_1">
      <!-- 0 -->
      <defs>
       <path d="M 31.78125 66.40625 
Q 24.171875 66.40625 20.328125 58.90625 
Q 16.5 51.421875 16.5 36.375 
Q 16.5 21.390625 20.328125 13.890625 
Q 24.171875 6.390625 31.78125 6.390625 
Q 39.453125 6.390625 43.28125 13.890625 
Q 47.125 21.390625 47.125 36.375 
Q 47.125 51.421875 43.28125 58.90625 
Q 39.453125 66.40625 31.78125 66.40625 
z
M 31.78125 74.21875 
Q 44.046875 74.21875 50.515625 64.515625 
Q 56.984375 54.828125 56.984375 36.375 
Q 56.984375 17.96875 50.515625 8.265625 
Q 44.046875 -1.421875 31.78125 -1.421875 
Q 19.53125 -1.421875 13.0625 8.265625 
Q 6.59375 17.96875 6.59375 36.375 
Q 6.59375 54.828125 13.0625 64.515625 
Q 19.53125 74.21875 31.78125 74.21875 
z
" id="DejaVuSans-48"/>
      </defs>
      <g style="fill:#555555;" transform="translate(70.651477 322.182437)scale(0.1 -0.1)">
       <use xlink:href="#DejaVuSans-48"/>
      </g>
     </g>
    </g>
    <g id="xtick_2">
     <g id="line2d_3">
      <path clip-path="url(#p4b22cbed6a)" d="M 115.455105 307.584 
L 115.455105 41.472 
" style="fill:none;stroke:#ffffff;stroke-linecap:square;stroke-width:0.8;"/>
     </g>
     <g id="line2d_4">
      <g>
       <use style="fill:#555555;stroke:#555555;stroke-width:0.8;" x="115.455105" xlink:href="#m5675f2ccc7" y="307.584"/>
      </g>
     </g>
     <g id="text_2">
      <!-- 1000 -->
      <defs>
       <path d="M 12.40625 8.296875 
L 28.515625 8.296875 
L 28.515625 63.921875 
L 10.984375 60.40625 
L 10.984375 69.390625 
L 28.421875 72.90625 
L 38.28125 72.90625 
L 38.28125 8.296875 
L 54.390625 8.296875 
L 54.390625 0 
L 12.40625 0 
z
" id="DejaVuSans-49"/>
      </defs>
      <g style="fill:#555555;" transform="translate(102.730105 322.182437)scale(0.1 -0.1)">
       <use xlink:href="#DejaVuSans-49"/>
       <use x="63.623047" xlink:href="#DejaVuSans-48"/>
       <use x="127.246094" xlink:href="#DejaVuSans-48"/>
       <use x="190.869141" xlink:href="#DejaVuSans-48"/>
      </g>
     </g>
    </g>
    <g id="xtick_3">
     <g id="line2d_5">
      <path clip-path="url(#p4b22cbed6a)" d="M 157.077483 307.584 
L 157.077483 41.472 
" style="fill:none;stroke:#ffffff;stroke-linecap:square;stroke-width:0.8;"/>
     </g>
     <g id="line2d_6">
      <g>
       <use style="fill:#555555;stroke:#555555;stroke-width:0.8;" x="157.077483" xlink:href="#m5675f2ccc7" y="307.584"/>
      </g>
     </g>
     <g id="text_3">
      <!-- 2000 -->
      <defs>
       <path d="M 19.1875 8.296875 
L 53.609375 8.296875 
L 53.609375 0 
L 7.328125 0 
L 7.328125 8.296875 
Q 12.9375 14.109375 22.625 23.890625 
Q 32.328125 33.6875 34.8125 36.53125 
Q 39.546875 41.84375 41.421875 45.53125 
Q 43.3125 49.21875 43.3125 52.78125 
Q 43.3125 58.59375 39.234375 62.25 
Q 35.15625 65.921875 28.609375 65.921875 
Q 23.96875 65.921875 18.8125 64.3125 
Q 13.671875 62.703125 7.8125 59.421875 
L 7.8125 69.390625 
Q 13.765625 71.78125 18.9375 73 
Q 24.125 74.21875 28.421875 74.21875 
Q 39.75 74.21875 46.484375 68.546875 
Q 53.21875 62.890625 53.21875 53.421875 
Q 53.21875 48.921875 51.53125 44.890625 
Q 49.859375 40.875 45.40625 35.40625 
Q 44.1875 33.984375 37.640625 27.21875 
Q 31.109375 20.453125 19.1875 8.296875 
z
" id="DejaVuSans-50"/>
      </defs>
      <g style="fill:#555555;" transform="translate(144.352483 322.182437)scale(0.1 -0.1)">
       <use xlink:href="#DejaVuSans-50"/>
       <use x="63.623047" xlink:href="#DejaVuSans-48"/>
       <use x="127.246094" xlink:href="#DejaVuSans-48"/>
       <use x="190.869141" xlink:href="#DejaVuSans-48"/>
      </g>
     </g>
    </g>
    <g id="xtick_4">
     <g id="line2d_7">
      <path clip-path="url(#p4b22cbed6a)" d="M 198.69986 307.584 
L 198.69986 41.472 
" style="fill:none;stroke:#ffffff;stroke-linecap:square;stroke-width:0.8;"/>
     </g>
     <g id="line2d_8">
      <g>
       <use style="fill:#555555;stroke:#555555;stroke-width:0.8;" x="198.69986" xlink:href="#m5675f2ccc7" y="307.584"/>
      </g>
     </g>
     <g id="text_4">
      <!-- 3000 -->
      <defs>
       <path d="M 40.578125 39.3125 
Q 47.65625 37.796875 51.625 33 
Q 55.609375 28.21875 55.609375 21.1875 
Q 55.609375 10.40625 48.1875 4.484375 
Q 40.765625 -1.421875 27.09375 -1.421875 
Q 22.515625 -1.421875 17.65625 -0.515625 
Q 12.796875 0.390625 7.625 2.203125 
L 7.625 11.71875 
Q 11.71875 9.328125 16.59375 8.109375 
Q 21.484375 6.890625 26.8125 6.890625 
Q 36.078125 6.890625 40.9375 10.546875 
Q 45.796875 14.203125 45.796875 21.1875 
Q 45.796875 27.640625 41.28125 31.265625 
Q 36.765625 34.90625 28.71875 34.90625 
L 20.21875 34.90625 
L 20.21875 43.015625 
L 29.109375 43.015625 
Q 36.375 43.015625 40.234375 45.921875 
Q 44.09375 48.828125 44.09375 54.296875 
Q 44.09375 59.90625 40.109375 62.90625 
Q 36.140625 65.921875 28.71875 65.921875 
Q 24.65625 65.921875 20.015625 65.03125 
Q 15.375 64.15625 9.8125 62.3125 
L 9.8125 71.09375 
Q 15.4375 72.65625 20.34375 73.4375 
Q 25.25 74.21875 29.59375 74.21875 
Q 40.828125 74.21875 47.359375 69.109375 
Q 53.90625 64.015625 53.90625 55.328125 
Q 53.90625 49.265625 50.4375 45.09375 
Q 46.96875 40.921875 40.578125 39.3125 
z
" id="DejaVuSans-51"/>
      </defs>
      <g style="fill:#555555;" transform="translate(185.97486 322.182437)scale(0.1 -0.1)">
       <use xlink:href="#DejaVuSans-51"/>
       <use x="63.623047" xlink:href="#DejaVuSans-48"/>
       <use x="127.246094" xlink:href="#DejaVuSans-48"/>
       <use x="190.869141" xlink:href="#DejaVuSans-48"/>
      </g>
     </g>
    </g>
    <g id="xtick_5">
     <g id="line2d_9">
      <path clip-path="url(#p4b22cbed6a)" d="M 240.322238 307.584 
L 240.322238 41.472 
" style="fill:none;stroke:#ffffff;stroke-linecap:square;stroke-width:0.8;"/>
     </g>
     <g id="line2d_10">
      <g>
       <use style="fill:#555555;stroke:#555555;stroke-width:0.8;" x="240.322238" xlink:href="#m5675f2ccc7" y="307.584"/>
      </g>
     </g>
     <g id="text_5">
      <!-- 4000 -->
      <defs>
       <path d="M 37.796875 64.3125 
L 12.890625 25.390625 
L 37.796875 25.390625 
z
M 35.203125 72.90625 
L 47.609375 72.90625 
L 47.609375 25.390625 
L 58.015625 25.390625 
L 58.015625 17.1875 
L 47.609375 17.1875 
L 47.609375 0 
L 37.796875 0 
L 37.796875 17.1875 
L 4.890625 17.1875 
L 4.890625 26.703125 
z
" id="DejaVuSans-52"/>
      </defs>
      <g style="fill:#555555;" transform="translate(227.597238 322.182437)scale(0.1 -0.1)">
       <use xlink:href="#DejaVuSans-52"/>
       <use x="63.623047" xlink:href="#DejaVuSans-48"/>
       <use x="127.246094" xlink:href="#DejaVuSans-48"/>
       <use x="190.869141" xlink:href="#DejaVuSans-48"/>
      </g>
     </g>
    </g>
    <g id="xtick_6">
     <g id="line2d_11">
      <path clip-path="url(#p4b22cbed6a)" d="M 281.944615 307.584 
L 281.944615 41.472 
" style="fill:none;stroke:#ffffff;stroke-linecap:square;stroke-width:0.8;"/>
     </g>
     <g id="line2d_12">
      <g>
       <use style="fill:#555555;stroke:#555555;stroke-width:0.8;" x="281.944615" xlink:href="#m5675f2ccc7" y="307.584"/>
      </g>
     </g>
     <g id="text_6">
      <!-- 5000 -->
      <defs>
       <path d="M 10.796875 72.90625 
L 49.515625 72.90625 
L 49.515625 64.59375 
L 19.828125 64.59375 
L 19.828125 46.734375 
Q 21.96875 47.46875 24.109375 47.828125 
Q 26.265625 48.1875 28.421875 48.1875 
Q 40.625 48.1875 47.75 41.5 
Q 54.890625 34.8125 54.890625 23.390625 
Q 54.890625 11.625 47.5625 5.09375 
Q 40.234375 -1.421875 26.90625 -1.421875 
Q 22.3125 -1.421875 17.546875 -0.640625 
Q 12.796875 0.140625 7.71875 1.703125 
L 7.71875 11.625 
Q 12.109375 9.234375 16.796875 8.0625 
Q 21.484375 6.890625 26.703125 6.890625 
Q 35.15625 6.890625 40.078125 11.328125 
Q 45.015625 15.765625 45.015625 23.390625 
Q 45.015625 31 40.078125 35.4375 
Q 35.15625 39.890625 26.703125 39.890625 
Q 22.75 39.890625 18.8125 39.015625 
Q 14.890625 38.140625 10.796875 36.28125 
z
" id="DejaVuSans-53"/>
      </defs>
      <g style="fill:#555555;" transform="translate(269.219615 322.182437)scale(0.1 -0.1)">
       <use xlink:href="#DejaVuSans-53"/>
       <use x="63.623047" xlink:href="#DejaVuSans-48"/>
       <use x="127.246094" xlink:href="#DejaVuSans-48"/>
       <use x="190.869141" xlink:href="#DejaVuSans-48"/>
      </g>
     </g>
    </g>
    <g id="xtick_7">
     <g id="line2d_13">
      <path clip-path="url(#p4b22cbed6a)" d="M 323.566993 307.584 
L 323.566993 41.472 
" style="fill:none;stroke:#ffffff;stroke-linecap:square;stroke-width:0.8;"/>
     </g>
     <g id="line2d_14">
      <g>
       <use style="fill:#555555;stroke:#555555;stroke-width:0.8;" x="323.566993" xlink:href="#m5675f2ccc7" y="307.584"/>
      </g>
     </g>
     <g id="text_7">
      <!-- 6000 -->
      <defs>
       <path d="M 33.015625 40.375 
Q 26.375 40.375 22.484375 35.828125 
Q 18.609375 31.296875 18.609375 23.390625 
Q 18.609375 15.53125 22.484375 10.953125 
Q 26.375 6.390625 33.015625 6.390625 
Q 39.65625 6.390625 43.53125 10.953125 
Q 47.40625 15.53125 47.40625 23.390625 
Q 47.40625 31.296875 43.53125 35.828125 
Q 39.65625 40.375 33.015625 40.375 
z
M 52.59375 71.296875 
L 52.59375 62.3125 
Q 48.875 64.0625 45.09375 64.984375 
Q 41.3125 65.921875 37.59375 65.921875 
Q 27.828125 65.921875 22.671875 59.328125 
Q 17.53125 52.734375 16.796875 39.40625 
Q 19.671875 43.65625 24.015625 45.921875 
Q 28.375 48.1875 33.59375 48.1875 
Q 44.578125 48.1875 50.953125 41.515625 
Q 57.328125 34.859375 57.328125 23.390625 
Q 57.328125 12.15625 50.6875 5.359375 
Q 44.046875 -1.421875 33.015625 -1.421875 
Q 20.359375 -1.421875 13.671875 8.265625 
Q 6.984375 17.96875 6.984375 36.375 
Q 6.984375 53.65625 15.1875 63.9375 
Q 23.390625 74.21875 37.203125 74.21875 
Q 40.921875 74.21875 44.703125 73.484375 
Q 48.484375 72.75 52.59375 71.296875 
z
" id="DejaVuSans-54"/>
      </defs>
      <g style="fill:#555555;" transform="translate(310.841993 322.182437)scale(0.1 -0.1)">
       <use xlink:href="#DejaVuSans-54"/>
       <use x="63.623047" xlink:href="#DejaVuSans-48"/>
       <use x="127.246094" xlink:href="#DejaVuSans-48"/>
       <use x="190.869141" xlink:href="#DejaVuSans-48"/>
      </g>
     </g>
    </g>
    <g id="xtick_8">
     <g id="line2d_15">
      <path clip-path="url(#p4b22cbed6a)" d="M 365.189371 307.584 
L 365.189371 41.472 
" style="fill:none;stroke:#ffffff;stroke-linecap:square;stroke-width:0.8;"/>
     </g>
     <g id="line2d_16">
      <g>
       <use style="fill:#555555;stroke:#555555;stroke-width:0.8;" x="365.189371" xlink:href="#m5675f2ccc7" y="307.584"/>
      </g>
     </g>
     <g id="text_8">
      <!-- 7000 -->
      <defs>
       <path d="M 8.203125 72.90625 
L 55.078125 72.90625 
L 55.078125 68.703125 
L 28.609375 0 
L 18.3125 0 
L 43.21875 64.59375 
L 8.203125 64.59375 
z
" id="DejaVuSans-55"/>
      </defs>
      <g style="fill:#555555;" transform="translate(352.464371 322.182437)scale(0.1 -0.1)">
       <use xlink:href="#DejaVuSans-55"/>
       <use x="63.623047" xlink:href="#DejaVuSans-48"/>
       <use x="127.246094" xlink:href="#DejaVuSans-48"/>
       <use x="190.869141" xlink:href="#DejaVuSans-48"/>
      </g>
     </g>
    </g>
    <g id="text_9">
     <!-- Steps -->
     <defs>
      <path d="M 53.515625 70.515625 
L 53.515625 60.890625 
Q 47.90625 63.578125 42.921875 64.890625 
Q 37.9375 66.21875 33.296875 66.21875 
Q 25.25 66.21875 20.875 63.09375 
Q 16.5 59.96875 16.5 54.203125 
Q 16.5 49.359375 19.40625 46.890625 
Q 22.3125 44.4375 30.421875 42.921875 
L 36.375 41.703125 
Q 47.40625 39.59375 52.65625 34.296875 
Q 57.90625 29 57.90625 20.125 
Q 57.90625 9.515625 50.796875 4.046875 
Q 43.703125 -1.421875 29.984375 -1.421875 
Q 24.8125 -1.421875 18.96875 -0.25 
Q 13.140625 0.921875 6.890625 3.21875 
L 6.890625 13.375 
Q 12.890625 10.015625 18.65625 8.296875 
Q 24.421875 6.59375 29.984375 6.59375 
Q 38.421875 6.59375 43.015625 9.90625 
Q 47.609375 13.234375 47.609375 19.390625 
Q 47.609375 24.75 44.3125 27.78125 
Q 41.015625 30.8125 33.5 32.328125 
L 27.484375 33.5 
Q 16.453125 35.6875 11.515625 40.375 
Q 6.59375 45.0625 6.59375 53.421875 
Q 6.59375 63.09375 13.40625 68.65625 
Q 20.21875 74.21875 32.171875 74.21875 
Q 37.3125 74.21875 42.625 73.28125 
Q 47.953125 72.359375 53.515625 70.515625 
z
" id="DejaVuSans-83"/>
      <path d="M 18.3125 70.21875 
L 18.3125 54.6875 
L 36.8125 54.6875 
L 36.8125 47.703125 
L 18.3125 47.703125 
L 18.3125 18.015625 
Q 18.3125 11.328125 20.140625 9.421875 
Q 21.96875 7.515625 27.59375 7.515625 
L 36.8125 7.515625 
L 36.8125 0 
L 27.59375 0 
Q 17.1875 0 13.234375 3.875 
Q 9.28125 7.765625 9.28125 18.015625 
L 9.28125 47.703125 
L 2.6875 47.703125 
L 2.6875 54.6875 
L 9.28125 54.6875 
L 9.28125 70.21875 
z
" id="DejaVuSans-116"/>
      <path d="M 56.203125 29.59375 
L 56.203125 25.203125 
L 14.890625 25.203125 
Q 15.484375 15.921875 20.484375 11.0625 
Q 25.484375 6.203125 34.421875 6.203125 
Q 39.59375 6.203125 44.453125 7.46875 
Q 49.3125 8.734375 54.109375 11.28125 
L 54.109375 2.78125 
Q 49.265625 0.734375 44.1875 -0.34375 
Q 39.109375 -1.421875 33.890625 -1.421875 
Q 20.796875 -1.421875 13.15625 6.1875 
Q 5.515625 13.8125 5.515625 26.8125 
Q 5.515625 40.234375 12.765625 48.109375 
Q 20.015625 56 32.328125 56 
Q 43.359375 56 49.78125 48.890625 
Q 56.203125 41.796875 56.203125 29.59375 
z
M 47.21875 32.234375 
Q 47.125 39.59375 43.09375 43.984375 
Q 39.0625 48.390625 32.421875 48.390625 
Q 24.90625 48.390625 20.390625 44.140625 
Q 15.875 39.890625 15.1875 32.171875 
z
" id="DejaVuSans-101"/>
      <path d="M 18.109375 8.203125 
L 18.109375 -20.796875 
L 9.078125 -20.796875 
L 9.078125 54.6875 
L 18.109375 54.6875 
L 18.109375 46.390625 
Q 20.953125 51.265625 25.265625 53.625 
Q 29.59375 56 35.59375 56 
Q 45.5625 56 51.78125 48.09375 
Q 58.015625 40.1875 58.015625 27.296875 
Q 58.015625 14.40625 51.78125 6.484375 
Q 45.5625 -1.421875 35.59375 -1.421875 
Q 29.59375 -1.421875 25.265625 0.953125 
Q 20.953125 3.328125 18.109375 8.203125 
z
M 48.6875 27.296875 
Q 48.6875 37.203125 44.609375 42.84375 
Q 40.53125 48.484375 33.40625 48.484375 
Q 26.265625 48.484375 22.1875 42.84375 
Q 18.109375 37.203125 18.109375 27.296875 
Q 18.109375 17.390625 22.1875 11.75 
Q 26.265625 6.109375 33.40625 6.109375 
Q 40.53125 6.109375 44.609375 11.75 
Q 48.6875 17.390625 48.6875 27.296875 
z
" id="DejaVuSans-112"/>
      <path d="M 44.28125 53.078125 
L 44.28125 44.578125 
Q 40.484375 46.53125 36.375 47.5 
Q 32.28125 48.484375 27.875 48.484375 
Q 21.1875 48.484375 17.84375 46.4375 
Q 14.5 44.390625 14.5 40.28125 
Q 14.5 37.15625 16.890625 35.375 
Q 19.28125 33.59375 26.515625 31.984375 
L 29.59375 31.296875 
Q 39.15625 29.25 43.1875 25.515625 
Q 47.21875 21.78125 47.21875 15.09375 
Q 47.21875 7.46875 41.1875 3.015625 
Q 35.15625 -1.421875 24.609375 -1.421875 
Q 20.21875 -1.421875 15.453125 -0.5625 
Q 10.6875 0.296875 5.421875 2 
L 5.421875 11.28125 
Q 10.40625 8.6875 15.234375 7.390625 
Q 20.0625 6.109375 24.8125 6.109375 
Q 31.15625 6.109375 34.5625 8.28125 
Q 37.984375 10.453125 37.984375 14.40625 
Q 37.984375 18.0625 35.515625 20.015625 
Q 33.0625 21.96875 24.703125 23.78125 
L 21.578125 24.515625 
Q 13.234375 26.265625 9.515625 29.90625 
Q 5.8125 33.546875 5.8125 39.890625 
Q 5.8125 47.609375 11.28125 51.796875 
Q 16.75 56 26.8125 56 
Q 31.78125 56 36.171875 55.265625 
Q 40.578125 54.546875 44.28125 53.078125 
z
" id="DejaVuSans-115"/>
     </defs>
     <g style="fill:#555555;" transform="translate(219.372187 337.38025)scale(0.12 -0.12)">
      <use xlink:href="#DejaVuSans-83"/>
      <use x="63.476562" xlink:href="#DejaVuSans-116"/>
      <use x="102.685547" xlink:href="#DejaVuSans-101"/>
      <use x="164.208984" xlink:href="#DejaVuSans-112"/>
      <use x="227.685547" xlink:href="#DejaVuSans-115"/>
     </g>
    </g>
   </g>
   <g id="matplotlib.axis_2">
    <g id="ytick_1">
     <g id="line2d_17">
      <path clip-path="url(#p4b22cbed6a)" d="M 57.6 295.898219 
L 414.72 295.898219 
" style="fill:none;stroke:#ffffff;stroke-linecap:square;stroke-width:0.8;"/>
     </g>
     <g id="line2d_18">
      <defs>
       <path d="M 0 0 
L -3.5 0 
" id="m37fb036b08" style="stroke:#555555;stroke-width:0.8;"/>
      </defs>
      <g>
       <use style="fill:#555555;stroke:#555555;stroke-width:0.8;" x="57.6" xlink:href="#m37fb036b08" y="295.898219"/>
      </g>
     </g>
     <g id="text_10">
      <!-- 0.0 -->
      <defs>
       <path d="M 10.6875 12.40625 
L 21 12.40625 
L 21 0 
L 10.6875 0 
z
" id="DejaVuSans-46"/>
      </defs>
      <g style="fill:#555555;" transform="translate(34.696875 299.697438)scale(0.1 -0.1)">
       <use xlink:href="#DejaVuSans-48"/>
       <use x="63.623047" xlink:href="#DejaVuSans-46"/>
       <use x="95.410156" xlink:href="#DejaVuSans-48"/>
      </g>
     </g>
    </g>
    <g id="ytick_2">
     <g id="line2d_19">
      <path clip-path="url(#p4b22cbed6a)" d="M 57.6 251.81191 
L 414.72 251.81191 
" style="fill:none;stroke:#ffffff;stroke-linecap:square;stroke-width:0.8;"/>
     </g>
     <g id="line2d_20">
      <g>
       <use style="fill:#555555;stroke:#555555;stroke-width:0.8;" x="57.6" xlink:href="#m37fb036b08" y="251.81191"/>
      </g>
     </g>
     <g id="text_11">
      <!-- 0.5 -->
      <g style="fill:#555555;" transform="translate(34.696875 255.611128)scale(0.1 -0.1)">
       <use xlink:href="#DejaVuSans-48"/>
       <use x="63.623047" xlink:href="#DejaVuSans-46"/>
       <use x="95.410156" xlink:href="#DejaVuSans-53"/>
      </g>
     </g>
    </g>
    <g id="ytick_3">
     <g id="line2d_21">
      <path clip-path="url(#p4b22cbed6a)" d="M 57.6 207.7256 
L 414.72 207.7256 
" style="fill:none;stroke:#ffffff;stroke-linecap:square;stroke-width:0.8;"/>
     </g>
     <g id="line2d_22">
      <g>
       <use style="fill:#555555;stroke:#555555;stroke-width:0.8;" x="57.6" xlink:href="#m37fb036b08" y="207.7256"/>
      </g>
     </g>
     <g id="text_12">
      <!-- 1.0 -->
      <g style="fill:#555555;" transform="translate(34.696875 211.524819)scale(0.1 -0.1)">
       <use xlink:href="#DejaVuSans-49"/>
       <use x="63.623047" xlink:href="#DejaVuSans-46"/>
       <use x="95.410156" xlink:href="#DejaVuSans-48"/>
      </g>
     </g>
    </g>
    <g id="ytick_4">
     <g id="line2d_23">
      <path clip-path="url(#p4b22cbed6a)" d="M 57.6 163.63929 
L 414.72 163.63929 
" style="fill:none;stroke:#ffffff;stroke-linecap:square;stroke-width:0.8;"/>
     </g>
     <g id="line2d_24">
      <g>
       <use style="fill:#555555;stroke:#555555;stroke-width:0.8;" x="57.6" xlink:href="#m37fb036b08" y="163.63929"/>
      </g>
     </g>
     <g id="text_13">
      <!-- 1.5 -->
      <g style="fill:#555555;" transform="translate(34.696875 167.438509)scale(0.1 -0.1)">
       <use xlink:href="#DejaVuSans-49"/>
       <use x="63.623047" xlink:href="#DejaVuSans-46"/>
       <use x="95.410156" xlink:href="#DejaVuSans-53"/>
      </g>
     </g>
    </g>
    <g id="ytick_5">
     <g id="line2d_25">
      <path clip-path="url(#p4b22cbed6a)" d="M 57.6 119.55298 
L 414.72 119.55298 
" style="fill:none;stroke:#ffffff;stroke-linecap:square;stroke-width:0.8;"/>
     </g>
     <g id="line2d_26">
      <g>
       <use style="fill:#555555;stroke:#555555;stroke-width:0.8;" x="57.6" xlink:href="#m37fb036b08" y="119.55298"/>
      </g>
     </g>
     <g id="text_14">
      <!-- 2.0 -->
      <g style="fill:#555555;" transform="translate(34.696875 123.352199)scale(0.1 -0.1)">
       <use xlink:href="#DejaVuSans-50"/>
       <use x="63.623047" xlink:href="#DejaVuSans-46"/>
       <use x="95.410156" xlink:href="#DejaVuSans-48"/>
      </g>
     </g>
    </g>
    <g id="ytick_6">
     <g id="line2d_27">
      <path clip-path="url(#p4b22cbed6a)" d="M 57.6 75.466671 
L 414.72 75.466671 
" style="fill:none;stroke:#ffffff;stroke-linecap:square;stroke-width:0.8;"/>
     </g>
     <g id="line2d_28">
      <g>
       <use style="fill:#555555;stroke:#555555;stroke-width:0.8;" x="57.6" xlink:href="#m37fb036b08" y="75.466671"/>
      </g>
     </g>
     <g id="text_15">
      <!-- 2.5 -->
      <g style="fill:#555555;" transform="translate(34.696875 79.265889)scale(0.1 -0.1)">
       <use xlink:href="#DejaVuSans-50"/>
       <use x="63.623047" xlink:href="#DejaVuSans-46"/>
       <use x="95.410156" xlink:href="#DejaVuSans-53"/>
      </g>
     </g>
    </g>
    <g id="text_16">
     <!-- Loss -->
     <defs>
      <path d="M 9.8125 72.90625 
L 19.671875 72.90625 
L 19.671875 8.296875 
L 55.171875 8.296875 
L 55.171875 0 
L 9.8125 0 
z
" id="DejaVuSans-76"/>
      <path d="M 30.609375 48.390625 
Q 23.390625 48.390625 19.1875 42.75 
Q 14.984375 37.109375 14.984375 27.296875 
Q 14.984375 17.484375 19.15625 11.84375 
Q 23.34375 6.203125 30.609375 6.203125 
Q 37.796875 6.203125 41.984375 11.859375 
Q 46.1875 17.53125 46.1875 27.296875 
Q 46.1875 37.015625 41.984375 42.703125 
Q 37.796875 48.390625 30.609375 48.390625 
z
M 30.609375 56 
Q 42.328125 56 49.015625 48.375 
Q 55.71875 40.765625 55.71875 27.296875 
Q 55.71875 13.875 49.015625 6.21875 
Q 42.328125 -1.421875 30.609375 -1.421875 
Q 18.84375 -1.421875 12.171875 6.21875 
Q 5.515625 13.875 5.515625 27.296875 
Q 5.515625 40.765625 12.171875 48.375 
Q 18.84375 56 30.609375 56 
z
" id="DejaVuSans-111"/>
     </defs>
     <g style="fill:#555555;" transform="translate(28.20125 187.792687)rotate(-90)scale(0.12 -0.12)">
      <use xlink:href="#DejaVuSans-76"/>
      <use x="55.697266" xlink:href="#DejaVuSans-111"/>
      <use x="116.878906" xlink:href="#DejaVuSans-115"/>
      <use x="168.978516" xlink:href="#DejaVuSans-115"/>
     </g>
    </g>
   </g>
   <g id="PolyCollection_1">
    <defs>
     <path d="M 73.832727 -252.705153 
L 73.832727 -252.748374 
L 75.081399 -252.484632 
L 76.33007 -248.816926 
L 77.578741 -235.615452 
L 78.827413 -227.746122 
L 80.076084 -226.769819 
L 81.324755 -206.0665 
L 82.573427 -229.077318 
L 83.822098 -204.395389 
L 85.070769 -207.933316 
L 86.319441 -209.533237 
L 87.568112 -204.828242 
L 88.816783 -201.740805 
L 90.065455 -200.683378 
L 91.314126 -194.230026 
L 92.562797 -189.723963 
L 93.811469 -189.482441 
L 95.06014 -163.985615 
L 96.308811 -173.722633 
L 97.557483 -175.733828 
L 98.806154 -169.297536 
L 100.054825 -168.437211 
L 101.303497 -168.048766 
L 102.552168 -164.005428 
L 103.800839 -177.970999 
L 105.04951 -181.751762 
L 106.298182 -166.181982 
L 107.546853 -160.01352 
L 108.795524 -155.501991 
L 110.044196 -153.027818 
L 111.292867 -169.203567 
L 112.541538 -151.749639 
L 113.79021 -159.512871 
L 115.038881 -150.098982 
L 116.287552 -149.042291 
L 117.536224 -140.60317 
L 118.784895 -149.085133 
L 120.033566 -140.841948 
L 121.282238 -143.438963 
L 122.530909 -148.054509 
L 123.77958 -144.547768 
L 125.028252 -144.622659 
L 126.276923 -133.799487 
L 127.525594 -145.678614 
L 128.774266 -147.72521 
L 130.022937 -139.534538 
L 131.271608 -131.465604 
L 132.52028 -130.493936 
L 133.768951 -148.046248 
L 135.017622 -136.293399 
L 136.266294 -133.642999 
L 137.514965 -164.629277 
L 138.763636 -139.322952 
L 140.012308 -130.824691 
L 141.260979 -126.836578 
L 142.50965 -127.251273 
L 143.758322 -124.86718 
L 145.006993 -129.349473 
L 146.255664 -131.693535 
L 147.504336 -124.113726 
L 148.753007 -123.08133 
L 150.001678 -120.229776 
L 151.25035 -123.632138 
L 152.499021 -133.073061 
L 153.747692 -140.719127 
L 154.996364 -115.072803 
L 156.245035 -110.884382 
L 157.493706 -113.231787 
L 158.742378 -122.480995 
L 159.991049 -109.118498 
L 161.23972 -121.65769 
L 162.488392 -118.96831 
L 163.737063 -125.638745 
L 164.985734 -130.73262 
L 166.234406 -115.207244 
L 167.483077 -125.567412 
L 168.731748 -123.123006 
L 169.98042 -106.041094 
L 171.229091 -108.720925 
L 172.477762 -127.315306 
L 173.726434 -132.051372 
L 174.975105 -121.706161 
L 176.223776 -120.451337 
L 177.472448 -112.622506 
L 178.721119 -115.319092 
L 179.96979 -111.435452 
L 181.218462 -126.909903 
L 182.467133 -103.524499 
L 183.715804 -96.283863 
L 184.964476 -108.38915 
L 186.213147 -114.759239 
L 187.461818 -109.132993 
L 188.71049 -103.719084 
L 189.959161 -108.748201 
L 191.207832 -115.077439 
L 192.456503 -115.446543 
L 193.705175 -103.537553 
L 194.953846 -100.729142 
L 196.202517 -108.68092 
L 197.451189 -105.703717 
L 198.69986 -97.419156 
L 199.948531 -113.706878 
L 201.197203 -109.527785 
L 202.445874 -106.448179 
L 203.694545 -114.261701 
L 204.943217 -98.847437 
L 206.191888 -111.171752 
L 207.440559 -106.646701 
L 208.689231 -92.202183 
L 209.937902 -106.543625 
L 211.186573 -113.426061 
L 212.435245 -102.359634 
L 213.683916 -94.620561 
L 214.932587 -100.448398 
L 216.181259 -92.938802 
L 217.42993 -92.721871 
L 218.678601 -100.634674 
L 219.927273 -91.446306 
L 221.175944 -91.897822 
L 222.424615 -93.598503 
L 223.673287 -101.17999 
L 224.921958 -99.412245 
L 226.170629 -97.51387 
L 227.419301 -98.895146 
L 228.667972 -99.305485 
L 229.916643 -90.768124 
L 231.165315 -106.889363 
L 232.413986 -99.093652 
L 233.662657 -87.696997 
L 234.911329 -97.768678 
L 236.16 -104.392076 
L 237.408671 -94.647737 
L 238.657343 -86.034292 
L 239.906014 -86.549578 
L 241.154685 -88.7029 
L 242.403357 -91.108638 
L 243.652028 -96.57569 
L 244.900699 -92.238985 
L 246.149371 -99.035515 
L 247.398042 -90.210996 
L 248.646713 -93.332349 
L 249.895385 -102.376199 
L 251.144056 -90.105221 
L 252.392727 -86.407695 
L 253.641399 -78.295485 
L 254.89007 -77.543859 
L 256.138741 -85.025985 
L 257.387413 -87.920424 
L 258.636084 -83.647537 
L 259.884755 -95.747939 
L 261.133427 -87.896404 
L 262.382098 -96.849428 
L 263.630769 -102.055135 
L 264.879441 -97.565926 
L 266.128112 -94.602335 
L 267.376783 -103.084225 
L 268.625455 -89.07034 
L 269.874126 -79.545855 
L 271.122797 -89.52481 
L 272.371469 -85.393169 
L 273.62014 -91.569298 
L 274.868811 -110.069717 
L 276.117483 -79.108642 
L 277.366154 -80.542121 
L 278.614825 -70.270069 
L 279.863497 -81.862701 
L 281.112168 -74.94057 
L 282.360839 -74.701573 
L 283.60951 -90.299076 
L 284.858182 -85.544374 
L 286.106853 -76.544206 
L 287.355524 -90.88684 
L 288.604196 -84.138074 
L 289.852867 -82.45569 
L 291.101538 -95.122277 
L 292.35021 -78.605798 
L 293.598881 -83.079289 
L 294.847552 -81.739147 
L 296.096224 -89.30924 
L 297.344895 -72.376523 
L 298.593566 -87.048006 
L 299.842238 -89.834343 
L 301.090909 -95.417515 
L 302.33958 -66.216492 
L 303.588252 -72.124971 
L 304.836923 -68.672637 
L 306.085594 -67.055088 
L 307.334266 -81.191813 
L 308.582937 -77.098887 
L 309.831608 -88.171049 
L 311.08028 -83.420859 
L 312.328951 -81.130256 
L 313.577622 -87.974764 
L 314.826294 -84.640156 
L 316.074965 -87.311838 
L 317.323636 -73.482587 
L 318.572308 -70.195881 
L 319.820979 -73.589013 
L 321.06965 -73.022507 
L 322.318322 -75.94699 
L 323.566993 -87.863654 
L 324.815664 -71.141592 
L 326.064336 -82.808998 
L 327.313007 -82.24974 
L 328.561678 -84.752602 
L 329.81035 -89.791079 
L 331.059021 -91.199406 
L 332.307692 -74.222937 
L 333.556364 -74.975138 
L 334.805035 -80.560628 
L 336.053706 -63.939127 
L 337.302378 -70.472642 
L 338.551049 -83.822387 
L 339.79972 -75.577912 
L 341.048392 -83.540884 
L 342.297063 -86.385178 
L 343.545734 -71.220325 
L 344.794406 -76.407823 
L 346.043077 -76.15382 
L 347.291748 -93.264196 
L 348.54042 -90.995059 
L 349.789091 -92.138647 
L 351.037762 -68.007227 
L 352.286434 -68.39845 
L 353.535105 -71.930536 
L 354.783776 -75.380255 
L 356.032448 -66.507672 
L 357.281119 -65.568483 
L 358.52979 -72.970418 
L 359.778462 -71.682725 
L 361.027133 -71.341388 
L 362.275804 -74.46655 
L 363.524476 -68.533541 
L 364.773147 -80.515444 
L 366.021818 -78.244039 
L 367.27049 -65.804198 
L 368.519161 -61.099677 
L 369.767832 -64.502233 
L 371.016503 -85.725227 
L 372.265175 -63.295572 
L 373.513846 -71.70503 
L 374.762517 -67.427255 
L 376.011189 -64.596478 
L 377.25986 -74.225893 
L 378.508531 -82.34199 
L 379.757203 -85.718684 
L 381.005874 -66.851732 
L 382.254545 -81.99648 
L 383.503217 -67.980501 
L 384.751888 -74.335678 
L 386.000559 -76.695265 
L 387.249231 -72.184411 
L 388.497902 -70.471907 
L 389.746573 -70.392183 
L 390.995245 -70.438032 
L 392.243916 -65.530282 
L 393.492587 -66.242143 
L 394.741259 -68.15568 
L 395.98993 -65.655139 
L 397.238601 -59.299711 
L 398.487273 -73.904057 
L 398.487273 -52.445534 
L 398.487273 -52.445534 
L 397.238601 -51.323582 
L 395.98993 -53.797808 
L 394.741259 -53.572931 
L 393.492587 -53.115716 
L 392.243916 -50.875649 
L 390.995245 -51.358176 
L 389.746573 -52.10632 
L 388.497902 -50.589889 
L 387.249231 -51.19643 
L 386.000559 -51.911623 
L 384.751888 -51.023084 
L 383.503217 -53.146488 
L 382.254545 -54.956597 
L 381.005874 -53.578899 
L 379.757203 -52.585807 
L 378.508531 -53.099632 
L 377.25986 -55.883902 
L 376.011189 -52.2154 
L 374.762517 -57.009165 
L 373.513846 -51.506245 
L 372.265175 -52.808759 
L 371.016503 -51.348268 
L 369.767832 -53.276847 
L 368.519161 -50.855956 
L 367.27049 -51.193425 
L 366.021818 -50.991598 
L 364.773147 -51.401048 
L 363.524476 -53.62035 
L 362.275804 -55.416898 
L 361.027133 -55.05978 
L 359.778462 -53.778378 
L 358.52979 -51.338399 
L 357.281119 -53.831098 
L 356.032448 -55.513448 
L 354.783776 -50.684291 
L 353.535105 -52.525869 
L 352.286434 -52.440481 
L 351.037762 -51.490926 
L 349.789091 -52.353197 
L 348.54042 -54.919588 
L 347.291748 -51.736457 
L 346.043077 -54.722209 
L 344.794406 -50.490706 
L 343.545734 -52.506129 
L 342.297063 -52.652823 
L 341.048392 -55.711178 
L 339.79972 -51.063046 
L 338.551049 -55.921998 
L 337.302378 -51.931468 
L 336.053706 -53.20276 
L 334.805035 -51.534256 
L 333.556364 -55.672923 
L 332.307692 -52.662165 
L 331.059021 -54.320157 
L 329.81035 -56.303808 
L 328.561678 -52.575841 
L 327.313007 -54.247912 
L 326.064336 -51.716268 
L 324.815664 -54.581346 
L 323.566993 -51.760893 
L 322.318322 -50.61663 
L 321.06965 -51.475289 
L 319.820979 -53.161212 
L 318.572308 -53.80502 
L 317.323636 -54.522897 
L 316.074965 -56.191036 
L 314.826294 -59.778163 
L 313.577622 -54.449724 
L 312.328951 -52.63442 
L 311.08028 -53.398316 
L 309.831608 -54.234705 
L 308.582937 -54.335592 
L 307.334266 -57.167187 
L 306.085594 -52.314551 
L 304.836923 -52.466423 
L 303.588252 -53.848713 
L 302.33958 -50.916075 
L 301.090909 -56.648482 
L 299.842238 -52.595791 
L 298.593566 -62.507471 
L 297.344895 -58.232558 
L 296.096224 -57.361256 
L 294.847552 -55.041927 
L 293.598881 -52.782929 
L 292.35021 -51.21453 
L 291.101538 -56.311768 
L 289.852867 -51.78858 
L 288.604196 -54.558969 
L 287.355524 -53.55192 
L 286.106853 -58.5297 
L 284.858182 -52.759669 
L 283.60951 -54.200103 
L 282.360839 -55.212274 
L 281.112168 -59.786026 
L 279.863497 -54.329824 
L 278.614825 -55.021039 
L 277.366154 -54.242432 
L 276.117483 -56.5652 
L 274.868811 -54.416049 
L 273.62014 -51.490292 
L 272.371469 -53.861708 
L 271.122797 -53.903019 
L 269.874126 -51.994337 
L 268.625455 -59.993191 
L 267.376783 -60.965663 
L 266.128112 -52.864762 
L 264.879441 -58.037413 
L 263.630769 -61.921904 
L 262.382098 -55.458624 
L 261.133427 -61.461774 
L 259.884755 -56.022 
L 258.636084 -59.81884 
L 257.387413 -53.198559 
L 256.138741 -56.381359 
L 254.89007 -53.569287 
L 253.641399 -57.265228 
L 252.392727 -59.895124 
L 251.144056 -56.674116 
L 249.895385 -54.658466 
L 248.646713 -64.849075 
L 247.398042 -53.622651 
L 246.149371 -58.904054 
L 244.900699 -56.112009 
L 243.652028 -56.634344 
L 242.403357 -53.389744 
L 241.154685 -53.145796 
L 239.906014 -58.441435 
L 238.657343 -61.081511 
L 237.408671 -56.723665 
L 236.16 -64.725514 
L 234.911329 -58.198735 
L 233.662657 -69.512709 
L 232.413986 -58.534303 
L 231.165315 -63.931119 
L 229.916643 -53.585934 
L 228.667972 -66.670352 
L 227.419301 -60.227047 
L 226.170629 -62.402195 
L 224.921958 -54.65361 
L 223.673287 -59.168832 
L 222.424615 -57.934787 
L 221.175944 -56.661322 
L 219.927273 -62.787518 
L 218.678601 -70.66657 
L 217.42993 -64.414927 
L 216.181259 -71.469614 
L 214.932587 -62.538464 
L 213.683916 -62.726779 
L 212.435245 -64.596335 
L 211.186573 -61.510773 
L 209.937902 -64.279077 
L 208.689231 -57.084951 
L 207.440559 -60.46189 
L 206.191888 -66.732457 
L 204.943217 -67.126847 
L 203.694545 -60.038293 
L 202.445874 -59.69217 
L 201.197203 -72.144319 
L 199.948531 -66.726441 
L 198.69986 -71.374303 
L 197.451189 -62.341407 
L 196.202517 -66.376512 
L 194.953846 -67.607215 
L 193.705175 -66.692414 
L 192.456503 -68.635717 
L 191.207832 -62.448857 
L 189.959161 -64.275118 
L 188.71049 -66.19848 
L 187.461818 -72.37533 
L 186.213147 -64.857685 
L 184.964476 -78.712498 
L 183.715804 -74.776509 
L 182.467133 -72.242229 
L 181.218462 -68.094176 
L 179.96979 -81.688292 
L 178.721119 -65.83553 
L 177.472448 -79.675269 
L 176.223776 -65.385854 
L 174.975105 -68.423171 
L 173.726434 -68.000738 
L 172.477762 -81.211456 
L 171.229091 -82.967047 
L 169.98042 -78.962891 
L 168.731748 -79.863746 
L 167.483077 -74.675225 
L 166.234406 -75.265286 
L 164.985734 -92.448727 
L 163.737063 -78.818901 
L 162.488392 -82.305046 
L 161.23972 -81.227856 
L 159.991049 -87.82915 
L 158.742378 -83.755125 
L 157.493706 -82.905216 
L 156.245035 -81.024531 
L 154.996364 -102.354299 
L 153.747692 -100.731522 
L 152.499021 -102.257693 
L 151.25035 -108.653202 
L 150.001678 -86.835414 
L 148.753007 -99.170792 
L 147.504336 -96.734007 
L 146.255664 -87.019953 
L 145.006993 -99.141261 
L 143.758322 -99.933081 
L 142.50965 -99.263746 
L 141.260979 -86.998555 
L 140.012308 -79.410793 
L 138.763636 -113.866561 
L 137.514965 -94.684447 
L 136.266294 -111.200169 
L 135.017622 -104.987487 
L 133.768951 -106.033946 
L 132.52028 -98.528344 
L 131.271608 -101.320201 
L 130.022937 -118.764144 
L 128.774266 -109.777548 
L 127.525594 -102.31667 
L 126.276923 -104.702177 
L 125.028252 -106.614364 
L 123.77958 -110.462271 
L 122.530909 -120.567458 
L 121.282238 -118.329562 
L 120.033566 -119.041766 
L 118.784895 -117.316512 
L 117.536224 -103.629745 
L 116.287552 -131.15512 
L 115.038881 -116.738817 
L 113.79021 -128.641962 
L 112.541538 -130.345064 
L 111.292867 -122.788215 
L 110.044196 -108.859086 
L 108.795524 -125.627792 
L 107.546853 -120.595165 
L 106.298182 -147.263567 
L 105.04951 -127.652362 
L 103.800839 -143.544693 
L 102.552168 -139.474352 
L 101.303497 -134.009701 
L 100.054825 -135.476117 
L 98.806154 -141.9653 
L 97.557483 -155.626735 
L 96.308811 -150.23368 
L 95.06014 -152.35255 
L 93.811469 -139.788421 
L 92.562797 -167.472638 
L 91.314126 -166.356706 
L 90.065455 -155.373431 
L 88.816783 -173.203737 
L 87.568112 -169.97601 
L 86.319441 -169.521525 
L 85.070769 -171.234523 
L 83.822098 -183.814303 
L 82.573427 -198.013533 
L 81.324755 -185.184747 
L 80.076084 -185.957852 
L 78.827413 -182.899131 
L 77.578741 -211.781507 
L 76.33007 -224.202056 
L 75.081399 -235.311116 
L 73.832727 -252.705153 
z
" id="m112f48da5f" style="stroke:#90ee90;stroke-width:0.5;"/>
    </defs>
    <g clip-path="url(#p4b22cbed6a)">
     <use style="fill:#90ee90;stroke:#90ee90;stroke-width:0.5;" x="0" xlink:href="#m112f48da5f" y="345.6"/>
    </g>
   </g>
   <g id="PolyCollection_2">
    <defs>
     <path d="M 73.832727 -286.498339 
L 73.832727 -292.032 
L 75.081399 -200.457539 
L 76.33007 -187.007774 
L 77.578741 -176.790509 
L 78.827413 -181.266932 
L 80.076084 -164.788308 
L 81.324755 -157.294778 
L 82.573427 -158.886573 
L 83.822098 -161.91415 
L 85.070769 -156.859738 
L 86.319441 -155.765827 
L 87.568112 -144.749968 
L 88.816783 -151.423893 
L 90.065455 -153.992149 
L 91.314126 -135.69505 
L 92.562797 -138.666572 
L 93.811469 -140.383038 
L 95.06014 -141.779119 
L 96.308811 -147.135838 
L 97.557483 -127.783745 
L 98.806154 -145.321514 
L 100.054825 -123.747307 
L 101.303497 -131.363627 
L 102.552168 -129.704219 
L 103.800839 -137.992533 
L 105.04951 -136.229513 
L 106.298182 -114.866078 
L 107.546853 -117.154322 
L 108.795524 -122.630309 
L 110.044196 -117.935126 
L 111.292867 -116.336966 
L 112.541538 -116.764243 
L 113.79021 -117.729168 
L 115.038881 -128.645326 
L 116.287552 -120.325936 
L 117.536224 -111.624345 
L 118.784895 -109.73686 
L 120.033566 -116.180021 
L 121.282238 -121.774556 
L 122.530909 -106.352035 
L 123.77958 -110.045084 
L 125.028252 -104.008099 
L 126.276923 -97.386661 
L 127.525594 -94.35427 
L 128.774266 -111.600259 
L 130.022937 -103.928873 
L 131.271608 -97.885597 
L 132.52028 -116.622413 
L 133.768951 -106.259024 
L 135.017622 -96.859992 
L 136.266294 -107.576146 
L 137.514965 -100.596225 
L 138.763636 -104.214356 
L 140.012308 -91.663997 
L 141.260979 -93.496484 
L 142.50965 -87.682865 
L 143.758322 -92.077457 
L 145.006993 -96.713516 
L 146.255664 -106.859643 
L 147.504336 -92.436763 
L 148.753007 -96.824827 
L 150.001678 -89.136021 
L 151.25035 -92.619086 
L 152.499021 -96.143331 
L 153.747692 -83.660675 
L 154.996364 -100.74412 
L 156.245035 -77.071306 
L 157.493706 -80.839141 
L 158.742378 -77.851372 
L 159.991049 -80.413648 
L 161.23972 -76.660823 
L 162.488392 -83.784043 
L 163.737063 -82.831174 
L 164.985734 -83.576787 
L 166.234406 -84.892414 
L 167.483077 -93.792668 
L 168.731748 -81.430568 
L 169.98042 -78.002252 
L 171.229091 -79.897681 
L 172.477762 -65.493722 
L 173.726434 -90.200945 
L 174.975105 -74.452599 
L 176.223776 -76.124759 
L 177.472448 -68.551929 
L 178.721119 -76.199755 
L 179.96979 -69.342103 
L 181.218462 -75.795558 
L 182.467133 -77.652667 
L 183.715804 -75.852173 
L 184.964476 -80.485916 
L 186.213147 -83.71173 
L 187.461818 -80.337947 
L 188.71049 -67.117064 
L 189.959161 -65.642108 
L 191.207832 -72.50385 
L 192.456503 -90.929239 
L 193.705175 -74.007503 
L 194.953846 -67.324995 
L 196.202517 -76.006395 
L 197.451189 -73.644112 
L 198.69986 -65.980679 
L 199.948531 -69.616595 
L 201.197203 -77.9079 
L 202.445874 -78.005042 
L 203.694545 -74.582752 
L 204.943217 -66.008271 
L 206.191888 -58.040097 
L 207.440559 -62.397347 
L 208.689231 -70.447588 
L 209.937902 -65.341758 
L 211.186573 -64.685105 
L 212.435245 -72.249043 
L 213.683916 -67.328488 
L 214.932587 -67.268907 
L 216.181259 -59.198598 
L 217.42993 -67.206657 
L 218.678601 -70.177014 
L 219.927273 -67.230523 
L 221.175944 -58.077083 
L 222.424615 -63.329053 
L 223.673287 -60.997807 
L 224.921958 -63.680504 
L 226.170629 -60.585711 
L 227.419301 -62.265178 
L 228.667972 -62.064653 
L 229.916643 -62.890351 
L 231.165315 -76.579481 
L 232.413986 -63.11095 
L 233.662657 -61.450291 
L 234.911329 -63.874208 
L 236.16 -68.777847 
L 237.408671 -56.689312 
L 238.657343 -54.866465 
L 239.906014 -54.206379 
L 241.154685 -57.895783 
L 242.403357 -57.978767 
L 243.652028 -70.390039 
L 244.900699 -59.242837 
L 246.149371 -61.012919 
L 247.398042 -62.39803 
L 248.646713 -62.981698 
L 249.895385 -62.505031 
L 251.144056 -59.509636 
L 252.392727 -65.427402 
L 253.641399 -59.814751 
L 254.89007 -56.123844 
L 256.138741 -58.033021 
L 257.387413 -62.483716 
L 258.636084 -61.290007 
L 259.884755 -62.240807 
L 261.133427 -58.968009 
L 262.382098 -61.605182 
L 263.630769 -63.703726 
L 264.879441 -63.167792 
L 266.128112 -60.863263 
L 267.376783 -61.046237 
L 268.625455 -61.730859 
L 269.874126 -57.580547 
L 271.122797 -55.113211 
L 272.371469 -57.069652 
L 273.62014 -55.432744 
L 274.868811 -57.255262 
L 276.117483 -56.548474 
L 277.366154 -62.941089 
L 278.614825 -59.445385 
L 279.863497 -65.250568 
L 281.112168 -58.524834 
L 282.360839 -64.938889 
L 283.60951 -60.033709 
L 284.858182 -62.884307 
L 286.106853 -55.723394 
L 287.355524 -60.309484 
L 288.604196 -58.373341 
L 289.852867 -59.006262 
L 291.101538 -60.779362 
L 292.35021 -67.136828 
L 293.598881 -59.196414 
L 294.847552 -61.836982 
L 296.096224 -59.588159 
L 297.344895 -65.832585 
L 298.593566 -57.332891 
L 299.842238 -62.069622 
L 301.090909 -62.289576 
L 302.33958 -58.917215 
L 303.588252 -58.167766 
L 304.836923 -54.937396 
L 306.085594 -53.853187 
L 307.334266 -63.801916 
L 308.582937 -59.194911 
L 309.831608 -58.771402 
L 311.08028 -71.679658 
L 312.328951 -62.298364 
L 313.577622 -57.651593 
L 314.826294 -63.306622 
L 316.074965 -64.40634 
L 317.323636 -66.697594 
L 318.572308 -56.167718 
L 319.820979 -52.474825 
L 321.06965 -55.753872 
L 322.318322 -54.644172 
L 323.566993 -60.079571 
L 324.815664 -56.418158 
L 326.064336 -52.861979 
L 327.313007 -60.99675 
L 328.561678 -55.40477 
L 329.81035 -57.662144 
L 331.059021 -58.412633 
L 332.307692 -56.969116 
L 333.556364 -62.101615 
L 334.805035 -57.450838 
L 336.053706 -57.392217 
L 337.302378 -56.083019 
L 338.551049 -54.928186 
L 339.79972 -54.016384 
L 341.048392 -55.449972 
L 342.297063 -59.084007 
L 343.545734 -58.208194 
L 344.794406 -58.8686 
L 346.043077 -59.062006 
L 347.291748 -59.910861 
L 348.54042 -55.765168 
L 349.789091 -55.606425 
L 351.037762 -57.842978 
L 352.286434 -55.886722 
L 353.535105 -58.670509 
L 354.783776 -56.959214 
L 356.032448 -54.2972 
L 357.281119 -53.775481 
L 358.52979 -56.119443 
L 359.778462 -63.489855 
L 361.027133 -56.239253 
L 362.275804 -60.251428 
L 363.524476 -64.107778 
L 364.773147 -56.372039 
L 366.021818 -60.405845 
L 367.27049 -56.464418 
L 368.519161 -55.652711 
L 369.767832 -54.55603 
L 371.016503 -59.387223 
L 372.265175 -54.756049 
L 373.513846 -60.521806 
L 374.762517 -52.935503 
L 376.011189 -58.752828 
L 377.25986 -58.585177 
L 378.508531 -54.467938 
L 379.757203 -64.146488 
L 381.005874 -57.629935 
L 382.254545 -55.212143 
L 383.503217 -56.719991 
L 384.751888 -55.787392 
L 386.000559 -52.407716 
L 387.249231 -54.170749 
L 388.497902 -56.343752 
L 389.746573 -59.187164 
L 390.995245 -63.93865 
L 392.243916 -56.258745 
L 393.492587 -58.893929 
L 394.741259 -52.919494 
L 395.98993 -55.095122 
L 397.238601 -56.870924 
L 398.487273 -59.161687 
L 398.487273 -50.677463 
L 398.487273 -50.677463 
L 397.238601 -50.867203 
L 395.98993 -50.727851 
L 394.741259 -51.194375 
L 393.492587 -51.008098 
L 392.243916 -51.478909 
L 390.995245 -50.122159 
L 389.746573 -50.704793 
L 388.497902 -51.115803 
L 387.249231 -50.983098 
L 386.000559 -50.778043 
L 384.751888 -50.360202 
L 383.503217 -52.385695 
L 382.254545 -52.162775 
L 381.005874 -50.846221 
L 379.757203 -51.223718 
L 378.508531 -52.852446 
L 377.25986 -51.722006 
L 376.011189 -51.613669 
L 374.762517 -50.54612 
L 373.513846 -50.755251 
L 372.265175 -50.638855 
L 371.016503 -52.90217 
L 369.767832 -51.024262 
L 368.519161 -50.652294 
L 367.27049 -50.112 
L 366.021818 -50.459114 
L 364.773147 -53.110926 
L 363.524476 -54.334368 
L 362.275804 -50.587713 
L 361.027133 -52.150317 
L 359.778462 -52.772579 
L 358.52979 -51.324909 
L 357.281119 -50.482794 
L 356.032448 -52.254316 
L 354.783776 -51.285667 
L 353.535105 -50.457808 
L 352.286434 -51.126781 
L 351.037762 -53.505116 
L 349.789091 -53.333204 
L 348.54042 -50.64934 
L 347.291748 -53.593107 
L 346.043077 -51.96583 
L 344.794406 -51.560094 
L 343.545734 -50.482479 
L 342.297063 -52.182889 
L 341.048392 -50.265523 
L 339.79972 -51.273846 
L 338.551049 -50.481879 
L 337.302378 -52.154542 
L 336.053706 -51.097718 
L 334.805035 -50.567916 
L 333.556364 -53.537017 
L 332.307692 -50.821024 
L 331.059021 -55.587908 
L 329.81035 -53.054408 
L 328.561678 -51.668573 
L 327.313007 -52.862807 
L 326.064336 -51.00671 
L 324.815664 -50.883337 
L 323.566993 -53.282904 
L 322.318322 -51.275344 
L 321.06965 -52.441369 
L 319.820979 -50.738134 
L 318.572308 -51.066021 
L 317.323636 -54.995951 
L 316.074965 -54.748731 
L 314.826294 -56.271133 
L 313.577622 -51.479276 
L 312.328951 -56.438886 
L 311.08028 -52.373195 
L 309.831608 -52.538497 
L 308.582937 -52.633696 
L 307.334266 -52.139226 
L 306.085594 -52.373037 
L 304.836923 -52.557632 
L 303.588252 -51.610135 
L 302.33958 -53.526606 
L 301.090909 -55.531522 
L 299.842238 -54.898591 
L 298.593566 -52.887116 
L 297.344895 -54.322869 
L 296.096224 -52.697624 
L 294.847552 -55.130048 
L 293.598881 -52.491012 
L 292.35021 -54.58767 
L 291.101538 -52.905886 
L 289.852867 -51.724976 
L 288.604196 -51.678427 
L 287.355524 -51.363858 
L 286.106853 -51.844937 
L 284.858182 -56.12645 
L 283.60951 -53.381601 
L 282.360839 -52.198683 
L 281.112168 -55.816534 
L 279.863497 -52.147378 
L 278.614825 -53.134736 
L 277.366154 -53.961787 
L 276.117483 -50.938738 
L 274.868811 -51.547478 
L 273.62014 -52.289167 
L 272.371469 -51.383245 
L 271.122797 -51.183288 
L 269.874126 -51.321039 
L 268.625455 -55.43673 
L 267.376783 -52.279157 
L 266.128112 -56.238036 
L 264.879441 -56.587038 
L 263.630769 -56.14667 
L 262.382098 -53.998546 
L 261.133427 -53.491508 
L 259.884755 -53.190775 
L 258.636084 -54.16424 
L 257.387413 -53.840827 
L 256.138741 -53.70729 
L 254.89007 -51.904886 
L 253.641399 -54.713129 
L 252.392727 -57.966409 
L 251.144056 -52.919596 
L 249.895385 -58.622496 
L 248.646713 -52.076232 
L 247.398042 -54.532103 
L 246.149371 -56.39249 
L 244.900699 -54.448226 
L 243.652028 -55.588494 
L 242.403357 -51.212768 
L 241.154685 -52.578227 
L 239.906014 -52.69491 
L 238.657343 -53.386621 
L 237.408671 -54.049519 
L 236.16 -59.871119 
L 234.911329 -59.14381 
L 233.662657 -56.607116 
L 232.413986 -54.166536 
L 231.165315 -54.267965 
L 229.916643 -53.723747 
L 228.667972 -58.518124 
L 227.419301 -53.989891 
L 226.170629 -54.382958 
L 224.921958 -55.678315 
L 223.673287 -57.720083 
L 222.424615 -52.659156 
L 221.175944 -54.513018 
L 219.927273 -57.688715 
L 218.678601 -56.823075 
L 217.42993 -57.141807 
L 216.181259 -56.243234 
L 214.932587 -61.087841 
L 213.683916 -59.653211 
L 212.435245 -57.767596 
L 211.186573 -51.913138 
L 209.937902 -56.106975 
L 208.689231 -55.960444 
L 207.440559 -55.558109 
L 206.191888 -53.692728 
L 204.943217 -58.901697 
L 203.694545 -60.582656 
L 202.445874 -59.039074 
L 201.197203 -59.888543 
L 199.948531 -61.098825 
L 198.69986 -59.672316 
L 197.451189 -58.119259 
L 196.202517 -57.29762 
L 194.953846 -59.091354 
L 193.705175 -61.54704 
L 192.456503 -55.493964 
L 191.207832 -54.127432 
L 189.959161 -57.630831 
L 188.71049 -57.426625 
L 187.461818 -68.096988 
L 186.213147 -67.151284 
L 184.964476 -65.320419 
L 183.715804 -61.473294 
L 182.467133 -63.416635 
L 181.218462 -55.753967 
L 179.96979 -59.749782 
L 178.721119 -65.315633 
L 177.472448 -64.692993 
L 176.223776 -59.18857 
L 174.975105 -54.307408 
L 173.726434 -63.516283 
L 172.477762 -57.338639 
L 171.229091 -75.393218 
L 169.98042 -74.078939 
L 168.731748 -63.091349 
L 167.483077 -66.908461 
L 166.234406 -72.900199 
L 164.985734 -62.754273 
L 163.737063 -64.62065 
L 162.488392 -65.688213 
L 161.23972 -60.913836 
L 159.991049 -66.699225 
L 158.742378 -66.235292 
L 157.493706 -58.127687 
L 156.245035 -67.231467 
L 154.996364 -80.974283 
L 153.747692 -71.405995 
L 152.499021 -74.464776 
L 151.25035 -84.556514 
L 150.001678 -69.409274 
L 148.753007 -67.04219 
L 147.504336 -72.658149 
L 146.255664 -69.604449 
L 145.006993 -69.879804 
L 143.758322 -69.055869 
L 142.50965 -67.128508 
L 141.260979 -62.390017 
L 140.012308 -66.809027 
L 138.763636 -80.476779 
L 137.514965 -85.287257 
L 136.266294 -83.240107 
L 135.017622 -87.691637 
L 133.768951 -90.393916 
L 132.52028 -84.793724 
L 131.271608 -85.180429 
L 130.022937 -94.245933 
L 128.774266 -84.331059 
L 127.525594 -82.333878 
L 126.276923 -79.525327 
L 125.028252 -85.057219 
L 123.77958 -81.037988 
L 122.530909 -98.268497 
L 121.282238 -97.600733 
L 120.033566 -98.160969 
L 118.784895 -103.460902 
L 117.536224 -102.513867 
L 116.287552 -99.913241 
L 115.038881 -105.306696 
L 113.79021 -99.236118 
L 112.541538 -100.948306 
L 111.292867 -103.938417 
L 110.044196 -97.214323 
L 108.795524 -84.60719 
L 107.546853 -86.858517 
L 106.298182 -105.173001 
L 105.04951 -108.686711 
L 103.800839 -98.193049 
L 102.552168 -99.176626 
L 101.303497 -110.697622 
L 100.054825 -114.609358 
L 98.806154 -108.238817 
L 97.557483 -99.801499 
L 96.308811 -122.784121 
L 95.06014 -119.668326 
L 93.811469 -120.107318 
L 92.562797 -123.513658 
L 91.314126 -115.390782 
L 90.065455 -135.959785 
L 88.816783 -125.856753 
L 87.568112 -133.297744 
L 86.319441 -130.192507 
L 85.070769 -132.104605 
L 83.822098 -127.259903 
L 82.573427 -137.599748 
L 81.324755 -139.095115 
L 80.076084 -157.970383 
L 78.827413 -155.563018 
L 77.578741 -154.36879 
L 76.33007 -161.146732 
L 75.081399 -187.309766 
L 73.832727 -286.498339 
z
" id="mf77770c9de" style="stroke:#f08080;stroke-width:0.5;"/>
    </defs>
    <g clip-path="url(#p4b22cbed6a)">
     <use style="fill:#f08080;stroke:#f08080;stroke-width:0.5;" x="0" xlink:href="#mf77770c9de" y="345.6"/>
    </g>
   </g>
   <g id="line2d_29">
    <path clip-path="url(#p4b22cbed6a)" d="M 73.832727 92.851626 
L 75.081399 93.115368 
L 76.33007 96.783074 
L 77.578741 109.984548 
L 78.827413 117.853878 
L 80.076084 118.830181 
L 81.324755 139.5335 
L 82.573427 116.522682 
L 83.822098 141.204611 
L 85.070769 137.666684 
L 86.319441 136.066763 
L 87.568112 140.771758 
L 88.816783 143.859195 
L 90.065455 144.916622 
L 91.314126 151.369974 
L 92.562797 155.876037 
L 93.811469 156.117559 
L 95.06014 181.614385 
L 96.308811 171.877367 
L 97.557483 169.866172 
L 98.806154 176.302464 
L 100.054825 177.162789 
L 101.303497 177.551234 
L 102.552168 181.594572 
L 103.800839 167.629001 
L 105.04951 163.848238 
L 106.298182 179.418018 
L 107.546853 185.58648 
L 108.795524 190.098009 
L 110.044196 192.572182 
L 111.292867 176.396433 
L 112.541538 193.850361 
L 113.79021 186.087129 
L 115.038881 195.501018 
L 116.287552 196.557709 
L 117.536224 204.99683 
L 118.784895 196.514867 
L 120.033566 204.758052 
L 121.282238 202.161037 
L 122.530909 197.545491 
L 123.77958 201.052232 
L 125.028252 200.977341 
L 126.276923 211.800513 
L 127.525594 199.921386 
L 128.774266 197.87479 
L 131.271608 214.134396 
L 132.52028 215.106064 
L 133.768951 197.553752 
L 135.017622 209.306601 
L 136.266294 211.957001 
L 137.514965 180.970723 
L 138.763636 206.277048 
L 140.012308 214.775309 
L 141.260979 218.763422 
L 142.50965 218.348727 
L 143.758322 220.73282 
L 145.006993 216.250527 
L 146.255664 213.906465 
L 147.504336 221.486274 
L 148.753007 222.51867 
L 150.001678 225.370224 
L 151.25035 221.967862 
L 152.499021 212.526939 
L 153.747692 204.880873 
L 154.996364 230.527197 
L 156.245035 234.715618 
L 157.493706 232.368213 
L 158.742378 223.119005 
L 159.991049 236.481502 
L 161.23972 223.94231 
L 162.488392 226.63169 
L 163.737063 219.961255 
L 164.985734 214.86738 
L 166.234406 230.392756 
L 167.483077 220.032588 
L 168.731748 222.476994 
L 169.98042 239.558906 
L 171.229091 236.879075 
L 172.477762 218.284694 
L 173.726434 213.548628 
L 174.975105 223.893839 
L 176.223776 225.148663 
L 177.472448 232.977494 
L 178.721119 230.280908 
L 179.96979 234.164548 
L 181.218462 218.690097 
L 182.467133 242.075501 
L 183.715804 249.316137 
L 184.964476 237.21085 
L 186.213147 230.840761 
L 188.71049 241.880916 
L 189.959161 236.851799 
L 191.207832 230.522561 
L 192.456503 230.153457 
L 193.705175 242.062447 
L 194.953846 244.870858 
L 196.202517 236.91908 
L 197.451189 239.896283 
L 198.69986 248.180844 
L 199.948531 231.893122 
L 201.197203 236.072215 
L 202.445874 239.151821 
L 203.694545 231.338299 
L 204.943217 246.752563 
L 206.191888 234.428248 
L 207.440559 238.953299 
L 208.689231 253.397817 
L 209.937902 239.056375 
L 211.186573 232.173939 
L 212.435245 243.240366 
L 213.683916 250.979439 
L 214.932587 245.151602 
L 216.181259 252.661198 
L 217.42993 252.878129 
L 218.678601 244.965326 
L 219.927273 254.153694 
L 221.175944 253.702178 
L 222.424615 252.001497 
L 223.673287 244.42001 
L 226.170629 248.08613 
L 227.419301 246.704854 
L 228.667972 246.294515 
L 229.916643 254.831876 
L 231.165315 238.710637 
L 232.413986 246.506348 
L 233.662657 257.903003 
L 234.911329 247.831322 
L 236.16 241.207924 
L 237.408671 250.952263 
L 238.657343 259.565708 
L 239.906014 259.050422 
L 241.154685 256.8971 
L 242.403357 254.491362 
L 243.652028 249.02431 
L 244.900699 253.361015 
L 246.149371 246.564485 
L 247.398042 255.389004 
L 248.646713 252.267651 
L 249.895385 243.223801 
L 251.144056 255.494779 
L 252.392727 259.192305 
L 253.641399 267.304515 
L 254.89007 268.056141 
L 256.138741 260.574015 
L 257.387413 257.679576 
L 258.636084 261.952463 
L 259.884755 249.852061 
L 261.133427 257.703596 
L 262.382098 248.750572 
L 263.630769 243.544865 
L 264.879441 248.034074 
L 266.128112 250.997665 
L 267.376783 242.515775 
L 268.625455 256.52966 
L 269.874126 266.054145 
L 271.122797 256.07519 
L 272.371469 260.206831 
L 273.62014 254.030702 
L 274.868811 235.530283 
L 276.117483 266.491358 
L 277.366154 265.057879 
L 278.614825 275.329931 
L 279.863497 263.737299 
L 281.112168 270.65943 
L 282.360839 270.898427 
L 283.60951 255.300924 
L 284.858182 260.055626 
L 286.106853 269.055794 
L 287.355524 254.71316 
L 288.604196 261.461926 
L 289.852867 263.14431 
L 291.101538 250.477723 
L 292.35021 266.994202 
L 293.598881 262.520711 
L 294.847552 263.860853 
L 296.096224 256.29076 
L 297.344895 273.223477 
L 298.593566 258.551994 
L 299.842238 255.765657 
L 301.090909 250.182485 
L 302.33958 279.383508 
L 303.588252 273.475029 
L 304.836923 276.927363 
L 306.085594 278.544912 
L 307.334266 264.408187 
L 308.582937 268.501113 
L 309.831608 257.428951 
L 311.08028 262.179141 
L 312.328951 264.469744 
L 313.577622 257.625236 
L 314.826294 260.959844 
L 316.074965 258.288162 
L 317.323636 272.117413 
L 318.572308 275.404119 
L 319.820979 272.010987 
L 321.06965 272.577493 
L 322.318322 269.65301 
L 323.566993 257.736346 
L 324.815664 274.458408 
L 326.064336 262.791002 
L 327.313007 263.35026 
L 328.561678 260.847398 
L 329.81035 255.808921 
L 331.059021 254.400594 
L 332.307692 271.377063 
L 333.556364 270.624862 
L 334.805035 265.039372 
L 336.053706 281.660873 
L 337.302378 275.127358 
L 338.551049 261.777613 
L 339.79972 270.022088 
L 341.048392 262.059116 
L 342.297063 259.214822 
L 343.545734 274.379675 
L 344.794406 269.192177 
L 346.043077 269.44618 
L 347.291748 252.335804 
L 348.54042 254.604941 
L 349.789091 253.461353 
L 351.037762 277.592773 
L 352.286434 277.20155 
L 354.783776 270.219745 
L 356.032448 279.092328 
L 357.281119 280.031517 
L 358.52979 272.629582 
L 359.778462 273.917275 
L 361.027133 274.258612 
L 362.275804 271.13345 
L 363.524476 277.066459 
L 364.773147 265.084556 
L 366.021818 267.355961 
L 367.27049 279.795802 
L 368.519161 284.500323 
L 369.767832 281.097767 
L 371.016503 259.874773 
L 372.265175 282.304428 
L 373.513846 273.89497 
L 374.762517 278.172745 
L 376.011189 281.003522 
L 377.25986 271.374107 
L 378.508531 263.25801 
L 379.757203 259.881316 
L 381.005874 278.748268 
L 382.254545 263.60352 
L 383.503217 277.619499 
L 384.751888 271.264322 
L 386.000559 268.904735 
L 387.249231 273.415589 
L 388.497902 275.128093 
L 389.746573 275.207817 
L 390.995245 275.161968 
L 392.243916 280.069718 
L 393.492587 279.357857 
L 394.741259 277.44432 
L 395.98993 279.944861 
L 397.238601 286.300289 
L 398.487273 271.695943 
L 398.487273 271.695943 
" style="fill:none;stroke:#008000;stroke-linecap:square;stroke-width:1.5;"/>
   </g>
   <g id="line2d_30">
    <path clip-path="url(#p4b22cbed6a)" d="M 73.832727 92.894847 
L 75.081399 110.288884 
L 76.33007 121.397944 
L 77.578741 133.818493 
L 78.827413 162.700869 
L 80.076084 159.642148 
L 81.324755 160.415253 
L 82.573427 147.586467 
L 83.822098 161.785697 
L 85.070769 174.365477 
L 86.319441 176.078475 
L 87.568112 175.62399 
L 88.816783 172.396263 
L 90.065455 190.226569 
L 91.314126 179.243294 
L 92.562797 178.127362 
L 93.811469 205.811579 
L 95.06014 193.24745 
L 96.308811 195.36632 
L 97.557483 189.973265 
L 98.806154 203.6347 
L 100.054825 210.123883 
L 101.303497 211.590299 
L 102.552168 206.125648 
L 103.800839 202.055307 
L 105.04951 217.947638 
L 106.298182 198.336433 
L 107.546853 225.004835 
L 108.795524 219.972208 
L 110.044196 236.740914 
L 111.292867 222.811785 
L 112.541538 215.254936 
L 113.79021 216.958038 
L 115.038881 228.861183 
L 116.287552 214.44488 
L 117.536224 241.970255 
L 118.784895 228.283488 
L 120.033566 226.558234 
L 121.282238 227.270438 
L 122.530909 225.032542 
L 123.77958 235.137729 
L 125.028252 238.985636 
L 126.276923 240.897823 
L 127.525594 243.28333 
L 128.774266 235.822452 
L 130.022937 226.835856 
L 131.271608 244.279799 
L 132.52028 247.071656 
L 133.768951 239.566054 
L 135.017622 240.612513 
L 136.266294 234.399831 
L 137.514965 250.915553 
L 138.763636 231.733439 
L 140.012308 266.189207 
L 141.260979 258.601445 
L 142.50965 246.336254 
L 143.758322 245.666919 
L 145.006993 246.458739 
L 146.255664 258.580047 
L 147.504336 248.865993 
L 148.753007 246.429208 
L 150.001678 258.764586 
L 151.25035 236.946798 
L 152.499021 243.342307 
L 153.747692 244.868478 
L 154.996364 243.245701 
L 156.245035 264.575469 
L 157.493706 262.694784 
L 158.742378 261.844875 
L 159.991049 257.77085 
L 161.23972 264.372144 
L 162.488392 263.294954 
L 163.737063 266.781099 
L 164.985734 253.151273 
L 166.234406 270.334714 
L 167.483077 270.924775 
L 168.731748 265.736254 
L 169.98042 266.637109 
L 171.229091 262.632953 
L 172.477762 264.388544 
L 173.726434 277.599262 
L 174.975105 277.176829 
L 176.223776 280.214146 
L 177.472448 265.924731 
L 178.721119 279.76447 
L 179.96979 263.911708 
L 181.218462 277.505824 
L 182.467133 273.357771 
L 183.715804 270.823491 
L 184.964476 266.887502 
L 186.213147 280.742315 
L 187.461818 273.22467 
L 188.71049 279.40152 
L 191.207832 283.151143 
L 192.456503 276.964283 
L 193.705175 278.907586 
L 194.953846 277.992785 
L 196.202517 279.223488 
L 197.451189 283.258593 
L 198.69986 274.225697 
L 199.948531 278.873559 
L 201.197203 273.455681 
L 202.445874 285.90783 
L 203.694545 285.561707 
L 204.943217 278.473153 
L 206.191888 278.867543 
L 207.440559 285.13811 
L 208.689231 288.515049 
L 209.937902 281.320923 
L 211.186573 284.089227 
L 212.435245 281.003665 
L 213.683916 282.873221 
L 214.932587 283.061536 
L 216.181259 274.130386 
L 217.42993 281.185073 
L 218.678601 274.93343 
L 219.927273 282.812482 
L 221.175944 288.938678 
L 223.673287 286.431168 
L 224.921958 290.94639 
L 226.170629 283.197805 
L 227.419301 285.372953 
L 228.667972 278.929648 
L 229.916643 292.014066 
L 231.165315 281.668881 
L 232.413986 287.065697 
L 233.662657 276.087291 
L 234.911329 287.401265 
L 236.16 280.874486 
L 237.408671 288.876335 
L 238.657343 284.518489 
L 239.906014 287.158565 
L 241.154685 292.454204 
L 242.403357 292.210256 
L 243.652028 288.965656 
L 244.900699 289.487991 
L 246.149371 286.695946 
L 247.398042 291.977349 
L 248.646713 280.750925 
L 249.895385 290.941534 
L 251.144056 288.925884 
L 252.392727 285.704876 
L 253.641399 288.334772 
L 254.89007 292.030713 
L 256.138741 289.218641 
L 257.387413 292.401441 
L 258.636084 285.78116 
L 259.884755 289.578 
L 261.133427 284.138226 
L 262.382098 290.141376 
L 263.630769 283.678096 
L 264.879441 287.562587 
L 266.128112 292.735238 
L 267.376783 284.634337 
L 268.625455 285.606809 
L 269.874126 293.605663 
L 271.122797 291.696981 
L 272.371469 291.738292 
L 273.62014 294.109708 
L 274.868811 291.183951 
L 276.117483 289.0348 
L 277.366154 291.357568 
L 278.614825 290.578961 
L 279.863497 291.270176 
L 281.112168 285.813974 
L 282.360839 290.387726 
L 283.60951 291.399897 
L 284.858182 292.840331 
L 286.106853 287.0703 
L 287.355524 292.04808 
L 288.604196 291.041031 
L 289.852867 293.81142 
L 291.101538 289.288232 
L 292.35021 294.38547 
L 293.598881 292.817071 
L 296.096224 288.238744 
L 297.344895 287.367442 
L 298.593566 283.092529 
L 299.842238 293.004209 
L 301.090909 288.951518 
L 302.33958 294.683925 
L 303.588252 291.751287 
L 304.836923 293.133577 
L 306.085594 293.285449 
L 307.334266 288.432813 
L 308.582937 291.264408 
L 309.831608 291.365295 
L 312.328951 292.96558 
L 313.577622 291.150276 
L 314.826294 285.821837 
L 316.074965 289.408964 
L 317.323636 291.077103 
L 319.820979 292.438788 
L 321.06965 294.124711 
L 322.318322 294.98337 
L 323.566993 293.839107 
L 324.815664 291.018654 
L 326.064336 293.883732 
L 327.313007 291.352088 
L 328.561678 293.024159 
L 329.81035 289.296192 
L 331.059021 291.279843 
L 332.307692 292.937835 
L 333.556364 289.927077 
L 334.805035 294.065744 
L 336.053706 292.39724 
L 337.302378 293.668532 
L 338.551049 289.678002 
L 339.79972 294.536954 
L 341.048392 289.888822 
L 342.297063 292.947177 
L 343.545734 293.093871 
L 344.794406 295.109294 
L 346.043077 290.877791 
L 347.291748 293.863543 
L 348.54042 290.680412 
L 349.789091 293.246803 
L 351.037762 294.109074 
L 352.286434 293.159519 
L 353.535105 293.074131 
L 354.783776 294.915709 
L 356.032448 290.086552 
L 357.281119 291.768902 
L 358.52979 294.261601 
L 359.778462 291.821622 
L 361.027133 290.54022 
L 362.275804 290.183102 
L 363.524476 291.97965 
L 364.773147 294.198952 
L 366.021818 294.608402 
L 367.27049 294.406575 
L 368.519161 294.744044 
L 369.767832 292.323153 
L 371.016503 294.251732 
L 372.265175 292.791241 
L 373.513846 294.093755 
L 374.762517 288.590835 
L 376.011189 293.3846 
L 377.25986 289.716098 
L 378.508531 292.500368 
L 379.757203 293.014193 
L 381.005874 292.021101 
L 382.254545 290.643403 
L 383.503217 292.453512 
L 384.751888 294.576916 
L 386.000559 293.688377 
L 388.497902 295.010111 
L 389.746573 293.49368 
L 390.995245 294.241824 
L 392.243916 294.724351 
L 393.492587 292.484284 
L 394.741259 292.027069 
L 395.98993 291.802192 
L 397.238601 294.276418 
L 398.487273 293.154466 
L 398.487273 293.154466 
" style="fill:none;stroke:#008000;stroke-linecap:square;stroke-width:1.5;"/>
   </g>
   <g id="line2d_31">
    <path clip-path="url(#p4b22cbed6a)" d="M 73.832727 53.568 
L 75.081399 145.142461 
L 76.33007 158.592226 
L 77.578741 168.809491 
L 78.827413 164.333068 
L 80.076084 180.811692 
L 81.324755 188.305222 
L 82.573427 186.713427 
L 83.822098 183.68585 
L 85.070769 188.740262 
L 86.319441 189.834173 
L 87.568112 200.850032 
L 88.816783 194.176107 
L 90.065455 191.607851 
L 91.314126 209.90495 
L 92.562797 206.933428 
L 93.811469 205.216962 
L 95.06014 203.820881 
L 96.308811 198.464162 
L 97.557483 217.816255 
L 98.806154 200.278486 
L 100.054825 221.852693 
L 101.303497 214.236373 
L 102.552168 215.895781 
L 103.800839 207.607467 
L 105.04951 209.370487 
L 106.298182 230.733922 
L 107.546853 228.445678 
L 108.795524 222.969691 
L 110.044196 227.664874 
L 111.292867 229.263034 
L 112.541538 228.835757 
L 113.79021 227.870832 
L 115.038881 216.954674 
L 117.536224 233.975655 
L 118.784895 235.86314 
L 120.033566 229.419979 
L 121.282238 223.825444 
L 122.530909 239.247965 
L 123.77958 235.554916 
L 125.028252 241.591901 
L 126.276923 248.213339 
L 127.525594 251.24573 
L 128.774266 233.999741 
L 130.022937 241.671127 
L 131.271608 247.714403 
L 132.52028 228.977587 
L 133.768951 239.340976 
L 135.017622 248.740008 
L 136.266294 238.023854 
L 137.514965 245.003775 
L 138.763636 241.385644 
L 140.012308 253.936003 
L 141.260979 252.103516 
L 142.50965 257.917135 
L 145.006993 248.886484 
L 146.255664 238.740357 
L 147.504336 253.163237 
L 148.753007 248.775173 
L 150.001678 256.463979 
L 152.499021 249.456669 
L 153.747692 261.939325 
L 154.996364 244.85588 
L 156.245035 268.528694 
L 157.493706 264.760859 
L 158.742378 267.748628 
L 159.991049 265.186352 
L 161.23972 268.939177 
L 162.488392 261.815957 
L 163.737063 262.768826 
L 164.985734 262.023213 
L 166.234406 260.707586 
L 167.483077 251.807332 
L 168.731748 264.169432 
L 169.98042 267.597748 
L 171.229091 265.702319 
L 172.477762 280.106278 
L 173.726434 255.399055 
L 174.975105 271.147401 
L 176.223776 269.475241 
L 177.472448 277.048071 
L 178.721119 269.400245 
L 179.96979 276.257897 
L 181.218462 269.804442 
L 182.467133 267.947333 
L 183.715804 269.747827 
L 184.964476 265.114084 
L 186.213147 261.88827 
L 187.461818 265.262053 
L 188.71049 278.482936 
L 189.959161 279.957892 
L 191.207832 273.09615 
L 192.456503 254.670761 
L 193.705175 271.592497 
L 194.953846 278.275005 
L 196.202517 269.593605 
L 197.451189 271.955888 
L 198.69986 279.619321 
L 199.948531 275.983405 
L 201.197203 267.6921 
L 202.445874 267.594958 
L 203.694545 271.017248 
L 206.191888 287.559903 
L 207.440559 283.202653 
L 208.689231 275.152412 
L 209.937902 280.258242 
L 211.186573 280.914895 
L 212.435245 273.350957 
L 213.683916 278.271512 
L 214.932587 278.331093 
L 216.181259 286.401402 
L 217.42993 278.393343 
L 218.678601 275.422986 
L 219.927273 278.369477 
L 221.175944 287.522917 
L 222.424615 282.270947 
L 223.673287 284.602193 
L 224.921958 281.919496 
L 226.170629 285.014289 
L 227.419301 283.334822 
L 228.667972 283.535347 
L 229.916643 282.709649 
L 231.165315 269.020519 
L 232.413986 282.48905 
L 233.662657 284.149709 
L 234.911329 281.725792 
L 236.16 276.822153 
L 237.408671 288.910688 
L 238.657343 290.733535 
L 239.906014 291.393621 
L 241.154685 287.704217 
L 242.403357 287.621233 
L 243.652028 275.209961 
L 244.900699 286.357163 
L 246.149371 284.587081 
L 247.398042 283.20197 
L 248.646713 282.618302 
L 249.895385 283.094969 
L 251.144056 286.090364 
L 252.392727 280.172598 
L 253.641399 285.785249 
L 254.89007 289.476156 
L 256.138741 287.566979 
L 257.387413 283.116284 
L 258.636084 284.309993 
L 259.884755 283.359193 
L 261.133427 286.631991 
L 262.382098 283.994818 
L 263.630769 281.896274 
L 264.879441 282.432208 
L 266.128112 284.736737 
L 267.376783 284.553763 
L 268.625455 283.869141 
L 269.874126 288.019453 
L 271.122797 290.486789 
L 272.371469 288.530348 
L 273.62014 290.167256 
L 274.868811 288.344738 
L 276.117483 289.051526 
L 277.366154 282.658911 
L 278.614825 286.154615 
L 279.863497 280.349432 
L 281.112168 287.075166 
L 282.360839 280.661111 
L 283.60951 285.566291 
L 284.858182 282.715693 
L 286.106853 289.876606 
L 287.355524 285.290516 
L 288.604196 287.226659 
L 289.852867 286.593738 
L 291.101538 284.820638 
L 292.35021 278.463172 
L 293.598881 286.403586 
L 294.847552 283.763018 
L 296.096224 286.011841 
L 297.344895 279.767415 
L 298.593566 288.267109 
L 299.842238 283.530378 
L 301.090909 283.310424 
L 302.33958 286.682785 
L 303.588252 287.432234 
L 304.836923 290.662604 
L 306.085594 291.746813 
L 307.334266 281.798084 
L 308.582937 286.405089 
L 309.831608 286.828598 
L 311.08028 273.920342 
L 312.328951 283.301636 
L 313.577622 287.948407 
L 314.826294 282.293378 
L 316.074965 281.19366 
L 317.323636 278.902406 
L 318.572308 289.432282 
L 319.820979 293.125175 
L 321.06965 289.846128 
L 322.318322 290.955828 
L 323.566993 285.520429 
L 326.064336 292.738021 
L 327.313007 284.60325 
L 328.561678 290.19523 
L 329.81035 287.937856 
L 331.059021 287.187367 
L 332.307692 288.630884 
L 333.556364 283.498385 
L 334.805035 288.149162 
L 336.053706 288.207783 
L 338.551049 290.671814 
L 339.79972 291.583616 
L 341.048392 290.150028 
L 342.297063 286.515993 
L 343.545734 287.391806 
L 344.794406 286.7314 
L 346.043077 286.537994 
L 347.291748 285.689139 
L 348.54042 289.834832 
L 349.789091 289.993575 
L 351.037762 287.757022 
L 352.286434 289.713278 
L 353.535105 286.929491 
L 354.783776 288.640786 
L 356.032448 291.3028 
L 357.281119 291.824519 
L 358.52979 289.480557 
L 359.778462 282.110145 
L 361.027133 289.360747 
L 363.524476 281.492222 
L 364.773147 289.227961 
L 366.021818 285.194155 
L 367.27049 289.135582 
L 368.519161 289.947289 
L 369.767832 291.04397 
L 371.016503 286.212777 
L 372.265175 290.843951 
L 373.513846 285.078194 
L 374.762517 292.664497 
L 376.011189 286.847172 
L 377.25986 287.014823 
L 378.508531 291.132062 
L 379.757203 281.453512 
L 381.005874 287.970065 
L 382.254545 290.387857 
L 383.503217 288.880009 
L 384.751888 289.812608 
L 386.000559 293.192284 
L 387.249231 291.429251 
L 388.497902 289.256248 
L 389.746573 286.412836 
L 390.995245 281.66135 
L 392.243916 289.341255 
L 393.492587 286.706071 
L 394.741259 292.680506 
L 395.98993 290.504878 
L 397.238601 288.729076 
L 398.487273 286.438313 
L 398.487273 286.438313 
" style="fill:none;stroke:#b22222;stroke-linecap:square;stroke-width:1.5;"/>
   </g>
   <g id="line2d_32">
    <path clip-path="url(#p4b22cbed6a)" d="M 73.832727 59.101661 
L 75.081399 158.290234 
L 76.33007 184.453268 
L 77.578741 191.23121 
L 78.827413 190.036982 
L 80.076084 187.629617 
L 81.324755 206.504885 
L 82.573427 208.000252 
L 83.822098 218.340097 
L 85.070769 213.495395 
L 86.319441 215.407493 
L 87.568112 212.302256 
L 88.816783 219.743247 
L 90.065455 209.640215 
L 91.314126 230.209218 
L 92.562797 222.086342 
L 93.811469 225.492682 
L 95.06014 225.931674 
L 96.308811 222.815879 
L 97.557483 245.798501 
L 98.806154 237.361183 
L 100.054825 230.990642 
L 101.303497 234.902378 
L 102.552168 246.423374 
L 103.800839 247.406951 
L 105.04951 236.913289 
L 106.298182 240.426999 
L 107.546853 258.741483 
L 108.795524 260.99281 
L 110.044196 248.385677 
L 111.292867 241.661583 
L 112.541538 244.651694 
L 113.79021 246.363882 
L 115.038881 240.293304 
L 116.287552 245.686759 
L 117.536224 243.086133 
L 118.784895 242.139098 
L 120.033566 247.439031 
L 121.282238 247.999267 
L 122.530909 247.331503 
L 123.77958 264.562012 
L 125.028252 260.542781 
L 126.276923 266.074673 
L 127.525594 263.266122 
L 128.774266 261.268941 
L 130.022937 251.354067 
L 131.271608 260.419571 
L 132.52028 260.806276 
L 133.768951 255.206084 
L 135.017622 257.908363 
L 136.266294 262.359893 
L 137.514965 260.312743 
L 138.763636 265.123221 
L 140.012308 278.790973 
L 141.260979 283.209983 
L 142.50965 278.471492 
L 143.758322 276.544131 
L 145.006993 275.720196 
L 146.255664 275.995551 
L 147.504336 272.941851 
L 148.753007 278.55781 
L 150.001678 276.190726 
L 151.25035 261.043486 
L 152.499021 271.135224 
L 153.747692 274.194005 
L 154.996364 264.625717 
L 156.245035 278.368533 
L 157.493706 287.472313 
L 158.742378 279.364708 
L 159.991049 278.900775 
L 161.23972 284.686164 
L 162.488392 279.911787 
L 163.737063 280.97935 
L 164.985734 282.845727 
L 166.234406 272.699801 
L 167.483077 278.691539 
L 168.731748 282.508651 
L 169.98042 271.521061 
L 171.229091 270.206782 
L 172.477762 288.261361 
L 173.726434 282.083717 
L 174.975105 291.292592 
L 176.223776 286.41143 
L 177.472448 280.907007 
L 178.721119 280.284367 
L 179.96979 285.850218 
L 181.218462 289.846033 
L 182.467133 282.183365 
L 183.715804 284.126706 
L 184.964476 280.279581 
L 186.213147 278.448716 
L 187.461818 277.503012 
L 188.71049 288.173375 
L 189.959161 287.969169 
L 191.207832 291.472568 
L 192.456503 290.106036 
L 193.705175 284.05296 
L 194.953846 286.508646 
L 196.202517 288.30238 
L 197.451189 287.480741 
L 199.948531 284.501175 
L 201.197203 285.711457 
L 202.445874 286.560926 
L 203.694545 285.017344 
L 204.943217 286.698303 
L 206.191888 291.907272 
L 207.440559 290.041891 
L 208.689231 289.639556 
L 209.937902 289.493025 
L 211.186573 293.686862 
L 212.435245 287.832404 
L 213.683916 285.946789 
L 214.932587 284.512159 
L 216.181259 289.356766 
L 217.42993 288.458193 
L 218.678601 288.776925 
L 219.927273 287.911285 
L 221.175944 291.086982 
L 222.424615 292.940844 
L 223.673287 287.879917 
L 224.921958 289.921685 
L 226.170629 291.217042 
L 227.419301 291.610109 
L 228.667972 287.081876 
L 229.916643 291.876253 
L 231.165315 291.332035 
L 232.413986 291.433464 
L 234.911329 286.45619 
L 236.16 285.728881 
L 237.408671 291.550481 
L 239.906014 292.90509 
L 241.154685 293.021773 
L 242.403357 294.387232 
L 243.652028 290.011506 
L 244.900699 291.151774 
L 246.149371 289.20751 
L 247.398042 291.067897 
L 248.646713 293.523768 
L 249.895385 286.977504 
L 251.144056 292.680404 
L 252.392727 287.633591 
L 253.641399 290.886871 
L 254.89007 293.695114 
L 256.138741 291.89271 
L 257.387413 291.759173 
L 258.636084 291.43576 
L 259.884755 292.409225 
L 261.133427 292.108492 
L 262.382098 291.601454 
L 263.630769 289.45333 
L 264.879441 289.012962 
L 266.128112 289.361964 
L 267.376783 293.320843 
L 268.625455 290.16327 
L 269.874126 294.278961 
L 271.122797 294.416712 
L 272.371469 294.216755 
L 273.62014 293.310833 
L 274.868811 294.052522 
L 276.117483 294.661262 
L 277.366154 291.638213 
L 278.614825 292.465264 
L 279.863497 293.452622 
L 281.112168 289.783466 
L 282.360839 293.401317 
L 283.60951 292.218399 
L 284.858182 289.47355 
L 286.106853 293.755063 
L 287.355524 294.236142 
L 288.604196 293.921573 
L 289.852867 293.875024 
L 291.101538 292.694114 
L 292.35021 291.01233 
L 293.598881 293.108988 
L 294.847552 290.469952 
L 296.096224 292.902376 
L 297.344895 291.277131 
L 298.593566 292.712884 
L 299.842238 290.701409 
L 301.090909 290.068478 
L 303.588252 293.989865 
L 304.836923 293.042368 
L 307.334266 293.460774 
L 308.582937 292.966304 
L 311.08028 293.226805 
L 312.328951 289.161114 
L 313.577622 294.120724 
L 314.826294 289.328867 
L 316.074965 290.851269 
L 317.323636 290.604049 
L 318.572308 294.533979 
L 319.820979 294.861866 
L 321.06965 293.158631 
L 322.318322 294.324656 
L 323.566993 292.317096 
L 324.815664 294.716663 
L 326.064336 294.59329 
L 327.313007 292.737193 
L 328.561678 293.931427 
L 329.81035 292.545592 
L 331.059021 290.012092 
L 332.307692 294.778976 
L 333.556364 292.062983 
L 334.805035 295.032084 
L 336.053706 294.502282 
L 337.302378 293.445458 
L 338.551049 295.118121 
L 339.79972 294.326154 
L 341.048392 295.334477 
L 342.297063 293.417111 
L 343.545734 295.117521 
L 344.794406 294.039906 
L 346.043077 293.63417 
L 347.291748 292.006893 
L 348.54042 294.95066 
L 349.789091 292.266796 
L 351.037762 292.094884 
L 352.286434 294.473219 
L 353.535105 295.142192 
L 354.783776 294.314333 
L 356.032448 293.345684 
L 357.281119 295.117206 
L 358.52979 294.275091 
L 359.778462 292.827421 
L 361.027133 293.449683 
L 362.275804 295.012287 
L 363.524476 291.265632 
L 364.773147 292.489074 
L 366.021818 295.140886 
L 367.27049 295.488 
L 368.519161 294.947706 
L 369.767832 294.575738 
L 371.016503 292.69783 
L 372.265175 294.961145 
L 373.513846 294.844749 
L 374.762517 295.05388 
L 376.011189 293.986331 
L 377.25986 293.877994 
L 378.508531 292.747554 
L 379.757203 294.376282 
L 381.005874 294.753779 
L 382.254545 293.437225 
L 383.503217 293.214305 
L 384.751888 295.239798 
L 386.000559 294.821957 
L 388.497902 294.484197 
L 389.746573 294.895207 
L 390.995245 295.477841 
L 392.243916 294.121091 
L 393.492587 294.591902 
L 394.741259 294.405625 
L 395.98993 294.872149 
L 397.238601 294.732797 
L 398.487273 294.922537 
L 398.487273 294.922537 
" style="fill:none;stroke:#b22222;stroke-linecap:square;stroke-width:1.5;"/>
   </g>
   <g id="patch_3">
    <path d="M 57.6 307.584 
L 57.6 41.472 
" style="fill:none;stroke:#ffffff;stroke-linecap:square;stroke-linejoin:miter;"/>
   </g>
   <g id="patch_4">
    <path d="M 414.72 307.584 
L 414.72 41.472 
" style="fill:none;stroke:#ffffff;stroke-linecap:square;stroke-linejoin:miter;"/>
   </g>
   <g id="patch_5">
    <path d="M 57.6 307.584 
L 414.72 307.584 
" style="fill:none;stroke:#ffffff;stroke-linecap:square;stroke-linejoin:miter;"/>
   </g>
   <g id="patch_6">
    <path d="M 57.6 41.472 
L 414.72 41.472 
" style="fill:none;stroke:#ffffff;stroke-linecap:square;stroke-linejoin:miter;"/>
   </g>
   <g id="text_17">
    <!-- Loss Landscape -->
    <defs>
     <path id="DejaVuSans-32"/>
     <path d="M 34.28125 27.484375 
Q 23.390625 27.484375 19.1875 25 
Q 14.984375 22.515625 14.984375 16.5 
Q 14.984375 11.71875 18.140625 8.90625 
Q 21.296875 6.109375 26.703125 6.109375 
Q 34.1875 6.109375 38.703125 11.40625 
Q 43.21875 16.703125 43.21875 25.484375 
L 43.21875 27.484375 
z
M 52.203125 31.203125 
L 52.203125 0 
L 43.21875 0 
L 43.21875 8.296875 
Q 40.140625 3.328125 35.546875 0.953125 
Q 30.953125 -1.421875 24.3125 -1.421875 
Q 15.921875 -1.421875 10.953125 3.296875 
Q 6 8.015625 6 15.921875 
Q 6 25.140625 12.171875 29.828125 
Q 18.359375 34.515625 30.609375 34.515625 
L 43.21875 34.515625 
L 43.21875 35.40625 
Q 43.21875 41.609375 39.140625 45 
Q 35.0625 48.390625 27.6875 48.390625 
Q 23 48.390625 18.546875 47.265625 
Q 14.109375 46.140625 10.015625 43.890625 
L 10.015625 52.203125 
Q 14.9375 54.109375 19.578125 55.046875 
Q 24.21875 56 28.609375 56 
Q 40.484375 56 46.34375 49.84375 
Q 52.203125 43.703125 52.203125 31.203125 
z
" id="DejaVuSans-97"/>
     <path d="M 54.890625 33.015625 
L 54.890625 0 
L 45.90625 0 
L 45.90625 32.71875 
Q 45.90625 40.484375 42.875 44.328125 
Q 39.84375 48.1875 33.796875 48.1875 
Q 26.515625 48.1875 22.3125 43.546875 
Q 18.109375 38.921875 18.109375 30.90625 
L 18.109375 0 
L 9.078125 0 
L 9.078125 54.6875 
L 18.109375 54.6875 
L 18.109375 46.1875 
Q 21.34375 51.125 25.703125 53.5625 
Q 30.078125 56 35.796875 56 
Q 45.21875 56 50.046875 50.171875 
Q 54.890625 44.34375 54.890625 33.015625 
z
" id="DejaVuSans-110"/>
     <path d="M 45.40625 46.390625 
L 45.40625 75.984375 
L 54.390625 75.984375 
L 54.390625 0 
L 45.40625 0 
L 45.40625 8.203125 
Q 42.578125 3.328125 38.25 0.953125 
Q 33.9375 -1.421875 27.875 -1.421875 
Q 17.96875 -1.421875 11.734375 6.484375 
Q 5.515625 14.40625 5.515625 27.296875 
Q 5.515625 40.1875 11.734375 48.09375 
Q 17.96875 56 27.875 56 
Q 33.9375 56 38.25 53.625 
Q 42.578125 51.265625 45.40625 46.390625 
z
M 14.796875 27.296875 
Q 14.796875 17.390625 18.875 11.75 
Q 22.953125 6.109375 30.078125 6.109375 
Q 37.203125 6.109375 41.296875 11.75 
Q 45.40625 17.390625 45.40625 27.296875 
Q 45.40625 37.203125 41.296875 42.84375 
Q 37.203125 48.484375 30.078125 48.484375 
Q 22.953125 48.484375 18.875 42.84375 
Q 14.796875 37.203125 14.796875 27.296875 
z
" id="DejaVuSans-100"/>
     <path d="M 48.78125 52.59375 
L 48.78125 44.1875 
Q 44.96875 46.296875 41.140625 47.34375 
Q 37.3125 48.390625 33.40625 48.390625 
Q 24.65625 48.390625 19.8125 42.84375 
Q 14.984375 37.3125 14.984375 27.296875 
Q 14.984375 17.28125 19.8125 11.734375 
Q 24.65625 6.203125 33.40625 6.203125 
Q 37.3125 6.203125 41.140625 7.25 
Q 44.96875 8.296875 48.78125 10.40625 
L 48.78125 2.09375 
Q 45.015625 0.34375 40.984375 -0.53125 
Q 36.96875 -1.421875 32.421875 -1.421875 
Q 20.0625 -1.421875 12.78125 6.34375 
Q 5.515625 14.109375 5.515625 27.296875 
Q 5.515625 40.671875 12.859375 48.328125 
Q 20.21875 56 33.015625 56 
Q 37.15625 56 41.109375 55.140625 
Q 45.0625 54.296875 48.78125 52.59375 
z
" id="DejaVuSans-99"/>
    </defs>
    <g transform="translate(179.27325 35.472)scale(0.144 -0.144)">
     <use xlink:href="#DejaVuSans-76"/>
     <use x="55.697266" xlink:href="#DejaVuSans-111"/>
     <use x="116.878906" xlink:href="#DejaVuSans-115"/>
     <use x="168.978516" xlink:href="#DejaVuSans-115"/>
     <use x="221.078125" xlink:href="#DejaVuSans-32"/>
     <use x="252.865234" xlink:href="#DejaVuSans-76"/>
     <use x="308.578125" xlink:href="#DejaVuSans-97"/>
     <use x="369.857422" xlink:href="#DejaVuSans-110"/>
     <use x="433.236328" xlink:href="#DejaVuSans-100"/>
     <use x="496.712891" xlink:href="#DejaVuSans-115"/>
     <use x="548.8125" xlink:href="#DejaVuSans-99"/>
     <use x="603.792969" xlink:href="#DejaVuSans-97"/>
     <use x="665.072266" xlink:href="#DejaVuSans-112"/>
     <use x="728.548828" xlink:href="#DejaVuSans-101"/>
    </g>
   </g>
   <g id="legend_1">
    <g id="patch_7">
     <path d="M 153.9135 95.265 
L 404.64 95.265 
Q 407.52 95.265 407.52 92.385 
L 407.52 51.552 
Q 407.52 48.672 404.64 48.672 
L 153.9135 48.672 
Q 151.0335 48.672 151.0335 51.552 
L 151.0335 92.385 
Q 151.0335 95.265 153.9135 95.265 
z
" style="fill:#e5e5e5;opacity:0.8;stroke:#cccccc;stroke-linejoin:miter;stroke-width:0.5;"/>
    </g>
    <g id="patch_8">
     <path d="M 156.7935 65.37375 
L 185.5935 65.37375 
L 185.5935 55.29375 
L 156.7935 55.29375 
z
" style="fill:#90ee90;stroke:#90ee90;stroke-linejoin:miter;stroke-width:0.5;"/>
    </g>
    <g id="text_18">
     <!-- Standard VGG -->
     <defs>
      <path d="M 41.109375 46.296875 
Q 39.59375 47.171875 37.8125 47.578125 
Q 36.03125 48 33.890625 48 
Q 26.265625 48 22.1875 43.046875 
Q 18.109375 38.09375 18.109375 28.8125 
L 18.109375 0 
L 9.078125 0 
L 9.078125 54.6875 
L 18.109375 54.6875 
L 18.109375 46.1875 
Q 20.953125 51.171875 25.484375 53.578125 
Q 30.03125 56 36.53125 56 
Q 37.453125 56 38.578125 55.875 
Q 39.703125 55.765625 41.0625 55.515625 
z
" id="DejaVuSans-114"/>
      <path d="M 28.609375 0 
L 0.78125 72.90625 
L 11.078125 72.90625 
L 34.1875 11.53125 
L 57.328125 72.90625 
L 67.578125 72.90625 
L 39.796875 0 
z
" id="DejaVuSans-86"/>
      <path d="M 59.515625 10.40625 
L 59.515625 29.984375 
L 43.40625 29.984375 
L 43.40625 38.09375 
L 69.28125 38.09375 
L 69.28125 6.78125 
Q 63.578125 2.734375 56.6875 0.65625 
Q 49.8125 -1.421875 42 -1.421875 
Q 24.90625 -1.421875 15.25 8.5625 
Q 5.609375 18.5625 5.609375 36.375 
Q 5.609375 54.25 15.25 64.234375 
Q 24.90625 74.21875 42 74.21875 
Q 49.125 74.21875 55.546875 72.453125 
Q 61.96875 70.703125 67.390625 67.28125 
L 67.390625 56.78125 
Q 61.921875 61.421875 55.765625 63.765625 
Q 49.609375 66.109375 42.828125 66.109375 
Q 29.4375 66.109375 22.71875 58.640625 
Q 16.015625 51.171875 16.015625 36.375 
Q 16.015625 21.625 22.71875 14.15625 
Q 29.4375 6.6875 42.828125 6.6875 
Q 48.046875 6.6875 52.140625 7.59375 
Q 56.25 8.5 59.515625 10.40625 
z
" id="DejaVuSans-71"/>
     </defs>
     <g transform="translate(197.1135 65.37375)scale(0.144 -0.144)">
      <use xlink:href="#DejaVuSans-83"/>
      <use x="63.476562" xlink:href="#DejaVuSans-116"/>
      <use x="102.685547" xlink:href="#DejaVuSans-97"/>
      <use x="163.964844" xlink:href="#DejaVuSans-110"/>
      <use x="227.34375" xlink:href="#DejaVuSans-100"/>
      <use x="290.820312" xlink:href="#DejaVuSans-97"/>
      <use x="352.099609" xlink:href="#DejaVuSans-114"/>
      <use x="393.197266" xlink:href="#DejaVuSans-100"/>
      <use x="456.673828" xlink:href="#DejaVuSans-32"/>
      <use x="488.460938" xlink:href="#DejaVuSans-86"/>
      <use x="556.869141" xlink:href="#DejaVuSans-71"/>
      <use x="634.359375" xlink:href="#DejaVuSans-71"/>
     </g>
    </g>
    <g id="patch_9">
     <path d="M 156.7935 86.51025 
L 185.5935 86.51025 
L 185.5935 76.43025 
L 156.7935 76.43025 
z
" style="fill:#f08080;stroke:#f08080;stroke-linejoin:miter;stroke-width:0.5;"/>
    </g>
    <g id="text_19">
     <!-- Standard VGG + BatchNorm -->
     <defs>
      <path d="M 46 62.703125 
L 46 35.5 
L 73.1875 35.5 
L 73.1875 27.203125 
L 46 27.203125 
L 46 0 
L 37.796875 0 
L 37.796875 27.203125 
L 10.59375 27.203125 
L 10.59375 35.5 
L 37.796875 35.5 
L 37.796875 62.703125 
z
" id="DejaVuSans-43"/>
      <path d="M 19.671875 34.8125 
L 19.671875 8.109375 
L 35.5 8.109375 
Q 43.453125 8.109375 47.28125 11.40625 
Q 51.125 14.703125 51.125 21.484375 
Q 51.125 28.328125 47.28125 31.5625 
Q 43.453125 34.8125 35.5 34.8125 
z
M 19.671875 64.796875 
L 19.671875 42.828125 
L 34.28125 42.828125 
Q 41.5 42.828125 45.03125 45.53125 
Q 48.578125 48.25 48.578125 53.8125 
Q 48.578125 59.328125 45.03125 62.0625 
Q 41.5 64.796875 34.28125 64.796875 
z
M 9.8125 72.90625 
L 35.015625 72.90625 
Q 46.296875 72.90625 52.390625 68.21875 
Q 58.5 63.53125 58.5 54.890625 
Q 58.5 48.1875 55.375 44.234375 
Q 52.25 40.28125 46.1875 39.3125 
Q 53.46875 37.75 57.5 32.78125 
Q 61.53125 27.828125 61.53125 20.40625 
Q 61.53125 10.640625 54.890625 5.3125 
Q 48.25 0 35.984375 0 
L 9.8125 0 
z
" id="DejaVuSans-66"/>
      <path d="M 54.890625 33.015625 
L 54.890625 0 
L 45.90625 0 
L 45.90625 32.71875 
Q 45.90625 40.484375 42.875 44.328125 
Q 39.84375 48.1875 33.796875 48.1875 
Q 26.515625 48.1875 22.3125 43.546875 
Q 18.109375 38.921875 18.109375 30.90625 
L 18.109375 0 
L 9.078125 0 
L 9.078125 75.984375 
L 18.109375 75.984375 
L 18.109375 46.1875 
Q 21.34375 51.125 25.703125 53.5625 
Q 30.078125 56 35.796875 56 
Q 45.21875 56 50.046875 50.171875 
Q 54.890625 44.34375 54.890625 33.015625 
z
" id="DejaVuSans-104"/>
      <path d="M 9.8125 72.90625 
L 23.09375 72.90625 
L 55.421875 11.921875 
L 55.421875 72.90625 
L 64.984375 72.90625 
L 64.984375 0 
L 51.703125 0 
L 19.390625 60.984375 
L 19.390625 0 
L 9.8125 0 
z
" id="DejaVuSans-78"/>
      <path d="M 52 44.1875 
Q 55.375 50.25 60.0625 53.125 
Q 64.75 56 71.09375 56 
Q 79.640625 56 84.28125 50.015625 
Q 88.921875 44.046875 88.921875 33.015625 
L 88.921875 0 
L 79.890625 0 
L 79.890625 32.71875 
Q 79.890625 40.578125 77.09375 44.375 
Q 74.3125 48.1875 68.609375 48.1875 
Q 61.625 48.1875 57.5625 43.546875 
Q 53.515625 38.921875 53.515625 30.90625 
L 53.515625 0 
L 44.484375 0 
L 44.484375 32.71875 
Q 44.484375 40.625 41.703125 44.40625 
Q 38.921875 48.1875 33.109375 48.1875 
Q 26.21875 48.1875 22.15625 43.53125 
Q 18.109375 38.875 18.109375 30.90625 
L 18.109375 0 
L 9.078125 0 
L 9.078125 54.6875 
L 18.109375 54.6875 
L 18.109375 46.1875 
Q 21.1875 51.21875 25.484375 53.609375 
Q 29.78125 56 35.6875 56 
Q 41.65625 56 45.828125 52.96875 
Q 50 49.953125 52 44.1875 
z
" id="DejaVuSans-109"/>
     </defs>
     <g transform="translate(197.1135 86.51025)scale(0.144 -0.144)">
      <use xlink:href="#DejaVuSans-83"/>
      <use x="63.476562" xlink:href="#DejaVuSans-116"/>
      <use x="102.685547" xlink:href="#DejaVuSans-97"/>
      <use x="163.964844" xlink:href="#DejaVuSans-110"/>
      <use x="227.34375" xlink:href="#DejaVuSans-100"/>
      <use x="290.820312" xlink:href="#DejaVuSans-97"/>
      <use x="352.099609" xlink:href="#DejaVuSans-114"/>
      <use x="393.197266" xlink:href="#DejaVuSans-100"/>
      <use x="456.673828" xlink:href="#DejaVuSans-32"/>
      <use x="488.460938" xlink:href="#DejaVuSans-86"/>
      <use x="556.869141" xlink:href="#DejaVuSans-71"/>
      <use x="634.359375" xlink:href="#DejaVuSans-71"/>
      <use x="711.849609" xlink:href="#DejaVuSans-32"/>
      <use x="743.636719" xlink:href="#DejaVuSans-43"/>
      <use x="827.425781" xlink:href="#DejaVuSans-32"/>
      <use x="859.212891" xlink:href="#DejaVuSans-66"/>
      <use x="927.816406" xlink:href="#DejaVuSans-97"/>
      <use x="989.095703" xlink:href="#DejaVuSans-116"/>
      <use x="1028.304688" xlink:href="#DejaVuSans-99"/>
      <use x="1083.285156" xlink:href="#DejaVuSans-104"/>
      <use x="1146.664062" xlink:href="#DejaVuSans-78"/>
      <use x="1221.46875" xlink:href="#DejaVuSans-111"/>
      <use x="1282.650391" xlink:href="#DejaVuSans-114"/>
      <use x="1323.748047" xlink:href="#DejaVuSans-109"/>
     </g>
    </g>
   </g>
  </g>
 </g>
 <defs>
  <clipPath id="p4b22cbed6a">
   <rect height="266.112" width="357.12" x="57.6" y="41.472"/>
  </clipPath>
 </defs>
</svg>
