<?xml version="1.0" encoding="utf-8" standalone="no"?>
<!DOCTYPE svg PUBLIC "-//W3C//DTD SVG 1.1//EN"
  "http://www.w3.org/Graphics/SVG/1.1/DTD/svg11.dtd">
<svg xmlns:xlink="http://www.w3.org/1999/xlink" width="612.165625pt" height="277.314375pt" viewBox="0 0 612.165625 277.314375" xmlns="http://www.w3.org/2000/svg" version="1.1">
 <metadata>
  <rdf:RDF xmlns:dc="http://purl.org/dc/elements/1.1/" xmlns:cc="http://creativecommons.org/ns#" xmlns:rdf="http://www.w3.org/1999/02/22-rdf-syntax-ns#">
   <cc:Work>
    <dc:type rdf:resource="http://purl.org/dc/dcmitype/StillImage"/>
    <dc:date>2022-04-28T11:16:28.449437</dc:date>
    <dc:format>image/svg+xml</dc:format>
    <dc:creator>
     <cc:Agent>
      <dc:title>Matplotlib v3.5.1, https://matplotlib.org/</dc:title>
     </cc:Agent>
    </dc:creator>
   </cc:Work>
  </rdf:RDF>
 </metadata>
 <defs>
  <style type="text/css">*{stroke-linejoin: round; stroke-linecap: butt}</style>
 </defs>
 <g id="figure_1">
  <g id="patch_1">
   <path d="M 0 277.314375 
L 612.165625 277.314375 
L 612.165625 0 
L 0 0 
L 0 277.314375 
z
" style="fill: none"/>
  </g>
  <g id="axes_1">
   <g id="patch_2">
    <path d="M 46.965625 239.758125 
L 604.965625 239.758125 
L 604.965625 22.318125 
L 46.965625 22.318125 
z
" style="fill: #ffffff"/>
   </g>
   <g id="matplotlib.axis_1">
    <g id="xtick_1">
     <g id="line2d_1">
      <defs>
       <path id="m77ebc3f84c" d="M 0 0 
L 0 3.5 
" style="stroke: #000000; stroke-width: 0.8"/>
      </defs>
      <g>
       <use xlink:href="#m77ebc3f84c" x="69.780152" y="239.758125" style="stroke: #000000; stroke-width: 0.8"/>
      </g>
     </g>
     <g id="text_1">
      <!-- 0 -->
      <g transform="translate(66.598902 254.356562)scale(0.1 -0.1)">
       <defs>
        <path id="DejaVuSans-30" d="M 2034 4250 
Q 1547 4250 1301 3770 
Q 1056 3291 1056 2328 
Q 1056 1369 1301 889 
Q 1547 409 2034 409 
Q 2525 409 2770 889 
Q 3016 1369 3016 2328 
Q 3016 3291 2770 3770 
Q 2525 4250 2034 4250 
z
M 2034 4750 
Q 2819 4750 3233 4129 
Q 3647 3509 3647 2328 
Q 3647 1150 3233 529 
Q 2819 -91 2034 -91 
Q 1250 -91 836 529 
Q 422 1150 422 2328 
Q 422 3509 836 4129 
Q 1250 4750 2034 4750 
z
" transform="scale(0.015625)"/>
       </defs>
       <use xlink:href="#DejaVuSans-30"/>
      </g>
     </g>
    </g>
    <g id="xtick_2">
     <g id="line2d_2">
      <g>
       <use xlink:href="#m77ebc3f84c" x="133.507882" y="239.758125" style="stroke: #000000; stroke-width: 0.8"/>
      </g>
     </g>
     <g id="text_2">
      <!-- 25 -->
      <g transform="translate(127.145382 254.356562)scale(0.1 -0.1)">
       <defs>
        <path id="DejaVuSans-32" d="M 1228 531 
L 3431 531 
L 3431 0 
L 469 0 
L 469 531 
Q 828 903 1448 1529 
Q 2069 2156 2228 2338 
Q 2531 2678 2651 2914 
Q 2772 3150 2772 3378 
Q 2772 3750 2511 3984 
Q 2250 4219 1831 4219 
Q 1534 4219 1204 4116 
Q 875 4013 500 3803 
L 500 4441 
Q 881 4594 1212 4672 
Q 1544 4750 1819 4750 
Q 2544 4750 2975 4387 
Q 3406 4025 3406 3419 
Q 3406 3131 3298 2873 
Q 3191 2616 2906 2266 
Q 2828 2175 2409 1742 
Q 1991 1309 1228 531 
z
" transform="scale(0.015625)"/>
        <path id="DejaVuSans-35" d="M 691 4666 
L 3169 4666 
L 3169 4134 
L 1269 4134 
L 1269 2991 
Q 1406 3038 1543 3061 
Q 1681 3084 1819 3084 
Q 2600 3084 3056 2656 
Q 3513 2228 3513 1497 
Q 3513 744 3044 326 
Q 2575 -91 1722 -91 
Q 1428 -91 1123 -41 
Q 819 9 494 109 
L 494 744 
Q 775 591 1075 516 
Q 1375 441 1709 441 
Q 2250 441 2565 725 
Q 2881 1009 2881 1497 
Q 2881 1984 2565 2268 
Q 2250 2553 1709 2553 
Q 1456 2553 1204 2497 
Q 953 2441 691 2322 
L 691 4666 
z
" transform="scale(0.015625)"/>
       </defs>
       <use xlink:href="#DejaVuSans-32"/>
       <use xlink:href="#DejaVuSans-35" x="63.623047"/>
      </g>
     </g>
    </g>
    <g id="xtick_3">
     <g id="line2d_3">
      <g>
       <use xlink:href="#m77ebc3f84c" x="197.235611" y="239.758125" style="stroke: #000000; stroke-width: 0.8"/>
      </g>
     </g>
     <g id="text_3">
      <!-- 50 -->
      <g transform="translate(190.873111 254.356562)scale(0.1 -0.1)">
       <use xlink:href="#DejaVuSans-35"/>
       <use xlink:href="#DejaVuSans-30" x="63.623047"/>
      </g>
     </g>
    </g>
    <g id="xtick_4">
     <g id="line2d_4">
      <g>
       <use xlink:href="#m77ebc3f84c" x="260.963341" y="239.758125" style="stroke: #000000; stroke-width: 0.8"/>
      </g>
     </g>
     <g id="text_4">
      <!-- 75 -->
      <g transform="translate(254.600841 254.356562)scale(0.1 -0.1)">
       <defs>
        <path id="DejaVuSans-37" d="M 525 4666 
L 3525 4666 
L 3525 4397 
L 1831 0 
L 1172 0 
L 2766 4134 
L 525 4134 
L 525 4666 
z
" transform="scale(0.015625)"/>
       </defs>
       <use xlink:href="#DejaVuSans-37"/>
       <use xlink:href="#DejaVuSans-35" x="63.623047"/>
      </g>
     </g>
    </g>
    <g id="xtick_5">
     <g id="line2d_5">
      <g>
       <use xlink:href="#m77ebc3f84c" x="324.69107" y="239.758125" style="stroke: #000000; stroke-width: 0.8"/>
      </g>
     </g>
     <g id="text_5">
      <!-- 100 -->
      <g transform="translate(315.14732 254.356562)scale(0.1 -0.1)">
       <defs>
        <path id="DejaVuSans-31" d="M 794 531 
L 1825 531 
L 1825 4091 
L 703 3866 
L 703 4441 
L 1819 4666 
L 2450 4666 
L 2450 531 
L 3481 531 
L 3481 0 
L 794 0 
L 794 531 
z
" transform="scale(0.015625)"/>
       </defs>
       <use xlink:href="#DejaVuSans-31"/>
       <use xlink:href="#DejaVuSans-30" x="63.623047"/>
       <use xlink:href="#DejaVuSans-30" x="127.246094"/>
      </g>
     </g>
    </g>
    <g id="xtick_6">
     <g id="line2d_6">
      <g>
       <use xlink:href="#m77ebc3f84c" x="388.4188" y="239.758125" style="stroke: #000000; stroke-width: 0.8"/>
      </g>
     </g>
     <g id="text_6">
      <!-- 125 -->
      <g transform="translate(378.87505 254.356562)scale(0.1 -0.1)">
       <use xlink:href="#DejaVuSans-31"/>
       <use xlink:href="#DejaVuSans-32" x="63.623047"/>
       <use xlink:href="#DejaVuSans-35" x="127.246094"/>
      </g>
     </g>
    </g>
    <g id="xtick_7">
     <g id="line2d_7">
      <g>
       <use xlink:href="#m77ebc3f84c" x="452.14653" y="239.758125" style="stroke: #000000; stroke-width: 0.8"/>
      </g>
     </g>
     <g id="text_7">
      <!-- 150 -->
      <g transform="translate(442.60278 254.356562)scale(0.1 -0.1)">
       <use xlink:href="#DejaVuSans-31"/>
       <use xlink:href="#DejaVuSans-35" x="63.623047"/>
       <use xlink:href="#DejaVuSans-30" x="127.246094"/>
      </g>
     </g>
    </g>
    <g id="xtick_8">
     <g id="line2d_8">
      <g>
       <use xlink:href="#m77ebc3f84c" x="515.874259" y="239.758125" style="stroke: #000000; stroke-width: 0.8"/>
      </g>
     </g>
     <g id="text_8">
      <!-- 175 -->
      <g transform="translate(506.330509 254.356562)scale(0.1 -0.1)">
       <use xlink:href="#DejaVuSans-31"/>
       <use xlink:href="#DejaVuSans-37" x="63.623047"/>
       <use xlink:href="#DejaVuSans-35" x="127.246094"/>
      </g>
     </g>
    </g>
    <g id="xtick_9">
     <g id="line2d_9">
      <g>
       <use xlink:href="#m77ebc3f84c" x="579.601989" y="239.758125" style="stroke: #000000; stroke-width: 0.8"/>
      </g>
     </g>
     <g id="text_9">
      <!-- 200 -->
      <g transform="translate(570.058239 254.356562)scale(0.1 -0.1)">
       <use xlink:href="#DejaVuSans-32"/>
       <use xlink:href="#DejaVuSans-30" x="63.623047"/>
       <use xlink:href="#DejaVuSans-30" x="127.246094"/>
      </g>
     </g>
    </g>
    <g id="text_10">
     <!-- epoch -->
     <g transform="translate(310.7375 268.034687)scale(0.1 -0.1)">
      <defs>
       <path id="DejaVuSans-65" d="M 3597 1894 
L 3597 1613 
L 953 1613 
Q 991 1019 1311 708 
Q 1631 397 2203 397 
Q 2534 397 2845 478 
Q 3156 559 3463 722 
L 3463 178 
Q 3153 47 2828 -22 
Q 2503 -91 2169 -91 
Q 1331 -91 842 396 
Q 353 884 353 1716 
Q 353 2575 817 3079 
Q 1281 3584 2069 3584 
Q 2775 3584 3186 3129 
Q 3597 2675 3597 1894 
z
M 3022 2063 
Q 3016 2534 2758 2815 
Q 2500 3097 2075 3097 
Q 1594 3097 1305 2825 
Q 1016 2553 972 2059 
L 3022 2063 
z
" transform="scale(0.015625)"/>
       <path id="DejaVuSans-70" d="M 1159 525 
L 1159 -1331 
L 581 -1331 
L 581 3500 
L 1159 3500 
L 1159 2969 
Q 1341 3281 1617 3432 
Q 1894 3584 2278 3584 
Q 2916 3584 3314 3078 
Q 3713 2572 3713 1747 
Q 3713 922 3314 415 
Q 2916 -91 2278 -91 
Q 1894 -91 1617 61 
Q 1341 213 1159 525 
z
M 3116 1747 
Q 3116 2381 2855 2742 
Q 2594 3103 2138 3103 
Q 1681 3103 1420 2742 
Q 1159 2381 1159 1747 
Q 1159 1113 1420 752 
Q 1681 391 2138 391 
Q 2594 391 2855 752 
Q 3116 1113 3116 1747 
z
" transform="scale(0.015625)"/>
       <path id="DejaVuSans-6f" d="M 1959 3097 
Q 1497 3097 1228 2736 
Q 959 2375 959 1747 
Q 959 1119 1226 758 
Q 1494 397 1959 397 
Q 2419 397 2687 759 
Q 2956 1122 2956 1747 
Q 2956 2369 2687 2733 
Q 2419 3097 1959 3097 
z
M 1959 3584 
Q 2709 3584 3137 3096 
Q 3566 2609 3566 1747 
Q 3566 888 3137 398 
Q 2709 -91 1959 -91 
Q 1206 -91 779 398 
Q 353 888 353 1747 
Q 353 2609 779 3096 
Q 1206 3584 1959 3584 
z
" transform="scale(0.015625)"/>
       <path id="DejaVuSans-63" d="M 3122 3366 
L 3122 2828 
Q 2878 2963 2633 3030 
Q 2388 3097 2138 3097 
Q 1578 3097 1268 2742 
Q 959 2388 959 1747 
Q 959 1106 1268 751 
Q 1578 397 2138 397 
Q 2388 397 2633 464 
Q 2878 531 3122 666 
L 3122 134 
Q 2881 22 2623 -34 
Q 2366 -91 2075 -91 
Q 1284 -91 818 406 
Q 353 903 353 1747 
Q 353 2603 823 3093 
Q 1294 3584 2113 3584 
Q 2378 3584 2631 3529 
Q 2884 3475 3122 3366 
z
" transform="scale(0.015625)"/>
       <path id="DejaVuSans-68" d="M 3513 2113 
L 3513 0 
L 2938 0 
L 2938 2094 
Q 2938 2591 2744 2837 
Q 2550 3084 2163 3084 
Q 1697 3084 1428 2787 
Q 1159 2491 1159 1978 
L 1159 0 
L 581 0 
L 581 4863 
L 1159 4863 
L 1159 2956 
Q 1366 3272 1645 3428 
Q 1925 3584 2291 3584 
Q 2894 3584 3203 3211 
Q 3513 2838 3513 2113 
z
" transform="scale(0.015625)"/>
      </defs>
      <use xlink:href="#DejaVuSans-65"/>
      <use xlink:href="#DejaVuSans-70" x="61.523438"/>
      <use xlink:href="#DejaVuSans-6f" x="125"/>
      <use xlink:href="#DejaVuSans-63" x="186.181641"/>
      <use xlink:href="#DejaVuSans-68" x="241.162109"/>
     </g>
    </g>
   </g>
   <g id="matplotlib.axis_2">
    <g id="ytick_1">
     <g id="line2d_10">
      <defs>
       <path id="m4e8f571775" d="M 0 0 
L -3.5 0 
" style="stroke: #000000; stroke-width: 0.8"/>
      </defs>
      <g>
       <use xlink:href="#m4e8f571775" x="46.965625" y="215.627231" style="stroke: #000000; stroke-width: 0.8"/>
      </g>
     </g>
     <g id="text_11">
      <!-- 60 -->
      <g transform="translate(27.240625 219.42645)scale(0.1 -0.1)">
       <defs>
        <path id="DejaVuSans-36" d="M 2113 2584 
Q 1688 2584 1439 2293 
Q 1191 2003 1191 1497 
Q 1191 994 1439 701 
Q 1688 409 2113 409 
Q 2538 409 2786 701 
Q 3034 994 3034 1497 
Q 3034 2003 2786 2293 
Q 2538 2584 2113 2584 
z
M 3366 4563 
L 3366 3988 
Q 3128 4100 2886 4159 
Q 2644 4219 2406 4219 
Q 1781 4219 1451 3797 
Q 1122 3375 1075 2522 
Q 1259 2794 1537 2939 
Q 1816 3084 2150 3084 
Q 2853 3084 3261 2657 
Q 3669 2231 3669 1497 
Q 3669 778 3244 343 
Q 2819 -91 2113 -91 
Q 1303 -91 875 529 
Q 447 1150 447 2328 
Q 447 3434 972 4092 
Q 1497 4750 2381 4750 
Q 2619 4750 2861 4703 
Q 3103 4656 3366 4563 
z
" transform="scale(0.015625)"/>
       </defs>
       <use xlink:href="#DejaVuSans-36"/>
       <use xlink:href="#DejaVuSans-30" x="63.623047"/>
      </g>
     </g>
    </g>
    <g id="ytick_2">
     <g id="line2d_11">
      <g>
       <use xlink:href="#m4e8f571775" x="46.965625" y="169.757101" style="stroke: #000000; stroke-width: 0.8"/>
      </g>
     </g>
     <g id="text_12">
      <!-- 70 -->
      <g transform="translate(27.240625 173.55632)scale(0.1 -0.1)">
       <use xlink:href="#DejaVuSans-37"/>
       <use xlink:href="#DejaVuSans-30" x="63.623047"/>
      </g>
     </g>
    </g>
    <g id="ytick_3">
     <g id="line2d_12">
      <g>
       <use xlink:href="#m4e8f571775" x="46.965625" y="123.886972" style="stroke: #000000; stroke-width: 0.8"/>
      </g>
     </g>
     <g id="text_13">
      <!-- 80 -->
      <g transform="translate(27.240625 127.68619)scale(0.1 -0.1)">
       <defs>
        <path id="DejaVuSans-38" d="M 2034 2216 
Q 1584 2216 1326 1975 
Q 1069 1734 1069 1313 
Q 1069 891 1326 650 
Q 1584 409 2034 409 
Q 2484 409 2743 651 
Q 3003 894 3003 1313 
Q 3003 1734 2745 1975 
Q 2488 2216 2034 2216 
z
M 1403 2484 
Q 997 2584 770 2862 
Q 544 3141 544 3541 
Q 544 4100 942 4425 
Q 1341 4750 2034 4750 
Q 2731 4750 3128 4425 
Q 3525 4100 3525 3541 
Q 3525 3141 3298 2862 
Q 3072 2584 2669 2484 
Q 3125 2378 3379 2068 
Q 3634 1759 3634 1313 
Q 3634 634 3220 271 
Q 2806 -91 2034 -91 
Q 1263 -91 848 271 
Q 434 634 434 1313 
Q 434 1759 690 2068 
Q 947 2378 1403 2484 
z
M 1172 3481 
Q 1172 3119 1398 2916 
Q 1625 2713 2034 2713 
Q 2441 2713 2670 2916 
Q 2900 3119 2900 3481 
Q 2900 3844 2670 4047 
Q 2441 4250 2034 4250 
Q 1625 4250 1398 4047 
Q 1172 3844 1172 3481 
z
" transform="scale(0.015625)"/>
       </defs>
       <use xlink:href="#DejaVuSans-38"/>
       <use xlink:href="#DejaVuSans-30" x="63.623047"/>
      </g>
     </g>
    </g>
    <g id="ytick_4">
     <g id="line2d_13">
      <g>
       <use xlink:href="#m4e8f571775" x="46.965625" y="78.016842" style="stroke: #000000; stroke-width: 0.8"/>
      </g>
     </g>
     <g id="text_14">
      <!-- 90 -->
      <g transform="translate(27.240625 81.816061)scale(0.1 -0.1)">
       <defs>
        <path id="DejaVuSans-39" d="M 703 97 
L 703 672 
Q 941 559 1184 500 
Q 1428 441 1663 441 
Q 2288 441 2617 861 
Q 2947 1281 2994 2138 
Q 2813 1869 2534 1725 
Q 2256 1581 1919 1581 
Q 1219 1581 811 2004 
Q 403 2428 403 3163 
Q 403 3881 828 4315 
Q 1253 4750 1959 4750 
Q 2769 4750 3195 4129 
Q 3622 3509 3622 2328 
Q 3622 1225 3098 567 
Q 2575 -91 1691 -91 
Q 1453 -91 1209 -44 
Q 966 3 703 97 
z
M 1959 2075 
Q 2384 2075 2632 2365 
Q 2881 2656 2881 3163 
Q 2881 3666 2632 3958 
Q 2384 4250 1959 4250 
Q 1534 4250 1286 3958 
Q 1038 3666 1038 3163 
Q 1038 2656 1286 2365 
Q 1534 2075 1959 2075 
z
" transform="scale(0.015625)"/>
       </defs>
       <use xlink:href="#DejaVuSans-39"/>
       <use xlink:href="#DejaVuSans-30" x="63.623047"/>
      </g>
     </g>
    </g>
    <g id="ytick_5">
     <g id="line2d_14">
      <g>
       <use xlink:href="#m4e8f571775" x="46.965625" y="32.146712" style="stroke: #000000; stroke-width: 0.8"/>
      </g>
     </g>
     <g id="text_15">
      <!-- 100 -->
      <g transform="translate(20.878125 35.945931)scale(0.1 -0.1)">
       <use xlink:href="#DejaVuSans-31"/>
       <use xlink:href="#DejaVuSans-30" x="63.623047"/>
       <use xlink:href="#DejaVuSans-30" x="127.246094"/>
      </g>
     </g>
    </g>
    <g id="text_16">
     <!-- Accuary -->
     <g transform="translate(14.798437 151.117031)rotate(-90)scale(0.1 -0.1)">
      <defs>
       <path id="DejaVuSans-41" d="M 2188 4044 
L 1331 1722 
L 3047 1722 
L 2188 4044 
z
M 1831 4666 
L 2547 4666 
L 4325 0 
L 3669 0 
L 3244 1197 
L 1141 1197 
L 716 0 
L 50 0 
L 1831 4666 
z
" transform="scale(0.015625)"/>
       <path id="DejaVuSans-75" d="M 544 1381 
L 544 3500 
L 1119 3500 
L 1119 1403 
Q 1119 906 1312 657 
Q 1506 409 1894 409 
Q 2359 409 2629 706 
Q 2900 1003 2900 1516 
L 2900 3500 
L 3475 3500 
L 3475 0 
L 2900 0 
L 2900 538 
Q 2691 219 2414 64 
Q 2138 -91 1772 -91 
Q 1169 -91 856 284 
Q 544 659 544 1381 
z
M 1991 3584 
L 1991 3584 
z
" transform="scale(0.015625)"/>
       <path id="DejaVuSans-61" d="M 2194 1759 
Q 1497 1759 1228 1600 
Q 959 1441 959 1056 
Q 959 750 1161 570 
Q 1363 391 1709 391 
Q 2188 391 2477 730 
Q 2766 1069 2766 1631 
L 2766 1759 
L 2194 1759 
z
M 3341 1997 
L 3341 0 
L 2766 0 
L 2766 531 
Q 2569 213 2275 61 
Q 1981 -91 1556 -91 
Q 1019 -91 701 211 
Q 384 513 384 1019 
Q 384 1609 779 1909 
Q 1175 2209 1959 2209 
L 2766 2209 
L 2766 2266 
Q 2766 2663 2505 2880 
Q 2244 3097 1772 3097 
Q 1472 3097 1187 3025 
Q 903 2953 641 2809 
L 641 3341 
Q 956 3463 1253 3523 
Q 1550 3584 1831 3584 
Q 2591 3584 2966 3190 
Q 3341 2797 3341 1997 
z
" transform="scale(0.015625)"/>
       <path id="DejaVuSans-72" d="M 2631 2963 
Q 2534 3019 2420 3045 
Q 2306 3072 2169 3072 
Q 1681 3072 1420 2755 
Q 1159 2438 1159 1844 
L 1159 0 
L 581 0 
L 581 3500 
L 1159 3500 
L 1159 2956 
Q 1341 3275 1631 3429 
Q 1922 3584 2338 3584 
Q 2397 3584 2469 3576 
Q 2541 3569 2628 3553 
L 2631 2963 
z
" transform="scale(0.015625)"/>
       <path id="DejaVuSans-79" d="M 2059 -325 
Q 1816 -950 1584 -1140 
Q 1353 -1331 966 -1331 
L 506 -1331 
L 506 -850 
L 844 -850 
Q 1081 -850 1212 -737 
Q 1344 -625 1503 -206 
L 1606 56 
L 191 3500 
L 800 3500 
L 1894 763 
L 2988 3500 
L 3597 3500 
L 2059 -325 
z
" transform="scale(0.015625)"/>
      </defs>
      <use xlink:href="#DejaVuSans-41"/>
      <use xlink:href="#DejaVuSans-63" x="66.658203"/>
      <use xlink:href="#DejaVuSans-63" x="121.638672"/>
      <use xlink:href="#DejaVuSans-75" x="176.619141"/>
      <use xlink:href="#DejaVuSans-61" x="239.998047"/>
      <use xlink:href="#DejaVuSans-72" x="301.277344"/>
      <use xlink:href="#DejaVuSans-79" x="342.390625"/>
     </g>
    </g>
   </g>
   <g id="line2d_15">
    <path d="M 72.329261 229.874489 
L 74.878371 198.141536 
L 77.42748 183.022735 
L 79.976589 162.206861 
L 82.525698 133.565572 
L 85.074807 147.812847 
L 87.623916 140.482767 
L 90.173026 116.373442 
L 92.722135 117.336711 
L 95.271244 163.243551 
L 97.820353 114.85972 
L 100.369462 105.731574 
L 102.918572 102.961035 
L 105.467681 100.906027 
L 108.01679 86.273479 
L 110.565899 81.117674 
L 113.115008 80.163575 
L 115.664117 63.668673 
L 118.213227 56.944096 
L 120.762336 53.925855 
L 123.311445 53.577224 
L 125.860554 51.971776 
L 128.409663 53.320352 
L 130.958773 50.916783 
L 133.507882 51.265379 
L 136.056991 50.659911 
L 138.6061 48.898486 
L 141.155209 51.898389 
L 143.704318 48.953535 
L 146.253428 47.311376 
L 151.351646 46.439833 
L 153.900755 46.320566 
L 156.449864 45.302248 
L 158.998974 46.127912 
L 161.548083 46.559099 
L 164.097192 44.439909 
L 166.646301 47.944386 
L 169.19541 44.843554 
L 171.744519 45.724267 
L 174.293629 46.797633 
L 176.842738 48.421418 
L 179.391847 43.540858 
L 181.940956 42.586758 
L 184.490065 43.173889 
L 187.039175 43.293155 
L 189.588284 44.898603 
L 192.137393 43.981214 
L 194.686502 47.448981 
L 197.235611 41.733553 
L 202.33383 42.155571 
L 204.882939 41.027156 
L 207.432048 46.219672 
L 209.981157 41.3024 
L 212.530266 41.073036 
L 215.079376 40.31159 
L 217.628485 41.742757 
L 220.177594 39.733629 
L 222.726703 41.605117 
L 225.275812 41.265689 
L 227.824921 40.458364 
L 230.374031 41.761095 
L 232.92314 41.073036 
L 235.472249 42.614265 
L 238.021358 40.852875 
L 240.570467 40.5868 
L 243.119577 38.082301 
L 245.668686 40.981311 
L 248.217795 38.119012 
L 250.766904 41.485885 
L 253.316013 39.660242 
L 255.865122 39.054739 
L 258.414232 38.779529 
L 260.963341 37.963035 
L 263.51245 37.513509 
L 266.061559 38.788698 
L 268.610668 38.513489 
L 271.159778 37.320856 
L 273.708887 39.339152 
L 276.257996 36.944717 
L 278.807105 37.082322 
L 281.356214 36.834654 
L 283.905323 37.724536 
L 286.454433 36.23832 
L 289.003542 37.018104 
L 291.552651 36.60529 
L 294.10176 36.073208 
L 296.650869 36.440143 
L 299.199979 37.651114 
L 301.749088 35.073229 
L 304.298197 36.073208 
L 306.847306 35.458536 
L 309.396415 36.788774 
L 311.945524 35.29339 
L 314.494634 36.513565 
L 317.043743 34.651211 
L 319.592852 35.495247 
L 322.141961 34.513606 
L 324.69107 36.137426 
L 327.24018 34.944793 
L 329.789289 35.586972 
L 332.338398 35.100736 
L 334.887507 35.385149 
L 337.436616 35.275052 
L 339.985726 34.541148 
L 342.534835 35.37598 
L 345.083944 35.394318 
L 347.633053 34.74297 
L 350.182162 35.513585 
L 352.731271 33.889765 
L 355.280381 34.192516 
L 357.82949 33.981525 
L 360.378599 34.394339 
L 362.927708 33.678773 
L 365.476817 33.972356 
L 368.025927 34.054912 
L 370.575036 33.623724 
L 373.124145 34.38517 
L 375.673254 34.210854 
L 378.222363 34.843864 
L 380.771472 33.614555 
L 383.320582 33.651266 
L 385.869691 33.486119 
L 388.4188 33.898969 
L 390.967909 33.788871 
L 396.066128 33.064101 
L 398.615237 33.403564 
L 403.713455 33.302635 
L 406.262564 33.11915 
L 408.811673 33.440239 
L 411.360783 33.054932 
L 413.909892 33.366853 
L 416.459001 33.366853 
L 419.00811 33.082474 
L 424.106329 33.394395 
L 429.204547 32.908158 
L 434.302765 32.972376 
L 436.851874 32.706336 
L 439.400984 33.091643 
L 441.950093 32.88982 
L 447.048311 32.917327 
L 452.14653 32.605407 
L 454.695639 32.706336 
L 459.793857 32.504513 
L 469.990294 32.541189 
L 472.539403 32.385246 
L 477.637621 32.541189 
L 487.834058 32.394415 
L 490.383167 32.53202 
L 495.481386 32.385246 
L 498.030495 32.623745 
L 500.579604 32.357704 
L 505.677822 32.421922 
L 508.226932 32.229268 
L 510.776041 32.48614 
L 531.168914 32.265979 
L 533.718023 32.440295 
L 536.267133 32.265979 
L 538.816242 32.376077 
L 543.91446 32.265979 
L 549.012678 32.302655 
L 551.561788 32.229268 
L 556.660006 32.265979 
L 574.50377 32.220099 
L 579.601989 32.265979 
L 579.601989 32.265979 
" clip-path="url(#p1f0b714436)" style="fill: none; stroke: #0000ff; stroke-width: 1.5; stroke-linecap: square"/>
   </g>
   <g id="line2d_16">
    <path d="M 72.329261 229.296528 
L 74.878371 201.545103 
L 77.42748 193.059136 
L 79.976589 171.683638 
L 82.525698 139.712152 
L 85.074807 157.830875 
L 87.623916 147.96879 
L 90.173026 122.556734 
L 92.722135 124.89612 
L 95.271244 173.380846 
L 97.820353 121.45586 
L 100.369462 117.189937 
L 102.918572 114.575341 
L 105.467681 113.336828 
L 108.01679 99.713429 
L 110.565899 95.034656 
L 113.115008 96.456619 
L 115.664117 83.475399 
L 118.213227 77.925117 
L 120.762336 77.145298 
L 123.311445 77.970962 
L 125.860554 76.365515 
L 128.409663 78.337932 
L 130.958773 76.915969 
L 133.507882 77.282903 
L 138.6061 76.824209 
L 141.155209 78.429656 
L 143.704318 78.016842 
L 146.253428 75.9527 
L 148.802537 76.365515 
L 151.351646 76.961814 
L 153.900755 76.548999 
L 156.449864 76.548999 
L 158.998974 77.282903 
L 161.548083 76.824209 
L 164.097192 76.044425 
L 166.646301 78.980111 
L 169.19541 79.34708 
L 171.744519 77.512268 
L 174.293629 79.117715 
L 176.842738 80.998408 
L 179.391847 75.9527 
L 181.940956 75.402246 
L 184.490065 76.548999 
L 187.039175 77.833357 
L 189.588284 77.833357 
L 192.137393 78.750781 
L 194.686502 81.732311 
L 197.235611 76.457274 
L 199.78472 76.18203 
L 202.33383 74.897672 
L 204.882939 75.81506 
L 207.432048 76.548999 
L 209.981157 75.310521 
L 212.530266 74.668307 
L 215.079376 74.209613 
L 217.628485 77.099453 
L 220.177594 73.06286 
L 222.726703 75.769216 
L 225.275812 74.530702 
L 227.824921 76.732484 
L 230.374031 75.539851 
L 232.92314 75.677456 
L 235.472249 78.383812 
L 238.021358 75.264641 
L 240.570467 75.90682 
L 243.119577 73.292224 
L 245.668686 75.90682 
L 248.217795 74.255493 
L 250.766904 76.22791 
L 253.316013 76.961814 
L 255.865122 74.805947 
L 258.414232 74.484858 
L 260.963341 73.980283 
L 263.51245 72.74177 
L 266.061559 74.301373 
L 268.610668 74.209613 
L 271.159778 73.200464 
L 273.708887 75.631611 
L 276.257996 72.237196 
L 278.807105 73.705039 
L 281.356214 73.475709 
L 283.905323 72.74177 
L 286.454433 72.650045 
L 289.003542 74.347218 
L 291.552651 72.925255 
L 294.10176 70.218934 
L 296.650869 72.099591 
L 299.199979 74.347218 
L 301.749088 70.677628 
L 304.298197 73.017015 
L 309.396415 72.512441 
L 311.945524 70.723508 
L 314.494634 71.273927 
L 317.043743 69.71436 
L 319.592852 69.851965 
L 322.141961 70.448264 
L 324.69107 73.017015 
L 327.24018 70.173054 
L 329.789289 71.549137 
L 332.338398 71.090443 
L 334.887507 70.861113 
L 337.436616 72.328956 
L 339.985726 70.356539 
L 342.534835 71.319807 
L 345.083944 71.457412 
L 347.633053 72.237196 
L 350.182162 73.200464 
L 352.731271 70.906958 
L 355.280381 71.273927 
L 357.82949 69.39327 
L 360.378599 71.549137 
L 362.927708 69.71436 
L 365.476817 70.631748 
L 368.025927 69.026301 
L 370.575036 69.530875 
L 373.124145 70.264779 
L 375.673254 70.218934 
L 378.222363 72.191351 
L 380.771472 69.943689 
L 383.320582 69.897845 
L 385.869691 70.815233 
L 390.967909 69.66848 
L 393.517018 68.567607 
L 396.066128 69.897845 
L 398.615237 68.292362 
L 403.713455 68.200637 
L 406.262564 68.751091 
L 408.811673 68.934541 
L 413.909892 70.127174 
L 416.459001 69.439115 
L 419.00811 68.567607 
L 421.557219 69.072181 
L 424.106329 70.310659 
L 426.655438 68.246517 
L 429.204547 70.127174 
L 431.753656 68.384122 
L 434.302765 67.925428 
L 436.851874 68.613452 
L 439.400984 68.154757 
L 441.950093 68.154757 
L 444.499202 69.163906 
L 447.048311 68.842816 
L 452.14653 67.558458 
L 454.695639 68.384122 
L 457.244748 67.099764 
L 459.793857 68.108877 
L 462.342966 66.962124 
L 464.892075 67.696063 
L 467.441185 67.145609 
L 469.990294 67.604338 
L 472.539403 67.925428 
L 475.088512 67.650183 
L 477.637621 68.292362 
L 480.186731 67.420853 
L 485.284949 67.512578 
L 487.834058 66.22822 
L 490.383167 68.475847 
L 492.932276 67.420853 
L 495.481386 67.191489 
L 498.030495 66.824519 
L 500.579604 67.420853 
L 503.128713 67.650183 
L 505.677822 67.420853 
L 508.226932 67.925428 
L 510.776041 67.558458 
L 513.32515 67.374973 
L 515.874259 68.613452 
L 518.423368 67.145609 
L 520.972477 66.916279 
L 523.521587 67.650183 
L 526.070696 66.916279 
L 528.619805 66.824519 
L 531.168914 66.044735 
L 533.718023 67.420853 
L 536.267133 67.420853 
L 538.816242 66.59519 
L 541.365351 65.540161 
L 543.91446 67.008004 
L 546.463569 66.916279 
L 549.012678 66.50343 
L 551.561788 65.264952 
L 554.110897 66.22822 
L 556.660006 66.870399 
L 559.209115 67.008004 
L 561.758224 66.090615 
L 564.307334 66.090615 
L 566.856443 66.319945 
L 569.405552 66.686914 
L 571.954661 65.586041 
L 574.50377 65.907131 
L 577.052879 65.723646 
L 579.601989 67.374973 
L 579.601989 67.374973 
" clip-path="url(#p1f0b714436)" style="fill: none; stroke: #008000; stroke-width: 1.5; stroke-linecap: square"/>
   </g>
   <g id="patch_3">
    <path d="M 46.965625 239.758125 
L 46.965625 22.318125 
" style="fill: none; stroke: #000000; stroke-width: 0.8; stroke-linejoin: miter; stroke-linecap: square"/>
   </g>
   <g id="patch_4">
    <path d="M 604.965625 239.758125 
L 604.965625 22.318125 
" style="fill: none; stroke: #000000; stroke-width: 0.8; stroke-linejoin: miter; stroke-linecap: square"/>
   </g>
   <g id="patch_5">
    <path d="M 46.965625 239.758125 
L 604.965625 239.758125 
" style="fill: none; stroke: #000000; stroke-width: 0.8; stroke-linejoin: miter; stroke-linecap: square"/>
   </g>
   <g id="patch_6">
    <path d="M 46.965625 22.318125 
L 604.965625 22.318125 
" style="fill: none; stroke: #000000; stroke-width: 0.8; stroke-linejoin: miter; stroke-linecap: square"/>
   </g>
   <g id="text_17">
    <!-- No Erase -->
    <g transform="translate(299.146563 16.318125)scale(0.12 -0.12)">
     <defs>
      <path id="DejaVuSans-4e" d="M 628 4666 
L 1478 4666 
L 3547 763 
L 3547 4666 
L 4159 4666 
L 4159 0 
L 3309 0 
L 1241 3903 
L 1241 0 
L 628 0 
L 628 4666 
z
" transform="scale(0.015625)"/>
      <path id="DejaVuSans-20" transform="scale(0.015625)"/>
      <path id="DejaVuSans-45" d="M 628 4666 
L 3578 4666 
L 3578 4134 
L 1259 4134 
L 1259 2753 
L 3481 2753 
L 3481 2222 
L 1259 2222 
L 1259 531 
L 3634 531 
L 3634 0 
L 628 0 
L 628 4666 
z
" transform="scale(0.015625)"/>
      <path id="DejaVuSans-73" d="M 2834 3397 
L 2834 2853 
Q 2591 2978 2328 3040 
Q 2066 3103 1784 3103 
Q 1356 3103 1142 2972 
Q 928 2841 928 2578 
Q 928 2378 1081 2264 
Q 1234 2150 1697 2047 
L 1894 2003 
Q 2506 1872 2764 1633 
Q 3022 1394 3022 966 
Q 3022 478 2636 193 
Q 2250 -91 1575 -91 
Q 1294 -91 989 -36 
Q 684 19 347 128 
L 347 722 
Q 666 556 975 473 
Q 1284 391 1588 391 
Q 1994 391 2212 530 
Q 2431 669 2431 922 
Q 2431 1156 2273 1281 
Q 2116 1406 1581 1522 
L 1381 1569 
Q 847 1681 609 1914 
Q 372 2147 372 2553 
Q 372 3047 722 3315 
Q 1072 3584 1716 3584 
Q 2034 3584 2315 3537 
Q 2597 3491 2834 3397 
z
" transform="scale(0.015625)"/>
     </defs>
     <use xlink:href="#DejaVuSans-4e"/>
     <use xlink:href="#DejaVuSans-6f" x="74.804688"/>
     <use xlink:href="#DejaVuSans-20" x="135.986328"/>
     <use xlink:href="#DejaVuSans-45" x="167.773438"/>
     <use xlink:href="#DejaVuSans-72" x="230.957031"/>
     <use xlink:href="#DejaVuSans-61" x="272.070312"/>
     <use xlink:href="#DejaVuSans-73" x="333.349609"/>
     <use xlink:href="#DejaVuSans-65" x="385.449219"/>
    </g>
   </g>
   <g id="legend_1">
    <g id="patch_7">
     <path d="M 521.85 234.758125 
L 597.965625 234.758125 
Q 599.965625 234.758125 599.965625 232.758125 
L 599.965625 204.401875 
Q 599.965625 202.401875 597.965625 202.401875 
L 521.85 202.401875 
Q 519.85 202.401875 519.85 204.401875 
L 519.85 232.758125 
Q 519.85 234.758125 521.85 234.758125 
z
" style="fill: #ffffff; opacity: 0.8; stroke: #cccccc; stroke-linejoin: miter"/>
    </g>
    <g id="line2d_17">
     <path d="M 523.85 210.500312 
L 533.85 210.500312 
L 543.85 210.500312 
" style="fill: none; stroke: #0000ff; stroke-width: 1.5; stroke-linecap: square"/>
    </g>
    <g id="text_18">
     <!-- train Acc -->
     <g transform="translate(551.85 214.000312)scale(0.1 -0.1)">
      <defs>
       <path id="DejaVuSans-74" d="M 1172 4494 
L 1172 3500 
L 2356 3500 
L 2356 3053 
L 1172 3053 
L 1172 1153 
Q 1172 725 1289 603 
Q 1406 481 1766 481 
L 2356 481 
L 2356 0 
L 1766 0 
Q 1100 0 847 248 
Q 594 497 594 1153 
L 594 3053 
L 172 3053 
L 172 3500 
L 594 3500 
L 594 4494 
L 1172 4494 
z
" transform="scale(0.015625)"/>
       <path id="DejaVuSans-69" d="M 603 3500 
L 1178 3500 
L 1178 0 
L 603 0 
L 603 3500 
z
M 603 4863 
L 1178 4863 
L 1178 4134 
L 603 4134 
L 603 4863 
z
" transform="scale(0.015625)"/>
       <path id="DejaVuSans-6e" d="M 3513 2113 
L 3513 0 
L 2938 0 
L 2938 2094 
Q 2938 2591 2744 2837 
Q 2550 3084 2163 3084 
Q 1697 3084 1428 2787 
Q 1159 2491 1159 1978 
L 1159 0 
L 581 0 
L 581 3500 
L 1159 3500 
L 1159 2956 
Q 1366 3272 1645 3428 
Q 1925 3584 2291 3584 
Q 2894 3584 3203 3211 
Q 3513 2838 3513 2113 
z
" transform="scale(0.015625)"/>
      </defs>
      <use xlink:href="#DejaVuSans-74"/>
      <use xlink:href="#DejaVuSans-72" x="39.208984"/>
      <use xlink:href="#DejaVuSans-61" x="80.322266"/>
      <use xlink:href="#DejaVuSans-69" x="141.601562"/>
      <use xlink:href="#DejaVuSans-6e" x="169.384766"/>
      <use xlink:href="#DejaVuSans-20" x="232.763672"/>
      <use xlink:href="#DejaVuSans-41" x="264.550781"/>
      <use xlink:href="#DejaVuSans-63" x="331.208984"/>
      <use xlink:href="#DejaVuSans-63" x="386.189453"/>
     </g>
    </g>
    <g id="line2d_18">
     <path d="M 523.85 225.178437 
L 533.85 225.178437 
L 543.85 225.178437 
" style="fill: none; stroke: #008000; stroke-width: 1.5; stroke-linecap: square"/>
    </g>
    <g id="text_19">
     <!-- test Acc -->
     <g transform="translate(551.85 228.678437)scale(0.1 -0.1)">
      <use xlink:href="#DejaVuSans-74"/>
      <use xlink:href="#DejaVuSans-65" x="39.208984"/>
      <use xlink:href="#DejaVuSans-73" x="100.732422"/>
      <use xlink:href="#DejaVuSans-74" x="152.832031"/>
      <use xlink:href="#DejaVuSans-20" x="192.041016"/>
      <use xlink:href="#DejaVuSans-41" x="223.828125"/>
      <use xlink:href="#DejaVuSans-63" x="290.486328"/>
      <use xlink:href="#DejaVuSans-63" x="345.466797"/>
     </g>
    </g>
   </g>
  </g>
 </g>
 <defs>
  <clipPath id="p1f0b714436">
   <rect x="46.965625" y="22.318125" width="558" height="217.44"/>
  </clipPath>
 </defs>
</svg>
