<?xml version="1.0" encoding="utf-8" standalone="no"?>
<!DOCTYPE svg PUBLIC "-//W3C//DTD SVG 1.1//EN"
  "http://www.w3.org/Graphics/SVG/1.1/DTD/svg11.dtd">
<!-- Created with matplotlib (https://matplotlib.org/) -->
<svg height="345.6pt" version="1.1" viewBox="0 0 460.8 345.6" width="460.8pt" xmlns="http://www.w3.org/2000/svg" xmlns:xlink="http://www.w3.org/1999/xlink">
 <defs>
  <style type="text/css">
*{stroke-linecap:butt;stroke-linejoin:round;}
  </style>
 </defs>
 <g id="figure_1">
  <g id="patch_1">
   <path d="M 0 345.6 
L 460.8 345.6 
L 460.8 0 
L 0 0 
z
" style="fill:#ffffff;"/>
  </g>
  <g id="axes_1">
   <g id="patch_2">
    <path d="M 57.6 307.584 
L 414.72 307.584 
L 414.72 41.472 
L 57.6 41.472 
z
" style="fill:#e5e5e5;"/>
   </g>
   <g id="matplotlib.axis_1">
    <g id="xtick_1">
     <g id="line2d_1">
      <path clip-path="url(#p1982a42c1c)" d="M 72.579235 307.584 
L 72.579235 41.472 
" style="fill:none;stroke:#ffffff;stroke-linecap:square;stroke-width:0.8;"/>
     </g>
     <g id="line2d_2">
      <defs>
       <path d="M 0 0 
L 0 3.5 
" id="mfb88f4fcea" style="stroke:#555555;stroke-width:0.8;"/>
      </defs>
      <g>
       <use style="fill:#555555;stroke:#555555;stroke-width:0.8;" x="72.579235" xlink:href="#mfb88f4fcea" y="307.584"/>
      </g>
     </g>
     <g id="text_1">
      <!-- 0 -->
      <defs>
       <path d="M 31.78125 66.40625 
Q 24.171875 66.40625 20.328125 58.90625 
Q 16.5 51.421875 16.5 36.375 
Q 16.5 21.390625 20.328125 13.890625 
Q 24.171875 6.390625 31.78125 6.390625 
Q 39.453125 6.390625 43.28125 13.890625 
Q 47.125 21.390625 47.125 36.375 
Q 47.125 51.421875 43.28125 58.90625 
Q 39.453125 66.40625 31.78125 66.40625 
z
M 31.78125 74.21875 
Q 44.046875 74.21875 50.515625 64.515625 
Q 56.984375 54.828125 56.984375 36.375 
Q 56.984375 17.96875 50.515625 8.265625 
Q 44.046875 -1.421875 31.78125 -1.421875 
Q 19.53125 -1.421875 13.0625 8.265625 
Q 6.59375 17.96875 6.59375 36.375 
Q 6.59375 54.828125 13.0625 64.515625 
Q 19.53125 74.21875 31.78125 74.21875 
z
" id="DejaVuSans-48"/>
      </defs>
      <g style="fill:#555555;" transform="translate(69.397985 322.182437)scale(0.1 -0.1)">
       <use xlink:href="#DejaVuSans-48"/>
      </g>
     </g>
    </g>
    <g id="xtick_2">
     <g id="line2d_3">
      <path clip-path="url(#p1982a42c1c)" d="M 114.362317 307.584 
L 114.362317 41.472 
" style="fill:none;stroke:#ffffff;stroke-linecap:square;stroke-width:0.8;"/>
     </g>
     <g id="line2d_4">
      <g>
       <use style="fill:#555555;stroke:#555555;stroke-width:0.8;" x="114.362317" xlink:href="#mfb88f4fcea" y="307.584"/>
      </g>
     </g>
     <g id="text_2">
      <!-- 1000 -->
      <defs>
       <path d="M 12.40625 8.296875 
L 28.515625 8.296875 
L 28.515625 63.921875 
L 10.984375 60.40625 
L 10.984375 69.390625 
L 28.421875 72.90625 
L 38.28125 72.90625 
L 38.28125 8.296875 
L 54.390625 8.296875 
L 54.390625 0 
L 12.40625 0 
z
" id="DejaVuSans-49"/>
      </defs>
      <g style="fill:#555555;" transform="translate(101.637317 322.182437)scale(0.1 -0.1)">
       <use xlink:href="#DejaVuSans-49"/>
       <use x="63.623047" xlink:href="#DejaVuSans-48"/>
       <use x="127.246094" xlink:href="#DejaVuSans-48"/>
       <use x="190.869141" xlink:href="#DejaVuSans-48"/>
      </g>
     </g>
    </g>
    <g id="xtick_3">
     <g id="line2d_5">
      <path clip-path="url(#p1982a42c1c)" d="M 156.145398 307.584 
L 156.145398 41.472 
" style="fill:none;stroke:#ffffff;stroke-linecap:square;stroke-width:0.8;"/>
     </g>
     <g id="line2d_6">
      <g>
       <use style="fill:#555555;stroke:#555555;stroke-width:0.8;" x="156.145398" xlink:href="#mfb88f4fcea" y="307.584"/>
      </g>
     </g>
     <g id="text_3">
      <!-- 2000 -->
      <defs>
       <path d="M 19.1875 8.296875 
L 53.609375 8.296875 
L 53.609375 0 
L 7.328125 0 
L 7.328125 8.296875 
Q 12.9375 14.109375 22.625 23.890625 
Q 32.328125 33.6875 34.8125 36.53125 
Q 39.546875 41.84375 41.421875 45.53125 
Q 43.3125 49.21875 43.3125 52.78125 
Q 43.3125 58.59375 39.234375 62.25 
Q 35.15625 65.921875 28.609375 65.921875 
Q 23.96875 65.921875 18.8125 64.3125 
Q 13.671875 62.703125 7.8125 59.421875 
L 7.8125 69.390625 
Q 13.765625 71.78125 18.9375 73 
Q 24.125 74.21875 28.421875 74.21875 
Q 39.75 74.21875 46.484375 68.546875 
Q 53.21875 62.890625 53.21875 53.421875 
Q 53.21875 48.921875 51.53125 44.890625 
Q 49.859375 40.875 45.40625 35.40625 
Q 44.1875 33.984375 37.640625 27.21875 
Q 31.109375 20.453125 19.1875 8.296875 
z
" id="DejaVuSans-50"/>
      </defs>
      <g style="fill:#555555;" transform="translate(143.420398 322.182437)scale(0.1 -0.1)">
       <use xlink:href="#DejaVuSans-50"/>
       <use x="63.623047" xlink:href="#DejaVuSans-48"/>
       <use x="127.246094" xlink:href="#DejaVuSans-48"/>
       <use x="190.869141" xlink:href="#DejaVuSans-48"/>
      </g>
     </g>
    </g>
    <g id="xtick_4">
     <g id="line2d_7">
      <path clip-path="url(#p1982a42c1c)" d="M 197.92848 307.584 
L 197.92848 41.472 
" style="fill:none;stroke:#ffffff;stroke-linecap:square;stroke-width:0.8;"/>
     </g>
     <g id="line2d_8">
      <g>
       <use style="fill:#555555;stroke:#555555;stroke-width:0.8;" x="197.92848" xlink:href="#mfb88f4fcea" y="307.584"/>
      </g>
     </g>
     <g id="text_4">
      <!-- 3000 -->
      <defs>
       <path d="M 40.578125 39.3125 
Q 47.65625 37.796875 51.625 33 
Q 55.609375 28.21875 55.609375 21.1875 
Q 55.609375 10.40625 48.1875 4.484375 
Q 40.765625 -1.421875 27.09375 -1.421875 
Q 22.515625 -1.421875 17.65625 -0.515625 
Q 12.796875 0.390625 7.625 2.203125 
L 7.625 11.71875 
Q 11.71875 9.328125 16.59375 8.109375 
Q 21.484375 6.890625 26.8125 6.890625 
Q 36.078125 6.890625 40.9375 10.546875 
Q 45.796875 14.203125 45.796875 21.1875 
Q 45.796875 27.640625 41.28125 31.265625 
Q 36.765625 34.90625 28.71875 34.90625 
L 20.21875 34.90625 
L 20.21875 43.015625 
L 29.109375 43.015625 
Q 36.375 43.015625 40.234375 45.921875 
Q 44.09375 48.828125 44.09375 54.296875 
Q 44.09375 59.90625 40.109375 62.90625 
Q 36.140625 65.921875 28.71875 65.921875 
Q 24.65625 65.921875 20.015625 65.03125 
Q 15.375 64.15625 9.8125 62.3125 
L 9.8125 71.09375 
Q 15.4375 72.65625 20.34375 73.4375 
Q 25.25 74.21875 29.59375 74.21875 
Q 40.828125 74.21875 47.359375 69.109375 
Q 53.90625 64.015625 53.90625 55.328125 
Q 53.90625 49.265625 50.4375 45.09375 
Q 46.96875 40.921875 40.578125 39.3125 
z
" id="DejaVuSans-51"/>
      </defs>
      <g style="fill:#555555;" transform="translate(185.20348 322.182437)scale(0.1 -0.1)">
       <use xlink:href="#DejaVuSans-51"/>
       <use x="63.623047" xlink:href="#DejaVuSans-48"/>
       <use x="127.246094" xlink:href="#DejaVuSans-48"/>
       <use x="190.869141" xlink:href="#DejaVuSans-48"/>
      </g>
     </g>
    </g>
    <g id="xtick_5">
     <g id="line2d_9">
      <path clip-path="url(#p1982a42c1c)" d="M 239.711562 307.584 
L 239.711562 41.472 
" style="fill:none;stroke:#ffffff;stroke-linecap:square;stroke-width:0.8;"/>
     </g>
     <g id="line2d_10">
      <g>
       <use style="fill:#555555;stroke:#555555;stroke-width:0.8;" x="239.711562" xlink:href="#mfb88f4fcea" y="307.584"/>
      </g>
     </g>
     <g id="text_5">
      <!-- 4000 -->
      <defs>
       <path d="M 37.796875 64.3125 
L 12.890625 25.390625 
L 37.796875 25.390625 
z
M 35.203125 72.90625 
L 47.609375 72.90625 
L 47.609375 25.390625 
L 58.015625 25.390625 
L 58.015625 17.1875 
L 47.609375 17.1875 
L 47.609375 0 
L 37.796875 0 
L 37.796875 17.1875 
L 4.890625 17.1875 
L 4.890625 26.703125 
z
" id="DejaVuSans-52"/>
      </defs>
      <g style="fill:#555555;" transform="translate(226.986562 322.182437)scale(0.1 -0.1)">
       <use xlink:href="#DejaVuSans-52"/>
       <use x="63.623047" xlink:href="#DejaVuSans-48"/>
       <use x="127.246094" xlink:href="#DejaVuSans-48"/>
       <use x="190.869141" xlink:href="#DejaVuSans-48"/>
      </g>
     </g>
    </g>
    <g id="xtick_6">
     <g id="line2d_11">
      <path clip-path="url(#p1982a42c1c)" d="M 281.494644 307.584 
L 281.494644 41.472 
" style="fill:none;stroke:#ffffff;stroke-linecap:square;stroke-width:0.8;"/>
     </g>
     <g id="line2d_12">
      <g>
       <use style="fill:#555555;stroke:#555555;stroke-width:0.8;" x="281.494644" xlink:href="#mfb88f4fcea" y="307.584"/>
      </g>
     </g>
     <g id="text_6">
      <!-- 5000 -->
      <defs>
       <path d="M 10.796875 72.90625 
L 49.515625 72.90625 
L 49.515625 64.59375 
L 19.828125 64.59375 
L 19.828125 46.734375 
Q 21.96875 47.46875 24.109375 47.828125 
Q 26.265625 48.1875 28.421875 48.1875 
Q 40.625 48.1875 47.75 41.5 
Q 54.890625 34.8125 54.890625 23.390625 
Q 54.890625 11.625 47.5625 5.09375 
Q 40.234375 -1.421875 26.90625 -1.421875 
Q 22.3125 -1.421875 17.546875 -0.640625 
Q 12.796875 0.140625 7.71875 1.703125 
L 7.71875 11.625 
Q 12.109375 9.234375 16.796875 8.0625 
Q 21.484375 6.890625 26.703125 6.890625 
Q 35.15625 6.890625 40.078125 11.328125 
Q 45.015625 15.765625 45.015625 23.390625 
Q 45.015625 31 40.078125 35.4375 
Q 35.15625 39.890625 26.703125 39.890625 
Q 22.75 39.890625 18.8125 39.015625 
Q 14.890625 38.140625 10.796875 36.28125 
z
" id="DejaVuSans-53"/>
      </defs>
      <g style="fill:#555555;" transform="translate(268.769644 322.182437)scale(0.1 -0.1)">
       <use xlink:href="#DejaVuSans-53"/>
       <use x="63.623047" xlink:href="#DejaVuSans-48"/>
       <use x="127.246094" xlink:href="#DejaVuSans-48"/>
       <use x="190.869141" xlink:href="#DejaVuSans-48"/>
      </g>
     </g>
    </g>
    <g id="xtick_7">
     <g id="line2d_13">
      <path clip-path="url(#p1982a42c1c)" d="M 323.277726 307.584 
L 323.277726 41.472 
" style="fill:none;stroke:#ffffff;stroke-linecap:square;stroke-width:0.8;"/>
     </g>
     <g id="line2d_14">
      <g>
       <use style="fill:#555555;stroke:#555555;stroke-width:0.8;" x="323.277726" xlink:href="#mfb88f4fcea" y="307.584"/>
      </g>
     </g>
     <g id="text_7">
      <!-- 6000 -->
      <defs>
       <path d="M 33.015625 40.375 
Q 26.375 40.375 22.484375 35.828125 
Q 18.609375 31.296875 18.609375 23.390625 
Q 18.609375 15.53125 22.484375 10.953125 
Q 26.375 6.390625 33.015625 6.390625 
Q 39.65625 6.390625 43.53125 10.953125 
Q 47.40625 15.53125 47.40625 23.390625 
Q 47.40625 31.296875 43.53125 35.828125 
Q 39.65625 40.375 33.015625 40.375 
z
M 52.59375 71.296875 
L 52.59375 62.3125 
Q 48.875 64.0625 45.09375 64.984375 
Q 41.3125 65.921875 37.59375 65.921875 
Q 27.828125 65.921875 22.671875 59.328125 
Q 17.53125 52.734375 16.796875 39.40625 
Q 19.671875 43.65625 24.015625 45.921875 
Q 28.375 48.1875 33.59375 48.1875 
Q 44.578125 48.1875 50.953125 41.515625 
Q 57.328125 34.859375 57.328125 23.390625 
Q 57.328125 12.15625 50.6875 5.359375 
Q 44.046875 -1.421875 33.015625 -1.421875 
Q 20.359375 -1.421875 13.671875 8.265625 
Q 6.984375 17.96875 6.984375 36.375 
Q 6.984375 53.65625 15.1875 63.9375 
Q 23.390625 74.21875 37.203125 74.21875 
Q 40.921875 74.21875 44.703125 73.484375 
Q 48.484375 72.75 52.59375 71.296875 
z
" id="DejaVuSans-54"/>
      </defs>
      <g style="fill:#555555;" transform="translate(310.552726 322.182437)scale(0.1 -0.1)">
       <use xlink:href="#DejaVuSans-54"/>
       <use x="63.623047" xlink:href="#DejaVuSans-48"/>
       <use x="127.246094" xlink:href="#DejaVuSans-48"/>
       <use x="190.869141" xlink:href="#DejaVuSans-48"/>
      </g>
     </g>
    </g>
    <g id="xtick_8">
     <g id="line2d_15">
      <path clip-path="url(#p1982a42c1c)" d="M 365.060807 307.584 
L 365.060807 41.472 
" style="fill:none;stroke:#ffffff;stroke-linecap:square;stroke-width:0.8;"/>
     </g>
     <g id="line2d_16">
      <g>
       <use style="fill:#555555;stroke:#555555;stroke-width:0.8;" x="365.060807" xlink:href="#mfb88f4fcea" y="307.584"/>
      </g>
     </g>
     <g id="text_8">
      <!-- 7000 -->
      <defs>
       <path d="M 8.203125 72.90625 
L 55.078125 72.90625 
L 55.078125 68.703125 
L 28.609375 0 
L 18.3125 0 
L 43.21875 64.59375 
L 8.203125 64.59375 
z
" id="DejaVuSans-55"/>
      </defs>
      <g style="fill:#555555;" transform="translate(352.335807 322.182437)scale(0.1 -0.1)">
       <use xlink:href="#DejaVuSans-55"/>
       <use x="63.623047" xlink:href="#DejaVuSans-48"/>
       <use x="127.246094" xlink:href="#DejaVuSans-48"/>
       <use x="190.869141" xlink:href="#DejaVuSans-48"/>
      </g>
     </g>
    </g>
    <g id="text_9">
     <!-- Steps -->
     <defs>
      <path d="M 53.515625 70.515625 
L 53.515625 60.890625 
Q 47.90625 63.578125 42.921875 64.890625 
Q 37.9375 66.21875 33.296875 66.21875 
Q 25.25 66.21875 20.875 63.09375 
Q 16.5 59.96875 16.5 54.203125 
Q 16.5 49.359375 19.40625 46.890625 
Q 22.3125 44.4375 30.421875 42.921875 
L 36.375 41.703125 
Q 47.40625 39.59375 52.65625 34.296875 
Q 57.90625 29 57.90625 20.125 
Q 57.90625 9.515625 50.796875 4.046875 
Q 43.703125 -1.421875 29.984375 -1.421875 
Q 24.8125 -1.421875 18.96875 -0.25 
Q 13.140625 0.921875 6.890625 3.21875 
L 6.890625 13.375 
Q 12.890625 10.015625 18.65625 8.296875 
Q 24.421875 6.59375 29.984375 6.59375 
Q 38.421875 6.59375 43.015625 9.90625 
Q 47.609375 13.234375 47.609375 19.390625 
Q 47.609375 24.75 44.3125 27.78125 
Q 41.015625 30.8125 33.5 32.328125 
L 27.484375 33.5 
Q 16.453125 35.6875 11.515625 40.375 
Q 6.59375 45.0625 6.59375 53.421875 
Q 6.59375 63.09375 13.40625 68.65625 
Q 20.21875 74.21875 32.171875 74.21875 
Q 37.3125 74.21875 42.625 73.28125 
Q 47.953125 72.359375 53.515625 70.515625 
z
" id="DejaVuSans-83"/>
      <path d="M 18.3125 70.21875 
L 18.3125 54.6875 
L 36.8125 54.6875 
L 36.8125 47.703125 
L 18.3125 47.703125 
L 18.3125 18.015625 
Q 18.3125 11.328125 20.140625 9.421875 
Q 21.96875 7.515625 27.59375 7.515625 
L 36.8125 7.515625 
L 36.8125 0 
L 27.59375 0 
Q 17.1875 0 13.234375 3.875 
Q 9.28125 7.765625 9.28125 18.015625 
L 9.28125 47.703125 
L 2.6875 47.703125 
L 2.6875 54.6875 
L 9.28125 54.6875 
L 9.28125 70.21875 
z
" id="DejaVuSans-116"/>
      <path d="M 56.203125 29.59375 
L 56.203125 25.203125 
L 14.890625 25.203125 
Q 15.484375 15.921875 20.484375 11.0625 
Q 25.484375 6.203125 34.421875 6.203125 
Q 39.59375 6.203125 44.453125 7.46875 
Q 49.3125 8.734375 54.109375 11.28125 
L 54.109375 2.78125 
Q 49.265625 0.734375 44.1875 -0.34375 
Q 39.109375 -1.421875 33.890625 -1.421875 
Q 20.796875 -1.421875 13.15625 6.1875 
Q 5.515625 13.8125 5.515625 26.8125 
Q 5.515625 40.234375 12.765625 48.109375 
Q 20.015625 56 32.328125 56 
Q 43.359375 56 49.78125 48.890625 
Q 56.203125 41.796875 56.203125 29.59375 
z
M 47.21875 32.234375 
Q 47.125 39.59375 43.09375 43.984375 
Q 39.0625 48.390625 32.421875 48.390625 
Q 24.90625 48.390625 20.390625 44.140625 
Q 15.875 39.890625 15.1875 32.171875 
z
" id="DejaVuSans-101"/>
      <path d="M 18.109375 8.203125 
L 18.109375 -20.796875 
L 9.078125 -20.796875 
L 9.078125 54.6875 
L 18.109375 54.6875 
L 18.109375 46.390625 
Q 20.953125 51.265625 25.265625 53.625 
Q 29.59375 56 35.59375 56 
Q 45.5625 56 51.78125 48.09375 
Q 58.015625 40.1875 58.015625 27.296875 
Q 58.015625 14.40625 51.78125 6.484375 
Q 45.5625 -1.421875 35.59375 -1.421875 
Q 29.59375 -1.421875 25.265625 0.953125 
Q 20.953125 3.328125 18.109375 8.203125 
z
M 48.6875 27.296875 
Q 48.6875 37.203125 44.609375 42.84375 
Q 40.53125 48.484375 33.40625 48.484375 
Q 26.265625 48.484375 22.1875 42.84375 
Q 18.109375 37.203125 18.109375 27.296875 
Q 18.109375 17.390625 22.1875 11.75 
Q 26.265625 6.109375 33.40625 6.109375 
Q 40.53125 6.109375 44.609375 11.75 
Q 48.6875 17.390625 48.6875 27.296875 
z
" id="DejaVuSans-112"/>
      <path d="M 44.28125 53.078125 
L 44.28125 44.578125 
Q 40.484375 46.53125 36.375 47.5 
Q 32.28125 48.484375 27.875 48.484375 
Q 21.1875 48.484375 17.84375 46.4375 
Q 14.5 44.390625 14.5 40.28125 
Q 14.5 37.15625 16.890625 35.375 
Q 19.28125 33.59375 26.515625 31.984375 
L 29.59375 31.296875 
Q 39.15625 29.25 43.1875 25.515625 
Q 47.21875 21.78125 47.21875 15.09375 
Q 47.21875 7.46875 41.1875 3.015625 
Q 35.15625 -1.421875 24.609375 -1.421875 
Q 20.21875 -1.421875 15.453125 -0.5625 
Q 10.6875 0.296875 5.421875 2 
L 5.421875 11.28125 
Q 10.40625 8.6875 15.234375 7.390625 
Q 20.0625 6.109375 24.8125 6.109375 
Q 31.15625 6.109375 34.5625 8.28125 
Q 37.984375 10.453125 37.984375 14.40625 
Q 37.984375 18.0625 35.515625 20.015625 
Q 33.0625 21.96875 24.703125 23.78125 
L 21.578125 24.515625 
Q 13.234375 26.265625 9.515625 29.90625 
Q 5.8125 33.546875 5.8125 39.890625 
Q 5.8125 47.609375 11.28125 51.796875 
Q 16.75 56 26.8125 56 
Q 31.78125 56 36.171875 55.265625 
Q 40.578125 54.546875 44.28125 53.078125 
z
" id="DejaVuSans-115"/>
     </defs>
     <g style="fill:#555555;" transform="translate(219.372187 337.38025)scale(0.12 -0.12)">
      <use xlink:href="#DejaVuSans-83"/>
      <use x="63.476562" xlink:href="#DejaVuSans-116"/>
      <use x="102.685547" xlink:href="#DejaVuSans-101"/>
      <use x="164.208984" xlink:href="#DejaVuSans-112"/>
      <use x="227.685547" xlink:href="#DejaVuSans-115"/>
     </g>
    </g>
   </g>
   <g id="matplotlib.axis_2">
    <g id="ytick_1">
     <g id="line2d_17">
      <path clip-path="url(#p1982a42c1c)" d="M 57.6 295.488 
L 414.72 295.488 
" style="fill:none;stroke:#ffffff;stroke-linecap:square;stroke-width:0.8;"/>
     </g>
     <g id="line2d_18">
      <defs>
       <path d="M 0 0 
L -3.5 0 
" id="m1d61f9d462" style="stroke:#555555;stroke-width:0.8;"/>
      </defs>
      <g>
       <use style="fill:#555555;stroke:#555555;stroke-width:0.8;" x="57.6" xlink:href="#m1d61f9d462" y="295.488"/>
      </g>
     </g>
     <g id="text_10">
      <!-- 0 -->
      <g style="fill:#555555;" transform="translate(44.2375 299.287219)scale(0.1 -0.1)">
       <use xlink:href="#DejaVuSans-48"/>
      </g>
     </g>
    </g>
    <g id="ytick_2">
     <g id="line2d_19">
      <path clip-path="url(#p1982a42c1c)" d="M 57.6 251.491518 
L 414.72 251.491518 
" style="fill:none;stroke:#ffffff;stroke-linecap:square;stroke-width:0.8;"/>
     </g>
     <g id="line2d_20">
      <g>
       <use style="fill:#555555;stroke:#555555;stroke-width:0.8;" x="57.6" xlink:href="#m1d61f9d462" y="251.491518"/>
      </g>
     </g>
     <g id="text_11">
      <!-- 2 -->
      <g style="fill:#555555;" transform="translate(44.2375 255.290737)scale(0.1 -0.1)">
       <use xlink:href="#DejaVuSans-50"/>
      </g>
     </g>
    </g>
    <g id="ytick_3">
     <g id="line2d_21">
      <path clip-path="url(#p1982a42c1c)" d="M 57.6 207.495036 
L 414.72 207.495036 
" style="fill:none;stroke:#ffffff;stroke-linecap:square;stroke-width:0.8;"/>
     </g>
     <g id="line2d_22">
      <g>
       <use style="fill:#555555;stroke:#555555;stroke-width:0.8;" x="57.6" xlink:href="#m1d61f9d462" y="207.495036"/>
      </g>
     </g>
     <g id="text_12">
      <!-- 4 -->
      <g style="fill:#555555;" transform="translate(44.2375 211.294255)scale(0.1 -0.1)">
       <use xlink:href="#DejaVuSans-52"/>
      </g>
     </g>
    </g>
    <g id="ytick_4">
     <g id="line2d_23">
      <path clip-path="url(#p1982a42c1c)" d="M 57.6 163.498554 
L 414.72 163.498554 
" style="fill:none;stroke:#ffffff;stroke-linecap:square;stroke-width:0.8;"/>
     </g>
     <g id="line2d_24">
      <g>
       <use style="fill:#555555;stroke:#555555;stroke-width:0.8;" x="57.6" xlink:href="#m1d61f9d462" y="163.498554"/>
      </g>
     </g>
     <g id="text_13">
      <!-- 6 -->
      <g style="fill:#555555;" transform="translate(44.2375 167.297773)scale(0.1 -0.1)">
       <use xlink:href="#DejaVuSans-54"/>
      </g>
     </g>
    </g>
    <g id="ytick_5">
     <g id="line2d_25">
      <path clip-path="url(#p1982a42c1c)" d="M 57.6 119.502072 
L 414.72 119.502072 
" style="fill:none;stroke:#ffffff;stroke-linecap:square;stroke-width:0.8;"/>
     </g>
     <g id="line2d_26">
      <g>
       <use style="fill:#555555;stroke:#555555;stroke-width:0.8;" x="57.6" xlink:href="#m1d61f9d462" y="119.502072"/>
      </g>
     </g>
     <g id="text_14">
      <!-- 8 -->
      <defs>
       <path d="M 31.78125 34.625 
Q 24.75 34.625 20.71875 30.859375 
Q 16.703125 27.09375 16.703125 20.515625 
Q 16.703125 13.921875 20.71875 10.15625 
Q 24.75 6.390625 31.78125 6.390625 
Q 38.8125 6.390625 42.859375 10.171875 
Q 46.921875 13.96875 46.921875 20.515625 
Q 46.921875 27.09375 42.890625 30.859375 
Q 38.875 34.625 31.78125 34.625 
z
M 21.921875 38.8125 
Q 15.578125 40.375 12.03125 44.71875 
Q 8.5 49.078125 8.5 55.328125 
Q 8.5 64.0625 14.71875 69.140625 
Q 20.953125 74.21875 31.78125 74.21875 
Q 42.671875 74.21875 48.875 69.140625 
Q 55.078125 64.0625 55.078125 55.328125 
Q 55.078125 49.078125 51.53125 44.71875 
Q 48 40.375 41.703125 38.8125 
Q 48.828125 37.15625 52.796875 32.3125 
Q 56.78125 27.484375 56.78125 20.515625 
Q 56.78125 9.90625 50.3125 4.234375 
Q 43.84375 -1.421875 31.78125 -1.421875 
Q 19.734375 -1.421875 13.25 4.234375 
Q 6.78125 9.90625 6.78125 20.515625 
Q 6.78125 27.484375 10.78125 32.3125 
Q 14.796875 37.15625 21.921875 38.8125 
z
M 18.3125 54.390625 
Q 18.3125 48.734375 21.84375 45.5625 
Q 25.390625 42.390625 31.78125 42.390625 
Q 38.140625 42.390625 41.71875 45.5625 
Q 45.3125 48.734375 45.3125 54.390625 
Q 45.3125 60.0625 41.71875 63.234375 
Q 38.140625 66.40625 31.78125 66.40625 
Q 25.390625 66.40625 21.84375 63.234375 
Q 18.3125 60.0625 18.3125 54.390625 
z
" id="DejaVuSans-56"/>
      </defs>
      <g style="fill:#555555;" transform="translate(44.2375 123.301291)scale(0.1 -0.1)">
       <use xlink:href="#DejaVuSans-56"/>
      </g>
     </g>
    </g>
    <g id="ytick_6">
     <g id="line2d_27">
      <path clip-path="url(#p1982a42c1c)" d="M 57.6 75.50559 
L 414.72 75.50559 
" style="fill:none;stroke:#ffffff;stroke-linecap:square;stroke-width:0.8;"/>
     </g>
     <g id="line2d_28">
      <g>
       <use style="fill:#555555;stroke:#555555;stroke-width:0.8;" x="57.6" xlink:href="#m1d61f9d462" y="75.50559"/>
      </g>
     </g>
     <g id="text_15">
      <!-- 10 -->
      <g style="fill:#555555;" transform="translate(37.875 79.304809)scale(0.1 -0.1)">
       <use xlink:href="#DejaVuSans-49"/>
       <use x="63.623047" xlink:href="#DejaVuSans-48"/>
      </g>
     </g>
    </g>
    <g id="text_16">
     <!-- Gradient distance -->
     <defs>
      <path d="M 59.515625 10.40625 
L 59.515625 29.984375 
L 43.40625 29.984375 
L 43.40625 38.09375 
L 69.28125 38.09375 
L 69.28125 6.78125 
Q 63.578125 2.734375 56.6875 0.65625 
Q 49.8125 -1.421875 42 -1.421875 
Q 24.90625 -1.421875 15.25 8.5625 
Q 5.609375 18.5625 5.609375 36.375 
Q 5.609375 54.25 15.25 64.234375 
Q 24.90625 74.21875 42 74.21875 
Q 49.125 74.21875 55.546875 72.453125 
Q 61.96875 70.703125 67.390625 67.28125 
L 67.390625 56.78125 
Q 61.921875 61.421875 55.765625 63.765625 
Q 49.609375 66.109375 42.828125 66.109375 
Q 29.4375 66.109375 22.71875 58.640625 
Q 16.015625 51.171875 16.015625 36.375 
Q 16.015625 21.625 22.71875 14.15625 
Q 29.4375 6.6875 42.828125 6.6875 
Q 48.046875 6.6875 52.140625 7.59375 
Q 56.25 8.5 59.515625 10.40625 
z
" id="DejaVuSans-71"/>
      <path d="M 41.109375 46.296875 
Q 39.59375 47.171875 37.8125 47.578125 
Q 36.03125 48 33.890625 48 
Q 26.265625 48 22.1875 43.046875 
Q 18.109375 38.09375 18.109375 28.8125 
L 18.109375 0 
L 9.078125 0 
L 9.078125 54.6875 
L 18.109375 54.6875 
L 18.109375 46.1875 
Q 20.953125 51.171875 25.484375 53.578125 
Q 30.03125 56 36.53125 56 
Q 37.453125 56 38.578125 55.875 
Q 39.703125 55.765625 41.0625 55.515625 
z
" id="DejaVuSans-114"/>
      <path d="M 34.28125 27.484375 
Q 23.390625 27.484375 19.1875 25 
Q 14.984375 22.515625 14.984375 16.5 
Q 14.984375 11.71875 18.140625 8.90625 
Q 21.296875 6.109375 26.703125 6.109375 
Q 34.1875 6.109375 38.703125 11.40625 
Q 43.21875 16.703125 43.21875 25.484375 
L 43.21875 27.484375 
z
M 52.203125 31.203125 
L 52.203125 0 
L 43.21875 0 
L 43.21875 8.296875 
Q 40.140625 3.328125 35.546875 0.953125 
Q 30.953125 -1.421875 24.3125 -1.421875 
Q 15.921875 -1.421875 10.953125 3.296875 
Q 6 8.015625 6 15.921875 
Q 6 25.140625 12.171875 29.828125 
Q 18.359375 34.515625 30.609375 34.515625 
L 43.21875 34.515625 
L 43.21875 35.40625 
Q 43.21875 41.609375 39.140625 45 
Q 35.0625 48.390625 27.6875 48.390625 
Q 23 48.390625 18.546875 47.265625 
Q 14.109375 46.140625 10.015625 43.890625 
L 10.015625 52.203125 
Q 14.9375 54.109375 19.578125 55.046875 
Q 24.21875 56 28.609375 56 
Q 40.484375 56 46.34375 49.84375 
Q 52.203125 43.703125 52.203125 31.203125 
z
" id="DejaVuSans-97"/>
      <path d="M 45.40625 46.390625 
L 45.40625 75.984375 
L 54.390625 75.984375 
L 54.390625 0 
L 45.40625 0 
L 45.40625 8.203125 
Q 42.578125 3.328125 38.25 0.953125 
Q 33.9375 -1.421875 27.875 -1.421875 
Q 17.96875 -1.421875 11.734375 6.484375 
Q 5.515625 14.40625 5.515625 27.296875 
Q 5.515625 40.1875 11.734375 48.09375 
Q 17.96875 56 27.875 56 
Q 33.9375 56 38.25 53.625 
Q 42.578125 51.265625 45.40625 46.390625 
z
M 14.796875 27.296875 
Q 14.796875 17.390625 18.875 11.75 
Q 22.953125 6.109375 30.078125 6.109375 
Q 37.203125 6.109375 41.296875 11.75 
Q 45.40625 17.390625 45.40625 27.296875 
Q 45.40625 37.203125 41.296875 42.84375 
Q 37.203125 48.484375 30.078125 48.484375 
Q 22.953125 48.484375 18.875 42.84375 
Q 14.796875 37.203125 14.796875 27.296875 
z
" id="DejaVuSans-100"/>
      <path d="M 9.421875 54.6875 
L 18.40625 54.6875 
L 18.40625 0 
L 9.421875 0 
z
M 9.421875 75.984375 
L 18.40625 75.984375 
L 18.40625 64.59375 
L 9.421875 64.59375 
z
" id="DejaVuSans-105"/>
      <path d="M 54.890625 33.015625 
L 54.890625 0 
L 45.90625 0 
L 45.90625 32.71875 
Q 45.90625 40.484375 42.875 44.328125 
Q 39.84375 48.1875 33.796875 48.1875 
Q 26.515625 48.1875 22.3125 43.546875 
Q 18.109375 38.921875 18.109375 30.90625 
L 18.109375 0 
L 9.078125 0 
L 9.078125 54.6875 
L 18.109375 54.6875 
L 18.109375 46.1875 
Q 21.34375 51.125 25.703125 53.5625 
Q 30.078125 56 35.796875 56 
Q 45.21875 56 50.046875 50.171875 
Q 54.890625 44.34375 54.890625 33.015625 
z
" id="DejaVuSans-110"/>
      <path id="DejaVuSans-32"/>
      <path d="M 48.78125 52.59375 
L 48.78125 44.1875 
Q 44.96875 46.296875 41.140625 47.34375 
Q 37.3125 48.390625 33.40625 48.390625 
Q 24.65625 48.390625 19.8125 42.84375 
Q 14.984375 37.3125 14.984375 27.296875 
Q 14.984375 17.28125 19.8125 11.734375 
Q 24.65625 6.203125 33.40625 6.203125 
Q 37.3125 6.203125 41.140625 7.25 
Q 44.96875 8.296875 48.78125 10.40625 
L 48.78125 2.09375 
Q 45.015625 0.34375 40.984375 -0.53125 
Q 36.96875 -1.421875 32.421875 -1.421875 
Q 20.0625 -1.421875 12.78125 6.34375 
Q 5.515625 14.109375 5.515625 27.296875 
Q 5.515625 40.671875 12.859375 48.328125 
Q 20.21875 56 33.015625 56 
Q 37.15625 56 41.109375 55.140625 
Q 45.0625 54.296875 48.78125 52.59375 
z
" id="DejaVuSans-99"/>
     </defs>
     <g style="fill:#555555;" transform="translate(31.379375 227.973937)rotate(-90)scale(0.12 -0.12)">
      <use xlink:href="#DejaVuSans-71"/>
      <use x="77.490234" xlink:href="#DejaVuSans-114"/>
      <use x="118.603516" xlink:href="#DejaVuSans-97"/>
      <use x="179.882812" xlink:href="#DejaVuSans-100"/>
      <use x="243.359375" xlink:href="#DejaVuSans-105"/>
      <use x="271.142578" xlink:href="#DejaVuSans-101"/>
      <use x="332.666016" xlink:href="#DejaVuSans-110"/>
      <use x="396.044922" xlink:href="#DejaVuSans-116"/>
      <use x="435.253906" xlink:href="#DejaVuSans-32"/>
      <use x="467.041016" xlink:href="#DejaVuSans-100"/>
      <use x="530.517578" xlink:href="#DejaVuSans-105"/>
      <use x="558.300781" xlink:href="#DejaVuSans-115"/>
      <use x="610.400391" xlink:href="#DejaVuSans-116"/>
      <use x="649.609375" xlink:href="#DejaVuSans-97"/>
      <use x="710.888672" xlink:href="#DejaVuSans-110"/>
      <use x="774.267578" xlink:href="#DejaVuSans-99"/>
      <use x="829.248047" xlink:href="#DejaVuSans-101"/>
     </g>
    </g>
   </g>
   <g id="PolyCollection_1">
    <defs>
     <path d="M 73.832727 -50.374408 
L 73.832727 -54.109822 
L 75.08622 -54.175139 
L 76.339712 -71.151137 
L 77.593205 -78.492699 
L 78.846697 -108.525186 
L 80.10019 -142.407988 
L 81.353682 -89.340887 
L 82.607174 -108.19661 
L 83.860667 -122.395776 
L 85.114159 -118.251962 
L 86.367652 -107.786756 
L 87.621144 -118.215097 
L 88.874637 -129.180263 
L 90.128129 -122.819838 
L 91.381622 -111.030664 
L 92.635114 -145.352539 
L 93.888607 -141.8831 
L 95.142099 -163.535521 
L 96.395591 -153.162702 
L 97.649084 -166.832563 
L 98.902576 -125.62193 
L 100.156069 -144.740587 
L 101.409561 -178.987793 
L 102.663054 -126.906075 
L 103.916546 -169.15119 
L 105.170039 -149.714735 
L 106.423531 -197.326041 
L 107.677024 -139.88707 
L 108.930516 -140.296866 
L 110.184008 -144.577223 
L 111.437501 -171.482698 
L 112.690993 -172.15636 
L 113.944486 -168.420895 
L 115.197978 -156.461202 
L 116.451471 -147.803261 
L 117.704963 -175.133869 
L 118.958456 -165.937456 
L 120.211948 -159.553415 
L 121.465441 -235.423667 
L 122.718933 -210.163167 
L 123.972425 -163.328666 
L 125.225918 -164.160784 
L 126.47941 -198.836834 
L 127.732903 -232.359661 
L 128.986395 -207.461177 
L 130.239888 -167.022225 
L 131.49338 -161.498172 
L 132.746873 -143.104664 
L 134.000365 -138.386724 
L 135.253857 -145.913553 
L 136.50735 -163.229676 
L 137.760842 -175.922161 
L 139.014335 -131.580687 
L 140.267827 -181.496753 
L 141.52132 -144.285843 
L 142.774812 -142.746309 
L 144.028305 -190.66089 
L 145.281797 -167.605866 
L 146.53529 -152.855147 
L 147.788782 -158.497261 
L 149.042274 -173.880427 
L 150.295767 -150.825613 
L 151.549259 -169.896276 
L 152.802752 -160.995826 
L 154.056244 -166.709982 
L 155.309737 -165.240046 
L 156.563229 -177.404716 
L 157.816722 -151.04217 
L 159.070214 -214.733235 
L 160.323707 -152.610887 
L 161.577199 -187.496173 
L 162.830691 -192.652158 
L 164.084184 -151.865854 
L 165.337676 -190.34079 
L 166.591169 -179.226179 
L 167.844661 -170.979188 
L 169.098154 -140.34023 
L 170.351646 -152.648586 
L 171.605139 -193.300298 
L 172.858631 -155.53943 
L 174.112124 -166.33928 
L 175.365616 -163.785509 
L 176.619108 -164.541167 
L 177.872601 -161.435214 
L 179.126093 -214.368586 
L 180.379586 -164.759571 
L 181.633078 -168.211062 
L 182.886571 -162.591805 
L 184.140063 -175.832087 
L 185.393556 -139.321577 
L 186.647048 -160.573337 
L 187.900541 -230.059003 
L 189.154033 -147.299405 
L 190.407525 -139.110191 
L 191.661018 -165.357561 
L 192.91451 -159.670877 
L 194.168003 -151.595737 
L 195.421495 -214.607601 
L 196.674988 -170.468566 
L 197.92848 -152.084331 
L 199.181973 -183.605589 
L 200.435465 -178.377226 
L 201.688958 -168.667684 
L 202.94245 -173.472488 
L 204.195942 -222.269798 
L 205.449435 -143.469786 
L 206.702927 -174.125328 
L 207.95642 -169.127253 
L 209.209912 -267.679981 
L 210.463405 -237.955243 
L 211.716897 -158.82935 
L 212.97039 -179.995275 
L 214.223882 -219.618179 
L 215.477375 -176.829216 
L 216.730867 -134.276519 
L 217.984359 -182.493011 
L 219.237852 -181.82493 
L 220.491344 -186.22427 
L 221.744837 -185.676022 
L 222.998329 -204.891052 
L 224.251822 -179.965935 
L 225.505314 -158.374281 
L 226.758807 -160.121876 
L 228.012299 -148.878558 
L 229.265792 -195.438631 
L 230.519284 -190.988049 
L 231.772776 -167.086967 
L 233.026269 -248.399695 
L 234.279761 -165.256829 
L 235.533254 -161.871129 
L 236.786746 -159.192867 
L 238.040239 -168.650481 
L 239.293731 -169.55677 
L 240.547224 -225.999578 
L 241.800716 -148.511455 
L 243.054208 -144.299396 
L 244.307701 -205.918171 
L 245.561193 -228.524482 
L 246.814686 -195.4939 
L 248.068178 -243.841302 
L 249.321671 -159.220287 
L 250.575163 -221.725483 
L 251.828656 -154.466577 
L 253.082148 -168.732709 
L 254.335641 -263.658004 
L 255.589133 -258.163521 
L 256.842625 -137.69896 
L 258.096118 -193.457569 
L 259.34961 -165.95897 
L 260.603103 -225.637572 
L 261.856595 -181.270514 
L 263.110088 -159.883689 
L 264.36358 -229.782707 
L 265.617073 -225.579082 
L 266.870565 -178.292774 
L 268.124058 -193.48353 
L 269.37755 -175.236908 
L 270.631042 -292.032 
L 271.884535 -177.944363 
L 273.138027 -188.951361 
L 274.39152 -173.764203 
L 275.645012 -195.063093 
L 276.898505 -145.301633 
L 278.151997 -230.343123 
L 279.40549 -150.00129 
L 280.658982 -168.806503 
L 281.912475 -174.309094 
L 283.165967 -177.260421 
L 284.419459 -180.554306 
L 285.672952 -144.240791 
L 286.926444 -172.975449 
L 288.179937 -168.727925 
L 289.433429 -160.370616 
L 290.686922 -153.822633 
L 291.940414 -196.614712 
L 293.193907 -159.804168 
L 294.447399 -207.75306 
L 295.700892 -221.523485 
L 296.954384 -231.708531 
L 298.207876 -176.169096 
L 299.461369 -163.353327 
L 300.714861 -180.805857 
L 301.968354 -143.562408 
L 303.221846 -251.702822 
L 304.475339 -154.405213 
L 305.728831 -175.447277 
L 306.982324 -168.212058 
L 308.235816 -145.62745 
L 309.489309 -147.839408 
L 310.742801 -194.989593 
L 311.996293 -166.308347 
L 313.249786 -200.464786 
L 314.503278 -154.466514 
L 315.756771 -198.930475 
L 317.010263 -167.263098 
L 318.263756 -142.977436 
L 319.517248 -171.901652 
L 320.770741 -160.077338 
L 322.024233 -185.870824 
L 323.277726 -131.208575 
L 324.531218 -157.463922 
L 325.78471 -132.987833 
L 327.038203 -181.748377 
L 328.291695 -188.085079 
L 329.545188 -199.60463 
L 330.79868 -216.526198 
L 332.052173 -191.70432 
L 333.305665 -159.628111 
L 334.559158 -145.387595 
L 335.81265 -129.368839 
L 337.066143 -194.216951 
L 338.319635 -133.601903 
L 339.573127 -147.089005 
L 340.82662 -176.132278 
L 342.080112 -142.640941 
L 343.333605 -191.549577 
L 344.587097 -169.178044 
L 345.84059 -251.465107 
L 347.094082 -171.878533 
L 348.347575 -170.927233 
L 349.601067 -141.357247 
L 350.854559 -115.948981 
L 352.108052 -128.78554 
L 353.361544 -172.968233 
L 354.615037 -136.932984 
L 355.868529 -187.847878 
L 357.122022 -138.661751 
L 358.375514 -206.262858 
L 359.629007 -128.483749 
L 360.882499 -266.698576 
L 362.135992 -166.021918 
L 363.389484 -204.849041 
L 364.642976 -147.843185 
L 365.896469 -134.187872 
L 367.149961 -143.351578 
L 368.403454 -204.664236 
L 369.656946 -205.497811 
L 370.910439 -179.609311 
L 372.163931 -160.742272 
L 373.417424 -153.673429 
L 374.670916 -172.879669 
L 375.924409 -116.769911 
L 377.177901 -173.682342 
L 378.431393 -209.686888 
L 379.684886 -207.802749 
L 380.938378 -152.232874 
L 382.191871 -151.210591 
L 383.445363 -121.462597 
L 384.698856 -175.768898 
L 385.952348 -180.399627 
L 387.205841 -222.371914 
L 388.459333 -161.28688 
L 389.712826 -187.890099 
L 390.966318 -156.66084 
L 392.21981 -147.556242 
L 393.473303 -231.993784 
L 394.726795 -131.081441 
L 395.980288 -186.262557 
L 397.23378 -187.420071 
L 398.487273 -124.849965 
L 398.487273 -50.112 
L 398.487273 -50.112 
L 397.23378 -50.112 
L 395.980288 -50.112 
L 394.726795 -50.112 
L 393.473303 -50.112 
L 392.21981 -50.112 
L 390.966318 -50.112 
L 389.712826 -50.112 
L 388.459333 -50.112 
L 387.205841 -50.112 
L 385.952348 -50.112 
L 384.698856 -50.112 
L 383.445363 -50.112 
L 382.191871 -50.112 
L 380.938378 -50.112 
L 379.684886 -50.112 
L 378.431393 -50.112 
L 377.177901 -50.112 
L 375.924409 -50.112 
L 374.670916 -50.112 
L 373.417424 -50.112 
L 372.163931 -50.112 
L 370.910439 -50.112 
L 369.656946 -50.112 
L 368.403454 -50.112 
L 367.149961 -50.112 
L 365.896469 -50.112 
L 364.642976 -50.112 
L 363.389484 -50.112 
L 362.135992 -50.112 
L 360.882499 -50.112 
L 359.629007 -50.112 
L 358.375514 -50.112 
L 357.122022 -50.112 
L 355.868529 -50.112 
L 354.615037 -50.112 
L 353.361544 -50.112 
L 352.108052 -50.112 
L 350.854559 -50.112 
L 349.601067 -50.112 
L 348.347575 -50.112 
L 347.094082 -50.112 
L 345.84059 -50.112 
L 344.587097 -50.112 
L 343.333605 -50.112 
L 342.080112 -50.112 
L 340.82662 -50.112 
L 339.573127 -50.112 
L 338.319635 -50.112 
L 337.066143 -50.112 
L 335.81265 -50.112 
L 334.559158 -50.112 
L 333.305665 -50.112 
L 332.052173 -50.112 
L 330.79868 -50.112 
L 329.545188 -50.112 
L 328.291695 -50.112 
L 327.038203 -50.112 
L 325.78471 -50.112 
L 324.531218 -50.112 
L 323.277726 -50.112 
L 322.024233 -50.112 
L 320.770741 -50.112 
L 319.517248 -50.112 
L 318.263756 -50.112 
L 317.010263 -50.112 
L 315.756771 -50.112 
L 314.503278 -50.112 
L 313.249786 -50.112 
L 311.996293 -50.112 
L 310.742801 -50.112 
L 309.489309 -50.112 
L 308.235816 -50.112 
L 306.982324 -50.112 
L 305.728831 -50.112 
L 304.475339 -50.112 
L 303.221846 -50.112 
L 301.968354 -50.112 
L 300.714861 -50.112 
L 299.461369 -50.112 
L 298.207876 -50.112 
L 296.954384 -50.112 
L 295.700892 -50.112 
L 294.447399 -50.112 
L 293.193907 -50.112 
L 291.940414 -50.112 
L 290.686922 -50.112 
L 289.433429 -50.112 
L 288.179937 -50.112 
L 286.926444 -50.112 
L 285.672952 -50.112 
L 284.419459 -50.112 
L 283.165967 -50.112 
L 281.912475 -50.112 
L 280.658982 -50.112 
L 279.40549 -50.112 
L 278.151997 -50.112 
L 276.898505 -50.112 
L 275.645012 -50.112 
L 274.39152 -50.112 
L 273.138027 -50.112 
L 271.884535 -50.112 
L 270.631042 -50.112 
L 269.37755 -50.112 
L 268.124058 -50.112 
L 266.870565 -50.112 
L 265.617073 -50.112 
L 264.36358 -50.112 
L 263.110088 -50.112 
L 261.856595 -50.112 
L 260.603103 -50.112 
L 259.34961 -50.112 
L 258.096118 -50.112 
L 256.842625 -50.112 
L 255.589133 -50.112 
L 254.335641 -50.112 
L 253.082148 -50.112 
L 251.828656 -50.112 
L 250.575163 -50.112 
L 249.321671 -50.112 
L 248.068178 -50.112 
L 246.814686 -50.112 
L 245.561193 -50.112 
L 244.307701 -50.112 
L 243.054208 -50.112 
L 241.800716 -50.112 
L 240.547224 -50.112 
L 239.293731 -50.112 
L 238.040239 -50.112 
L 236.786746 -50.112 
L 235.533254 -50.112 
L 234.279761 -50.112 
L 233.026269 -50.112 
L 231.772776 -50.112 
L 230.519284 -50.112 
L 229.265792 -50.112 
L 228.012299 -50.112 
L 226.758807 -50.112 
L 225.505314 -50.112 
L 224.251822 -50.112 
L 222.998329 -50.112 
L 221.744837 -50.112 
L 220.491344 -50.112 
L 219.237852 -50.112 
L 217.984359 -50.112 
L 216.730867 -50.112 
L 215.477375 -50.112 
L 214.223882 -50.112 
L 212.97039 -50.112 
L 211.716897 -50.112 
L 210.463405 -50.112 
L 209.209912 -50.112 
L 207.95642 -50.112 
L 206.702927 -50.112 
L 205.449435 -50.112 
L 204.195942 -50.112 
L 202.94245 -50.112 
L 201.688958 -50.112 
L 200.435465 -50.112 
L 199.181973 -50.112 
L 197.92848 -50.112 
L 196.674988 -50.112 
L 195.421495 -50.112 
L 194.168003 -50.112 
L 192.91451 -50.112 
L 191.661018 -50.112 
L 190.407525 -50.112 
L 189.154033 -50.112 
L 187.900541 -50.112 
L 186.647048 -50.112 
L 185.393556 -50.112 
L 184.140063 -50.112 
L 182.886571 -50.112 
L 181.633078 -50.112 
L 180.379586 -50.112 
L 179.126093 -50.112 
L 177.872601 -50.112 
L 176.619108 -50.112 
L 175.365616 -50.112 
L 174.112124 -50.112 
L 172.858631 -50.112 
L 171.605139 -50.112 
L 170.351646 -50.112 
L 169.098154 -50.112 
L 167.844661 -50.112 
L 166.591169 -50.112 
L 165.337676 -50.112 
L 164.084184 -50.112 
L 162.830691 -50.112 
L 161.577199 -50.112 
L 160.323707 -50.112 
L 159.070214 -50.112 
L 157.816722 -50.112 
L 156.563229 -50.112 
L 155.309737 -50.112 
L 154.056244 -50.112 
L 152.802752 -50.112 
L 151.549259 -50.112 
L 150.295767 -50.112 
L 149.042274 -50.112 
L 147.788782 -50.112 
L 146.53529 -50.112 
L 145.281797 -50.112 
L 144.028305 -50.112 
L 142.774812 -50.112 
L 141.52132 -50.112 
L 140.267827 -50.112 
L 139.014335 -50.112 
L 137.760842 -50.112 
L 136.50735 -50.112 
L 135.253857 -50.112 
L 134.000365 -50.112 
L 132.746873 -50.112 
L 131.49338 -50.112 
L 130.239888 -50.112 
L 128.986395 -50.112 
L 127.732903 -50.112 
L 126.47941 -50.112 
L 125.225918 -50.112 
L 123.972425 -50.112 
L 122.718933 -50.112 
L 121.465441 -50.112 
L 120.211948 -50.112 
L 118.958456 -50.112 
L 117.704963 -50.112 
L 116.451471 -50.112 
L 115.197978 -50.112 
L 113.944486 -50.112 
L 112.690993 -50.112 
L 111.437501 -50.112 
L 110.184008 -50.112 
L 108.930516 -50.112 
L 107.677024 -50.112 
L 106.423531 -50.112 
L 105.170039 -50.112 
L 103.916546 -50.112 
L 102.663054 -50.112 
L 101.409561 -50.112 
L 100.156069 -50.112 
L 98.902576 -50.178185 
L 97.649084 -50.225141 
L 96.395591 -50.252224 
L 95.142099 -50.296976 
L 93.888607 -50.292762 
L 92.635114 -50.230056 
L 91.381622 -50.334525 
L 90.128129 -50.383455 
L 88.874637 -50.321191 
L 87.621144 -50.344716 
L 86.367652 -50.214111 
L 85.114159 -50.467842 
L 83.860667 -50.550912 
L 82.607174 -50.408461 
L 81.353682 -50.517418 
L 80.10019 -50.451042 
L 78.846697 -50.628919 
L 77.593205 -50.358989 
L 76.339712 -51.217282 
L 75.08622 -52.565952 
L 73.832727 -50.374408 
z
" id="mc3bde4d4dd" style="stroke:#90ee90;stroke-width:0.5;"/>
    </defs>
    <g clip-path="url(#p1982a42c1c)">
     <use style="fill:#90ee90;stroke:#90ee90;stroke-width:0.5;" x="0" xlink:href="#mc3bde4d4dd" y="345.6"/>
    </g>
   </g>
   <g id="PolyCollection_2">
    <defs>
     <path d="M 73.832727 -84.023463 
L 73.832727 -149.973744 
L 75.08622 -125.836012 
L 76.339712 -125.553118 
L 77.593205 -137.065184 
L 78.846697 -134.319605 
L 80.10019 -144.932631 
L 81.353682 -173.180185 
L 82.607174 -163.973639 
L 83.860667 -157.483412 
L 85.114159 -152.8732 
L 86.367652 -208.59466 
L 87.621144 -172.330277 
L 88.874637 -202.839731 
L 90.128129 -187.073066 
L 91.381622 -182.936846 
L 92.635114 -140.20632 
L 93.888607 -145.059135 
L 95.142099 -134.763745 
L 96.395591 -152.02067 
L 97.649084 -221.349379 
L 98.902576 -127.784656 
L 100.156069 -151.274766 
L 101.409561 -155.017406 
L 102.663054 -221.152616 
L 103.916546 -150.363767 
L 105.170039 -147.452846 
L 106.423531 -147.013522 
L 107.677024 -160.910777 
L 108.930516 -134.251203 
L 110.184008 -154.933017 
L 111.437501 -220.357307 
L 112.690993 -199.50672 
L 113.944486 -145.907899 
L 115.197978 -142.010706 
L 116.451471 -206.172543 
L 117.704963 -205.616501 
L 118.958456 -116.989348 
L 120.211948 -148.751037 
L 121.465441 -115.407047 
L 122.718933 -267.634646 
L 123.972425 -168.183338 
L 125.225918 -119.192636 
L 126.47941 -201.207479 
L 127.732903 -157.952621 
L 128.986395 -161.923545 
L 130.239888 -155.713505 
L 131.49338 -216.796367 
L 132.746873 -153.473246 
L 134.000365 -192.842145 
L 135.253857 -208.320924 
L 136.50735 -129.488126 
L 137.760842 -201.21221 
L 139.014335 -170.040014 
L 140.267827 -135.536365 
L 141.52132 -215.219794 
L 142.774812 -113.762947 
L 144.028305 -124.041004 
L 145.281797 -169.316674 
L 146.53529 -172.49595 
L 147.788782 -177.504482 
L 149.042274 -168.817066 
L 150.295767 -144.690783 
L 151.549259 -198.841576 
L 152.802752 -125.757639 
L 154.056244 -110.944623 
L 155.309737 -102.735384 
L 156.563229 -151.995002 
L 157.816722 -121.190356 
L 159.070214 -184.971751 
L 160.323707 -156.821425 
L 161.577199 -107.328645 
L 162.830691 -163.922649 
L 164.084184 -128.220734 
L 165.337676 -157.468663 
L 166.591169 -148.440031 
L 167.844661 -144.439558 
L 169.098154 -153.853545 
L 170.351646 -114.604888 
L 171.605139 -162.761285 
L 172.858631 -118.839615 
L 174.112124 -129.531186 
L 175.365616 -151.763675 
L 176.619108 -115.281104 
L 177.872601 -108.970311 
L 179.126093 -126.623239 
L 180.379586 -152.494998 
L 181.633078 -144.743808 
L 182.886571 -119.859852 
L 184.140063 -142.457143 
L 185.393556 -121.768122 
L 186.647048 -126.098146 
L 187.900541 -123.380165 
L 189.154033 -107.737345 
L 190.407525 -260.334864 
L 191.661018 -181.806259 
L 192.91451 -95.328766 
L 194.168003 -129.485195 
L 195.421495 -190.847908 
L 196.674988 -171.445419 
L 197.92848 -158.07194 
L 199.181973 -124.250737 
L 200.435465 -105.638805 
L 201.688958 -124.593269 
L 202.94245 -117.822372 
L 204.195942 -137.150496 
L 205.449435 -108.793179 
L 206.702927 -137.845127 
L 207.95642 -131.464127 
L 209.209912 -118.70057 
L 210.463405 -117.575951 
L 211.716897 -164.008926 
L 212.97039 -115.756014 
L 214.223882 -148.052315 
L 215.477375 -161.178093 
L 216.730867 -111.515051 
L 217.984359 -198.258911 
L 219.237852 -145.757447 
L 220.491344 -113.298657 
L 221.744837 -93.23202 
L 222.998329 -121.595815 
L 224.251822 -147.162285 
L 225.505314 -99.799765 
L 226.758807 -129.98754 
L 228.012299 -110.418838 
L 229.265792 -135.276061 
L 230.519284 -113.522274 
L 231.772776 -191.114029 
L 233.026269 -152.983141 
L 234.279761 -108.113292 
L 235.533254 -120.62471 
L 236.786746 -85.676765 
L 238.040239 -105.558203 
L 239.293731 -97.048344 
L 240.547224 -98.816215 
L 241.800716 -151.958991 
L 243.054208 -91.456619 
L 244.307701 -130.061319 
L 245.561193 -101.250862 
L 246.814686 -112.006945 
L 248.068178 -152.155545 
L 249.321671 -119.727731 
L 250.575163 -126.980855 
L 251.828656 -114.054521 
L 253.082148 -107.590764 
L 254.335641 -135.094366 
L 255.589133 -85.504009 
L 256.842625 -101.687213 
L 258.096118 -143.930582 
L 259.34961 -121.534833 
L 260.603103 -110.992188 
L 261.856595 -125.017431 
L 263.110088 -122.494357 
L 264.36358 -89.107764 
L 265.617073 -129.745556 
L 266.870565 -143.976579 
L 268.124058 -122.300536 
L 269.37755 -108.954246 
L 270.631042 -92.979405 
L 271.884535 -92.605218 
L 273.138027 -108.009245 
L 274.39152 -121.078164 
L 275.645012 -102.025775 
L 276.898505 -121.438555 
L 278.151997 -144.095573 
L 279.40549 -94.89304 
L 280.658982 -89.64445 
L 281.912475 -123.368606 
L 283.165967 -99.680001 
L 284.419459 -102.158641 
L 285.672952 -88.935903 
L 286.926444 -104.875022 
L 288.179937 -96.942651 
L 289.433429 -101.000995 
L 290.686922 -102.265283 
L 291.940414 -100.585975 
L 293.193907 -129.749495 
L 294.447399 -114.851136 
L 295.700892 -119.945945 
L 296.954384 -110.000456 
L 298.207876 -110.350257 
L 299.461369 -118.473429 
L 300.714861 -141.822345 
L 301.968354 -99.769204 
L 303.221846 -91.678537 
L 304.475339 -89.488641 
L 305.728831 -94.020637 
L 306.982324 -94.555023 
L 308.235816 -107.430436 
L 309.489309 -103.257545 
L 310.742801 -108.029448 
L 311.996293 -121.645477 
L 313.249786 -112.512532 
L 314.503278 -116.591284 
L 315.756771 -97.245086 
L 317.010263 -115.288431 
L 318.263756 -137.79517 
L 319.517248 -92.912964 
L 320.770741 -120.956344 
L 322.024233 -114.507487 
L 323.277726 -84.02399 
L 324.531218 -95.546121 
L 325.78471 -83.439227 
L 327.038203 -104.859728 
L 328.291695 -106.461498 
L 329.545188 -115.579894 
L 330.79868 -103.814447 
L 332.052173 -122.980481 
L 333.305665 -121.370168 
L 334.559158 -139.445973 
L 335.81265 -106.554362 
L 337.066143 -109.190299 
L 338.319635 -95.348633 
L 339.573127 -107.650035 
L 340.82662 -155.785243 
L 342.080112 -105.04189 
L 343.333605 -118.967756 
L 344.587097 -85.186277 
L 345.84059 -93.732698 
L 347.094082 -89.421893 
L 348.347575 -140.060609 
L 349.601067 -128.208597 
L 350.854559 -152.000005 
L 352.108052 -111.278422 
L 353.361544 -107.991775 
L 354.615037 -96.808001 
L 355.868529 -116.329564 
L 357.122022 -104.961865 
L 358.375514 -100.323468 
L 359.629007 -136.636821 
L 360.882499 -91.172286 
L 362.135992 -79.980029 
L 363.389484 -90.539723 
L 364.642976 -85.078242 
L 365.896469 -81.441408 
L 367.149961 -76.817282 
L 368.403454 -85.410392 
L 369.656946 -94.060038 
L 370.910439 -84.206705 
L 372.163931 -75.753919 
L 373.417424 -98.78793 
L 374.670916 -81.040851 
L 375.924409 -98.516491 
L 377.177901 -98.454099 
L 378.431393 -88.014446 
L 379.684886 -101.459972 
L 380.938378 -109.541799 
L 382.191871 -143.835421 
L 383.445363 -136.006393 
L 384.698856 -93.359235 
L 385.952348 -93.642178 
L 387.205841 -90.085841 
L 388.459333 -70.923603 
L 389.712826 -100.419317 
L 390.966318 -96.104203 
L 392.21981 -73.05242 
L 393.473303 -102.602565 
L 394.726795 -104.945171 
L 395.980288 -98.583625 
L 397.23378 -86.564561 
L 398.487273 -82.036388 
L 398.487273 -63.139607 
L 398.487273 -63.139607 
L 397.23378 -56.810588 
L 395.980288 -58.034493 
L 394.726795 -57.404872 
L 393.473303 -61.27658 
L 392.21981 -58.237698 
L 390.966318 -53.810495 
L 389.712826 -58.928387 
L 388.459333 -58.53778 
L 387.205841 -59.084535 
L 385.952348 -57.902015 
L 384.698856 -55.959448 
L 383.445363 -59.13339 
L 382.191871 -59.368142 
L 380.938378 -62.05614 
L 379.684886 -59.691604 
L 378.431393 -58.983302 
L 377.177901 -57.745997 
L 375.924409 -58.076814 
L 374.670916 -60.580458 
L 373.417424 -57.306371 
L 372.163931 -58.768841 
L 370.910439 -57.409172 
L 369.656946 -57.909405 
L 368.403454 -58.265773 
L 367.149961 -56.914306 
L 365.896469 -56.956882 
L 364.642976 -58.649334 
L 363.389484 -58.010743 
L 362.135992 -59.349122 
L 360.882499 -57.22711 
L 359.629007 -62.301762 
L 358.375514 -57.115295 
L 357.122022 -59.964003 
L 355.868529 -57.412967 
L 354.615037 -53.319071 
L 353.361544 -58.714359 
L 352.108052 -57.518075 
L 350.854559 -58.113407 
L 349.601067 -59.221005 
L 348.347575 -61.327284 
L 347.094082 -57.839676 
L 345.84059 -55.189869 
L 344.587097 -58.334452 
L 343.333605 -58.103737 
L 342.080112 -61.387074 
L 340.82662 -57.088151 
L 339.573127 -57.360994 
L 338.319635 -58.061893 
L 337.066143 -56.070525 
L 335.81265 -56.874563 
L 334.559158 -54.763377 
L 333.305665 -63.853349 
L 332.052173 -63.767959 
L 330.79868 -55.824369 
L 329.545188 -58.349677 
L 328.291695 -61.775633 
L 327.038203 -56.745456 
L 325.78471 -56.4205 
L 324.531218 -59.570887 
L 323.277726 -59.395283 
L 322.024233 -59.788276 
L 320.770741 -60.02088 
L 319.517248 -55.756024 
L 318.263756 -58.523979 
L 317.010263 -56.993264 
L 315.756771 -61.083035 
L 314.503278 -60.109766 
L 313.249786 -60.905314 
L 311.996293 -57.01924 
L 310.742801 -64.740852 
L 309.489309 -59.806477 
L 308.235816 -61.151933 
L 306.982324 -63.15413 
L 305.728831 -64.554038 
L 304.475339 -59.290846 
L 303.221846 -56.583919 
L 301.968354 -57.777036 
L 300.714861 -62.703394 
L 299.461369 -61.78873 
L 298.207876 -60.821077 
L 296.954384 -63.257162 
L 295.700892 -63.287774 
L 294.447399 -63.044731 
L 293.193907 -62.560256 
L 291.940414 -58.611222 
L 290.686922 -61.020429 
L 289.433429 -57.93363 
L 288.179937 -58.631502 
L 286.926444 -60.548691 
L 285.672952 -55.812718 
L 284.419459 -62.2229 
L 283.165967 -59.931289 
L 281.912475 -60.743362 
L 280.658982 -60.325019 
L 279.40549 -64.224909 
L 278.151997 -68.169693 
L 276.898505 -61.398559 
L 275.645012 -59.929738 
L 274.39152 -62.466388 
L 273.138027 -59.117993 
L 271.884535 -62.591175 
L 270.631042 -65.542672 
L 269.37755 -62.530812 
L 268.124058 -64.292037 
L 266.870565 -65.992948 
L 265.617073 -60.785667 
L 264.36358 -58.910769 
L 263.110088 -59.654075 
L 261.856595 -64.836472 
L 260.603103 -67.619866 
L 259.34961 -60.917672 
L 258.096118 -63.609957 
L 256.842625 -60.016204 
L 255.589133 -62.987475 
L 254.335641 -60.057792 
L 253.082148 -59.158614 
L 251.828656 -62.31933 
L 250.575163 -58.420161 
L 249.321671 -62.587302 
L 248.068178 -64.199744 
L 246.814686 -60.779856 
L 245.561193 -64.179351 
L 244.307701 -61.841645 
L 243.054208 -60.920013 
L 241.800716 -66.029524 
L 240.547224 -67.820429 
L 239.293731 -58.41332 
L 238.040239 -59.015012 
L 236.786746 -65.163288 
L 235.533254 -63.606606 
L 234.279761 -62.491862 
L 233.026269 -58.847846 
L 231.772776 -61.210783 
L 230.519284 -62.012539 
L 229.265792 -77.71063 
L 228.012299 -61.06973 
L 226.758807 -67.538105 
L 225.505314 -67.226825 
L 224.251822 -59.337533 
L 222.998329 -70.093385 
L 221.744837 -65.272648 
L 220.491344 -57.72967 
L 219.237852 -60.229251 
L 217.984359 -65.40186 
L 216.730867 -61.72175 
L 215.477375 -59.092849 
L 214.223882 -63.368088 
L 212.97039 -64.65927 
L 211.716897 -62.005576 
L 210.463405 -64.982301 
L 209.209912 -62.148413 
L 207.95642 -61.436266 
L 206.702927 -77.475768 
L 205.449435 -64.116623 
L 204.195942 -62.461287 
L 202.94245 -67.387209 
L 201.688958 -70.67325 
L 200.435465 -61.637284 
L 199.181973 -67.349783 
L 197.92848 -67.827644 
L 196.674988 -62.340592 
L 195.421495 -68.119764 
L 194.168003 -63.385586 
L 192.91451 -69.875866 
L 191.661018 -63.741494 
L 190.407525 -62.679954 
L 189.154033 -66.979726 
L 187.900541 -67.359192 
L 186.647048 -66.001061 
L 185.393556 -62.566159 
L 184.140063 -64.42983 
L 182.886571 -66.791893 
L 181.633078 -72.973667 
L 180.379586 -61.371334 
L 179.126093 -67.724056 
L 177.872601 -58.859342 
L 176.619108 -72.221076 
L 175.365616 -62.65129 
L 174.112124 -66.120777 
L 172.858631 -67.800758 
L 171.605139 -59.69208 
L 170.351646 -66.004057 
L 169.098154 -66.927838 
L 167.844661 -63.097893 
L 166.591169 -69.646391 
L 165.337676 -64.79329 
L 164.084184 -65.953381 
L 162.830691 -59.681466 
L 161.577199 -64.642015 
L 160.323707 -67.953916 
L 159.070214 -69.921678 
L 157.816722 -63.013312 
L 156.563229 -68.533777 
L 155.309737 -72.658421 
L 154.056244 -62.718073 
L 152.802752 -67.865727 
L 151.549259 -65.72721 
L 150.295767 -65.719059 
L 149.042274 -63.010925 
L 147.788782 -62.296709 
L 146.53529 -69.420687 
L 145.281797 -71.740369 
L 144.028305 -75.053659 
L 142.774812 -74.627129 
L 141.52132 -62.132816 
L 140.267827 -64.066528 
L 139.014335 -70.761672 
L 137.760842 -74.187251 
L 136.50735 -63.670803 
L 135.253857 -61.138897 
L 134.000365 -70.216587 
L 132.746873 -66.595252 
L 131.49338 -64.633681 
L 130.239888 -70.459388 
L 128.986395 -72.508785 
L 127.732903 -69.397385 
L 126.47941 -65.294215 
L 125.225918 -65.306797 
L 123.972425 -68.183188 
L 122.718933 -66.225006 
L 121.465441 -72.369997 
L 120.211948 -72.313214 
L 118.958456 -62.063594 
L 117.704963 -67.705852 
L 116.451471 -68.345334 
L 115.197978 -66.892089 
L 113.944486 -63.741735 
L 112.690993 -68.439096 
L 111.437501 -72.186393 
L 110.184008 -68.270165 
L 108.930516 -82.080528 
L 107.677024 -69.711404 
L 106.423531 -66.745123 
L 105.170039 -68.129117 
L 103.916546 -74.524095 
L 102.663054 -68.195589 
L 101.409561 -68.235093 
L 100.156069 -66.711947 
L 98.902576 -68.161825 
L 97.649084 -66.641756 
L 96.395591 -69.041666 
L 95.142099 -66.852515 
L 93.888607 -70.853715 
L 92.635114 -65.417704 
L 91.381622 -85.411439 
L 90.128129 -73.087413 
L 88.874637 -66.063679 
L 87.621144 -65.33457 
L 86.367652 -66.583862 
L 85.114159 -70.422747 
L 83.860667 -63.951616 
L 82.607174 -82.950208 
L 81.353682 -66.719602 
L 80.10019 -97.415946 
L 78.846697 -79.03624 
L 77.593205 -76.320601 
L 76.339712 -77.676284 
L 75.08622 -70.125373 
L 73.832727 -84.023463 
z
" id="m1efc3f8410" style="stroke:#f08080;stroke-width:0.5;"/>
    </defs>
    <g clip-path="url(#p1982a42c1c)">
     <use style="fill:#f08080;stroke:#f08080;stroke-width:0.5;" x="0" xlink:href="#m1efc3f8410" y="345.6"/>
    </g>
   </g>
   <g id="line2d_29">
    <path clip-path="url(#p1982a42c1c)" d="M 73.832727 291.490178 
L 75.08622 291.424861 
L 76.339712 274.448863 
L 77.593205 267.107301 
L 78.846697 237.074814 
L 80.10019 203.192012 
L 81.353682 256.259113 
L 82.607174 237.40339 
L 83.860667 223.204224 
L 85.114159 227.348038 
L 86.367652 237.813244 
L 88.874637 216.419737 
L 90.128129 222.780162 
L 91.381622 234.569336 
L 92.635114 200.247461 
L 93.888607 203.7169 
L 95.142099 182.064479 
L 96.395591 192.437298 
L 97.649084 178.767437 
L 98.902576 219.97807 
L 100.156069 200.859413 
L 101.409561 166.612207 
L 102.663054 218.693925 
L 103.916546 176.44881 
L 105.170039 195.885265 
L 106.423531 148.273959 
L 107.677024 205.71293 
L 108.930516 205.303134 
L 110.184008 201.022777 
L 111.437501 174.117302 
L 112.690993 173.44364 
L 113.944486 177.179105 
L 115.197978 189.138798 
L 116.451471 197.796739 
L 117.704963 170.466131 
L 118.958456 179.662544 
L 120.211948 186.046585 
L 121.465441 110.176333 
L 122.718933 135.436833 
L 123.972425 182.271334 
L 125.225918 181.439216 
L 127.732903 113.240339 
L 128.986395 138.138823 
L 130.239888 178.577775 
L 131.49338 184.101828 
L 132.746873 202.495336 
L 134.000365 207.213276 
L 135.253857 199.686447 
L 136.50735 182.370324 
L 137.760842 169.677839 
L 139.014335 214.019313 
L 140.267827 164.103247 
L 141.52132 201.314157 
L 142.774812 202.853691 
L 144.028305 154.93911 
L 145.281797 177.994134 
L 146.53529 192.744853 
L 147.788782 187.102739 
L 149.042274 171.719573 
L 150.295767 194.774387 
L 151.549259 175.703724 
L 152.802752 184.604174 
L 154.056244 178.890018 
L 155.309737 180.359954 
L 156.563229 168.195284 
L 157.816722 194.55783 
L 159.070214 130.866765 
L 160.323707 192.989113 
L 161.577199 158.103827 
L 162.830691 152.947842 
L 164.084184 193.734146 
L 165.337676 155.25921 
L 166.591169 166.373821 
L 167.844661 174.620812 
L 169.098154 205.25977 
L 170.351646 192.951414 
L 171.605139 152.299702 
L 172.858631 190.06057 
L 174.112124 179.26072 
L 175.365616 181.814491 
L 176.619108 181.058833 
L 177.872601 184.164786 
L 179.126093 131.231414 
L 180.379586 180.840429 
L 181.633078 177.388938 
L 182.886571 183.008195 
L 184.140063 169.767913 
L 185.393556 206.278423 
L 186.647048 185.026663 
L 187.900541 115.540997 
L 189.154033 198.300595 
L 190.407525 206.489809 
L 191.661018 180.242439 
L 192.91451 185.929123 
L 194.168003 194.004263 
L 195.421495 130.992399 
L 196.674988 175.131434 
L 197.92848 193.515669 
L 199.181973 161.994411 
L 200.435465 167.222774 
L 201.688958 176.932316 
L 202.94245 172.127512 
L 204.195942 123.330202 
L 205.449435 202.130214 
L 206.702927 171.474672 
L 207.95642 176.472747 
L 209.209912 77.920019 
L 210.463405 107.644757 
L 211.716897 186.77065 
L 212.97039 165.604725 
L 214.223882 125.981821 
L 216.730867 211.323481 
L 217.984359 163.106989 
L 219.237852 163.77507 
L 220.491344 159.37573 
L 221.744837 159.923978 
L 222.998329 140.708948 
L 224.251822 165.634065 
L 225.505314 187.225719 
L 226.758807 185.478124 
L 228.012299 196.721442 
L 229.265792 150.161369 
L 230.519284 154.611951 
L 231.772776 178.513033 
L 233.026269 97.200305 
L 234.279761 180.343171 
L 235.533254 183.728871 
L 236.786746 186.407133 
L 238.040239 176.949519 
L 239.293731 176.04323 
L 240.547224 119.600422 
L 241.800716 197.088545 
L 243.054208 201.300604 
L 244.307701 139.681829 
L 245.561193 117.075518 
L 246.814686 150.1061 
L 248.068178 101.758698 
L 249.321671 186.379713 
L 250.575163 123.874517 
L 251.828656 191.133423 
L 253.082148 176.867291 
L 254.335641 81.941996 
L 255.589133 87.436479 
L 256.842625 207.90104 
L 258.096118 152.142431 
L 259.34961 179.64103 
L 260.603103 119.962428 
L 261.856595 164.329486 
L 263.110088 185.716311 
L 264.36358 115.817293 
L 265.617073 120.020918 
L 266.870565 167.307226 
L 268.124058 152.11647 
L 269.37755 170.363092 
L 270.631042 53.568 
L 271.884535 167.655637 
L 273.138027 156.648639 
L 274.39152 171.835797 
L 275.645012 150.536907 
L 276.898505 200.298367 
L 278.151997 115.256877 
L 279.40549 195.59871 
L 280.658982 176.793497 
L 281.912475 171.290906 
L 283.165967 168.339579 
L 284.419459 165.045694 
L 285.672952 201.359209 
L 286.926444 172.624551 
L 288.179937 176.872075 
L 289.433429 185.229384 
L 290.686922 191.777367 
L 291.940414 148.985288 
L 293.193907 185.795832 
L 294.447399 137.84694 
L 295.700892 124.076515 
L 296.954384 113.891469 
L 298.207876 169.430904 
L 299.461369 182.246673 
L 300.714861 164.794143 
L 301.968354 202.037592 
L 303.221846 93.897178 
L 304.475339 191.194787 
L 305.728831 170.152723 
L 306.982324 177.387942 
L 308.235816 199.97255 
L 309.489309 197.760592 
L 310.742801 150.610407 
L 311.996293 179.291653 
L 313.249786 145.135214 
L 314.503278 191.133486 
L 315.756771 146.669525 
L 317.010263 178.336902 
L 318.263756 202.622564 
L 319.517248 173.698348 
L 320.770741 185.522662 
L 322.024233 159.729176 
L 323.277726 214.391425 
L 324.531218 188.136078 
L 325.78471 212.612167 
L 327.038203 163.851623 
L 328.291695 157.514921 
L 329.545188 145.99537 
L 330.79868 129.073802 
L 332.052173 153.89568 
L 333.305665 185.971889 
L 334.559158 200.212405 
L 335.81265 216.231161 
L 337.066143 151.383049 
L 338.319635 211.998097 
L 339.573127 198.510995 
L 340.82662 169.467722 
L 342.080112 202.959059 
L 343.333605 154.050423 
L 344.587097 176.421956 
L 345.84059 94.134893 
L 347.094082 173.721467 
L 348.347575 174.672767 
L 349.601067 204.242753 
L 350.854559 229.651019 
L 352.108052 216.81446 
L 353.361544 172.631767 
L 354.615037 208.667016 
L 355.868529 157.752122 
L 357.122022 206.938249 
L 358.375514 139.337142 
L 359.629007 217.116251 
L 360.882499 78.901424 
L 362.135992 179.578082 
L 363.389484 140.750959 
L 364.642976 197.756815 
L 365.896469 211.412128 
L 367.149961 202.248422 
L 368.403454 140.935764 
L 369.656946 140.102189 
L 370.910439 165.990689 
L 372.163931 184.857728 
L 373.417424 191.926571 
L 374.670916 172.720331 
L 375.924409 228.830089 
L 377.177901 171.917658 
L 378.431393 135.913112 
L 379.684886 137.797251 
L 380.938378 193.367126 
L 382.191871 194.389409 
L 383.445363 224.137403 
L 384.698856 169.831102 
L 385.952348 165.200373 
L 387.205841 123.228086 
L 388.459333 184.31312 
L 389.712826 157.709901 
L 390.966318 188.93916 
L 392.21981 198.043758 
L 393.473303 113.606216 
L 394.726795 214.518559 
L 395.980288 159.337443 
L 397.23378 158.179929 
L 398.487273 220.750035 
L 398.487273 220.750035 
" style="fill:none;stroke:#008000;stroke-linecap:square;stroke-width:1.5;"/>
   </g>
   <g id="line2d_30">
    <path clip-path="url(#p1982a42c1c)" d="M 73.832727 295.225592 
L 75.08622 293.034048 
L 76.339712 294.382718 
L 77.593205 295.241011 
L 78.846697 294.971081 
L 80.10019 295.148958 
L 81.353682 295.082582 
L 82.607174 295.191539 
L 83.860667 295.049088 
L 85.114159 295.132158 
L 86.367652 295.385889 
L 87.621144 295.255284 
L 105.170039 295.488 
L 398.487273 295.488 
L 398.487273 295.488 
" style="fill:none;stroke:#008000;stroke-linecap:square;stroke-width:1.5;"/>
   </g>
   <g id="line2d_31">
    <path clip-path="url(#p1982a42c1c)" d="M 73.832727 195.626256 
L 75.08622 219.763988 
L 76.339712 220.046882 
L 77.593205 208.534816 
L 78.846697 211.280395 
L 80.10019 200.667369 
L 81.353682 172.419815 
L 82.607174 181.626361 
L 83.860667 188.116588 
L 85.114159 192.7268 
L 86.367652 137.00534 
L 87.621144 173.269723 
L 88.874637 142.760269 
L 90.128129 158.526934 
L 91.381622 162.663154 
L 92.635114 205.39368 
L 93.888607 200.540865 
L 95.142099 210.836255 
L 96.395591 193.57933 
L 97.649084 124.250621 
L 98.902576 217.815344 
L 100.156069 194.325234 
L 101.409561 190.582594 
L 102.663054 124.447384 
L 103.916546 195.236233 
L 105.170039 198.147154 
L 106.423531 198.586478 
L 107.677024 184.689223 
L 108.930516 211.348797 
L 110.184008 190.666983 
L 111.437501 125.242693 
L 112.690993 146.09328 
L 113.944486 199.692101 
L 115.197978 203.589294 
L 116.451471 139.427457 
L 117.704963 139.983499 
L 118.958456 228.610652 
L 120.211948 196.848963 
L 121.465441 230.192953 
L 122.718933 77.965354 
L 123.972425 177.416662 
L 125.225918 226.407364 
L 126.47941 144.392521 
L 127.732903 187.647379 
L 128.986395 183.676455 
L 130.239888 189.886495 
L 131.49338 128.803633 
L 132.746873 192.126754 
L 134.000365 152.757855 
L 135.253857 137.279076 
L 136.50735 216.111874 
L 137.760842 144.38779 
L 139.014335 175.559986 
L 140.267827 210.063635 
L 141.52132 130.380206 
L 142.774812 231.837053 
L 144.028305 221.558996 
L 145.281797 176.283326 
L 146.53529 173.10405 
L 147.788782 168.095518 
L 149.042274 176.782934 
L 150.295767 200.909217 
L 151.549259 146.758424 
L 152.802752 219.842361 
L 154.056244 234.655377 
L 155.309737 242.864616 
L 156.563229 193.604998 
L 157.816722 224.409644 
L 159.070214 160.628249 
L 160.323707 188.778575 
L 161.577199 238.271355 
L 162.830691 181.677351 
L 164.084184 217.379266 
L 165.337676 188.131337 
L 166.591169 197.159969 
L 167.844661 201.160442 
L 169.098154 191.746455 
L 170.351646 230.995112 
L 171.605139 182.838715 
L 172.858631 226.760385 
L 174.112124 216.068814 
L 175.365616 193.836325 
L 176.619108 230.318896 
L 177.872601 236.629689 
L 179.126093 218.976761 
L 180.379586 193.105002 
L 181.633078 200.856192 
L 182.886571 225.740148 
L 184.140063 203.142857 
L 185.393556 223.831878 
L 186.647048 219.501854 
L 187.900541 222.219835 
L 189.154033 237.862655 
L 190.407525 85.265136 
L 191.661018 163.793741 
L 192.91451 250.271234 
L 194.168003 216.114805 
L 195.421495 154.752092 
L 196.674988 174.154581 
L 197.92848 187.52806 
L 199.181973 221.349263 
L 200.435465 239.961195 
L 201.688958 221.006731 
L 202.94245 227.777628 
L 204.195942 208.449504 
L 205.449435 236.806821 
L 206.702927 207.754873 
L 207.95642 214.135873 
L 209.209912 226.89943 
L 210.463405 228.024049 
L 211.716897 181.591074 
L 212.97039 229.843986 
L 214.223882 197.547685 
L 215.477375 184.421907 
L 216.730867 234.084949 
L 217.984359 147.341089 
L 219.237852 199.842553 
L 220.491344 232.301343 
L 221.744837 252.36798 
L 222.998329 224.004185 
L 224.251822 198.437715 
L 225.505314 245.800235 
L 226.758807 215.61246 
L 228.012299 235.181162 
L 229.265792 210.323939 
L 230.519284 232.077726 
L 231.772776 154.485971 
L 233.026269 192.616859 
L 234.279761 237.486708 
L 235.533254 224.97529 
L 236.786746 259.923235 
L 238.040239 240.041797 
L 239.293731 248.551656 
L 240.547224 246.783785 
L 241.800716 193.641009 
L 243.054208 254.143381 
L 244.307701 215.538681 
L 245.561193 244.349138 
L 246.814686 233.593055 
L 248.068178 193.444455 
L 249.321671 225.872269 
L 250.575163 218.619145 
L 251.828656 231.545479 
L 253.082148 238.009236 
L 254.335641 210.505634 
L 255.589133 260.095991 
L 256.842625 243.912787 
L 258.096118 201.669418 
L 259.34961 224.065167 
L 260.603103 234.607812 
L 261.856595 220.582569 
L 263.110088 223.105643 
L 264.36358 256.492236 
L 265.617073 215.854444 
L 266.870565 201.623421 
L 268.124058 223.299464 
L 269.37755 236.645754 
L 270.631042 252.620595 
L 271.884535 252.994782 
L 273.138027 237.590755 
L 274.39152 224.521836 
L 275.645012 243.574225 
L 276.898505 224.161445 
L 278.151997 201.504427 
L 279.40549 250.70696 
L 280.658982 255.95555 
L 281.912475 222.231394 
L 283.165967 245.919999 
L 284.419459 243.441359 
L 285.672952 256.664097 
L 286.926444 240.724978 
L 288.179937 248.657349 
L 289.433429 244.599005 
L 290.686922 243.334717 
L 291.940414 245.014025 
L 293.193907 215.850505 
L 294.447399 230.748864 
L 295.700892 225.654055 
L 296.954384 235.599544 
L 298.207876 235.249743 
L 299.461369 227.126571 
L 300.714861 203.777655 
L 301.968354 245.830796 
L 303.221846 253.921463 
L 304.475339 256.111359 
L 305.728831 251.579363 
L 306.982324 251.044977 
L 308.235816 238.169564 
L 309.489309 242.342455 
L 310.742801 237.570552 
L 311.996293 223.954523 
L 313.249786 233.087468 
L 314.503278 229.008716 
L 315.756771 248.354914 
L 317.010263 230.311569 
L 318.263756 207.80483 
L 319.517248 252.687036 
L 320.770741 224.643656 
L 322.024233 231.092513 
L 323.277726 261.57601 
L 324.531218 250.053879 
L 325.78471 262.160773 
L 327.038203 240.740272 
L 328.291695 239.138502 
L 329.545188 230.020106 
L 330.79868 241.785553 
L 332.052173 222.619519 
L 333.305665 224.229832 
L 334.559158 206.154027 
L 335.81265 239.045638 
L 337.066143 236.409701 
L 338.319635 250.251367 
L 339.573127 237.949965 
L 340.82662 189.814757 
L 342.080112 240.55811 
L 343.333605 226.632244 
L 344.587097 260.413723 
L 345.84059 251.867302 
L 347.094082 256.178107 
L 348.347575 205.539391 
L 349.601067 217.391403 
L 350.854559 193.599995 
L 352.108052 234.321578 
L 353.361544 237.608225 
L 354.615037 248.791999 
L 355.868529 229.270436 
L 357.122022 240.638135 
L 358.375514 245.276532 
L 359.629007 208.963179 
L 360.882499 254.427714 
L 362.135992 265.619971 
L 363.389484 255.060277 
L 364.642976 260.521758 
L 365.896469 264.158592 
L 367.149961 268.782718 
L 369.656946 251.539962 
L 370.910439 261.393295 
L 372.163931 269.846081 
L 373.417424 246.81207 
L 374.670916 264.559149 
L 375.924409 247.083509 
L 377.177901 247.145901 
L 378.431393 257.585554 
L 379.684886 244.140028 
L 380.938378 236.058201 
L 382.191871 201.764579 
L 383.445363 209.593607 
L 384.698856 252.240765 
L 385.952348 251.957822 
L 387.205841 255.514159 
L 388.459333 274.676397 
L 389.712826 245.180683 
L 390.966318 249.495797 
L 392.21981 272.54758 
L 393.473303 242.997435 
L 394.726795 240.654829 
L 395.980288 247.016375 
L 397.23378 259.035439 
L 398.487273 263.563612 
L 398.487273 263.563612 
" style="fill:none;stroke:#b22222;stroke-linecap:square;stroke-width:1.5;"/>
   </g>
   <g id="line2d_32">
    <path clip-path="url(#p1982a42c1c)" d="M 73.832727 261.576537 
L 75.08622 275.474627 
L 76.339712 267.923716 
L 77.593205 269.279399 
L 78.846697 266.56376 
L 80.10019 248.184054 
L 81.353682 278.880398 
L 82.607174 262.649792 
L 83.860667 281.648384 
L 85.114159 275.177253 
L 86.367652 279.016138 
L 87.621144 280.26543 
L 88.874637 279.536321 
L 90.128129 272.512587 
L 91.381622 260.188561 
L 92.635114 280.182296 
L 93.888607 274.746285 
L 95.142099 278.747485 
L 96.395591 276.558334 
L 97.649084 278.958244 
L 98.902576 277.438175 
L 100.156069 278.888053 
L 101.409561 277.364907 
L 102.663054 277.404411 
L 103.916546 271.075905 
L 105.170039 277.470883 
L 106.423531 278.854877 
L 107.677024 275.888596 
L 108.930516 263.519472 
L 110.184008 277.329835 
L 111.437501 273.413607 
L 112.690993 277.160904 
L 113.944486 281.858265 
L 115.197978 278.707911 
L 116.451471 277.254666 
L 117.704963 277.894148 
L 118.958456 283.536406 
L 120.211948 273.286786 
L 121.465441 273.230003 
L 122.718933 279.374994 
L 123.972425 277.416812 
L 125.225918 280.293203 
L 126.47941 280.305785 
L 127.732903 276.202615 
L 128.986395 273.091215 
L 130.239888 275.140612 
L 131.49338 280.966319 
L 132.746873 279.004748 
L 134.000365 275.383413 
L 135.253857 284.461103 
L 136.50735 281.929197 
L 137.760842 271.412749 
L 139.014335 274.838328 
L 140.267827 281.533472 
L 141.52132 283.467184 
L 142.774812 270.972871 
L 144.028305 270.546341 
L 145.281797 273.859631 
L 146.53529 276.179313 
L 147.788782 283.303291 
L 149.042274 282.589075 
L 150.295767 279.880941 
L 151.549259 279.87279 
L 152.802752 277.734273 
L 154.056244 282.881927 
L 155.309737 272.941579 
L 156.563229 277.066223 
L 157.816722 282.586688 
L 159.070214 275.678322 
L 160.323707 277.646084 
L 161.577199 280.957985 
L 162.830691 285.918534 
L 164.084184 279.646619 
L 165.337676 280.80671 
L 166.591169 275.953609 
L 167.844661 282.502107 
L 169.098154 278.672162 
L 170.351646 279.595943 
L 171.605139 285.90792 
L 172.858631 277.799242 
L 174.112124 279.479223 
L 175.365616 282.94871 
L 176.619108 273.378924 
L 177.872601 286.740658 
L 179.126093 277.875944 
L 180.379586 284.228666 
L 181.633078 272.626333 
L 182.886571 278.808107 
L 184.140063 281.17017 
L 185.393556 283.033841 
L 186.647048 279.598939 
L 187.900541 278.240808 
L 189.154033 278.620274 
L 190.407525 282.920046 
L 191.661018 281.858506 
L 192.91451 275.724134 
L 194.168003 282.214414 
L 195.421495 277.480236 
L 196.674988 283.259408 
L 197.92848 277.772356 
L 199.181973 278.250217 
L 200.435465 283.962716 
L 201.688958 274.92675 
L 202.94245 278.212791 
L 204.195942 283.138713 
L 205.449435 281.483377 
L 206.702927 268.124232 
L 207.95642 284.163734 
L 209.209912 283.451587 
L 210.463405 280.617699 
L 211.716897 283.594424 
L 212.97039 280.94073 
L 214.223882 282.231912 
L 215.477375 286.507151 
L 216.730867 283.87825 
L 217.984359 280.19814 
L 219.237852 285.370749 
L 220.491344 287.87033 
L 221.744837 280.327352 
L 222.998329 275.506615 
L 224.251822 286.262467 
L 225.505314 278.373175 
L 226.758807 278.061895 
L 228.012299 284.53027 
L 229.265792 267.88937 
L 230.519284 283.587461 
L 231.772776 284.389217 
L 233.026269 286.752154 
L 234.279761 283.108138 
L 235.533254 281.993394 
L 236.786746 280.436712 
L 238.040239 286.584988 
L 239.293731 287.18668 
L 240.547224 277.779571 
L 241.800716 279.570476 
L 243.054208 284.679987 
L 244.307701 283.758355 
L 245.561193 281.420649 
L 246.814686 284.820144 
L 248.068178 281.400256 
L 249.321671 283.012698 
L 250.575163 287.179839 
L 251.828656 283.28067 
L 253.082148 286.441386 
L 254.335641 285.542208 
L 255.589133 282.612525 
L 256.842625 285.583796 
L 258.096118 281.990043 
L 259.34961 284.682328 
L 260.603103 277.980134 
L 261.856595 280.763528 
L 263.110088 285.945925 
L 264.36358 286.689231 
L 265.617073 284.814333 
L 266.870565 279.607052 
L 269.37755 283.069188 
L 270.631042 280.057328 
L 271.884535 283.008825 
L 273.138027 286.482007 
L 274.39152 283.133612 
L 275.645012 285.670262 
L 276.898505 284.201441 
L 278.151997 277.430307 
L 280.658982 285.274981 
L 281.912475 284.856638 
L 283.165967 285.668711 
L 284.419459 283.3771 
L 285.672952 289.787282 
L 286.926444 285.051309 
L 288.179937 286.968498 
L 289.433429 287.66637 
L 290.686922 284.579571 
L 291.940414 286.988778 
L 293.193907 283.039744 
L 294.447399 282.555269 
L 295.700892 282.312226 
L 296.954384 282.342838 
L 298.207876 284.778923 
L 300.714861 282.896606 
L 301.968354 287.822964 
L 303.221846 289.016081 
L 304.475339 286.309154 
L 305.728831 281.045962 
L 306.982324 282.44587 
L 308.235816 284.448067 
L 309.489309 285.793523 
L 310.742801 280.859148 
L 311.996293 288.58076 
L 313.249786 284.694686 
L 314.503278 285.490234 
L 315.756771 284.516965 
L 317.010263 288.606736 
L 318.263756 287.076021 
L 319.517248 289.843976 
L 320.770741 285.57912 
L 322.024233 285.811724 
L 323.277726 286.204717 
L 324.531218 286.029113 
L 325.78471 289.1795 
L 327.038203 288.854544 
L 328.291695 283.824367 
L 329.545188 287.250323 
L 330.79868 289.775631 
L 332.052173 281.832041 
L 333.305665 281.746651 
L 334.559158 290.836623 
L 335.81265 288.725437 
L 337.066143 289.529475 
L 338.319635 287.538107 
L 339.573127 288.239006 
L 340.82662 288.511849 
L 342.080112 284.212926 
L 343.333605 287.496263 
L 344.587097 287.265548 
L 345.84059 290.410131 
L 347.094082 287.760324 
L 348.347575 284.272716 
L 349.601067 286.378995 
L 350.854559 287.486593 
L 352.108052 288.081925 
L 353.361544 286.885641 
L 354.615037 292.280929 
L 355.868529 288.187033 
L 357.122022 285.635997 
L 358.375514 288.484705 
L 359.629007 283.298238 
L 360.882499 288.37289 
L 362.135992 286.250878 
L 363.389484 287.589257 
L 364.642976 286.950666 
L 365.896469 288.643118 
L 367.149961 288.685694 
L 368.403454 287.334227 
L 369.656946 287.690595 
L 370.910439 288.190828 
L 372.163931 286.831159 
L 373.417424 288.293629 
L 374.670916 285.019542 
L 375.924409 287.523186 
L 377.177901 287.854003 
L 378.431393 286.616698 
L 379.684886 285.908396 
L 380.938378 283.54386 
L 382.191871 286.231858 
L 383.445363 286.46661 
L 384.698856 289.640552 
L 385.952348 287.697985 
L 387.205841 286.515465 
L 388.459333 287.06222 
L 389.712826 286.671613 
L 390.966318 291.789505 
L 392.21981 287.362302 
L 393.473303 284.32342 
L 394.726795 288.195128 
L 395.980288 287.565507 
L 397.23378 288.789412 
L 398.487273 282.460393 
L 398.487273 282.460393 
" style="fill:none;stroke:#b22222;stroke-linecap:square;stroke-width:1.5;"/>
   </g>
   <g id="patch_3">
    <path d="M 57.6 307.584 
L 57.6 41.472 
" style="fill:none;stroke:#ffffff;stroke-linecap:square;stroke-linejoin:miter;"/>
   </g>
   <g id="patch_4">
    <path d="M 414.72 307.584 
L 414.72 41.472 
" style="fill:none;stroke:#ffffff;stroke-linecap:square;stroke-linejoin:miter;"/>
   </g>
   <g id="patch_5">
    <path d="M 57.6 307.584 
L 414.72 307.584 
" style="fill:none;stroke:#ffffff;stroke-linecap:square;stroke-linejoin:miter;"/>
   </g>
   <g id="patch_6">
    <path d="M 57.6 41.472 
L 414.72 41.472 
" style="fill:none;stroke:#ffffff;stroke-linecap:square;stroke-linejoin:miter;"/>
   </g>
   <g id="text_17">
    <!-- Gradient distance Landscape -->
    <defs>
     <path d="M 9.8125 72.90625 
L 19.671875 72.90625 
L 19.671875 8.296875 
L 55.171875 8.296875 
L 55.171875 0 
L 9.8125 0 
z
" id="DejaVuSans-76"/>
    </defs>
    <g transform="translate(131.05575 35.472)scale(0.144 -0.144)">
     <use xlink:href="#DejaVuSans-71"/>
     <use x="77.490234" xlink:href="#DejaVuSans-114"/>
     <use x="118.603516" xlink:href="#DejaVuSans-97"/>
     <use x="179.882812" xlink:href="#DejaVuSans-100"/>
     <use x="243.359375" xlink:href="#DejaVuSans-105"/>
     <use x="271.142578" xlink:href="#DejaVuSans-101"/>
     <use x="332.666016" xlink:href="#DejaVuSans-110"/>
     <use x="396.044922" xlink:href="#DejaVuSans-116"/>
     <use x="435.253906" xlink:href="#DejaVuSans-32"/>
     <use x="467.041016" xlink:href="#DejaVuSans-100"/>
     <use x="530.517578" xlink:href="#DejaVuSans-105"/>
     <use x="558.300781" xlink:href="#DejaVuSans-115"/>
     <use x="610.400391" xlink:href="#DejaVuSans-116"/>
     <use x="649.609375" xlink:href="#DejaVuSans-97"/>
     <use x="710.888672" xlink:href="#DejaVuSans-110"/>
     <use x="774.267578" xlink:href="#DejaVuSans-99"/>
     <use x="829.248047" xlink:href="#DejaVuSans-101"/>
     <use x="890.771484" xlink:href="#DejaVuSans-32"/>
     <use x="922.558594" xlink:href="#DejaVuSans-76"/>
     <use x="978.271484" xlink:href="#DejaVuSans-97"/>
     <use x="1039.550781" xlink:href="#DejaVuSans-110"/>
     <use x="1102.929688" xlink:href="#DejaVuSans-100"/>
     <use x="1166.40625" xlink:href="#DejaVuSans-115"/>
     <use x="1218.505859" xlink:href="#DejaVuSans-99"/>
     <use x="1273.486328" xlink:href="#DejaVuSans-97"/>
     <use x="1334.765625" xlink:href="#DejaVuSans-112"/>
     <use x="1398.242188" xlink:href="#DejaVuSans-101"/>
    </g>
   </g>
   <g id="legend_1">
    <g id="patch_7">
     <path d="M 153.9135 95.265 
L 404.64 95.265 
Q 407.52 95.265 407.52 92.385 
L 407.52 51.552 
Q 407.52 48.672 404.64 48.672 
L 153.9135 48.672 
Q 151.0335 48.672 151.0335 51.552 
L 151.0335 92.385 
Q 151.0335 95.265 153.9135 95.265 
z
" style="fill:#e5e5e5;opacity:0.8;stroke:#cccccc;stroke-linejoin:miter;stroke-width:0.5;"/>
    </g>
    <g id="patch_8">
     <path d="M 156.7935 65.37375 
L 185.5935 65.37375 
L 185.5935 55.29375 
L 156.7935 55.29375 
z
" style="fill:#90ee90;stroke:#90ee90;stroke-linejoin:miter;stroke-width:0.5;"/>
    </g>
    <g id="text_18">
     <!-- Standard VGG -->
     <defs>
      <path d="M 28.609375 0 
L 0.78125 72.90625 
L 11.078125 72.90625 
L 34.1875 11.53125 
L 57.328125 72.90625 
L 67.578125 72.90625 
L 39.796875 0 
z
" id="DejaVuSans-86"/>
     </defs>
     <g transform="translate(197.1135 65.37375)scale(0.144 -0.144)">
      <use xlink:href="#DejaVuSans-83"/>
      <use x="63.476562" xlink:href="#DejaVuSans-116"/>
      <use x="102.685547" xlink:href="#DejaVuSans-97"/>
      <use x="163.964844" xlink:href="#DejaVuSans-110"/>
      <use x="227.34375" xlink:href="#DejaVuSans-100"/>
      <use x="290.820312" xlink:href="#DejaVuSans-97"/>
      <use x="352.099609" xlink:href="#DejaVuSans-114"/>
      <use x="393.197266" xlink:href="#DejaVuSans-100"/>
      <use x="456.673828" xlink:href="#DejaVuSans-32"/>
      <use x="488.460938" xlink:href="#DejaVuSans-86"/>
      <use x="556.869141" xlink:href="#DejaVuSans-71"/>
      <use x="634.359375" xlink:href="#DejaVuSans-71"/>
     </g>
    </g>
    <g id="patch_9">
     <path d="M 156.7935 86.51025 
L 185.5935 86.51025 
L 185.5935 76.43025 
L 156.7935 76.43025 
z
" style="fill:#f08080;stroke:#f08080;stroke-linejoin:miter;stroke-width:0.5;"/>
    </g>
    <g id="text_19">
     <!-- Standard VGG + BatchNorm -->
     <defs>
      <path d="M 46 62.703125 
L 46 35.5 
L 73.1875 35.5 
L 73.1875 27.203125 
L 46 27.203125 
L 46 0 
L 37.796875 0 
L 37.796875 27.203125 
L 10.59375 27.203125 
L 10.59375 35.5 
L 37.796875 35.5 
L 37.796875 62.703125 
z
" id="DejaVuSans-43"/>
      <path d="M 19.671875 34.8125 
L 19.671875 8.109375 
L 35.5 8.109375 
Q 43.453125 8.109375 47.28125 11.40625 
Q 51.125 14.703125 51.125 21.484375 
Q 51.125 28.328125 47.28125 31.5625 
Q 43.453125 34.8125 35.5 34.8125 
z
M 19.671875 64.796875 
L 19.671875 42.828125 
L 34.28125 42.828125 
Q 41.5 42.828125 45.03125 45.53125 
Q 48.578125 48.25 48.578125 53.8125 
Q 48.578125 59.328125 45.03125 62.0625 
Q 41.5 64.796875 34.28125 64.796875 
z
M 9.8125 72.90625 
L 35.015625 72.90625 
Q 46.296875 72.90625 52.390625 68.21875 
Q 58.5 63.53125 58.5 54.890625 
Q 58.5 48.1875 55.375 44.234375 
Q 52.25 40.28125 46.1875 39.3125 
Q 53.46875 37.75 57.5 32.78125 
Q 61.53125 27.828125 61.53125 20.40625 
Q 61.53125 10.640625 54.890625 5.3125 
Q 48.25 0 35.984375 0 
L 9.8125 0 
z
" id="DejaVuSans-66"/>
      <path d="M 54.890625 33.015625 
L 54.890625 0 
L 45.90625 0 
L 45.90625 32.71875 
Q 45.90625 40.484375 42.875 44.328125 
Q 39.84375 48.1875 33.796875 48.1875 
Q 26.515625 48.1875 22.3125 43.546875 
Q 18.109375 38.921875 18.109375 30.90625 
L 18.109375 0 
L 9.078125 0 
L 9.078125 75.984375 
L 18.109375 75.984375 
L 18.109375 46.1875 
Q 21.34375 51.125 25.703125 53.5625 
Q 30.078125 56 35.796875 56 
Q 45.21875 56 50.046875 50.171875 
Q 54.890625 44.34375 54.890625 33.015625 
z
" id="DejaVuSans-104"/>
      <path d="M 9.8125 72.90625 
L 23.09375 72.90625 
L 55.421875 11.921875 
L 55.421875 72.90625 
L 64.984375 72.90625 
L 64.984375 0 
L 51.703125 0 
L 19.390625 60.984375 
L 19.390625 0 
L 9.8125 0 
z
" id="DejaVuSans-78"/>
      <path d="M 30.609375 48.390625 
Q 23.390625 48.390625 19.1875 42.75 
Q 14.984375 37.109375 14.984375 27.296875 
Q 14.984375 17.484375 19.15625 11.84375 
Q 23.34375 6.203125 30.609375 6.203125 
Q 37.796875 6.203125 41.984375 11.859375 
Q 46.1875 17.53125 46.1875 27.296875 
Q 46.1875 37.015625 41.984375 42.703125 
Q 37.796875 48.390625 30.609375 48.390625 
z
M 30.609375 56 
Q 42.328125 56 49.015625 48.375 
Q 55.71875 40.765625 55.71875 27.296875 
Q 55.71875 13.875 49.015625 6.21875 
Q 42.328125 -1.421875 30.609375 -1.421875 
Q 18.84375 -1.421875 12.171875 6.21875 
Q 5.515625 13.875 5.515625 27.296875 
Q 5.515625 40.765625 12.171875 48.375 
Q 18.84375 56 30.609375 56 
z
" id="DejaVuSans-111"/>
      <path d="M 52 44.1875 
Q 55.375 50.25 60.0625 53.125 
Q 64.75 56 71.09375 56 
Q 79.640625 56 84.28125 50.015625 
Q 88.921875 44.046875 88.921875 33.015625 
L 88.921875 0 
L 79.890625 0 
L 79.890625 32.71875 
Q 79.890625 40.578125 77.09375 44.375 
Q 74.3125 48.1875 68.609375 48.1875 
Q 61.625 48.1875 57.5625 43.546875 
Q 53.515625 38.921875 53.515625 30.90625 
L 53.515625 0 
L 44.484375 0 
L 44.484375 32.71875 
Q 44.484375 40.625 41.703125 44.40625 
Q 38.921875 48.1875 33.109375 48.1875 
Q 26.21875 48.1875 22.15625 43.53125 
Q 18.109375 38.875 18.109375 30.90625 
L 18.109375 0 
L 9.078125 0 
L 9.078125 54.6875 
L 18.109375 54.6875 
L 18.109375 46.1875 
Q 21.1875 51.21875 25.484375 53.609375 
Q 29.78125 56 35.6875 56 
Q 41.65625 56 45.828125 52.96875 
Q 50 49.953125 52 44.1875 
z
" id="DejaVuSans-109"/>
     </defs>
     <g transform="translate(197.1135 86.51025)scale(0.144 -0.144)">
      <use xlink:href="#DejaVuSans-83"/>
      <use x="63.476562" xlink:href="#DejaVuSans-116"/>
      <use x="102.685547" xlink:href="#DejaVuSans-97"/>
      <use x="163.964844" xlink:href="#DejaVuSans-110"/>
      <use x="227.34375" xlink:href="#DejaVuSans-100"/>
      <use x="290.820312" xlink:href="#DejaVuSans-97"/>
      <use x="352.099609" xlink:href="#DejaVuSans-114"/>
      <use x="393.197266" xlink:href="#DejaVuSans-100"/>
      <use x="456.673828" xlink:href="#DejaVuSans-32"/>
      <use x="488.460938" xlink:href="#DejaVuSans-86"/>
      <use x="556.869141" xlink:href="#DejaVuSans-71"/>
      <use x="634.359375" xlink:href="#DejaVuSans-71"/>
      <use x="711.849609" xlink:href="#DejaVuSans-32"/>
      <use x="743.636719" xlink:href="#DejaVuSans-43"/>
      <use x="827.425781" xlink:href="#DejaVuSans-32"/>
      <use x="859.212891" xlink:href="#DejaVuSans-66"/>
      <use x="927.816406" xlink:href="#DejaVuSans-97"/>
      <use x="989.095703" xlink:href="#DejaVuSans-116"/>
      <use x="1028.304688" xlink:href="#DejaVuSans-99"/>
      <use x="1083.285156" xlink:href="#DejaVuSans-104"/>
      <use x="1146.664062" xlink:href="#DejaVuSans-78"/>
      <use x="1221.46875" xlink:href="#DejaVuSans-111"/>
      <use x="1282.650391" xlink:href="#DejaVuSans-114"/>
      <use x="1323.748047" xlink:href="#DejaVuSans-109"/>
     </g>
    </g>
   </g>
  </g>
 </g>
 <defs>
  <clipPath id="p1982a42c1c">
   <rect height="266.112" width="357.12" x="57.6" y="41.472"/>
  </clipPath>
 </defs>
</svg>
