<?xml version="1.0" encoding="utf-8" standalone="no"?>
<!DOCTYPE svg PUBLIC "-//W3C//DTD SVG 1.1//EN"
  "http://www.w3.org/Graphics/SVG/1.1/DTD/svg11.dtd">
<!-- Created with matplotlib (https://matplotlib.org/) -->
<svg height="698.51625pt" version="1.1" viewBox="0 0 1038.525 698.51625" width="1038.525pt" xmlns="http://www.w3.org/2000/svg" xmlns:xlink="http://www.w3.org/1999/xlink">
 <defs>
  <style type="text/css">
*{stroke-linecap:butt;stroke-linejoin:round;}
  </style>
 </defs>
 <g id="figure_1">
  <g id="patch_1">
   <path d="M 0 698.51625 
L 1038.525 698.51625 
L 1038.525 0 
L 0 0 
z
" style="fill:none;"/>
  </g>
  <g id="axes_1">
   <g id="patch_2">
    <path d="M 26.925 674.638125 
L 1031.325 674.638125 
L 1031.325 22.318125 
L 26.925 22.318125 
z
" style="fill:#ffffff;"/>
   </g>
   <g id="matplotlib.axis_1">
    <g id="xtick_1">
     <g id="line2d_1">
      <defs>
       <path d="M 0 0 
L 0 3.5 
" id="m91734c3aad" style="stroke:#000000;stroke-width:0.8;"/>
      </defs>
      <g>
       <use style="stroke:#000000;stroke-width:0.8;" x="26.925" xlink:href="#m91734c3aad" y="674.638125"/>
      </g>
     </g>
     <g id="text_1">
      <!-- 0 -->
      <defs>
       <path d="M 31.78125 66.40625 
Q 24.171875 66.40625 20.328125 58.90625 
Q 16.5 51.421875 16.5 36.375 
Q 16.5 21.390625 20.328125 13.890625 
Q 24.171875 6.390625 31.78125 6.390625 
Q 39.453125 6.390625 43.28125 13.890625 
Q 47.125 21.390625 47.125 36.375 
Q 47.125 51.421875 43.28125 58.90625 
Q 39.453125 66.40625 31.78125 66.40625 
z
M 31.78125 74.21875 
Q 44.046875 74.21875 50.515625 64.515625 
Q 56.984375 54.828125 56.984375 36.375 
Q 56.984375 17.96875 50.515625 8.265625 
Q 44.046875 -1.421875 31.78125 -1.421875 
Q 19.53125 -1.421875 13.0625 8.265625 
Q 6.59375 17.96875 6.59375 36.375 
Q 6.59375 54.828125 13.0625 64.515625 
Q 19.53125 74.21875 31.78125 74.21875 
z
" id="DejaVuSans-48"/>
      </defs>
      <g transform="translate(23.74375 689.236562)scale(0.1 -0.1)">
       <use xlink:href="#DejaVuSans-48"/>
      </g>
     </g>
    </g>
    <g id="xtick_2">
     <g id="line2d_2">
      <g>
       <use style="stroke:#000000;stroke-width:0.8;" x="155.694231" xlink:href="#m91734c3aad" y="674.638125"/>
      </g>
     </g>
     <g id="text_2">
      <!-- 5 -->
      <defs>
       <path d="M 10.796875 72.90625 
L 49.515625 72.90625 
L 49.515625 64.59375 
L 19.828125 64.59375 
L 19.828125 46.734375 
Q 21.96875 47.46875 24.109375 47.828125 
Q 26.265625 48.1875 28.421875 48.1875 
Q 40.625 48.1875 47.75 41.5 
Q 54.890625 34.8125 54.890625 23.390625 
Q 54.890625 11.625 47.5625 5.09375 
Q 40.234375 -1.421875 26.90625 -1.421875 
Q 22.3125 -1.421875 17.546875 -0.640625 
Q 12.796875 0.140625 7.71875 1.703125 
L 7.71875 11.625 
Q 12.109375 9.234375 16.796875 8.0625 
Q 21.484375 6.890625 26.703125 6.890625 
Q 35.15625 6.890625 40.078125 11.328125 
Q 45.015625 15.765625 45.015625 23.390625 
Q 45.015625 31 40.078125 35.4375 
Q 35.15625 39.890625 26.703125 39.890625 
Q 22.75 39.890625 18.8125 39.015625 
Q 14.890625 38.140625 10.796875 36.28125 
z
" id="DejaVuSans-53"/>
      </defs>
      <g transform="translate(152.512981 689.236562)scale(0.1 -0.1)">
       <use xlink:href="#DejaVuSans-53"/>
      </g>
     </g>
    </g>
    <g id="xtick_3">
     <g id="line2d_3">
      <g>
       <use style="stroke:#000000;stroke-width:0.8;" x="284.463462" xlink:href="#m91734c3aad" y="674.638125"/>
      </g>
     </g>
     <g id="text_3">
      <!-- 10 -->
      <defs>
       <path d="M 12.40625 8.296875 
L 28.515625 8.296875 
L 28.515625 63.921875 
L 10.984375 60.40625 
L 10.984375 69.390625 
L 28.421875 72.90625 
L 38.28125 72.90625 
L 38.28125 8.296875 
L 54.390625 8.296875 
L 54.390625 0 
L 12.40625 0 
z
" id="DejaVuSans-49"/>
      </defs>
      <g transform="translate(278.100962 689.236562)scale(0.1 -0.1)">
       <use xlink:href="#DejaVuSans-49"/>
       <use x="63.623047" xlink:href="#DejaVuSans-48"/>
      </g>
     </g>
    </g>
    <g id="xtick_4">
     <g id="line2d_4">
      <g>
       <use style="stroke:#000000;stroke-width:0.8;" x="413.232692" xlink:href="#m91734c3aad" y="674.638125"/>
      </g>
     </g>
     <g id="text_4">
      <!-- 15 -->
      <g transform="translate(406.870192 689.236562)scale(0.1 -0.1)">
       <use xlink:href="#DejaVuSans-49"/>
       <use x="63.623047" xlink:href="#DejaVuSans-53"/>
      </g>
     </g>
    </g>
    <g id="xtick_5">
     <g id="line2d_5">
      <g>
       <use style="stroke:#000000;stroke-width:0.8;" x="542.001923" xlink:href="#m91734c3aad" y="674.638125"/>
      </g>
     </g>
     <g id="text_5">
      <!-- 20 -->
      <defs>
       <path d="M 19.1875 8.296875 
L 53.609375 8.296875 
L 53.609375 0 
L 7.328125 0 
L 7.328125 8.296875 
Q 12.9375 14.109375 22.625 23.890625 
Q 32.328125 33.6875 34.8125 36.53125 
Q 39.546875 41.84375 41.421875 45.53125 
Q 43.3125 49.21875 43.3125 52.78125 
Q 43.3125 58.59375 39.234375 62.25 
Q 35.15625 65.921875 28.609375 65.921875 
Q 23.96875 65.921875 18.8125 64.3125 
Q 13.671875 62.703125 7.8125 59.421875 
L 7.8125 69.390625 
Q 13.765625 71.78125 18.9375 73 
Q 24.125 74.21875 28.421875 74.21875 
Q 39.75 74.21875 46.484375 68.546875 
Q 53.21875 62.890625 53.21875 53.421875 
Q 53.21875 48.921875 51.53125 44.890625 
Q 49.859375 40.875 45.40625 35.40625 
Q 44.1875 33.984375 37.640625 27.21875 
Q 31.109375 20.453125 19.1875 8.296875 
z
" id="DejaVuSans-50"/>
      </defs>
      <g transform="translate(535.639423 689.236562)scale(0.1 -0.1)">
       <use xlink:href="#DejaVuSans-50"/>
       <use x="63.623047" xlink:href="#DejaVuSans-48"/>
      </g>
     </g>
    </g>
    <g id="xtick_6">
     <g id="line2d_6">
      <g>
       <use style="stroke:#000000;stroke-width:0.8;" x="670.771154" xlink:href="#m91734c3aad" y="674.638125"/>
      </g>
     </g>
     <g id="text_6">
      <!-- 25 -->
      <g transform="translate(664.408654 689.236562)scale(0.1 -0.1)">
       <use xlink:href="#DejaVuSans-50"/>
       <use x="63.623047" xlink:href="#DejaVuSans-53"/>
      </g>
     </g>
    </g>
    <g id="xtick_7">
     <g id="line2d_7">
      <g>
       <use style="stroke:#000000;stroke-width:0.8;" x="799.540385" xlink:href="#m91734c3aad" y="674.638125"/>
      </g>
     </g>
     <g id="text_7">
      <!-- 30 -->
      <defs>
       <path d="M 40.578125 39.3125 
Q 47.65625 37.796875 51.625 33 
Q 55.609375 28.21875 55.609375 21.1875 
Q 55.609375 10.40625 48.1875 4.484375 
Q 40.765625 -1.421875 27.09375 -1.421875 
Q 22.515625 -1.421875 17.65625 -0.515625 
Q 12.796875 0.390625 7.625 2.203125 
L 7.625 11.71875 
Q 11.71875 9.328125 16.59375 8.109375 
Q 21.484375 6.890625 26.8125 6.890625 
Q 36.078125 6.890625 40.9375 10.546875 
Q 45.796875 14.203125 45.796875 21.1875 
Q 45.796875 27.640625 41.28125 31.265625 
Q 36.765625 34.90625 28.71875 34.90625 
L 20.21875 34.90625 
L 20.21875 43.015625 
L 29.109375 43.015625 
Q 36.375 43.015625 40.234375 45.921875 
Q 44.09375 48.828125 44.09375 54.296875 
Q 44.09375 59.90625 40.109375 62.90625 
Q 36.140625 65.921875 28.71875 65.921875 
Q 24.65625 65.921875 20.015625 65.03125 
Q 15.375 64.15625 9.8125 62.3125 
L 9.8125 71.09375 
Q 15.4375 72.65625 20.34375 73.4375 
Q 25.25 74.21875 29.59375 74.21875 
Q 40.828125 74.21875 47.359375 69.109375 
Q 53.90625 64.015625 53.90625 55.328125 
Q 53.90625 49.265625 50.4375 45.09375 
Q 46.96875 40.921875 40.578125 39.3125 
z
" id="DejaVuSans-51"/>
      </defs>
      <g transform="translate(793.177885 689.236562)scale(0.1 -0.1)">
       <use xlink:href="#DejaVuSans-51"/>
       <use x="63.623047" xlink:href="#DejaVuSans-48"/>
      </g>
     </g>
    </g>
    <g id="xtick_8">
     <g id="line2d_8">
      <g>
       <use style="stroke:#000000;stroke-width:0.8;" x="928.309615" xlink:href="#m91734c3aad" y="674.638125"/>
      </g>
     </g>
     <g id="text_8">
      <!-- 35 -->
      <g transform="translate(921.947115 689.236562)scale(0.1 -0.1)">
       <use xlink:href="#DejaVuSans-51"/>
       <use x="63.623047" xlink:href="#DejaVuSans-53"/>
      </g>
     </g>
    </g>
   </g>
   <g id="matplotlib.axis_2">
    <g id="ytick_1">
     <g id="line2d_9">
      <defs>
       <path d="M 0 0 
L -3.5 0 
" id="md2e7356ec8" style="stroke:#000000;stroke-width:0.8;"/>
      </defs>
      <g>
       <use style="stroke:#000000;stroke-width:0.8;" x="26.925" xlink:href="#md2e7356ec8" y="674.638125"/>
      </g>
     </g>
     <g id="text_9">
      <!-- 0 -->
      <g transform="translate(13.5625 678.437344)scale(0.1 -0.1)">
       <use xlink:href="#DejaVuSans-48"/>
      </g>
     </g>
    </g>
    <g id="ytick_2">
     <g id="line2d_10">
      <g>
       <use style="stroke:#000000;stroke-width:0.8;" x="26.925" xlink:href="#md2e7356ec8" y="591.007356"/>
      </g>
     </g>
     <g id="text_10">
      <!-- 5 -->
      <g transform="translate(13.5625 594.806575)scale(0.1 -0.1)">
       <use xlink:href="#DejaVuSans-53"/>
      </g>
     </g>
    </g>
    <g id="ytick_3">
     <g id="line2d_11">
      <g>
       <use style="stroke:#000000;stroke-width:0.8;" x="26.925" xlink:href="#md2e7356ec8" y="507.376587"/>
      </g>
     </g>
     <g id="text_11">
      <!-- 10 -->
      <g transform="translate(7.2 511.175805)scale(0.1 -0.1)">
       <use xlink:href="#DejaVuSans-49"/>
       <use x="63.623047" xlink:href="#DejaVuSans-48"/>
      </g>
     </g>
    </g>
    <g id="ytick_4">
     <g id="line2d_12">
      <g>
       <use style="stroke:#000000;stroke-width:0.8;" x="26.925" xlink:href="#md2e7356ec8" y="423.745817"/>
      </g>
     </g>
     <g id="text_12">
      <!-- 15 -->
      <g transform="translate(7.2 427.545036)scale(0.1 -0.1)">
       <use xlink:href="#DejaVuSans-49"/>
       <use x="63.623047" xlink:href="#DejaVuSans-53"/>
      </g>
     </g>
    </g>
    <g id="ytick_5">
     <g id="line2d_13">
      <g>
       <use style="stroke:#000000;stroke-width:0.8;" x="26.925" xlink:href="#md2e7356ec8" y="340.115048"/>
      </g>
     </g>
     <g id="text_13">
      <!-- 20 -->
      <g transform="translate(7.2 343.914267)scale(0.1 -0.1)">
       <use xlink:href="#DejaVuSans-50"/>
       <use x="63.623047" xlink:href="#DejaVuSans-48"/>
      </g>
     </g>
    </g>
    <g id="ytick_6">
     <g id="line2d_14">
      <g>
       <use style="stroke:#000000;stroke-width:0.8;" x="26.925" xlink:href="#md2e7356ec8" y="256.484279"/>
      </g>
     </g>
     <g id="text_14">
      <!-- 25 -->
      <g transform="translate(7.2 260.283498)scale(0.1 -0.1)">
       <use xlink:href="#DejaVuSans-50"/>
       <use x="63.623047" xlink:href="#DejaVuSans-53"/>
      </g>
     </g>
    </g>
    <g id="ytick_7">
     <g id="line2d_15">
      <g>
       <use style="stroke:#000000;stroke-width:0.8;" x="26.925" xlink:href="#md2e7356ec8" y="172.85351"/>
      </g>
     </g>
     <g id="text_15">
      <!-- 30 -->
      <g transform="translate(7.2 176.652728)scale(0.1 -0.1)">
       <use xlink:href="#DejaVuSans-51"/>
       <use x="63.623047" xlink:href="#DejaVuSans-48"/>
      </g>
     </g>
    </g>
    <g id="ytick_8">
     <g id="line2d_16">
      <g>
       <use style="stroke:#000000;stroke-width:0.8;" x="26.925" xlink:href="#md2e7356ec8" y="89.22274"/>
      </g>
     </g>
     <g id="text_16">
      <!-- 35 -->
      <g transform="translate(7.2 93.021959)scale(0.1 -0.1)">
       <use xlink:href="#DejaVuSans-51"/>
       <use x="63.623047" xlink:href="#DejaVuSans-53"/>
      </g>
     </g>
    </g>
   </g>
   <g id="LineCollection_1"/>
   <g id="LineCollection_2">
    <path clip-path="url(#p7da6ecd550)" d="M 1031.325 459.853593 
L 1016.989287 457.198125 
L 1005.571154 454.851228 
L 979.817308 452.016401 
L 954.063462 448.794376 
L 928.309615 445.131619 
L 902.555769 441.19151 
L 896.541128 440.471971 
L 876.801923 436.303004 
L 851.048077 431.841253 
L 825.294231 427.963521 
L 802.479575 423.745817 
L 799.540385 423.278674 
L 773.786538 418.717236 
L 748.032692 415.103237 
L 722.278846 411.68596 
L 696.525 408.979016 
L 678.753187 407.019663 
L 670.771154 404.457096 
L 645.017308 396.188717 
L 625.74085 390.29351 
L 619.263462 388.925476 
L 593.509615 383.051592 
L 567.755769 378.821583 
L 542.001923 375.681074 
L 528.324781 373.567356 
L 516.248077 368.305363 
L 490.494231 359.134857 
L 483.458914 356.841202 
L 464.740385 352.531058 
L 438.986538 348.166768 
L 413.232692 345.001011 
L 387.478846 341.66401 
L 372.669374 340.115048 
L 361.725 337.314496 
L 335.971154 330.762454 
L 310.217308 325.601305 
L 299.572773 323.388894 
L 284.463462 320.289627 
L 258.709615 317.292396 
L 232.955769 314.141379 
L 207.201923 311.079666 
L 181.448077 308.251433 
L 169.38241 306.66274 
L 155.694231 301.601372 
L 129.940385 294.597751 
L 115.243712 289.936587 
L 104.186538 287.457539 
L 78.432692 282.185131 
L 52.678846 278.362419 
L 26.925 274.749502 
" style="fill:none;stroke:#46075a;stroke-width:1.5;"/>
    <path clip-path="url(#p7da6ecd550)" d="M 26.925 82.516938 
L 52.678846 85.768115 
L 78.432692 88.836525 
L 81.816689 89.22274 
L 104.186538 94.057498 
L 129.940385 99.712394 
L 155.694231 104.980036 
L 159.8971 105.948894 
L 181.448077 109.334623 
L 207.201923 113.516564 
L 232.955769 117.748744 
L 258.709615 120.883024 
L 276.581483 122.675048 
L 284.463462 124.807291 
L 310.217308 132.606635 
L 335.54523 139.401202 
L 335.971154 139.478951 
L 361.725 145.344483 
L 387.478846 149.501099 
L 413.232692 152.768809 
L 438.986538 155.95356 
L 440.269658 156.127356 
L 464.740385 163.960984 
L 490.494231 171.101949 
L 497.204017 172.85351 
L 516.248077 176.328207 
L 542.001923 180.139683 
L 567.755769 183.940718 
L 593.509615 187.595438 
L 608.28688 189.579663 
L 619.263462 193.305075 
L 645.017308 201.77078 
L 659.012845 206.305817 
L 670.771154 208.587678 
L 696.525 213.42856 
L 722.278846 217.913037 
L 748.032692 222.116537 
L 754.083932 223.031971 
L 773.786538 232.213658 
L 790.031262 239.758125 
L 799.540385 242.053447 
L 825.294231 247.946303 
L 851.048077 253.25907 
L 869.498072 256.484279 
L 876.801923 261.505569 
L 893.845223 273.210433 
L 902.555769 275.174551 
L 928.309615 280.878634 
L 954.063462 286.589549 
L 972.649652 289.936587 
L 979.817308 294.207795 
L 997.823048 306.66274 
L 1005.571154 309.042081 
L 1031.325 315.337006 
" style="fill:none;stroke:#46075a;stroke-width:1.5;"/>
   </g>
   <g id="LineCollection_3">
    <path clip-path="url(#p7da6ecd550)" d="M 1031.325 519.152622 
L 1005.571154 515.332508 
L 979.817308 512.090295 
L 954.063462 507.940898 
L 950.276899 507.376587 
L 928.309615 501.471481 
L 902.555769 495.352814 
L 881.165181 490.650433 
L 876.801923 489.912468 
L 851.048077 484.937144 
L 825.294231 480.925181 
L 799.540385 477.539106 
L 773.786538 474.097943 
L 772.319745 473.924279 
L 748.032692 464.959632 
L 731.39805 457.198125 
L 722.278846 455.008429 
L 696.525 449.134453 
L 670.771154 444.285615 
L 645.017308 440.606488 
L 644.117453 440.471971 
L 619.263462 430.651173 
L 600.251408 423.745817 
L 593.509615 422.203732 
L 567.755769 416.996075 
L 542.001923 412.893731 
L 516.248077 409.742094 
L 496.219247 407.019663 
L 490.494231 404.907037 
L 464.740385 395.632514 
L 448.062704 390.29351 
L 438.986538 388.352629 
L 413.232692 383.258895 
L 387.478846 379.616759 
L 361.725 375.918156 
L 340.36123 373.567356 
L 335.971154 372.514332 
L 310.217308 366.739609 
L 284.463462 362.014001 
L 258.709615 358.1282 
L 248.773156 356.841202 
L 232.955769 355.073699 
L 207.201923 351.238835 
L 181.448077 347.418337 
L 155.694231 344.62242 
L 129.940385 342.283111 
L 111.597967 340.115048 
L 104.186538 338.043434 
L 78.432692 331.950035 
L 52.678846 327.713819 
L 26.925 324.021406 
" style="fill:none;stroke:#470e61;stroke-width:1.5;"/>
    <path clip-path="url(#p7da6ecd550)" d="M 76.660933 22.318125 
L 78.432692 22.813453 
L 104.186538 31.073529 
L 129.879469 39.044279 
L 129.940385 39.054879 
L 155.694231 43.880455 
L 181.448077 48.388173 
L 207.201923 52.471967 
L 231.00318 55.770433 
L 232.955769 56.446496 
L 258.709615 65.671027 
L 279.652828 72.496587 
L 284.463462 73.399424 
L 310.217308 77.749762 
L 335.971154 82.150486 
L 361.725 86.195308 
L 384.529003 89.22274 
L 387.478846 90.137654 
L 413.232692 98.402153 
L 438.986538 105.903552 
L 439.136195 105.948894 
L 464.740385 110.732197 
L 490.494231 115.187727 
L 516.248077 119.314499 
L 542.001923 122.580834 
L 542.719094 122.675048 
L 567.755769 131.175779 
L 593.067211 139.401202 
L 593.509615 139.482195 
L 619.263462 144.54831 
L 645.017308 149.244133 
L 670.771154 153.558021 
L 688.185158 156.127356 
L 696.525 159.488518 
L 722.278846 169.972154 
L 728.99889 172.85351 
L 748.032692 177.031696 
L 773.786538 182.249413 
L 799.540385 186.678885 
L 819.144791 189.579663 
L 825.294231 192.390826 
L 851.048077 204.092799 
L 856.21244 206.305817 
L 876.801923 211.089426 
L 902.555769 216.525183 
L 928.309615 220.836056 
L 941.65463 223.031971 
L 954.063462 230.694876 
L 969.837084 239.758125 
L 979.817308 242.10197 
L 1005.571154 248.058445 
L 1031.325 253.490593 
" style="fill:none;stroke:#470e61;stroke-width:1.5;"/>
   </g>
   <g id="LineCollection_4">
    <path clip-path="url(#p7da6ecd550)" d="M 1031.325 548.289791 
L 1005.571154 544.567823 
L 980.981071 540.828894 
L 979.817308 540.478511 
L 954.063462 533.319161 
L 928.309615 526.084948 
L 922.385756 524.10274 
L 902.555769 520.693574 
L 876.801923 516.144814 
L 851.048077 511.981589 
L 825.294231 508.541354 
L 817.176037 507.376587 
L 799.540385 500.378731 
L 776.711488 490.650433 
L 773.786538 489.985173 
L 748.032692 484.70289 
L 722.278846 480.126963 
L 696.525 475.426275 
L 688.2877 473.924279 
L 670.771154 464.709218 
L 655.724764 457.198125 
L 645.017308 454.68363 
L 619.263462 449.487103 
L 593.509615 445.250233 
L 567.755769 440.799638 
L 565.835541 440.471971 
L 542.001923 431.941925 
L 516.248077 424.359918 
L 514.494044 423.745817 
L 490.494231 419.048276 
L 464.740385 414.98963 
L 438.986538 411.271916 
L 414.125058 407.019663 
L 413.232692 406.688932 
L 387.478846 399.124101 
L 361.725 393.090623 
L 349.383447 390.29351 
L 335.971154 388.220829 
L 310.217308 384.776197 
L 284.463462 381.916819 
L 258.709615 379.54085 
L 232.955769 376.991989 
L 209.442508 373.567356 
L 207.201923 373.066603 
L 181.448077 368.271804 
L 155.694231 362.492314 
L 129.940385 357.882027 
L 123.458481 356.841202 
L 104.186538 354.720848 
L 78.432692 350.530131 
L 52.678846 347.315708 
L 26.925 344.904437 
" style="fill:none;stroke:#481668;stroke-width:1.5;"/>
    <path clip-path="url(#p7da6ecd550)" d="M 218.329682 22.318125 
L 232.955769 27.392942 
L 258.709615 35.46336 
L 269.213476 39.044279 
L 284.463462 42.045775 
L 310.217308 46.693383 
L 335.971154 50.564696 
L 361.725 54.760736 
L 368.109549 55.770433 
L 387.478846 62.330027 
L 413.232692 70.576291 
L 419.180906 72.496587 
L 438.986538 76.310661 
L 464.740385 80.899553 
L 490.494231 85.068923 
L 516.248077 88.713122 
L 519.665049 89.22274 
L 542.001923 97.824764 
L 563.782815 105.948894 
L 567.755769 106.806658 
L 593.509615 112.316437 
L 619.263462 116.814609 
L 645.017308 120.855279 
L 656.589613 122.675048 
L 670.771154 128.764906 
L 695.455028 139.401202 
L 696.525 139.650363 
L 722.278846 145.604065 
L 748.032692 150.461342 
L 773.786538 154.780981 
L 781.176933 156.127356 
L 799.540385 165.296652 
L 815.061912 172.85351 
L 825.294231 175.260095 
L 851.048077 180.664719 
L 876.801923 185.268422 
L 902.423076 189.579663 
L 902.555769 189.641663 
L 928.309615 201.261124 
L 940.371472 206.305817 
L 954.063462 209.314009 
L 979.817308 214.919964 
L 1005.571154 219.664863 
L 1025.595571 223.031971 
L 1031.325 226.289902 
" style="fill:none;stroke:#481668;stroke-width:1.5;"/>
   </g>
   <g id="LineCollection_5">
    <path clip-path="url(#p7da6ecd550)" d="M 1031.325 575.288573 
L 1023.078536 574.281202 
L 1005.571154 568.282492 
L 979.817308 560.550527 
L 971.831985 557.555048 
L 954.063462 552.807186 
L 928.309615 547.575365 
L 902.555769 543.918907 
L 882.170583 540.828894 
L 876.801923 538.284306 
L 851.048077 526.079952 
L 846.616868 524.10274 
L 825.294231 519.304353 
L 799.540385 514.324961 
L 773.786538 510.042988 
L 757.103384 507.376587 
L 748.032692 503.255366 
L 722.278846 492.196958 
L 718.460627 490.650433 
L 696.525 485.798096 
L 670.771154 480.54582 
L 645.017308 476.151301 
L 632.458914 473.924279 
L 619.263462 467.153617 
L 595.72638 457.198125 
L 593.509615 456.795367 
L 567.755769 452.985978 
L 542.001923 448.354288 
L 516.248077 443.876506 
L 495.731213 440.471971 
L 490.494231 438.705917 
L 464.740385 429.94399 
L 441.752404 423.745817 
L 438.986538 423.353786 
L 413.232692 419.172521 
L 387.478846 415.582387 
L 361.725 412.016351 
L 335.971154 408.372056 
L 328.384451 407.019663 
L 310.217308 402.615997 
L 284.463462 398.557675 
L 258.709615 394.256453 
L 232.955769 391.555207 
L 224.723192 390.29351 
L 207.201923 388.414675 
L 181.448077 384.340528 
L 155.694231 380.954054 
L 129.940385 377.78146 
L 104.186538 374.382424 
L 99.526188 373.567356 
L 78.432692 368.337565 
L 52.678846 362.791495 
L 26.925 357.127438 
" style="fill:none;stroke:#481c6e;stroke-width:1.5;"/>
    <path clip-path="url(#p7da6ecd550)" d="M 316.230734 22.318125 
L 335.971154 29.657146 
L 360.262347 39.044279 
L 361.725 39.315579 
L 387.478846 44.391547 
L 413.232692 48.701238 
L 438.986538 52.888712 
L 453.823632 55.770433 
L 464.740385 59.968795 
L 490.494231 69.889189 
L 496.946274 72.496587 
L 516.248077 76.254485 
L 542.001923 80.775358 
L 567.755769 85.239337 
L 589.386927 89.22274 
L 593.509615 90.951139 
L 619.263462 101.542035 
L 629.732588 105.948894 
L 645.017308 108.998201 
L 670.771154 113.925884 
L 696.525 118.507445 
L 719.895971 122.675048 
L 722.278846 123.792575 
L 748.032692 136.224455 
L 754.83121 139.401202 
L 773.786538 143.398307 
L 799.540385 148.46887 
L 825.294231 153.431195 
L 839.323276 156.127356 
L 851.048077 161.984229 
L 874.348417 172.85351 
L 876.801923 173.358056 
L 902.555769 178.649626 
L 928.309615 183.379367 
L 954.063462 188.068362 
L 962.284891 189.579663 
L 979.817308 197.471179 
L 999.256534 206.305817 
L 1005.571154 207.700343 
L 1031.325 213.136863 
" style="fill:none;stroke:#481c6e;stroke-width:1.5;"/>
   </g>
   <g id="LineCollection_6">
    <path clip-path="url(#p7da6ecd550)" d="M 1031.325 585.169039 
L 1005.571154 580.907157 
L 979.817308 576.956795 
L 963.94655 574.281202 
L 954.063462 570.227668 
L 928.309615 559.216477 
L 924.646313 557.555048 
L 902.555769 552.507574 
L 876.801923 547.753014 
L 851.048077 543.055402 
L 839.141968 540.828894 
L 825.294231 534.250447 
L 802.660028 524.10274 
L 799.540385 523.408895 
L 773.786538 518.133168 
L 748.032692 513.510027 
L 722.278846 508.871575 
L 713.766743 507.376587 
L 696.525 500.132845 
L 673.226642 490.650433 
L 670.771154 490.113801 
L 645.017308 485.440282 
L 619.263462 481.174478 
L 593.509615 477.039422 
L 568.862268 473.924279 
L 567.755769 473.549022 
L 542.001923 462.554384 
L 525.483525 457.198125 
L 516.248077 455.550376 
L 490.494231 451.629721 
L 464.740385 447.440184 
L 438.986538 443.2785 
L 420.108913 440.471971 
L 413.232692 438.591716 
L 387.478846 433.294574 
L 361.725 427.032398 
L 341.875057 423.745817 
L 335.971154 423.17622 
L 310.217308 419.163822 
L 284.463462 414.978995 
L 258.709615 412.335661 
L 232.955769 410.006593 
L 207.201923 407.399074 
L 204.1451 407.019663 
L 181.448077 401.564577 
L 155.694231 396.691253 
L 129.940385 392.082015 
L 117.620563 390.29351 
L 104.186538 388.868183 
L 78.432692 384.462271 
L 52.678846 380.495437 
L 26.925 377.490451 
" style="fill:none;stroke:#482374;stroke-width:1.5;"/>
    <path clip-path="url(#p7da6ecd550)" d="M 398.109992 22.318125 
L 413.232692 29.238291 
L 434.900974 39.044279 
L 438.986538 39.744093 
L 464.740385 44.672632 
L 490.494231 49.931708 
L 516.248077 54.505859 
L 523.112624 55.770433 
L 542.001923 64.15141 
L 559.185891 72.496587 
L 567.755769 74.067824 
L 593.509615 78.685825 
L 619.263462 83.358661 
L 645.017308 88.377568 
L 649.250384 89.22274 
L 670.771154 99.134815 
L 684.817282 105.948894 
L 696.525 108.183902 
L 722.278846 112.850882 
L 748.032692 117.868368 
L 771.612533 122.675048 
L 773.786538 123.707155 
L 799.540385 135.486435 
L 807.761132 139.401202 
L 825.294231 143.036605 
L 851.048077 148.004367 
L 876.801923 152.795907 
L 892.818334 156.127356 
L 902.555769 160.945609 
L 926.925224 172.85351 
L 928.309615 173.127639 
L 954.063462 178.012689 
L 979.817308 182.928008 
L 1005.571154 187.763441 
L 1014.567673 189.579663 
L 1031.325 197.685554 
" style="fill:none;stroke:#482374;stroke-width:1.5;"/>
   </g>
   <g id="LineCollection_7">
    <path clip-path="url(#p7da6ecd550)" d="M 1031.325 597.488561 
L 1013.866629 591.007356 
L 1005.571154 589.363527 
L 979.817308 584.555648 
L 954.063462 580.155575 
L 928.309615 575.200821 
L 923.965369 574.281202 
L 902.555769 564.552349 
L 887.251106 557.555048 
L 876.801923 555.401874 
L 851.048077 550.263636 
L 825.294231 545.594206 
L 800.597097 540.828894 
L 799.540385 540.34673 
L 773.786538 528.465162 
L 763.854526 524.10274 
L 748.032692 520.982511 
L 722.278846 516.320517 
L 696.525 511.859663 
L 672.179134 507.376587 
L 670.771154 506.789738 
L 645.017308 497.932835 
L 619.263462 490.987027 
L 618.079029 490.650433 
L 593.509615 486.351757 
L 567.755769 482.447938 
L 542.001923 477.835842 
L 516.248077 474.453269 
L 510.833737 473.924279 
L 490.494231 468.417939 
L 464.740385 461.416535 
L 445.625828 457.198125 
L 438.986538 456.122442 
L 413.232692 451.052712 
L 387.478846 447.582082 
L 361.725 444.432099 
L 335.971154 441.612428 
L 326.803765 440.471971 
L 310.217308 435.856182 
L 284.463462 428.884248 
L 259.682712 423.745817 
L 258.709615 423.60324 
L 232.955769 420.375302 
L 207.201923 417.519222 
L 181.448077 413.991667 
L 155.694231 411.255956 
L 129.940385 408.804022 
L 112.519309 407.019663 
L 104.186538 405.086276 
L 78.432692 398.846563 
L 52.678846 393.098758 
L 40.054469 390.29351 
L 26.925 387.91637 
" style="fill:none;stroke:#482979;stroke-width:1.5;"/>
    <path clip-path="url(#p7da6ecd550)" d="M 466.1174 22.318125 
L 490.494231 34.486152 
L 500.084579 39.044279 
L 516.248077 42.219862 
L 542.001923 47.249081 
L 567.755769 52.011633 
L 588.222946 55.770433 
L 593.509615 58.379337 
L 619.263462 70.80528 
L 622.639085 72.496587 
L 645.017308 77.005088 
L 670.771154 82.091029 
L 696.525 87.267799 
L 706.214245 89.22274 
L 722.278846 97.060611 
L 740.009482 105.948894 
L 748.032692 107.482676 
L 773.786538 112.278647 
L 799.540385 117.552097 
L 825.294231 122.378753 
L 827.02403 122.675048 
L 851.048077 134.212092 
L 861.257478 139.401202 
L 876.801923 142.161522 
L 902.555769 146.949068 
L 928.309615 152.202488 
L 945.796051 156.127356 
L 954.063462 160.220214 
L 978.362506 172.85351 
L 979.817308 173.138895 
L 1005.571154 177.913401 
L 1031.325 182.553422 
" style="fill:none;stroke:#482979;stroke-width:1.5;"/>
   </g>
   <g id="LineCollection_8">
    <path clip-path="url(#p7da6ecd550)" d="M 1031.325 610.668424 
L 1015.550857 607.73351 
L 1005.571154 604.100545 
L 979.817308 593.802867 
L 973.263498 591.007356 
L 954.063462 587.679721 
L 928.309615 583.106643 
L 902.555769 577.678713 
L 884.760898 574.281202 
L 876.801923 570.770602 
L 851.455152 557.555048 
L 851.048077 557.471871 
L 825.294231 553.031362 
L 799.540385 548.407636 
L 773.786538 542.878778 
L 763.788881 540.828894 
L 748.032692 533.966586 
L 724.116086 524.10274 
L 722.278846 523.76946 
L 696.525 519.41361 
L 670.771154 514.982201 
L 645.017308 510.656595 
L 623.449086 507.376587 
L 619.263462 506.1127 
L 593.509615 498.46559 
L 567.755769 491.354755 
L 565.410952 490.650433 
L 542.001923 486.264058 
L 516.248077 481.978348 
L 490.494231 479.032691 
L 464.740385 475.862589 
L 451.954953 473.924279 
L 438.986538 469.911945 
L 413.232692 462.896568 
L 387.478846 457.337395 
L 386.885449 457.198125 
L 361.725 452.839789 
L 335.971154 449.288949 
L 310.217308 445.846015 
L 284.463462 442.402727 
L 267.443686 440.471971 
L 258.709615 438.391494 
L 232.955769 432.959229 
L 207.201923 428.365966 
L 182.074679 423.745817 
L 181.448077 423.653124 
L 155.694231 419.751204 
L 129.940385 416.046892 
L 104.186538 412.920256 
L 78.432692 409.858445 
L 57.088254 407.019663 
L 52.678846 405.894577 
L 26.925 400.082011 
" style="fill:none;stroke:#472f7d;stroke-width:1.5;"/>
    <path clip-path="url(#p7da6ecd550)" d="M 523.356234 22.318125 
L 542.001923 31.120303 
L 560.698741 39.044279 
L 567.755769 40.402059 
L 593.509615 45.065208 
L 619.263462 49.815626 
L 645.017308 55.264609 
L 647.216988 55.770433 
L 670.771154 67.817698 
L 679.616215 72.496587 
L 696.525 76.005439 
L 722.278846 80.981496 
L 748.032692 85.685802 
L 763.924829 89.22274 
L 773.786538 94.317616 
L 796.809898 105.948894 
L 799.540385 106.495859 
L 825.294231 111.521976 
L 851.048077 115.865003 
L 876.801923 121.039373 
L 884.308862 122.675048 
L 902.555769 130.882283 
L 922.928535 139.401202 
L 928.309615 140.439732 
L 954.063462 145.620742 
L 979.817308 150.88172 
L 1005.571154 155.831287 
L 1007.190126 156.127356 
L 1031.325 169.015764 
" style="fill:none;stroke:#472f7d;stroke-width:1.5;"/>
   </g>
   <g id="LineCollection_9">
    <path clip-path="url(#p7da6ecd550)" d="M 1031.325 618.975085 
L 1005.571154 614.365531 
L 979.817308 609.834251 
L 968.466293 607.73351 
L 954.063462 601.704826 
L 928.309615 591.018424 
L 928.284944 591.007356 
L 902.555769 585.640342 
L 876.801923 580.307388 
L 851.048077 575.972882 
L 840.207557 574.281202 
L 825.294231 566.505969 
L 807.457833 557.555048 
L 799.540385 556.20001 
L 773.786538 550.851539 
L 748.032692 545.418021 
L 722.278846 541.273762 
L 719.81686 540.828894 
L 696.525 530.642278 
L 678.346044 524.10274 
L 670.771154 522.858133 
L 645.017308 518.274357 
L 619.263462 513.865335 
L 593.509615 510.032847 
L 576.124531 507.376587 
L 567.755769 504.865392 
L 542.001923 496.815932 
L 522.459477 490.650433 
L 516.248077 489.503428 
L 490.494231 485.974202 
L 464.740385 482.661823 
L 438.986538 478.882092 
L 413.232692 474.641621 
L 408.627141 473.924279 
L 387.478846 468.729022 
L 361.725 462.832889 
L 337.495827 457.198125 
L 335.971154 456.96547 
L 310.217308 453.195595 
L 284.463462 449.466999 
L 258.709615 446.317661 
L 232.955769 443.439977 
L 207.657704 440.471971 
L 207.201923 440.374687 
L 181.448077 434.922073 
L 155.694231 429.387743 
L 132.676149 423.745817 
L 129.940385 423.289762 
L 104.186538 419.609043 
L 78.432692 416.528199 
L 52.678846 413.356226 
L 26.925 409.944543 
" style="fill:none;stroke:#453581;stroke-width:1.5;"/>
    <path clip-path="url(#p7da6ecd550)" d="M 591.293291 22.318125 
L 593.509615 23.293113 
L 619.263462 34.922636 
L 628.871055 39.044279 
L 645.017308 42.357243 
L 670.771154 48.536674 
L 696.525 53.202806 
L 712.036846 55.770433 
L 722.278846 61.981052 
L 741.112218 72.496587 
L 748.032692 73.673932 
L 773.786538 78.615448 
L 799.540385 84.43431 
L 825.294231 89.211716 
L 825.356097 89.22274 
L 851.048077 102.318372 
L 858.804199 105.948894 
L 876.801923 108.693532 
L 902.555769 113.343243 
L 928.309615 118.786855 
L 948.224053 122.675048 
L 954.063462 124.805809 
L 979.817308 135.293359 
L 990.309513 139.401202 
L 1005.571154 141.792153 
L 1031.325 146.078666 
" style="fill:none;stroke:#453581;stroke-width:1.5;"/>
   </g>
   <g id="LineCollection_10">
    <path clip-path="url(#p7da6ecd550)" d="M 1031.325 633.827699 
L 1014.548764 624.459663 
L 1005.571154 622.906805 
L 979.817308 618.31459 
L 954.063462 613.687074 
L 928.309615 607.959955 
L 927.358138 607.73351 
L 902.555769 596.764355 
L 891.549768 591.007356 
L 876.801923 587.755057 
L 851.048077 582.811892 
L 825.294231 578.733085 
L 803.11848 574.281202 
L 799.540385 572.372011 
L 773.786538 560.052969 
L 768.1876 557.555048 
L 748.032692 553.13348 
L 722.278846 548.398085 
L 696.525 543.646658 
L 680.216819 540.828894 
L 670.771154 537.154515 
L 645.017308 527.664391 
L 636.131221 524.10274 
L 619.263462 520.945714 
L 593.509615 516.912245 
L 567.755769 512.888733 
L 542.001923 508.614049 
L 534.367317 507.376587 
L 516.248077 501.800918 
L 490.494231 494.778308 
L 473.727768 490.650433 
L 464.740385 489.461056 
L 438.986538 485.856653 
L 413.232692 481.864306 
L 387.478846 477.663421 
L 361.725 474.268869 
L 359.230484 473.924279 
L 335.971154 468.350532 
L 310.217308 462.375344 
L 288.885241 457.198125 
L 284.463462 456.53127 
L 258.709615 453.117003 
L 232.955769 450.040683 
L 207.201923 446.894955 
L 181.448077 443.873632 
L 157.609125 440.471971 
L 155.694231 440.037252 
L 129.940385 434.29165 
L 104.186538 428.223719 
L 82.995045 423.745817 
L 78.432692 423.197954 
L 52.678846 420.303648 
L 26.925 416.40347 
" style="fill:none;stroke:#443b84;stroke-width:1.5;"/>
    <path clip-path="url(#p7da6ecd550)" d="M 646.332861 22.318125 
L 670.771154 33.75377 
L 681.852435 39.044279 
L 696.525 42.441523 
L 722.278846 47.543351 
L 748.032692 51.985043 
L 770.570837 55.770433 
L 773.786538 57.422986 
L 799.540385 69.048884 
L 808.643876 72.496587 
L 825.294231 75.963338 
L 851.048077 81.003728 
L 876.801923 85.627059 
L 901.892246 89.22274 
L 902.555769 89.522465 
L 928.309615 100.730827 
L 945.024108 105.948894 
L 954.063462 107.50453 
L 979.817308 112.821964 
L 1005.571154 117.588977 
L 1031.325 121.376278 
" style="fill:none;stroke:#443b84;stroke-width:1.5;"/>
   </g>
   <g id="LineCollection_11">
    <path clip-path="url(#p7da6ecd550)" d="M 1031.325 648.935634 
L 1005.571154 644.076744 
L 993.333477 641.185817 
L 979.817308 632.535909 
L 966.075019 624.459663 
L 954.063462 622.369794 
L 928.309615 617.466204 
L 902.555769 611.758623 
L 886.20991 607.73351 
L 876.801923 603.063963 
L 857.754585 591.007356 
L 851.048077 589.650901 
L 825.294231 585.481328 
L 799.540385 581.159183 
L 773.786538 575.129345 
L 770.720017 574.281202 
L 748.032692 563.951004 
L 732.595486 557.555048 
L 722.278846 555.522408 
L 696.525 550.531895 
L 670.771154 546.26187 
L 645.017308 541.86392 
L 639.962934 540.828894 
L 619.263462 532.576036 
L 595.452804 524.10274 
L 593.509615 523.791644 
L 567.755769 519.659314 
L 542.001923 515.543577 
L 516.248077 511.473605 
L 490.494231 507.409261 
L 490.277395 507.376587 
L 464.740385 501.282085 
L 438.986538 494.360992 
L 423.768189 490.650433 
L 413.232692 489.086991 
L 387.478846 484.537594 
L 361.725 480.898676 
L 335.971154 477.374338 
L 310.987423 473.924279 
L 310.217308 473.743681 
L 284.463462 467.468762 
L 258.709615 461.457611 
L 237.44267 457.198125 
L 232.955769 456.641389 
L 207.201923 453.370397 
L 181.448077 450.56738 
L 155.694231 447.169908 
L 129.940385 443.558016 
L 106.457553 440.471971 
L 104.186538 439.960233 
L 78.432692 434.11882 
L 52.678846 429.205978 
L 32.417599 423.745817 
L 26.925 422.862396 
" style="fill:none;stroke:#424186;stroke-width:1.5;"/>
    <path clip-path="url(#p7da6ecd550)" d="M 692.866954 22.318125 
L 696.525 24.073435 
L 722.278846 36.364575 
L 728.72551 39.044279 
L 748.032692 42.664426 
L 773.786538 47.442522 
L 799.540385 52.119831 
L 822.388708 55.770433 
L 825.294231 56.971042 
L 851.048077 66.54437 
L 868.051275 72.496587 
L 876.801923 74.366368 
L 902.555769 79.578591 
L 928.309615 83.862212 
L 954.063462 87.526966 
L 966.037918 89.22274 
L 979.817308 94.440714 
L 1005.571154 103.599389 
L 1012.643931 105.948894 
L 1031.325 109.953544 
" style="fill:none;stroke:#424186;stroke-width:1.5;"/>
   </g>
   <g id="LineCollection_12">
    <path clip-path="url(#p7da6ecd550)" d="M 1031.325 662.239207 
L 1022.266653 657.911971 
L 1005.571154 654.902713 
L 979.817308 650.075459 
L 954.063462 643.987493 
L 943.122069 641.185817 
L 928.309615 632.821595 
L 913.52486 624.459663 
L 902.555769 622.377231 
L 876.801923 617.067541 
L 851.048077 612.019292 
L 834.090116 607.73351 
L 825.294231 600.290063 
L 815.166128 591.007356 
L 799.540385 588.856508 
L 773.786538 584.229653 
L 748.032692 578.129219 
L 733.589896 574.281202 
L 722.278846 570.035206 
L 697.227123 557.555048 
L 696.525 557.417133 
L 670.771154 553.382743 
L 645.017308 549.717909 
L 619.263462 545.408591 
L 600.110513 540.828894 
L 593.509615 538.445773 
L 567.755769 529.649561 
L 552.464387 524.10274 
L 542.001923 522.473106 
L 516.248077 518.584266 
L 490.494231 515.545404 
L 464.740385 512.109132 
L 442.982099 507.376587 
L 438.986538 506.228073 
L 413.232692 499.596093 
L 387.478846 492.268565 
L 382.575005 490.650433 
L 361.725 487.528483 
L 335.971154 484.068708 
L 310.217308 481.070495 
L 284.463462 477.32558 
L 265.998989 473.924279 
L 258.709615 472.112269 
L 232.955769 467.218022 
L 207.201923 462.110557 
L 181.448077 457.309193 
L 180.903979 457.198125 
L 155.694231 454.152894 
L 129.940385 450.402857 
L 104.186538 446.965874 
L 78.432692 443.479292 
L 54.885036 440.471971 
L 52.678846 440.028036 
L 26.925 433.169126 
" style="fill:none;stroke:#3f4788;stroke-width:1.5;"/>
    <path clip-path="url(#p7da6ecd550)" d="M 735.739348 22.318125 
L 748.032692 27.728744 
L 773.786538 38.197188 
L 775.742684 39.044279 
L 799.540385 43.98907 
L 825.294231 48.355881 
L 851.048077 52.658749 
L 869.291106 55.770433 
L 876.801923 58.62025 
L 902.555769 68.041739 
L 914.831112 72.496587 
L 928.309615 75.109434 
L 954.063462 79.748948 
L 979.817308 84.000906 
L 1005.571154 88.017675 
L 1013.686202 89.22274 
L 1031.325 95.678379 
" style="fill:none;stroke:#3f4788;stroke-width:1.5;"/>
   </g>
   <g id="LineCollection_13">
    <path clip-path="url(#p7da6ecd550)" d="M 992.204662 674.638125 
L 979.817308 668.617771 
L 954.063462 658.90278 
L 951.512862 657.911971 
L 928.309615 653.460084 
L 902.555769 649.859742 
L 876.801923 645.577015 
L 851.048077 641.435975 
L 849.352482 641.185817 
L 825.294231 627.624365 
L 819.434755 624.459663 
L 799.540385 619.849485 
L 773.786538 608.998021 
L 766.653595 607.73351 
L 751.451169 591.007356 
L 748.032692 590.523217 
L 722.278846 586.750689 
L 696.525 580.927569 
L 674.487833 574.281202 
L 670.771154 572.466435 
L 645.017308 557.698032 
L 644.769519 557.555048 
L 619.263462 555.357977 
L 593.509615 552.196324 
L 567.755769 545.78988 
L 545.440921 540.828894 
L 542.001923 539.853712 
L 516.248077 531.864219 
L 495.330314 524.10274 
L 490.494231 523.681548 
L 464.740385 521.088702 
L 438.986538 516.321126 
L 413.232692 510.979883 
L 389.967235 507.376587 
L 387.478846 506.87885 
L 361.725 500.482668 
L 335.971154 490.983438 
L 334.681751 490.650433 
L 310.217308 488.332068 
L 284.463462 485.221039 
L 258.709615 481.320229 
L 232.955769 477.423752 
L 207.201923 474.066556 
L 206.189984 473.924279 
L 181.448077 469.109737 
L 155.694231 464.2132 
L 129.940385 457.292135 
L 129.57765 457.198125 
L 104.186538 453.755834 
L 78.432692 450.34784 
L 52.678846 447.053502 
L 26.925 442.896867 
" style="fill:none;stroke:#3d4d8a;stroke-width:1.5;"/>
    <path clip-path="url(#p7da6ecd550)" d="M 776.521681 22.318125 
L 799.540385 31.930778 
L 817.060448 39.044279 
L 825.294231 40.492355 
L 851.048077 45.178763 
L 876.801923 49.933471 
L 902.555769 54.106386 
L 912.703073 55.770433 
L 928.309615 61.709397 
L 954.063462 71.538085 
L 956.487652 72.496587 
L 979.817308 77.030241 
L 1005.571154 81.600853 
L 1031.325 85.601912 
" style="fill:none;stroke:#3d4d8a;stroke-width:1.5;"/>
   </g>
   <g id="LineCollection_14">
    <path clip-path="url(#p7da6ecd550)" d="M 691.761484 674.638125 
L 689.511858 657.911971 
L 696.525 656.54421 
L 722.278846 657.824533 
L 723.30711 657.911971 
L 748.032692 660.355123 
L 773.786538 665.133024 
L 799.540385 674.180197 
L 800.556218 674.638125 
" style="fill:none;stroke:#3b528b;stroke-width:1.5;"/>
    <path clip-path="url(#p7da6ecd550)" d="M 861.649965 674.638125 
L 851.048077 665.459392 
L 842.693291 657.911971 
L 825.294231 656.006293 
L 799.540385 653.556835 
L 773.786538 645.731507 
L 769.391021 641.185817 
L 748.032692 626.791904 
L 745.584364 624.459663 
L 722.278846 617.597222 
L 696.525 613.208335 
L 676.354226 607.73351 
L 670.771154 601.535855 
L 661.275776 591.007356 
L 645.017308 586.032641 
L 619.263462 581.673298 
L 593.509615 576.714263 
L 581.833263 574.281202 
L 567.755769 566.587601 
L 551.420372 557.555048 
L 542.001923 555.195816 
L 516.248077 550.789029 
L 490.494231 545.519747 
L 467.873029 540.828894 
L 464.740385 539.705313 
L 438.986538 530.590025 
L 424.244531 524.10274 
L 413.232692 522.292582 
L 387.478846 518.309407 
L 361.725 514.398723 
L 335.971154 509.279658 
L 323.938634 507.376587 
L 310.217308 503.641222 
L 284.463462 496.805348 
L 262.077097 490.650433 
L 258.709615 490.231736 
L 232.955769 486.46264 
L 207.201923 482.592843 
L 181.448077 479.063016 
L 155.694231 475.84471 
L 144.410781 473.924279 
L 129.940385 470.272455 
L 104.186538 463.94473 
L 78.432692 457.24089 
L 78.290274 457.198125 
L 52.678846 453.916565 
L 26.925 450.222373 
" style="fill:none;stroke:#3b528b;stroke-width:1.5;"/>
    <path clip-path="url(#p7da6ecd550)" d="M 818.031382 22.318125 
L 825.294231 25.40711 
L 851.048077 36.234136 
L 857.429769 39.044279 
L 876.801923 42.890199 
L 902.555769 47.479619 
L 928.309615 51.802269 
L 950.09681 55.770433 
L 954.063462 57.355344 
L 979.817308 67.719761 
L 991.534553 72.496587 
L 1005.571154 75.184032 
L 1031.325 79.483622 
" style="fill:none;stroke:#3b528b;stroke-width:1.5;"/>
   </g>
   <g id="LineCollection_15">
    <path clip-path="url(#p7da6ecd550)" d="M 642.880259 674.638125 
L 619.263462 659.326202 
L 617.428224 657.911971 
L 593.509615 648.108834 
L 567.755769 643.16795 
L 555.252766 641.185817 
L 567.755769 629.915398 
L 593.509615 626.746196 
L 619.263462 629.376745 
L 645.017308 630.144097 
L 668.320638 624.459663 
L 645.017308 618.761075 
L 620.307677 607.73351 
L 619.263462 606.823531 
L 601.160531 591.007356 
L 593.509615 589.407214 
L 567.755769 585.050374 
L 542.001923 580.013229 
L 520.656861 574.281202 
L 516.248077 572.202024 
L 490.494231 561.016258 
L 484.625098 557.555048 
L 464.740385 552.739163 
L 438.986538 548.357316 
L 413.232692 544.12273 
L 399.171555 540.828894 
L 387.478846 535.58782 
L 361.725 526.674837 
L 354.525428 524.10274 
L 335.971154 520.366784 
L 310.217308 515.398141 
L 284.463462 511.801886 
L 258.709615 508.174944 
L 254.540334 507.376587 
L 232.955769 500.016872 
L 207.201923 491.605295 
L 203.570927 490.650433 
L 181.448077 487.743216 
L 155.694231 484.598835 
L 129.940385 480.440184 
L 104.186538 476.328818 
L 81.548292 473.924279 
L 78.432692 473.325041 
L 52.678846 465.631097 
L 26.925 457.919497 
" style="fill:none;stroke:#39568c;stroke-width:1.5;"/>
    <path clip-path="url(#p7da6ecd550)" d="M 854.914227 22.318125 
L 876.801923 31.963249 
L 892.886024 39.044279 
L 902.555769 40.852851 
L 928.309615 45.337283 
L 954.063462 49.863488 
L 979.817308 54.871266 
L 984.372203 55.770433 
L 1005.571154 64.152487 
L 1026.268392 72.496587 
L 1031.325 73.365333 
" style="fill:none;stroke:#39568c;stroke-width:1.5;"/>
   </g>
   <g id="LineCollection_16">
    <path clip-path="url(#p7da6ecd550)" d="M 605.769188 674.638125 
L 593.509615 665.498442 
L 584.480947 657.911971 
L 567.755769 652.196717 
L 542.001923 646.452178 
L 516.248077 641.507259 
L 514.586219 641.185817 
L 501.482202 624.459663 
L 490.494231 618.915717 
L 464.740385 611.074622 
L 445.930558 607.73351 
L 438.986538 596.256013 
L 436.265084 591.007356 
L 431.419926 574.281202 
L 421.621678 557.555048 
L 413.232692 556.418551 
L 387.478846 552.81348 
L 361.725 547.601564 
L 345.188365 540.828894 
L 335.971154 537.637523 
L 310.217308 527.799685 
L 302.334706 524.10274 
L 284.463462 521.348474 
L 258.709615 517.975898 
L 232.955769 514.096118 
L 207.201923 508.565377 
L 201.172363 507.376587 
L 181.448077 502.163525 
L 155.694231 496.004503 
L 137.410399 490.650433 
L 129.940385 489.50687 
L 104.186538 485.211201 
L 78.432692 481.697391 
L 52.678846 477.70485 
L 29.721248 473.924279 
L 26.925 473.028435 
" style="fill:none;stroke:#365c8d;stroke-width:1.5;"/>
    <path clip-path="url(#p7da6ecd550)" d="M 890.984198 22.318125 
L 902.555769 27.333683 
L 928.309615 38.586121 
L 929.357927 39.044279 
L 954.063462 43.2134 
L 979.817308 47.703418 
L 1005.571154 52.58767 
L 1021.122345 55.770433 
L 1031.325 59.80815 
" style="fill:none;stroke:#365c8d;stroke-width:1.5;"/>
   </g>
   <g id="LineCollection_17">
    <path clip-path="url(#p7da6ecd550)" d="M 578.147985 674.638125 
L 567.755769 665.936026 
L 558.639189 657.911971 
L 542.001923 653.315372 
L 516.248077 647.248007 
L 490.494231 642.167235 
L 486.209872 641.185817 
L 468.058295 624.459663 
L 464.740385 623.118817 
L 438.986538 615.085259 
L 413.232692 610.081342 
L 399.709019 607.73351 
L 387.478846 594.210828 
L 384.591827 591.007356 
L 361.725 583.102198 
L 335.971154 578.012865 
L 313.76896 574.281202 
L 310.217308 569.517064 
L 299.216825 557.555048 
L 284.463462 551.169657 
L 258.709615 544.43851 
L 238.279511 540.828894 
L 232.955769 536.060929 
L 222.50207 524.10274 
L 207.201923 521.479045 
L 181.448077 516.365314 
L 155.694231 511.212036 
L 132.273811 507.376587 
L 129.940385 506.744833 
L 104.186538 498.318531 
L 84.080356 490.650433 
L 78.432692 489.771309 
L 52.678846 485.471042 
L 26.925 480.754516 
" style="fill:none;stroke:#34618d;stroke-width:1.5;"/>
    <path clip-path="url(#p7da6ecd550)" d="M 930.658769 22.318125 
L 954.063462 32.30088 
L 970.596999 39.044279 
L 979.817308 40.535569 
L 1005.571154 44.939905 
L 1031.325 49.783105 
" style="fill:none;stroke:#34618d;stroke-width:1.5;"/>
   </g>
   <g id="LineCollection_18">
    <path clip-path="url(#p7da6ecd550)" d="M 554.745882 674.638125 
L 542.001923 663.916561 
L 534.841642 657.911971 
L 516.248077 652.988755 
L 490.494231 647.380094 
L 464.740385 641.490396 
L 463.523023 641.185817 
L 442.589361 624.459663 
L 438.986538 623.275796 
L 413.232692 616.083057 
L 387.478846 611.307066 
L 370.793156 607.73351 
L 361.725 599.187781 
L 351.806652 591.007356 
L 335.971154 586.468661 
L 310.217308 580.70874 
L 284.463462 576.001239 
L 276.401707 574.281202 
L 258.709615 562.075674 
L 250.890482 557.555048 
L 232.955769 551.591956 
L 207.201923 545.443601 
L 183.546589 540.828894 
L 181.448077 539.213237 
L 162.978236 524.10274 
L 155.694231 522.35228 
L 129.940385 517.030542 
L 104.186538 512.880717 
L 82.130624 507.376587 
L 78.432692 505.828508 
L 52.678846 496.451131 
L 40.354161 490.650433 
L 26.925 488.015259 
" style="fill:none;stroke:#31668e;stroke-width:1.5;"/>
    <path clip-path="url(#p7da6ecd550)" d="M 976.916718 22.318125 
L 979.817308 23.437931 
L 1005.571154 34.170133 
L 1016.641543 39.044279 
L 1031.325 41.547039 
" style="fill:none;stroke:#31668e;stroke-width:1.5;"/>
   </g>
   <g id="LineCollection_19">
    <path clip-path="url(#p7da6ecd550)" d="M 533.212291 674.638125 
L 516.248077 660.461363 
L 513.093918 657.911971 
L 490.494231 652.592954 
L 464.740385 646.875349 
L 442.000093 641.185817 
L 438.986538 638.833243 
L 421.377806 624.459663 
L 413.232692 622.084772 
L 387.478846 616.836979 
L 361.725 611.51224 
L 346.203532 607.73351 
L 335.971154 599.703947 
L 323.444489 591.007356 
L 310.217308 587.624507 
L 284.463462 582.128378 
L 258.709615 576.534398 
L 246.553833 574.281202 
L 232.955769 566.35328 
L 216.299811 557.555048 
L 207.201923 555.053208 
L 181.448077 548.66393 
L 155.694231 543.664221 
L 136.142287 540.828894 
L 129.940385 535.519631 
L 111.000185 524.10274 
L 104.186538 523.034128 
L 78.432692 517.473922 
L 52.678846 510.78935 
L 29.448843 507.376587 
L 26.925 506.377138 
" style="fill:none;stroke:#2f6b8e;stroke-width:1.5;"/>
    <path clip-path="url(#p7da6ecd550)" d="M 1027.684176 22.318125 
L 1031.325 23.904146 
" style="fill:none;stroke:#2f6b8e;stroke-width:1.5;"/>
   </g>
   <g id="LineCollection_20">
    <path clip-path="url(#p7da6ecd550)" d="M 511.55417 674.638125 
L 490.945281 657.911971 
L 490.494231 657.805813 
L 464.740385 652.260301 
L 438.986538 645.959555 
L 418.707955 641.185817 
L 413.232692 636.542908 
L 397.396417 624.459663 
L 387.478846 622.366892 
L 361.725 617.336444 
L 335.971154 611.151004 
L 321.988147 607.73351 
L 310.217308 599.615625 
L 296.512388 591.007356 
L 284.463462 588.255518 
L 258.709615 582.403154 
L 232.955769 577.577618 
L 216.438553 574.281202 
L 207.201923 569.240731 
L 184.143066 557.555048 
L 181.448077 556.8476 
L 155.694231 550.274787 
L 129.940385 545.500229 
L 104.186538 541.762669 
L 99.139895 540.828894 
L 78.432692 529.708747 
L 66.315093 524.10274 
L 52.678846 519.947602 
L 26.925 513.859753 
" style="fill:none;stroke:#2d708e;stroke-width:1.5;"/>
   </g>
   <g id="LineCollection_21">
    <path clip-path="url(#p7da6ecd550)" d="M 489.132421 674.638125 
L 465.97983 657.911971 
L 464.740385 657.645253 
L 438.986538 651.510516 
L 413.232692 645.111216 
L 391.84016 641.185817 
L 387.478846 637.820914 
L 368.526002 624.459663 
L 361.725 623.160648 
L 335.971154 617.122657 
L 310.217308 611.004192 
L 295.563102 607.73351 
L 284.463462 600.774007 
L 270.513136 591.007356 
L 258.709615 588.27191 
L 232.955769 583.355572 
L 207.201923 578.207205 
L 189.559469 574.281202 
L 181.448077 570.012078 
L 158.265068 557.555048 
L 155.694231 556.885353 
L 129.940385 550.907181 
L 104.186538 546.553481 
L 78.432692 541.838703 
L 73.717583 540.828894 
L 52.678846 530.448925 
L 39.434317 524.10274 
L 26.925 520.616473 
" style="fill:none;stroke:#2b748e;stroke-width:1.5;"/>
   </g>
   <g id="LineCollection_22">
    <path clip-path="url(#p7da6ecd550)" d="M 468.617333 674.638125 
L 464.740385 671.864055 
L 442.561733 657.911971 
L 438.986538 657.061477 
L 413.232692 650.223729 
L 387.478846 645.245343 
L 365.073424 641.185817 
L 361.725 638.850982 
L 341.826693 624.459663 
L 335.971154 623.094309 
L 310.217308 617.315185 
L 284.463462 611.346301 
L 267.514289 607.73351 
L 258.709615 601.520019 
L 242.687896 591.007356 
L 232.955769 589.133526 
L 207.201923 583.972596 
L 181.448077 578.242976 
L 164.121532 574.281202 
L 155.694231 569.7482 
L 135.179364 557.555048 
L 129.940385 556.314133 
L 104.186538 551.344292 
L 78.432692 546.881321 
L 52.678846 541.383452 
L 50.140062 540.828894 
L 26.925 529.657151 
" style="fill:none;stroke:#29798e;stroke-width:1.5;"/>
   </g>
   <g id="LineCollection_23">
    <path clip-path="url(#p7da6ecd550)" d="M 448.148148 674.638125 
L 438.986538 668.852384 
L 422.839596 657.911971 
L 413.232692 655.336241 
L 387.478846 650.058244 
L 361.725 645.370379 
L 341.767274 641.185817 
L 335.971154 637.044768 
L 313.982163 624.459663 
L 310.217308 623.626178 
L 284.463462 617.293704 
L 258.709615 611.519894 
L 239.021631 607.73351 
L 232.955769 603.755088 
L 213.531275 591.007356 
L 207.201923 589.737987 
L 181.448077 584.010441 
L 155.694231 578.122272 
L 136.830502 574.281202 
L 129.940385 570.268067 
L 111.341154 557.555048 
L 104.186538 556.135104 
L 78.432692 551.923938 
L 52.678846 546.592231 
L 26.925 540.966745 
" style="fill:none;stroke:#277e8e;stroke-width:1.5;"/>
   </g>
   <g id="LineCollection_24">
    <path clip-path="url(#p7da6ecd550)" d="M 426.31656 674.638125 
L 413.232692 665.694465 
L 401.903929 657.911971 
L 387.478846 654.871146 
L 361.725 650.158502 
L 335.971154 644.914984 
L 319.996187 641.185817 
L 310.217308 635.418473 
L 289.381973 624.459663 
L 284.463462 623.241107 
L 258.709615 617.051974 
L 232.955769 611.894528 
L 210.943391 607.73351 
L 207.201923 605.278856 
L 186.976727 591.007356 
L 181.448077 589.777906 
L 155.694231 583.890543 
L 129.940385 578.670054 
L 109.113452 574.281202 
L 104.186538 570.888616 
L 82.096618 557.555048 
L 78.432692 556.966555 
L 52.678846 551.801011 
L 26.925 546.177004 
" style="fill:none;stroke:#26828e;stroke-width:1.5;"/>
   </g>
   <g id="LineCollection_25">
    <path clip-path="url(#p7da6ecd550)" d="M 400.653168 674.638125 
L 387.478846 665.437968 
L 377.876492 657.911971 
L 361.725 654.946624 
L 335.971154 649.912603 
L 310.217308 644.05299 
L 297.927443 641.185817 
L 284.463462 634.025756 
L 266.408433 624.459663 
L 258.709615 622.584055 
L 232.955769 617.167487 
L 207.201923 612.073821 
L 185.022017 607.73351 
L 181.448077 605.214317 
L 161.593505 591.007356 
L 155.694231 589.658813 
L 129.940385 584.469459 
L 104.186538 578.925727 
L 84.224254 574.281202 
L 78.432692 570.728828 
L 55.407583 557.555048 
L 52.678846 557.00979 
L 26.925 551.387263 
" style="fill:none;stroke:#24878e;stroke-width:1.5;"/>
   </g>
   <g id="LineCollection_26">
    <path clip-path="url(#p7da6ecd550)" d="M 372.161792 674.638125 
L 361.725 666.34139 
L 351.73425 657.911971 
L 335.971154 654.910221 
L 310.217308 649.331001 
L 284.463462 643.266598 
L 274.173729 641.185817 
L 258.709615 633.168534 
L 242.403192 624.459663 
L 232.955769 622.440447 
L 207.201923 617.08647 
L 181.448077 611.703784 
L 158.415149 607.73351 
L 155.694231 605.774435 
L 133.61054 591.007356 
L 129.940385 590.268863 
L 104.186538 584.583065 
L 78.432692 578.34246 
L 59.769923 574.281202 
L 52.678846 570.194764 
L 31.311045 557.555048 
L 26.925 556.597522 
" style="fill:none;stroke:#228c8d;stroke-width:1.5;"/>
   </g>
   <g id="LineCollection_27">
    <path clip-path="url(#p7da6ecd550)" d="M 346.769307 674.638125 
L 335.971154 665.762825 
L 325.93842 657.911971 
L 310.217308 654.609012 
L 284.463462 648.405945 
L 258.709615 642.977327 
L 249.980965 641.185817 
L 232.955769 631.934696 
L 218.349133 624.459663 
L 207.201923 622.099119 
L 181.448077 616.317815 
L 155.694231 611.328074 
L 134.511157 607.73351 
L 129.940385 604.693459 
L 107.649437 591.007356 
L 104.186538 590.240403 
L 78.432692 583.67349 
L 52.678846 577.503969 
L 32.719191 574.281202 
L 26.925 570.907035 
" style="fill:none;stroke:#21918c;stroke-width:1.5;"/>
   </g>
   <g id="LineCollection_28">
    <path clip-path="url(#p7da6ecd550)" d="M 324.387073 674.638125 
L 310.217308 663.900499 
L 302.342888 657.911971 
L 284.463462 653.545292 
L 258.709615 647.552991 
L 232.955769 642.127263 
L 227.825695 641.185817 
L 207.201923 630.442547 
L 196.669144 624.459663 
L 181.448077 620.931846 
L 155.694231 615.329369 
L 129.940385 610.556067 
L 113.030775 607.73351 
L 104.186538 602.249777 
L 86.234775 591.007356 
L 78.432692 589.004519 
L 52.678846 582.039615 
L 26.925 577.036631 
" style="fill:none;stroke:#1f948c;stroke-width:1.5;"/>
   </g>
   <g id="LineCollection_29">
    <path clip-path="url(#p7da6ecd550)" d="M 305.409456 674.638125 
L 284.463462 659.499668 
L 281.725711 657.911971 
L 258.709615 652.128655 
L 232.955769 646.110996 
L 207.201923 641.350129 
L 206.169677 641.185817 
L 181.448077 627.210281 
L 177.45213 624.459663 
L 155.694231 619.330664 
L 129.940385 614.057309 
L 104.186538 609.465037 
L 95.743424 607.73351 
L 78.432692 596.776248 
L 68.393027 591.007356 
L 52.678846 586.57526 
L 26.925 580.508112 
" style="fill:none;stroke:#1f998a;stroke-width:1.5;"/>
   </g>
   <g id="LineCollection_30">
    <path clip-path="url(#p7da6ecd550)" d="M 290.797719 674.638125 
L 284.463462 670.060119 
L 263.515759 657.911971 
L 258.709615 656.704318 
L 232.955769 650.09473 
L 207.201923 644.640069 
L 185.501436 641.185817 
L 181.448077 638.894385 
L 160.478102 624.459663 
L 155.694231 623.331959 
L 129.940385 617.558552 
L 104.186538 612.458923 
L 81.144917 607.73351 
L 78.432692 606.016739 
L 52.678846 591.184943 
L 52.391647 591.007356 
L 26.925 583.979592 
" style="fill:none;stroke:#1f9e89;stroke-width:1.5;"/>
   </g>
   <g id="LineCollection_31">
    <path clip-path="url(#p7da6ecd550)" d="M 276.643973 674.638125 
L 258.709615 663.96086 
L 247.547885 657.911971 
L 232.955769 654.078463 
L 207.201923 647.930009 
L 181.448077 643.405404 
L 168.272365 641.185817 
L 155.694231 632.545435 
L 144.745029 624.459663 
L 129.940385 621.059795 
L 104.186538 615.452809 
L 78.432692 609.9531 
L 67.633238 607.73351 
L 52.678846 598.963467 
L 39.811973 591.007356 
L 26.925 587.451073 
" style="fill:none;stroke:#1fa287;stroke-width:1.5;"/>
   </g>
   <g id="LineCollection_32">
    <path clip-path="url(#p7da6ecd550)" d="M 262.840701 674.638125 
L 258.709615 672.178673 
L 232.955769 658.186924 
L 232.487013 657.911971 
L 207.201923 651.219949 
L 181.448077 646.16648 
L 155.694231 641.758205 
L 152.940653 641.185817 
L 129.940385 624.705291 
L 129.574389 624.459663 
L 104.186538 618.446694 
L 78.432692 612.679158 
L 54.369552 607.73351 
L 52.678846 606.741991 
L 27.232299 591.007356 
L 26.925 590.922554 
" style="fill:none;stroke:#22a785;stroke-width:1.5;"/>
   </g>
   <g id="LineCollection_33">
    <path clip-path="url(#p7da6ecd550)" d="M 249.48822 674.638125 
L 232.955769 665.478249 
L 220.056325 657.911971 
L 207.201923 654.509889 
L 181.448077 648.927556 
L 155.694231 644.219293 
L 141.10113 641.185817 
L 129.940385 633.188738 
L 116.933659 624.459663 
L 104.186538 621.44058 
L 78.432692 615.405217 
L 52.678846 609.965502 
L 41.559063 607.73351 
L 26.925 598.690344 
" style="fill:none;stroke:#25ac82;stroke-width:1.5;"/>
   </g>
   <g id="LineCollection_34">
    <path clip-path="url(#p7da6ecd550)" d="M 236.328275 674.638125 
L 232.955769 672.769574 
L 207.625638 657.911971 
L 207.201923 657.79983 
L 181.448077 651.688633 
L 155.694231 646.68038 
L 129.940385 641.327621 
L 129.319904 641.185817 
L 104.292929 624.459663 
L 104.186538 624.434465 
L 78.432692 618.131276 
L 52.678846 612.523568 
L 28.814782 607.73351 
L 26.925 606.565712 
" style="fill:none;stroke:#2ab07f;stroke-width:1.5;"/>
   </g>
   <g id="LineCollection_35">
    <path clip-path="url(#p7da6ecd550)" d="M 223.93162 674.638125 
L 207.201923 664.802415 
L 195.995852 657.911971 
L 181.448077 654.449709 
L 155.694231 649.141468 
L 129.940385 643.801019 
L 118.497196 641.185817 
L 104.186538 631.62749 
L 93.145983 624.459663 
L 78.432692 620.857334 
L 52.678846 615.081634 
L 26.925 609.847172 
" style="fill:none;stroke:#31b57b;stroke-width:1.5;"/>
   </g>
   <g id="LineCollection_36">
    <path clip-path="url(#p7da6ecd550)" d="M 211.797977 674.638125 
L 207.201923 671.936017 
L 184.394329 657.911971 
L 181.448077 657.210785 
L 155.694231 651.602555 
L 129.940385 646.274418 
L 107.674488 641.185817 
L 104.186538 638.856157 
L 82.011716 624.459663 
L 78.432692 623.583393 
L 52.678846 617.6397 
L 26.925 612.328826 
" style="fill:none;stroke:#38b977;stroke-width:1.5;"/>
   </g>
   <g id="LineCollection_37">
    <path clip-path="url(#p7da6ecd550)" d="M 200.206261 674.638125 
L 181.448077 663.085962 
L 173.129497 657.911971 
L 155.694231 654.063643 
L 129.940385 648.747817 
L 104.186538 642.900628 
L 96.513653 641.185817 
L 78.432692 629.44724 
L 70.979259 624.459663 
L 52.678846 620.197766 
L 26.925 614.81048 
" style="fill:none;stroke:#40bd72;stroke-width:1.5;"/>
   </g>
   <g id="LineCollection_38">
    <path clip-path="url(#p7da6ecd550)" d="M 188.944986 674.638125 
L 181.448077 670.021179 
L 161.979274 657.911971 
L 155.694231 656.524731 
L 129.940385 651.221216 
L 104.186538 645.430896 
L 85.192026 641.185817 
L 78.432692 636.797502 
L 59.99503 624.459663 
L 52.678846 622.755832 
L 26.925 617.292133 
" style="fill:none;stroke:#4ac16d;stroke-width:1.5;"/>
   </g>
   <g id="LineCollection_39">
    <path clip-path="url(#p7da6ecd550)" d="M 177.342832 674.638125 
L 155.694231 661.230664 
L 150.446683 657.911971 
L 129.940385 653.694614 
L 104.186538 647.961163 
L 78.432692 642.199941 
L 73.675475 641.185817 
L 52.678846 627.103672 
L 48.808632 624.459663 
L 26.925 619.773787 
" style="fill:none;stroke:#54c568;stroke-width:1.5;"/>
   </g>
   <g id="LineCollection_40">
    <path clip-path="url(#p7da6ecd550)" d="M 165.061799 674.638125 
L 155.694231 668.836581 
L 138.420133 657.911971 
L 129.940385 656.168013 
L 104.186538 650.491431 
L 78.432692 644.716556 
L 61.870134 641.185817 
L 52.678846 635.021349 
L 37.218997 624.459663 
L 26.925 622.255441 
" style="fill:none;stroke:#5cc863;stroke-width:1.5;"/>
   </g>
   <g id="LineCollection_41">
    <path clip-path="url(#p7da6ecd550)" d="M 153.03373 674.638125 
L 129.940385 660.007359 
L 126.530844 657.911971 
L 104.186538 653.021698 
L 78.432692 647.233171 
L 52.678846 641.728892 
L 50.08029 641.185817 
L 26.925 625.356518 
" style="fill:none;stroke:#67cc5c;stroke-width:1.5;"/>
   </g>
   <g id="LineCollection_42">
    <path clip-path="url(#p7da6ecd550)" d="M 141.819008 674.638125 
L 129.940385 667.112435 
L 114.969717 657.911971 
L 104.186538 655.551965 
L 78.432692 649.749785 
L 52.678846 644.181473 
L 38.344933 641.185817 
L 26.925 633.378982 
" style="fill:none;stroke:#73d056;stroke-width:1.5;"/>
   </g>
   <g id="LineCollection_43">
    <path clip-path="url(#p7da6ecd550)" d="M 130.604285 674.638125 
L 129.940385 674.217511 
L 104.186538 658.349248 
L 103.43653 657.911971 
L 78.432692 652.2664 
L 52.678846 646.634054 
L 26.925 641.250936 
" style="fill:none;stroke:#7fd34e;stroke-width:1.5;"/>
   </g>
   <g id="LineCollection_44">
    <path clip-path="url(#p7da6ecd550)" d="M 120.040385 674.638125 
L 104.186538 664.84765 
L 92.290622 657.911971 
L 78.432692 654.783014 
L 52.678846 649.086635 
L 26.925 643.673674 
" style="fill:none;stroke:#8bd646;stroke-width:1.5;"/>
   </g>
   <g id="LineCollection_45">
    <path clip-path="url(#p7da6ecd550)" d="M 109.517438 674.638125 
L 104.186538 671.346051 
L 81.144713 657.911971 
L 78.432692 657.299629 
L 52.678846 651.539217 
L 26.925 646.096411 
" style="fill:none;stroke:#98d83e;stroke-width:1.5;"/>
   </g>
   <g id="LineCollection_46">
    <path clip-path="url(#p7da6ecd550)" d="M 98.979399 674.638125 
L 78.432692 662.593295 
L 70.158013 657.911971 
L 52.678846 653.991798 
L 26.925 648.519149 
" style="fill:none;stroke:#a5db36;stroke-width:1.5;"/>
   </g>
   <g id="LineCollection_47">
    <path clip-path="url(#p7da6ecd550)" d="M 88.425865 674.638125 
L 78.432692 668.779956 
L 59.222508 657.911971 
L 52.678846 656.444379 
L 26.925 650.941887 
" style="fill:none;stroke:#b2dd2d;stroke-width:1.5;"/>
   </g>
   <g id="LineCollection_48">
    <path clip-path="url(#p7da6ecd550)" d="M 77.821489 674.638125 
L 52.678846 660.509767 
L 48.139535 657.911971 
L 26.925 653.364625 
" style="fill:none;stroke:#c0df25;stroke-width:1.5;"/>
   </g>
   <g id="LineCollection_49">
    <path clip-path="url(#p7da6ecd550)" d="M 66.310402 674.638125 
L 52.678846 666.97817 
L 36.836842 657.911971 
L 26.925 655.787363 
" style="fill:none;stroke:#cde11d;stroke-width:1.5;"/>
   </g>
   <g id="LineCollection_50">
    <path clip-path="url(#p7da6ecd550)" d="M 54.799316 674.638125 
L 52.678846 673.446573 
L 26.925 658.804953 
" style="fill:none;stroke:#dae319;stroke-width:1.5;"/>
   </g>
   <g id="LineCollection_51">
    <path clip-path="url(#p7da6ecd550)" d="M 42.161552 674.638125 
L 26.925 666.061735 
" style="fill:none;stroke:#e7e419;stroke-width:1.5;"/>
   </g>
   <g id="LineCollection_52">
    <path clip-path="url(#p7da6ecd550)" d="M 29.269376 674.638125 
L 26.925 673.318516 
" style="fill:none;stroke:#f4e61e;stroke-width:1.5;"/>
   </g>
   <g id="LineCollection_53"/>
   <g id="patch_3">
    <path d="M 26.925 674.638125 
L 26.925 22.318125 
" style="fill:none;stroke:#000000;stroke-linecap:square;stroke-linejoin:miter;stroke-width:0.8;"/>
   </g>
   <g id="patch_4">
    <path d="M 1031.325 674.638125 
L 1031.325 22.318125 
" style="fill:none;stroke:#000000;stroke-linecap:square;stroke-linejoin:miter;stroke-width:0.8;"/>
   </g>
   <g id="patch_5">
    <path d="M 26.925 674.638125 
L 1031.325 674.638125 
" style="fill:none;stroke:#000000;stroke-linecap:square;stroke-linejoin:miter;stroke-width:0.8;"/>
   </g>
   <g id="patch_6">
    <path d="M 26.925 22.318125 
L 1031.325 22.318125 
" style="fill:none;stroke:#000000;stroke-linecap:square;stroke-linejoin:miter;stroke-width:0.8;"/>
   </g>
   <g id="text_17">
    <!-- Loss Contours (simp_ResNet9,train input=4) -->
    <defs>
     <path d="M 9.8125 72.90625 
L 19.671875 72.90625 
L 19.671875 8.296875 
L 55.171875 8.296875 
L 55.171875 0 
L 9.8125 0 
z
" id="DejaVuSans-76"/>
     <path d="M 30.609375 48.390625 
Q 23.390625 48.390625 19.1875 42.75 
Q 14.984375 37.109375 14.984375 27.296875 
Q 14.984375 17.484375 19.15625 11.84375 
Q 23.34375 6.203125 30.609375 6.203125 
Q 37.796875 6.203125 41.984375 11.859375 
Q 46.1875 17.53125 46.1875 27.296875 
Q 46.1875 37.015625 41.984375 42.703125 
Q 37.796875 48.390625 30.609375 48.390625 
z
M 30.609375 56 
Q 42.328125 56 49.015625 48.375 
Q 55.71875 40.765625 55.71875 27.296875 
Q 55.71875 13.875 49.015625 6.21875 
Q 42.328125 -1.421875 30.609375 -1.421875 
Q 18.84375 -1.421875 12.171875 6.21875 
Q 5.515625 13.875 5.515625 27.296875 
Q 5.515625 40.765625 12.171875 48.375 
Q 18.84375 56 30.609375 56 
z
" id="DejaVuSans-111"/>
     <path d="M 44.28125 53.078125 
L 44.28125 44.578125 
Q 40.484375 46.53125 36.375 47.5 
Q 32.28125 48.484375 27.875 48.484375 
Q 21.1875 48.484375 17.84375 46.4375 
Q 14.5 44.390625 14.5 40.28125 
Q 14.5 37.15625 16.890625 35.375 
Q 19.28125 33.59375 26.515625 31.984375 
L 29.59375 31.296875 
Q 39.15625 29.25 43.1875 25.515625 
Q 47.21875 21.78125 47.21875 15.09375 
Q 47.21875 7.46875 41.1875 3.015625 
Q 35.15625 -1.421875 24.609375 -1.421875 
Q 20.21875 -1.421875 15.453125 -0.5625 
Q 10.6875 0.296875 5.421875 2 
L 5.421875 11.28125 
Q 10.40625 8.6875 15.234375 7.390625 
Q 20.0625 6.109375 24.8125 6.109375 
Q 31.15625 6.109375 34.5625 8.28125 
Q 37.984375 10.453125 37.984375 14.40625 
Q 37.984375 18.0625 35.515625 20.015625 
Q 33.0625 21.96875 24.703125 23.78125 
L 21.578125 24.515625 
Q 13.234375 26.265625 9.515625 29.90625 
Q 5.8125 33.546875 5.8125 39.890625 
Q 5.8125 47.609375 11.28125 51.796875 
Q 16.75 56 26.8125 56 
Q 31.78125 56 36.171875 55.265625 
Q 40.578125 54.546875 44.28125 53.078125 
z
" id="DejaVuSans-115"/>
     <path id="DejaVuSans-32"/>
     <path d="M 64.40625 67.28125 
L 64.40625 56.890625 
Q 59.421875 61.53125 53.78125 63.8125 
Q 48.140625 66.109375 41.796875 66.109375 
Q 29.296875 66.109375 22.65625 58.46875 
Q 16.015625 50.828125 16.015625 36.375 
Q 16.015625 21.96875 22.65625 14.328125 
Q 29.296875 6.6875 41.796875 6.6875 
Q 48.140625 6.6875 53.78125 8.984375 
Q 59.421875 11.28125 64.40625 15.921875 
L 64.40625 5.609375 
Q 59.234375 2.09375 53.4375 0.328125 
Q 47.65625 -1.421875 41.21875 -1.421875 
Q 24.65625 -1.421875 15.125 8.703125 
Q 5.609375 18.84375 5.609375 36.375 
Q 5.609375 53.953125 15.125 64.078125 
Q 24.65625 74.21875 41.21875 74.21875 
Q 47.75 74.21875 53.53125 72.484375 
Q 59.328125 70.75 64.40625 67.28125 
z
" id="DejaVuSans-67"/>
     <path d="M 54.890625 33.015625 
L 54.890625 0 
L 45.90625 0 
L 45.90625 32.71875 
Q 45.90625 40.484375 42.875 44.328125 
Q 39.84375 48.1875 33.796875 48.1875 
Q 26.515625 48.1875 22.3125 43.546875 
Q 18.109375 38.921875 18.109375 30.90625 
L 18.109375 0 
L 9.078125 0 
L 9.078125 54.6875 
L 18.109375 54.6875 
L 18.109375 46.1875 
Q 21.34375 51.125 25.703125 53.5625 
Q 30.078125 56 35.796875 56 
Q 45.21875 56 50.046875 50.171875 
Q 54.890625 44.34375 54.890625 33.015625 
z
" id="DejaVuSans-110"/>
     <path d="M 18.3125 70.21875 
L 18.3125 54.6875 
L 36.8125 54.6875 
L 36.8125 47.703125 
L 18.3125 47.703125 
L 18.3125 18.015625 
Q 18.3125 11.328125 20.140625 9.421875 
Q 21.96875 7.515625 27.59375 7.515625 
L 36.8125 7.515625 
L 36.8125 0 
L 27.59375 0 
Q 17.1875 0 13.234375 3.875 
Q 9.28125 7.765625 9.28125 18.015625 
L 9.28125 47.703125 
L 2.6875 47.703125 
L 2.6875 54.6875 
L 9.28125 54.6875 
L 9.28125 70.21875 
z
" id="DejaVuSans-116"/>
     <path d="M 8.5 21.578125 
L 8.5 54.6875 
L 17.484375 54.6875 
L 17.484375 21.921875 
Q 17.484375 14.15625 20.5 10.265625 
Q 23.53125 6.390625 29.59375 6.390625 
Q 36.859375 6.390625 41.078125 11.03125 
Q 45.3125 15.671875 45.3125 23.6875 
L 45.3125 54.6875 
L 54.296875 54.6875 
L 54.296875 0 
L 45.3125 0 
L 45.3125 8.40625 
Q 42.046875 3.421875 37.71875 1 
Q 33.40625 -1.421875 27.6875 -1.421875 
Q 18.265625 -1.421875 13.375 4.4375 
Q 8.5 10.296875 8.5 21.578125 
z
M 31.109375 56 
z
" id="DejaVuSans-117"/>
     <path d="M 41.109375 46.296875 
Q 39.59375 47.171875 37.8125 47.578125 
Q 36.03125 48 33.890625 48 
Q 26.265625 48 22.1875 43.046875 
Q 18.109375 38.09375 18.109375 28.8125 
L 18.109375 0 
L 9.078125 0 
L 9.078125 54.6875 
L 18.109375 54.6875 
L 18.109375 46.1875 
Q 20.953125 51.171875 25.484375 53.578125 
Q 30.03125 56 36.53125 56 
Q 37.453125 56 38.578125 55.875 
Q 39.703125 55.765625 41.0625 55.515625 
z
" id="DejaVuSans-114"/>
     <path d="M 31 75.875 
Q 24.46875 64.65625 21.28125 53.65625 
Q 18.109375 42.671875 18.109375 31.390625 
Q 18.109375 20.125 21.3125 9.0625 
Q 24.515625 -2 31 -13.1875 
L 23.1875 -13.1875 
Q 15.875 -1.703125 12.234375 9.375 
Q 8.59375 20.453125 8.59375 31.390625 
Q 8.59375 42.28125 12.203125 53.3125 
Q 15.828125 64.359375 23.1875 75.875 
z
" id="DejaVuSans-40"/>
     <path d="M 9.421875 54.6875 
L 18.40625 54.6875 
L 18.40625 0 
L 9.421875 0 
z
M 9.421875 75.984375 
L 18.40625 75.984375 
L 18.40625 64.59375 
L 9.421875 64.59375 
z
" id="DejaVuSans-105"/>
     <path d="M 52 44.1875 
Q 55.375 50.25 60.0625 53.125 
Q 64.75 56 71.09375 56 
Q 79.640625 56 84.28125 50.015625 
Q 88.921875 44.046875 88.921875 33.015625 
L 88.921875 0 
L 79.890625 0 
L 79.890625 32.71875 
Q 79.890625 40.578125 77.09375 44.375 
Q 74.3125 48.1875 68.609375 48.1875 
Q 61.625 48.1875 57.5625 43.546875 
Q 53.515625 38.921875 53.515625 30.90625 
L 53.515625 0 
L 44.484375 0 
L 44.484375 32.71875 
Q 44.484375 40.625 41.703125 44.40625 
Q 38.921875 48.1875 33.109375 48.1875 
Q 26.21875 48.1875 22.15625 43.53125 
Q 18.109375 38.875 18.109375 30.90625 
L 18.109375 0 
L 9.078125 0 
L 9.078125 54.6875 
L 18.109375 54.6875 
L 18.109375 46.1875 
Q 21.1875 51.21875 25.484375 53.609375 
Q 29.78125 56 35.6875 56 
Q 41.65625 56 45.828125 52.96875 
Q 50 49.953125 52 44.1875 
z
" id="DejaVuSans-109"/>
     <path d="M 18.109375 8.203125 
L 18.109375 -20.796875 
L 9.078125 -20.796875 
L 9.078125 54.6875 
L 18.109375 54.6875 
L 18.109375 46.390625 
Q 20.953125 51.265625 25.265625 53.625 
Q 29.59375 56 35.59375 56 
Q 45.5625 56 51.78125 48.09375 
Q 58.015625 40.1875 58.015625 27.296875 
Q 58.015625 14.40625 51.78125 6.484375 
Q 45.5625 -1.421875 35.59375 -1.421875 
Q 29.59375 -1.421875 25.265625 0.953125 
Q 20.953125 3.328125 18.109375 8.203125 
z
M 48.6875 27.296875 
Q 48.6875 37.203125 44.609375 42.84375 
Q 40.53125 48.484375 33.40625 48.484375 
Q 26.265625 48.484375 22.1875 42.84375 
Q 18.109375 37.203125 18.109375 27.296875 
Q 18.109375 17.390625 22.1875 11.75 
Q 26.265625 6.109375 33.40625 6.109375 
Q 40.53125 6.109375 44.609375 11.75 
Q 48.6875 17.390625 48.6875 27.296875 
z
" id="DejaVuSans-112"/>
     <path d="M 50.984375 -16.609375 
L 50.984375 -23.578125 
L -0.984375 -23.578125 
L -0.984375 -16.609375 
z
" id="DejaVuSans-95"/>
     <path d="M 44.390625 34.1875 
Q 47.5625 33.109375 50.5625 29.59375 
Q 53.5625 26.078125 56.59375 19.921875 
L 66.609375 0 
L 56 0 
L 46.6875 18.703125 
Q 43.0625 26.03125 39.671875 28.421875 
Q 36.28125 30.8125 30.421875 30.8125 
L 19.671875 30.8125 
L 19.671875 0 
L 9.8125 0 
L 9.8125 72.90625 
L 32.078125 72.90625 
Q 44.578125 72.90625 50.734375 67.671875 
Q 56.890625 62.453125 56.890625 51.90625 
Q 56.890625 45.015625 53.6875 40.46875 
Q 50.484375 35.9375 44.390625 34.1875 
z
M 19.671875 64.796875 
L 19.671875 38.921875 
L 32.078125 38.921875 
Q 39.203125 38.921875 42.84375 42.21875 
Q 46.484375 45.515625 46.484375 51.90625 
Q 46.484375 58.296875 42.84375 61.546875 
Q 39.203125 64.796875 32.078125 64.796875 
z
" id="DejaVuSans-82"/>
     <path d="M 56.203125 29.59375 
L 56.203125 25.203125 
L 14.890625 25.203125 
Q 15.484375 15.921875 20.484375 11.0625 
Q 25.484375 6.203125 34.421875 6.203125 
Q 39.59375 6.203125 44.453125 7.46875 
Q 49.3125 8.734375 54.109375 11.28125 
L 54.109375 2.78125 
Q 49.265625 0.734375 44.1875 -0.34375 
Q 39.109375 -1.421875 33.890625 -1.421875 
Q 20.796875 -1.421875 13.15625 6.1875 
Q 5.515625 13.8125 5.515625 26.8125 
Q 5.515625 40.234375 12.765625 48.109375 
Q 20.015625 56 32.328125 56 
Q 43.359375 56 49.78125 48.890625 
Q 56.203125 41.796875 56.203125 29.59375 
z
M 47.21875 32.234375 
Q 47.125 39.59375 43.09375 43.984375 
Q 39.0625 48.390625 32.421875 48.390625 
Q 24.90625 48.390625 20.390625 44.140625 
Q 15.875 39.890625 15.1875 32.171875 
z
" id="DejaVuSans-101"/>
     <path d="M 9.8125 72.90625 
L 23.09375 72.90625 
L 55.421875 11.921875 
L 55.421875 72.90625 
L 64.984375 72.90625 
L 64.984375 0 
L 51.703125 0 
L 19.390625 60.984375 
L 19.390625 0 
L 9.8125 0 
z
" id="DejaVuSans-78"/>
     <path d="M 10.984375 1.515625 
L 10.984375 10.5 
Q 14.703125 8.734375 18.5 7.8125 
Q 22.3125 6.890625 25.984375 6.890625 
Q 35.75 6.890625 40.890625 13.453125 
Q 46.046875 20.015625 46.78125 33.40625 
Q 43.953125 29.203125 39.59375 26.953125 
Q 35.25 24.703125 29.984375 24.703125 
Q 19.046875 24.703125 12.671875 31.3125 
Q 6.296875 37.9375 6.296875 49.421875 
Q 6.296875 60.640625 12.9375 67.421875 
Q 19.578125 74.21875 30.609375 74.21875 
Q 43.265625 74.21875 49.921875 64.515625 
Q 56.59375 54.828125 56.59375 36.375 
Q 56.59375 19.140625 48.40625 8.859375 
Q 40.234375 -1.421875 26.421875 -1.421875 
Q 22.703125 -1.421875 18.890625 -0.6875 
Q 15.09375 0.046875 10.984375 1.515625 
z
M 30.609375 32.421875 
Q 37.25 32.421875 41.125 36.953125 
Q 45.015625 41.5 45.015625 49.421875 
Q 45.015625 57.28125 41.125 61.84375 
Q 37.25 66.40625 30.609375 66.40625 
Q 23.96875 66.40625 20.09375 61.84375 
Q 16.21875 57.28125 16.21875 49.421875 
Q 16.21875 41.5 20.09375 36.953125 
Q 23.96875 32.421875 30.609375 32.421875 
z
" id="DejaVuSans-57"/>
     <path d="M 11.71875 12.40625 
L 22.015625 12.40625 
L 22.015625 4 
L 14.015625 -11.625 
L 7.71875 -11.625 
L 11.71875 4 
z
" id="DejaVuSans-44"/>
     <path d="M 34.28125 27.484375 
Q 23.390625 27.484375 19.1875 25 
Q 14.984375 22.515625 14.984375 16.5 
Q 14.984375 11.71875 18.140625 8.90625 
Q 21.296875 6.109375 26.703125 6.109375 
Q 34.1875 6.109375 38.703125 11.40625 
Q 43.21875 16.703125 43.21875 25.484375 
L 43.21875 27.484375 
z
M 52.203125 31.203125 
L 52.203125 0 
L 43.21875 0 
L 43.21875 8.296875 
Q 40.140625 3.328125 35.546875 0.953125 
Q 30.953125 -1.421875 24.3125 -1.421875 
Q 15.921875 -1.421875 10.953125 3.296875 
Q 6 8.015625 6 15.921875 
Q 6 25.140625 12.171875 29.828125 
Q 18.359375 34.515625 30.609375 34.515625 
L 43.21875 34.515625 
L 43.21875 35.40625 
Q 43.21875 41.609375 39.140625 45 
Q 35.0625 48.390625 27.6875 48.390625 
Q 23 48.390625 18.546875 47.265625 
Q 14.109375 46.140625 10.015625 43.890625 
L 10.015625 52.203125 
Q 14.9375 54.109375 19.578125 55.046875 
Q 24.21875 56 28.609375 56 
Q 40.484375 56 46.34375 49.84375 
Q 52.203125 43.703125 52.203125 31.203125 
z
" id="DejaVuSans-97"/>
     <path d="M 10.59375 45.40625 
L 73.1875 45.40625 
L 73.1875 37.203125 
L 10.59375 37.203125 
z
M 10.59375 25.484375 
L 73.1875 25.484375 
L 73.1875 17.1875 
L 10.59375 17.1875 
z
" id="DejaVuSans-61"/>
     <path d="M 37.796875 64.3125 
L 12.890625 25.390625 
L 37.796875 25.390625 
z
M 35.203125 72.90625 
L 47.609375 72.90625 
L 47.609375 25.390625 
L 58.015625 25.390625 
L 58.015625 17.1875 
L 47.609375 17.1875 
L 47.609375 0 
L 37.796875 0 
L 37.796875 17.1875 
L 4.890625 17.1875 
L 4.890625 26.703125 
z
" id="DejaVuSans-52"/>
     <path d="M 8.015625 75.875 
L 15.828125 75.875 
Q 23.140625 64.359375 26.78125 53.3125 
Q 30.421875 42.28125 30.421875 31.390625 
Q 30.421875 20.453125 26.78125 9.375 
Q 23.140625 -1.703125 15.828125 -13.1875 
L 8.015625 -13.1875 
Q 14.5 -2 17.703125 9.0625 
Q 20.90625 20.125 20.90625 31.390625 
Q 20.90625 42.671875 17.703125 53.65625 
Q 14.5 64.65625 8.015625 75.875 
z
" id="DejaVuSans-41"/>
    </defs>
    <g transform="translate(395.446875 16.318125)scale(0.12 -0.12)">
     <use xlink:href="#DejaVuSans-76"/>
     <use x="55.697266" xlink:href="#DejaVuSans-111"/>
     <use x="116.878906" xlink:href="#DejaVuSans-115"/>
     <use x="168.978516" xlink:href="#DejaVuSans-115"/>
     <use x="221.078125" xlink:href="#DejaVuSans-32"/>
     <use x="252.865234" xlink:href="#DejaVuSans-67"/>
     <use x="322.689453" xlink:href="#DejaVuSans-111"/>
     <use x="383.871094" xlink:href="#DejaVuSans-110"/>
     <use x="447.25" xlink:href="#DejaVuSans-116"/>
     <use x="486.458984" xlink:href="#DejaVuSans-111"/>
     <use x="547.640625" xlink:href="#DejaVuSans-117"/>
     <use x="611.019531" xlink:href="#DejaVuSans-114"/>
     <use x="652.132812" xlink:href="#DejaVuSans-115"/>
     <use x="704.232422" xlink:href="#DejaVuSans-32"/>
     <use x="736.019531" xlink:href="#DejaVuSans-40"/>
     <use x="775.033203" xlink:href="#DejaVuSans-115"/>
     <use x="827.132812" xlink:href="#DejaVuSans-105"/>
     <use x="854.916016" xlink:href="#DejaVuSans-109"/>
     <use x="952.328125" xlink:href="#DejaVuSans-112"/>
     <use x="1015.804688" xlink:href="#DejaVuSans-95"/>
     <use x="1065.804688" xlink:href="#DejaVuSans-82"/>
     <use x="1135.224609" xlink:href="#DejaVuSans-101"/>
     <use x="1196.748047" xlink:href="#DejaVuSans-115"/>
     <use x="1248.847656" xlink:href="#DejaVuSans-78"/>
     <use x="1323.652344" xlink:href="#DejaVuSans-101"/>
     <use x="1385.175781" xlink:href="#DejaVuSans-116"/>
     <use x="1424.384766" xlink:href="#DejaVuSans-57"/>
     <use x="1488.007812" xlink:href="#DejaVuSans-44"/>
     <use x="1519.794922" xlink:href="#DejaVuSans-116"/>
     <use x="1559.003906" xlink:href="#DejaVuSans-114"/>
     <use x="1600.117188" xlink:href="#DejaVuSans-97"/>
     <use x="1661.396484" xlink:href="#DejaVuSans-105"/>
     <use x="1689.179688" xlink:href="#DejaVuSans-110"/>
     <use x="1752.558594" xlink:href="#DejaVuSans-32"/>
     <use x="1784.345703" xlink:href="#DejaVuSans-105"/>
     <use x="1812.128906" xlink:href="#DejaVuSans-110"/>
     <use x="1875.507812" xlink:href="#DejaVuSans-112"/>
     <use x="1938.984375" xlink:href="#DejaVuSans-117"/>
     <use x="2002.363281" xlink:href="#DejaVuSans-116"/>
     <use x="2041.572266" xlink:href="#DejaVuSans-61"/>
     <use x="2125.361328" xlink:href="#DejaVuSans-52"/>
     <use x="2188.984375" xlink:href="#DejaVuSans-41"/>
    </g>
   </g>
  </g>
 </g>
 <defs>
  <clipPath id="p7da6ecd550">
   <rect height="652.32" width="1004.4" x="26.925" y="22.318125"/>
  </clipPath>
 </defs>
</svg>
