<?xml version="1.0" encoding="utf-8" standalone="no"?>
<!DOCTYPE svg PUBLIC "-//W3C//DTD SVG 1.1//EN"
  "http://www.w3.org/Graphics/SVG/1.1/DTD/svg11.dtd">
<!-- Created with matplotlib (https://matplotlib.org/) -->
<svg height="345.6pt" version="1.1" viewBox="0 0 460.8 345.6" width="460.8pt" xmlns="http://www.w3.org/2000/svg" xmlns:xlink="http://www.w3.org/1999/xlink">
 <defs>
  <style type="text/css">
*{stroke-linecap:butt;stroke-linejoin:round;}
  </style>
 </defs>
 <g id="figure_1">
  <g id="patch_1">
   <path d="M 0 345.6 
L 460.8 345.6 
L 460.8 0 
L 0 0 
z
" style="fill:#ffffff;"/>
  </g>
  <g id="axes_1">
   <g id="patch_2">
    <path d="M 57.6 307.584 
L 414.72 307.584 
L 414.72 41.472 
L 57.6 41.472 
z
" style="fill:#e5e5e5;"/>
   </g>
   <g id="matplotlib.axis_1">
    <g id="xtick_1">
     <g id="line2d_1">
      <path clip-path="url(#p610c77bcb3)" d="M 73.832727 307.584 
L 73.832727 41.472 
" style="fill:none;stroke:#ffffff;stroke-linecap:square;stroke-width:0.8;"/>
     </g>
     <g id="line2d_2">
      <defs>
       <path d="M 0 0 
L 0 3.5 
" id="m42c2bee47d" style="stroke:#555555;stroke-width:0.8;"/>
      </defs>
      <g>
       <use style="fill:#555555;stroke:#555555;stroke-width:0.8;" x="73.832727" xlink:href="#m42c2bee47d" y="307.584"/>
      </g>
     </g>
     <g id="text_1">
      <!-- 0 -->
      <defs>
       <path d="M 31.78125 66.40625 
Q 24.171875 66.40625 20.328125 58.90625 
Q 16.5 51.421875 16.5 36.375 
Q 16.5 21.390625 20.328125 13.890625 
Q 24.171875 6.390625 31.78125 6.390625 
Q 39.453125 6.390625 43.28125 13.890625 
Q 47.125 21.390625 47.125 36.375 
Q 47.125 51.421875 43.28125 58.90625 
Q 39.453125 66.40625 31.78125 66.40625 
z
M 31.78125 74.21875 
Q 44.046875 74.21875 50.515625 64.515625 
Q 56.984375 54.828125 56.984375 36.375 
Q 56.984375 17.96875 50.515625 8.265625 
Q 44.046875 -1.421875 31.78125 -1.421875 
Q 19.53125 -1.421875 13.0625 8.265625 
Q 6.59375 17.96875 6.59375 36.375 
Q 6.59375 54.828125 13.0625 64.515625 
Q 19.53125 74.21875 31.78125 74.21875 
z
" id="DejaVuSans-48"/>
      </defs>
      <g style="fill:#555555;" transform="translate(70.651477 322.182437)scale(0.1 -0.1)">
       <use xlink:href="#DejaVuSans-48"/>
      </g>
     </g>
    </g>
    <g id="xtick_2">
     <g id="line2d_3">
      <path clip-path="url(#p610c77bcb3)" d="M 115.455105 307.584 
L 115.455105 41.472 
" style="fill:none;stroke:#ffffff;stroke-linecap:square;stroke-width:0.8;"/>
     </g>
     <g id="line2d_4">
      <g>
       <use style="fill:#555555;stroke:#555555;stroke-width:0.8;" x="115.455105" xlink:href="#m42c2bee47d" y="307.584"/>
      </g>
     </g>
     <g id="text_2">
      <!-- 1000 -->
      <defs>
       <path d="M 12.40625 8.296875 
L 28.515625 8.296875 
L 28.515625 63.921875 
L 10.984375 60.40625 
L 10.984375 69.390625 
L 28.421875 72.90625 
L 38.28125 72.90625 
L 38.28125 8.296875 
L 54.390625 8.296875 
L 54.390625 0 
L 12.40625 0 
z
" id="DejaVuSans-49"/>
      </defs>
      <g style="fill:#555555;" transform="translate(102.730105 322.182437)scale(0.1 -0.1)">
       <use xlink:href="#DejaVuSans-49"/>
       <use x="63.623047" xlink:href="#DejaVuSans-48"/>
       <use x="127.246094" xlink:href="#DejaVuSans-48"/>
       <use x="190.869141" xlink:href="#DejaVuSans-48"/>
      </g>
     </g>
    </g>
    <g id="xtick_3">
     <g id="line2d_5">
      <path clip-path="url(#p610c77bcb3)" d="M 157.077483 307.584 
L 157.077483 41.472 
" style="fill:none;stroke:#ffffff;stroke-linecap:square;stroke-width:0.8;"/>
     </g>
     <g id="line2d_6">
      <g>
       <use style="fill:#555555;stroke:#555555;stroke-width:0.8;" x="157.077483" xlink:href="#m42c2bee47d" y="307.584"/>
      </g>
     </g>
     <g id="text_3">
      <!-- 2000 -->
      <defs>
       <path d="M 19.1875 8.296875 
L 53.609375 8.296875 
L 53.609375 0 
L 7.328125 0 
L 7.328125 8.296875 
Q 12.9375 14.109375 22.625 23.890625 
Q 32.328125 33.6875 34.8125 36.53125 
Q 39.546875 41.84375 41.421875 45.53125 
Q 43.3125 49.21875 43.3125 52.78125 
Q 43.3125 58.59375 39.234375 62.25 
Q 35.15625 65.921875 28.609375 65.921875 
Q 23.96875 65.921875 18.8125 64.3125 
Q 13.671875 62.703125 7.8125 59.421875 
L 7.8125 69.390625 
Q 13.765625 71.78125 18.9375 73 
Q 24.125 74.21875 28.421875 74.21875 
Q 39.75 74.21875 46.484375 68.546875 
Q 53.21875 62.890625 53.21875 53.421875 
Q 53.21875 48.921875 51.53125 44.890625 
Q 49.859375 40.875 45.40625 35.40625 
Q 44.1875 33.984375 37.640625 27.21875 
Q 31.109375 20.453125 19.1875 8.296875 
z
" id="DejaVuSans-50"/>
      </defs>
      <g style="fill:#555555;" transform="translate(144.352483 322.182437)scale(0.1 -0.1)">
       <use xlink:href="#DejaVuSans-50"/>
       <use x="63.623047" xlink:href="#DejaVuSans-48"/>
       <use x="127.246094" xlink:href="#DejaVuSans-48"/>
       <use x="190.869141" xlink:href="#DejaVuSans-48"/>
      </g>
     </g>
    </g>
    <g id="xtick_4">
     <g id="line2d_7">
      <path clip-path="url(#p610c77bcb3)" d="M 198.69986 307.584 
L 198.69986 41.472 
" style="fill:none;stroke:#ffffff;stroke-linecap:square;stroke-width:0.8;"/>
     </g>
     <g id="line2d_8">
      <g>
       <use style="fill:#555555;stroke:#555555;stroke-width:0.8;" x="198.69986" xlink:href="#m42c2bee47d" y="307.584"/>
      </g>
     </g>
     <g id="text_4">
      <!-- 3000 -->
      <defs>
       <path d="M 40.578125 39.3125 
Q 47.65625 37.796875 51.625 33 
Q 55.609375 28.21875 55.609375 21.1875 
Q 55.609375 10.40625 48.1875 4.484375 
Q 40.765625 -1.421875 27.09375 -1.421875 
Q 22.515625 -1.421875 17.65625 -0.515625 
Q 12.796875 0.390625 7.625 2.203125 
L 7.625 11.71875 
Q 11.71875 9.328125 16.59375 8.109375 
Q 21.484375 6.890625 26.8125 6.890625 
Q 36.078125 6.890625 40.9375 10.546875 
Q 45.796875 14.203125 45.796875 21.1875 
Q 45.796875 27.640625 41.28125 31.265625 
Q 36.765625 34.90625 28.71875 34.90625 
L 20.21875 34.90625 
L 20.21875 43.015625 
L 29.109375 43.015625 
Q 36.375 43.015625 40.234375 45.921875 
Q 44.09375 48.828125 44.09375 54.296875 
Q 44.09375 59.90625 40.109375 62.90625 
Q 36.140625 65.921875 28.71875 65.921875 
Q 24.65625 65.921875 20.015625 65.03125 
Q 15.375 64.15625 9.8125 62.3125 
L 9.8125 71.09375 
Q 15.4375 72.65625 20.34375 73.4375 
Q 25.25 74.21875 29.59375 74.21875 
Q 40.828125 74.21875 47.359375 69.109375 
Q 53.90625 64.015625 53.90625 55.328125 
Q 53.90625 49.265625 50.4375 45.09375 
Q 46.96875 40.921875 40.578125 39.3125 
z
" id="DejaVuSans-51"/>
      </defs>
      <g style="fill:#555555;" transform="translate(185.97486 322.182437)scale(0.1 -0.1)">
       <use xlink:href="#DejaVuSans-51"/>
       <use x="63.623047" xlink:href="#DejaVuSans-48"/>
       <use x="127.246094" xlink:href="#DejaVuSans-48"/>
       <use x="190.869141" xlink:href="#DejaVuSans-48"/>
      </g>
     </g>
    </g>
    <g id="xtick_5">
     <g id="line2d_9">
      <path clip-path="url(#p610c77bcb3)" d="M 240.322238 307.584 
L 240.322238 41.472 
" style="fill:none;stroke:#ffffff;stroke-linecap:square;stroke-width:0.8;"/>
     </g>
     <g id="line2d_10">
      <g>
       <use style="fill:#555555;stroke:#555555;stroke-width:0.8;" x="240.322238" xlink:href="#m42c2bee47d" y="307.584"/>
      </g>
     </g>
     <g id="text_5">
      <!-- 4000 -->
      <defs>
       <path d="M 37.796875 64.3125 
L 12.890625 25.390625 
L 37.796875 25.390625 
z
M 35.203125 72.90625 
L 47.609375 72.90625 
L 47.609375 25.390625 
L 58.015625 25.390625 
L 58.015625 17.1875 
L 47.609375 17.1875 
L 47.609375 0 
L 37.796875 0 
L 37.796875 17.1875 
L 4.890625 17.1875 
L 4.890625 26.703125 
z
" id="DejaVuSans-52"/>
      </defs>
      <g style="fill:#555555;" transform="translate(227.597238 322.182437)scale(0.1 -0.1)">
       <use xlink:href="#DejaVuSans-52"/>
       <use x="63.623047" xlink:href="#DejaVuSans-48"/>
       <use x="127.246094" xlink:href="#DejaVuSans-48"/>
       <use x="190.869141" xlink:href="#DejaVuSans-48"/>
      </g>
     </g>
    </g>
    <g id="xtick_6">
     <g id="line2d_11">
      <path clip-path="url(#p610c77bcb3)" d="M 281.944615 307.584 
L 281.944615 41.472 
" style="fill:none;stroke:#ffffff;stroke-linecap:square;stroke-width:0.8;"/>
     </g>
     <g id="line2d_12">
      <g>
       <use style="fill:#555555;stroke:#555555;stroke-width:0.8;" x="281.944615" xlink:href="#m42c2bee47d" y="307.584"/>
      </g>
     </g>
     <g id="text_6">
      <!-- 5000 -->
      <defs>
       <path d="M 10.796875 72.90625 
L 49.515625 72.90625 
L 49.515625 64.59375 
L 19.828125 64.59375 
L 19.828125 46.734375 
Q 21.96875 47.46875 24.109375 47.828125 
Q 26.265625 48.1875 28.421875 48.1875 
Q 40.625 48.1875 47.75 41.5 
Q 54.890625 34.8125 54.890625 23.390625 
Q 54.890625 11.625 47.5625 5.09375 
Q 40.234375 -1.421875 26.90625 -1.421875 
Q 22.3125 -1.421875 17.546875 -0.640625 
Q 12.796875 0.140625 7.71875 1.703125 
L 7.71875 11.625 
Q 12.109375 9.234375 16.796875 8.0625 
Q 21.484375 6.890625 26.703125 6.890625 
Q 35.15625 6.890625 40.078125 11.328125 
Q 45.015625 15.765625 45.015625 23.390625 
Q 45.015625 31 40.078125 35.4375 
Q 35.15625 39.890625 26.703125 39.890625 
Q 22.75 39.890625 18.8125 39.015625 
Q 14.890625 38.140625 10.796875 36.28125 
z
" id="DejaVuSans-53"/>
      </defs>
      <g style="fill:#555555;" transform="translate(269.219615 322.182437)scale(0.1 -0.1)">
       <use xlink:href="#DejaVuSans-53"/>
       <use x="63.623047" xlink:href="#DejaVuSans-48"/>
       <use x="127.246094" xlink:href="#DejaVuSans-48"/>
       <use x="190.869141" xlink:href="#DejaVuSans-48"/>
      </g>
     </g>
    </g>
    <g id="xtick_7">
     <g id="line2d_13">
      <path clip-path="url(#p610c77bcb3)" d="M 323.566993 307.584 
L 323.566993 41.472 
" style="fill:none;stroke:#ffffff;stroke-linecap:square;stroke-width:0.8;"/>
     </g>
     <g id="line2d_14">
      <g>
       <use style="fill:#555555;stroke:#555555;stroke-width:0.8;" x="323.566993" xlink:href="#m42c2bee47d" y="307.584"/>
      </g>
     </g>
     <g id="text_7">
      <!-- 6000 -->
      <defs>
       <path d="M 33.015625 40.375 
Q 26.375 40.375 22.484375 35.828125 
Q 18.609375 31.296875 18.609375 23.390625 
Q 18.609375 15.53125 22.484375 10.953125 
Q 26.375 6.390625 33.015625 6.390625 
Q 39.65625 6.390625 43.53125 10.953125 
Q 47.40625 15.53125 47.40625 23.390625 
Q 47.40625 31.296875 43.53125 35.828125 
Q 39.65625 40.375 33.015625 40.375 
z
M 52.59375 71.296875 
L 52.59375 62.3125 
Q 48.875 64.0625 45.09375 64.984375 
Q 41.3125 65.921875 37.59375 65.921875 
Q 27.828125 65.921875 22.671875 59.328125 
Q 17.53125 52.734375 16.796875 39.40625 
Q 19.671875 43.65625 24.015625 45.921875 
Q 28.375 48.1875 33.59375 48.1875 
Q 44.578125 48.1875 50.953125 41.515625 
Q 57.328125 34.859375 57.328125 23.390625 
Q 57.328125 12.15625 50.6875 5.359375 
Q 44.046875 -1.421875 33.015625 -1.421875 
Q 20.359375 -1.421875 13.671875 8.265625 
Q 6.984375 17.96875 6.984375 36.375 
Q 6.984375 53.65625 15.1875 63.9375 
Q 23.390625 74.21875 37.203125 74.21875 
Q 40.921875 74.21875 44.703125 73.484375 
Q 48.484375 72.75 52.59375 71.296875 
z
" id="DejaVuSans-54"/>
      </defs>
      <g style="fill:#555555;" transform="translate(310.841993 322.182437)scale(0.1 -0.1)">
       <use xlink:href="#DejaVuSans-54"/>
       <use x="63.623047" xlink:href="#DejaVuSans-48"/>
       <use x="127.246094" xlink:href="#DejaVuSans-48"/>
       <use x="190.869141" xlink:href="#DejaVuSans-48"/>
      </g>
     </g>
    </g>
    <g id="xtick_8">
     <g id="line2d_15">
      <path clip-path="url(#p610c77bcb3)" d="M 365.189371 307.584 
L 365.189371 41.472 
" style="fill:none;stroke:#ffffff;stroke-linecap:square;stroke-width:0.8;"/>
     </g>
     <g id="line2d_16">
      <g>
       <use style="fill:#555555;stroke:#555555;stroke-width:0.8;" x="365.189371" xlink:href="#m42c2bee47d" y="307.584"/>
      </g>
     </g>
     <g id="text_8">
      <!-- 7000 -->
      <defs>
       <path d="M 8.203125 72.90625 
L 55.078125 72.90625 
L 55.078125 68.703125 
L 28.609375 0 
L 18.3125 0 
L 43.21875 64.59375 
L 8.203125 64.59375 
z
" id="DejaVuSans-55"/>
      </defs>
      <g style="fill:#555555;" transform="translate(352.464371 322.182437)scale(0.1 -0.1)">
       <use xlink:href="#DejaVuSans-55"/>
       <use x="63.623047" xlink:href="#DejaVuSans-48"/>
       <use x="127.246094" xlink:href="#DejaVuSans-48"/>
       <use x="190.869141" xlink:href="#DejaVuSans-48"/>
      </g>
     </g>
    </g>
    <g id="text_9">
     <!-- Steps -->
     <defs>
      <path d="M 53.515625 70.515625 
L 53.515625 60.890625 
Q 47.90625 63.578125 42.921875 64.890625 
Q 37.9375 66.21875 33.296875 66.21875 
Q 25.25 66.21875 20.875 63.09375 
Q 16.5 59.96875 16.5 54.203125 
Q 16.5 49.359375 19.40625 46.890625 
Q 22.3125 44.4375 30.421875 42.921875 
L 36.375 41.703125 
Q 47.40625 39.59375 52.65625 34.296875 
Q 57.90625 29 57.90625 20.125 
Q 57.90625 9.515625 50.796875 4.046875 
Q 43.703125 -1.421875 29.984375 -1.421875 
Q 24.8125 -1.421875 18.96875 -0.25 
Q 13.140625 0.921875 6.890625 3.21875 
L 6.890625 13.375 
Q 12.890625 10.015625 18.65625 8.296875 
Q 24.421875 6.59375 29.984375 6.59375 
Q 38.421875 6.59375 43.015625 9.90625 
Q 47.609375 13.234375 47.609375 19.390625 
Q 47.609375 24.75 44.3125 27.78125 
Q 41.015625 30.8125 33.5 32.328125 
L 27.484375 33.5 
Q 16.453125 35.6875 11.515625 40.375 
Q 6.59375 45.0625 6.59375 53.421875 
Q 6.59375 63.09375 13.40625 68.65625 
Q 20.21875 74.21875 32.171875 74.21875 
Q 37.3125 74.21875 42.625 73.28125 
Q 47.953125 72.359375 53.515625 70.515625 
z
" id="DejaVuSans-83"/>
      <path d="M 18.3125 70.21875 
L 18.3125 54.6875 
L 36.8125 54.6875 
L 36.8125 47.703125 
L 18.3125 47.703125 
L 18.3125 18.015625 
Q 18.3125 11.328125 20.140625 9.421875 
Q 21.96875 7.515625 27.59375 7.515625 
L 36.8125 7.515625 
L 36.8125 0 
L 27.59375 0 
Q 17.1875 0 13.234375 3.875 
Q 9.28125 7.765625 9.28125 18.015625 
L 9.28125 47.703125 
L 2.6875 47.703125 
L 2.6875 54.6875 
L 9.28125 54.6875 
L 9.28125 70.21875 
z
" id="DejaVuSans-116"/>
      <path d="M 56.203125 29.59375 
L 56.203125 25.203125 
L 14.890625 25.203125 
Q 15.484375 15.921875 20.484375 11.0625 
Q 25.484375 6.203125 34.421875 6.203125 
Q 39.59375 6.203125 44.453125 7.46875 
Q 49.3125 8.734375 54.109375 11.28125 
L 54.109375 2.78125 
Q 49.265625 0.734375 44.1875 -0.34375 
Q 39.109375 -1.421875 33.890625 -1.421875 
Q 20.796875 -1.421875 13.15625 6.1875 
Q 5.515625 13.8125 5.515625 26.8125 
Q 5.515625 40.234375 12.765625 48.109375 
Q 20.015625 56 32.328125 56 
Q 43.359375 56 49.78125 48.890625 
Q 56.203125 41.796875 56.203125 29.59375 
z
M 47.21875 32.234375 
Q 47.125 39.59375 43.09375 43.984375 
Q 39.0625 48.390625 32.421875 48.390625 
Q 24.90625 48.390625 20.390625 44.140625 
Q 15.875 39.890625 15.1875 32.171875 
z
" id="DejaVuSans-101"/>
      <path d="M 18.109375 8.203125 
L 18.109375 -20.796875 
L 9.078125 -20.796875 
L 9.078125 54.6875 
L 18.109375 54.6875 
L 18.109375 46.390625 
Q 20.953125 51.265625 25.265625 53.625 
Q 29.59375 56 35.59375 56 
Q 45.5625 56 51.78125 48.09375 
Q 58.015625 40.1875 58.015625 27.296875 
Q 58.015625 14.40625 51.78125 6.484375 
Q 45.5625 -1.421875 35.59375 -1.421875 
Q 29.59375 -1.421875 25.265625 0.953125 
Q 20.953125 3.328125 18.109375 8.203125 
z
M 48.6875 27.296875 
Q 48.6875 37.203125 44.609375 42.84375 
Q 40.53125 48.484375 33.40625 48.484375 
Q 26.265625 48.484375 22.1875 42.84375 
Q 18.109375 37.203125 18.109375 27.296875 
Q 18.109375 17.390625 22.1875 11.75 
Q 26.265625 6.109375 33.40625 6.109375 
Q 40.53125 6.109375 44.609375 11.75 
Q 48.6875 17.390625 48.6875 27.296875 
z
" id="DejaVuSans-112"/>
      <path d="M 44.28125 53.078125 
L 44.28125 44.578125 
Q 40.484375 46.53125 36.375 47.5 
Q 32.28125 48.484375 27.875 48.484375 
Q 21.1875 48.484375 17.84375 46.4375 
Q 14.5 44.390625 14.5 40.28125 
Q 14.5 37.15625 16.890625 35.375 
Q 19.28125 33.59375 26.515625 31.984375 
L 29.59375 31.296875 
Q 39.15625 29.25 43.1875 25.515625 
Q 47.21875 21.78125 47.21875 15.09375 
Q 47.21875 7.46875 41.1875 3.015625 
Q 35.15625 -1.421875 24.609375 -1.421875 
Q 20.21875 -1.421875 15.453125 -0.5625 
Q 10.6875 0.296875 5.421875 2 
L 5.421875 11.28125 
Q 10.40625 8.6875 15.234375 7.390625 
Q 20.0625 6.109375 24.8125 6.109375 
Q 31.15625 6.109375 34.5625 8.28125 
Q 37.984375 10.453125 37.984375 14.40625 
Q 37.984375 18.0625 35.515625 20.015625 
Q 33.0625 21.96875 24.703125 23.78125 
L 21.578125 24.515625 
Q 13.234375 26.265625 9.515625 29.90625 
Q 5.8125 33.546875 5.8125 39.890625 
Q 5.8125 47.609375 11.28125 51.796875 
Q 16.75 56 26.8125 56 
Q 31.78125 56 36.171875 55.265625 
Q 40.578125 54.546875 44.28125 53.078125 
z
" id="DejaVuSans-115"/>
     </defs>
     <g style="fill:#555555;" transform="translate(219.372187 337.38025)scale(0.12 -0.12)">
      <use xlink:href="#DejaVuSans-83"/>
      <use x="63.476562" xlink:href="#DejaVuSans-116"/>
      <use x="102.685547" xlink:href="#DejaVuSans-101"/>
      <use x="164.208984" xlink:href="#DejaVuSans-112"/>
      <use x="227.685547" xlink:href="#DejaVuSans-115"/>
     </g>
    </g>
   </g>
   <g id="matplotlib.axis_2">
    <g id="ytick_1">
     <g id="line2d_17">
      <path clip-path="url(#p610c77bcb3)" d="M 57.6 295.935102 
L 414.72 295.935102 
" style="fill:none;stroke:#ffffff;stroke-linecap:square;stroke-width:0.8;"/>
     </g>
     <g id="line2d_18">
      <defs>
       <path d="M 0 0 
L -3.5 0 
" id="m6895129e56" style="stroke:#555555;stroke-width:0.8;"/>
      </defs>
      <g>
       <use style="fill:#555555;stroke:#555555;stroke-width:0.8;" x="57.6" xlink:href="#m6895129e56" y="295.935102"/>
      </g>
     </g>
     <g id="text_10">
      <!-- 0.0 -->
      <defs>
       <path d="M 10.6875 12.40625 
L 21 12.40625 
L 21 0 
L 10.6875 0 
z
" id="DejaVuSans-46"/>
      </defs>
      <g style="fill:#555555;" transform="translate(34.696875 299.734321)scale(0.1 -0.1)">
       <use xlink:href="#DejaVuSans-48"/>
       <use x="63.623047" xlink:href="#DejaVuSans-46"/>
       <use x="95.410156" xlink:href="#DejaVuSans-48"/>
      </g>
     </g>
    </g>
    <g id="ytick_2">
     <g id="line2d_19">
      <path clip-path="url(#p610c77bcb3)" d="M 57.6 249.302155 
L 414.72 249.302155 
" style="fill:none;stroke:#ffffff;stroke-linecap:square;stroke-width:0.8;"/>
     </g>
     <g id="line2d_20">
      <g>
       <use style="fill:#555555;stroke:#555555;stroke-width:0.8;" x="57.6" xlink:href="#m6895129e56" y="249.302155"/>
      </g>
     </g>
     <g id="text_11">
      <!-- 0.5 -->
      <g style="fill:#555555;" transform="translate(34.696875 253.101374)scale(0.1 -0.1)">
       <use xlink:href="#DejaVuSans-48"/>
       <use x="63.623047" xlink:href="#DejaVuSans-46"/>
       <use x="95.410156" xlink:href="#DejaVuSans-53"/>
      </g>
     </g>
    </g>
    <g id="ytick_3">
     <g id="line2d_21">
      <path clip-path="url(#p610c77bcb3)" d="M 57.6 202.669208 
L 414.72 202.669208 
" style="fill:none;stroke:#ffffff;stroke-linecap:square;stroke-width:0.8;"/>
     </g>
     <g id="line2d_22">
      <g>
       <use style="fill:#555555;stroke:#555555;stroke-width:0.8;" x="57.6" xlink:href="#m6895129e56" y="202.669208"/>
      </g>
     </g>
     <g id="text_12">
      <!-- 1.0 -->
      <g style="fill:#555555;" transform="translate(34.696875 206.468427)scale(0.1 -0.1)">
       <use xlink:href="#DejaVuSans-49"/>
       <use x="63.623047" xlink:href="#DejaVuSans-46"/>
       <use x="95.410156" xlink:href="#DejaVuSans-48"/>
      </g>
     </g>
    </g>
    <g id="ytick_4">
     <g id="line2d_23">
      <path clip-path="url(#p610c77bcb3)" d="M 57.6 156.036262 
L 414.72 156.036262 
" style="fill:none;stroke:#ffffff;stroke-linecap:square;stroke-width:0.8;"/>
     </g>
     <g id="line2d_24">
      <g>
       <use style="fill:#555555;stroke:#555555;stroke-width:0.8;" x="57.6" xlink:href="#m6895129e56" y="156.036262"/>
      </g>
     </g>
     <g id="text_13">
      <!-- 1.5 -->
      <g style="fill:#555555;" transform="translate(34.696875 159.83548)scale(0.1 -0.1)">
       <use xlink:href="#DejaVuSans-49"/>
       <use x="63.623047" xlink:href="#DejaVuSans-46"/>
       <use x="95.410156" xlink:href="#DejaVuSans-53"/>
      </g>
     </g>
    </g>
    <g id="ytick_5">
     <g id="line2d_25">
      <path clip-path="url(#p610c77bcb3)" d="M 57.6 109.403315 
L 414.72 109.403315 
" style="fill:none;stroke:#ffffff;stroke-linecap:square;stroke-width:0.8;"/>
     </g>
     <g id="line2d_26">
      <g>
       <use style="fill:#555555;stroke:#555555;stroke-width:0.8;" x="57.6" xlink:href="#m6895129e56" y="109.403315"/>
      </g>
     </g>
     <g id="text_14">
      <!-- 2.0 -->
      <g style="fill:#555555;" transform="translate(34.696875 113.202534)scale(0.1 -0.1)">
       <use xlink:href="#DejaVuSans-50"/>
       <use x="63.623047" xlink:href="#DejaVuSans-46"/>
       <use x="95.410156" xlink:href="#DejaVuSans-48"/>
      </g>
     </g>
    </g>
    <g id="ytick_6">
     <g id="line2d_27">
      <path clip-path="url(#p610c77bcb3)" d="M 57.6 62.770368 
L 414.72 62.770368 
" style="fill:none;stroke:#ffffff;stroke-linecap:square;stroke-width:0.8;"/>
     </g>
     <g id="line2d_28">
      <g>
       <use style="fill:#555555;stroke:#555555;stroke-width:0.8;" x="57.6" xlink:href="#m6895129e56" y="62.770368"/>
      </g>
     </g>
     <g id="text_15">
      <!-- 2.5 -->
      <g style="fill:#555555;" transform="translate(34.696875 66.569587)scale(0.1 -0.1)">
       <use xlink:href="#DejaVuSans-50"/>
       <use x="63.623047" xlink:href="#DejaVuSans-46"/>
       <use x="95.410156" xlink:href="#DejaVuSans-53"/>
      </g>
     </g>
    </g>
    <g id="text_16">
     <!-- Loss -->
     <defs>
      <path d="M 9.8125 72.90625 
L 19.671875 72.90625 
L 19.671875 8.296875 
L 55.171875 8.296875 
L 55.171875 0 
L 9.8125 0 
z
" id="DejaVuSans-76"/>
      <path d="M 30.609375 48.390625 
Q 23.390625 48.390625 19.1875 42.75 
Q 14.984375 37.109375 14.984375 27.296875 
Q 14.984375 17.484375 19.15625 11.84375 
Q 23.34375 6.203125 30.609375 6.203125 
Q 37.796875 6.203125 41.984375 11.859375 
Q 46.1875 17.53125 46.1875 27.296875 
Q 46.1875 37.015625 41.984375 42.703125 
Q 37.796875 48.390625 30.609375 48.390625 
z
M 30.609375 56 
Q 42.328125 56 49.015625 48.375 
Q 55.71875 40.765625 55.71875 27.296875 
Q 55.71875 13.875 49.015625 6.21875 
Q 42.328125 -1.421875 30.609375 -1.421875 
Q 18.84375 -1.421875 12.171875 6.21875 
Q 5.515625 13.875 5.515625 27.296875 
Q 5.515625 40.765625 12.171875 48.375 
Q 18.84375 56 30.609375 56 
z
" id="DejaVuSans-111"/>
     </defs>
     <g style="fill:#555555;" transform="translate(28.20125 187.792687)rotate(-90)scale(0.12 -0.12)">
      <use xlink:href="#DejaVuSans-76"/>
      <use x="55.697266" xlink:href="#DejaVuSans-111"/>
      <use x="116.878906" xlink:href="#DejaVuSans-115"/>
      <use x="168.978516" xlink:href="#DejaVuSans-115"/>
     </g>
    </g>
   </g>
   <g id="PolyCollection_1">
    <defs>
     <path d="M 73.832727 -264.430543 
L 73.832727 -264.430543 
L 75.081399 -245.697176 
L 76.33007 -230.414118 
L 77.578741 -236.518 
L 78.827413 -223.856149 
L 80.076084 -227.187506 
L 81.324755 -201.14884 
L 82.573427 -203.081187 
L 83.822098 -195.063648 
L 85.070769 -181.97417 
L 86.319441 -200.298767 
L 87.568112 -204.630558 
L 88.816783 -197.115182 
L 90.065455 -174.168932 
L 91.314126 -175.45895 
L 92.562797 -178.11777 
L 93.811469 -169.867227 
L 95.06014 -168.929555 
L 96.308811 -166.530322 
L 97.557483 -158.377175 
L 98.806154 -144.857002 
L 100.054825 -147.772962 
L 101.303497 -155.996398 
L 102.552168 -141.430346 
L 103.800839 -151.904571 
L 105.04951 -147.221023 
L 106.298182 -145.166932 
L 107.546853 -131.778381 
L 108.795524 -133.770266 
L 110.044196 -128.241967 
L 111.292867 -137.753353 
L 112.541538 -128.588364 
L 113.79021 -115.92514 
L 115.038881 -127.628945 
L 116.287552 -151.464725 
L 117.536224 -120.681639 
L 118.784895 -114.826877 
L 120.033566 -134.397181 
L 121.282238 -130.855179 
L 122.530909 -126.390715 
L 123.77958 -110.449418 
L 125.028252 -137.766834 
L 126.276923 -127.838655 
L 127.525594 -118.056536 
L 128.774266 -110.287482 
L 130.022937 -113.420313 
L 131.271608 -137.442273 
L 132.52028 -121.919825 
L 133.768951 -128.651543 
L 135.017622 -127.539327 
L 136.266294 -130.923728 
L 137.514965 -124.345768 
L 138.763636 -136.958866 
L 140.012308 -111.600281 
L 141.260979 -108.112509 
L 142.50965 -97.331856 
L 143.758322 -96.652375 
L 145.006993 -122.686894 
L 146.255664 -88.97141 
L 147.504336 -108.924573 
L 148.753007 -109.927154 
L 150.001678 -112.292187 
L 151.25035 -112.934616 
L 152.499021 -110.209182 
L 153.747692 -94.451213 
L 154.996364 -118.931291 
L 156.245035 -90.267438 
L 157.493706 -112.779284 
L 158.742378 -98.683424 
L 159.991049 -125.62344 
L 161.23972 -100.956982 
L 162.488392 -97.169931 
L 163.737063 -96.13294 
L 164.985734 -99.930743 
L 166.234406 -95.39659 
L 167.483077 -101.910448 
L 168.731748 -87.729868 
L 169.98042 -101.806188 
L 171.229091 -91.542785 
L 172.477762 -78.355752 
L 173.726434 -82.793543 
L 174.975105 -85.887422 
L 176.223776 -98.703648 
L 177.472448 -92.15929 
L 178.721119 -87.78545 
L 179.96979 -82.715686 
L 181.218462 -98.519287 
L 182.467133 -74.754474 
L 183.715804 -98.619245 
L 184.964476 -78.392211 
L 186.213147 -86.617465 
L 187.461818 -88.492031 
L 188.71049 -86.468126 
L 189.959161 -81.377078 
L 191.207832 -89.747024 
L 192.456503 -83.092294 
L 193.705175 -77.594869 
L 194.953846 -80.537646 
L 196.202517 -84.831875 
L 197.451189 -91.257752 
L 198.69986 -81.006568 
L 199.948531 -85.287366 
L 201.197203 -78.955985 
L 202.445874 -87.809148 
L 203.694545 -88.796458 
L 204.943217 -71.193664 
L 206.191888 -74.013796 
L 207.440559 -81.402553 
L 208.689231 -75.979428 
L 209.937902 -89.379386 
L 211.186573 -70.396357 
L 212.435245 -76.974117 
L 213.683916 -69.321312 
L 214.932587 -83.647852 
L 216.181259 -79.168256 
L 217.42993 -82.891061 
L 218.678601 -83.306335 
L 219.927273 -82.815677 
L 221.175944 -65.196003 
L 222.424615 -65.827772 
L 223.673287 -67.270203 
L 224.921958 -60.04456 
L 226.170629 -66.807351 
L 227.419301 -58.200335 
L 228.667972 -77.279808 
L 229.916643 -78.928164 
L 231.165315 -78.021064 
L 232.413986 -75.362003 
L 233.662657 -69.976238 
L 234.911329 -83.039697 
L 236.16 -72.369905 
L 237.408671 -66.346416 
L 238.657343 -64.966673 
L 239.906014 -75.657774 
L 241.154685 -66.001514 
L 242.403357 -70.569235 
L 243.652028 -68.142998 
L 244.900699 -72.075173 
L 246.149371 -65.645339 
L 247.398042 -70.060044 
L 248.646713 -66.136016 
L 249.895385 -67.324304 
L 251.144056 -64.102885 
L 252.392727 -75.659484 
L 253.641399 -57.659109 
L 254.89007 -61.664644 
L 256.138741 -62.561737 
L 257.387413 -80.777245 
L 258.636084 -65.287298 
L 259.884755 -66.160775 
L 261.133427 -66.543099 
L 262.382098 -68.020739 
L 263.630769 -74.889618 
L 264.879441 -71.357749 
L 266.128112 -68.170668 
L 267.376783 -61.515952 
L 268.625455 -66.011455 
L 269.874126 -58.866615 
L 271.122797 -64.279992 
L 272.371469 -64.534798 
L 273.62014 -69.038238 
L 274.868811 -56.839734 
L 276.117483 -62.710387 
L 277.366154 -64.073402 
L 278.614825 -63.018782 
L 279.863497 -57.953967 
L 281.112168 -63.666348 
L 282.360839 -58.595163 
L 283.60951 -71.581592 
L 284.858182 -65.913013 
L 286.106853 -59.379293 
L 287.355524 -63.562868 
L 288.604196 -56.080859 
L 289.852867 -60.790376 
L 291.101538 -56.248053 
L 292.35021 -60.812657 
L 293.598881 -59.930145 
L 294.847552 -60.508131 
L 296.096224 -59.989122 
L 297.344895 -59.480752 
L 298.593566 -61.40005 
L 299.842238 -62.486516 
L 301.090909 -61.627475 
L 302.33958 -63.852364 
L 303.588252 -55.693166 
L 304.836923 -66.353936 
L 306.085594 -57.018639 
L 307.334266 -60.5169 
L 308.582937 -54.803914 
L 309.831608 -62.237412 
L 311.08028 -59.150158 
L 312.328951 -67.870557 
L 313.577622 -67.869609 
L 314.826294 -54.704024 
L 316.074965 -59.205767 
L 317.323636 -60.679696 
L 318.572308 -54.339552 
L 319.820979 -67.220323 
L 321.06965 -54.705922 
L 322.318322 -63.556088 
L 323.566993 -64.10864 
L 324.815664 -73.816443 
L 326.064336 -53.325114 
L 327.313007 -57.126992 
L 328.561678 -63.618168 
L 329.81035 -61.206037 
L 331.059021 -66.185152 
L 332.307692 -64.694914 
L 333.556364 -62.84618 
L 334.805035 -61.319114 
L 336.053706 -54.457976 
L 337.302378 -51.603985 
L 338.551049 -51.926477 
L 339.79972 -53.971971 
L 341.048392 -67.948332 
L 342.297063 -56.702228 
L 343.545734 -58.063004 
L 344.794406 -62.089756 
L 346.043077 -59.2231 
L 347.291748 -54.917436 
L 348.54042 -59.706914 
L 349.789091 -54.391443 
L 351.037762 -53.040034 
L 352.286434 -61.799918 
L 353.535105 -64.391881 
L 354.783776 -54.745265 
L 356.032448 -56.677361 
L 357.281119 -61.534429 
L 358.52979 -57.933987 
L 359.778462 -55.604846 
L 361.027133 -57.787821 
L 362.275804 -58.580374 
L 363.524476 -55.032342 
L 364.773147 -64.815893 
L 366.021818 -65.271151 
L 367.27049 -65.393809 
L 368.519161 -60.972731 
L 369.767832 -57.801296 
L 371.016503 -62.063 
L 372.265175 -68.328463 
L 373.513846 -50.772869 
L 374.762517 -56.686063 
L 376.011189 -59.007115 
L 377.25986 -55.456021 
L 378.508531 -52.608422 
L 379.757203 -53.387007 
L 381.005874 -58.403783 
L 382.254545 -64.666456 
L 383.503217 -54.133892 
L 384.751888 -53.387976 
L 386.000559 -55.949611 
L 387.249231 -55.211214 
L 388.497902 -59.85462 
L 389.746573 -59.475713 
L 390.995245 -65.741439 
L 392.243916 -56.493712 
L 393.492587 -59.213869 
L 394.741259 -62.791182 
L 395.98993 -58.274579 
L 397.238601 -56.83424 
L 398.487273 -54.203211 
L 398.487273 -54.203211 
L 398.487273 -54.203211 
L 397.238601 -56.83424 
L 395.98993 -58.274579 
L 394.741259 -62.791182 
L 393.492587 -59.213869 
L 392.243916 -56.493712 
L 390.995245 -65.741439 
L 389.746573 -59.475713 
L 388.497902 -59.85462 
L 387.249231 -55.211214 
L 386.000559 -55.949611 
L 384.751888 -53.387976 
L 383.503217 -54.133892 
L 382.254545 -64.666456 
L 381.005874 -58.403783 
L 379.757203 -53.387007 
L 378.508531 -52.608422 
L 377.25986 -55.456021 
L 376.011189 -59.007115 
L 374.762517 -56.686063 
L 373.513846 -50.772869 
L 372.265175 -68.328463 
L 371.016503 -62.063 
L 369.767832 -57.801296 
L 368.519161 -60.972731 
L 367.27049 -65.393809 
L 366.021818 -65.271151 
L 364.773147 -64.815893 
L 363.524476 -55.032342 
L 362.275804 -58.580374 
L 361.027133 -57.787821 
L 359.778462 -55.604846 
L 358.52979 -57.933987 
L 357.281119 -61.534429 
L 356.032448 -56.677361 
L 354.783776 -54.745265 
L 353.535105 -64.391881 
L 352.286434 -61.799918 
L 351.037762 -53.040034 
L 349.789091 -54.391443 
L 348.54042 -59.706914 
L 347.291748 -54.917436 
L 346.043077 -59.2231 
L 344.794406 -62.089756 
L 343.545734 -58.063004 
L 342.297063 -56.702228 
L 341.048392 -67.948332 
L 339.79972 -53.971971 
L 338.551049 -51.926477 
L 337.302378 -51.603985 
L 336.053706 -54.457976 
L 334.805035 -61.319114 
L 333.556364 -62.84618 
L 332.307692 -64.694914 
L 331.059021 -66.185152 
L 329.81035 -61.206037 
L 328.561678 -63.618168 
L 327.313007 -57.126992 
L 326.064336 -53.325114 
L 324.815664 -73.816443 
L 323.566993 -64.10864 
L 322.318322 -63.556088 
L 321.06965 -54.705922 
L 319.820979 -67.220323 
L 318.572308 -54.339552 
L 317.323636 -60.679696 
L 316.074965 -59.205767 
L 314.826294 -54.704024 
L 313.577622 -67.869609 
L 312.328951 -67.870557 
L 311.08028 -59.150158 
L 309.831608 -62.237412 
L 308.582937 -54.803914 
L 307.334266 -60.5169 
L 306.085594 -57.018639 
L 304.836923 -66.353936 
L 303.588252 -55.693166 
L 302.33958 -63.852364 
L 301.090909 -61.627475 
L 299.842238 -62.486516 
L 298.593566 -61.40005 
L 297.344895 -59.480752 
L 296.096224 -59.989122 
L 294.847552 -60.508131 
L 293.598881 -59.930145 
L 292.35021 -60.812657 
L 291.101538 -56.248053 
L 289.852867 -60.790376 
L 288.604196 -56.080859 
L 287.355524 -63.562868 
L 286.106853 -59.379293 
L 284.858182 -65.913013 
L 283.60951 -71.581592 
L 282.360839 -58.595163 
L 281.112168 -63.666348 
L 279.863497 -57.953967 
L 278.614825 -63.018782 
L 277.366154 -64.073402 
L 276.117483 -62.710387 
L 274.868811 -56.839734 
L 273.62014 -69.038238 
L 272.371469 -64.534798 
L 271.122797 -64.279992 
L 269.874126 -58.866615 
L 268.625455 -66.011455 
L 267.376783 -61.515952 
L 266.128112 -68.170668 
L 264.879441 -71.357749 
L 263.630769 -74.889618 
L 262.382098 -68.020739 
L 261.133427 -66.543099 
L 259.884755 -66.160775 
L 258.636084 -65.287298 
L 257.387413 -80.777245 
L 256.138741 -62.561737 
L 254.89007 -61.664644 
L 253.641399 -57.659109 
L 252.392727 -75.659484 
L 251.144056 -64.102885 
L 249.895385 -67.324304 
L 248.646713 -66.136016 
L 247.398042 -70.060044 
L 246.149371 -65.645339 
L 244.900699 -72.075173 
L 243.652028 -68.142998 
L 242.403357 -70.569235 
L 241.154685 -66.001514 
L 239.906014 -75.657774 
L 238.657343 -64.966673 
L 237.408671 -66.346416 
L 236.16 -72.369905 
L 234.911329 -83.039697 
L 233.662657 -69.976238 
L 232.413986 -75.362003 
L 231.165315 -78.021064 
L 229.916643 -78.928164 
L 228.667972 -77.279808 
L 227.419301 -58.200335 
L 226.170629 -66.807351 
L 224.921958 -60.04456 
L 223.673287 -67.270203 
L 222.424615 -65.827772 
L 221.175944 -65.196003 
L 219.927273 -82.815677 
L 218.678601 -83.306335 
L 217.42993 -82.891061 
L 216.181259 -79.168256 
L 214.932587 -83.647852 
L 213.683916 -69.321312 
L 212.435245 -76.974117 
L 211.186573 -70.396357 
L 209.937902 -89.379386 
L 208.689231 -75.979428 
L 207.440559 -81.402553 
L 206.191888 -74.013796 
L 204.943217 -71.193664 
L 203.694545 -88.796458 
L 202.445874 -87.809148 
L 201.197203 -78.955985 
L 199.948531 -85.287366 
L 198.69986 -81.006568 
L 197.451189 -91.257752 
L 196.202517 -84.831875 
L 194.953846 -80.537646 
L 193.705175 -77.594869 
L 192.456503 -83.092294 
L 191.207832 -89.747024 
L 189.959161 -81.377078 
L 188.71049 -86.468126 
L 187.461818 -88.492031 
L 186.213147 -86.617465 
L 184.964476 -78.392211 
L 183.715804 -98.619245 
L 182.467133 -74.754474 
L 181.218462 -98.519287 
L 179.96979 -82.715686 
L 178.721119 -87.78545 
L 177.472448 -92.15929 
L 176.223776 -98.703648 
L 174.975105 -85.887422 
L 173.726434 -82.793543 
L 172.477762 -78.355752 
L 171.229091 -91.542785 
L 169.98042 -101.806188 
L 168.731748 -87.729868 
L 167.483077 -101.910448 
L 166.234406 -95.39659 
L 164.985734 -99.930743 
L 163.737063 -96.13294 
L 162.488392 -97.169931 
L 161.23972 -100.956982 
L 159.991049 -125.62344 
L 158.742378 -98.683424 
L 157.493706 -112.779284 
L 156.245035 -90.267438 
L 154.996364 -118.931291 
L 153.747692 -94.451213 
L 152.499021 -110.209182 
L 151.25035 -112.934616 
L 150.001678 -112.292187 
L 148.753007 -109.927154 
L 147.504336 -108.924573 
L 146.255664 -88.97141 
L 145.006993 -122.686894 
L 143.758322 -96.652375 
L 142.50965 -97.331856 
L 141.260979 -108.112509 
L 140.012308 -111.600281 
L 138.763636 -136.958866 
L 137.514965 -124.345768 
L 136.266294 -130.923728 
L 135.017622 -127.539327 
L 133.768951 -128.651543 
L 132.52028 -121.919825 
L 131.271608 -137.442273 
L 130.022937 -113.420313 
L 128.774266 -110.287482 
L 127.525594 -118.056536 
L 126.276923 -127.838655 
L 125.028252 -137.766834 
L 123.77958 -110.449418 
L 122.530909 -126.390715 
L 121.282238 -130.855179 
L 120.033566 -134.397181 
L 118.784895 -114.826877 
L 117.536224 -120.681639 
L 116.287552 -151.464725 
L 115.038881 -127.628945 
L 113.79021 -115.92514 
L 112.541538 -128.588364 
L 111.292867 -137.753353 
L 110.044196 -128.241967 
L 108.795524 -133.770266 
L 107.546853 -131.778381 
L 106.298182 -145.166932 
L 105.04951 -147.221023 
L 103.800839 -151.904571 
L 102.552168 -141.430346 
L 101.303497 -155.996398 
L 100.054825 -147.772962 
L 98.806154 -144.857002 
L 97.557483 -158.377175 
L 96.308811 -166.530322 
L 95.06014 -168.929555 
L 93.811469 -169.867227 
L 92.562797 -178.11777 
L 91.314126 -175.45895 
L 90.065455 -174.168932 
L 88.816783 -197.115182 
L 87.568112 -204.630558 
L 86.319441 -200.298767 
L 85.070769 -181.97417 
L 83.822098 -195.063648 
L 82.573427 -203.081187 
L 81.324755 -201.14884 
L 80.076084 -227.187506 
L 78.827413 -223.856149 
L 77.578741 -236.518 
L 76.33007 -230.414118 
L 75.081399 -245.697176 
L 73.832727 -264.430543 
z
" id="mfe159156ea" style="stroke:#90ee90;stroke-width:0.5;"/>
    </defs>
    <g clip-path="url(#p610c77bcb3)">
     <use style="fill:#90ee90;stroke:#90ee90;stroke-width:0.5;" x="0" xlink:href="#mfe159156ea" y="345.6"/>
    </g>
   </g>
   <g id="PolyCollection_2">
    <defs>
     <path d="M 73.832727 -292.032 
L 73.832727 -292.032 
L 75.081399 -203.72335 
L 76.33007 -167.302667 
L 77.578741 -199.004069 
L 78.827413 -171.301592 
L 80.076084 -170.960654 
L 81.324755 -147.767425 
L 82.573427 -156.270806 
L 83.822098 -146.547829 
L 85.070769 -147.821804 
L 86.319441 -145.698124 
L 87.568112 -129.433622 
L 88.816783 -140.616941 
L 90.065455 -120.786495 
L 91.314126 -104.176746 
L 92.562797 -121.965759 
L 93.811469 -117.977464 
L 95.06014 -140.623334 
L 96.308811 -127.399555 
L 97.557483 -134.897937 
L 98.806154 -125.151785 
L 100.054825 -131.578499 
L 101.303497 -114.782888 
L 102.552168 -129.037382 
L 103.800839 -128.130802 
L 105.04951 -103.776014 
L 106.298182 -121.095758 
L 107.546853 -108.82158 
L 108.795524 -97.035674 
L 110.044196 -107.673936 
L 111.292867 -106.265587 
L 112.541538 -100.766451 
L 113.79021 -106.514745 
L 115.038881 -106.721699 
L 116.287552 -102.327918 
L 117.536224 -113.908317 
L 118.784895 -93.751697 
L 120.033566 -106.402513 
L 121.282238 -99.838001 
L 122.530909 -104.425593 
L 123.77958 -93.450567 
L 125.028252 -103.260621 
L 126.276923 -91.93077 
L 127.525594 -94.539002 
L 128.774266 -88.734154 
L 130.022937 -87.236435 
L 131.271608 -95.729724 
L 132.52028 -87.71291 
L 133.768951 -83.319126 
L 135.017622 -91.824386 
L 136.266294 -92.97752 
L 137.514965 -85.005474 
L 138.763636 -96.644081 
L 140.012308 -82.156072 
L 141.260979 -79.911574 
L 142.50965 -110.46336 
L 143.758322 -76.150873 
L 145.006993 -109.259814 
L 146.255664 -85.403618 
L 147.504336 -92.366602 
L 148.753007 -83.786551 
L 150.001678 -85.177916 
L 151.25035 -82.028208 
L 152.499021 -86.599654 
L 153.747692 -82.077353 
L 154.996364 -96.389142 
L 156.245035 -67.444939 
L 157.493706 -77.131183 
L 158.742378 -75.384584 
L 159.991049 -82.561849 
L 161.23972 -85.745721 
L 162.488392 -69.309452 
L 163.737063 -77.783942 
L 164.985734 -85.658838 
L 166.234406 -78.368073 
L 167.483077 -76.516385 
L 168.731748 -75.999613 
L 169.98042 -86.574613 
L 171.229091 -79.855364 
L 172.477762 -64.353902 
L 173.726434 -71.09276 
L 174.975105 -80.007688 
L 176.223776 -71.541692 
L 177.472448 -66.015182 
L 178.721119 -67.763823 
L 179.96979 -72.523926 
L 181.218462 -68.789867 
L 182.467133 -66.823117 
L 183.715804 -68.954795 
L 184.964476 -70.819501 
L 186.213147 -63.544978 
L 187.461818 -79.98506 
L 188.71049 -65.640428 
L 189.959161 -74.11471 
L 191.207832 -76.905835 
L 192.456503 -61.412298 
L 193.705175 -66.484729 
L 194.953846 -66.953895 
L 196.202517 -63.568864 
L 197.451189 -64.632765 
L 198.69986 -64.833101 
L 199.948531 -70.982519 
L 201.197203 -61.705488 
L 202.445874 -64.179698 
L 203.694545 -75.441031 
L 204.943217 -70.352042 
L 206.191888 -64.636996 
L 207.440559 -61.461656 
L 208.689231 -53.052318 
L 209.937902 -57.443278 
L 211.186573 -61.569598 
L 212.435245 -66.388834 
L 213.683916 -75.864622 
L 214.932587 -71.063136 
L 216.181259 -60.8964 
L 217.42993 -73.09466 
L 218.678601 -62.208505 
L 219.927273 -73.073741 
L 221.175944 -56.301106 
L 222.424615 -73.370007 
L 223.673287 -52.80987 
L 224.921958 -59.429297 
L 226.170629 -61.172719 
L 227.419301 -56.105071 
L 228.667972 -57.201596 
L 229.916643 -62.777226 
L 231.165315 -60.83502 
L 232.413986 -58.318004 
L 233.662657 -56.462151 
L 234.911329 -64.966749 
L 236.16 -68.000616 
L 237.408671 -57.111362 
L 238.657343 -57.079305 
L 239.906014 -57.088293 
L 241.154685 -53.183362 
L 242.403357 -59.559493 
L 243.652028 -61.448642 
L 244.900699 -64.950798 
L 246.149371 -56.401025 
L 247.398042 -61.24681 
L 248.646713 -60.419012 
L 249.895385 -57.985311 
L 251.144056 -65.393357 
L 252.392727 -55.291684 
L 253.641399 -65.853235 
L 254.89007 -53.661125 
L 256.138741 -53.039818 
L 257.387413 -50.864091 
L 258.636084 -53.205342 
L 259.884755 -54.920303 
L 261.133427 -55.479295 
L 262.382098 -62.172655 
L 263.630769 -55.793625 
L 264.879441 -60.374477 
L 266.128112 -61.73047 
L 267.376783 -58.056475 
L 268.625455 -61.883821 
L 269.874126 -53.702308 
L 271.122797 -54.832883 
L 272.371469 -56.798358 
L 273.62014 -53.999446 
L 274.868811 -57.645389 
L 276.117483 -58.170187 
L 277.366154 -53.919644 
L 278.614825 -56.108569 
L 279.863497 -57.079401 
L 281.112168 -53.618363 
L 282.360839 -59.11152 
L 283.60951 -53.785804 
L 284.858182 -56.125147 
L 286.106853 -53.451984 
L 287.355524 -52.164605 
L 288.604196 -54.136152 
L 289.852867 -55.436993 
L 291.101538 -51.840272 
L 292.35021 -57.90023 
L 293.598881 -57.147077 
L 294.847552 -59.295672 
L 296.096224 -52.571711 
L 297.344895 -52.838417 
L 298.593566 -54.100073 
L 299.842238 -56.24673 
L 301.090909 -60.234033 
L 302.33958 -51.410669 
L 303.588252 -50.345084 
L 304.836923 -53.00174 
L 306.085594 -55.661049 
L 307.334266 -60.347364 
L 308.582937 -52.867261 
L 309.831608 -51.68693 
L 311.08028 -52.116222 
L 312.328951 -52.844497 
L 313.577622 -52.669563 
L 314.826294 -62.041168 
L 316.074965 -59.067858 
L 317.323636 -55.895385 
L 318.572308 -51.559864 
L 319.820979 -58.178786 
L 321.06965 -54.26228 
L 322.318322 -54.695303 
L 323.566993 -51.178506 
L 324.815664 -52.515178 
L 326.064336 -51.641625 
L 327.313007 -52.061144 
L 328.561678 -55.951875 
L 329.81035 -62.62103 
L 331.059021 -53.227052 
L 332.307692 -56.595778 
L 333.556364 -58.138724 
L 334.805035 -52.459691 
L 336.053706 -55.802276 
L 337.302378 -52.011407 
L 338.551049 -58.980021 
L 339.79972 -63.413627 
L 341.048392 -57.424458 
L 342.297063 -54.189642 
L 343.545734 -51.877972 
L 344.794406 -53.028851 
L 346.043077 -60.177275 
L 347.291748 -56.129636 
L 348.54042 -57.97614 
L 349.789091 -51.248213 
L 351.037762 -51.119193 
L 352.286434 -53.285259 
L 353.535105 -52.172477 
L 354.783776 -55.608668 
L 356.032448 -51.28807 
L 357.281119 -52.64748 
L 358.52979 -55.984862 
L 359.778462 -53.156497 
L 361.027133 -54.265539 
L 362.275804 -54.385747 
L 363.524476 -53.082106 
L 364.773147 -63.080553 
L 366.021818 -56.587363 
L 367.27049 -50.936236 
L 368.519161 -50.478906 
L 369.767832 -52.03036 
L 371.016503 -51.275951 
L 372.265175 -52.551839 
L 373.513846 -53.096091 
L 374.762517 -51.029823 
L 376.011189 -51.858883 
L 377.25986 -52.082091 
L 378.508531 -55.058657 
L 379.757203 -52.369782 
L 381.005874 -67.242459 
L 382.254545 -55.959664 
L 383.503217 -53.556043 
L 384.751888 -50.112 
L 386.000559 -51.430437 
L 387.249231 -50.688887 
L 388.497902 -52.071509 
L 389.746573 -54.87406 
L 390.995245 -52.706045 
L 392.243916 -56.351895 
L 393.492587 -56.757129 
L 394.741259 -53.431444 
L 395.98993 -52.55121 
L 397.238601 -55.248846 
L 398.487273 -58.390333 
L 398.487273 -58.390333 
L 398.487273 -58.390333 
L 397.238601 -55.248846 
L 395.98993 -52.55121 
L 394.741259 -53.431444 
L 393.492587 -56.757129 
L 392.243916 -56.351895 
L 390.995245 -52.706045 
L 389.746573 -54.87406 
L 388.497902 -52.071509 
L 387.249231 -50.688887 
L 386.000559 -51.430437 
L 384.751888 -50.112 
L 383.503217 -53.556043 
L 382.254545 -55.959664 
L 381.005874 -67.242459 
L 379.757203 -52.369782 
L 378.508531 -55.058657 
L 377.25986 -52.082091 
L 376.011189 -51.858883 
L 374.762517 -51.029823 
L 373.513846 -53.096091 
L 372.265175 -52.551839 
L 371.016503 -51.275951 
L 369.767832 -52.03036 
L 368.519161 -50.478906 
L 367.27049 -50.936236 
L 366.021818 -56.587363 
L 364.773147 -63.080553 
L 363.524476 -53.082106 
L 362.275804 -54.385747 
L 361.027133 -54.265539 
L 359.778462 -53.156497 
L 358.52979 -55.984862 
L 357.281119 -52.64748 
L 356.032448 -51.28807 
L 354.783776 -55.608668 
L 353.535105 -52.172477 
L 352.286434 -53.285259 
L 351.037762 -51.119193 
L 349.789091 -51.248213 
L 348.54042 -57.97614 
L 347.291748 -56.129636 
L 346.043077 -60.177275 
L 344.794406 -53.028851 
L 343.545734 -51.877972 
L 342.297063 -54.189642 
L 341.048392 -57.424458 
L 339.79972 -63.413627 
L 338.551049 -58.980021 
L 337.302378 -52.011407 
L 336.053706 -55.802276 
L 334.805035 -52.459691 
L 333.556364 -58.138724 
L 332.307692 -56.595778 
L 331.059021 -53.227052 
L 329.81035 -62.62103 
L 328.561678 -55.951875 
L 327.313007 -52.061144 
L 326.064336 -51.641625 
L 324.815664 -52.515178 
L 323.566993 -51.178506 
L 322.318322 -54.695303 
L 321.06965 -54.26228 
L 319.820979 -58.178786 
L 318.572308 -51.559864 
L 317.323636 -55.895385 
L 316.074965 -59.067858 
L 314.826294 -62.041168 
L 313.577622 -52.669563 
L 312.328951 -52.844497 
L 311.08028 -52.116222 
L 309.831608 -51.68693 
L 308.582937 -52.867261 
L 307.334266 -60.347364 
L 306.085594 -55.661049 
L 304.836923 -53.00174 
L 303.588252 -50.345084 
L 302.33958 -51.410669 
L 301.090909 -60.234033 
L 299.842238 -56.24673 
L 298.593566 -54.100073 
L 297.344895 -52.838417 
L 296.096224 -52.571711 
L 294.847552 -59.295672 
L 293.598881 -57.147077 
L 292.35021 -57.90023 
L 291.101538 -51.840272 
L 289.852867 -55.436993 
L 288.604196 -54.136152 
L 287.355524 -52.164605 
L 286.106853 -53.451984 
L 284.858182 -56.125147 
L 283.60951 -53.785804 
L 282.360839 -59.11152 
L 281.112168 -53.618363 
L 279.863497 -57.079401 
L 278.614825 -56.108569 
L 277.366154 -53.919644 
L 276.117483 -58.170187 
L 274.868811 -57.645389 
L 273.62014 -53.999446 
L 272.371469 -56.798358 
L 271.122797 -54.832883 
L 269.874126 -53.702308 
L 268.625455 -61.883821 
L 267.376783 -58.056475 
L 266.128112 -61.73047 
L 264.879441 -60.374477 
L 263.630769 -55.793625 
L 262.382098 -62.172655 
L 261.133427 -55.479295 
L 259.884755 -54.920303 
L 258.636084 -53.205342 
L 257.387413 -50.864091 
L 256.138741 -53.039818 
L 254.89007 -53.661125 
L 253.641399 -65.853235 
L 252.392727 -55.291684 
L 251.144056 -65.393357 
L 249.895385 -57.985311 
L 248.646713 -60.419012 
L 247.398042 -61.24681 
L 246.149371 -56.401025 
L 244.900699 -64.950798 
L 243.652028 -61.448642 
L 242.403357 -59.559493 
L 241.154685 -53.183362 
L 239.906014 -57.088293 
L 238.657343 -57.079305 
L 237.408671 -57.111362 
L 236.16 -68.000616 
L 234.911329 -64.966749 
L 233.662657 -56.462151 
L 232.413986 -58.318004 
L 231.165315 -60.83502 
L 229.916643 -62.777226 
L 228.667972 -57.201596 
L 227.419301 -56.105071 
L 226.170629 -61.172719 
L 224.921958 -59.429297 
L 223.673287 -52.80987 
L 222.424615 -73.370007 
L 221.175944 -56.301106 
L 219.927273 -73.073741 
L 218.678601 -62.208505 
L 217.42993 -73.09466 
L 216.181259 -60.8964 
L 214.932587 -71.063136 
L 213.683916 -75.864622 
L 212.435245 -66.388834 
L 211.186573 -61.569598 
L 209.937902 -57.443278 
L 208.689231 -53.052318 
L 207.440559 -61.461656 
L 206.191888 -64.636996 
L 204.943217 -70.352042 
L 203.694545 -75.441031 
L 202.445874 -64.179698 
L 201.197203 -61.705488 
L 199.948531 -70.982519 
L 198.69986 -64.833101 
L 197.451189 -64.632765 
L 196.202517 -63.568864 
L 194.953846 -66.953895 
L 193.705175 -66.484729 
L 192.456503 -61.412298 
L 191.207832 -76.905835 
L 189.959161 -74.11471 
L 188.71049 -65.640428 
L 187.461818 -79.98506 
L 186.213147 -63.544978 
L 184.964476 -70.819501 
L 183.715804 -68.954795 
L 182.467133 -66.823117 
L 181.218462 -68.789867 
L 179.96979 -72.523926 
L 178.721119 -67.763823 
L 177.472448 -66.015182 
L 176.223776 -71.541692 
L 174.975105 -80.007688 
L 173.726434 -71.09276 
L 172.477762 -64.353902 
L 171.229091 -79.855364 
L 169.98042 -86.574613 
L 168.731748 -75.999613 
L 167.483077 -76.516385 
L 166.234406 -78.368073 
L 164.985734 -85.658838 
L 163.737063 -77.783942 
L 162.488392 -69.309452 
L 161.23972 -85.745721 
L 159.991049 -82.561849 
L 158.742378 -75.384584 
L 157.493706 -77.131183 
L 156.245035 -67.444939 
L 154.996364 -96.389142 
L 153.747692 -82.077353 
L 152.499021 -86.599654 
L 151.25035 -82.028208 
L 150.001678 -85.177916 
L 148.753007 -83.786551 
L 147.504336 -92.366602 
L 146.255664 -85.403618 
L 145.006993 -109.259814 
L 143.758322 -76.150873 
L 142.50965 -110.46336 
L 141.260979 -79.911574 
L 140.012308 -82.156072 
L 138.763636 -96.644081 
L 137.514965 -85.005474 
L 136.266294 -92.97752 
L 135.017622 -91.824386 
L 133.768951 -83.319126 
L 132.52028 -87.71291 
L 131.271608 -95.729724 
L 130.022937 -87.236435 
L 128.774266 -88.734154 
L 127.525594 -94.539002 
L 126.276923 -91.93077 
L 125.028252 -103.260621 
L 123.77958 -93.450567 
L 122.530909 -104.425593 
L 121.282238 -99.838001 
L 120.033566 -106.402513 
L 118.784895 -93.751697 
L 117.536224 -113.908317 
L 116.287552 -102.327918 
L 115.038881 -106.721699 
L 113.79021 -106.514745 
L 112.541538 -100.766451 
L 111.292867 -106.265587 
L 110.044196 -107.673936 
L 108.795524 -97.035674 
L 107.546853 -108.82158 
L 106.298182 -121.095758 
L 105.04951 -103.776014 
L 103.800839 -128.130802 
L 102.552168 -129.037382 
L 101.303497 -114.782888 
L 100.054825 -131.578499 
L 98.806154 -125.151785 
L 97.557483 -134.897937 
L 96.308811 -127.399555 
L 95.06014 -140.623334 
L 93.811469 -117.977464 
L 92.562797 -121.965759 
L 91.314126 -104.176746 
L 90.065455 -120.786495 
L 88.816783 -140.616941 
L 87.568112 -129.433622 
L 86.319441 -145.698124 
L 85.070769 -147.821804 
L 83.822098 -146.547829 
L 82.573427 -156.270806 
L 81.324755 -147.767425 
L 80.076084 -170.960654 
L 78.827413 -171.301592 
L 77.578741 -199.004069 
L 76.33007 -167.302667 
L 75.081399 -203.72335 
L 73.832727 -292.032 
z
" id="m33b564f276" style="stroke:#f08080;stroke-width:0.5;"/>
    </defs>
    <g clip-path="url(#p610c77bcb3)">
     <use style="fill:#f08080;stroke:#f08080;stroke-width:0.5;" x="0" xlink:href="#m33b564f276" y="345.6"/>
    </g>
   </g>
   <g id="line2d_29">
    <path clip-path="url(#p610c77bcb3)" d="M 73.832727 81.169457 
L 75.081399 99.902824 
L 76.33007 115.185882 
L 77.578741 109.082 
L 78.827413 121.743851 
L 80.076084 118.412494 
L 81.324755 144.45116 
L 82.573427 142.518813 
L 83.822098 150.536352 
L 85.070769 163.62583 
L 86.319441 145.301233 
L 87.568112 140.969442 
L 88.816783 148.484818 
L 90.065455 171.431068 
L 91.314126 170.14105 
L 92.562797 167.48223 
L 93.811469 175.732773 
L 95.06014 176.670445 
L 96.308811 179.069678 
L 97.557483 187.222825 
L 98.806154 200.742998 
L 100.054825 197.827038 
L 101.303497 189.603602 
L 102.552168 204.169654 
L 103.800839 193.695429 
L 105.04951 198.378977 
L 106.298182 200.433068 
L 107.546853 213.821619 
L 108.795524 211.829734 
L 110.044196 217.358033 
L 111.292867 207.846647 
L 112.541538 217.011636 
L 113.79021 229.67486 
L 115.038881 217.971055 
L 116.287552 194.135275 
L 117.536224 224.918361 
L 118.784895 230.773123 
L 120.033566 211.202819 
L 121.282238 214.744821 
L 122.530909 219.209285 
L 123.77958 235.150582 
L 125.028252 207.833166 
L 127.525594 227.543464 
L 128.774266 235.312518 
L 130.022937 232.179687 
L 131.271608 208.157727 
L 132.52028 223.680175 
L 133.768951 216.948457 
L 135.017622 218.060673 
L 136.266294 214.676272 
L 137.514965 221.254232 
L 138.763636 208.641134 
L 140.012308 233.999719 
L 141.260979 237.487491 
L 142.50965 248.268144 
L 143.758322 248.947625 
L 145.006993 222.913106 
L 146.255664 256.62859 
L 147.504336 236.675427 
L 148.753007 235.672846 
L 150.001678 233.307813 
L 151.25035 232.665384 
L 152.499021 235.390818 
L 153.747692 251.148787 
L 154.996364 226.668709 
L 156.245035 255.332562 
L 157.493706 232.820716 
L 158.742378 246.916576 
L 159.991049 219.97656 
L 161.23972 244.643018 
L 162.488392 248.430069 
L 163.737063 249.46706 
L 164.985734 245.669257 
L 166.234406 250.20341 
L 167.483077 243.689552 
L 168.731748 257.870132 
L 169.98042 243.793812 
L 171.229091 254.057215 
L 172.477762 267.244248 
L 173.726434 262.806457 
L 174.975105 259.712578 
L 176.223776 246.896352 
L 177.472448 253.44071 
L 178.721119 257.81455 
L 179.96979 262.884314 
L 181.218462 247.080713 
L 182.467133 270.845526 
L 183.715804 246.980755 
L 184.964476 267.207789 
L 186.213147 258.982535 
L 187.461818 257.107969 
L 188.71049 259.131874 
L 189.959161 264.222922 
L 191.207832 255.852976 
L 192.456503 262.507706 
L 193.705175 268.005131 
L 194.953846 265.062354 
L 196.202517 260.768125 
L 197.451189 254.342248 
L 198.69986 264.593432 
L 199.948531 260.312634 
L 201.197203 266.644015 
L 202.445874 257.790852 
L 203.694545 256.803542 
L 204.943217 274.406336 
L 206.191888 271.586204 
L 207.440559 264.197447 
L 208.689231 269.620572 
L 209.937902 256.220614 
L 211.186573 275.203643 
L 212.435245 268.625883 
L 213.683916 276.278688 
L 214.932587 261.952148 
L 216.181259 266.431744 
L 217.42993 262.708939 
L 218.678601 262.293665 
L 219.927273 262.784323 
L 221.175944 280.403997 
L 222.424615 279.772228 
L 223.673287 278.329797 
L 224.921958 285.55544 
L 226.170629 278.792649 
L 227.419301 287.399665 
L 228.667972 268.320192 
L 229.916643 266.671836 
L 231.165315 267.578936 
L 232.413986 270.237997 
L 233.662657 275.623762 
L 234.911329 262.560303 
L 236.16 273.230095 
L 237.408671 279.253584 
L 238.657343 280.633327 
L 239.906014 269.942226 
L 241.154685 279.598486 
L 242.403357 275.030765 
L 243.652028 277.457002 
L 244.900699 273.524827 
L 246.149371 279.954661 
L 247.398042 275.539956 
L 248.646713 279.463984 
L 249.895385 278.275696 
L 251.144056 281.497115 
L 252.392727 269.940516 
L 253.641399 287.940891 
L 254.89007 283.935356 
L 256.138741 283.038263 
L 257.387413 264.822755 
L 258.636084 280.312702 
L 259.884755 279.439225 
L 261.133427 279.056901 
L 262.382098 277.579261 
L 263.630769 270.710382 
L 264.879441 274.242251 
L 266.128112 277.429332 
L 267.376783 284.084048 
L 268.625455 279.588545 
L 269.874126 286.733385 
L 271.122797 281.320008 
L 272.371469 281.065202 
L 273.62014 276.561762 
L 274.868811 288.760266 
L 276.117483 282.889613 
L 277.366154 281.526598 
L 278.614825 282.581218 
L 279.863497 287.646033 
L 281.112168 281.933652 
L 282.360839 287.004837 
L 283.60951 274.018408 
L 284.858182 279.686987 
L 286.106853 286.220707 
L 287.355524 282.037132 
L 288.604196 289.519141 
L 289.852867 284.809624 
L 291.101538 289.351947 
L 292.35021 284.787343 
L 293.598881 285.669855 
L 294.847552 285.091869 
L 297.344895 286.119248 
L 298.593566 284.19995 
L 299.842238 283.113484 
L 301.090909 283.972525 
L 302.33958 281.747636 
L 303.588252 289.906834 
L 304.836923 279.246064 
L 306.085594 288.581361 
L 307.334266 285.0831 
L 308.582937 290.796086 
L 309.831608 283.362588 
L 311.08028 286.449842 
L 312.328951 277.729443 
L 313.577622 277.730391 
L 314.826294 290.895976 
L 316.074965 286.394233 
L 317.323636 284.920304 
L 318.572308 291.260448 
L 319.820979 278.379677 
L 321.06965 290.894078 
L 322.318322 282.043912 
L 323.566993 281.49136 
L 324.815664 271.783557 
L 326.064336 292.274886 
L 327.313007 288.473008 
L 328.561678 281.981832 
L 329.81035 284.393963 
L 331.059021 279.414848 
L 332.307692 280.905086 
L 333.556364 282.75382 
L 334.805035 284.280886 
L 336.053706 291.142024 
L 337.302378 293.996015 
L 338.551049 293.673523 
L 339.79972 291.628029 
L 341.048392 277.651668 
L 342.297063 288.897772 
L 343.545734 287.536996 
L 344.794406 283.510244 
L 346.043077 286.3769 
L 347.291748 290.682564 
L 348.54042 285.893086 
L 349.789091 291.208557 
L 351.037762 292.559966 
L 352.286434 283.800082 
L 353.535105 281.208119 
L 354.783776 290.854735 
L 356.032448 288.922639 
L 357.281119 284.065571 
L 358.52979 287.666013 
L 359.778462 289.995154 
L 361.027133 287.812179 
L 362.275804 287.019626 
L 363.524476 290.567658 
L 364.773147 280.784107 
L 366.021818 280.328849 
L 367.27049 280.206191 
L 368.519161 284.627269 
L 369.767832 287.798704 
L 371.016503 283.537 
L 372.265175 277.271537 
L 373.513846 294.827131 
L 374.762517 288.913937 
L 376.011189 286.592885 
L 377.25986 290.143979 
L 378.508531 292.991578 
L 379.757203 292.212993 
L 381.005874 287.196217 
L 382.254545 280.933544 
L 383.503217 291.466108 
L 384.751888 292.212024 
L 386.000559 289.650389 
L 387.249231 290.388786 
L 388.497902 285.74538 
L 389.746573 286.124287 
L 390.995245 279.858561 
L 392.243916 289.106288 
L 393.492587 286.386131 
L 394.741259 282.808818 
L 395.98993 287.325421 
L 397.238601 288.76576 
L 398.487273 291.396789 
L 398.487273 291.396789 
" style="fill:none;stroke:#008000;stroke-linecap:square;stroke-width:1.5;"/>
   </g>
   <g id="line2d_30">
    <path clip-path="url(#p610c77bcb3)" d="M 73.832727 81.169457 
L 75.081399 99.902824 
L 76.33007 115.185882 
L 77.578741 109.082 
L 78.827413 121.743851 
L 80.076084 118.412494 
L 81.324755 144.45116 
L 82.573427 142.518813 
L 83.822098 150.536352 
L 85.070769 163.62583 
L 86.319441 145.301233 
L 87.568112 140.969442 
L 88.816783 148.484818 
L 90.065455 171.431068 
L 91.314126 170.14105 
L 92.562797 167.48223 
L 93.811469 175.732773 
L 95.06014 176.670445 
L 96.308811 179.069678 
L 97.557483 187.222825 
L 98.806154 200.742998 
L 100.054825 197.827038 
L 101.303497 189.603602 
L 102.552168 204.169654 
L 103.800839 193.695429 
L 105.04951 198.378977 
L 106.298182 200.433068 
L 107.546853 213.821619 
L 108.795524 211.829734 
L 110.044196 217.358033 
L 111.292867 207.846647 
L 112.541538 217.011636 
L 113.79021 229.67486 
L 115.038881 217.971055 
L 116.287552 194.135275 
L 117.536224 224.918361 
L 118.784895 230.773123 
L 120.033566 211.202819 
L 121.282238 214.744821 
L 122.530909 219.209285 
L 123.77958 235.150582 
L 125.028252 207.833166 
L 127.525594 227.543464 
L 128.774266 235.312518 
L 130.022937 232.179687 
L 131.271608 208.157727 
L 132.52028 223.680175 
L 133.768951 216.948457 
L 135.017622 218.060673 
L 136.266294 214.676272 
L 137.514965 221.254232 
L 138.763636 208.641134 
L 140.012308 233.999719 
L 141.260979 237.487491 
L 142.50965 248.268144 
L 143.758322 248.947625 
L 145.006993 222.913106 
L 146.255664 256.62859 
L 147.504336 236.675427 
L 148.753007 235.672846 
L 150.001678 233.307813 
L 151.25035 232.665384 
L 152.499021 235.390818 
L 153.747692 251.148787 
L 154.996364 226.668709 
L 156.245035 255.332562 
L 157.493706 232.820716 
L 158.742378 246.916576 
L 159.991049 219.97656 
L 161.23972 244.643018 
L 162.488392 248.430069 
L 163.737063 249.46706 
L 164.985734 245.669257 
L 166.234406 250.20341 
L 167.483077 243.689552 
L 168.731748 257.870132 
L 169.98042 243.793812 
L 171.229091 254.057215 
L 172.477762 267.244248 
L 173.726434 262.806457 
L 174.975105 259.712578 
L 176.223776 246.896352 
L 177.472448 253.44071 
L 178.721119 257.81455 
L 179.96979 262.884314 
L 181.218462 247.080713 
L 182.467133 270.845526 
L 183.715804 246.980755 
L 184.964476 267.207789 
L 186.213147 258.982535 
L 187.461818 257.107969 
L 188.71049 259.131874 
L 189.959161 264.222922 
L 191.207832 255.852976 
L 192.456503 262.507706 
L 193.705175 268.005131 
L 194.953846 265.062354 
L 196.202517 260.768125 
L 197.451189 254.342248 
L 198.69986 264.593432 
L 199.948531 260.312634 
L 201.197203 266.644015 
L 202.445874 257.790852 
L 203.694545 256.803542 
L 204.943217 274.406336 
L 206.191888 271.586204 
L 207.440559 264.197447 
L 208.689231 269.620572 
L 209.937902 256.220614 
L 211.186573 275.203643 
L 212.435245 268.625883 
L 213.683916 276.278688 
L 214.932587 261.952148 
L 216.181259 266.431744 
L 217.42993 262.708939 
L 218.678601 262.293665 
L 219.927273 262.784323 
L 221.175944 280.403997 
L 222.424615 279.772228 
L 223.673287 278.329797 
L 224.921958 285.55544 
L 226.170629 278.792649 
L 227.419301 287.399665 
L 228.667972 268.320192 
L 229.916643 266.671836 
L 231.165315 267.578936 
L 232.413986 270.237997 
L 233.662657 275.623762 
L 234.911329 262.560303 
L 236.16 273.230095 
L 237.408671 279.253584 
L 238.657343 280.633327 
L 239.906014 269.942226 
L 241.154685 279.598486 
L 242.403357 275.030765 
L 243.652028 277.457002 
L 244.900699 273.524827 
L 246.149371 279.954661 
L 247.398042 275.539956 
L 248.646713 279.463984 
L 249.895385 278.275696 
L 251.144056 281.497115 
L 252.392727 269.940516 
L 253.641399 287.940891 
L 254.89007 283.935356 
L 256.138741 283.038263 
L 257.387413 264.822755 
L 258.636084 280.312702 
L 259.884755 279.439225 
L 261.133427 279.056901 
L 262.382098 277.579261 
L 263.630769 270.710382 
L 264.879441 274.242251 
L 266.128112 277.429332 
L 267.376783 284.084048 
L 268.625455 279.588545 
L 269.874126 286.733385 
L 271.122797 281.320008 
L 272.371469 281.065202 
L 273.62014 276.561762 
L 274.868811 288.760266 
L 276.117483 282.889613 
L 277.366154 281.526598 
L 278.614825 282.581218 
L 279.863497 287.646033 
L 281.112168 281.933652 
L 282.360839 287.004837 
L 283.60951 274.018408 
L 284.858182 279.686987 
L 286.106853 286.220707 
L 287.355524 282.037132 
L 288.604196 289.519141 
L 289.852867 284.809624 
L 291.101538 289.351947 
L 292.35021 284.787343 
L 293.598881 285.669855 
L 294.847552 285.091869 
L 297.344895 286.119248 
L 298.593566 284.19995 
L 299.842238 283.113484 
L 301.090909 283.972525 
L 302.33958 281.747636 
L 303.588252 289.906834 
L 304.836923 279.246064 
L 306.085594 288.581361 
L 307.334266 285.0831 
L 308.582937 290.796086 
L 309.831608 283.362588 
L 311.08028 286.449842 
L 312.328951 277.729443 
L 313.577622 277.730391 
L 314.826294 290.895976 
L 316.074965 286.394233 
L 317.323636 284.920304 
L 318.572308 291.260448 
L 319.820979 278.379677 
L 321.06965 290.894078 
L 322.318322 282.043912 
L 323.566993 281.49136 
L 324.815664 271.783557 
L 326.064336 292.274886 
L 327.313007 288.473008 
L 328.561678 281.981832 
L 329.81035 284.393963 
L 331.059021 279.414848 
L 332.307692 280.905086 
L 333.556364 282.75382 
L 334.805035 284.280886 
L 336.053706 291.142024 
L 337.302378 293.996015 
L 338.551049 293.673523 
L 339.79972 291.628029 
L 341.048392 277.651668 
L 342.297063 288.897772 
L 343.545734 287.536996 
L 344.794406 283.510244 
L 346.043077 286.3769 
L 347.291748 290.682564 
L 348.54042 285.893086 
L 349.789091 291.208557 
L 351.037762 292.559966 
L 352.286434 283.800082 
L 353.535105 281.208119 
L 354.783776 290.854735 
L 356.032448 288.922639 
L 357.281119 284.065571 
L 358.52979 287.666013 
L 359.778462 289.995154 
L 361.027133 287.812179 
L 362.275804 287.019626 
L 363.524476 290.567658 
L 364.773147 280.784107 
L 366.021818 280.328849 
L 367.27049 280.206191 
L 368.519161 284.627269 
L 369.767832 287.798704 
L 371.016503 283.537 
L 372.265175 277.271537 
L 373.513846 294.827131 
L 374.762517 288.913937 
L 376.011189 286.592885 
L 377.25986 290.143979 
L 378.508531 292.991578 
L 379.757203 292.212993 
L 381.005874 287.196217 
L 382.254545 280.933544 
L 383.503217 291.466108 
L 384.751888 292.212024 
L 386.000559 289.650389 
L 387.249231 290.388786 
L 388.497902 285.74538 
L 389.746573 286.124287 
L 390.995245 279.858561 
L 392.243916 289.106288 
L 393.492587 286.386131 
L 394.741259 282.808818 
L 395.98993 287.325421 
L 397.238601 288.76576 
L 398.487273 291.396789 
L 398.487273 291.396789 
" style="fill:none;stroke:#008000;stroke-linecap:square;stroke-width:1.5;"/>
   </g>
   <g id="line2d_31">
    <path clip-path="url(#p610c77bcb3)" d="M 73.832727 53.568 
L 75.081399 141.87665 
L 76.33007 178.297333 
L 77.578741 146.595931 
L 78.827413 174.298408 
L 80.076084 174.639346 
L 81.324755 197.832575 
L 82.573427 189.329194 
L 83.822098 199.052171 
L 85.070769 197.778196 
L 86.319441 199.901876 
L 87.568112 216.166378 
L 88.816783 204.983059 
L 90.065455 224.813505 
L 91.314126 241.423254 
L 92.562797 223.634241 
L 93.811469 227.622536 
L 95.06014 204.976666 
L 96.308811 218.200445 
L 97.557483 210.702063 
L 98.806154 220.448215 
L 100.054825 214.021501 
L 101.303497 230.817112 
L 102.552168 216.562618 
L 103.800839 217.469198 
L 105.04951 241.823986 
L 106.298182 224.504242 
L 108.795524 248.564326 
L 110.044196 237.926064 
L 111.292867 239.334413 
L 112.541538 244.833549 
L 113.79021 239.085255 
L 115.038881 238.878301 
L 116.287552 243.272082 
L 117.536224 231.691683 
L 118.784895 251.848303 
L 120.033566 239.197487 
L 121.282238 245.761999 
L 122.530909 241.174407 
L 123.77958 252.149433 
L 125.028252 242.339379 
L 126.276923 253.66923 
L 127.525594 251.060998 
L 128.774266 256.865846 
L 130.022937 258.363565 
L 131.271608 249.870276 
L 132.52028 257.88709 
L 133.768951 262.280874 
L 135.017622 253.775614 
L 136.266294 252.62248 
L 137.514965 260.594526 
L 138.763636 248.955919 
L 140.012308 263.443928 
L 141.260979 265.688426 
L 142.50965 235.13664 
L 143.758322 269.449127 
L 145.006993 236.340186 
L 146.255664 260.196382 
L 147.504336 253.233398 
L 148.753007 261.813449 
L 150.001678 260.422084 
L 151.25035 263.571792 
L 152.499021 259.000346 
L 153.747692 263.522647 
L 154.996364 249.210858 
L 156.245035 278.155061 
L 157.493706 268.468817 
L 158.742378 270.215416 
L 159.991049 263.038151 
L 161.23972 259.854279 
L 162.488392 276.290548 
L 164.985734 259.941162 
L 166.234406 267.231927 
L 167.483077 269.083615 
L 168.731748 269.600387 
L 169.98042 259.025387 
L 171.229091 265.744636 
L 172.477762 281.246098 
L 173.726434 274.50724 
L 174.975105 265.592312 
L 176.223776 274.058308 
L 177.472448 279.584818 
L 178.721119 277.836177 
L 179.96979 273.076074 
L 181.218462 276.810133 
L 182.467133 278.776883 
L 183.715804 276.645205 
L 184.964476 274.780499 
L 186.213147 282.055022 
L 187.461818 265.61494 
L 188.71049 279.959572 
L 189.959161 271.48529 
L 191.207832 268.694165 
L 192.456503 284.187702 
L 193.705175 279.115271 
L 194.953846 278.646105 
L 196.202517 282.031136 
L 197.451189 280.967235 
L 198.69986 280.766899 
L 199.948531 274.617481 
L 201.197203 283.894512 
L 202.445874 281.420302 
L 203.694545 270.158969 
L 204.943217 275.247958 
L 206.191888 280.963004 
L 207.440559 284.138344 
L 208.689231 292.547682 
L 212.435245 279.211166 
L 213.683916 269.735378 
L 214.932587 274.536864 
L 216.181259 284.7036 
L 217.42993 272.50534 
L 218.678601 283.391495 
L 219.927273 272.526259 
L 221.175944 289.298894 
L 222.424615 272.229993 
L 223.673287 292.79013 
L 224.921958 286.170703 
L 226.170629 284.427281 
L 227.419301 289.494929 
L 228.667972 288.398404 
L 229.916643 282.822774 
L 231.165315 284.76498 
L 232.413986 287.281996 
L 233.662657 289.137849 
L 234.911329 280.633251 
L 236.16 277.599384 
L 237.408671 288.488638 
L 239.906014 288.511707 
L 241.154685 292.416638 
L 242.403357 286.040507 
L 243.652028 284.151358 
L 244.900699 280.649202 
L 246.149371 289.198975 
L 247.398042 284.35319 
L 248.646713 285.180988 
L 249.895385 287.614689 
L 251.144056 280.206643 
L 252.392727 290.308316 
L 253.641399 279.746765 
L 254.89007 291.938875 
L 256.138741 292.560182 
L 257.387413 294.735909 
L 258.636084 292.394658 
L 259.884755 290.679697 
L 261.133427 290.120705 
L 262.382098 283.427345 
L 263.630769 289.806375 
L 264.879441 285.225523 
L 266.128112 283.86953 
L 267.376783 287.543525 
L 268.625455 283.716179 
L 269.874126 291.897692 
L 271.122797 290.767117 
L 272.371469 288.801642 
L 273.62014 291.600554 
L 274.868811 287.954611 
L 276.117483 287.429813 
L 277.366154 291.680356 
L 278.614825 289.491431 
L 279.863497 288.520599 
L 281.112168 291.981637 
L 282.360839 286.48848 
L 283.60951 291.814196 
L 284.858182 289.474853 
L 286.106853 292.148016 
L 287.355524 293.435395 
L 288.604196 291.463848 
L 289.852867 290.163007 
L 291.101538 293.759728 
L 292.35021 287.69977 
L 293.598881 288.452923 
L 294.847552 286.304328 
L 296.096224 293.028289 
L 297.344895 292.761583 
L 298.593566 291.499927 
L 299.842238 289.35327 
L 301.090909 285.365967 
L 302.33958 294.189331 
L 303.588252 295.254916 
L 306.085594 289.938951 
L 307.334266 285.252636 
L 308.582937 292.732739 
L 309.831608 293.91307 
L 311.08028 293.483778 
L 312.328951 292.755503 
L 313.577622 292.930437 
L 314.826294 283.558832 
L 317.323636 289.704615 
L 318.572308 294.040136 
L 319.820979 287.421214 
L 321.06965 291.33772 
L 322.318322 290.904697 
L 323.566993 294.421494 
L 324.815664 293.084822 
L 326.064336 293.958375 
L 327.313007 293.538856 
L 328.561678 289.648125 
L 329.81035 282.97897 
L 331.059021 292.372948 
L 332.307692 289.004222 
L 333.556364 287.461276 
L 334.805035 293.140309 
L 336.053706 289.797724 
L 337.302378 293.588593 
L 338.551049 286.619979 
L 339.79972 282.186373 
L 341.048392 288.175542 
L 342.297063 291.410358 
L 343.545734 293.722028 
L 344.794406 292.571149 
L 346.043077 285.422725 
L 347.291748 289.470364 
L 348.54042 287.62386 
L 349.789091 294.351787 
L 351.037762 294.480807 
L 352.286434 292.314741 
L 353.535105 293.427523 
L 354.783776 289.991332 
L 356.032448 294.31193 
L 357.281119 292.95252 
L 358.52979 289.615138 
L 359.778462 292.443503 
L 361.027133 291.334461 
L 362.275804 291.214253 
L 363.524476 292.517894 
L 364.773147 282.519447 
L 366.021818 289.012637 
L 367.27049 294.663764 
L 368.519161 295.121094 
L 369.767832 293.56964 
L 371.016503 294.324049 
L 372.265175 293.048161 
L 373.513846 292.503909 
L 374.762517 294.570177 
L 376.011189 293.741117 
L 377.25986 293.517909 
L 378.508531 290.541343 
L 379.757203 293.230218 
L 381.005874 278.357541 
L 382.254545 289.640336 
L 383.503217 292.043957 
L 384.751888 295.488 
L 386.000559 294.169563 
L 387.249231 294.911113 
L 388.497902 293.528491 
L 389.746573 290.72594 
L 390.995245 292.893955 
L 392.243916 289.248105 
L 393.492587 288.842871 
L 394.741259 292.168556 
L 395.98993 293.04879 
L 397.238601 290.351154 
L 398.487273 287.209667 
L 398.487273 287.209667 
" style="fill:none;stroke:#b22222;stroke-linecap:square;stroke-width:1.5;"/>
   </g>
   <g id="line2d_32">
    <path clip-path="url(#p610c77bcb3)" d="M 73.832727 53.568 
L 75.081399 141.87665 
L 76.33007 178.297333 
L 77.578741 146.595931 
L 78.827413 174.298408 
L 80.076084 174.639346 
L 81.324755 197.832575 
L 82.573427 189.329194 
L 83.822098 199.052171 
L 85.070769 197.778196 
L 86.319441 199.901876 
L 87.568112 216.166378 
L 88.816783 204.983059 
L 90.065455 224.813505 
L 91.314126 241.423254 
L 92.562797 223.634241 
L 93.811469 227.622536 
L 95.06014 204.976666 
L 96.308811 218.200445 
L 97.557483 210.702063 
L 98.806154 220.448215 
L 100.054825 214.021501 
L 101.303497 230.817112 
L 102.552168 216.562618 
L 103.800839 217.469198 
L 105.04951 241.823986 
L 106.298182 224.504242 
L 108.795524 248.564326 
L 110.044196 237.926064 
L 111.292867 239.334413 
L 112.541538 244.833549 
L 113.79021 239.085255 
L 115.038881 238.878301 
L 116.287552 243.272082 
L 117.536224 231.691683 
L 118.784895 251.848303 
L 120.033566 239.197487 
L 121.282238 245.761999 
L 122.530909 241.174407 
L 123.77958 252.149433 
L 125.028252 242.339379 
L 126.276923 253.66923 
L 127.525594 251.060998 
L 128.774266 256.865846 
L 130.022937 258.363565 
L 131.271608 249.870276 
L 132.52028 257.88709 
L 133.768951 262.280874 
L 135.017622 253.775614 
L 136.266294 252.62248 
L 137.514965 260.594526 
L 138.763636 248.955919 
L 140.012308 263.443928 
L 141.260979 265.688426 
L 142.50965 235.13664 
L 143.758322 269.449127 
L 145.006993 236.340186 
L 146.255664 260.196382 
L 147.504336 253.233398 
L 148.753007 261.813449 
L 150.001678 260.422084 
L 151.25035 263.571792 
L 152.499021 259.000346 
L 153.747692 263.522647 
L 154.996364 249.210858 
L 156.245035 278.155061 
L 157.493706 268.468817 
L 158.742378 270.215416 
L 159.991049 263.038151 
L 161.23972 259.854279 
L 162.488392 276.290548 
L 164.985734 259.941162 
L 166.234406 267.231927 
L 167.483077 269.083615 
L 168.731748 269.600387 
L 169.98042 259.025387 
L 171.229091 265.744636 
L 172.477762 281.246098 
L 173.726434 274.50724 
L 174.975105 265.592312 
L 176.223776 274.058308 
L 177.472448 279.584818 
L 178.721119 277.836177 
L 179.96979 273.076074 
L 181.218462 276.810133 
L 182.467133 278.776883 
L 183.715804 276.645205 
L 184.964476 274.780499 
L 186.213147 282.055022 
L 187.461818 265.61494 
L 188.71049 279.959572 
L 189.959161 271.48529 
L 191.207832 268.694165 
L 192.456503 284.187702 
L 193.705175 279.115271 
L 194.953846 278.646105 
L 196.202517 282.031136 
L 197.451189 280.967235 
L 198.69986 280.766899 
L 199.948531 274.617481 
L 201.197203 283.894512 
L 202.445874 281.420302 
L 203.694545 270.158969 
L 204.943217 275.247958 
L 206.191888 280.963004 
L 207.440559 284.138344 
L 208.689231 292.547682 
L 212.435245 279.211166 
L 213.683916 269.735378 
L 214.932587 274.536864 
L 216.181259 284.7036 
L 217.42993 272.50534 
L 218.678601 283.391495 
L 219.927273 272.526259 
L 221.175944 289.298894 
L 222.424615 272.229993 
L 223.673287 292.79013 
L 224.921958 286.170703 
L 226.170629 284.427281 
L 227.419301 289.494929 
L 228.667972 288.398404 
L 229.916643 282.822774 
L 231.165315 284.76498 
L 232.413986 287.281996 
L 233.662657 289.137849 
L 234.911329 280.633251 
L 236.16 277.599384 
L 237.408671 288.488638 
L 239.906014 288.511707 
L 241.154685 292.416638 
L 242.403357 286.040507 
L 243.652028 284.151358 
L 244.900699 280.649202 
L 246.149371 289.198975 
L 247.398042 284.35319 
L 248.646713 285.180988 
L 249.895385 287.614689 
L 251.144056 280.206643 
L 252.392727 290.308316 
L 253.641399 279.746765 
L 254.89007 291.938875 
L 256.138741 292.560182 
L 257.387413 294.735909 
L 258.636084 292.394658 
L 259.884755 290.679697 
L 261.133427 290.120705 
L 262.382098 283.427345 
L 263.630769 289.806375 
L 264.879441 285.225523 
L 266.128112 283.86953 
L 267.376783 287.543525 
L 268.625455 283.716179 
L 269.874126 291.897692 
L 271.122797 290.767117 
L 272.371469 288.801642 
L 273.62014 291.600554 
L 274.868811 287.954611 
L 276.117483 287.429813 
L 277.366154 291.680356 
L 278.614825 289.491431 
L 279.863497 288.520599 
L 281.112168 291.981637 
L 282.360839 286.48848 
L 283.60951 291.814196 
L 284.858182 289.474853 
L 286.106853 292.148016 
L 287.355524 293.435395 
L 288.604196 291.463848 
L 289.852867 290.163007 
L 291.101538 293.759728 
L 292.35021 287.69977 
L 293.598881 288.452923 
L 294.847552 286.304328 
L 296.096224 293.028289 
L 297.344895 292.761583 
L 298.593566 291.499927 
L 299.842238 289.35327 
L 301.090909 285.365967 
L 302.33958 294.189331 
L 303.588252 295.254916 
L 306.085594 289.938951 
L 307.334266 285.252636 
L 308.582937 292.732739 
L 309.831608 293.91307 
L 311.08028 293.483778 
L 312.328951 292.755503 
L 313.577622 292.930437 
L 314.826294 283.558832 
L 317.323636 289.704615 
L 318.572308 294.040136 
L 319.820979 287.421214 
L 321.06965 291.33772 
L 322.318322 290.904697 
L 323.566993 294.421494 
L 324.815664 293.084822 
L 326.064336 293.958375 
L 327.313007 293.538856 
L 328.561678 289.648125 
L 329.81035 282.97897 
L 331.059021 292.372948 
L 332.307692 289.004222 
L 333.556364 287.461276 
L 334.805035 293.140309 
L 336.053706 289.797724 
L 337.302378 293.588593 
L 338.551049 286.619979 
L 339.79972 282.186373 
L 341.048392 288.175542 
L 342.297063 291.410358 
L 343.545734 293.722028 
L 344.794406 292.571149 
L 346.043077 285.422725 
L 347.291748 289.470364 
L 348.54042 287.62386 
L 349.789091 294.351787 
L 351.037762 294.480807 
L 352.286434 292.314741 
L 353.535105 293.427523 
L 354.783776 289.991332 
L 356.032448 294.31193 
L 357.281119 292.95252 
L 358.52979 289.615138 
L 359.778462 292.443503 
L 361.027133 291.334461 
L 362.275804 291.214253 
L 363.524476 292.517894 
L 364.773147 282.519447 
L 366.021818 289.012637 
L 367.27049 294.663764 
L 368.519161 295.121094 
L 369.767832 293.56964 
L 371.016503 294.324049 
L 372.265175 293.048161 
L 373.513846 292.503909 
L 374.762517 294.570177 
L 376.011189 293.741117 
L 377.25986 293.517909 
L 378.508531 290.541343 
L 379.757203 293.230218 
L 381.005874 278.357541 
L 382.254545 289.640336 
L 383.503217 292.043957 
L 384.751888 295.488 
L 386.000559 294.169563 
L 387.249231 294.911113 
L 388.497902 293.528491 
L 389.746573 290.72594 
L 390.995245 292.893955 
L 392.243916 289.248105 
L 393.492587 288.842871 
L 394.741259 292.168556 
L 395.98993 293.04879 
L 397.238601 290.351154 
L 398.487273 287.209667 
L 398.487273 287.209667 
" style="fill:none;stroke:#b22222;stroke-linecap:square;stroke-width:1.5;"/>
   </g>
   <g id="patch_3">
    <path d="M 57.6 307.584 
L 57.6 41.472 
" style="fill:none;stroke:#ffffff;stroke-linecap:square;stroke-linejoin:miter;"/>
   </g>
   <g id="patch_4">
    <path d="M 414.72 307.584 
L 414.72 41.472 
" style="fill:none;stroke:#ffffff;stroke-linecap:square;stroke-linejoin:miter;"/>
   </g>
   <g id="patch_5">
    <path d="M 57.6 307.584 
L 414.72 307.584 
" style="fill:none;stroke:#ffffff;stroke-linecap:square;stroke-linejoin:miter;"/>
   </g>
   <g id="patch_6">
    <path d="M 57.6 41.472 
L 414.72 41.472 
" style="fill:none;stroke:#ffffff;stroke-linecap:square;stroke-linejoin:miter;"/>
   </g>
   <g id="text_17">
    <!-- Loss Landscape -->
    <defs>
     <path id="DejaVuSans-32"/>
     <path d="M 34.28125 27.484375 
Q 23.390625 27.484375 19.1875 25 
Q 14.984375 22.515625 14.984375 16.5 
Q 14.984375 11.71875 18.140625 8.90625 
Q 21.296875 6.109375 26.703125 6.109375 
Q 34.1875 6.109375 38.703125 11.40625 
Q 43.21875 16.703125 43.21875 25.484375 
L 43.21875 27.484375 
z
M 52.203125 31.203125 
L 52.203125 0 
L 43.21875 0 
L 43.21875 8.296875 
Q 40.140625 3.328125 35.546875 0.953125 
Q 30.953125 -1.421875 24.3125 -1.421875 
Q 15.921875 -1.421875 10.953125 3.296875 
Q 6 8.015625 6 15.921875 
Q 6 25.140625 12.171875 29.828125 
Q 18.359375 34.515625 30.609375 34.515625 
L 43.21875 34.515625 
L 43.21875 35.40625 
Q 43.21875 41.609375 39.140625 45 
Q 35.0625 48.390625 27.6875 48.390625 
Q 23 48.390625 18.546875 47.265625 
Q 14.109375 46.140625 10.015625 43.890625 
L 10.015625 52.203125 
Q 14.9375 54.109375 19.578125 55.046875 
Q 24.21875 56 28.609375 56 
Q 40.484375 56 46.34375 49.84375 
Q 52.203125 43.703125 52.203125 31.203125 
z
" id="DejaVuSans-97"/>
     <path d="M 54.890625 33.015625 
L 54.890625 0 
L 45.90625 0 
L 45.90625 32.71875 
Q 45.90625 40.484375 42.875 44.328125 
Q 39.84375 48.1875 33.796875 48.1875 
Q 26.515625 48.1875 22.3125 43.546875 
Q 18.109375 38.921875 18.109375 30.90625 
L 18.109375 0 
L 9.078125 0 
L 9.078125 54.6875 
L 18.109375 54.6875 
L 18.109375 46.1875 
Q 21.34375 51.125 25.703125 53.5625 
Q 30.078125 56 35.796875 56 
Q 45.21875 56 50.046875 50.171875 
Q 54.890625 44.34375 54.890625 33.015625 
z
" id="DejaVuSans-110"/>
     <path d="M 45.40625 46.390625 
L 45.40625 75.984375 
L 54.390625 75.984375 
L 54.390625 0 
L 45.40625 0 
L 45.40625 8.203125 
Q 42.578125 3.328125 38.25 0.953125 
Q 33.9375 -1.421875 27.875 -1.421875 
Q 17.96875 -1.421875 11.734375 6.484375 
Q 5.515625 14.40625 5.515625 27.296875 
Q 5.515625 40.1875 11.734375 48.09375 
Q 17.96875 56 27.875 56 
Q 33.9375 56 38.25 53.625 
Q 42.578125 51.265625 45.40625 46.390625 
z
M 14.796875 27.296875 
Q 14.796875 17.390625 18.875 11.75 
Q 22.953125 6.109375 30.078125 6.109375 
Q 37.203125 6.109375 41.296875 11.75 
Q 45.40625 17.390625 45.40625 27.296875 
Q 45.40625 37.203125 41.296875 42.84375 
Q 37.203125 48.484375 30.078125 48.484375 
Q 22.953125 48.484375 18.875 42.84375 
Q 14.796875 37.203125 14.796875 27.296875 
z
" id="DejaVuSans-100"/>
     <path d="M 48.78125 52.59375 
L 48.78125 44.1875 
Q 44.96875 46.296875 41.140625 47.34375 
Q 37.3125 48.390625 33.40625 48.390625 
Q 24.65625 48.390625 19.8125 42.84375 
Q 14.984375 37.3125 14.984375 27.296875 
Q 14.984375 17.28125 19.8125 11.734375 
Q 24.65625 6.203125 33.40625 6.203125 
Q 37.3125 6.203125 41.140625 7.25 
Q 44.96875 8.296875 48.78125 10.40625 
L 48.78125 2.09375 
Q 45.015625 0.34375 40.984375 -0.53125 
Q 36.96875 -1.421875 32.421875 -1.421875 
Q 20.0625 -1.421875 12.78125 6.34375 
Q 5.515625 14.109375 5.515625 27.296875 
Q 5.515625 40.671875 12.859375 48.328125 
Q 20.21875 56 33.015625 56 
Q 37.15625 56 41.109375 55.140625 
Q 45.0625 54.296875 48.78125 52.59375 
z
" id="DejaVuSans-99"/>
    </defs>
    <g transform="translate(179.27325 35.472)scale(0.144 -0.144)">
     <use xlink:href="#DejaVuSans-76"/>
     <use x="55.697266" xlink:href="#DejaVuSans-111"/>
     <use x="116.878906" xlink:href="#DejaVuSans-115"/>
     <use x="168.978516" xlink:href="#DejaVuSans-115"/>
     <use x="221.078125" xlink:href="#DejaVuSans-32"/>
     <use x="252.865234" xlink:href="#DejaVuSans-76"/>
     <use x="308.578125" xlink:href="#DejaVuSans-97"/>
     <use x="369.857422" xlink:href="#DejaVuSans-110"/>
     <use x="433.236328" xlink:href="#DejaVuSans-100"/>
     <use x="496.712891" xlink:href="#DejaVuSans-115"/>
     <use x="548.8125" xlink:href="#DejaVuSans-99"/>
     <use x="603.792969" xlink:href="#DejaVuSans-97"/>
     <use x="665.072266" xlink:href="#DejaVuSans-112"/>
     <use x="728.548828" xlink:href="#DejaVuSans-101"/>
    </g>
   </g>
   <g id="legend_1">
    <g id="patch_7">
     <path d="M 153.9135 95.265 
L 404.64 95.265 
Q 407.52 95.265 407.52 92.385 
L 407.52 51.552 
Q 407.52 48.672 404.64 48.672 
L 153.9135 48.672 
Q 151.0335 48.672 151.0335 51.552 
L 151.0335 92.385 
Q 151.0335 95.265 153.9135 95.265 
z
" style="fill:#e5e5e5;opacity:0.8;stroke:#cccccc;stroke-linejoin:miter;stroke-width:0.5;"/>
    </g>
    <g id="patch_8">
     <path d="M 156.7935 65.37375 
L 185.5935 65.37375 
L 185.5935 55.29375 
L 156.7935 55.29375 
z
" style="fill:#90ee90;stroke:#90ee90;stroke-linejoin:miter;stroke-width:0.5;"/>
    </g>
    <g id="text_18">
     <!-- Standard VGG -->
     <defs>
      <path d="M 41.109375 46.296875 
Q 39.59375 47.171875 37.8125 47.578125 
Q 36.03125 48 33.890625 48 
Q 26.265625 48 22.1875 43.046875 
Q 18.109375 38.09375 18.109375 28.8125 
L 18.109375 0 
L 9.078125 0 
L 9.078125 54.6875 
L 18.109375 54.6875 
L 18.109375 46.1875 
Q 20.953125 51.171875 25.484375 53.578125 
Q 30.03125 56 36.53125 56 
Q 37.453125 56 38.578125 55.875 
Q 39.703125 55.765625 41.0625 55.515625 
z
" id="DejaVuSans-114"/>
      <path d="M 28.609375 0 
L 0.78125 72.90625 
L 11.078125 72.90625 
L 34.1875 11.53125 
L 57.328125 72.90625 
L 67.578125 72.90625 
L 39.796875 0 
z
" id="DejaVuSans-86"/>
      <path d="M 59.515625 10.40625 
L 59.515625 29.984375 
L 43.40625 29.984375 
L 43.40625 38.09375 
L 69.28125 38.09375 
L 69.28125 6.78125 
Q 63.578125 2.734375 56.6875 0.65625 
Q 49.8125 -1.421875 42 -1.421875 
Q 24.90625 -1.421875 15.25 8.5625 
Q 5.609375 18.5625 5.609375 36.375 
Q 5.609375 54.25 15.25 64.234375 
Q 24.90625 74.21875 42 74.21875 
Q 49.125 74.21875 55.546875 72.453125 
Q 61.96875 70.703125 67.390625 67.28125 
L 67.390625 56.78125 
Q 61.921875 61.421875 55.765625 63.765625 
Q 49.609375 66.109375 42.828125 66.109375 
Q 29.4375 66.109375 22.71875 58.640625 
Q 16.015625 51.171875 16.015625 36.375 
Q 16.015625 21.625 22.71875 14.15625 
Q 29.4375 6.6875 42.828125 6.6875 
Q 48.046875 6.6875 52.140625 7.59375 
Q 56.25 8.5 59.515625 10.40625 
z
" id="DejaVuSans-71"/>
     </defs>
     <g transform="translate(197.1135 65.37375)scale(0.144 -0.144)">
      <use xlink:href="#DejaVuSans-83"/>
      <use x="63.476562" xlink:href="#DejaVuSans-116"/>
      <use x="102.685547" xlink:href="#DejaVuSans-97"/>
      <use x="163.964844" xlink:href="#DejaVuSans-110"/>
      <use x="227.34375" xlink:href="#DejaVuSans-100"/>
      <use x="290.820312" xlink:href="#DejaVuSans-97"/>
      <use x="352.099609" xlink:href="#DejaVuSans-114"/>
      <use x="393.197266" xlink:href="#DejaVuSans-100"/>
      <use x="456.673828" xlink:href="#DejaVuSans-32"/>
      <use x="488.460938" xlink:href="#DejaVuSans-86"/>
      <use x="556.869141" xlink:href="#DejaVuSans-71"/>
      <use x="634.359375" xlink:href="#DejaVuSans-71"/>
     </g>
    </g>
    <g id="patch_9">
     <path d="M 156.7935 86.51025 
L 185.5935 86.51025 
L 185.5935 76.43025 
L 156.7935 76.43025 
z
" style="fill:#f08080;stroke:#f08080;stroke-linejoin:miter;stroke-width:0.5;"/>
    </g>
    <g id="text_19">
     <!-- Standard VGG + BatchNorm -->
     <defs>
      <path d="M 46 62.703125 
L 46 35.5 
L 73.1875 35.5 
L 73.1875 27.203125 
L 46 27.203125 
L 46 0 
L 37.796875 0 
L 37.796875 27.203125 
L 10.59375 27.203125 
L 10.59375 35.5 
L 37.796875 35.5 
L 37.796875 62.703125 
z
" id="DejaVuSans-43"/>
      <path d="M 19.671875 34.8125 
L 19.671875 8.109375 
L 35.5 8.109375 
Q 43.453125 8.109375 47.28125 11.40625 
Q 51.125 14.703125 51.125 21.484375 
Q 51.125 28.328125 47.28125 31.5625 
Q 43.453125 34.8125 35.5 34.8125 
z
M 19.671875 64.796875 
L 19.671875 42.828125 
L 34.28125 42.828125 
Q 41.5 42.828125 45.03125 45.53125 
Q 48.578125 48.25 48.578125 53.8125 
Q 48.578125 59.328125 45.03125 62.0625 
Q 41.5 64.796875 34.28125 64.796875 
z
M 9.8125 72.90625 
L 35.015625 72.90625 
Q 46.296875 72.90625 52.390625 68.21875 
Q 58.5 63.53125 58.5 54.890625 
Q 58.5 48.1875 55.375 44.234375 
Q 52.25 40.28125 46.1875 39.3125 
Q 53.46875 37.75 57.5 32.78125 
Q 61.53125 27.828125 61.53125 20.40625 
Q 61.53125 10.640625 54.890625 5.3125 
Q 48.25 0 35.984375 0 
L 9.8125 0 
z
" id="DejaVuSans-66"/>
      <path d="M 54.890625 33.015625 
L 54.890625 0 
L 45.90625 0 
L 45.90625 32.71875 
Q 45.90625 40.484375 42.875 44.328125 
Q 39.84375 48.1875 33.796875 48.1875 
Q 26.515625 48.1875 22.3125 43.546875 
Q 18.109375 38.921875 18.109375 30.90625 
L 18.109375 0 
L 9.078125 0 
L 9.078125 75.984375 
L 18.109375 75.984375 
L 18.109375 46.1875 
Q 21.34375 51.125 25.703125 53.5625 
Q 30.078125 56 35.796875 56 
Q 45.21875 56 50.046875 50.171875 
Q 54.890625 44.34375 54.890625 33.015625 
z
" id="DejaVuSans-104"/>
      <path d="M 9.8125 72.90625 
L 23.09375 72.90625 
L 55.421875 11.921875 
L 55.421875 72.90625 
L 64.984375 72.90625 
L 64.984375 0 
L 51.703125 0 
L 19.390625 60.984375 
L 19.390625 0 
L 9.8125 0 
z
" id="DejaVuSans-78"/>
      <path d="M 52 44.1875 
Q 55.375 50.25 60.0625 53.125 
Q 64.75 56 71.09375 56 
Q 79.640625 56 84.28125 50.015625 
Q 88.921875 44.046875 88.921875 33.015625 
L 88.921875 0 
L 79.890625 0 
L 79.890625 32.71875 
Q 79.890625 40.578125 77.09375 44.375 
Q 74.3125 48.1875 68.609375 48.1875 
Q 61.625 48.1875 57.5625 43.546875 
Q 53.515625 38.921875 53.515625 30.90625 
L 53.515625 0 
L 44.484375 0 
L 44.484375 32.71875 
Q 44.484375 40.625 41.703125 44.40625 
Q 38.921875 48.1875 33.109375 48.1875 
Q 26.21875 48.1875 22.15625 43.53125 
Q 18.109375 38.875 18.109375 30.90625 
L 18.109375 0 
L 9.078125 0 
L 9.078125 54.6875 
L 18.109375 54.6875 
L 18.109375 46.1875 
Q 21.1875 51.21875 25.484375 53.609375 
Q 29.78125 56 35.6875 56 
Q 41.65625 56 45.828125 52.96875 
Q 50 49.953125 52 44.1875 
z
" id="DejaVuSans-109"/>
     </defs>
     <g transform="translate(197.1135 86.51025)scale(0.144 -0.144)">
      <use xlink:href="#DejaVuSans-83"/>
      <use x="63.476562" xlink:href="#DejaVuSans-116"/>
      <use x="102.685547" xlink:href="#DejaVuSans-97"/>
      <use x="163.964844" xlink:href="#DejaVuSans-110"/>
      <use x="227.34375" xlink:href="#DejaVuSans-100"/>
      <use x="290.820312" xlink:href="#DejaVuSans-97"/>
      <use x="352.099609" xlink:href="#DejaVuSans-114"/>
      <use x="393.197266" xlink:href="#DejaVuSans-100"/>
      <use x="456.673828" xlink:href="#DejaVuSans-32"/>
      <use x="488.460938" xlink:href="#DejaVuSans-86"/>
      <use x="556.869141" xlink:href="#DejaVuSans-71"/>
      <use x="634.359375" xlink:href="#DejaVuSans-71"/>
      <use x="711.849609" xlink:href="#DejaVuSans-32"/>
      <use x="743.636719" xlink:href="#DejaVuSans-43"/>
      <use x="827.425781" xlink:href="#DejaVuSans-32"/>
      <use x="859.212891" xlink:href="#DejaVuSans-66"/>
      <use x="927.816406" xlink:href="#DejaVuSans-97"/>
      <use x="989.095703" xlink:href="#DejaVuSans-116"/>
      <use x="1028.304688" xlink:href="#DejaVuSans-99"/>
      <use x="1083.285156" xlink:href="#DejaVuSans-104"/>
      <use x="1146.664062" xlink:href="#DejaVuSans-78"/>
      <use x="1221.46875" xlink:href="#DejaVuSans-111"/>
      <use x="1282.650391" xlink:href="#DejaVuSans-114"/>
      <use x="1323.748047" xlink:href="#DejaVuSans-109"/>
     </g>
    </g>
   </g>
  </g>
 </g>
 <defs>
  <clipPath id="p610c77bcb3">
   <rect height="266.112" width="357.12" x="57.6" y="41.472"/>
  </clipPath>
 </defs>
</svg>
