<?xml version="1.0" encoding="utf-8" standalone="no"?>
<!DOCTYPE svg PUBLIC "-//W3C//DTD SVG 1.1//EN"
  "http://www.w3.org/Graphics/SVG/1.1/DTD/svg11.dtd">
<!-- Created with matplotlib (https://matplotlib.org/) -->
<svg height="345.6pt" version="1.1" viewBox="0 0 460.8 345.6" width="460.8pt" xmlns="http://www.w3.org/2000/svg" xmlns:xlink="http://www.w3.org/1999/xlink">
 <defs>
  <style type="text/css">
*{stroke-linecap:butt;stroke-linejoin:round;}
  </style>
 </defs>
 <g id="figure_1">
  <g id="patch_1">
   <path d="M 0 345.6 
L 460.8 345.6 
L 460.8 0 
L 0 0 
z
" style="fill:#ffffff;"/>
  </g>
  <g id="axes_1">
   <g id="patch_2">
    <path d="M 57.6 307.584 
L 414.72 307.584 
L 414.72 41.472 
L 57.6 41.472 
z
" style="fill:#e5e5e5;"/>
   </g>
   <g id="matplotlib.axis_1">
    <g id="xtick_1">
     <g id="line2d_1">
      <path clip-path="url(#pf6ac2ee9da)" d="M 72.579235 307.584 
L 72.579235 41.472 
" style="fill:none;stroke:#ffffff;stroke-linecap:square;stroke-width:0.8;"/>
     </g>
     <g id="line2d_2">
      <defs>
       <path d="M 0 0 
L 0 3.5 
" id="m3e7aa0ef7d" style="stroke:#555555;stroke-width:0.8;"/>
      </defs>
      <g>
       <use style="fill:#555555;stroke:#555555;stroke-width:0.8;" x="72.579235" xlink:href="#m3e7aa0ef7d" y="307.584"/>
      </g>
     </g>
     <g id="text_1">
      <!-- 0 -->
      <defs>
       <path d="M 31.78125 66.40625 
Q 24.171875 66.40625 20.328125 58.90625 
Q 16.5 51.421875 16.5 36.375 
Q 16.5 21.390625 20.328125 13.890625 
Q 24.171875 6.390625 31.78125 6.390625 
Q 39.453125 6.390625 43.28125 13.890625 
Q 47.125 21.390625 47.125 36.375 
Q 47.125 51.421875 43.28125 58.90625 
Q 39.453125 66.40625 31.78125 66.40625 
z
M 31.78125 74.21875 
Q 44.046875 74.21875 50.515625 64.515625 
Q 56.984375 54.828125 56.984375 36.375 
Q 56.984375 17.96875 50.515625 8.265625 
Q 44.046875 -1.421875 31.78125 -1.421875 
Q 19.53125 -1.421875 13.0625 8.265625 
Q 6.59375 17.96875 6.59375 36.375 
Q 6.59375 54.828125 13.0625 64.515625 
Q 19.53125 74.21875 31.78125 74.21875 
z
" id="DejaVuSans-48"/>
      </defs>
      <g style="fill:#555555;" transform="translate(69.397985 322.182437)scale(0.1 -0.1)">
       <use xlink:href="#DejaVuSans-48"/>
      </g>
     </g>
    </g>
    <g id="xtick_2">
     <g id="line2d_3">
      <path clip-path="url(#pf6ac2ee9da)" d="M 114.362317 307.584 
L 114.362317 41.472 
" style="fill:none;stroke:#ffffff;stroke-linecap:square;stroke-width:0.8;"/>
     </g>
     <g id="line2d_4">
      <g>
       <use style="fill:#555555;stroke:#555555;stroke-width:0.8;" x="114.362317" xlink:href="#m3e7aa0ef7d" y="307.584"/>
      </g>
     </g>
     <g id="text_2">
      <!-- 1000 -->
      <defs>
       <path d="M 12.40625 8.296875 
L 28.515625 8.296875 
L 28.515625 63.921875 
L 10.984375 60.40625 
L 10.984375 69.390625 
L 28.421875 72.90625 
L 38.28125 72.90625 
L 38.28125 8.296875 
L 54.390625 8.296875 
L 54.390625 0 
L 12.40625 0 
z
" id="DejaVuSans-49"/>
      </defs>
      <g style="fill:#555555;" transform="translate(101.637317 322.182437)scale(0.1 -0.1)">
       <use xlink:href="#DejaVuSans-49"/>
       <use x="63.623047" xlink:href="#DejaVuSans-48"/>
       <use x="127.246094" xlink:href="#DejaVuSans-48"/>
       <use x="190.869141" xlink:href="#DejaVuSans-48"/>
      </g>
     </g>
    </g>
    <g id="xtick_3">
     <g id="line2d_5">
      <path clip-path="url(#pf6ac2ee9da)" d="M 156.145398 307.584 
L 156.145398 41.472 
" style="fill:none;stroke:#ffffff;stroke-linecap:square;stroke-width:0.8;"/>
     </g>
     <g id="line2d_6">
      <g>
       <use style="fill:#555555;stroke:#555555;stroke-width:0.8;" x="156.145398" xlink:href="#m3e7aa0ef7d" y="307.584"/>
      </g>
     </g>
     <g id="text_3">
      <!-- 2000 -->
      <defs>
       <path d="M 19.1875 8.296875 
L 53.609375 8.296875 
L 53.609375 0 
L 7.328125 0 
L 7.328125 8.296875 
Q 12.9375 14.109375 22.625 23.890625 
Q 32.328125 33.6875 34.8125 36.53125 
Q 39.546875 41.84375 41.421875 45.53125 
Q 43.3125 49.21875 43.3125 52.78125 
Q 43.3125 58.59375 39.234375 62.25 
Q 35.15625 65.921875 28.609375 65.921875 
Q 23.96875 65.921875 18.8125 64.3125 
Q 13.671875 62.703125 7.8125 59.421875 
L 7.8125 69.390625 
Q 13.765625 71.78125 18.9375 73 
Q 24.125 74.21875 28.421875 74.21875 
Q 39.75 74.21875 46.484375 68.546875 
Q 53.21875 62.890625 53.21875 53.421875 
Q 53.21875 48.921875 51.53125 44.890625 
Q 49.859375 40.875 45.40625 35.40625 
Q 44.1875 33.984375 37.640625 27.21875 
Q 31.109375 20.453125 19.1875 8.296875 
z
" id="DejaVuSans-50"/>
      </defs>
      <g style="fill:#555555;" transform="translate(143.420398 322.182437)scale(0.1 -0.1)">
       <use xlink:href="#DejaVuSans-50"/>
       <use x="63.623047" xlink:href="#DejaVuSans-48"/>
       <use x="127.246094" xlink:href="#DejaVuSans-48"/>
       <use x="190.869141" xlink:href="#DejaVuSans-48"/>
      </g>
     </g>
    </g>
    <g id="xtick_4">
     <g id="line2d_7">
      <path clip-path="url(#pf6ac2ee9da)" d="M 197.92848 307.584 
L 197.92848 41.472 
" style="fill:none;stroke:#ffffff;stroke-linecap:square;stroke-width:0.8;"/>
     </g>
     <g id="line2d_8">
      <g>
       <use style="fill:#555555;stroke:#555555;stroke-width:0.8;" x="197.92848" xlink:href="#m3e7aa0ef7d" y="307.584"/>
      </g>
     </g>
     <g id="text_4">
      <!-- 3000 -->
      <defs>
       <path d="M 40.578125 39.3125 
Q 47.65625 37.796875 51.625 33 
Q 55.609375 28.21875 55.609375 21.1875 
Q 55.609375 10.40625 48.1875 4.484375 
Q 40.765625 -1.421875 27.09375 -1.421875 
Q 22.515625 -1.421875 17.65625 -0.515625 
Q 12.796875 0.390625 7.625 2.203125 
L 7.625 11.71875 
Q 11.71875 9.328125 16.59375 8.109375 
Q 21.484375 6.890625 26.8125 6.890625 
Q 36.078125 6.890625 40.9375 10.546875 
Q 45.796875 14.203125 45.796875 21.1875 
Q 45.796875 27.640625 41.28125 31.265625 
Q 36.765625 34.90625 28.71875 34.90625 
L 20.21875 34.90625 
L 20.21875 43.015625 
L 29.109375 43.015625 
Q 36.375 43.015625 40.234375 45.921875 
Q 44.09375 48.828125 44.09375 54.296875 
Q 44.09375 59.90625 40.109375 62.90625 
Q 36.140625 65.921875 28.71875 65.921875 
Q 24.65625 65.921875 20.015625 65.03125 
Q 15.375 64.15625 9.8125 62.3125 
L 9.8125 71.09375 
Q 15.4375 72.65625 20.34375 73.4375 
Q 25.25 74.21875 29.59375 74.21875 
Q 40.828125 74.21875 47.359375 69.109375 
Q 53.90625 64.015625 53.90625 55.328125 
Q 53.90625 49.265625 50.4375 45.09375 
Q 46.96875 40.921875 40.578125 39.3125 
z
" id="DejaVuSans-51"/>
      </defs>
      <g style="fill:#555555;" transform="translate(185.20348 322.182437)scale(0.1 -0.1)">
       <use xlink:href="#DejaVuSans-51"/>
       <use x="63.623047" xlink:href="#DejaVuSans-48"/>
       <use x="127.246094" xlink:href="#DejaVuSans-48"/>
       <use x="190.869141" xlink:href="#DejaVuSans-48"/>
      </g>
     </g>
    </g>
    <g id="xtick_5">
     <g id="line2d_9">
      <path clip-path="url(#pf6ac2ee9da)" d="M 239.711562 307.584 
L 239.711562 41.472 
" style="fill:none;stroke:#ffffff;stroke-linecap:square;stroke-width:0.8;"/>
     </g>
     <g id="line2d_10">
      <g>
       <use style="fill:#555555;stroke:#555555;stroke-width:0.8;" x="239.711562" xlink:href="#m3e7aa0ef7d" y="307.584"/>
      </g>
     </g>
     <g id="text_5">
      <!-- 4000 -->
      <defs>
       <path d="M 37.796875 64.3125 
L 12.890625 25.390625 
L 37.796875 25.390625 
z
M 35.203125 72.90625 
L 47.609375 72.90625 
L 47.609375 25.390625 
L 58.015625 25.390625 
L 58.015625 17.1875 
L 47.609375 17.1875 
L 47.609375 0 
L 37.796875 0 
L 37.796875 17.1875 
L 4.890625 17.1875 
L 4.890625 26.703125 
z
" id="DejaVuSans-52"/>
      </defs>
      <g style="fill:#555555;" transform="translate(226.986562 322.182437)scale(0.1 -0.1)">
       <use xlink:href="#DejaVuSans-52"/>
       <use x="63.623047" xlink:href="#DejaVuSans-48"/>
       <use x="127.246094" xlink:href="#DejaVuSans-48"/>
       <use x="190.869141" xlink:href="#DejaVuSans-48"/>
      </g>
     </g>
    </g>
    <g id="xtick_6">
     <g id="line2d_11">
      <path clip-path="url(#pf6ac2ee9da)" d="M 281.494644 307.584 
L 281.494644 41.472 
" style="fill:none;stroke:#ffffff;stroke-linecap:square;stroke-width:0.8;"/>
     </g>
     <g id="line2d_12">
      <g>
       <use style="fill:#555555;stroke:#555555;stroke-width:0.8;" x="281.494644" xlink:href="#m3e7aa0ef7d" y="307.584"/>
      </g>
     </g>
     <g id="text_6">
      <!-- 5000 -->
      <defs>
       <path d="M 10.796875 72.90625 
L 49.515625 72.90625 
L 49.515625 64.59375 
L 19.828125 64.59375 
L 19.828125 46.734375 
Q 21.96875 47.46875 24.109375 47.828125 
Q 26.265625 48.1875 28.421875 48.1875 
Q 40.625 48.1875 47.75 41.5 
Q 54.890625 34.8125 54.890625 23.390625 
Q 54.890625 11.625 47.5625 5.09375 
Q 40.234375 -1.421875 26.90625 -1.421875 
Q 22.3125 -1.421875 17.546875 -0.640625 
Q 12.796875 0.140625 7.71875 1.703125 
L 7.71875 11.625 
Q 12.109375 9.234375 16.796875 8.0625 
Q 21.484375 6.890625 26.703125 6.890625 
Q 35.15625 6.890625 40.078125 11.328125 
Q 45.015625 15.765625 45.015625 23.390625 
Q 45.015625 31 40.078125 35.4375 
Q 35.15625 39.890625 26.703125 39.890625 
Q 22.75 39.890625 18.8125 39.015625 
Q 14.890625 38.140625 10.796875 36.28125 
z
" id="DejaVuSans-53"/>
      </defs>
      <g style="fill:#555555;" transform="translate(268.769644 322.182437)scale(0.1 -0.1)">
       <use xlink:href="#DejaVuSans-53"/>
       <use x="63.623047" xlink:href="#DejaVuSans-48"/>
       <use x="127.246094" xlink:href="#DejaVuSans-48"/>
       <use x="190.869141" xlink:href="#DejaVuSans-48"/>
      </g>
     </g>
    </g>
    <g id="xtick_7">
     <g id="line2d_13">
      <path clip-path="url(#pf6ac2ee9da)" d="M 323.277726 307.584 
L 323.277726 41.472 
" style="fill:none;stroke:#ffffff;stroke-linecap:square;stroke-width:0.8;"/>
     </g>
     <g id="line2d_14">
      <g>
       <use style="fill:#555555;stroke:#555555;stroke-width:0.8;" x="323.277726" xlink:href="#m3e7aa0ef7d" y="307.584"/>
      </g>
     </g>
     <g id="text_7">
      <!-- 6000 -->
      <defs>
       <path d="M 33.015625 40.375 
Q 26.375 40.375 22.484375 35.828125 
Q 18.609375 31.296875 18.609375 23.390625 
Q 18.609375 15.53125 22.484375 10.953125 
Q 26.375 6.390625 33.015625 6.390625 
Q 39.65625 6.390625 43.53125 10.953125 
Q 47.40625 15.53125 47.40625 23.390625 
Q 47.40625 31.296875 43.53125 35.828125 
Q 39.65625 40.375 33.015625 40.375 
z
M 52.59375 71.296875 
L 52.59375 62.3125 
Q 48.875 64.0625 45.09375 64.984375 
Q 41.3125 65.921875 37.59375 65.921875 
Q 27.828125 65.921875 22.671875 59.328125 
Q 17.53125 52.734375 16.796875 39.40625 
Q 19.671875 43.65625 24.015625 45.921875 
Q 28.375 48.1875 33.59375 48.1875 
Q 44.578125 48.1875 50.953125 41.515625 
Q 57.328125 34.859375 57.328125 23.390625 
Q 57.328125 12.15625 50.6875 5.359375 
Q 44.046875 -1.421875 33.015625 -1.421875 
Q 20.359375 -1.421875 13.671875 8.265625 
Q 6.984375 17.96875 6.984375 36.375 
Q 6.984375 53.65625 15.1875 63.9375 
Q 23.390625 74.21875 37.203125 74.21875 
Q 40.921875 74.21875 44.703125 73.484375 
Q 48.484375 72.75 52.59375 71.296875 
z
" id="DejaVuSans-54"/>
      </defs>
      <g style="fill:#555555;" transform="translate(310.552726 322.182437)scale(0.1 -0.1)">
       <use xlink:href="#DejaVuSans-54"/>
       <use x="63.623047" xlink:href="#DejaVuSans-48"/>
       <use x="127.246094" xlink:href="#DejaVuSans-48"/>
       <use x="190.869141" xlink:href="#DejaVuSans-48"/>
      </g>
     </g>
    </g>
    <g id="xtick_8">
     <g id="line2d_15">
      <path clip-path="url(#pf6ac2ee9da)" d="M 365.060807 307.584 
L 365.060807 41.472 
" style="fill:none;stroke:#ffffff;stroke-linecap:square;stroke-width:0.8;"/>
     </g>
     <g id="line2d_16">
      <g>
       <use style="fill:#555555;stroke:#555555;stroke-width:0.8;" x="365.060807" xlink:href="#m3e7aa0ef7d" y="307.584"/>
      </g>
     </g>
     <g id="text_8">
      <!-- 7000 -->
      <defs>
       <path d="M 8.203125 72.90625 
L 55.078125 72.90625 
L 55.078125 68.703125 
L 28.609375 0 
L 18.3125 0 
L 43.21875 64.59375 
L 8.203125 64.59375 
z
" id="DejaVuSans-55"/>
      </defs>
      <g style="fill:#555555;" transform="translate(352.335807 322.182437)scale(0.1 -0.1)">
       <use xlink:href="#DejaVuSans-55"/>
       <use x="63.623047" xlink:href="#DejaVuSans-48"/>
       <use x="127.246094" xlink:href="#DejaVuSans-48"/>
       <use x="190.869141" xlink:href="#DejaVuSans-48"/>
      </g>
     </g>
    </g>
    <g id="text_9">
     <!-- Steps -->
     <defs>
      <path d="M 53.515625 70.515625 
L 53.515625 60.890625 
Q 47.90625 63.578125 42.921875 64.890625 
Q 37.9375 66.21875 33.296875 66.21875 
Q 25.25 66.21875 20.875 63.09375 
Q 16.5 59.96875 16.5 54.203125 
Q 16.5 49.359375 19.40625 46.890625 
Q 22.3125 44.4375 30.421875 42.921875 
L 36.375 41.703125 
Q 47.40625 39.59375 52.65625 34.296875 
Q 57.90625 29 57.90625 20.125 
Q 57.90625 9.515625 50.796875 4.046875 
Q 43.703125 -1.421875 29.984375 -1.421875 
Q 24.8125 -1.421875 18.96875 -0.25 
Q 13.140625 0.921875 6.890625 3.21875 
L 6.890625 13.375 
Q 12.890625 10.015625 18.65625 8.296875 
Q 24.421875 6.59375 29.984375 6.59375 
Q 38.421875 6.59375 43.015625 9.90625 
Q 47.609375 13.234375 47.609375 19.390625 
Q 47.609375 24.75 44.3125 27.78125 
Q 41.015625 30.8125 33.5 32.328125 
L 27.484375 33.5 
Q 16.453125 35.6875 11.515625 40.375 
Q 6.59375 45.0625 6.59375 53.421875 
Q 6.59375 63.09375 13.40625 68.65625 
Q 20.21875 74.21875 32.171875 74.21875 
Q 37.3125 74.21875 42.625 73.28125 
Q 47.953125 72.359375 53.515625 70.515625 
z
" id="DejaVuSans-83"/>
      <path d="M 18.3125 70.21875 
L 18.3125 54.6875 
L 36.8125 54.6875 
L 36.8125 47.703125 
L 18.3125 47.703125 
L 18.3125 18.015625 
Q 18.3125 11.328125 20.140625 9.421875 
Q 21.96875 7.515625 27.59375 7.515625 
L 36.8125 7.515625 
L 36.8125 0 
L 27.59375 0 
Q 17.1875 0 13.234375 3.875 
Q 9.28125 7.765625 9.28125 18.015625 
L 9.28125 47.703125 
L 2.6875 47.703125 
L 2.6875 54.6875 
L 9.28125 54.6875 
L 9.28125 70.21875 
z
" id="DejaVuSans-116"/>
      <path d="M 56.203125 29.59375 
L 56.203125 25.203125 
L 14.890625 25.203125 
Q 15.484375 15.921875 20.484375 11.0625 
Q 25.484375 6.203125 34.421875 6.203125 
Q 39.59375 6.203125 44.453125 7.46875 
Q 49.3125 8.734375 54.109375 11.28125 
L 54.109375 2.78125 
Q 49.265625 0.734375 44.1875 -0.34375 
Q 39.109375 -1.421875 33.890625 -1.421875 
Q 20.796875 -1.421875 13.15625 6.1875 
Q 5.515625 13.8125 5.515625 26.8125 
Q 5.515625 40.234375 12.765625 48.109375 
Q 20.015625 56 32.328125 56 
Q 43.359375 56 49.78125 48.890625 
Q 56.203125 41.796875 56.203125 29.59375 
z
M 47.21875 32.234375 
Q 47.125 39.59375 43.09375 43.984375 
Q 39.0625 48.390625 32.421875 48.390625 
Q 24.90625 48.390625 20.390625 44.140625 
Q 15.875 39.890625 15.1875 32.171875 
z
" id="DejaVuSans-101"/>
      <path d="M 18.109375 8.203125 
L 18.109375 -20.796875 
L 9.078125 -20.796875 
L 9.078125 54.6875 
L 18.109375 54.6875 
L 18.109375 46.390625 
Q 20.953125 51.265625 25.265625 53.625 
Q 29.59375 56 35.59375 56 
Q 45.5625 56 51.78125 48.09375 
Q 58.015625 40.1875 58.015625 27.296875 
Q 58.015625 14.40625 51.78125 6.484375 
Q 45.5625 -1.421875 35.59375 -1.421875 
Q 29.59375 -1.421875 25.265625 0.953125 
Q 20.953125 3.328125 18.109375 8.203125 
z
M 48.6875 27.296875 
Q 48.6875 37.203125 44.609375 42.84375 
Q 40.53125 48.484375 33.40625 48.484375 
Q 26.265625 48.484375 22.1875 42.84375 
Q 18.109375 37.203125 18.109375 27.296875 
Q 18.109375 17.390625 22.1875 11.75 
Q 26.265625 6.109375 33.40625 6.109375 
Q 40.53125 6.109375 44.609375 11.75 
Q 48.6875 17.390625 48.6875 27.296875 
z
" id="DejaVuSans-112"/>
      <path d="M 44.28125 53.078125 
L 44.28125 44.578125 
Q 40.484375 46.53125 36.375 47.5 
Q 32.28125 48.484375 27.875 48.484375 
Q 21.1875 48.484375 17.84375 46.4375 
Q 14.5 44.390625 14.5 40.28125 
Q 14.5 37.15625 16.890625 35.375 
Q 19.28125 33.59375 26.515625 31.984375 
L 29.59375 31.296875 
Q 39.15625 29.25 43.1875 25.515625 
Q 47.21875 21.78125 47.21875 15.09375 
Q 47.21875 7.46875 41.1875 3.015625 
Q 35.15625 -1.421875 24.609375 -1.421875 
Q 20.21875 -1.421875 15.453125 -0.5625 
Q 10.6875 0.296875 5.421875 2 
L 5.421875 11.28125 
Q 10.40625 8.6875 15.234375 7.390625 
Q 20.0625 6.109375 24.8125 6.109375 
Q 31.15625 6.109375 34.5625 8.28125 
Q 37.984375 10.453125 37.984375 14.40625 
Q 37.984375 18.0625 35.515625 20.015625 
Q 33.0625 21.96875 24.703125 23.78125 
L 21.578125 24.515625 
Q 13.234375 26.265625 9.515625 29.90625 
Q 5.8125 33.546875 5.8125 39.890625 
Q 5.8125 47.609375 11.28125 51.796875 
Q 16.75 56 26.8125 56 
Q 31.78125 56 36.171875 55.265625 
Q 40.578125 54.546875 44.28125 53.078125 
z
" id="DejaVuSans-115"/>
     </defs>
     <g style="fill:#555555;" transform="translate(219.372187 337.38025)scale(0.12 -0.12)">
      <use xlink:href="#DejaVuSans-83"/>
      <use x="63.476562" xlink:href="#DejaVuSans-116"/>
      <use x="102.685547" xlink:href="#DejaVuSans-101"/>
      <use x="164.208984" xlink:href="#DejaVuSans-112"/>
      <use x="227.685547" xlink:href="#DejaVuSans-115"/>
     </g>
    </g>
   </g>
   <g id="matplotlib.axis_2">
    <g id="ytick_1">
     <g id="line2d_17">
      <path clip-path="url(#pf6ac2ee9da)" d="M 57.6 295.758232 
L 414.72 295.758232 
" style="fill:none;stroke:#ffffff;stroke-linecap:square;stroke-width:0.8;"/>
     </g>
     <g id="line2d_18">
      <defs>
       <path d="M 0 0 
L -3.5 0 
" id="m86949af9b0" style="stroke:#555555;stroke-width:0.8;"/>
      </defs>
      <g>
       <use style="fill:#555555;stroke:#555555;stroke-width:0.8;" x="57.6" xlink:href="#m86949af9b0" y="295.758232"/>
      </g>
     </g>
     <g id="text_10">
      <!-- 0 -->
      <g style="fill:#555555;" transform="translate(44.2375 299.55745)scale(0.1 -0.1)">
       <use xlink:href="#DejaVuSans-48"/>
      </g>
     </g>
    </g>
    <g id="ytick_2">
     <g id="line2d_19">
      <path clip-path="url(#pf6ac2ee9da)" d="M 57.6 246.3323 
L 414.72 246.3323 
" style="fill:none;stroke:#ffffff;stroke-linecap:square;stroke-width:0.8;"/>
     </g>
     <g id="line2d_20">
      <g>
       <use style="fill:#555555;stroke:#555555;stroke-width:0.8;" x="57.6" xlink:href="#m86949af9b0" y="246.3323"/>
      </g>
     </g>
     <g id="text_11">
      <!-- 5 -->
      <g style="fill:#555555;" transform="translate(44.2375 250.131519)scale(0.1 -0.1)">
       <use xlink:href="#DejaVuSans-53"/>
      </g>
     </g>
    </g>
    <g id="ytick_3">
     <g id="line2d_21">
      <path clip-path="url(#pf6ac2ee9da)" d="M 57.6 196.906369 
L 414.72 196.906369 
" style="fill:none;stroke:#ffffff;stroke-linecap:square;stroke-width:0.8;"/>
     </g>
     <g id="line2d_22">
      <g>
       <use style="fill:#555555;stroke:#555555;stroke-width:0.8;" x="57.6" xlink:href="#m86949af9b0" y="196.906369"/>
      </g>
     </g>
     <g id="text_12">
      <!-- 10 -->
      <g style="fill:#555555;" transform="translate(37.875 200.705587)scale(0.1 -0.1)">
       <use xlink:href="#DejaVuSans-49"/>
       <use x="63.623047" xlink:href="#DejaVuSans-48"/>
      </g>
     </g>
    </g>
    <g id="ytick_4">
     <g id="line2d_23">
      <path clip-path="url(#pf6ac2ee9da)" d="M 57.6 147.480437 
L 414.72 147.480437 
" style="fill:none;stroke:#ffffff;stroke-linecap:square;stroke-width:0.8;"/>
     </g>
     <g id="line2d_24">
      <g>
       <use style="fill:#555555;stroke:#555555;stroke-width:0.8;" x="57.6" xlink:href="#m86949af9b0" y="147.480437"/>
      </g>
     </g>
     <g id="text_13">
      <!-- 15 -->
      <g style="fill:#555555;" transform="translate(37.875 151.279656)scale(0.1 -0.1)">
       <use xlink:href="#DejaVuSans-49"/>
       <use x="63.623047" xlink:href="#DejaVuSans-53"/>
      </g>
     </g>
    </g>
    <g id="ytick_5">
     <g id="line2d_25">
      <path clip-path="url(#pf6ac2ee9da)" d="M 57.6 98.054506 
L 414.72 98.054506 
" style="fill:none;stroke:#ffffff;stroke-linecap:square;stroke-width:0.8;"/>
     </g>
     <g id="line2d_26">
      <g>
       <use style="fill:#555555;stroke:#555555;stroke-width:0.8;" x="57.6" xlink:href="#m86949af9b0" y="98.054506"/>
      </g>
     </g>
     <g id="text_14">
      <!-- 20 -->
      <g style="fill:#555555;" transform="translate(37.875 101.853725)scale(0.1 -0.1)">
       <use xlink:href="#DejaVuSans-50"/>
       <use x="63.623047" xlink:href="#DejaVuSans-48"/>
      </g>
     </g>
    </g>
    <g id="ytick_6">
     <g id="line2d_27">
      <path clip-path="url(#pf6ac2ee9da)" d="M 57.6 48.628574 
L 414.72 48.628574 
" style="fill:none;stroke:#ffffff;stroke-linecap:square;stroke-width:0.8;"/>
     </g>
     <g id="line2d_28">
      <g>
       <use style="fill:#555555;stroke:#555555;stroke-width:0.8;" x="57.6" xlink:href="#m86949af9b0" y="48.628574"/>
      </g>
     </g>
     <g id="text_15">
      <!-- 25 -->
      <g style="fill:#555555;" transform="translate(37.875 52.427793)scale(0.1 -0.1)">
       <use xlink:href="#DejaVuSans-50"/>
       <use x="63.623047" xlink:href="#DejaVuSans-53"/>
      </g>
     </g>
    </g>
    <g id="text_16">
     <!-- Gradient distance -->
     <defs>
      <path d="M 59.515625 10.40625 
L 59.515625 29.984375 
L 43.40625 29.984375 
L 43.40625 38.09375 
L 69.28125 38.09375 
L 69.28125 6.78125 
Q 63.578125 2.734375 56.6875 0.65625 
Q 49.8125 -1.421875 42 -1.421875 
Q 24.90625 -1.421875 15.25 8.5625 
Q 5.609375 18.5625 5.609375 36.375 
Q 5.609375 54.25 15.25 64.234375 
Q 24.90625 74.21875 42 74.21875 
Q 49.125 74.21875 55.546875 72.453125 
Q 61.96875 70.703125 67.390625 67.28125 
L 67.390625 56.78125 
Q 61.921875 61.421875 55.765625 63.765625 
Q 49.609375 66.109375 42.828125 66.109375 
Q 29.4375 66.109375 22.71875 58.640625 
Q 16.015625 51.171875 16.015625 36.375 
Q 16.015625 21.625 22.71875 14.15625 
Q 29.4375 6.6875 42.828125 6.6875 
Q 48.046875 6.6875 52.140625 7.59375 
Q 56.25 8.5 59.515625 10.40625 
z
" id="DejaVuSans-71"/>
      <path d="M 41.109375 46.296875 
Q 39.59375 47.171875 37.8125 47.578125 
Q 36.03125 48 33.890625 48 
Q 26.265625 48 22.1875 43.046875 
Q 18.109375 38.09375 18.109375 28.8125 
L 18.109375 0 
L 9.078125 0 
L 9.078125 54.6875 
L 18.109375 54.6875 
L 18.109375 46.1875 
Q 20.953125 51.171875 25.484375 53.578125 
Q 30.03125 56 36.53125 56 
Q 37.453125 56 38.578125 55.875 
Q 39.703125 55.765625 41.0625 55.515625 
z
" id="DejaVuSans-114"/>
      <path d="M 34.28125 27.484375 
Q 23.390625 27.484375 19.1875 25 
Q 14.984375 22.515625 14.984375 16.5 
Q 14.984375 11.71875 18.140625 8.90625 
Q 21.296875 6.109375 26.703125 6.109375 
Q 34.1875 6.109375 38.703125 11.40625 
Q 43.21875 16.703125 43.21875 25.484375 
L 43.21875 27.484375 
z
M 52.203125 31.203125 
L 52.203125 0 
L 43.21875 0 
L 43.21875 8.296875 
Q 40.140625 3.328125 35.546875 0.953125 
Q 30.953125 -1.421875 24.3125 -1.421875 
Q 15.921875 -1.421875 10.953125 3.296875 
Q 6 8.015625 6 15.921875 
Q 6 25.140625 12.171875 29.828125 
Q 18.359375 34.515625 30.609375 34.515625 
L 43.21875 34.515625 
L 43.21875 35.40625 
Q 43.21875 41.609375 39.140625 45 
Q 35.0625 48.390625 27.6875 48.390625 
Q 23 48.390625 18.546875 47.265625 
Q 14.109375 46.140625 10.015625 43.890625 
L 10.015625 52.203125 
Q 14.9375 54.109375 19.578125 55.046875 
Q 24.21875 56 28.609375 56 
Q 40.484375 56 46.34375 49.84375 
Q 52.203125 43.703125 52.203125 31.203125 
z
" id="DejaVuSans-97"/>
      <path d="M 45.40625 46.390625 
L 45.40625 75.984375 
L 54.390625 75.984375 
L 54.390625 0 
L 45.40625 0 
L 45.40625 8.203125 
Q 42.578125 3.328125 38.25 0.953125 
Q 33.9375 -1.421875 27.875 -1.421875 
Q 17.96875 -1.421875 11.734375 6.484375 
Q 5.515625 14.40625 5.515625 27.296875 
Q 5.515625 40.1875 11.734375 48.09375 
Q 17.96875 56 27.875 56 
Q 33.9375 56 38.25 53.625 
Q 42.578125 51.265625 45.40625 46.390625 
z
M 14.796875 27.296875 
Q 14.796875 17.390625 18.875 11.75 
Q 22.953125 6.109375 30.078125 6.109375 
Q 37.203125 6.109375 41.296875 11.75 
Q 45.40625 17.390625 45.40625 27.296875 
Q 45.40625 37.203125 41.296875 42.84375 
Q 37.203125 48.484375 30.078125 48.484375 
Q 22.953125 48.484375 18.875 42.84375 
Q 14.796875 37.203125 14.796875 27.296875 
z
" id="DejaVuSans-100"/>
      <path d="M 9.421875 54.6875 
L 18.40625 54.6875 
L 18.40625 0 
L 9.421875 0 
z
M 9.421875 75.984375 
L 18.40625 75.984375 
L 18.40625 64.59375 
L 9.421875 64.59375 
z
" id="DejaVuSans-105"/>
      <path d="M 54.890625 33.015625 
L 54.890625 0 
L 45.90625 0 
L 45.90625 32.71875 
Q 45.90625 40.484375 42.875 44.328125 
Q 39.84375 48.1875 33.796875 48.1875 
Q 26.515625 48.1875 22.3125 43.546875 
Q 18.109375 38.921875 18.109375 30.90625 
L 18.109375 0 
L 9.078125 0 
L 9.078125 54.6875 
L 18.109375 54.6875 
L 18.109375 46.1875 
Q 21.34375 51.125 25.703125 53.5625 
Q 30.078125 56 35.796875 56 
Q 45.21875 56 50.046875 50.171875 
Q 54.890625 44.34375 54.890625 33.015625 
z
" id="DejaVuSans-110"/>
      <path id="DejaVuSans-32"/>
      <path d="M 48.78125 52.59375 
L 48.78125 44.1875 
Q 44.96875 46.296875 41.140625 47.34375 
Q 37.3125 48.390625 33.40625 48.390625 
Q 24.65625 48.390625 19.8125 42.84375 
Q 14.984375 37.3125 14.984375 27.296875 
Q 14.984375 17.28125 19.8125 11.734375 
Q 24.65625 6.203125 33.40625 6.203125 
Q 37.3125 6.203125 41.140625 7.25 
Q 44.96875 8.296875 48.78125 10.40625 
L 48.78125 2.09375 
Q 45.015625 0.34375 40.984375 -0.53125 
Q 36.96875 -1.421875 32.421875 -1.421875 
Q 20.0625 -1.421875 12.78125 6.34375 
Q 5.515625 14.109375 5.515625 27.296875 
Q 5.515625 40.671875 12.859375 48.328125 
Q 20.21875 56 33.015625 56 
Q 37.15625 56 41.109375 55.140625 
Q 45.0625 54.296875 48.78125 52.59375 
z
" id="DejaVuSans-99"/>
     </defs>
     <g style="fill:#555555;" transform="translate(31.379375 227.973937)rotate(-90)scale(0.12 -0.12)">
      <use xlink:href="#DejaVuSans-71"/>
      <use x="77.490234" xlink:href="#DejaVuSans-114"/>
      <use x="118.603516" xlink:href="#DejaVuSans-97"/>
      <use x="179.882812" xlink:href="#DejaVuSans-100"/>
      <use x="243.359375" xlink:href="#DejaVuSans-105"/>
      <use x="271.142578" xlink:href="#DejaVuSans-101"/>
      <use x="332.666016" xlink:href="#DejaVuSans-110"/>
      <use x="396.044922" xlink:href="#DejaVuSans-116"/>
      <use x="435.253906" xlink:href="#DejaVuSans-32"/>
      <use x="467.041016" xlink:href="#DejaVuSans-100"/>
      <use x="530.517578" xlink:href="#DejaVuSans-105"/>
      <use x="558.300781" xlink:href="#DejaVuSans-115"/>
      <use x="610.400391" xlink:href="#DejaVuSans-116"/>
      <use x="649.609375" xlink:href="#DejaVuSans-97"/>
      <use x="710.888672" xlink:href="#DejaVuSans-110"/>
      <use x="774.267578" xlink:href="#DejaVuSans-99"/>
      <use x="829.248047" xlink:href="#DejaVuSans-101"/>
     </g>
    </g>
   </g>
   <g id="PolyCollection_1">
    <defs>
     <path d="M 73.832727 -50.112 
L 73.832727 -67.046319 
L 75.08622 -85.054124 
L 76.339712 -83.267423 
L 77.593205 -81.075114 
L 78.846697 -107.602113 
L 80.10019 -95.584903 
L 81.353682 -116.81089 
L 82.607174 -93.903883 
L 83.860667 -138.774422 
L 85.114159 -92.708876 
L 86.367652 -97.909775 
L 87.621144 -153.114652 
L 88.874637 -166.155205 
L 90.128129 -114.714029 
L 91.381622 -110.929475 
L 92.635114 -106.992943 
L 93.888607 -109.860948 
L 95.142099 -113.155074 
L 96.395591 -112.359541 
L 97.649084 -136.041896 
L 98.902576 -108.491183 
L 100.156069 -137.104762 
L 101.409561 -129.919464 
L 102.663054 -114.216535 
L 103.916546 -118.468586 
L 105.170039 -127.179067 
L 106.423531 -123.061721 
L 107.677024 -161.213074 
L 108.930516 -119.541068 
L 110.184008 -122.96536 
L 111.437501 -132.070461 
L 112.690993 -111.903592 
L 113.944486 -139.711613 
L 115.197978 -191.014019 
L 116.451471 -141.806781 
L 117.704963 -142.010928 
L 118.958456 -189.554285 
L 120.211948 -116.863121 
L 121.465441 -138.976146 
L 122.718933 -130.664537 
L 123.972425 -121.684094 
L 125.225918 -135.856198 
L 126.47941 -123.633578 
L 127.732903 -158.106013 
L 128.986395 -114.996851 
L 130.239888 -124.081089 
L 131.49338 -108.266923 
L 132.746873 -185.46927 
L 134.000365 -125.195583 
L 135.253857 -127.094165 
L 136.50735 -140.981294 
L 137.760842 -211.438077 
L 139.014335 -154.760697 
L 140.267827 -113.033321 
L 141.52132 -123.754808 
L 142.774812 -140.391572 
L 144.028305 -126.19655 
L 145.281797 -129.133203 
L 146.53529 -122.844399 
L 147.788782 -144.949788 
L 149.042274 -148.517106 
L 150.295767 -183.966029 
L 151.549259 -115.47231 
L 152.802752 -170.945595 
L 154.056244 -131.948453 
L 155.309737 -151.610874 
L 156.563229 -202.619019 
L 157.816722 -128.89953 
L 159.070214 -118.458141 
L 160.323707 -118.149201 
L 161.577199 -133.010857 
L 162.830691 -121.422228 
L 164.084184 -139.480165 
L 165.337676 -136.795181 
L 166.591169 -143.094393 
L 167.844661 -140.175914 
L 169.098154 -179.284958 
L 170.351646 -116.39644 
L 171.605139 -127.870721 
L 172.858631 -129.484812 
L 174.112124 -148.775045 
L 175.365616 -138.560301 
L 176.619108 -154.698704 
L 177.872601 -159.990331 
L 179.126093 -148.230056 
L 180.379586 -139.213449 
L 181.633078 -172.257868 
L 182.886571 -145.399034 
L 184.140063 -161.533411 
L 185.393556 -126.561408 
L 186.647048 -152.46388 
L 187.900541 -136.62796 
L 189.154033 -131.420348 
L 190.407525 -153.482975 
L 191.661018 -147.576861 
L 192.91451 -118.658673 
L 194.168003 -163.466073 
L 195.421495 -169.501095 
L 196.674988 -128.947704 
L 197.92848 -160.907423 
L 199.181973 -135.765141 
L 200.435465 -154.737431 
L 201.688958 -149.524313 
L 202.94245 -127.384119 
L 204.195942 -150.339176 
L 205.449435 -151.984627 
L 206.702927 -182.381978 
L 207.95642 -128.531608 
L 209.209912 -159.708211 
L 210.463405 -148.108341 
L 211.716897 -132.196673 
L 212.97039 -134.58648 
L 214.223882 -142.430959 
L 215.477375 -143.120666 
L 216.730867 -135.505637 
L 217.984359 -150.919263 
L 219.237852 -175.537014 
L 220.491344 -156.309302 
L 221.744837 -128.999139 
L 222.998329 -130.244817 
L 224.251822 -131.037432 
L 225.505314 -145.321146 
L 226.758807 -127.947623 
L 228.012299 -149.40207 
L 229.265792 -140.36214 
L 230.519284 -126.407032 
L 231.772776 -154.286959 
L 233.026269 -124.807209 
L 234.279761 -156.984029 
L 235.533254 -147.793056 
L 236.786746 -131.756939 
L 238.040239 -135.408338 
L 239.293731 -169.134592 
L 240.547224 -140.684383 
L 241.800716 -139.701337 
L 243.054208 -120.047764 
L 244.307701 -136.268857 
L 245.561193 -150.088883 
L 246.814686 -138.766616 
L 248.068178 -153.957929 
L 249.321671 -150.398181 
L 250.575163 -154.333435 
L 251.828656 -151.446567 
L 253.082148 -127.318345 
L 254.335641 -126.401866 
L 255.589133 -140.745735 
L 256.842625 -147.586872 
L 258.096118 -179.740614 
L 259.34961 -156.695168 
L 260.603103 -122.849075 
L 261.856595 -137.569705 
L 263.110088 -162.991778 
L 264.36358 -107.17701 
L 265.617073 -134.431157 
L 266.870565 -147.38807 
L 268.124058 -138.338666 
L 269.37755 -144.985037 
L 270.631042 -151.227487 
L 271.884535 -123.517335 
L 273.138027 -111.425767 
L 274.39152 -138.936033 
L 275.645012 -170.288638 
L 276.898505 -119.479607 
L 278.151997 -162.883384 
L 279.40549 -136.186303 
L 280.658982 -148.573481 
L 281.912475 -162.163491 
L 283.165967 -132.423323 
L 284.419459 -147.592755 
L 285.672952 -145.551209 
L 286.926444 -102.784554 
L 288.179937 -114.45897 
L 289.433429 -132.991522 
L 290.686922 -140.568776 
L 291.940414 -169.385857 
L 293.193907 -144.607325 
L 294.447399 -140.699909 
L 295.700892 -127.250997 
L 296.954384 -113.708995 
L 298.207876 -126.248668 
L 299.461369 -160.290608 
L 300.714861 -106.167234 
L 301.968354 -212.51499 
L 303.221846 -150.680405 
L 304.475339 -136.410747 
L 305.728831 -139.258587 
L 306.982324 -158.769107 
L 308.235816 -172.75739 
L 309.489309 -114.683933 
L 310.742801 -115.742608 
L 311.996293 -125.421587 
L 313.249786 -112.532215 
L 314.503278 -143.700876 
L 315.756771 -187.142579 
L 317.010263 -150.631214 
L 318.263756 -107.832355 
L 319.517248 -99.991496 
L 320.770741 -104.234771 
L 322.024233 -106.95514 
L 323.277726 -114.32112 
L 324.531218 -121.306278 
L 325.78471 -174.98189 
L 327.038203 -145.865353 
L 328.291695 -133.920605 
L 329.545188 -129.800483 
L 330.79868 -138.219657 
L 332.052173 -158.589423 
L 333.305665 -154.341581 
L 334.559158 -114.552673 
L 335.81265 -102.353955 
L 337.066143 -150.082114 
L 338.319635 -121.424552 
L 339.573127 -114.922716 
L 340.82662 -125.529694 
L 342.080112 -123.471217 
L 343.333605 -117.880034 
L 344.587097 -135.526254 
L 345.84059 -180.280692 
L 347.094082 -122.159161 
L 348.347575 -153.059183 
L 349.601067 -160.973565 
L 350.854559 -108.24919 
L 352.108052 -142.396135 
L 353.361544 -106.035927 
L 354.615037 -104.014088 
L 355.868529 -129.136249 
L 357.122022 -135.100501 
L 358.375514 -143.436573 
L 359.629007 -158.668358 
L 360.882499 -133.485472 
L 362.135992 -108.520954 
L 363.389484 -115.084666 
L 364.642976 -141.074265 
L 365.896469 -117.38203 
L 367.149961 -119.468766 
L 368.403454 -97.308025 
L 369.656946 -114.469463 
L 370.910439 -122.412693 
L 372.163931 -112.184293 
L 373.417424 -104.250477 
L 374.670916 -134.239576 
L 375.924409 -174.520558 
L 377.177901 -144.616818 
L 378.431393 -139.228551 
L 379.684886 -107.293701 
L 380.938378 -107.586997 
L 382.191871 -118.171364 
L 383.445363 -149.227289 
L 384.698856 -131.197535 
L 385.952348 -110.306574 
L 387.205841 -115.755401 
L 388.459333 -118.647214 
L 389.712826 -158.277381 
L 390.966318 -146.350385 
L 392.21981 -162.776979 
L 393.473303 -139.099181 
L 394.726795 -121.983145 
L 395.980288 -103.860462 
L 397.23378 -142.644892 
L 398.487273 -144.371304 
L 398.487273 -86.833876 
L 398.487273 -86.833876 
L 397.23378 -88.0228 
L 395.980288 -74.538335 
L 394.726795 -91.200667 
L 393.473303 -99.092598 
L 392.21981 -70.038519 
L 390.966318 -83.595213 
L 389.712826 -81.284408 
L 388.459333 -102.686868 
L 387.205841 -102.537663 
L 385.952348 -91.069741 
L 384.698856 -99.796517 
L 383.445363 -83.406536 
L 382.191871 -96.555358 
L 380.938378 -94.526468 
L 379.684886 -68.748821 
L 378.431393 -96.858727 
L 377.177901 -109.524683 
L 375.924409 -81.037766 
L 374.670916 -102.103204 
L 373.417424 -78.842192 
L 372.163931 -92.142029 
L 370.910439 -96.131796 
L 369.656946 -89.11341 
L 368.403454 -90.668748 
L 367.149961 -101.958222 
L 365.896469 -94.738096 
L 364.642976 -80.523905 
L 363.389484 -87.17711 
L 362.135992 -76.654475 
L 360.882499 -109.459121 
L 359.629007 -96.717261 
L 358.375514 -86.938891 
L 357.122022 -104.329821 
L 355.868529 -97.919886 
L 354.615037 -98.055667 
L 353.361544 -90.177212 
L 352.108052 -89.484224 
L 350.854559 -102.588029 
L 349.601067 -91.148294 
L 348.347575 -95.998486 
L 347.094082 -98.380294 
L 345.84059 -86.422424 
L 344.587097 -102.442693 
L 343.333605 -84.838785 
L 342.080112 -88.003856 
L 340.82662 -88.968542 
L 339.573127 -98.198056 
L 338.319635 -89.122925 
L 337.066143 -98.943553 
L 335.81265 -93.275717 
L 334.559158 -80.605811 
L 333.305665 -85.269813 
L 332.052173 -94.733585 
L 330.79868 -91.565629 
L 329.545188 -86.092314 
L 328.291695 -90.572308 
L 327.038203 -73.729916 
L 325.78471 -97.370867 
L 324.531218 -86.264849 
L 323.277726 -96.8079 
L 322.024233 -80.854205 
L 320.770741 -82.254637 
L 319.517248 -87.885532 
L 318.263756 -77.368551 
L 317.010263 -96.554057 
L 315.756771 -100.121097 
L 314.503278 -104.756899 
L 313.249786 -93.492638 
L 311.996293 -85.005859 
L 310.742801 -102.350584 
L 309.489309 -98.347035 
L 308.235816 -86.011223 
L 306.982324 -94.770869 
L 305.728831 -96.924468 
L 304.475339 -88.99199 
L 303.221846 -89.42767 
L 301.968354 -79.235422 
L 300.714861 -95.409858 
L 299.461369 -89.539727 
L 298.207876 -99.066598 
L 296.954384 -80.746553 
L 295.700892 -103.209817 
L 294.447399 -96.19387 
L 293.193907 -92.863874 
L 291.940414 -83.328196 
L 290.686922 -76.340684 
L 289.433429 -108.173381 
L 288.179937 -96.366785 
L 286.926444 -87.37639 
L 285.672952 -90.082378 
L 284.419459 -85.980156 
L 283.165967 -94.79653 
L 281.912475 -87.198899 
L 280.658982 -94.655136 
L 279.40549 -96.63745 
L 278.151997 -105.157977 
L 276.898505 -86.465961 
L 275.645012 -86.408118 
L 274.39152 -113.153117 
L 273.138027 -98.105546 
L 271.884535 -98.094625 
L 270.631042 -95.15189 
L 269.37755 -90.080144 
L 268.124058 -93.208105 
L 266.870565 -93.202991 
L 265.617073 -104.548703 
L 264.36358 -86.392525 
L 263.110088 -101.99555 
L 261.856595 -85.159983 
L 260.603103 -89.983402 
L 259.34961 -93.211155 
L 258.096118 -94.771779 
L 256.842625 -86.784663 
L 255.589133 -92.670841 
L 254.335641 -88.022956 
L 253.082148 -85.123804 
L 251.828656 -92.50446 
L 250.575163 -90.669899 
L 249.321671 -84.043792 
L 248.068178 -95.342062 
L 246.814686 -83.337215 
L 245.561193 -96.388472 
L 244.307701 -97.47739 
L 243.054208 -95.936681 
L 241.800716 -92.236085 
L 240.547224 -83.964393 
L 239.293731 -92.676436 
L 238.040239 -86.280265 
L 236.786746 -75.429194 
L 235.533254 -81.407976 
L 234.279761 -104.735862 
L 233.026269 -89.139979 
L 231.772776 -86.010622 
L 230.519284 -109.570683 
L 229.265792 -79.841752 
L 228.012299 -85.372872 
L 226.758807 -77.910886 
L 225.505314 -96.613463 
L 224.251822 -91.700844 
L 222.998329 -94.564252 
L 221.744837 -86.131282 
L 220.491344 -88.600702 
L 219.237852 -93.052027 
L 217.984359 -93.119244 
L 216.730867 -100.413134 
L 215.477375 -92.503079 
L 214.223882 -86.742587 
L 212.97039 -94.291296 
L 211.716897 -84.389343 
L 210.463405 -96.957355 
L 209.209912 -91.43779 
L 207.95642 -98.07437 
L 206.702927 -104.030397 
L 205.449435 -84.796145 
L 204.195942 -87.548275 
L 202.94245 -85.286247 
L 201.688958 -90.898274 
L 200.435465 -90.542494 
L 199.181973 -84.601534 
L 197.92848 -79.293371 
L 196.674988 -85.785231 
L 195.421495 -83.645729 
L 194.168003 -88.635468 
L 192.91451 -86.150351 
L 191.661018 -112.074876 
L 190.407525 -95.523795 
L 189.154033 -102.198697 
L 187.900541 -82.981657 
L 186.647048 -85.174942 
L 185.393556 -108.871407 
L 184.140063 -92.169873 
L 182.886571 -92.556027 
L 181.633078 -88.228793 
L 180.379586 -92.780089 
L 179.126093 -93.893739 
L 177.872601 -83.467964 
L 176.619108 -96.746844 
L 175.365616 -84.579026 
L 174.112124 -93.485695 
L 172.858631 -97.65425 
L 171.605139 -84.47576 
L 170.351646 -90.101209 
L 169.098154 -101.360535 
L 167.844661 -90.894837 
L 166.591169 -86.858759 
L 165.337676 -93.850365 
L 164.084184 -93.806797 
L 162.830691 -91.71745 
L 161.577199 -79.032649 
L 160.323707 -111.263685 
L 159.070214 -85.185625 
L 157.816722 -87.206056 
L 156.563229 -94.875205 
L 155.309737 -89.627141 
L 154.056244 -91.209165 
L 152.802752 -82.71563 
L 151.549259 -85.995341 
L 150.295767 -88.185053 
L 149.042274 -98.814244 
L 147.788782 -79.727032 
L 146.53529 -92.254949 
L 145.281797 -83.303555 
L 144.028305 -100.351343 
L 142.774812 -94.727075 
L 141.52132 -89.975101 
L 140.267827 -93.772481 
L 139.014335 -95.348642 
L 137.760842 -94.735522 
L 136.50735 -82.683681 
L 135.253857 -82.646375 
L 134.000365 -79.773692 
L 132.746873 -90.652741 
L 131.49338 -91.081294 
L 130.239888 -79.43728 
L 128.986395 -105.05175 
L 127.732903 -86.930767 
L 126.47941 -87.459508 
L 125.225918 -87.220127 
L 123.972425 -83.993151 
L 122.718933 -87.283829 
L 121.465441 -124.93919 
L 120.211948 -88.489765 
L 118.958456 -83.72472 
L 117.704963 -86.947227 
L 116.451471 -93.348948 
L 115.197978 -97.164712 
L 113.944486 -100.122431 
L 112.690993 -79.641114 
L 111.437501 -82.19666 
L 110.184008 -82.512076 
L 108.930516 -82.462633 
L 107.677024 -76.008918 
L 106.423531 -89.879773 
L 105.170039 -92.255062 
L 103.916546 -91.13963 
L 102.663054 -89.466086 
L 101.409561 -88.443781 
L 100.156069 -81.537912 
L 98.902576 -77.668024 
L 97.649084 -83.419581 
L 96.395591 -81.996104 
L 95.142099 -82.902504 
L 93.888607 -75.942569 
L 92.635114 -83.854328 
L 91.381622 -80.265886 
L 90.128129 -76.675214 
L 88.874637 -84.847649 
L 87.621144 -103.964803 
L 86.367652 -71.890455 
L 85.114159 -64.102506 
L 83.860667 -69.496624 
L 82.607174 -83.463519 
L 81.353682 -69.892328 
L 80.10019 -63.701784 
L 78.846697 -70.77539 
L 77.593205 -67.66835 
L 76.339712 -76.133777 
L 75.08622 -65.231433 
L 73.832727 -50.112 
z
" id="m7ab5d2a8c4" style="stroke:#90ee90;stroke-width:0.5;"/>
    </defs>
    <g clip-path="url(#pf6ac2ee9da)">
     <use style="fill:#90ee90;stroke:#90ee90;stroke-width:0.5;" x="0" xlink:href="#m7ab5d2a8c4" y="345.6"/>
    </g>
   </g>
   <g id="PolyCollection_2">
    <defs>
     <path d="M 73.832727 -73.001039 
L 73.832727 -292.032 
L 75.08622 -241.822476 
L 76.339712 -225.168091 
L 77.593205 -214.430135 
L 78.846697 -216.763323 
L 80.10019 -201.33975 
L 81.353682 -201.754597 
L 82.607174 -191.598631 
L 83.860667 -195.887322 
L 85.114159 -185.516369 
L 86.367652 -186.284133 
L 87.621144 -184.878964 
L 88.874637 -187.573866 
L 90.128129 -181.340654 
L 91.381622 -184.112491 
L 92.635114 -190.495756 
L 93.888607 -189.67337 
L 95.142099 -181.084195 
L 96.395591 -185.743735 
L 97.649084 -187.831842 
L 98.902576 -203.076598 
L 100.156069 -185.362148 
L 101.409561 -172.131194 
L 102.663054 -162.915182 
L 103.916546 -191.790985 
L 105.170039 -187.861566 
L 106.423531 -182.71773 
L 107.677024 -179.848207 
L 108.930516 -203.891867 
L 110.184008 -202.223272 
L 111.437501 -194.388079 
L 112.690993 -204.311285 
L 113.944486 -194.047727 
L 115.197978 -192.030409 
L 116.451471 -189.142956 
L 117.704963 -193.360292 
L 118.958456 -199.96686 
L 120.211948 -195.257658 
L 121.465441 -208.744581 
L 122.718933 -203.648927 
L 123.972425 -179.715566 
L 125.225918 -179.931082 
L 126.47941 -178.253522 
L 127.732903 -208.476262 
L 128.986395 -194.095202 
L 130.239888 -189.923325 
L 131.49338 -213.262005 
L 132.746873 -209.570445 
L 134.000365 -202.867681 
L 135.253857 -197.775006 
L 136.50735 -212.98309 
L 137.760842 -198.19269 
L 139.014335 -163.163449 
L 140.267827 -173.45955 
L 141.52132 -184.032897 
L 142.774812 -165.285814 
L 144.028305 -205.172568 
L 145.281797 -184.866153 
L 146.53529 -201.241132 
L 147.788782 -201.329692 
L 149.042274 -209.501306 
L 150.295767 -209.591845 
L 151.549259 -186.707096 
L 152.802752 -227.640199 
L 154.056244 -211.271027 
L 155.309737 -168.637324 
L 156.563229 -170.042078 
L 157.816722 -166.863285 
L 159.070214 -179.213593 
L 160.323707 -202.025583 
L 161.577199 -194.148768 
L 162.830691 -217.651614 
L 164.084184 -217.688871 
L 165.337676 -228.907089 
L 166.591169 -204.967676 
L 167.844661 -227.465474 
L 169.098154 -162.856007 
L 170.351646 -175.526606 
L 171.605139 -156.613585 
L 172.858631 -157.950039 
L 174.112124 -160.158221 
L 175.365616 -165.336731 
L 176.619108 -161.24688 
L 177.872601 -203.686805 
L 179.126093 -193.740483 
L 180.379586 -191.892875 
L 181.633078 -219.45912 
L 182.886571 -204.361165 
L 184.140063 -188.533616 
L 185.393556 -208.288321 
L 186.647048 -203.51373 
L 187.900541 -181.348903 
L 189.154033 -125.17728 
L 190.407525 -181.758941 
L 191.661018 -153.820782 
L 192.91451 -149.861564 
L 194.168003 -182.232783 
L 195.421495 -172.596514 
L 196.674988 -178.932265 
L 197.92848 -178.54523 
L 199.181973 -187.31208 
L 200.435465 -189.269366 
L 201.688958 -172.123756 
L 202.94245 -182.483246 
L 204.195942 -158.626812 
L 205.449435 -162.281916 
L 206.702927 -184.565037 
L 207.95642 -169.75878 
L 209.209912 -165.094903 
L 210.463405 -173.318867 
L 211.716897 -163.07323 
L 212.97039 -173.797507 
L 214.223882 -180.311708 
L 215.477375 -143.736992 
L 216.730867 -205.194364 
L 217.984359 -203.442951 
L 219.237852 -191.906893 
L 220.491344 -134.611208 
L 221.744837 -183.071893 
L 222.998329 -165.688301 
L 224.251822 -173.79236 
L 225.505314 -161.05644 
L 226.758807 -178.371269 
L 228.012299 -175.185057 
L 229.265792 -150.778411 
L 230.519284 -180.47313 
L 231.772776 -167.718554 
L 233.026269 -161.122138 
L 234.279761 -231.328798 
L 235.533254 -222.023105 
L 236.786746 -149.471162 
L 238.040239 -181.769066 
L 239.293731 -159.833509 
L 240.547224 -157.382594 
L 241.800716 -148.615979 
L 243.054208 -140.442159 
L 244.307701 -169.919241 
L 245.561193 -141.40404 
L 246.814686 -179.540549 
L 248.068178 -202.823646 
L 249.321671 -186.886676 
L 250.575163 -229.578516 
L 251.828656 -146.1072 
L 253.082148 -135.768582 
L 254.335641 -138.054152 
L 255.589133 -144.837877 
L 256.842625 -122.11934 
L 258.096118 -147.355792 
L 259.34961 -158.984991 
L 260.603103 -137.362126 
L 261.856595 -139.581904 
L 263.110088 -215.630658 
L 264.36358 -180.729316 
L 265.617073 -174.92231 
L 266.870565 -179.290359 
L 268.124058 -178.646224 
L 269.37755 -120.931667 
L 270.631042 -109.719374 
L 271.884535 -138.24578 
L 273.138027 -154.000682 
L 274.39152 -172.896272 
L 275.645012 -118.544909 
L 276.898505 -158.572709 
L 278.151997 -171.124845 
L 279.40549 -164.290731 
L 280.658982 -191.942528 
L 281.912475 -223.165782 
L 283.165967 -179.802787 
L 284.419459 -224.182699 
L 285.672952 -167.011067 
L 286.926444 -160.632025 
L 288.179937 -140.632212 
L 289.433429 -168.893896 
L 290.686922 -163.686463 
L 291.940414 -142.139544 
L 293.193907 -138.264879 
L 294.447399 -143.531666 
L 295.700892 -193.396822 
L 296.954384 -175.753341 
L 298.207876 -214.874781 
L 299.461369 -208.095892 
L 300.714861 -226.523089 
L 301.968354 -150.773593 
L 303.221846 -136.611217 
L 304.475339 -124.059458 
L 305.728831 -127.650396 
L 306.982324 -143.328961 
L 308.235816 -119.643966 
L 309.489309 -158.788366 
L 310.742801 -117.358278 
L 311.996293 -170.634571 
L 313.249786 -137.814624 
L 314.503278 -134.003197 
L 315.756771 -178.979656 
L 317.010263 -162.277146 
L 318.263756 -162.227889 
L 319.517248 -137.59957 
L 320.770741 -122.549237 
L 322.024233 -103.222317 
L 323.277726 -166.64101 
L 324.531218 -199.638264 
L 325.78471 -129.4832 
L 327.038203 -122.243026 
L 328.291695 -198.449196 
L 329.545188 -167.118085 
L 330.79868 -190.457039 
L 332.052173 -167.617296 
L 333.305665 -198.815444 
L 334.559158 -168.259442 
L 335.81265 -165.437772 
L 337.066143 -121.971912 
L 338.319635 -152.79489 
L 339.573127 -136.96834 
L 340.82662 -165.327935 
L 342.080112 -142.14917 
L 343.333605 -120.42038 
L 344.587097 -168.998189 
L 345.84059 -196.902628 
L 347.094082 -156.429961 
L 348.347575 -182.040467 
L 349.601067 -159.9171 
L 350.854559 -148.681743 
L 352.108052 -154.97956 
L 353.361544 -152.307576 
L 354.615037 -148.102383 
L 355.868529 -142.784773 
L 357.122022 -105.65022 
L 358.375514 -170.90025 
L 359.629007 -147.999343 
L 360.882499 -152.749318 
L 362.135992 -120.708816 
L 363.389484 -128.044828 
L 364.642976 -180.901636 
L 365.896469 -157.523032 
L 367.149961 -126.871121 
L 368.403454 -159.214195 
L 369.656946 -150.778043 
L 370.910439 -116.172231 
L 372.163931 -99.871242 
L 373.417424 -176.545767 
L 374.670916 -148.411398 
L 375.924409 -178.048593 
L 377.177901 -164.240521 
L 378.431393 -159.854739 
L 379.684886 -158.391432 
L 380.938378 -149.216165 
L 382.191871 -172.595354 
L 383.445363 -137.579254 
L 384.698856 -176.883574 
L 385.952348 -137.822091 
L 387.205841 -168.829922 
L 388.459333 -150.08268 
L 389.712826 -145.246219 
L 390.966318 -180.09161 
L 392.21981 -134.311912 
L 393.473303 -139.610006 
L 394.726795 -133.682907 
L 395.980288 -137.917146 
L 397.23378 -137.019851 
L 398.487273 -142.588753 
L 398.487273 -70.567517 
L 398.487273 -70.567517 
L 397.23378 -63.088891 
L 395.980288 -63.337182 
L 394.726795 -59.901922 
L 393.473303 -69.143978 
L 392.21981 -59.589293 
L 390.966318 -58.786355 
L 389.712826 -56.51137 
L 388.459333 -61.943188 
L 387.205841 -58.506244 
L 385.952348 -76.037343 
L 384.698856 -66.639982 
L 383.445363 -58.624331 
L 382.191871 -70.243093 
L 380.938378 -60.619299 
L 379.684886 -63.538813 
L 378.431393 -62.183549 
L 377.177901 -76.091531 
L 375.924409 -54.256976 
L 374.670916 -65.775553 
L 373.417424 -57.873639 
L 372.163931 -55.738043 
L 370.910439 -64.336037 
L 369.656946 -64.427388 
L 368.403454 -69.65891 
L 367.149961 -71.004381 
L 365.896469 -63.076036 
L 364.642976 -67.43659 
L 363.389484 -60.913439 
L 362.135992 -63.788641 
L 360.882499 -60.981159 
L 359.629007 -64.203372 
L 358.375514 -60.726446 
L 357.122022 -63.369165 
L 355.868529 -59.205572 
L 354.615037 -69.018121 
L 353.361544 -59.998406 
L 352.108052 -68.695017 
L 350.854559 -66.59429 
L 349.601067 -74.419691 
L 348.347575 -61.801269 
L 347.094082 -66.941592 
L 345.84059 -61.497612 
L 344.587097 -62.788841 
L 343.333605 -67.261673 
L 342.080112 -62.072062 
L 340.82662 -58.504905 
L 339.573127 -59.237671 
L 338.319635 -60.339291 
L 337.066143 -63.549483 
L 335.81265 -61.033329 
L 334.559158 -59.970694 
L 333.305665 -67.124535 
L 332.052173 -65.056563 
L 330.79868 -63.924029 
L 329.545188 -60.11759 
L 328.291695 -60.970746 
L 327.038203 -64.595281 
L 325.78471 -72.954421 
L 324.531218 -67.749156 
L 323.277726 -61.939464 
L 322.024233 -66.262393 
L 320.770741 -62.968543 
L 319.517248 -57.771442 
L 318.263756 -59.458942 
L 317.010263 -67.20127 
L 315.756771 -59.78822 
L 314.503278 -65.586013 
L 313.249786 -64.249921 
L 311.996293 -64.051682 
L 310.742801 -66.594003 
L 309.489309 -66.649411 
L 308.235816 -60.711883 
L 306.982324 -57.596047 
L 305.728831 -63.817055 
L 304.475339 -57.975196 
L 303.221846 -65.987687 
L 301.968354 -62.162974 
L 300.714861 -65.320588 
L 299.461369 -67.302853 
L 298.207876 -71.915609 
L 296.954384 -66.841755 
L 295.700892 -66.951027 
L 294.447399 -65.431409 
L 293.193907 -70.091396 
L 291.940414 -72.003577 
L 290.686922 -64.05138 
L 289.433429 -71.265888 
L 288.179937 -58.315562 
L 286.926444 -61.46094 
L 285.672952 -66.337563 
L 284.419459 -66.258928 
L 283.165967 -67.922369 
L 281.912475 -79.187838 
L 280.658982 -68.439416 
L 279.40549 -75.151948 
L 278.151997 -76.381709 
L 276.898505 -66.984035 
L 275.645012 -65.106283 
L 274.39152 -63.536398 
L 273.138027 -62.959051 
L 271.884535 -65.721735 
L 270.631042 -63.066086 
L 269.37755 -60.777026 
L 268.124058 -70.117519 
L 266.870565 -61.457931 
L 265.617073 -62.706016 
L 264.36358 -63.169723 
L 263.110088 -69.429493 
L 261.856595 -69.004336 
L 260.603103 -68.191574 
L 259.34961 -68.256226 
L 258.096118 -63.660805 
L 256.842625 -64.270611 
L 255.589133 -60.63433 
L 254.335641 -72.915324 
L 253.082148 -62.521837 
L 251.828656 -75.334971 
L 250.575163 -70.03492 
L 249.321671 -76.505585 
L 248.068178 -67.098023 
L 246.814686 -62.259055 
L 245.561193 -73.776998 
L 244.307701 -75.403436 
L 243.054208 -65.770377 
L 241.800716 -70.598137 
L 240.547224 -67.782069 
L 239.293731 -71.743892 
L 238.040239 -66.156359 
L 236.786746 -63.19121 
L 235.533254 -77.839927 
L 234.279761 -67.876414 
L 233.026269 -71.725056 
L 231.772776 -79.659631 
L 230.519284 -79.783303 
L 229.265792 -69.50473 
L 228.012299 -74.560487 
L 226.758807 -78.314483 
L 225.505314 -66.245807 
L 224.251822 -78.297168 
L 222.998329 -78.239803 
L 221.744837 -63.94905 
L 220.491344 -61.123016 
L 219.237852 -73.134331 
L 217.984359 -75.431767 
L 216.730867 -71.615782 
L 215.477375 -83.714046 
L 214.223882 -68.274571 
L 212.97039 -69.328318 
L 211.716897 -78.975871 
L 210.463405 -72.358668 
L 209.209912 -74.335303 
L 207.95642 -74.481513 
L 206.702927 -75.09143 
L 205.449435 -72.82178 
L 204.195942 -75.36769 
L 202.94245 -76.419644 
L 201.688958 -80.603874 
L 200.435465 -80.749636 
L 199.181973 -85.795382 
L 197.92848 -70.826474 
L 196.674988 -92.124103 
L 195.421495 -67.057902 
L 194.168003 -62.552235 
L 192.91451 -79.865812 
L 191.661018 -79.237484 
L 190.407525 -69.309136 
L 189.154033 -68.030944 
L 187.900541 -67.983956 
L 186.647048 -78.159598 
L 185.393556 -90.561518 
L 184.140063 -70.672885 
L 182.886571 -74.975687 
L 181.633078 -73.58591 
L 180.379586 -73.906038 
L 179.126093 -70.454626 
L 177.872601 -70.462707 
L 176.619108 -73.549622 
L 175.365616 -69.221511 
L 174.112124 -70.191092 
L 172.858631 -79.900599 
L 171.605139 -91.5535 
L 170.351646 -71.450014 
L 169.098154 -85.527559 
L 167.844661 -76.580134 
L 166.591169 -77.019703 
L 165.337676 -70.920664 
L 164.084184 -85.37681 
L 162.830691 -78.594293 
L 161.577199 -78.965513 
L 160.323707 -76.415147 
L 159.070214 -83.473943 
L 157.816722 -92.326667 
L 156.563229 -71.267754 
L 155.309737 -70.94875 
L 154.056244 -74.981871 
L 152.802752 -70.200498 
L 151.549259 -74.801565 
L 150.295767 -86.345328 
L 149.042274 -75.609136 
L 147.788782 -76.560369 
L 146.53529 -85.255785 
L 145.281797 -81.608371 
L 144.028305 -99.143119 
L 142.774812 -73.276508 
L 141.52132 -72.355817 
L 140.267827 -75.821103 
L 139.014335 -75.556506 
L 137.760842 -65.732818 
L 136.50735 -74.042816 
L 135.253857 -92.686967 
L 134.000365 -75.160178 
L 132.746873 -82.803211 
L 131.49338 -80.331346 
L 130.239888 -100.575009 
L 128.986395 -77.625802 
L 127.732903 -77.254632 
L 126.47941 -102.428967 
L 125.225918 -72.721205 
L 123.972425 -98.18021 
L 122.718933 -92.822677 
L 121.465441 -70.911925 
L 120.211948 -75.272164 
L 118.958456 -76.714922 
L 117.704963 -79.640287 
L 116.451471 -108.032302 
L 115.197978 -84.679476 
L 113.944486 -77.531225 
L 112.690993 -77.195024 
L 111.437501 -98.210726 
L 110.184008 -84.345042 
L 108.930516 -86.293727 
L 107.677024 -80.0697 
L 106.423531 -78.459663 
L 105.170039 -100.04458 
L 103.916546 -89.958104 
L 102.663054 -116.139957 
L 101.409561 -75.544315 
L 100.156069 -89.761286 
L 98.902576 -87.471832 
L 97.649084 -114.622147 
L 96.395591 -80.860818 
L 95.142099 -83.640565 
L 93.888607 -78.520919 
L 92.635114 -74.276597 
L 91.381622 -95.746406 
L 90.128129 -92.758373 
L 88.874637 -76.015041 
L 87.621144 -78.113688 
L 86.367652 -87.655258 
L 85.114159 -77.783074 
L 83.860667 -80.005114 
L 82.607174 -83.290173 
L 81.353682 -72.674038 
L 80.10019 -81.97831 
L 78.846697 -82.266504 
L 77.593205 -81.157173 
L 76.339712 -73.671208 
L 75.08622 -86.063257 
L 73.832727 -73.001039 
z
" id="m63f2f9def3" style="stroke:#f08080;stroke-width:0.5;"/>
    </defs>
    <g clip-path="url(#pf6ac2ee9da)">
     <use style="fill:#f08080;stroke:#f08080;stroke-width:0.5;" x="0" xlink:href="#m63f2f9def3" y="345.6"/>
    </g>
   </g>
   <g id="line2d_29">
    <path clip-path="url(#pf6ac2ee9da)" d="M 73.832727 278.553681 
L 75.08622 260.545876 
L 76.339712 262.332577 
L 77.593205 264.524886 
L 78.846697 237.997887 
L 80.10019 250.015097 
L 81.353682 228.78911 
L 82.607174 251.696117 
L 83.860667 206.825578 
L 85.114159 252.891124 
L 86.367652 247.690225 
L 87.621144 192.485348 
L 88.874637 179.444795 
L 90.128129 230.885971 
L 92.635114 238.607057 
L 93.888607 235.739052 
L 95.142099 232.444926 
L 96.395591 233.240459 
L 97.649084 209.558104 
L 98.902576 237.108817 
L 100.156069 208.495238 
L 101.409561 215.680536 
L 102.663054 231.383465 
L 103.916546 227.131414 
L 105.170039 218.420933 
L 106.423531 222.538279 
L 107.677024 184.386926 
L 108.930516 226.058932 
L 110.184008 222.63464 
L 111.437501 213.529539 
L 112.690993 233.696408 
L 113.944486 205.888387 
L 115.197978 154.585981 
L 116.451471 203.793219 
L 117.704963 203.589072 
L 118.958456 156.045715 
L 120.211948 228.736879 
L 121.465441 206.623854 
L 123.972425 223.915906 
L 125.225918 209.743802 
L 126.47941 221.966422 
L 127.732903 187.493987 
L 128.986395 230.603149 
L 130.239888 221.518911 
L 131.49338 237.333077 
L 132.746873 160.13073 
L 134.000365 220.404417 
L 135.253857 218.505835 
L 136.50735 204.618706 
L 137.760842 134.161923 
L 139.014335 190.839303 
L 140.267827 232.566679 
L 141.52132 221.845192 
L 142.774812 205.208428 
L 144.028305 219.40345 
L 145.281797 216.466797 
L 146.53529 222.755601 
L 147.788782 200.650212 
L 149.042274 197.082894 
L 150.295767 161.633971 
L 151.549259 230.12769 
L 152.802752 174.654405 
L 154.056244 213.651547 
L 155.309737 193.989126 
L 156.563229 142.980981 
L 157.816722 216.70047 
L 159.070214 227.141859 
L 160.323707 227.450799 
L 161.577199 212.589143 
L 162.830691 224.177772 
L 164.084184 206.119835 
L 165.337676 208.804819 
L 166.591169 202.505607 
L 167.844661 205.424086 
L 169.098154 166.315042 
L 170.351646 229.20356 
L 171.605139 217.729279 
L 172.858631 216.115188 
L 174.112124 196.824955 
L 175.365616 207.039699 
L 176.619108 190.901296 
L 177.872601 185.609669 
L 179.126093 197.369944 
L 180.379586 206.386551 
L 181.633078 173.342132 
L 182.886571 200.200966 
L 184.140063 184.066589 
L 185.393556 219.038592 
L 186.647048 193.13612 
L 187.900541 208.97204 
L 189.154033 214.179652 
L 190.407525 192.117025 
L 191.661018 198.023139 
L 192.91451 226.941327 
L 194.168003 182.133927 
L 195.421495 176.098905 
L 196.674988 216.652296 
L 197.92848 184.692577 
L 199.181973 209.834859 
L 200.435465 190.862569 
L 201.688958 196.075687 
L 202.94245 218.215881 
L 204.195942 195.260824 
L 205.449435 193.615373 
L 206.702927 163.218022 
L 207.95642 217.068392 
L 209.209912 185.891789 
L 210.463405 197.491659 
L 211.716897 213.403327 
L 212.97039 211.01352 
L 214.223882 203.169041 
L 215.477375 202.479334 
L 216.730867 210.094363 
L 217.984359 194.680737 
L 219.237852 170.062986 
L 220.491344 189.290698 
L 221.744837 216.600861 
L 222.998329 215.355183 
L 224.251822 214.562568 
L 225.505314 200.278854 
L 226.758807 217.652377 
L 228.012299 196.19793 
L 229.265792 205.23786 
L 230.519284 219.192968 
L 231.772776 191.313041 
L 233.026269 220.792791 
L 234.279761 188.615971 
L 235.533254 197.806944 
L 236.786746 213.843061 
L 238.040239 210.191662 
L 239.293731 176.465408 
L 240.547224 204.915617 
L 241.800716 205.898663 
L 243.054208 225.552236 
L 244.307701 209.331143 
L 245.561193 195.511117 
L 246.814686 206.833384 
L 248.068178 191.642071 
L 249.321671 195.201819 
L 250.575163 191.266565 
L 251.828656 194.153433 
L 253.082148 218.281655 
L 254.335641 219.198134 
L 255.589133 204.854265 
L 256.842625 198.013128 
L 258.096118 165.859386 
L 259.34961 188.904832 
L 260.603103 222.750925 
L 261.856595 208.030295 
L 263.110088 182.608222 
L 264.36358 238.42299 
L 265.617073 211.168843 
L 266.870565 198.21193 
L 268.124058 207.261334 
L 270.631042 194.372513 
L 271.884535 222.082665 
L 273.138027 234.174233 
L 274.39152 206.663967 
L 275.645012 175.311362 
L 276.898505 226.120393 
L 278.151997 182.716616 
L 279.40549 209.413697 
L 280.658982 197.026519 
L 281.912475 183.436509 
L 283.165967 213.176677 
L 284.419459 198.007245 
L 285.672952 200.048791 
L 286.926444 242.815446 
L 288.179937 231.14103 
L 289.433429 212.608478 
L 290.686922 205.031224 
L 291.940414 176.214143 
L 293.193907 200.992675 
L 294.447399 204.900091 
L 296.954384 231.891005 
L 298.207876 219.351332 
L 299.461369 185.309392 
L 300.714861 239.432766 
L 301.968354 133.08501 
L 303.221846 194.919595 
L 304.475339 209.189253 
L 305.728831 206.341413 
L 306.982324 186.830893 
L 308.235816 172.84261 
L 309.489309 230.916067 
L 310.742801 229.857392 
L 311.996293 220.178413 
L 313.249786 233.067785 
L 314.503278 201.899124 
L 315.756771 158.457421 
L 317.010263 194.968786 
L 318.263756 237.767645 
L 319.517248 245.608504 
L 320.770741 241.365229 
L 322.024233 238.64486 
L 324.531218 224.293722 
L 325.78471 170.61811 
L 327.038203 199.734647 
L 328.291695 211.679395 
L 329.545188 215.799517 
L 330.79868 207.380343 
L 332.052173 187.010577 
L 333.305665 191.258419 
L 334.559158 231.047327 
L 335.81265 243.246045 
L 337.066143 195.517886 
L 338.319635 224.175448 
L 339.573127 230.677284 
L 340.82662 220.070306 
L 342.080112 222.128783 
L 343.333605 227.719966 
L 344.587097 210.073746 
L 345.84059 165.319308 
L 347.094082 223.440839 
L 348.347575 192.540817 
L 349.601067 184.626435 
L 350.854559 237.35081 
L 352.108052 203.203865 
L 353.361544 239.564073 
L 354.615037 241.585912 
L 355.868529 216.463751 
L 357.122022 210.499499 
L 358.375514 202.163427 
L 359.629007 186.931642 
L 362.135992 237.079046 
L 363.389484 230.515334 
L 364.642976 204.525735 
L 365.896469 228.21797 
L 367.149961 226.131234 
L 368.403454 248.291975 
L 369.656946 231.130537 
L 370.910439 223.187307 
L 372.163931 233.415707 
L 373.417424 241.349523 
L 374.670916 211.360424 
L 375.924409 171.079442 
L 377.177901 200.983182 
L 378.431393 206.371449 
L 379.684886 238.306299 
L 380.938378 238.013003 
L 382.191871 227.428636 
L 383.445363 196.372711 
L 384.698856 214.402465 
L 385.952348 235.293426 
L 387.205841 229.844599 
L 388.459333 226.952786 
L 389.712826 187.322619 
L 390.966318 199.249615 
L 392.21981 182.823021 
L 393.473303 206.500819 
L 395.980288 241.739538 
L 397.23378 202.955108 
L 398.487273 201.228696 
L 398.487273 201.228696 
" style="fill:none;stroke:#008000;stroke-linecap:square;stroke-width:1.5;"/>
   </g>
   <g id="line2d_30">
    <path clip-path="url(#pf6ac2ee9da)" d="M 73.832727 295.488 
L 75.08622 280.368567 
L 76.339712 269.466223 
L 77.593205 277.93165 
L 78.846697 274.82461 
L 80.10019 281.898216 
L 81.353682 275.707672 
L 82.607174 262.136481 
L 83.860667 276.103376 
L 85.114159 281.497494 
L 86.367652 273.709545 
L 87.621144 241.635197 
L 88.874637 260.752351 
L 90.128129 268.924786 
L 92.635114 261.745672 
L 93.888607 269.657431 
L 95.142099 262.697496 
L 96.395591 263.603896 
L 97.649084 262.180419 
L 98.902576 267.931976 
L 100.156069 264.062088 
L 101.409561 257.156219 
L 102.663054 256.133914 
L 103.916546 254.46037 
L 105.170039 253.344938 
L 106.423531 255.720227 
L 107.677024 269.591082 
L 108.930516 263.137367 
L 110.184008 263.087924 
L 111.437501 263.40334 
L 112.690993 265.958886 
L 113.944486 245.477569 
L 115.197978 248.435288 
L 116.451471 252.251052 
L 117.704963 258.652773 
L 118.958456 261.87528 
L 120.211948 257.110235 
L 121.465441 220.66081 
L 122.718933 258.316171 
L 123.972425 261.606849 
L 125.225918 258.379873 
L 126.47941 258.140492 
L 127.732903 258.669233 
L 128.986395 240.54825 
L 130.239888 266.16272 
L 131.49338 254.518706 
L 132.746873 254.947259 
L 134.000365 265.826308 
L 135.253857 262.953625 
L 136.50735 262.916319 
L 137.760842 250.864478 
L 139.014335 250.251358 
L 140.267827 251.827519 
L 141.52132 255.624899 
L 142.774812 250.872925 
L 144.028305 245.248657 
L 145.281797 262.296445 
L 146.53529 253.345051 
L 147.788782 265.872968 
L 149.042274 246.785756 
L 150.295767 257.414947 
L 151.549259 259.604659 
L 152.802752 262.88437 
L 154.056244 254.390835 
L 155.309737 255.972859 
L 156.563229 250.724795 
L 157.816722 258.393944 
L 159.070214 260.414375 
L 160.323707 234.336315 
L 161.577199 266.567351 
L 162.830691 253.88255 
L 164.084184 251.793203 
L 165.337676 251.749635 
L 166.591169 258.741241 
L 167.844661 254.705163 
L 169.098154 244.239465 
L 170.351646 255.498791 
L 171.605139 261.12424 
L 172.858631 247.94575 
L 174.112124 252.114305 
L 175.365616 261.020974 
L 176.619108 248.853156 
L 177.872601 262.132036 
L 179.126093 251.706261 
L 180.379586 252.819911 
L 181.633078 257.371207 
L 182.886571 253.043973 
L 184.140063 253.430127 
L 185.393556 236.728593 
L 186.647048 260.425058 
L 187.900541 262.618343 
L 189.154033 243.401303 
L 190.407525 250.076205 
L 191.661018 233.525124 
L 192.91451 259.449649 
L 194.168003 256.964532 
L 195.421495 261.954271 
L 196.674988 259.814769 
L 197.92848 266.306629 
L 199.181973 260.998466 
L 200.435465 255.057506 
L 201.688958 254.701726 
L 202.94245 260.313753 
L 204.195942 258.051725 
L 205.449435 260.803855 
L 206.702927 241.569603 
L 207.95642 247.52563 
L 209.209912 254.16221 
L 210.463405 248.642645 
L 211.716897 261.210657 
L 212.97039 251.308704 
L 214.223882 258.857413 
L 215.477375 253.096921 
L 216.730867 245.186866 
L 217.984359 252.480756 
L 219.237852 252.547973 
L 220.491344 256.999298 
L 221.744837 259.468718 
L 222.998329 251.035748 
L 224.251822 253.899156 
L 225.505314 248.986537 
L 226.758807 267.689114 
L 228.012299 260.227128 
L 229.265792 265.758248 
L 230.519284 236.029317 
L 231.772776 259.589378 
L 233.026269 256.460021 
L 234.279761 240.864138 
L 235.533254 264.192024 
L 236.786746 270.170806 
L 238.040239 259.319735 
L 239.293731 252.923564 
L 240.547224 261.635607 
L 241.800716 253.363915 
L 243.054208 249.663319 
L 244.307701 248.12261 
L 245.561193 249.211528 
L 246.814686 262.262785 
L 248.068178 250.257938 
L 249.321671 261.556208 
L 250.575163 254.930101 
L 251.828656 253.09554 
L 253.082148 260.476196 
L 254.335641 257.577044 
L 255.589133 252.929159 
L 256.842625 258.815337 
L 258.096118 250.828221 
L 259.34961 252.388845 
L 260.603103 255.616598 
L 261.856595 260.440017 
L 263.110088 243.60445 
L 264.36358 259.207475 
L 265.617073 241.051297 
L 266.870565 252.397009 
L 268.124058 252.391895 
L 269.37755 255.519856 
L 270.631042 250.44811 
L 271.884535 247.505375 
L 273.138027 247.494454 
L 274.39152 232.446883 
L 275.645012 259.191882 
L 276.898505 259.134039 
L 278.151997 240.442023 
L 279.40549 248.96255 
L 280.658982 250.944864 
L 281.912475 258.401101 
L 283.165967 250.80347 
L 284.419459 259.619844 
L 285.672952 255.517622 
L 286.926444 258.22361 
L 288.179937 249.233215 
L 289.433429 237.426619 
L 290.686922 269.259316 
L 291.940414 262.271804 
L 293.193907 252.736126 
L 294.447399 249.40613 
L 295.700892 242.390183 
L 296.954384 264.853447 
L 298.207876 246.533402 
L 299.461369 256.060273 
L 300.714861 250.190142 
L 301.968354 266.364578 
L 303.221846 256.17233 
L 304.475339 256.60801 
L 305.728831 248.675532 
L 306.982324 250.829131 
L 308.235816 259.588777 
L 309.489309 247.252965 
L 310.742801 243.249416 
L 311.996293 260.594141 
L 313.249786 252.107362 
L 314.503278 240.843101 
L 315.756771 245.478903 
L 317.010263 249.045943 
L 318.263756 268.231449 
L 319.517248 257.714468 
L 320.770741 263.345363 
L 322.024233 264.745795 
L 323.277726 248.7921 
L 324.531218 259.335151 
L 325.78471 248.229133 
L 327.038203 271.870084 
L 328.291695 255.027692 
L 329.545188 259.507686 
L 330.79868 254.034371 
L 332.052173 250.866415 
L 333.305665 260.330187 
L 334.559158 264.994189 
L 335.81265 252.324283 
L 337.066143 246.656447 
L 338.319635 256.477075 
L 339.573127 247.401944 
L 340.82662 256.631458 
L 342.080112 257.596144 
L 343.333605 260.761215 
L 344.587097 243.157307 
L 345.84059 259.177576 
L 347.094082 247.219706 
L 348.347575 249.601514 
L 349.601067 254.451706 
L 350.854559 243.011971 
L 352.108052 256.115776 
L 353.361544 255.422788 
L 354.615037 247.544333 
L 355.868529 247.680114 
L 357.122022 241.270179 
L 358.375514 258.661109 
L 359.629007 248.882739 
L 360.882499 236.140879 
L 362.135992 268.945525 
L 363.389484 258.42289 
L 364.642976 265.076095 
L 365.896469 250.861904 
L 367.149961 243.641778 
L 368.403454 254.931252 
L 369.656946 256.48659 
L 370.910439 249.468204 
L 372.163931 253.457971 
L 373.417424 266.757808 
L 374.670916 243.496796 
L 375.924409 264.562234 
L 377.177901 236.075317 
L 378.431393 248.741273 
L 379.684886 276.851179 
L 380.938378 251.073532 
L 382.191871 249.044642 
L 383.445363 262.193464 
L 384.698856 245.803483 
L 385.952348 254.530259 
L 387.205841 243.062337 
L 388.459333 242.913132 
L 389.712826 264.315592 
L 390.966318 262.004787 
L 392.21981 275.561481 
L 393.473303 246.507402 
L 394.726795 254.399333 
L 395.980288 271.061665 
L 397.23378 257.5772 
L 398.487273 258.766124 
L 398.487273 258.766124 
" style="fill:none;stroke:#008000;stroke-linecap:square;stroke-width:1.5;"/>
   </g>
   <g id="line2d_31">
    <path clip-path="url(#pf6ac2ee9da)" d="M 73.832727 53.568 
L 75.08622 103.777524 
L 76.339712 120.431909 
L 77.593205 131.169865 
L 78.846697 128.836677 
L 80.10019 144.26025 
L 81.353682 143.845403 
L 82.607174 154.001369 
L 83.860667 149.712678 
L 85.114159 160.083631 
L 86.367652 159.315867 
L 87.621144 160.721036 
L 88.874637 158.026134 
L 90.128129 164.259346 
L 91.381622 161.487509 
L 92.635114 155.104244 
L 93.888607 155.92663 
L 95.142099 164.515805 
L 96.395591 159.856265 
L 97.649084 157.768158 
L 98.902576 142.523402 
L 100.156069 160.237852 
L 101.409561 173.468806 
L 102.663054 182.684818 
L 103.916546 153.809015 
L 105.170039 157.738434 
L 106.423531 162.88227 
L 107.677024 165.751793 
L 108.930516 141.708133 
L 110.184008 143.376728 
L 111.437501 151.211921 
L 112.690993 141.288715 
L 113.944486 151.552273 
L 115.197978 153.569591 
L 116.451471 156.457044 
L 117.704963 152.239708 
L 118.958456 145.63314 
L 120.211948 150.342342 
L 121.465441 136.855419 
L 122.718933 141.951073 
L 123.972425 165.884434 
L 125.225918 165.668918 
L 126.47941 167.346478 
L 127.732903 137.123738 
L 128.986395 151.504798 
L 130.239888 155.676675 
L 131.49338 132.337995 
L 132.746873 136.029555 
L 134.000365 142.732319 
L 135.253857 147.824994 
L 136.50735 132.61691 
L 137.760842 147.40731 
L 139.014335 182.436551 
L 141.52132 161.567103 
L 142.774812 180.314186 
L 144.028305 140.427432 
L 145.281797 160.733847 
L 146.53529 144.358868 
L 147.788782 144.270308 
L 149.042274 136.098694 
L 150.295767 136.008155 
L 151.549259 158.892904 
L 152.802752 117.959801 
L 154.056244 134.328973 
L 155.309737 176.962676 
L 156.563229 175.557922 
L 157.816722 178.736715 
L 159.070214 166.386407 
L 160.323707 143.574417 
L 161.577199 151.451232 
L 162.830691 127.948386 
L 164.084184 127.911129 
L 165.337676 116.692911 
L 166.591169 140.632324 
L 167.844661 118.134526 
L 169.098154 182.743993 
L 170.351646 170.073394 
L 171.605139 188.986415 
L 172.858631 187.649961 
L 174.112124 185.441779 
L 175.365616 180.263269 
L 176.619108 184.35312 
L 177.872601 141.913195 
L 179.126093 151.859517 
L 180.379586 153.707125 
L 181.633078 126.14088 
L 184.140063 157.066384 
L 185.393556 137.311679 
L 186.647048 142.08627 
L 187.900541 164.251097 
L 189.154033 220.42272 
L 190.407525 163.841059 
L 191.661018 191.779218 
L 192.91451 195.738436 
L 194.168003 163.367217 
L 195.421495 173.003486 
L 196.674988 166.667735 
L 197.92848 167.05477 
L 199.181973 158.28792 
L 200.435465 156.330634 
L 201.688958 173.476244 
L 202.94245 163.116754 
L 204.195942 186.973188 
L 205.449435 183.318084 
L 206.702927 161.034963 
L 207.95642 175.84122 
L 209.209912 180.505097 
L 210.463405 172.281133 
L 211.716897 182.52677 
L 212.97039 171.802493 
L 214.223882 165.288292 
L 215.477375 201.863008 
L 216.730867 140.405636 
L 217.984359 142.157049 
L 219.237852 153.693107 
L 220.491344 210.988792 
L 221.744837 162.528107 
L 222.998329 179.911699 
L 224.251822 171.80764 
L 225.505314 184.54356 
L 226.758807 167.228731 
L 228.012299 170.414943 
L 229.265792 194.821589 
L 230.519284 165.12687 
L 231.772776 177.881446 
L 233.026269 184.477862 
L 234.279761 114.271202 
L 235.533254 123.576895 
L 236.786746 196.128838 
L 238.040239 163.830934 
L 239.293731 185.766491 
L 240.547224 188.217406 
L 243.054208 205.157841 
L 244.307701 175.680759 
L 245.561193 204.19596 
L 246.814686 166.059451 
L 248.068178 142.776354 
L 249.321671 158.713324 
L 250.575163 116.021484 
L 251.828656 199.4928 
L 253.082148 209.831418 
L 254.335641 207.545848 
L 255.589133 200.762123 
L 256.842625 223.48066 
L 258.096118 198.244208 
L 259.34961 186.615009 
L 260.603103 208.237874 
L 261.856595 206.018096 
L 263.110088 129.969342 
L 264.36358 164.870684 
L 265.617073 170.67769 
L 266.870565 166.309641 
L 268.124058 166.953776 
L 269.37755 224.668333 
L 270.631042 235.880626 
L 271.884535 207.35422 
L 273.138027 191.599318 
L 274.39152 172.703728 
L 275.645012 227.055091 
L 276.898505 187.027291 
L 278.151997 174.475155 
L 279.40549 181.309269 
L 280.658982 153.657472 
L 281.912475 122.434218 
L 283.165967 165.797213 
L 284.419459 121.417301 
L 285.672952 178.588933 
L 286.926444 184.967975 
L 288.179937 204.967788 
L 289.433429 176.706104 
L 290.686922 181.913537 
L 291.940414 203.460456 
L 293.193907 207.335121 
L 294.447399 202.068334 
L 295.700892 152.203178 
L 296.954384 169.846659 
L 298.207876 130.725219 
L 299.461369 137.504108 
L 300.714861 119.076911 
L 301.968354 194.826407 
L 303.221846 208.988783 
L 304.475339 221.540542 
L 305.728831 217.949604 
L 306.982324 202.271039 
L 308.235816 225.956034 
L 309.489309 186.811634 
L 310.742801 228.241722 
L 311.996293 174.965429 
L 313.249786 207.785376 
L 314.503278 211.596803 
L 315.756771 166.620344 
L 317.010263 183.322854 
L 318.263756 183.372111 
L 319.517248 208.00043 
L 320.770741 223.050763 
L 322.024233 242.377683 
L 323.277726 178.95899 
L 324.531218 145.961736 
L 325.78471 216.1168 
L 327.038203 223.356974 
L 328.291695 147.150804 
L 329.545188 178.481915 
L 330.79868 155.142961 
L 332.052173 177.982704 
L 333.305665 146.784556 
L 334.559158 177.340558 
L 335.81265 180.162228 
L 337.066143 223.628088 
L 338.319635 192.80511 
L 339.573127 208.63166 
L 340.82662 180.272065 
L 343.333605 225.17962 
L 344.587097 176.601811 
L 345.84059 148.697372 
L 347.094082 189.170039 
L 348.347575 163.559533 
L 349.601067 185.6829 
L 350.854559 196.918257 
L 352.108052 190.62044 
L 353.361544 193.292424 
L 354.615037 197.497617 
L 355.868529 202.815227 
L 357.122022 239.94978 
L 358.375514 174.69975 
L 359.629007 197.600657 
L 360.882499 192.850682 
L 362.135992 224.891184 
L 363.389484 217.555172 
L 364.642976 164.698364 
L 365.896469 188.076968 
L 367.149961 218.728879 
L 368.403454 186.385805 
L 369.656946 194.821957 
L 370.910439 229.427769 
L 372.163931 245.728758 
L 373.417424 169.054233 
L 374.670916 197.188602 
L 375.924409 167.551407 
L 377.177901 181.359479 
L 378.431393 185.745261 
L 379.684886 187.208568 
L 380.938378 196.383835 
L 382.191871 173.004646 
L 383.445363 208.020746 
L 384.698856 168.716426 
L 385.952348 207.777909 
L 387.205841 176.770078 
L 388.459333 195.51732 
L 389.712826 200.353781 
L 390.966318 165.50839 
L 392.21981 211.288088 
L 393.473303 205.989994 
L 394.726795 211.917093 
L 395.980288 207.682854 
L 397.23378 208.580149 
L 398.487273 203.011247 
L 398.487273 203.011247 
" style="fill:none;stroke:#b22222;stroke-linecap:square;stroke-width:1.5;"/>
   </g>
   <g id="line2d_32">
    <path clip-path="url(#pf6ac2ee9da)" d="M 73.832727 272.598961 
L 75.08622 259.536743 
L 76.339712 271.928792 
L 77.593205 264.442827 
L 78.846697 263.333496 
L 80.10019 263.62169 
L 81.353682 272.925962 
L 82.607174 262.309827 
L 83.860667 265.594886 
L 85.114159 267.816926 
L 86.367652 257.944742 
L 87.621144 267.486312 
L 88.874637 269.584959 
L 90.128129 252.841627 
L 91.381622 249.853594 
L 92.635114 271.323403 
L 93.888607 267.079081 
L 95.142099 261.959435 
L 96.395591 264.739182 
L 97.649084 230.977853 
L 98.902576 258.128168 
L 100.156069 255.838714 
L 101.409561 270.055685 
L 102.663054 229.460043 
L 103.916546 255.641896 
L 105.170039 245.55542 
L 106.423531 267.140337 
L 107.677024 265.5303 
L 108.930516 259.306273 
L 110.184008 261.254958 
L 111.437501 247.389274 
L 112.690993 268.404976 
L 113.944486 268.068775 
L 115.197978 260.920524 
L 116.451471 237.567698 
L 117.704963 265.959713 
L 118.958456 268.885078 
L 120.211948 270.327836 
L 121.465441 274.688075 
L 122.718933 252.777323 
L 123.972425 247.41979 
L 125.225918 272.878795 
L 126.47941 243.171033 
L 127.732903 268.345368 
L 128.986395 267.974198 
L 130.239888 245.024991 
L 131.49338 265.268654 
L 132.746873 262.796789 
L 134.000365 270.439822 
L 135.253857 252.913033 
L 136.50735 271.557184 
L 137.760842 279.867182 
L 139.014335 270.043494 
L 140.267827 269.778897 
L 141.52132 273.244183 
L 142.774812 272.323492 
L 144.028305 246.456881 
L 145.281797 263.991629 
L 146.53529 260.344215 
L 147.788782 269.039631 
L 149.042274 269.990864 
L 150.295767 259.254672 
L 151.549259 270.798435 
L 152.802752 275.399502 
L 154.056244 270.618129 
L 155.309737 274.65125 
L 156.563229 274.332246 
L 157.816722 253.273333 
L 159.070214 262.126057 
L 160.323707 269.184853 
L 161.577199 266.634487 
L 162.830691 267.005707 
L 164.084184 260.22319 
L 165.337676 274.679336 
L 166.591169 268.580297 
L 167.844661 269.019866 
L 169.098154 260.072441 
L 170.351646 274.149986 
L 171.605139 254.0465 
L 172.858631 265.699401 
L 174.112124 275.408908 
L 175.365616 276.378489 
L 176.619108 272.050378 
L 177.872601 275.137293 
L 179.126093 275.145374 
L 180.379586 271.693962 
L 181.633078 272.01409 
L 182.886571 270.624313 
L 184.140063 274.927115 
L 185.393556 255.038482 
L 186.647048 267.440402 
L 187.900541 277.616044 
L 189.154033 277.569056 
L 190.407525 276.290864 
L 191.661018 266.362516 
L 192.91451 265.734188 
L 194.168003 283.047765 
L 195.421495 278.542098 
L 196.674988 253.475897 
L 197.92848 274.773526 
L 199.181973 259.804618 
L 200.435465 264.850364 
L 201.688958 264.996126 
L 202.94245 269.180356 
L 204.195942 270.23231 
L 205.449435 272.77822 
L 206.702927 270.50857 
L 207.95642 271.118487 
L 209.209912 271.264697 
L 210.463405 273.241332 
L 211.716897 266.624129 
L 212.97039 276.271682 
L 214.223882 277.325429 
L 215.477375 261.885954 
L 216.730867 273.984218 
L 217.984359 270.168233 
L 219.237852 272.465669 
L 220.491344 284.476984 
L 221.744837 281.65095 
L 222.998329 267.360197 
L 224.251822 267.302832 
L 225.505314 279.354193 
L 226.758807 267.285517 
L 228.012299 271.039513 
L 229.265792 276.09527 
L 230.519284 265.816697 
L 231.772776 265.940369 
L 233.026269 273.874944 
L 234.279761 277.723586 
L 235.533254 267.760073 
L 236.786746 282.40879 
L 238.040239 279.443641 
L 239.293731 273.856108 
L 240.547224 277.817931 
L 241.800716 275.001863 
L 243.054208 279.829623 
L 244.307701 270.196564 
L 245.561193 271.823002 
L 246.814686 283.340945 
L 248.068178 278.501977 
L 249.321671 269.094415 
L 250.575163 275.56508 
L 251.828656 270.265029 
L 253.082148 283.078163 
L 254.335641 272.684676 
L 255.589133 284.96567 
L 256.842625 281.329389 
L 258.096118 281.939195 
L 259.34961 277.343774 
L 260.603103 277.408426 
L 261.856595 276.595664 
L 263.110088 276.170507 
L 264.36358 282.430277 
L 265.617073 282.893984 
L 266.870565 284.142069 
L 268.124058 275.482481 
L 269.37755 284.822974 
L 270.631042 282.533914 
L 271.884535 279.878265 
L 273.138027 282.640949 
L 274.39152 282.063602 
L 275.645012 280.493717 
L 276.898505 278.615965 
L 278.151997 269.218291 
L 279.40549 270.448052 
L 280.658982 277.160584 
L 281.912475 266.412162 
L 283.165967 277.677631 
L 284.419459 279.341072 
L 285.672952 279.262437 
L 286.926444 284.13906 
L 288.179937 287.284438 
L 289.433429 274.334112 
L 290.686922 281.54862 
L 291.940414 273.596423 
L 293.193907 275.508604 
L 294.447399 280.168591 
L 295.700892 278.648973 
L 296.954384 278.758245 
L 298.207876 273.684391 
L 299.461369 278.297147 
L 300.714861 280.279412 
L 301.968354 283.437026 
L 303.221846 279.612313 
L 304.475339 287.624804 
L 305.728831 281.782945 
L 306.982324 288.003953 
L 308.235816 284.888117 
L 309.489309 278.950589 
L 310.742801 279.005997 
L 311.996293 281.548318 
L 313.249786 281.350079 
L 314.503278 280.013987 
L 315.756771 285.81178 
L 317.010263 278.39873 
L 318.263756 286.141058 
L 319.517248 287.828558 
L 320.770741 282.631457 
L 322.024233 279.337607 
L 323.277726 283.660536 
L 324.531218 277.850844 
L 325.78471 272.645579 
L 327.038203 281.004719 
L 328.291695 284.629254 
L 329.545188 285.48241 
L 330.79868 281.675971 
L 332.052173 280.543437 
L 333.305665 278.475465 
L 334.559158 285.629306 
L 335.81265 284.566671 
L 337.066143 282.050517 
L 338.319635 285.260709 
L 339.573127 286.362329 
L 340.82662 287.095095 
L 342.080112 283.527938 
L 343.333605 278.338327 
L 344.587097 282.811159 
L 345.84059 284.102388 
L 347.094082 278.658408 
L 348.347575 283.798731 
L 349.601067 271.180309 
L 350.854559 279.00571 
L 352.108052 276.904983 
L 353.361544 285.601594 
L 354.615037 276.581879 
L 355.868529 286.394428 
L 357.122022 282.230835 
L 358.375514 284.873554 
L 359.629007 281.396628 
L 360.882499 284.618841 
L 362.135992 281.811359 
L 363.389484 284.686561 
L 364.642976 278.16341 
L 365.896469 282.523964 
L 367.149961 274.595619 
L 368.403454 275.94109 
L 369.656946 281.172612 
L 370.910439 281.263963 
L 372.163931 289.861957 
L 373.417424 287.726361 
L 374.670916 279.824447 
L 375.924409 291.343024 
L 377.177901 269.508469 
L 378.431393 283.416451 
L 379.684886 282.061187 
L 380.938378 284.980701 
L 382.191871 275.356907 
L 383.445363 286.975669 
L 384.698856 278.960018 
L 385.952348 269.562657 
L 387.205841 287.093756 
L 388.459333 283.656812 
L 389.712826 289.08863 
L 390.966318 286.813645 
L 392.21981 286.010707 
L 393.473303 276.456022 
L 394.726795 285.698078 
L 395.980288 282.262818 
L 397.23378 282.511109 
L 398.487273 275.032483 
L 398.487273 275.032483 
" style="fill:none;stroke:#b22222;stroke-linecap:square;stroke-width:1.5;"/>
   </g>
   <g id="patch_3">
    <path d="M 57.6 307.584 
L 57.6 41.472 
" style="fill:none;stroke:#ffffff;stroke-linecap:square;stroke-linejoin:miter;"/>
   </g>
   <g id="patch_4">
    <path d="M 414.72 307.584 
L 414.72 41.472 
" style="fill:none;stroke:#ffffff;stroke-linecap:square;stroke-linejoin:miter;"/>
   </g>
   <g id="patch_5">
    <path d="M 57.6 307.584 
L 414.72 307.584 
" style="fill:none;stroke:#ffffff;stroke-linecap:square;stroke-linejoin:miter;"/>
   </g>
   <g id="patch_6">
    <path d="M 57.6 41.472 
L 414.72 41.472 
" style="fill:none;stroke:#ffffff;stroke-linecap:square;stroke-linejoin:miter;"/>
   </g>
   <g id="text_17">
    <!-- Gradient distance Landscape -->
    <defs>
     <path d="M 9.8125 72.90625 
L 19.671875 72.90625 
L 19.671875 8.296875 
L 55.171875 8.296875 
L 55.171875 0 
L 9.8125 0 
z
" id="DejaVuSans-76"/>
    </defs>
    <g transform="translate(131.05575 35.472)scale(0.144 -0.144)">
     <use xlink:href="#DejaVuSans-71"/>
     <use x="77.490234" xlink:href="#DejaVuSans-114"/>
     <use x="118.603516" xlink:href="#DejaVuSans-97"/>
     <use x="179.882812" xlink:href="#DejaVuSans-100"/>
     <use x="243.359375" xlink:href="#DejaVuSans-105"/>
     <use x="271.142578" xlink:href="#DejaVuSans-101"/>
     <use x="332.666016" xlink:href="#DejaVuSans-110"/>
     <use x="396.044922" xlink:href="#DejaVuSans-116"/>
     <use x="435.253906" xlink:href="#DejaVuSans-32"/>
     <use x="467.041016" xlink:href="#DejaVuSans-100"/>
     <use x="530.517578" xlink:href="#DejaVuSans-105"/>
     <use x="558.300781" xlink:href="#DejaVuSans-115"/>
     <use x="610.400391" xlink:href="#DejaVuSans-116"/>
     <use x="649.609375" xlink:href="#DejaVuSans-97"/>
     <use x="710.888672" xlink:href="#DejaVuSans-110"/>
     <use x="774.267578" xlink:href="#DejaVuSans-99"/>
     <use x="829.248047" xlink:href="#DejaVuSans-101"/>
     <use x="890.771484" xlink:href="#DejaVuSans-32"/>
     <use x="922.558594" xlink:href="#DejaVuSans-76"/>
     <use x="978.271484" xlink:href="#DejaVuSans-97"/>
     <use x="1039.550781" xlink:href="#DejaVuSans-110"/>
     <use x="1102.929688" xlink:href="#DejaVuSans-100"/>
     <use x="1166.40625" xlink:href="#DejaVuSans-115"/>
     <use x="1218.505859" xlink:href="#DejaVuSans-99"/>
     <use x="1273.486328" xlink:href="#DejaVuSans-97"/>
     <use x="1334.765625" xlink:href="#DejaVuSans-112"/>
     <use x="1398.242188" xlink:href="#DejaVuSans-101"/>
    </g>
   </g>
   <g id="legend_1">
    <g id="patch_7">
     <path d="M 153.9135 95.265 
L 404.64 95.265 
Q 407.52 95.265 407.52 92.385 
L 407.52 51.552 
Q 407.52 48.672 404.64 48.672 
L 153.9135 48.672 
Q 151.0335 48.672 151.0335 51.552 
L 151.0335 92.385 
Q 151.0335 95.265 153.9135 95.265 
z
" style="fill:#e5e5e5;opacity:0.8;stroke:#cccccc;stroke-linejoin:miter;stroke-width:0.5;"/>
    </g>
    <g id="patch_8">
     <path d="M 156.7935 65.37375 
L 185.5935 65.37375 
L 185.5935 55.29375 
L 156.7935 55.29375 
z
" style="fill:#90ee90;stroke:#90ee90;stroke-linejoin:miter;stroke-width:0.5;"/>
    </g>
    <g id="text_18">
     <!-- Standard VGG -->
     <defs>
      <path d="M 28.609375 0 
L 0.78125 72.90625 
L 11.078125 72.90625 
L 34.1875 11.53125 
L 57.328125 72.90625 
L 67.578125 72.90625 
L 39.796875 0 
z
" id="DejaVuSans-86"/>
     </defs>
     <g transform="translate(197.1135 65.37375)scale(0.144 -0.144)">
      <use xlink:href="#DejaVuSans-83"/>
      <use x="63.476562" xlink:href="#DejaVuSans-116"/>
      <use x="102.685547" xlink:href="#DejaVuSans-97"/>
      <use x="163.964844" xlink:href="#DejaVuSans-110"/>
      <use x="227.34375" xlink:href="#DejaVuSans-100"/>
      <use x="290.820312" xlink:href="#DejaVuSans-97"/>
      <use x="352.099609" xlink:href="#DejaVuSans-114"/>
      <use x="393.197266" xlink:href="#DejaVuSans-100"/>
      <use x="456.673828" xlink:href="#DejaVuSans-32"/>
      <use x="488.460938" xlink:href="#DejaVuSans-86"/>
      <use x="556.869141" xlink:href="#DejaVuSans-71"/>
      <use x="634.359375" xlink:href="#DejaVuSans-71"/>
     </g>
    </g>
    <g id="patch_9">
     <path d="M 156.7935 86.51025 
L 185.5935 86.51025 
L 185.5935 76.43025 
L 156.7935 76.43025 
z
" style="fill:#f08080;stroke:#f08080;stroke-linejoin:miter;stroke-width:0.5;"/>
    </g>
    <g id="text_19">
     <!-- Standard VGG + BatchNorm -->
     <defs>
      <path d="M 46 62.703125 
L 46 35.5 
L 73.1875 35.5 
L 73.1875 27.203125 
L 46 27.203125 
L 46 0 
L 37.796875 0 
L 37.796875 27.203125 
L 10.59375 27.203125 
L 10.59375 35.5 
L 37.796875 35.5 
L 37.796875 62.703125 
z
" id="DejaVuSans-43"/>
      <path d="M 19.671875 34.8125 
L 19.671875 8.109375 
L 35.5 8.109375 
Q 43.453125 8.109375 47.28125 11.40625 
Q 51.125 14.703125 51.125 21.484375 
Q 51.125 28.328125 47.28125 31.5625 
Q 43.453125 34.8125 35.5 34.8125 
z
M 19.671875 64.796875 
L 19.671875 42.828125 
L 34.28125 42.828125 
Q 41.5 42.828125 45.03125 45.53125 
Q 48.578125 48.25 48.578125 53.8125 
Q 48.578125 59.328125 45.03125 62.0625 
Q 41.5 64.796875 34.28125 64.796875 
z
M 9.8125 72.90625 
L 35.015625 72.90625 
Q 46.296875 72.90625 52.390625 68.21875 
Q 58.5 63.53125 58.5 54.890625 
Q 58.5 48.1875 55.375 44.234375 
Q 52.25 40.28125 46.1875 39.3125 
Q 53.46875 37.75 57.5 32.78125 
Q 61.53125 27.828125 61.53125 20.40625 
Q 61.53125 10.640625 54.890625 5.3125 
Q 48.25 0 35.984375 0 
L 9.8125 0 
z
" id="DejaVuSans-66"/>
      <path d="M 54.890625 33.015625 
L 54.890625 0 
L 45.90625 0 
L 45.90625 32.71875 
Q 45.90625 40.484375 42.875 44.328125 
Q 39.84375 48.1875 33.796875 48.1875 
Q 26.515625 48.1875 22.3125 43.546875 
Q 18.109375 38.921875 18.109375 30.90625 
L 18.109375 0 
L 9.078125 0 
L 9.078125 75.984375 
L 18.109375 75.984375 
L 18.109375 46.1875 
Q 21.34375 51.125 25.703125 53.5625 
Q 30.078125 56 35.796875 56 
Q 45.21875 56 50.046875 50.171875 
Q 54.890625 44.34375 54.890625 33.015625 
z
" id="DejaVuSans-104"/>
      <path d="M 9.8125 72.90625 
L 23.09375 72.90625 
L 55.421875 11.921875 
L 55.421875 72.90625 
L 64.984375 72.90625 
L 64.984375 0 
L 51.703125 0 
L 19.390625 60.984375 
L 19.390625 0 
L 9.8125 0 
z
" id="DejaVuSans-78"/>
      <path d="M 30.609375 48.390625 
Q 23.390625 48.390625 19.1875 42.75 
Q 14.984375 37.109375 14.984375 27.296875 
Q 14.984375 17.484375 19.15625 11.84375 
Q 23.34375 6.203125 30.609375 6.203125 
Q 37.796875 6.203125 41.984375 11.859375 
Q 46.1875 17.53125 46.1875 27.296875 
Q 46.1875 37.015625 41.984375 42.703125 
Q 37.796875 48.390625 30.609375 48.390625 
z
M 30.609375 56 
Q 42.328125 56 49.015625 48.375 
Q 55.71875 40.765625 55.71875 27.296875 
Q 55.71875 13.875 49.015625 6.21875 
Q 42.328125 -1.421875 30.609375 -1.421875 
Q 18.84375 -1.421875 12.171875 6.21875 
Q 5.515625 13.875 5.515625 27.296875 
Q 5.515625 40.765625 12.171875 48.375 
Q 18.84375 56 30.609375 56 
z
" id="DejaVuSans-111"/>
      <path d="M 52 44.1875 
Q 55.375 50.25 60.0625 53.125 
Q 64.75 56 71.09375 56 
Q 79.640625 56 84.28125 50.015625 
Q 88.921875 44.046875 88.921875 33.015625 
L 88.921875 0 
L 79.890625 0 
L 79.890625 32.71875 
Q 79.890625 40.578125 77.09375 44.375 
Q 74.3125 48.1875 68.609375 48.1875 
Q 61.625 48.1875 57.5625 43.546875 
Q 53.515625 38.921875 53.515625 30.90625 
L 53.515625 0 
L 44.484375 0 
L 44.484375 32.71875 
Q 44.484375 40.625 41.703125 44.40625 
Q 38.921875 48.1875 33.109375 48.1875 
Q 26.21875 48.1875 22.15625 43.53125 
Q 18.109375 38.875 18.109375 30.90625 
L 18.109375 0 
L 9.078125 0 
L 9.078125 54.6875 
L 18.109375 54.6875 
L 18.109375 46.1875 
Q 21.1875 51.21875 25.484375 53.609375 
Q 29.78125 56 35.6875 56 
Q 41.65625 56 45.828125 52.96875 
Q 50 49.953125 52 44.1875 
z
" id="DejaVuSans-109"/>
     </defs>
     <g transform="translate(197.1135 86.51025)scale(0.144 -0.144)">
      <use xlink:href="#DejaVuSans-83"/>
      <use x="63.476562" xlink:href="#DejaVuSans-116"/>
      <use x="102.685547" xlink:href="#DejaVuSans-97"/>
      <use x="163.964844" xlink:href="#DejaVuSans-110"/>
      <use x="227.34375" xlink:href="#DejaVuSans-100"/>
      <use x="290.820312" xlink:href="#DejaVuSans-97"/>
      <use x="352.099609" xlink:href="#DejaVuSans-114"/>
      <use x="393.197266" xlink:href="#DejaVuSans-100"/>
      <use x="456.673828" xlink:href="#DejaVuSans-32"/>
      <use x="488.460938" xlink:href="#DejaVuSans-86"/>
      <use x="556.869141" xlink:href="#DejaVuSans-71"/>
      <use x="634.359375" xlink:href="#DejaVuSans-71"/>
      <use x="711.849609" xlink:href="#DejaVuSans-32"/>
      <use x="743.636719" xlink:href="#DejaVuSans-43"/>
      <use x="827.425781" xlink:href="#DejaVuSans-32"/>
      <use x="859.212891" xlink:href="#DejaVuSans-66"/>
      <use x="927.816406" xlink:href="#DejaVuSans-97"/>
      <use x="989.095703" xlink:href="#DejaVuSans-116"/>
      <use x="1028.304688" xlink:href="#DejaVuSans-99"/>
      <use x="1083.285156" xlink:href="#DejaVuSans-104"/>
      <use x="1146.664062" xlink:href="#DejaVuSans-78"/>
      <use x="1221.46875" xlink:href="#DejaVuSans-111"/>
      <use x="1282.650391" xlink:href="#DejaVuSans-114"/>
      <use x="1323.748047" xlink:href="#DejaVuSans-109"/>
     </g>
    </g>
   </g>
  </g>
 </g>
 <defs>
  <clipPath id="pf6ac2ee9da">
   <rect height="266.112" width="357.12" x="57.6" y="41.472"/>
  </clipPath>
 </defs>
</svg>
